#VRML V2.0 utf8
Transform {
children [
Shape {
appearance Appearance {
material Material {
ambientIntensity 1.000000
diffuseColor 1.000000 1.000000 1.000000
emissiveColor 0.210000 0.210000 0.210000
specularColor 0.880000 0.880000 0.880000
shininess 0.210000
transparency 0.000000
}
}
geometry IndexedFaceSet {
color Color {
color [
 1.000000 1.000000 1.000000
]
}
coord Coordinate {
point [
 -0.030000 0.016800 0.000000, -0.030000 0.029800 0.000000, -0.029795 0.029800 -0.003503, -0.029795 0.029800 0.003503, -0.029781 0.016800 -0.003616,
 -0.029781 0.016800 0.003616, -0.029775 0.029800 -0.003615, -0.029775 0.029800 0.003615, -0.029182 0.029800 -0.006958, -0.029182 0.029800 0.006958,
 -0.029128 0.016800 -0.007179, -0.029128 0.016800 0.007179, -0.029116 0.029800 -0.007176, -0.029116 0.029800 0.007176, -0.028170 0.029800 -0.010318,
 -0.028170 0.029800 0.010318, -0.028050 0.016800 -0.010638, -0.028050 0.016800 0.010638, -0.028034 0.029800 -0.010631, -0.028034 0.029800 0.010631,
 -0.026772 0.029800 -0.013537, -0.026772 0.029800 0.013537, -0.026750 0.000000 -0.004750, -0.026750 0.000000 0.004750, -0.026750 0.003000 -0.007750,
 -0.026750 0.003000 0.007750, -0.026750 0.016800 -0.007750, -0.026750 0.016800 0.007750, -0.026564 0.016800 -0.013942, -0.026564 0.016800 0.013942,
 -0.026544 0.029800 -0.013930, -0.026544 0.029800 0.013930, -0.025008 0.029800 -0.016570, -0.025008 0.029800 0.016570, -0.025000 0.034800 0.000000,
 -0.024829 0.034800 -0.002919, -0.024829 0.034800 0.002919, -0.024690 0.016800 -0.017042, -0.024690 0.016800 0.017042, -0.024667 0.029800 -0.017025,
 -0.024667 0.029800 0.017025, -0.024318 0.034800 -0.005798, -0.024318 0.034800 0.005798, -0.024000 0.016800 -0.016600, -0.024000 0.016800 -0.007750,
 -0.024000 0.016800 0.007750, -0.024000 0.016800 0.016600, -0.024000 0.019800 -0.016600, -0.024000 0.019800 -0.007750, -0.024000 0.019800 0.007750,
 -0.024000 0.019800 0.016600, -0.023475 0.034800 -0.008598, -0.023475 0.034800 0.008598, -0.023000 0.064155 -0.001045, -0.023000 0.064155 0.001045,
 -0.023000 0.064589 -0.003090, -0.023000 0.064589 0.003090, -0.023000 0.065440 -0.005000, -0.023000 0.065440 0.005000, -0.023000 0.066669 -0.006691,
 -0.023000 0.066669 0.006691, -0.023000 0.068222 -0.008090, -0.023000 0.068222 0.008090, -0.023000 0.068900 -0.000000, -0.023000 0.069077 -0.001346,
 -0.023000 0.069077 0.001346, -0.023000 0.069597 -0.002600, -0.023000 0.069597 0.002600, -0.023000 0.070033 -0.009135, -0.023000 0.070033 0.009135,
 -0.023000 0.070423 -0.003677, -0.023000 0.070423 0.003677, -0.023000 0.071500 -0.004503, -0.023000 0.071500 0.004503, -0.023000 0.072021 -0.009781,
 -0.023000 0.072021 0.009781, -0.023000 0.072754 -0.005023, -0.023000 0.072754 0.005023, -0.023000 0.074100 -0.010000, -0.023000 0.074100 -0.005200,
 -0.023000 0.074100 0.005200, -0.023000 0.074100 0.010000, -0.023000 0.075446 -0.005023, -0.023000 0.075446 0.005023, -0.023000 0.076179 -0.009781,
 -0.023000 0.076179 0.009781, -0.023000 0.076700 -0.004503, -0.023000 0.076700 0.004503, -0.023000 0.077777 -0.003677, -0.023000 0.077777 0.003677,
 -0.023000 0.078167 -0.009135, -0.023000 0.078167 0.009135, -0.023000 0.078603 -0.002600, -0.023000 0.078603 0.002600, -0.023000 0.079123 -0.001346,
 -0.023000 0.079123 0.001346, -0.023000 0.079300 -0.000000, -0.023000 0.079978 -0.008090, -0.023000 0.079978 0.008090, -0.023000 0.081531 -0.006691,
 -0.023000 0.081531 0.006691, -0.023000 0.082760 -0.005000, -0.023000 0.082760 0.005000, -0.023000 0.083611 -0.003090, -0.023000 0.083611 0.003090,
 -0.023000 0.084045 -0.001045, -0.023000 0.084045 0.001045, -0.022903 0.029800 -0.019377, -0.022903 0.029800 0.019377, -0.022455 0.016800 -0.019894,
 -0.022455 0.016800 0.019894, -0.022432 0.029800 -0.019871, -0.022432 0.029800 0.019871, -0.022310 0.034800 -0.011281, -0.022310 0.034800 0.011281,
 -0.022150 0.006000 -0.007750, -0.022150 0.006000 0.007750, -0.022150 0.012000 -0.007750, -0.022150 0.012000 0.007750, -0.021150 0.006000 -0.006750,
 -0.021150 0.006000 0.006750, -0.021150 0.012000 -0.006750, -0.021150 0.012000 0.006750, -0.020840 0.034800 -0.013809, -0.020840 0.034800 0.013809,
 -0.020483 0.029800 -0.021919, -0.020483 0.029800 0.021919, -0.020000 0.029800 -0.022361, -0.020000 0.029800 0.022361, -0.020000 0.030466 -0.021439,
 -0.020000 0.030466 0.021439, -0.020000 0.031828 0.019556, -0.020000 0.031836 -0.019544, -0.020000 0.033385 0.017256, -0.020000 0.033418 -0.017205,
 -0.020000 0.033587 0.016934, -0.020000 0.033589 -0.016932, -0.020000 0.034800 -0.015000, -0.020000 0.034800 0.015000, -0.020000 0.064155 -0.001045,
 -0.020000 0.064155 0.001045, -0.020000 0.064589 -0.003090, -0.020000 0.064589 0.003090, -0.020000 0.065440 -0.005000, -0.020000 0.065440 0.005000,
 -0.020000 0.066669 -0.006691, -0.020000 0.066669 0.006691, -0.020000 0.068222 -0.008090, -0.020000 0.068222 0.008090, -0.020000 0.070033 -0.009135,
 -0.020000 0.070033 0.009135, -0.020000 0.072021 -0.009781, -0.020000 0.072021 0.009781, -0.020000 0.074100 -0.010000, -0.020000 0.074100 0.010000,
 -0.020000 0.076179 -0.009781, -0.020000 0.076179 0.009781, -0.020000 0.077800 -0.022361, -0.020000 0.077800 -0.012219, -0.020000 0.077800 0.012219,
 -0.020000 0.077800 0.022361, -0.020000 0.077941 -0.011040, -0.020000 0.077941 0.011040, -0.020000 0.078167 -0.009135, -0.020000 0.078167 0.009135,
 -0.020000 0.078356 -0.009928, -0.020000 0.078356 0.009928, -0.020000 0.079021 -0.008945, -0.020000 0.079021 0.008945, -0.020000 0.079900 -0.008146,
 -0.020000 0.079900 0.008146, -0.019894 0.016800 -0.022455, -0.019894 0.016800 0.022455, -0.019894 0.077800 -0.022455, -0.019894 0.077800 0.022455,
 -0.018750 0.006000 -0.006750, -0.018750 0.006000 0.006750, -0.018750 0.012000 -0.006750, -0.018750 0.012000 0.006750, -0.018000 0.000000 -0.000000,
 -0.018000 0.020800 -0.000000, -0.018000 0.024800 -0.021448, -0.018000 0.024800 0.021448, -0.018000 0.064155 -0.001045, -0.018000 0.064155 0.001045,
 -0.018000 0.064589 -0.003090, -0.018000 0.064589 0.003090, -0.018000 0.065440 -0.005000, -0.018000 0.065440 0.005000, -0.018000 0.066669 -0.006691,
 -0.018000 0.066669 0.006691, -0.018000 0.068222 -0.008090, -0.018000 0.068222 0.008090, -0.018000 0.070033 -0.009135, -0.018000 0.070033 0.009135,
 -0.018000 0.072021 -0.009781, -0.018000 0.072021 0.009781, -0.018000 0.074100 -0.010000, -0.018000 0.074100 0.010000, -0.018000 0.076179 -0.009781,
 -0.018000 0.076179 0.009781, -0.018000 0.077800 -0.021448, -0.018000 0.077800 -0.012219, -0.018000 0.077800 0.012219, -0.018000 0.077800 0.021448,
 -0.018000 0.077941 -0.011040, -0.018000 0.077941 0.011040, -0.018000 0.078167 -0.009135, -0.018000 0.078167 0.009135, -0.018000 0.078356 -0.009928,
 -0.018000 0.078356 0.009928, -0.018000 0.079021 -0.008945, -0.018000 0.079021 0.008945, -0.018000 0.079900 -0.008146, -0.018000 0.079900 0.008146,
 -0.017778 0.000000 -0.002816, -0.017778 0.000000 0.002816, -0.017778 0.020800 -0.002816, -0.017778 0.020800 0.002816, -0.017750 0.006000 -0.007750,
 -0.017750 0.006000 0.007750, -0.017750 0.012000 -0.007750, -0.017750 0.012000 0.007750, -0.017362 0.000000 -0.004750, -0.017362 0.000000 0.004750,
 -0.017119 0.020800 -0.005562, -0.017119 0.020800 0.005562, -0.017102 0.000807 -0.005557, -0.017102 0.000807 0.005557, -0.017042 0.016800 -0.024690,
 -0.017042 0.016800 0.024690, -0.017042 0.077800 -0.024690, -0.017042 0.077800 0.024690, -0.016871 0.001525 -0.006275, -0.016871 0.001525 0.006275,
 -0.016500 0.064155 -0.001045, -0.016500 0.064155 0.001045, -0.016500 0.064589 -0.003090, -0.016500 0.064589 0.003090, -0.016500 0.065440 -0.005000,
 -0.016500 0.065440 0.005000, -0.016500 0.066669 -0.006691, -0.016500 0.066669 0.006691, -0.016500 0.068222 -0.008090, -0.016500 0.068222 0.008090,
 -0.016500 0.068900 -0.000000, -0.016500 0.069077 -0.001346, -0.016500 0.069077 0.001346, -0.016500 0.069597 -0.002600, -0.016500 0.069597 0.002600,
 -0.016500 0.070033 -0.009135, -0.016500 0.070033 0.009135, -0.016500 0.070423 -0.003677, -0.016500 0.070423 0.003677, -0.016500 0.071500 -0.004503,
 -0.016500 0.071500 0.004503, -0.016500 0.072021 -0.009781, -0.016500 0.072021 0.009781, -0.016500 0.072754 -0.005023, -0.016500 0.072754 0.005023,
 -0.016500 0.074100 -0.010000, -0.016500 0.074100 -0.005200, -0.016500 0.074100 0.005200, -0.016500 0.074100 0.010000, -0.016500 0.075446 -0.005023,
 -0.016500 0.075446 0.005023, -0.016500 0.076179 -0.009781, -0.016500 0.076179 0.009781, -0.016500 0.076700 -0.004503, -0.016500 0.076700 0.004503,
 -0.016500 0.077777 -0.003677, -0.016500 0.077777 0.003677, -0.016500 0.078167 -0.009135, -0.016500 0.078167 0.009135, -0.016500 0.078603 -0.002600,
 -0.016500 0.078603 0.002600, -0.016500 0.079123 -0.001346, -0.016500 0.079123 0.001346, -0.016500 0.079300 -0.000000, -0.016500 0.079978 -0.008090,
 -0.016500 0.079978 0.008090, -0.016500 0.081531 -0.006691, -0.016500 0.081531 0.006691, -0.016500 0.082760 -0.005000, -0.016500 0.082760 0.005000,
 -0.016500 0.083611 -0.003090, -0.016500 0.083611 0.003090, -0.016500 0.084045 -0.001045, -0.016500 0.084045 0.001045, -0.016246 0.003000 -0.007750,
 -0.016246 0.003000 0.007750, -0.016246 0.019800 -0.007750, -0.016246 0.019800 0.007750, -0.016038 0.019800 -0.008172, -0.016038 0.019800 0.008172,
 -0.016038 0.020800 -0.008172, -0.016038 0.020800 0.008172, -0.015407 0.024800 -0.023380, -0.015407 0.024800 0.023380, -0.015407 0.077800 -0.023380,
 -0.015407 0.077800 0.023380, -0.014562 0.019800 -0.010580, -0.014562 0.019800 0.010580, -0.014562 0.020800 -0.010580, -0.014562 0.020800 0.010580,
 -0.013942 0.016800 -0.026564, -0.013942 0.016800 0.026564, -0.013942 0.077800 -0.026564, -0.013942 0.077800 0.026564, -0.013077 0.029800 -0.027000,
 -0.013077 0.029800 0.027000, -0.013077 0.077800 -0.027000, -0.013077 0.077800 0.027000, -0.012728 0.019800 -0.012728, -0.012728 0.019800 0.012728,
 -0.012728 0.020800 -0.012728, -0.012728 0.020800 0.012728, -0.012610 0.024800 -0.025000, -0.012610 0.024800 0.025000, -0.012610 0.077800 -0.025000,
 -0.012610 0.077800 0.025000, -0.012155 0.030190 -0.027000, -0.011420 0.029800 0.027741, -0.011115 0.030600 0.027000, -0.011077 0.030616 0.027000,
 -0.011033 0.029800 -0.027898, -0.010683 0.030754 -0.027000, -0.010638 0.016800 -0.028050, -0.010638 0.016800 0.028050, -0.010632 0.029800 -0.028033,
 -0.010627 0.029800 0.028017, -0.010580 0.019800 -0.014562, -0.010580 0.019800 0.014562, -0.010580 0.020800 -0.014562, -0.010580 0.020800 0.014562,
 -0.010241 0.030923 -0.027000, -0.009131 0.031297 0.027000, -0.008403 0.031522 -0.027000, -0.008260 0.029800 0.028840, -0.008198 0.029800 -0.028858,
 -0.008172 0.019800 -0.016038, -0.008172 0.019800 0.016038, -0.008172 0.020800 -0.016038, -0.008172 0.020800 0.016038, -0.007736 0.031703 0.027000,
 -0.007673 0.031720 -0.027000, -0.007269 0.031839 0.027000, -0.007179 0.016800 -0.029128, -0.007179 0.016800 0.029128, -0.007172 0.029800 -0.029095,
 -0.007170 0.029800 0.029088, -0.006960 0.016800 -0.016600, -0.006960 0.016800 0.016600, -0.006960 0.019800 -0.016600, -0.006960 0.019800 0.016600,
 -0.006780 0.031962 -0.027000, -0.006701 0.020800 -0.000814, -0.006701 0.020800 0.000814, -0.006701 0.024800 -0.000814, -0.006701 0.024800 0.000814,
 -0.006311 0.020800 -0.002394, -0.006311 0.020800 0.002394, -0.006311 0.024800 -0.002394, -0.006311 0.024800 0.002394, -0.005605 0.032224 0.027000,
 -0.005562 0.016800 -0.017119, -0.005562 0.016800 0.017119, -0.005562 0.020800 -0.017119, -0.005562 0.020800 0.017119, -0.005555 0.020800 -0.003834,
 -0.005555 0.020800 0.003834, -0.005555 0.024800 -0.003834, -0.005555 0.024800 0.003834, -0.005281 0.029800 -0.029532, -0.005058 0.032330 -0.027000,
 -0.004997 0.029800 0.029581, -0.004829 0.032365 -0.027000, -0.004564 0.032403 0.027000, -0.004476 0.020800 -0.005052, -0.004476 0.020800 0.005052,
 -0.004476 0.024800 -0.005052, -0.004476 0.024800 0.005052, -0.003807 0.032533 0.027000, -0.003616 0.016800 -0.029781, -0.003616 0.016800 0.029781,
 -0.003611 0.029800 -0.029745, -0.003611 0.029800 0.029736, -0.003352 0.032592 -0.027000, -0.003137 0.020800 -0.005977, -0.003137 0.020800 0.005977,
 -0.003137 0.024800 -0.005977, -0.003137 0.024800 0.005977, -0.002816 0.016800 -0.017778, -0.002816 0.016800 0.017778, -0.002816 0.020800 -0.017778,
 -0.002816 0.020800 0.017778, -0.002312 0.029800 -0.029911, -0.002088 0.032709 -0.027000, -0.002046 0.032723 0.027000, -0.001673 0.029800 0.029953,
 -0.001669 0.032748 -0.027000, -0.001615 0.020800 -0.006554, -0.001615 0.020800 0.006554, -0.001615 0.024800 -0.006554, -0.001615 0.024800 0.006554,
 -0.001508 0.032746 0.027000, -0.000345 0.032798 0.027000, 0.000000 0.016800 -0.030000, 0.000000 0.016800 -0.018000, 0.000000 0.016800 0.018000,
 0.000000 0.016800 0.030000, 0.000000 0.020800 -0.018000, 0.000000 0.020800 -0.006750, 0.000000 0.020800 0.006750, 0.000000 0.020800 0.018000,
 0.000000 0.024800 -0.006750, 0.000000 0.024800 0.006750, 0.000000 0.029800 -0.030000, 0.000000 0.029800 0.030000, 0.000000 0.032800 -0.027000,
 0.000426 0.032797 -0.027000, 0.001296 0.032769 0.027000, 0.001508 0.032752 0.027000, 0.001615 0.020800 -0.006554, 0.001615 0.020800 0.006554,
 0.001615 0.024800 -0.006554, 0.001615 0.024800 0.006554, 0.001673 0.029800 0.029953, 0.002087 0.032718 -0.027000, 0.002131 0.032716 -0.027000,
 0.002312 0.029800 -0.029911, 0.002816 0.016800 -0.017778, 0.002816 0.016800 0.017778, 0.002816 0.020800 -0.017778, 0.002816 0.020800 0.017778,
 0.002967 0.032637 0.027000, 0.003137 0.020800 -0.005977, 0.003137 0.020800 0.005977, 0.003137 0.024800 -0.005977, 0.003137 0.024800 0.005977,
 0.003611 0.029800 0.029736, 0.003611 0.029800 -0.029745, 0.003616 0.016800 -0.029781, 0.003616 0.016800 0.029781, 0.003890 0.032521 -0.027000,
 0.004476 0.020800 -0.005052, 0.004476 0.020800 0.005052, 0.004476 0.024800 -0.005052, 0.004476 0.024800 0.005052, 0.004562 0.032414 0.027000,
 0.004668 0.032399 0.027000, 0.004831 0.032357 -0.027000, 0.004997 0.029800 0.029581, 0.005281 0.029800 -0.029532, 0.005555 0.020800 -0.003834,
 0.005555 0.020800 0.003834, 0.005555 0.024800 -0.003834, 0.005555 0.024800 0.003834, 0.005562 0.016800 -0.017119, 0.005562 0.016800 0.017119,
 0.005562 0.020800 -0.017119, 0.005562 0.020800 0.017119, 0.005677 0.032210 -0.027000, 0.006311 0.020800 -0.002394, 0.006311 0.020800 0.002394,
 0.006311 0.024800 -0.002394, 0.006311 0.024800 0.002394, 0.006394 0.032053 0.027000, 0.006701 0.020800 -0.000814, 0.006701 0.020800 0.000814,
 0.006701 0.024800 -0.000814, 0.006701 0.024800 0.000814, 0.006960 0.016800 -0.016600, 0.006960 0.016800 0.016600, 0.006960 0.019800 -0.016600,
 0.006960 0.019800 0.016600, 0.007170 0.029800 0.029088, 0.007172 0.029800 -0.029095, 0.007179 0.016800 -0.029128, 0.007179 0.016800 0.029128,
 0.007348 0.031818 -0.027000, 0.007672 0.031724 -0.027000, 0.007735 0.031707 0.027000, 0.008021 0.031634 0.027000, 0.008172 0.019800 -0.016038,
 0.008172 0.019800 0.016038, 0.008172 0.020800 -0.016038, 0.008172 0.020800 0.016038, 0.008198 0.029800 -0.028858, 0.008260 0.029800 0.028840,
 0.009077 0.031315 -0.027000, 0.009815 0.031071 0.027000, 0.010580 0.019800 -0.014562, 0.010580 0.019800 0.014562, 0.010580 0.020800 -0.014562,
 0.010580 0.020800 0.014562, 0.010627 0.029800 0.028017, 0.010632 0.029800 -0.028033, 0.010638 0.016800 -0.028050, 0.010638 0.016800 0.028050,
 0.010682 0.030754 -0.027000, 0.011033 0.029800 -0.027898, 0.011069 0.030619 -0.027000, 0.011121 0.030588 0.027000, 0.011420 0.029800 0.027741,
 0.011711 0.030369 0.027000, 0.012610 0.024800 -0.025000, 0.012610 0.024800 0.025000, 0.012610 0.077800 -0.025000, 0.012610 0.077800 0.025000,
 0.012728 0.019800 -0.012728, 0.012728 0.019800 0.012728, 0.012728 0.020800 -0.012728, 0.012728 0.020800 0.012728, 0.013077 0.029800 -0.027000,
 0.013077 0.029800 0.027000, 0.013077 0.077800 -0.027000, 0.013077 0.077800 0.027000, 0.013942 0.016800 -0.026564, 0.013942 0.016800 0.026564,
 0.013942 0.077800 -0.026564, 0.013942 0.077800 0.026564, 0.014562 0.019800 -0.010580, 0.014562 0.019800 0.010580, 0.014562 0.020800 -0.010580,
 0.014562 0.020800 0.010580, 0.015407 0.024800 -0.023380, 0.015407 0.024800 0.023380, 0.015407 0.077800 -0.023380, 0.015407 0.077800 0.023380,
 0.016038 0.019800 -0.008172, 0.016038 0.019800 0.008172, 0.016038 0.020800 -0.008172, 0.016038 0.020800 0.008172, 0.016246 0.003000 -0.007750,
 0.016246 0.003000 0.007750, 0.016246 0.019800 -0.007750, 0.016246 0.019800 0.007750, 0.016500 0.064155 -0.001045, 0.016500 0.064155 0.001045,
 0.016500 0.064589 -0.003090, 0.016500 0.064589 0.003090, 0.016500 0.065440 -0.005000, 0.016500 0.065440 0.005000, 0.016500 0.066669 -0.006691,
 0.016500 0.066669 0.006691, 0.016500 0.068222 -0.008090, 0.016500 0.068222 0.008090, 0.016500 0.068900 -0.000000, 0.016500 0.069077 -0.001346,
 0.016500 0.069077 0.001346, 0.016500 0.069597 -0.002600, 0.016500 0.069597 0.002600, 0.016500 0.070033 -0.009135, 0.016500 0.070033 0.009135,
 0.016500 0.070423 -0.003677, 0.016500 0.070423 0.003677, 0.016500 0.071500 -0.004503, 0.016500 0.071500 0.004503, 0.016500 0.072021 -0.009781,
 0.016500 0.072021 0.009781, 0.016500 0.072754 -0.005023, 0.016500 0.072754 0.005023, 0.016500 0.074100 -0.010000, 0.016500 0.074100 -0.005200,
 0.016500 0.074100 0.005200, 0.016500 0.074100 0.010000, 0.016500 0.075446 -0.005023, 0.016500 0.075446 0.005023, 0.016500 0.076179 -0.009781,
 0.016500 0.076179 0.009781, 0.016500 0.076700 -0.004503, 0.016500 0.076700 0.004503, 0.016500 0.077777 -0.003677, 0.016500 0.077777 0.003677,
 0.016500 0.078167 -0.009135, 0.016500 0.078167 0.009135, 0.016500 0.078603 -0.002600, 0.016500 0.078603 0.002600, 0.016500 0.079123 -0.001346,
 0.016500 0.079123 0.001346, 0.016500 0.079300 -0.000000, 0.016500 0.079978 -0.008090, 0.016500 0.079978 0.008090, 0.016500 0.081531 -0.006691,
 0.016500 0.081531 0.006691, 0.016500 0.082760 -0.005000, 0.016500 0.082760 0.005000, 0.016500 0.083611 -0.003090, 0.016500 0.083611 0.003090,
 0.016500 0.084045 -0.001045, 0.016500 0.084045 0.001045, 0.016871 0.001525 -0.006275, 0.016871 0.001525 0.006275, 0.017042 0.016800 -0.024690,
 0.017042 0.016800 0.024690, 0.017042 0.077800 -0.024690, 0.017042 0.077800 0.024690, 0.017102 0.000807 -0.005557, 0.017102 0.000807 0.005557,
 0.017119 0.020800 -0.005562, 0.017119 0.020800 0.005562, 0.017362 0.000000 -0.004750, 0.017362 0.000000 0.004750, 0.017750 0.006000 -0.007750,
 0.017750 0.006000 0.007750, 0.017750 0.012000 -0.007750, 0.017750 0.012000 0.007750, 0.017778 0.000000 -0.002816, 0.017778 0.000000 0.002816,
 0.017778 0.020800 -0.002816, 0.017778 0.020800 0.002816, 0.018000 0.000000 0.000000, 0.018000 0.020800 0.000000, 0.018000 0.024800 -0.021448,
 0.018000 0.024800 0.021448, 0.018000 0.064155 -0.001045, 0.018000 0.064155 0.001045, 0.018000 0.064589 -0.003090, 0.018000 0.064589 0.003090,
 0.018000 0.065440 -0.005000, 0.018000 0.065440 0.005000, 0.018000 0.066669 -0.006691, 0.018000 0.066669 0.006691, 0.018000 0.068222 -0.008090,
 0.018000 0.068222 0.008090, 0.018000 0.070033 -0.009135, 0.018000 0.070033 0.009135, 0.018000 0.072021 -0.009781, 0.018000 0.072021 0.009781,
 0.018000 0.074100 -0.010000, 0.018000 0.074100 0.010000, 0.018000 0.076179 -0.009781, 0.018000 0.076179 0.009781, 0.018000 0.077800 -0.021448,
 0.018000 0.077800 -0.012219, 0.018000 0.077800 0.012219, 0.018000 0.077800 0.021448, 0.018000 0.077941 -0.011040, 0.018000 0.077941 0.011040,
 0.018000 0.078167 -0.009135, 0.018000 0.078167 0.009135, 0.018000 0.078356 -0.009928, 0.018000 0.078356 0.009928, 0.018000 0.079021 -0.008945,
 0.018000 0.079021 0.008945, 0.018000 0.079900 -0.008146, 0.018000 0.079900 0.008146, 0.018750 0.006000 -0.006750, 0.018750 0.006000 0.006750,
 0.018750 0.012000 -0.006750, 0.018750 0.012000 0.006750, 0.019894 0.016800 -0.022455, 0.019894 0.016800 0.022455, 0.019894 0.077800 -0.022455,
 0.019894 0.077800 0.022455, 0.020000 0.029800 -0.022361, 0.020000 0.029800 0.022361, 0.020000 0.030466 0.021439, 0.020000 0.030466 -0.021439,
 0.020000 0.031828 -0.019556, 0.020000 0.031836 0.019544, 0.020000 0.033385 -0.017256, 0.020000 0.033418 0.017205, 0.020000 0.033587 -0.016934,
 0.020000 0.033589 0.016932, 0.020000 0.034800 -0.015000, 0.020000 0.034800 0.015000, 0.020000 0.064155 -0.001045, 0.020000 0.064155 0.001045,
 0.020000 0.064589 -0.003090, 0.020000 0.064589 0.003090, 0.020000 0.065440 -0.005000, 0.020000 0.065440 0.005000, 0.020000 0.066669 -0.006691,
 0.020000 0.066669 0.006691, 0.020000 0.068222 -0.008090, 0.020000 0.068222 0.008090, 0.020000 0.070033 -0.009135, 0.020000 0.070033 0.009135,
 0.020000 0.072021 -0.009781, 0.020000 0.072021 0.009781, 0.020000 0.074100 -0.010000, 0.020000 0.074100 0.010000, 0.020000 0.076179 -0.009781,
 0.020000 0.076179 0.009781, 0.020000 0.077800 -0.022361, 0.020000 0.077800 -0.012219, 0.020000 0.077800 0.012219, 0.020000 0.077800 0.022361,
 0.020000 0.077941 -0.011040, 0.020000 0.077941 0.011040, 0.020000 0.078167 -0.009135, 0.020000 0.078167 0.009135, 0.020000 0.078356 -0.009928,
 0.020000 0.078356 0.009928, 0.020000 0.079021 -0.008945, 0.020000 0.079021 0.008945, 0.020000 0.079900 -0.008146, 0.020000 0.079900 0.008146,
 0.020483 0.029800 -0.021919, 0.020483 0.029800 0.021919, 0.020840 0.034800 -0.013809, 0.020840 0.034800 0.013809, 0.021150 0.006000 -0.006750,
 0.021150 0.006000 0.006750, 0.021150 0.012000 -0.006750, 0.021150 0.012000 0.006750, 0.022150 0.006000 -0.007750, 0.022150 0.006000 0.007750,
 0.022150 0.012000 -0.007750, 0.022150 0.012000 0.007750, 0.022310 0.034800 -0.011281, 0.022310 0.034800 0.011281, 0.022432 0.029800 -0.019871,
 0.022432 0.029800 0.019871, 0.022455 0.016800 -0.019894, 0.022455 0.016800 0.019894, 0.022903 0.029800 -0.019377, 0.022903 0.029800 0.019377,
 0.023000 0.064155 -0.001045, 0.023000 0.064155 0.001045, 0.023000 0.064589 -0.003090, 0.023000 0.064589 0.003090, 0.023000 0.065440 -0.005000,
 0.023000 0.065440 0.005000, 0.023000 0.066669 -0.006691, 0.023000 0.066669 0.006691, 0.023000 0.068222 -0.008090, 0.023000 0.068222 0.008090,
 0.023000 0.068900 -0.000000, 0.023000 0.069077 -0.001346, 0.023000 0.069077 0.001346, 0.023000 0.069597 -0.002600, 0.023000 0.069597 0.002600,
 0.023000 0.070033 -0.009135, 0.023000 0.070033 0.009135, 0.023000 0.070423 -0.003677, 0.023000 0.070423 0.003677, 0.023000 0.071500 -0.004503,
 0.023000 0.071500 0.004503, 0.023000 0.072021 -0.009781, 0.023000 0.072021 0.009781, 0.023000 0.072754 -0.005023, 0.023000 0.072754 0.005023,
 0.023000 0.074100 -0.010000, 0.023000 0.074100 -0.005200, 0.023000 0.074100 0.005200, 0.023000 0.074100 0.010000, 0.023000 0.075446 -0.005023,
 0.023000 0.075446 0.005023, 0.023000 0.076179 -0.009781, 0.023000 0.076179 0.009781, 0.023000 0.076700 -0.004503, 0.023000 0.076700 0.004503,
 0.023000 0.077777 -0.003677, 0.023000 0.077777 0.003677, 0.023000 0.078167 -0.009135, 0.023000 0.078167 0.009135, 0.023000 0.078603 -0.002600,
 0.023000 0.078603 0.002600, 0.023000 0.079123 -0.001346, 0.023000 0.079123 0.001346, 0.023000 0.079300 -0.000000, 0.023000 0.079978 -0.008090,
 0.023000 0.079978 0.008090, 0.023000 0.081531 -0.006691, 0.023000 0.081531 0.006691, 0.023000 0.082760 -0.005000, 0.023000 0.082760 0.005000,
 0.023000 0.083611 -0.003090, 0.023000 0.083611 0.003090, 0.023000 0.084045 -0.001045, 0.023000 0.084045 0.001045, 0.023475 0.034800 -0.008598,
 0.023475 0.034800 0.008598, 0.024000 0.016800 -0.016600, 0.024000 0.016800 -0.007750, 0.024000 0.016800 0.007750, 0.024000 0.016800 0.016600,
 0.024000 0.019800 -0.016600, 0.024000 0.019800 -0.007750, 0.024000 0.019800 0.007750, 0.024000 0.019800 0.016600, 0.024318 0.034800 -0.005798,
 0.024318 0.034800 0.005798, 0.024667 0.029800 -0.017025, 0.024667 0.029800 0.017025, 0.024690 0.016800 -0.017042, 0.024690 0.016800 0.017042,
 0.024829 0.034800 -0.002919, 0.024829 0.034800 0.002919, 0.025000 0.034800 -0.000000, 0.025008 0.029800 -0.016570, 0.025008 0.029800 0.016570,
 0.026544 0.029800 -0.013930, 0.026544 0.029800 0.013930, 0.026564 0.016800 -0.013942, 0.026564 0.016800 0.013942, 0.026750 0.000000 -0.004750,
 0.026750 0.000000 0.004750, 0.026750 0.003000 -0.007750, 0.026750 0.003000 0.007750, 0.026750 0.016800 -0.007750, 0.026750 0.016800 0.007750,
 0.026772 0.029800 -0.013537, 0.026772 0.029800 0.013537, 0.028034 0.029800 -0.010631, 0.028034 0.029800 0.010631, 0.028050 0.016800 -0.010638,
 0.028050 0.016800 0.010638, 0.028170 0.029800 -0.010318, 0.028170 0.029800 0.010318, 0.029116 0.029800 -0.007176, 0.029116 0.029800 0.007176,
 0.029128 0.016800 -0.007179, 0.029128 0.016800 0.007179, 0.029182 0.029800 -0.006958, 0.029182 0.029800 0.006958, 0.029775 0.029800 -0.003615,
 0.029775 0.029800 0.003615, 0.029781 0.016800 -0.003616, 0.029781 0.016800 0.003616, 0.029795 0.029800 -0.003503, 0.029795 0.029800 0.003503,
 0.030000 0.016800 -0.000000, 0.030000 0.029800 -0.000000
]
}
normal Normal {
vector [
 -1.000000 0.000000 -0.000000, -0.993159 0.000000 -0.116768, -0.993159 0.000000 0.116768, -0.992710 0.000000 -0.120525, -0.992710 0.000000 0.120525,
 -0.992709 0.000000 -0.120537, -0.992709 0.000000 0.120537, -0.987688 0.000000 -0.156434, -0.987688 0.000000 0.156434, -0.972731 0.000000 -0.231938,
 -0.972731 0.000000 0.231938, -0.970947 0.000000 -0.239295, -0.970947 0.000000 0.239295, -0.970942 0.000000 -0.239316, -0.970942 0.000000 0.239316,
 -0.964553 0.000000 -0.263889, -0.964553 0.000000 0.263889, -0.951057 0.000000 -0.309017, -0.951057 0.000000 0.309017, -0.951056 0.000000 -0.309019,
 -0.951056 0.000000 0.309019, -0.938994 0.000000 -0.343935, -0.938994 0.000000 0.343935, -0.937271 0.000000 -0.348603, -0.937271 0.000000 0.348603,
 -0.935026 0.000000 -0.354578, -0.935026 0.000000 0.354578, -0.935016 0.000000 -0.354605, -0.935016 0.000000 0.354605, -0.902564 0.000000 -0.430556,
 -0.902564 0.000000 0.430556, -0.892410 0.000000 -0.451226, -0.892410 0.000000 0.451226, -0.891007 0.000000 -0.453990, -0.891007 0.000000 0.453990,
 -0.885472 0.000000 -0.464694, -0.885472 0.000000 0.464694, -0.885456 0.000000 -0.464723, -0.885456 0.000000 0.464723, -0.833616 0.000000 -0.552344,
 -0.833616 0.000000 0.552344, -0.823005 0.000000 -0.568034, -0.823005 0.000000 0.568034, -0.822984 0.000000 -0.568065, -0.822984 0.000000 0.568065,
 -0.809017 0.000000 -0.587785, -0.809017 0.000000 0.587785, -0.763418 0.000000 -0.645905, -0.763418 0.000000 0.645905, -0.748536 0.000000 -0.663094,
 -0.748536 0.000000 0.663094, -0.748511 0.000000 -0.663123, -0.748511 0.000000 0.663123, -0.707107 0.000000 -0.707107, -0.707107 0.000000 0.707107,
 -0.707107 0.707107 -0.000000, -0.702270 0.707107 -0.082567, -0.702270 0.707107 0.082567, -0.701952 0.707107 -0.085224, -0.701952 0.707107 0.085224,
 -0.687824 0.707107 -0.164005, -0.687824 0.707107 0.164005, -0.686563 0.707107 -0.169207, -0.686563 0.707107 0.169207, -0.682775 0.000000 -0.730629,
 -0.682775 0.000000 0.730629, -0.666667 0.000000 -0.745356, -0.666667 0.000000 0.745356, -0.663969 0.707107 -0.243199, -0.663969 0.707107 0.243199,
 -0.663123 0.000000 -0.748511, -0.663123 0.000000 0.748511, -0.661163 0.707107 -0.250725, -0.661163 0.707107 0.250725, -0.642857 0.000000 -0.765986,
 -0.642857 0.000000 0.765986, -0.631029 0.707107 -0.319065, -0.631029 0.707107 0.319065, -0.626123 0.707107 -0.328588, -0.626123 0.707107 0.328588,
 -0.589456 0.707107 -0.390566, -0.589456 0.707107 0.390566, -0.587785 0.000000 -0.809017, -0.587785 0.000000 0.809017, -0.581952 0.707107 -0.401661,
 -0.581952 0.707107 0.401661, -0.568065 0.000000 -0.822984, -0.568065 0.000000 0.822984, -0.565685 0.707107 -0.424264, -0.565685 0.707107 0.424264,
 -0.550267 0.000000 -0.834989, -0.550267 0.000000 0.834989, -0.539818 0.707107 -0.456724, -0.539818 0.707107 0.456724, -0.539678 0.707107 -0.456889,
 -0.539653 0.707107 0.456918, -0.536054 0.707107 -0.461136, -0.535382 0.707107 0.461916, -0.529295 0.707107 -0.468878, -0.529295 0.707107 0.468878,
 -0.505728 0.707107 -0.494206, -0.505576 0.707107 0.494361, -0.482794 0.707107 -0.516633, -0.482794 0.707107 0.516633, -0.482347 0.707107 0.517051,
 -0.482344 0.707107 -0.517053, -0.471405 0.707107 -0.527046, -0.471405 0.707107 0.527046, -0.464723 0.000000 -0.885456, -0.464723 0.000000 0.885456,
 -0.453990 0.000000 -0.891007, -0.453990 0.000000 0.891007, -0.450340 0.000000 -0.892857, -0.450340 0.000000 0.892857, -0.435890 0.000000 -0.900000,
 -0.435890 0.000000 0.900000, -0.386660 0.000000 -0.922222, -0.386660 0.000000 0.922222, -0.380659 0.000000 0.924715, -0.367759 0.000000 -0.929921,
 -0.354635 0.000000 0.935005, -0.354625 0.000000 -0.935009, -0.354605 0.000000 -0.935016, -0.354605 0.000000 0.935016, -0.309017 0.000000 -0.951057,
 -0.309017 0.000000 0.951057, -0.308221 0.707107 -0.636396, -0.308221 0.707107 0.636396, -0.290273 0.707107 -0.644780, -0.275332 0.000000 0.961349,
 -0.273257 0.000000 -0.961941, -0.269173 0.707107 0.653870, -0.269167 0.707107 0.653873, -0.268379 0.707107 0.654196, -0.260146 0.707107 -0.657514,
 -0.260045 0.707107 -0.657553, -0.250774 0.707107 -0.661145, -0.250765 0.707107 0.661148, -0.250758 0.707107 -0.661151, -0.239341 0.000000 0.970936,
 -0.239332 0.000000 -0.970938, -0.239316 0.000000 -0.970942, -0.239316 0.000000 0.970942, -0.226528 0.707107 0.669839, -0.210117 0.707107 -0.675167,
 -0.194772 0.707107 0.679753, -0.194689 0.707107 0.679777, -0.193303 0.707107 -0.680172, -0.193222 0.707107 -0.680195, -0.183813 0.707107 0.682798,
 -0.176034 0.000000 -0.984384, -0.172207 0.707107 -0.685817, -0.169239 0.707107 0.686555, -0.169233 0.707107 -0.686557, -0.166581 0.000000 0.986028,
 -0.156434 0.000000 -0.987688, -0.156434 0.000000 0.987688, -0.143723 0.707107 0.692347, -0.130208 0.707107 -0.695015, -0.124502 0.707107 -0.696060,
 -0.124475 0.707107 -0.696065, -0.120551 0.000000 0.992707, -0.120537 0.000000 -0.992709, -0.120537 0.000000 0.992709, -0.120529 0.000000 -0.992710,
 -0.117854 0.707107 0.697216, -0.117790 0.707107 0.697227, -0.098736 0.707107 0.700179, -0.087125 0.707107 -0.701719, -0.085242 0.707107 0.701950,
 -0.085227 0.707107 -0.701952, -0.077058 0.000000 -0.997027, -0.055758 0.000000 0.998444, -0.054507 0.707107 -0.705003, -0.054488 0.707107 -0.705004,
 -0.053432 0.707107 0.705085, -0.043620 0.707107 -0.705760, -0.039444 0.707107 0.706006, -0.039427 0.707107 0.706007, -0.009025 0.707107 0.707049,
 0.000000 -1.000000 0.000000, 0.000000 -0.994522 -0.104528, 0.000000 -0.994522 0.104528, 0.000000 -0.965926 -0.258819, 0.000000 -0.965926 0.258819,
 0.000000 -0.951057 -0.309017, 0.000000 -0.951057 0.309017, 0.000000 -0.866025 -0.500000, 0.000000 -0.866025 0.500000, 0.000000 -0.743145 -0.669131,
 0.000000 -0.743145 0.669131, 0.000000 -0.707107 -0.707107, 0.000000 -0.707107 0.707107, 0.000000 -0.587785 -0.809017, 0.000000 -0.587785 0.809017,
 0.000000 -0.500000 -0.866025, 0.000000 -0.500000 0.866025, 0.000000 -0.406737 -0.913545, 0.000000 -0.406737 0.913545, 0.000000 -0.258819 -0.965926,
 0.000000 -0.258819 0.965926, 0.000000 -0.207912 -0.978148, 0.000000 -0.207912 0.978148, 0.000000 0.000000 -1.000000, 0.000000 0.000000 1.000000,
 0.000000 0.207912 -0.978148, 0.000000 0.207912 0.978148, 0.000000 0.258819 -0.965926, 0.000000 0.258819 0.965926, 0.000000 0.406737 -0.913545,
 0.000000 0.406737 0.913545, 0.000000 0.500000 -0.866025, 0.000000 0.500000 0.866025, 0.000000 0.580000 -0.814617, 0.000000 0.580000 0.814617,
 0.000000 0.587785 -0.809017, 0.000000 0.587785 0.809017, 0.000000 0.707107 -0.707107, 0.000000 0.707107 0.707107, 0.000000 0.743145 -0.669131,
 0.000000 0.743145 0.669131, 0.000000 0.755715 -0.654900, 0.000000 0.755715 0.654900, 0.000000 0.866025 -0.500000, 0.000000 0.866025 0.500000,
 0.000000 0.888819 -0.458258, 0.000000 0.888819 0.458258, 0.000000 0.951057 -0.309017, 0.000000 0.951057 0.309017, 0.000000 0.965926 -0.258819,
 0.000000 0.965926 0.258819, 0.000000 0.971807 -0.235776, 0.000000 0.971807 0.235776, 0.000000 0.994522 -0.104528, 0.000000 0.994522 0.104528,
 0.000000 1.000000 0.000000, 0.011145 0.707107 -0.707019, 0.033900 0.707107 0.706294, 0.039427 0.707107 0.706007, 0.039435 0.707107 0.706006,
 0.054488 0.707107 -0.705004, 0.054491 0.707107 -0.705004, 0.055641 0.707107 -0.704914, 0.055758 0.000000 0.998444, 0.077058 0.000000 -0.997027,
 0.077249 0.707107 0.702875, 0.085227 0.707107 -0.701952, 0.085242 0.707107 0.701950, 0.100847 0.707107 -0.699879, 0.117790 0.707107 0.697227,
 0.117803 0.707107 0.697225, 0.120463 0.707107 0.696770, 0.120529 0.000000 -0.992710, 0.120537 0.000000 -0.992709, 0.120537 0.000000 0.992709,
 0.120551 0.000000 0.992707, 0.124475 0.707107 -0.696065, 0.124542 0.707107 -0.696053, 0.145486 0.707107 -0.691978, 0.156434 0.000000 -0.987688,
 0.156434 0.000000 0.987688, 0.162937 0.707107 0.688078, 0.166581 0.000000 0.986028, 0.169233 0.707107 -0.686557, 0.169239 0.707107 0.686555,
 0.176034 0.000000 -0.984384, 0.185691 0.707107 -0.682289, 0.193222 0.707107 -0.680195, 0.193280 0.707107 -0.680179, 0.194689 0.707107 0.679777,
 0.194735 0.707107 0.679763, 0.201367 0.707107 0.677828, 0.225325 0.707107 -0.670245, 0.239316 0.000000 -0.970942, 0.239316 0.000000 0.970942,
 0.239332 0.000000 -0.970938, 0.239341 0.000000 0.970936, 0.241578 0.707107 0.664560, 0.250758 0.707107 -0.661151, 0.250765 0.707107 0.661148,
 0.260045 0.707107 -0.657553, 0.260143 0.707107 -0.657515, 0.268227 0.707107 -0.654259, 0.269167 0.707107 0.653873, 0.269291 0.707107 0.653822,
 0.273257 0.000000 -0.961941, 0.275332 0.000000 0.961349, 0.281377 0.707107 0.648712, 0.308221 0.707107 -0.636396, 0.308221 0.707107 0.636396,
 0.309017 0.000000 -0.951057, 0.309017 0.000000 0.951057, 0.354605 0.000000 -0.935016, 0.354605 0.000000 0.935016, 0.354625 0.000000 -0.935009,
 0.354635 0.000000 0.935005, 0.367759 0.000000 -0.929921, 0.380659 0.000000 0.924715, 0.386660 0.000000 -0.922222, 0.386660 0.000000 0.922222,
 0.435890 0.000000 -0.900000, 0.435890 0.000000 0.900000, 0.450340 0.000000 -0.892857, 0.450340 0.000000 0.892857, 0.453990 0.000000 -0.891007,
 0.453990 0.000000 0.891007, 0.464723 0.000000 -0.885456, 0.464723 0.000000 0.885456, 0.471405 0.707107 -0.527046, 0.471405 0.707107 0.527046,
 0.482344 0.707107 0.517053, 0.482347 0.707107 -0.517051, 0.482794 0.707107 -0.516633, 0.482794 0.707107 0.516633, 0.505576 0.707107 -0.494361,
 0.505728 0.707107 0.494206, 0.529295 0.707107 -0.468878, 0.529295 0.707107 0.468878, 0.535382 0.707107 -0.461916, 0.536054 0.707107 0.461136,
 0.539653 0.707107 -0.456918, 0.539678 0.707107 0.456889, 0.539818 0.707107 -0.456724, 0.539818 0.707107 0.456724, 0.550267 0.000000 -0.834989,
 0.550267 0.000000 0.834989, 0.565685 0.707107 -0.424264, 0.565685 0.707107 0.424264, 0.568065 0.000000 -0.822984, 0.568065 0.000000 0.822984,
 0.581952 0.707107 -0.401661, 0.581952 0.707107 0.401661, 0.587785 0.000000 -0.809017, 0.587785 0.000000 0.809017, 0.589456 0.707107 -0.390566,
 0.589456 0.707107 0.390566, 0.626123 0.707107 -0.328588, 0.626123 0.707107 0.328588, 0.631029 0.707107 -0.319065, 0.631029 0.707107 0.319065,
 0.642857 0.000000 -0.765986, 0.642857 0.000000 0.765986, 0.661163 0.707107 -0.250725, 0.661163 0.707107 0.250725, 0.663123 0.000000 -0.748511,
 0.663123 0.000000 0.748511, 0.663969 0.707107 -0.243199, 0.663969 0.707107 0.243199, 0.666667 0.000000 -0.745356, 0.666667 0.000000 0.745356,
 0.682775 0.000000 -0.730629, 0.682775 0.000000 0.730629, 0.686563 0.707107 -0.169207, 0.686563 0.707107 0.169207, 0.687824 0.707107 -0.164005,
 0.687824 0.707107 0.164005, 0.701952 0.707107 -0.085224, 0.701952 0.707107 0.085224, 0.702270 0.707107 -0.082567, 0.702270 0.707107 0.082567,
 0.707107 0.000000 -0.707107, 0.707107 0.000000 0.707107, 0.707107 0.707107 -0.000000, 0.748511 0.000000 -0.663123, 0.748511 0.000000 0.663123,
 0.748536 0.000000 -0.663094, 0.748536 0.000000 0.663094, 0.763418 0.000000 -0.645905, 0.763418 0.000000 0.645905, 0.809017 0.000000 -0.587785,
 0.809017 0.000000 0.587785, 0.822984 0.000000 -0.568065, 0.822984 0.000000 0.568065, 0.823005 0.000000 -0.568034, 0.823005 0.000000 0.568034,
 0.833616 0.000000 -0.552344, 0.833616 0.000000 0.552344, 0.885456 0.000000 -0.464723, 0.885456 0.000000 0.464723, 0.885472 0.000000 -0.464694,
 0.885472 0.000000 0.464694, 0.891007 0.000000 -0.453990, 0.891007 0.000000 0.453990, 0.892410 0.000000 -0.451226, 0.892410 0.000000 0.451226,
 0.902564 0.000000 -0.430556, 0.902564 0.000000 0.430556, 0.935016 0.000000 -0.354605, 0.935016 0.000000 0.354605, 0.935026 0.000000 -0.354578,
 0.935026 0.000000 0.354578, 0.937271 0.000000 -0.348603, 0.937271 0.000000 0.348603, 0.938994 0.000000 -0.343935, 0.938994 0.000000 0.343935,
 0.951056 0.000000 -0.309019, 0.951056 0.000000 0.309019, 0.951057 0.000000 -0.309017, 0.951057 0.000000 0.309017, 0.964553 0.000000 -0.263889,
 0.964553 0.000000 0.263889, 0.970942 0.000000 -0.239316, 0.970942 0.000000 0.239316, 0.970947 0.000000 -0.239295, 0.970947 0.000000 0.239295,
 0.972731 0.000000 -0.231938, 0.972731 0.000000 0.231938, 0.987688 0.000000 -0.156434, 0.987688 0.000000 0.156434, 0.992709 0.000000 -0.120537,
 0.992709 0.000000 0.120537, 0.992710 0.000000 -0.120525, 0.992710 0.000000 0.120525, 0.993159 0.000000 -0.116768, 0.993159 0.000000 0.116768,
 1.000000 0.000000 -0.000000
]
}
coordIndex [
 261, 79, 258, -1, 258, 79, 76, -1, 258, 76, 254, -1,
 254, 76, 72, -1, 254, 72, 252, -1, 252, 72, 70, -1,
 252, 70, 248, -1, 248, 70, 66, -1, 248, 66, 246, -1,
 246, 66, 64, -1, 246, 64, 245, -1, 245, 64, 63, -1,
 245, 63, 247, -1, 247, 63, 65, -1, 247, 65, 249, -1,
 249, 65, 67, -1, 249, 67, 253, -1, 253, 67, 71, -1,
 253, 71, 255, -1, 255, 71, 73, -1, 255, 73, 259, -1,
 259, 73, 77, -1, 259, 77, 262, -1, 262, 77, 80, -1,
 746, 564, 743, -1, 743, 564, 561, -1, 743, 561, 739, -1,
 739, 561, 557, -1, 739, 557, 737, -1, 737, 557, 555, -1,
 737, 555, 733, -1, 733, 555, 551, -1, 733, 551, 731, -1,
 731, 551, 549, -1, 731, 549, 730, -1, 730, 549, 548, -1,
 730, 548, 732, -1, 732, 548, 550, -1, 732, 550, 734, -1,
 734, 550, 552, -1, 734, 552, 738, -1, 738, 552, 556, -1,
 738, 556, 740, -1, 740, 556, 558, -1, 740, 558, 744, -1,
 744, 558, 562, -1, 744, 562, 747, -1, 747, 562, 565, -1,
 630, 563, 569, -1, 630, 569, 632, -1, 632, 569, 575, -1,
 632, 575, 640, -1, 692, 698, 764, -1, 640, 575, 646, -1,
 646, 575, 582, -1, 646, 582, 698, -1, 764, 757, 692, -1,
 692, 757, 751, -1, 692, 751, 684, -1, 684, 751, 745, -1,
 684, 745, 682, -1, 758, 685, 752, -1, 752, 685, 683, -1,
 752, 683, 748, -1, 641, 647, 583, -1, 583, 647, 699, -1,
 583, 576, 641, -1, 641, 576, 570, -1, 641, 570, 633, -1,
 633, 570, 566, -1, 633, 566, 631, -1, 698, 582, 764, -1,
 764, 582, 584, -1, 764, 584, 766, -1, 766, 584, 586, -1,
 766, 586, 768, -1, 768, 586, 588, -1, 768, 588, 770, -1,
 770, 588, 590, -1, 770, 590, 772, -1, 772, 590, 591, -1,
 772, 591, 773, -1, 773, 591, 589, -1, 773, 589, 771, -1,
 771, 589, 587, -1, 771, 587, 769, -1, 769, 587, 585, -1,
 769, 585, 767, -1, 767, 585, 583, -1, 767, 583, 765, -1,
 765, 583, 699, -1, 765, 699, 758, -1, 758, 699, 693, -1,
 758, 693, 685, -1, 563, 630, 628, -1, 563, 628, 559, -1,
 559, 628, 626, -1, 559, 626, 553, -1, 553, 626, 624, -1,
 553, 624, 546, -1, 546, 624, 622, -1, 546, 622, 544, -1,
 544, 622, 620, -1, 544, 620, 542, -1, 542, 620, 618, -1,
 542, 618, 540, -1, 540, 618, 616, -1, 540, 616, 538, -1,
 538, 616, 617, -1, 538, 617, 539, -1, 539, 617, 619, -1,
 539, 619, 541, -1, 541, 619, 621, -1, 541, 621, 543, -1,
 543, 621, 623, -1, 543, 623, 545, -1, 545, 623, 625, -1,
 545, 625, 547, -1, 547, 625, 627, -1, 547, 627, 554, -1,
 554, 627, 629, -1, 554, 629, 560, -1, 560, 629, 631, -1,
 560, 631, 566, -1, 198, 263, 267, -1, 198, 267, 200, -1,
 200, 267, 273, -1, 200, 273, 208, -1, 164, 170, 98, -1,
 208, 273, 214, -1, 214, 273, 280, -1, 214, 280, 170, -1,
 98, 91, 164, -1, 164, 91, 85, -1, 164, 85, 156, -1,
 156, 85, 81, -1, 156, 81, 154, -1, 90, 155, 84, -1,
 84, 155, 153, -1, 84, 153, 78, -1, 207, 213, 279, -1,
 279, 213, 169, -1, 279, 272, 207, -1, 207, 272, 266, -1,
 207, 266, 199, -1, 199, 266, 260, -1, 199, 260, 197, -1,
 170, 280, 98, -1, 98, 280, 282, -1, 98, 282, 100, -1,
 100, 282, 284, -1, 100, 284, 102, -1, 102, 284, 286, -1,
 102, 286, 104, -1, 104, 286, 288, -1, 104, 288, 106, -1,
 106, 288, 287, -1, 106, 287, 105, -1, 105, 287, 285, -1,
 105, 285, 103, -1, 103, 285, 283, -1, 103, 283, 101, -1,
 101, 283, 281, -1, 101, 281, 99, -1, 99, 281, 279, -1,
 99, 279, 97, -1, 97, 279, 169, -1, 97, 169, 90, -1,
 90, 169, 163, -1, 90, 163, 155, -1, 263, 198, 196, -1,
 263, 196, 257, -1, 257, 196, 194, -1, 257, 194, 251, -1,
 251, 194, 192, -1, 251, 192, 244, -1, 244, 192, 190, -1,
 244, 190, 242, -1, 242, 190, 188, -1, 242, 188, 240, -1,
 240, 188, 186, -1, 240, 186, 238, -1, 238, 186, 184, -1,
 238, 184, 236, -1, 236, 184, 183, -1, 236, 183, 235, -1,
 235, 183, 185, -1, 235, 185, 237, -1, 237, 185, 187, -1,
 237, 187, 239, -1, 239, 187, 189, -1, 239, 189, 241, -1,
 241, 189, 191, -1, 241, 191, 243, -1, 243, 191, 193, -1,
 243, 193, 250, -1, 250, 193, 195, -1, 250, 195, 256, -1,
 256, 195, 197, -1, 256, 197, 260, -1, 419, 417, 400, -1,
 400, 417, 396, -1, 349, 374, 373, -1, 373, 374, 376, -1,
 373, 376, 385, -1, 385, 376, 387, -1, 385, 387, 396, -1,
 396, 387, 397, -1, 396, 397, 400, -1, 329, 337, 339, -1,
 339, 337, 345, -1, 339, 345, 349, -1, 349, 345, 355, -1,
 349, 355, 374, -1, 309, 321, 325, -1, 325, 321, 326, -1,
 325, 326, 329, -1, 329, 326, 335, -1, 329, 335, 337, -1,
 412, 415, 401, -1, 401, 415, 403, -1, 401, 403, 388, -1,
 388, 403, 390, -1, 388, 390, 378, -1, 378, 390, 380, -1,
 378, 380, 369, -1, 369, 380, 371, -1, 369, 371, 360, -1,
 360, 371, 362, -1, 360, 362, 356, -1, 356, 362, 358, -1,
 356, 358, 357, -1, 357, 358, 359, -1, 357, 359, 361, -1,
 361, 359, 363, -1, 361, 363, 370, -1, 370, 363, 372, -1,
 370, 372, 379, -1, 379, 372, 381, -1, 379, 381, 389, -1,
 389, 381, 391, -1, 389, 391, 402, -1, 402, 391, 404, -1,
 402, 404, 413, -1, 413, 404, 416, -1, 514, 516, 520, -1,
 657, 689, 655, -1, 521, 517, 515, -1, 504, 499, 519, -1,
 657, 653, 701, -1, 701, 653, 717, -1, 789, 719, 717, -1,
 717, 719, 715, -1, 717, 715, 701, -1, 798, 794, 789, -1,
 789, 794, 787, -1, 789, 787, 719, -1, 810, 806, 798, -1,
 798, 806, 796, -1, 798, 796, 794, -1, 816, 812, 810, -1,
 810, 812, 808, -1, 810, 808, 806, -1, 822, 818, 816, -1,
 816, 818, 814, -1, 816, 814, 812, -1, 825, 824, 822, -1,
 822, 824, 820, -1, 822, 820, 818, -1, 821, 823, 825, -1,
 825, 823, 826, -1, 825, 826, 824, -1, 815, 817, 821, -1,
 821, 817, 819, -1, 821, 819, 823, -1, 809, 811, 815, -1,
 815, 811, 813, -1, 815, 813, 817, -1, 797, 805, 809, -1,
 809, 805, 807, -1, 809, 807, 811, -1, 788, 793, 797, -1,
 797, 793, 795, -1, 797, 795, 805, -1, 716, 718, 788, -1,
 788, 718, 786, -1, 788, 786, 793, -1, 654, 686, 656, -1,
 652, 700, 716, -1, 716, 700, 714, -1, 716, 714, 718, -1,
 514, 518, 501, -1, 501, 518, 498, -1, 501, 498, 497, -1,
 497, 498, 488, -1, 488, 498, 478, -1, 488, 478, 477, -1,
 477, 478, 453, -1, 453, 478, 442, -1, 453, 442, 441, -1,
 441, 442, 430, -1, 430, 442, 407, -1, 430, 407, 417, -1,
 418, 410, 427, -1, 427, 410, 443, -1, 479, 452, 443, -1,
 443, 452, 440, -1, 443, 440, 427, -1, 504, 496, 499, -1,
 499, 496, 489, -1, 499, 489, 479, -1, 479, 489, 476, -1,
 479, 476, 452, -1, 657, 655, 653, -1, 653, 655, 597, -1,
 653, 597, 595, -1, 595, 597, 521, -1, 595, 521, 519, -1,
 519, 521, 515, -1, 519, 515, 504, -1, 514, 520, 518, -1,
 518, 520, 596, -1, 518, 596, 594, -1, 594, 596, 654, -1,
 594, 654, 652, -1, 652, 654, 656, -1, 652, 656, 700, -1,
 353, 351, 365, -1, 367, 342, 340, -1, 233, 289, 291, -1,
 340, 342, 331, -1, 331, 342, 333, -1, 331, 333, 313, -1,
 313, 333, 315, -1, 313, 315, 301, -1, 301, 315, 303, -1,
 301, 303, 293, -1, 293, 303, 295, -1, 293, 295, 291, -1,
 291, 295, 225, -1, 291, 225, 233, -1, 217, 223, 225, -1,
 225, 223, 227, -1, 225, 227, 233, -1, 218, 226, 228, -1,
 292, 290, 226, -1, 226, 290, 234, -1, 226, 234, 228, -1,
 292, 226, 294, -1, 294, 226, 296, -1, 294, 296, 302, -1,
 302, 296, 304, -1, 302, 304, 314, -1, 314, 304, 316, -1,
 314, 316, 332, -1, 332, 316, 334, -1, 332, 334, 341, -1,
 341, 334, 343, -1, 341, 343, 354, -1, 354, 343, 368, -1,
 354, 368, 352, -1, 414, 409, 395, -1, 395, 409, 393, -1,
 395, 393, 368, -1, 368, 393, 366, -1, 368, 366, 352, -1,
 408, 411, 392, -1, 392, 411, 394, -1, 392, 394, 365, -1,
 365, 394, 367, -1, 365, 367, 353, -1, 353, 367, 340, -1,
 228, 224, 218, -1, 218, 224, 216, -1, 218, 216, 180, -1,
 180, 216, 179, -1, 180, 179, 217, -1, 217, 179, 215, -1,
 217, 215, 223, -1, 409, 414, 432, -1, 432, 414, 434, -1,
 432, 434, 459, -1, 459, 434, 461, -1, 593, 535, 537, -1,
 473, 459, 475, -1, 475, 459, 461, -1, 475, 461, 485, -1,
 485, 461, 487, -1, 485, 487, 493, -1, 493, 487, 495, -1,
 493, 495, 511, -1, 511, 495, 513, -1, 511, 513, 523, -1,
 523, 513, 525, -1, 523, 525, 531, -1, 531, 525, 533, -1,
 531, 533, 537, -1, 537, 533, 601, -1, 537, 601, 593, -1,
 611, 603, 601, -1, 601, 603, 599, -1, 601, 599, 593, -1,
 610, 600, 598, -1, 536, 534, 600, -1, 600, 534, 592, -1,
 600, 592, 598, -1, 536, 600, 530, -1, 530, 600, 532, -1,
 530, 532, 522, -1, 522, 532, 524, -1, 522, 524, 510, -1,
 510, 524, 512, -1, 510, 512, 492, -1, 492, 512, 494, -1,
 492, 494, 484, -1, 484, 494, 486, -1, 484, 486, 474, -1,
 474, 486, 460, -1, 474, 460, 472, -1, 411, 408, 433, -1,
 433, 408, 431, -1, 433, 431, 460, -1, 460, 431, 458, -1,
 460, 458, 472, -1, 598, 602, 610, -1, 610, 602, 608, -1,
 610, 608, 613, -1, 613, 608, 612, -1, 613, 612, 611, -1,
 611, 612, 609, -1, 611, 609, 603, -1, 0, 4, 26, -1,
 365, 347, 392, -1, 392, 347, 383, -1, 392, 383, 408, -1,
 408, 383, 407, -1, 408, 407, 431, -1, 4, 10, 26, -1,
 26, 10, 16, -1, 26, 16, 44, -1, 44, 16, 28, -1,
 44, 28, 43, -1, 43, 28, 37, -1, 43, 37, 351, -1,
 351, 37, 109, -1, 351, 109, 171, -1, 171, 229, 351, -1,
 351, 229, 305, -1, 351, 305, 365, -1, 365, 305, 327, -1,
 365, 327, 347, -1, 0, 26, 5, -1, 5, 26, 27, -1,
 5, 27, 11, -1, 348, 366, 393, -1, 459, 479, 432, -1,
 432, 479, 443, -1, 432, 443, 409, -1, 409, 443, 410, -1,
 409, 410, 393, -1, 393, 410, 384, -1, 393, 384, 348, -1,
 230, 352, 306, -1, 306, 352, 366, -1, 306, 366, 328, -1,
 328, 366, 348, -1, 230, 172, 352, -1, 352, 172, 110, -1,
 352, 110, 46, -1, 46, 110, 38, -1, 46, 38, 45, -1,
 45, 38, 29, -1, 45, 29, 27, -1, 27, 29, 17, -1,
 27, 17, 11, -1, 653, 595, 473, -1, 473, 595, 519, -1,
 473, 519, 459, -1, 459, 519, 499, -1, 459, 499, 479, -1,
 822, 804, 825, -1, 825, 804, 803, -1, 825, 803, 821, -1,
 821, 803, 815, -1, 822, 816, 804, -1, 804, 816, 810, -1,
 804, 810, 778, -1, 778, 810, 798, -1, 778, 798, 779, -1,
 779, 798, 789, -1, 779, 789, 473, -1, 473, 789, 717, -1,
 473, 717, 653, -1, 407, 442, 431, -1, 431, 442, 478, -1,
 431, 478, 458, -1, 458, 478, 498, -1, 458, 498, 472, -1,
 472, 498, 518, -1, 472, 518, 594, -1, 594, 652, 472, -1,
 472, 652, 716, -1, 472, 716, 776, -1, 776, 716, 788, -1,
 776, 788, 777, -1, 777, 788, 797, -1, 777, 797, 803, -1,
 803, 797, 809, -1, 803, 809, 815, -1, 300, 204, 174, -1,
 174, 204, 160, -1, 160, 204, 203, -1, 160, 203, 159, -1,
 688, 636, 689, -1, 689, 636, 637, -1, 509, 521, 529, -1,
 529, 521, 597, -1, 529, 597, 637, -1, 637, 597, 655, -1,
 637, 655, 689, -1, 174, 232, 300, -1, 300, 232, 308, -1,
 300, 308, 320, -1, 320, 308, 312, -1, 320, 312, 509, -1,
 509, 312, 517, -1, 509, 517, 521, -1, 158, 202, 157, -1,
 157, 202, 201, -1, 635, 687, 686, -1, 528, 520, 508, -1,
 508, 520, 516, -1, 508, 516, 319, -1, 635, 686, 634, -1,
 634, 686, 654, -1, 634, 654, 528, -1, 528, 654, 596, -1,
 528, 596, 520, -1, 516, 311, 319, -1, 319, 311, 307, -1,
 319, 307, 299, -1, 299, 307, 231, -1, 299, 231, 201, -1,
 201, 231, 173, -1, 201, 173, 157, -1, 372, 182, 381, -1,
 381, 182, 298, -1, 381, 298, 391, -1, 391, 298, 318, -1,
 391, 318, 404, -1, 372, 363, 182, -1, 182, 363, 359, -1,
 182, 359, 181, -1, 181, 359, 358, -1, 181, 358, 362, -1,
 456, 614, 447, -1, 447, 614, 526, -1, 447, 526, 438, -1,
 438, 526, 506, -1, 438, 506, 425, -1, 456, 465, 614, -1,
 614, 465, 470, -1, 614, 470, 615, -1, 615, 470, 471, -1,
 615, 471, 466, -1, 362, 371, 181, -1, 181, 371, 380, -1,
 181, 380, 297, -1, 297, 380, 390, -1, 297, 390, 317, -1,
 317, 390, 403, -1, 317, 403, 506, -1, 506, 403, 415, -1,
 506, 415, 425, -1, 466, 457, 615, -1, 615, 457, 448, -1,
 615, 448, 527, -1, 527, 448, 439, -1, 527, 439, 507, -1,
 507, 439, 426, -1, 507, 426, 318, -1, 318, 426, 416, -1,
 318, 416, 404, -1, 222, 45, 118, -1, 118, 45, 116, -1,
 45, 27, 116, -1, 116, 27, 25, -1, 116, 25, 220, -1,
 220, 25, 290, -1, 220, 290, 222, -1, 222, 290, 292, -1,
 222, 292, 45, -1, 45, 292, 49, -1, 289, 24, 115, -1,
 115, 24, 117, -1, 117, 24, 26, -1, 117, 26, 221, -1,
 221, 26, 44, -1, 221, 44, 48, -1, 115, 219, 289, -1,
 289, 219, 221, -1, 289, 221, 291, -1, 291, 221, 48, -1,
 606, 777, 710, -1, 710, 777, 708, -1, 777, 803, 708, -1,
 708, 803, 801, -1, 708, 801, 604, -1, 604, 801, 534, -1,
 604, 534, 606, -1, 606, 534, 536, -1, 606, 536, 777, -1,
 777, 536, 781, -1, 603, 609, 800, -1, 800, 609, 612, -1,
 800, 612, 799, -1, 799, 612, 608, -1, 799, 608, 602, -1,
 799, 801, 800, -1, 800, 801, 803, -1, 800, 803, 802, -1,
 802, 803, 804, -1, 25, 27, 23, -1, 23, 27, 26, -1,
 23, 26, 22, -1, 22, 26, 24, -1, 607, 778, 782, -1,
 778, 607, 804, -1, 804, 607, 711, -1, 804, 711, 802, -1,
 802, 711, 709, -1, 802, 709, 535, -1, 709, 605, 535, -1,
 535, 605, 607, -1, 535, 607, 537, -1, 537, 607, 782, -1,
 223, 215, 22, -1, 22, 215, 179, -1, 22, 179, 23, -1,
 23, 179, 216, -1, 23, 216, 224, -1, 310, 312, 308, -1,
 127, 157, 173, -1, 417, 407, 396, -1, 396, 407, 383, -1,
 347, 373, 383, -1, 383, 373, 385, -1, 383, 385, 396, -1,
 327, 339, 347, -1, 347, 339, 349, -1, 347, 349, 373, -1,
 307, 311, 309, -1, 305, 325, 327, -1, 327, 325, 329, -1,
 327, 329, 339, -1, 127, 171, 125, -1, 125, 171, 109, -1,
 37, 107, 109, -1, 109, 107, 111, -1, 109, 111, 125, -1,
 28, 32, 37, -1, 37, 32, 39, -1, 37, 39, 107, -1,
 16, 20, 28, -1, 28, 20, 30, -1, 28, 30, 32, -1,
 10, 14, 16, -1, 16, 14, 18, -1, 16, 18, 20, -1,
 4, 8, 10, -1, 10, 8, 12, -1, 10, 12, 14, -1,
 0, 2, 4, -1, 4, 2, 6, -1, 4, 6, 8, -1,
 5, 3, 0, -1, 0, 3, 1, -1, 0, 1, 2, -1,
 11, 9, 5, -1, 5, 9, 7, -1, 5, 7, 3, -1,
 17, 15, 11, -1, 11, 15, 13, -1, 11, 13, 9, -1,
 29, 21, 17, -1, 17, 21, 19, -1, 17, 19, 15, -1,
 38, 33, 29, -1, 29, 33, 31, -1, 29, 31, 21, -1,
 110, 108, 38, -1, 38, 108, 40, -1, 38, 40, 33, -1,
 174, 160, 128, -1, 172, 126, 110, -1, 110, 126, 112, -1,
 110, 112, 108, -1, 310, 306, 322, -1, 322, 306, 328, -1,
 322, 328, 330, -1, 330, 328, 338, -1, 338, 328, 348, -1,
 338, 348, 350, -1, 350, 348, 375, -1, 375, 348, 384, -1,
 375, 384, 386, -1, 386, 384, 399, -1, 399, 384, 410, -1,
 399, 410, 418, -1, 127, 173, 171, -1, 171, 173, 231, -1,
 171, 231, 229, -1, 229, 231, 307, -1, 229, 307, 305, -1,
 305, 307, 309, -1, 305, 309, 325, -1, 310, 308, 306, -1,
 306, 308, 232, -1, 306, 232, 230, -1, 230, 232, 174, -1,
 230, 174, 172, -1, 172, 174, 128, -1, 172, 128, 126, -1,
 475, 485, 783, -1, 783, 485, 493, -1, 783, 493, 511, -1,
 537, 782, 531, -1, 531, 782, 783, -1, 531, 783, 523, -1,
 523, 783, 511, -1, 779, 473, 783, -1, 783, 473, 475, -1,
 783, 782, 779, -1, 779, 782, 778, -1, 50, 354, 46, -1,
 46, 354, 352, -1, 302, 314, 50, -1, 314, 332, 50, -1,
 50, 332, 341, -1, 50, 341, 354, -1, 49, 292, 50, -1,
 50, 292, 294, -1, 50, 294, 302, -1, 49, 50, 45, -1,
 45, 50, 46, -1, 603, 800, 599, -1, 599, 800, 802, -1,
 599, 802, 593, -1, 593, 802, 535, -1, 592, 534, 801, -1,
 592, 801, 598, -1, 598, 801, 799, -1, 598, 799, 602, -1,
 234, 290, 25, -1, 234, 25, 228, -1, 228, 25, 23, -1,
 228, 23, 224, -1, 223, 22, 227, -1, 227, 22, 24, -1,
 227, 24, 233, -1, 233, 24, 289, -1, 707, 706, 705, -1,
 705, 706, 704, -1, 711, 607, 651, -1, 606, 710, 650, -1,
 650, 710, 706, -1, 650, 706, 651, -1, 651, 706, 707, -1,
 651, 707, 711, -1, 649, 648, 651, -1, 651, 648, 650, -1,
 605, 709, 705, -1, 708, 604, 704, -1, 704, 604, 648, -1,
 704, 648, 705, -1, 705, 648, 649, -1, 705, 649, 605, -1,
 120, 119, 122, -1, 122, 119, 121, -1, 116, 220, 176, -1,
 219, 115, 175, -1, 175, 115, 119, -1, 175, 119, 176, -1,
 176, 119, 120, -1, 176, 120, 116, -1, 178, 177, 176, -1,
 176, 177, 175, -1, 222, 118, 122, -1, 117, 221, 121, -1,
 121, 221, 177, -1, 121, 177, 122, -1, 122, 177, 178, -1,
 122, 178, 222, -1, 462, 451, 516, -1, 516, 451, 444, -1,
 516, 444, 429, -1, 387, 311, 397, -1, 397, 311, 400, -1,
 429, 428, 516, -1, 516, 428, 420, -1, 516, 420, 311, -1,
 311, 420, 419, -1, 311, 419, 400, -1, 387, 376, 311, -1,
 311, 376, 374, -1, 311, 374, 355, -1, 514, 502, 516, -1,
 516, 502, 500, -1, 516, 500, 490, -1, 490, 481, 516, -1,
 516, 481, 480, -1, 516, 480, 462, -1, 355, 345, 311, -1,
 311, 345, 337, -1, 311, 337, 335, -1, 335, 326, 311, -1,
 311, 326, 321, -1, 311, 321, 309, -1, 133, 160, 135, -1,
 135, 160, 138, -1, 137, 157, 136, -1, 136, 157, 134, -1,
 133, 131, 160, -1, 160, 131, 130, -1, 160, 130, 128, -1,
 127, 129, 157, -1, 157, 129, 132, -1, 157, 132, 134, -1,
 162, 166, 156, -1, 156, 166, 164, -1, 164, 166, 168, -1,
 164, 168, 170, -1, 162, 156, 159, -1, 159, 156, 154, -1,
 159, 154, 160, -1, 154, 152, 160, -1, 160, 152, 150, -1,
 160, 150, 138, -1, 150, 148, 138, -1, 138, 148, 146, -1,
 138, 146, 144, -1, 144, 142, 138, -1, 138, 142, 140, -1,
 138, 140, 137, -1, 140, 139, 137, -1, 137, 139, 141, -1,
 137, 141, 143, -1, 143, 145, 137, -1, 137, 145, 147, -1,
 137, 147, 157, -1, 157, 147, 149, -1, 157, 149, 158, -1,
 158, 149, 151, -1, 158, 151, 161, -1, 161, 151, 153, -1,
 161, 153, 165, -1, 165, 153, 155, -1, 165, 155, 167, -1,
 167, 155, 163, -1, 167, 163, 169, -1, 364, 377, 312, -1,
 312, 377, 382, -1, 312, 382, 398, -1, 422, 435, 517, -1,
 398, 405, 312, -1, 312, 405, 406, -1, 312, 406, 517, -1,
 517, 406, 421, -1, 517, 421, 422, -1, 336, 344, 312, -1,
 312, 344, 346, -1, 312, 346, 364, -1, 435, 449, 517, -1,
 517, 449, 450, -1, 517, 450, 467, -1, 310, 323, 312, -1,
 312, 323, 324, -1, 312, 324, 336, -1, 467, 482, 517, -1,
 517, 482, 483, -1, 517, 483, 491, -1, 491, 503, 517, -1,
 517, 503, 505, -1, 517, 505, 515, -1, 696, 698, 692, -1,
 662, 686, 664, -1, 664, 686, 666, -1, 667, 689, 665, -1,
 665, 689, 663, -1, 662, 660, 686, -1, 686, 660, 659, -1,
 686, 659, 656, -1, 657, 658, 689, -1, 689, 658, 661, -1,
 689, 661, 663, -1, 667, 677, 689, -1, 689, 677, 679, -1,
 689, 679, 688, -1, 688, 679, 681, -1, 688, 681, 691, -1,
 691, 681, 683, -1, 691, 683, 695, -1, 695, 683, 685, -1,
 695, 685, 697, -1, 697, 685, 693, -1, 697, 693, 699, -1,
 674, 672, 666, -1, 696, 692, 694, -1, 694, 692, 684, -1,
 694, 684, 690, -1, 690, 684, 682, -1, 690, 682, 687, -1,
 687, 682, 680, -1, 687, 680, 686, -1, 686, 680, 678, -1,
 686, 678, 666, -1, 666, 678, 676, -1, 666, 676, 674, -1,
 671, 673, 667, -1, 667, 673, 675, -1, 667, 675, 677, -1,
 672, 670, 666, -1, 666, 670, 668, -1, 666, 668, 667, -1,
 667, 668, 669, -1, 667, 669, 671, -1, 320, 318, 300, -1,
 300, 318, 298, -1, 300, 298, 204, -1, 204, 298, 182, -1,
 320, 509, 318, -1, 318, 509, 507, -1, 637, 615, 529, -1,
 529, 615, 527, -1, 529, 527, 509, -1, 509, 527, 507, -1,
 629, 627, 615, -1, 615, 637, 629, -1, 629, 637, 636, -1,
 629, 636, 631, -1, 631, 636, 639, -1, 631, 639, 633, -1,
 633, 639, 643, -1, 633, 643, 641, -1, 641, 643, 645, -1,
 641, 645, 647, -1, 627, 625, 615, -1, 615, 625, 623, -1,
 615, 623, 621, -1, 618, 620, 614, -1, 614, 620, 622, -1,
 622, 624, 614, -1, 614, 624, 626, -1, 614, 626, 628, -1,
 634, 614, 635, -1, 635, 614, 628, -1, 635, 628, 638, -1,
 638, 628, 630, -1, 638, 630, 642, -1, 642, 630, 632, -1,
 642, 632, 644, -1, 644, 632, 640, -1, 644, 640, 646, -1,
 621, 619, 615, -1, 615, 619, 617, -1, 615, 617, 614, -1,
 614, 617, 616, -1, 614, 616, 618, -1, 508, 506, 528, -1,
 528, 506, 526, -1, 528, 526, 634, -1, 634, 526, 614, -1,
 508, 319, 506, -1, 506, 319, 317, -1, 201, 181, 299, -1,
 299, 181, 297, -1, 299, 297, 319, -1, 319, 297, 317, -1,
 205, 209, 207, -1, 207, 209, 211, -1, 207, 211, 213, -1,
 195, 202, 197, -1, 197, 202, 205, -1, 197, 205, 199, -1,
 199, 205, 207, -1, 190, 182, 188, -1, 188, 182, 186, -1,
 193, 181, 195, -1, 195, 181, 201, -1, 195, 201, 202, -1,
 193, 191, 181, -1, 181, 191, 189, -1, 181, 189, 187, -1,
 190, 192, 182, -1, 182, 192, 194, -1, 182, 194, 196, -1,
 204, 182, 203, -1, 203, 182, 196, -1, 203, 196, 206, -1,
 206, 196, 198, -1, 206, 198, 210, -1, 210, 198, 200, -1,
 210, 200, 212, -1, 212, 200, 208, -1, 212, 208, 214, -1,
 187, 185, 181, -1, 181, 185, 183, -1, 181, 183, 182, -1,
 182, 183, 184, -1, 182, 184, 186, -1, 413, 395, 402, -1,
 402, 395, 368, -1, 402, 368, 389, -1, 412, 401, 394, -1,
 370, 296, 361, -1, 361, 296, 226, -1, 361, 226, 357, -1,
 368, 343, 389, -1, 389, 343, 334, -1, 389, 334, 379, -1,
 379, 334, 316, -1, 379, 316, 370, -1, 370, 316, 304, -1,
 370, 304, 296, -1, 424, 434, 413, -1, 413, 434, 414, -1,
 413, 414, 395, -1, 378, 333, 388, -1, 388, 333, 342, -1,
 388, 342, 401, -1, 401, 342, 367, -1, 401, 367, 394, -1,
 446, 495, 437, -1, 437, 495, 487, -1, 437, 487, 424, -1,
 424, 487, 461, -1, 424, 461, 434, -1, 436, 494, 445, -1,
 445, 494, 512, -1, 445, 512, 454, -1, 394, 411, 412, -1,
 412, 411, 433, -1, 412, 433, 423, -1, 423, 433, 460, -1,
 423, 460, 436, -1, 436, 460, 486, -1, 436, 486, 494, -1,
 360, 295, 369, -1, 369, 295, 303, -1, 369, 303, 378, -1,
 378, 303, 315, -1, 378, 315, 333, -1, 464, 533, 455, -1,
 455, 533, 525, -1, 455, 525, 446, -1, 446, 525, 513, -1,
 446, 513, 495, -1, 226, 218, 357, -1, 357, 218, 180, -1,
 357, 180, 356, -1, 356, 180, 217, -1, 356, 217, 360, -1,
 360, 217, 225, -1, 360, 225, 295, -1, 468, 613, 469, -1,
 469, 613, 611, -1, 469, 611, 464, -1, 464, 611, 601, -1,
 464, 601, 533, -1, 512, 524, 454, -1, 454, 524, 532, -1,
 454, 532, 463, -1, 463, 532, 600, -1, 463, 600, 468, -1,
 468, 600, 610, -1, 468, 610, 613, -1, 413, 416, 424, -1,
 424, 416, 426, -1, 424, 426, 437, -1, 437, 426, 439, -1,
 437, 439, 446, -1, 446, 439, 448, -1, 446, 448, 455, -1,
 455, 448, 457, -1, 455, 457, 464, -1, 464, 457, 466, -1,
 464, 466, 469, -1, 469, 466, 471, -1, 469, 471, 468, -1,
 468, 471, 470, -1, 468, 470, 463, -1, 463, 470, 465, -1,
 463, 465, 454, -1, 454, 465, 456, -1, 454, 456, 445, -1,
 445, 456, 447, -1, 445, 447, 436, -1, 436, 447, 438, -1,
 436, 438, 423, -1, 423, 438, 425, -1, 423, 425, 412, -1,
 412, 425, 415, -1, 702, 666, 703, -1, 703, 666, 667, -1,
 703, 713, 702, -1, 702, 713, 775, -1, 702, 775, 712, -1,
 712, 775, 785, -1, 712, 785, 791, -1, 791, 792, 712, -1,
 712, 792, 790, -1, 712, 790, 774, -1, 774, 790, 784, -1,
 138, 137, 124, -1, 124, 137, 123, -1, 113, 52, 123, -1,
 123, 52, 114, -1, 123, 114, 124, -1, 113, 51, 52, -1,
 52, 51, 41, -1, 52, 41, 35, -1, 35, 34, 52, -1,
 52, 34, 36, -1, 52, 36, 42, -1, 476, 489, 482, -1,
 330, 324, 322, -1, 322, 324, 323, -1, 322, 323, 310, -1,
 375, 364, 350, -1, 350, 364, 346, -1, 350, 346, 338, -1,
 338, 346, 344, -1, 338, 344, 330, -1, 330, 344, 336, -1,
 330, 336, 324, -1, 399, 398, 386, -1, 386, 398, 382, -1,
 386, 382, 375, -1, 375, 382, 377, -1, 375, 377, 364, -1,
 427, 421, 418, -1, 418, 421, 406, -1, 418, 406, 399, -1,
 399, 406, 405, -1, 399, 405, 398, -1, 482, 467, 476, -1,
 476, 467, 450, -1, 476, 450, 452, -1, 452, 450, 449, -1,
 452, 449, 440, -1, 440, 449, 435, -1, 440, 435, 427, -1,
 427, 435, 422, -1, 427, 422, 421, -1, 515, 505, 504, -1,
 504, 505, 503, -1, 504, 503, 496, -1, 496, 503, 491, -1,
 496, 491, 489, -1, 489, 491, 483, -1, 489, 483, 482, -1,
 130, 126, 128, -1, 135, 138, 124, -1, 126, 130, 112, -1,
 124, 40, 135, -1, 135, 40, 108, -1, 135, 108, 133, -1,
 133, 108, 112, -1, 133, 112, 131, -1, 131, 112, 130, -1,
 136, 134, 111, -1, 111, 134, 132, -1, 111, 132, 125, -1,
 125, 132, 129, -1, 125, 129, 127, -1, 123, 137, 39, -1,
 39, 137, 136, -1, 39, 136, 107, -1, 107, 136, 111, -1,
 39, 32, 123, -1, 123, 32, 30, -1, 123, 30, 113, -1,
 30, 20, 113, -1, 113, 20, 18, -1, 113, 18, 51, -1,
 18, 14, 51, -1, 51, 14, 12, -1, 51, 12, 41, -1,
 12, 8, 41, -1, 41, 8, 6, -1, 41, 6, 35, -1,
 6, 2, 35, -1, 35, 2, 1, -1, 35, 1, 34, -1,
 34, 1, 3, -1, 34, 3, 36, -1, 36, 3, 7, -1,
 36, 7, 42, -1, 7, 9, 42, -1, 42, 9, 13, -1,
 42, 13, 52, -1, 13, 15, 52, -1, 52, 15, 19, -1,
 52, 19, 114, -1, 19, 21, 114, -1, 114, 21, 31, -1,
 114, 31, 124, -1, 124, 31, 33, -1, 124, 33, 40, -1,
 502, 514, 501, -1, 502, 501, 500, -1, 500, 501, 497, -1,
 500, 497, 490, -1, 490, 497, 488, -1, 490, 488, 481, -1,
 481, 488, 480, -1, 480, 488, 477, -1, 480, 477, 462, -1,
 462, 477, 453, -1, 462, 453, 451, -1, 451, 453, 444, -1,
 444, 453, 441, -1, 444, 441, 429, -1, 429, 441, 430, -1,
 429, 430, 428, -1, 428, 430, 420, -1, 420, 430, 417, -1,
 420, 417, 419, -1, 659, 700, 656, -1, 664, 666, 702, -1,
 700, 659, 714, -1, 702, 786, 664, -1, 664, 786, 718, -1,
 664, 718, 662, -1, 662, 718, 714, -1, 662, 714, 660, -1,
 660, 714, 659, -1, 665, 663, 715, -1, 715, 663, 661, -1,
 715, 661, 701, -1, 701, 661, 658, -1, 701, 658, 657, -1,
 703, 667, 787, -1, 787, 667, 665, -1, 787, 665, 719, -1,
 719, 665, 715, -1, 787, 794, 703, -1, 703, 794, 796, -1,
 703, 796, 713, -1, 796, 806, 713, -1, 713, 806, 808, -1,
 713, 808, 775, -1, 808, 812, 775, -1, 775, 812, 814, -1,
 775, 814, 785, -1, 814, 818, 785, -1, 785, 818, 820, -1,
 785, 820, 791, -1, 820, 824, 791, -1, 791, 824, 826, -1,
 791, 826, 792, -1, 792, 826, 823, -1, 792, 823, 790, -1,
 790, 823, 819, -1, 790, 819, 784, -1, 819, 817, 784, -1,
 784, 817, 813, -1, 784, 813, 774, -1, 813, 811, 774, -1,
 774, 811, 807, -1, 774, 807, 712, -1, 807, 805, 712, -1,
 712, 805, 795, -1, 712, 795, 702, -1, 702, 795, 793, -1,
 702, 793, 786, -1, 154, 81, 75, -1, 154, 75, 152, -1,
 152, 75, 69, -1, 152, 69, 150, -1, 150, 69, 62, -1,
 150, 62, 148, -1, 148, 62, 60, -1, 148, 60, 146, -1,
 146, 60, 58, -1, 146, 58, 144, -1, 144, 58, 56, -1,
 144, 56, 142, -1, 142, 56, 54, -1, 142, 54, 140, -1,
 140, 54, 53, -1, 140, 53, 139, -1, 139, 53, 55, -1,
 139, 55, 141, -1, 141, 55, 57, -1, 141, 57, 143, -1,
 143, 57, 59, -1, 143, 59, 145, -1, 145, 59, 61, -1,
 145, 61, 147, -1, 147, 61, 68, -1, 147, 68, 149, -1,
 149, 68, 74, -1, 149, 74, 151, -1, 151, 74, 78, -1,
 151, 78, 153, -1, 254, 250, 258, -1, 258, 250, 256, -1,
 258, 256, 261, -1, 261, 256, 260, -1, 261, 260, 264, -1,
 245, 235, 246, -1, 246, 235, 237, -1, 246, 237, 248, -1,
 248, 237, 239, -1, 248, 239, 252, -1, 252, 239, 241, -1,
 252, 241, 254, -1, 254, 241, 243, -1, 254, 243, 250, -1,
 259, 251, 255, -1, 255, 251, 244, -1, 255, 244, 253, -1,
 253, 244, 242, -1, 253, 242, 249, -1, 249, 242, 240, -1,
 249, 240, 247, -1, 247, 240, 238, -1, 247, 238, 245, -1,
 245, 238, 236, -1, 245, 236, 235, -1, 276, 287, 278, -1,
 278, 287, 288, -1, 278, 288, 277, -1, 277, 288, 286, -1,
 277, 286, 275, -1, 275, 286, 284, -1, 275, 284, 271, -1,
 271, 284, 282, -1, 271, 282, 269, -1, 260, 266, 264, -1,
 264, 266, 272, -1, 264, 272, 268, -1, 268, 272, 279, -1,
 268, 279, 270, -1, 270, 279, 281, -1, 270, 281, 274, -1,
 274, 281, 283, -1, 274, 283, 276, -1, 276, 283, 285, -1,
 276, 285, 287, -1, 282, 280, 269, -1, 269, 280, 273, -1,
 269, 273, 265, -1, 265, 273, 267, -1, 265, 267, 262, -1,
 262, 267, 263, -1, 262, 263, 259, -1, 259, 263, 257, -1,
 259, 257, 251, -1, 83, 91, 87, -1, 87, 91, 98, -1,
 87, 98, 89, -1, 89, 98, 100, -1, 89, 100, 93, -1,
 93, 100, 102, -1, 93, 102, 95, -1, 73, 69, 77, -1,
 77, 69, 75, -1, 77, 75, 80, -1, 80, 75, 81, -1,
 80, 81, 83, -1, 83, 81, 85, -1, 83, 85, 91, -1,
 64, 53, 63, -1, 63, 53, 54, -1, 63, 54, 65, -1,
 65, 54, 56, -1, 65, 56, 67, -1, 67, 56, 58, -1,
 67, 58, 71, -1, 71, 58, 60, -1, 71, 60, 73, -1,
 73, 60, 62, -1, 73, 62, 69, -1, 76, 68, 72, -1,
 72, 68, 61, -1, 72, 61, 70, -1, 70, 61, 59, -1,
 70, 59, 66, -1, 66, 59, 57, -1, 66, 57, 64, -1,
 64, 57, 55, -1, 64, 55, 53, -1, 102, 104, 95, -1,
 95, 104, 106, -1, 95, 106, 96, -1, 96, 106, 105, -1,
 96, 105, 94, -1, 94, 105, 103, -1, 94, 103, 92, -1,
 92, 103, 101, -1, 92, 101, 88, -1, 88, 101, 99, -1,
 88, 99, 86, -1, 99, 97, 86, -1, 86, 97, 90, -1,
 86, 90, 82, -1, 82, 90, 84, -1, 82, 84, 79, -1,
 79, 84, 78, -1, 79, 78, 76, -1, 76, 78, 74, -1,
 76, 74, 68, -1, 682, 745, 741, -1, 682, 741, 680, -1,
 680, 741, 735, -1, 680, 735, 678, -1, 678, 735, 728, -1,
 678, 728, 676, -1, 676, 728, 726, -1, 676, 726, 674, -1,
 674, 726, 724, -1, 674, 724, 672, -1, 672, 724, 722, -1,
 672, 722, 670, -1, 670, 722, 720, -1, 670, 720, 668, -1,
 668, 720, 721, -1, 668, 721, 669, -1, 669, 721, 723, -1,
 669, 723, 671, -1, 671, 723, 725, -1, 671, 725, 673, -1,
 673, 725, 727, -1, 673, 727, 675, -1, 675, 727, 729, -1,
 675, 729, 677, -1, 677, 729, 736, -1, 677, 736, 679, -1,
 679, 736, 742, -1, 679, 742, 681, -1, 681, 742, 748, -1,
 681, 748, 683, -1, 558, 554, 562, -1, 562, 554, 560, -1,
 562, 560, 565, -1, 565, 560, 566, -1, 565, 566, 568, -1,
 566, 570, 568, -1, 568, 570, 576, -1, 568, 576, 572, -1,
 572, 576, 583, -1, 572, 583, 574, -1, 574, 583, 585, -1,
 574, 585, 578, -1, 578, 585, 587, -1, 578, 587, 580, -1,
 580, 587, 589, -1, 580, 589, 581, -1, 548, 539, 550, -1,
 550, 539, 541, -1, 550, 541, 552, -1, 552, 541, 543, -1,
 552, 543, 556, -1, 556, 543, 545, -1, 556, 545, 558, -1,
 558, 545, 547, -1, 558, 547, 554, -1, 561, 553, 557, -1,
 557, 553, 546, -1, 557, 546, 555, -1, 555, 546, 544, -1,
 555, 544, 551, -1, 551, 544, 542, -1, 551, 542, 549, -1,
 549, 542, 540, -1, 549, 540, 548, -1, 548, 540, 538, -1,
 548, 538, 539, -1, 589, 591, 581, -1, 581, 591, 590, -1,
 581, 590, 579, -1, 579, 590, 588, -1, 579, 588, 577, -1,
 577, 588, 586, -1, 577, 586, 573, -1, 573, 586, 584, -1,
 573, 584, 571, -1, 584, 582, 571, -1, 571, 582, 575, -1,
 571, 575, 567, -1, 567, 575, 569, -1, 567, 569, 564, -1,
 564, 569, 563, -1, 564, 563, 561, -1, 561, 563, 559, -1,
 561, 559, 553, -1, 749, 757, 753, -1, 753, 757, 764, -1,
 753, 764, 755, -1, 755, 764, 766, -1, 755, 766, 759, -1,
 759, 766, 768, -1, 759, 768, 761, -1, 744, 736, 740, -1,
 740, 736, 729, -1, 740, 729, 738, -1, 738, 729, 727, -1,
 738, 727, 734, -1, 734, 727, 725, -1, 734, 725, 732, -1,
 768, 770, 761, -1, 761, 770, 772, -1, 761, 772, 763, -1,
 763, 772, 773, -1, 763, 773, 762, -1, 762, 773, 771, -1,
 762, 771, 760, -1, 760, 771, 769, -1, 760, 769, 756, -1,
 756, 769, 767, -1, 756, 767, 754, -1, 739, 735, 743, -1,
 743, 735, 741, -1, 743, 741, 746, -1, 746, 741, 745, -1,
 746, 745, 749, -1, 749, 745, 751, -1, 749, 751, 757, -1,
 725, 723, 732, -1, 732, 723, 721, -1, 732, 721, 730, -1,
 730, 721, 720, -1, 730, 720, 731, -1, 731, 720, 722, -1,
 731, 722, 733, -1, 733, 722, 724, -1, 733, 724, 737, -1,
 737, 724, 726, -1, 737, 726, 739, -1, 739, 726, 728, -1,
 739, 728, 735, -1, 767, 765, 754, -1, 754, 765, 758, -1,
 754, 758, 750, -1, 750, 758, 752, -1, 750, 752, 747, -1,
 747, 752, 748, -1, 747, 748, 744, -1, 744, 748, 742, -1,
 744, 742, 736, -1, 747, 565, 750, -1, 750, 565, 568, -1,
 750, 568, 754, -1, 754, 568, 572, -1, 754, 572, 756, -1,
 756, 572, 574, -1, 756, 574, 760, -1, 760, 574, 578, -1,
 760, 578, 762, -1, 762, 578, 580, -1, 762, 580, 763, -1,
 763, 580, 581, -1, 763, 581, 761, -1, 761, 581, 579, -1,
 761, 579, 759, -1, 759, 579, 577, -1, 759, 577, 755, -1,
 755, 577, 573, -1, 755, 573, 753, -1, 753, 573, 571, -1,
 753, 571, 749, -1, 749, 571, 567, -1, 749, 567, 746, -1,
 746, 567, 564, -1, 262, 80, 265, -1, 265, 80, 83, -1,
 265, 83, 269, -1, 269, 83, 87, -1, 269, 87, 271, -1,
 271, 87, 89, -1, 271, 89, 275, -1, 275, 89, 93, -1,
 275, 93, 277, -1, 277, 93, 95, -1, 277, 95, 278, -1,
 278, 95, 96, -1, 278, 96, 276, -1, 276, 96, 94, -1,
 276, 94, 274, -1, 274, 94, 92, -1, 274, 92, 270, -1,
 270, 92, 88, -1, 270, 88, 268, -1, 268, 88, 86, -1,
 268, 86, 264, -1, 264, 86, 82, -1, 264, 82, 261, -1,
 261, 82, 79, -1, 636, 688, 639, -1, 639, 688, 691, -1,
 639, 691, 643, -1, 643, 691, 695, -1, 643, 695, 645, -1,
 645, 695, 697, -1, 645, 697, 647, -1, 647, 697, 699, -1,
 646, 698, 644, -1, 644, 698, 696, -1, 644, 696, 642, -1,
 642, 696, 694, -1, 642, 694, 638, -1, 638, 694, 690, -1,
 638, 690, 635, -1, 635, 690, 687, -1, 202, 158, 205, -1,
 205, 158, 161, -1, 205, 161, 209, -1, 209, 161, 165, -1,
 209, 165, 211, -1, 211, 165, 167, -1, 211, 167, 213, -1,
 213, 167, 169, -1, 214, 170, 212, -1, 212, 170, 168, -1,
 212, 168, 210, -1, 210, 168, 166, -1, 210, 166, 206, -1,
 206, 166, 162, -1, 206, 162, 203, -1, 203, 162, 159, -1,
 116, 120, 118, -1, 118, 120, 122, -1, 222, 178, 220, -1,
 220, 178, 176, -1, 651, 607, 649, -1, 649, 607, 605, -1,
 705, 709, 707, -1, 707, 709, 711, -1, 119, 115, 121, -1,
 121, 115, 117, -1, 177, 221, 175, -1, 175, 221, 219, -1,
 606, 650, 604, -1, 604, 650, 648, -1, 708, 704, 710, -1,
 710, 704, 706, -1, 776, 780, 472, -1, 472, 780, 474, -1,
 781, 780, 777, -1, 777, 780, 776, -1, 522, 510, 780, -1,
 510, 492, 780, -1, 780, 492, 484, -1, 780, 484, 474, -1,
 781, 536, 780, -1, 780, 536, 530, -1, 780, 530, 522, -1,
 353, 340, 47, -1, 47, 340, 331, -1, 47, 331, 313, -1,
 291, 48, 293, -1, 293, 48, 47, -1, 293, 47, 301, -1,
 301, 47, 313, -1, 47, 43, 353, -1, 353, 43, 351, -1,
 47, 48, 43, -1, 43, 48, 44, -1
]
normalIndex [
 204, 204, 208, -1, 208, 204, 208, -1, 208, 208, 212, -1,
 212, 208, 212, -1, 212, 212, 218, -1, 218, 212, 218, -1,
 218, 218, 224, -1, 224, 218, 224, -1, 224, 224, 230, -1,
 230, 224, 230, -1, 230, 230, 235, -1, 235, 230, 235, -1,
 235, 235, 229, -1, 229, 235, 229, -1, 229, 229, 223, -1,
 223, 229, 223, -1, 223, 223, 217, -1, 217, 223, 217, -1,
 217, 217, 211, -1, 211, 217, 211, -1, 211, 211, 207, -1,
 207, 211, 207, -1, 207, 207, 203, -1, 203, 207, 203, -1,
 204, 204, 208, -1, 208, 204, 208, -1, 208, 208, 212, -1,
 212, 208, 212, -1, 212, 212, 218, -1, 218, 212, 218, -1,
 218, 218, 224, -1, 224, 218, 224, -1, 224, 224, 230, -1,
 230, 224, 230, -1, 230, 230, 235, -1, 235, 230, 235, -1,
 235, 235, 229, -1, 229, 235, 229, -1, 229, 229, 223, -1,
 223, 229, 223, -1, 223, 223, 217, -1, 217, 223, 217, -1,
 217, 217, 211, -1, 211, 217, 211, -1, 211, 211, 207, -1,
 207, 211, 207, -1, 207, 207, 203, -1, 203, 207, 203, -1,
 203, 203, 205, -1, 203, 205, 205, -1, 205, 205, 209, -1,
 205, 209, 209, -1, 209, 213, 215, -1, 209, 209, 213, -1,
 213, 209, 215, -1, 213, 215, 213, -1, 215, 209, 209, -1,
 209, 209, 205, -1, 209, 205, 205, -1, 205, 205, 203, -1,
 205, 203, 203, -1, 210, 206, 206, -1, 206, 206, 204, -1,
 206, 204, 204, -1, 210, 214, 216, -1, 216, 214, 214, -1,
 216, 210, 210, -1, 210, 210, 206, -1, 210, 206, 206, -1,
 206, 206, 204, -1, 206, 204, 204, -1, 213, 215, 215, -1,
 215, 215, 219, -1, 215, 219, 219, -1, 219, 219, 223, -1,
 219, 223, 223, -1, 223, 223, 227, -1, 223, 227, 227, -1,
 227, 227, 233, -1, 227, 233, 233, -1, 233, 233, 234, -1,
 233, 234, 234, -1, 234, 234, 228, -1, 234, 228, 228, -1,
 228, 228, 224, -1, 228, 224, 224, -1, 224, 224, 220, -1,
 224, 220, 220, -1, 220, 220, 216, -1, 220, 216, 216, -1,
 216, 216, 214, -1, 216, 214, 210, -1, 210, 214, 210, -1,
 210, 210, 206, -1, 203, 203, 201, -1, 203, 201, 201, -1,
 201, 201, 197, -1, 201, 197, 197, -1, 197, 197, 193, -1,
 197, 193, 193, -1, 193, 193, 189, -1, 193, 189, 189, -1,
 189, 189, 187, -1, 189, 187, 187, -1, 187, 187, 185, -1,
 187, 185, 185, -1, 185, 185, 181, -1, 185, 181, 181, -1,
 181, 181, 182, -1, 181, 182, 182, -1, 182, 182, 186, -1,
 182, 186, 186, -1, 186, 186, 188, -1, 186, 188, 188, -1,
 188, 188, 190, -1, 188, 190, 190, -1, 190, 190, 194, -1,
 190, 194, 194, -1, 194, 194, 198, -1, 194, 198, 198, -1,
 198, 198, 202, -1, 198, 202, 202, -1, 202, 202, 204, -1,
 202, 204, 204, -1, 204, 204, 206, -1, 204, 206, 206, -1,
 206, 206, 210, -1, 206, 210, 210, -1, 210, 214, 216, -1,
 210, 210, 214, -1, 214, 210, 216, -1, 214, 216, 214, -1,
 216, 210, 210, -1, 210, 210, 206, -1, 210, 206, 206, -1,
 206, 206, 204, -1, 206, 204, 204, -1, 209, 205, 205, -1,
 205, 205, 203, -1, 205, 203, 203, -1, 209, 213, 215, -1,
 215, 213, 213, -1, 215, 209, 209, -1, 209, 209, 205, -1,
 209, 205, 205, -1, 205, 205, 203, -1, 205, 203, 203, -1,
 214, 216, 216, -1, 216, 216, 220, -1, 216, 220, 220, -1,
 220, 220, 224, -1, 220, 224, 224, -1, 224, 224, 228, -1,
 224, 228, 228, -1, 228, 228, 234, -1, 228, 234, 234, -1,
 234, 234, 233, -1, 234, 233, 233, -1, 233, 233, 227, -1,
 233, 227, 227, -1, 227, 227, 223, -1, 227, 223, 223, -1,
 223, 223, 219, -1, 223, 219, 219, -1, 219, 219, 215, -1,
 219, 215, 215, -1, 215, 215, 213, -1, 215, 213, 209, -1,
 209, 213, 209, -1, 209, 209, 205, -1, 204, 204, 202, -1,
 204, 202, 202, -1, 202, 202, 198, -1, 202, 198, 198, -1,
 198, 198, 194, -1, 198, 194, 194, -1, 194, 194, 190, -1,
 194, 190, 190, -1, 190, 190, 188, -1, 190, 188, 188, -1,
 188, 188, 186, -1, 188, 186, 186, -1, 186, 186, 182, -1,
 186, 182, 182, -1, 182, 182, 181, -1, 182, 181, 181, -1,
 181, 181, 185, -1, 181, 185, 185, -1, 185, 185, 187, -1,
 185, 187, 187, -1, 187, 187, 189, -1, 187, 189, 189, -1,
 189, 189, 193, -1, 189, 193, 193, -1, 193, 193, 197, -1,
 193, 197, 197, -1, 197, 197, 201, -1, 197, 201, 201, -1,
 201, 201, 203, -1, 201, 203, 203, -1, 217, 217, 176, -1,
 176, 217, 174, -1, 153, 158, 160, -1, 160, 158, 159, -1,
 160, 159, 170, -1, 170, 159, 168, -1, 170, 168, 174, -1,
 174, 168, 173, -1, 174, 173, 176, -1, 138, 144, 148, -1,
 148, 144, 147, -1, 148, 147, 153, -1, 153, 147, 151, -1,
 153, 151, 158, -1, 126, 128, 135, -1, 135, 128, 134, -1,
 135, 134, 138, -1, 138, 134, 136, -1, 138, 136, 144, -1,
 204, 204, 274, -1, 274, 204, 274, -1, 274, 274, 307, -1,
 307, 274, 307, -1, 307, 307, 345, -1, 345, 307, 345, -1,
 345, 345, 372, -1, 372, 345, 372, -1, 372, 372, 388, -1,
 388, 372, 388, -1, 388, 388, 410, -1, 410, 388, 410, -1,
 410, 410, 409, -1, 409, 410, 409, -1, 409, 409, 387, -1,
 387, 409, 387, -1, 387, 387, 371, -1, 371, 387, 371, -1,
 371, 371, 344, -1, 344, 371, 344, -1, 344, 344, 306, -1,
 306, 344, 306, -1, 306, 306, 273, -1, 273, 306, 273, -1,
 273, 273, 203, -1, 203, 273, 203, -1, 300, 300, 306, -1,
 349, 349, 345, -1, 307, 301, 301, -1, 297, 293, 307, -1,
 349, 345, 351, -1, 351, 345, 364, -1, 372, 368, 364, -1,
 364, 368, 366, -1, 364, 366, 351, -1, 378, 376, 372, -1,
 372, 376, 374, -1, 372, 374, 368, -1, 388, 384, 378, -1,
 378, 384, 380, -1, 378, 380, 376, -1, 402, 394, 388, -1,
 388, 394, 390, -1, 388, 390, 384, -1, 410, 406, 402, -1,
 402, 406, 404, -1, 402, 404, 394, -1, 415, 414, 410, -1,
 410, 414, 412, -1, 410, 412, 406, -1, 409, 413, 415, -1,
 415, 413, 415, -1, 415, 415, 414, -1, 401, 405, 409, -1,
 409, 405, 411, -1, 409, 411, 413, -1, 387, 393, 401, -1,
 401, 393, 403, -1, 401, 403, 405, -1, 377, 383, 387, -1,
 387, 383, 389, -1, 387, 389, 393, -1, 371, 375, 377, -1,
 377, 375, 379, -1, 377, 379, 383, -1, 363, 367, 371, -1,
 371, 367, 373, -1, 371, 373, 375, -1, 344, 348, 348, -1,
 344, 350, 363, -1, 363, 350, 365, -1, 363, 365, 367, -1,
 300, 306, 296, -1, 296, 306, 292, -1, 296, 292, 294, -1,
 294, 292, 285, -1, 285, 292, 273, -1, 285, 273, 275, -1,
 275, 273, 265, -1, 265, 273, 253, -1, 265, 253, 252, -1,
 252, 253, 244, -1, 244, 253, 203, -1, 244, 203, 203, -1,
 204, 204, 243, -1, 243, 204, 254, -1, 274, 262, 254, -1,
 254, 262, 255, -1, 254, 255, 243, -1, 297, 295, 293, -1,
 293, 295, 286, -1, 293, 286, 274, -1, 274, 286, 276, -1,
 274, 276, 262, -1, 349, 345, 345, -1, 345, 345, 329, -1,
 345, 329, 329, -1, 329, 329, 307, -1, 329, 307, 307, -1,
 307, 307, 301, -1, 307, 301, 297, -1, 300, 306, 306, -1,
 306, 306, 328, -1, 306, 328, 328, -1, 328, 328, 344, -1,
 328, 344, 344, -1, 344, 344, 348, -1, 344, 348, 350, -1,
 299, 299, 291, -1, 291, 305, 305, -1, 392, 386, 386, -1,
 305, 305, 333, -1, 333, 305, 333, -1, 333, 333, 361, -1,
 361, 333, 361, -1, 361, 361, 370, -1, 370, 361, 370, -1,
 370, 370, 382, -1, 382, 370, 382, -1, 382, 382, 386, -1,
 386, 382, 398, -1, 386, 398, 392, -1, 408, 400, 398, -1,
 398, 400, 396, -1, 398, 396, 392, -1, 407, 397, 395, -1,
 385, 385, 397, -1, 397, 385, 391, -1, 397, 391, 395, -1,
 385, 397, 381, -1, 381, 397, 381, -1, 381, 381, 369, -1,
 369, 381, 369, -1, 369, 369, 360, -1, 360, 369, 360, -1,
 360, 360, 332, -1, 332, 360, 332, -1, 332, 332, 304, -1,
 304, 332, 304, -1, 304, 304, 298, -1, 298, 304, 290, -1,
 298, 290, 298, -1, 203, 203, 259, -1, 259, 203, 259, -1,
 259, 259, 290, -1, 290, 259, 290, -1, 290, 290, 298, -1,
 204, 204, 260, -1, 260, 204, 260, -1, 260, 260, 291, -1,
 291, 260, 291, -1, 291, 291, 299, -1, 299, 291, 305, -1,
 395, 399, 407, -1, 407, 399, 407, -1, 407, 407, 415, -1,
 415, 407, 415, -1, 415, 415, 408, -1, 408, 415, 408, -1,
 408, 408, 400, -1, 203, 203, 155, -1, 155, 203, 155, -1,
 155, 155, 124, -1, 124, 155, 124, -1, 23, 29, 29, -1,
 116, 124, 116, -1, 116, 124, 124, -1, 116, 124, 110, -1,
 110, 124, 110, -1, 110, 110, 82, -1, 82, 110, 82, -1,
 82, 82, 53, -1, 53, 82, 53, -1, 53, 53, 45, -1,
 45, 53, 45, -1, 45, 45, 33, -1, 33, 45, 33, -1,
 33, 33, 29, -1, 29, 33, 17, -1, 29, 17, 23, -1,
 7, 15, 17, -1, 17, 15, 19, -1, 17, 19, 23, -1,
 8, 18, 20, -1, 30, 30, 18, -1, 18, 30, 24, -1,
 18, 24, 20, -1, 30, 18, 34, -1, 34, 18, 34, -1,
 34, 34, 46, -1, 46, 34, 46, -1, 46, 46, 54, -1,
 54, 46, 54, -1, 54, 54, 83, -1, 83, 54, 83, -1,
 83, 83, 111, -1, 111, 83, 111, -1, 111, 111, 117, -1,
 117, 111, 125, -1, 117, 125, 117, -1, 204, 204, 156, -1,
 156, 204, 156, -1, 156, 156, 125, -1, 125, 156, 125, -1,
 125, 125, 117, -1, 20, 16, 8, -1, 8, 16, 8, -1,
 8, 8, 0, -1, 0, 8, 0, -1, 0, 0, 7, -1,
 7, 0, 7, -1, 7, 7, 15, -1, 180, 180, 180, -1,
 180, 180, 180, -1, 180, 180, 180, -1, 180, 180, 180, -1,
 180, 180, 180, -1, 180, 180, 180, -1, 180, 180, 180, -1,
 180, 180, 180, -1, 180, 180, 180, -1, 180, 180, 180, -1,
 180, 180, 180, -1, 180, 180, 180, -1, 180, 180, 180, -1,
 180, 180, 180, -1, 180, 180, 180, -1, 180, 180, 180, -1,
 180, 180, 180, -1, 180, 180, 180, -1, 180, 180, 180, -1,
 180, 180, 180, -1, 180, 180, 180, -1, 180, 180, 180, -1,
 180, 180, 180, -1, 180, 180, 180, -1, 180, 180, 180, -1,
 180, 180, 180, -1, 180, 180, 180, -1, 180, 180, 180, -1,
 180, 180, 180, -1, 180, 180, 180, -1, 180, 180, 180, -1,
 180, 180, 180, -1, 180, 180, 180, -1, 180, 180, 180, -1,
 180, 180, 180, -1, 180, 180, 180, -1, 180, 180, 180, -1,
 180, 180, 180, -1, 180, 180, 180, -1, 180, 180, 180, -1,
 180, 180, 180, -1, 180, 180, 180, -1, 180, 180, 180, -1,
 180, 180, 180, -1, 180, 180, 180, -1, 180, 180, 180, -1,
 180, 180, 180, -1, 180, 180, 180, -1, 180, 180, 180, -1,
 180, 180, 180, -1, 180, 180, 180, -1, 180, 180, 180, -1,
 180, 180, 180, -1, 180, 180, 180, -1, 180, 180, 180, -1,
 180, 180, 180, -1, 180, 180, 180, -1, 180, 180, 180, -1,
 180, 180, 180, -1, 180, 180, 180, -1, 180, 180, 180, -1,
 180, 180, 180, -1, 180, 180, 180, -1, 180, 180, 180, -1,
 180, 180, 180, -1, 180, 180, 180, -1, 180, 180, 180, -1,
 180, 180, 180, -1, 180, 180, 180, -1, 180, 180, 180, -1,
 180, 180, 180, -1, 180, 180, 180, -1, 180, 180, 180, -1,
 180, 180, 180, -1, 180, 180, 180, -1, 180, 180, 180, -1,
 180, 180, 180, -1, 180, 180, 180, -1, 235, 235, 235, -1,
 235, 235, 235, -1, 235, 235, 235, -1, 235, 235, 235, -1,
 235, 235, 235, -1, 235, 235, 235, -1, 235, 235, 235, -1,
 235, 235, 235, -1, 235, 235, 235, -1, 235, 235, 235, -1,
 235, 235, 235, -1, 235, 235, 235, -1, 235, 235, 235, -1,
 235, 235, 235, -1, 235, 235, 235, -1, 235, 235, 235, -1,
 235, 235, 235, -1, 235, 235, 235, -1, 235, 235, 235, -1,
 235, 235, 235, -1, 235, 235, 235, -1, 235, 235, 235, -1,
 235, 235, 235, -1, 235, 235, 235, -1, 235, 235, 235, -1,
 235, 235, 235, -1, 235, 235, 235, -1, 235, 235, 235, -1,
 235, 235, 235, -1, 235, 235, 235, -1, 235, 235, 235, -1,
 235, 235, 235, -1, 235, 235, 235, -1, 235, 235, 235, -1,
 235, 235, 235, -1, 235, 235, 235, -1, 235, 235, 235, -1,
 235, 235, 235, -1, 235, 235, 235, -1, 235, 235, 235, -1,
 235, 235, 235, -1, 235, 235, 235, -1, 235, 235, 235, -1,
 235, 235, 235, -1, 235, 235, 235, -1, 235, 235, 235, -1,
 235, 235, 235, -1, 235, 235, 235, -1, 235, 235, 235, -1,
 235, 235, 235, -1, 235, 235, 235, -1, 235, 235, 235, -1,
 235, 235, 235, -1, 235, 235, 235, -1, 235, 235, 235, -1,
 235, 235, 235, -1, 235, 235, 235, -1, 235, 235, 235, -1,
 235, 235, 235, -1, 235, 235, 235, -1, 235, 235, 235, -1,
 235, 235, 235, -1, 235, 235, 235, -1, 235, 235, 235, -1,
 235, 235, 235, -1, 235, 235, 235, -1, 235, 235, 235, -1,
 235, 235, 235, -1, 235, 235, 235, -1, 235, 235, 235, -1,
 235, 235, 235, -1, 235, 235, 235, -1, 235, 235, 235, -1,
 235, 235, 235, -1, 204, 204, 204, -1, 204, 204, 204, -1,
 204, 204, 204, -1, 204, 204, 204, -1, 204, 204, 204, -1,
 204, 204, 204, -1, 204, 204, 204, -1, 204, 204, 204, -1,
 204, 204, 204, -1, 204, 204, 204, -1, 203, 203, 203, -1,
 203, 203, 203, -1, 203, 203, 203, -1, 203, 203, 203, -1,
 203, 203, 203, -1, 203, 203, 203, -1, 203, 203, 203, -1,
 203, 203, 203, -1, 203, 203, 203, -1, 203, 203, 203, -1,
 203, 203, 203, -1, 203, 203, 203, -1, 203, 203, 203, -1,
 203, 203, 203, -1, 203, 203, 203, -1, 203, 203, 203, -1,
 203, 203, 203, -1, 203, 203, 203, -1, 203, 203, 203, -1,
 203, 203, 203, -1, 180, 180, 180, -1, 180, 180, 180, -1,
 180, 180, 180, -1, 180, 180, 180, -1, 180, 180, 180, -1,
 415, 415, 415, -1, 415, 415, 415, -1, 415, 415, 415, -1,
 415, 415, 415, -1, 0, 0, 0, -1, 0, 0, 0, -1,
 0, 0, 0, -1, 0, 0, 0, -1, 204, 204, 204, -1,
 204, 204, 204, -1, 204, 204, 204, -1, 204, 204, 204, -1,
 204, 204, 204, -1, 204, 204, 204, -1, 204, 204, 204, -1,
 204, 204, 204, -1, 204, 204, 204, -1, 204, 204, 204, -1,
 180, 180, 180, -1, 180, 180, 180, -1, 180, 180, 180, -1,
 180, 180, 180, -1, 180, 180, 180, -1, 115, 115, 109, -1,
 66, 66, 70, -1, 203, 203, 171, -1, 171, 203, 162, -1,
 141, 150, 162, -1, 162, 150, 164, -1, 162, 164, 171, -1,
 122, 130, 141, -1, 141, 130, 140, -1, 141, 140, 150, -1,
 108, 114, 114, -1, 108, 119, 122, -1, 122, 119, 121, -1,
 122, 121, 130, -1, 66, 70, 64, -1, 64, 70, 51, -1,
 43, 47, 51, -1, 51, 47, 49, -1, 51, 49, 64, -1,
 37, 39, 43, -1, 43, 39, 41, -1, 43, 41, 47, -1,
 27, 31, 37, -1, 37, 31, 35, -1, 37, 35, 39, -1,
 13, 21, 27, -1, 27, 21, 25, -1, 27, 25, 31, -1,
 5, 9, 13, -1, 13, 9, 11, -1, 13, 11, 21, -1,
 0, 1, 5, -1, 5, 1, 3, -1, 5, 3, 9, -1,
 6, 2, 0, -1, 0, 2, 0, -1, 0, 0, 1, -1,
 14, 10, 6, -1, 6, 10, 4, -1, 6, 4, 2, -1,
 28, 22, 14, -1, 14, 22, 12, -1, 14, 12, 10, -1,
 38, 32, 28, -1, 28, 32, 26, -1, 28, 26, 22, -1,
 44, 40, 38, -1, 38, 40, 36, -1, 38, 36, 32, -1,
 52, 48, 44, -1, 44, 48, 42, -1, 44, 42, 40, -1,
 71, 67, 67, -1, 71, 65, 52, -1, 52, 65, 50, -1,
 52, 50, 48, -1, 115, 109, 118, -1, 118, 109, 123, -1,
 118, 123, 120, -1, 120, 123, 129, -1, 129, 123, 142, -1,
 129, 142, 139, -1, 139, 142, 154, -1, 154, 142, 163, -1,
 154, 163, 161, -1, 161, 163, 172, -1, 172, 163, 204, -1,
 172, 204, 204, -1, 66, 70, 70, -1, 70, 70, 86, -1,
 70, 86, 86, -1, 86, 86, 108, -1, 86, 108, 108, -1,
 108, 108, 114, -1, 108, 114, 119, -1, 115, 109, 109, -1,
 109, 109, 87, -1, 109, 87, 87, -1, 87, 87, 71, -1,
 87, 71, 71, -1, 71, 71, 67, -1, 71, 67, 65, -1,
 180, 180, 180, -1, 180, 180, 180, -1, 180, 180, 180, -1,
 180, 180, 180, -1, 180, 180, 180, -1, 180, 180, 180, -1,
 180, 180, 180, -1, 203, 203, 203, -1, 203, 203, 203, -1,
 0, 0, 0, -1, 0, 0, 0, -1, 203, 203, 203, -1,
 203, 203, 203, -1, 180, 180, 180, -1, 180, 180, 180, -1,
 180, 180, 180, -1, 180, 180, 180, -1, 180, 180, 180, -1,
 180, 180, 180, -1, 180, 180, 180, -1, 415, 415, 415, -1,
 415, 415, 415, -1, 192, 192, 192, -1, 192, 192, 192, -1,
 192, 192, 192, -1, 192, 192, 192, -1, 191, 191, 191, -1,
 191, 191, 191, -1, 191, 191, 191, -1, 191, 191, 191, -1,
 192, 192, 192, -1, 192, 192, 192, -1, 192, 192, 192, -1,
 192, 192, 192, -1, 191, 191, 191, -1, 191, 191, 191, -1,
 191, 191, 191, -1, 191, 191, 191, -1, 0, 0, 0, -1,
 0, 0, 0, -1, 180, 180, 180, -1, 180, 180, 180, -1,
 180, 180, 180, -1, 180, 180, 180, -1, 180, 180, 180, -1,
 180, 180, 180, -1, 415, 415, 415, -1, 415, 415, 415, -1,
 235, 235, 235, -1, 235, 235, 235, -1, 235, 235, 235, -1,
 235, 235, 235, -1, 235, 235, 235, -1, 235, 235, 235, -1,
 415, 415, 415, -1, 415, 415, 415, -1, 235, 235, 235, -1,
 235, 235, 235, -1, 235, 235, 235, -1, 235, 235, 235, -1,
 235, 235, 235, -1, 235, 235, 235, -1, 0, 0, 0, -1,
 0, 0, 0, -1, 180, 180, 180, -1, 180, 180, 180, -1,
 180, 180, 180, -1, 180, 180, 180, -1, 180, 180, 180, -1,
 180, 180, 180, -1, 203, 203, 203, -1, 203, 203, 203, -1,
 203, 203, 203, -1, 203, 203, 203, -1, 203, 203, 203, -1,
 203, 203, 203, -1, 203, 203, 203, -1, 203, 203, 203, -1,
 203, 203, 203, -1, 203, 203, 203, -1, 203, 203, 203, -1,
 203, 203, 203, -1, 203, 203, 203, -1, 203, 203, 203, -1,
 203, 203, 203, -1, 203, 203, 203, -1, 203, 203, 203, -1,
 203, 203, 203, -1, 203, 203, 203, -1, 203, 203, 203, -1,
 203, 203, 203, -1, 203, 203, 203, -1, 203, 203, 203, -1,
 203, 203, 203, -1, 203, 203, 203, -1, 0, 0, 0, -1,
 0, 0, 0, -1, 0, 0, 0, -1, 0, 0, 0, -1,
 0, 0, 0, -1, 0, 0, 0, -1, 0, 0, 0, -1,
 0, 0, 0, -1, 0, 0, 0, -1, 0, 0, 0, -1,
 0, 0, 0, -1, 0, 0, 0, -1, 0, 0, 0, -1,
 0, 0, 0, -1, 0, 0, 0, -1, 0, 0, 0, -1,
 0, 0, 0, -1, 0, 0, 0, -1, 0, 0, 0, -1,
 0, 0, 0, -1, 0, 0, 0, -1, 0, 0, 0, -1,
 0, 0, 0, -1, 0, 0, 0, -1, 0, 0, 0, -1,
 0, 0, 0, -1, 0, 0, 0, -1, 0, 0, 0, -1,
 0, 0, 0, -1, 0, 0, 0, -1, 0, 0, 0, -1,
 0, 0, 0, -1, 0, 0, 0, -1, 0, 0, 0, -1,
 0, 0, 0, -1, 0, 0, 0, -1, 0, 0, 0, -1,
 0, 0, 0, -1, 0, 0, 0, -1, 0, 0, 0, -1,
 0, 0, 0, -1, 0, 0, 0, -1, 204, 204, 204, -1,
 204, 204, 204, -1, 204, 204, 204, -1, 204, 204, 204, -1,
 204, 204, 204, -1, 204, 204, 204, -1, 204, 204, 204, -1,
 204, 204, 204, -1, 204, 204, 204, -1, 204, 204, 204, -1,
 204, 204, 204, -1, 204, 204, 204, -1, 204, 204, 204, -1,
 204, 204, 204, -1, 204, 204, 204, -1, 204, 204, 204, -1,
 204, 204, 204, -1, 204, 204, 204, -1, 204, 204, 204, -1,
 204, 204, 204, -1, 204, 204, 204, -1, 204, 204, 204, -1,
 204, 204, 204, -1, 204, 204, 204, -1, 415, 415, 415, -1,
 415, 415, 415, -1, 415, 415, 415, -1, 415, 415, 415, -1,
 415, 415, 415, -1, 415, 415, 415, -1, 415, 415, 415, -1,
 415, 415, 415, -1, 415, 415, 415, -1, 415, 415, 415, -1,
 415, 415, 415, -1, 415, 415, 415, -1, 415, 415, 415, -1,
 415, 415, 415, -1, 415, 415, 415, -1, 415, 415, 415, -1,
 415, 415, 415, -1, 415, 415, 415, -1, 415, 415, 415, -1,
 415, 415, 415, -1, 415, 415, 415, -1, 415, 415, 415, -1,
 415, 415, 415, -1, 415, 415, 415, -1, 415, 415, 415, -1,
 415, 415, 415, -1, 415, 415, 415, -1, 415, 415, 415, -1,
 415, 415, 415, -1, 415, 415, 415, -1, 415, 415, 415, -1,
 415, 415, 415, -1, 415, 415, 415, -1, 415, 415, 415, -1,
 415, 415, 415, -1, 415, 415, 415, -1, 415, 415, 415, -1,
 415, 415, 415, -1, 415, 415, 415, -1, 415, 415, 415, -1,
 415, 415, 415, -1, 415, 415, 415, -1, 302, 302, 324, -1,
 324, 302, 324, -1, 324, 324, 340, -1, 340, 324, 340, -1,
 203, 203, 203, -1, 203, 203, 203, -1, 74, 74, 90, -1,
 90, 74, 90, -1, 90, 90, 112, -1, 112, 90, 112, -1,
 0, 0, 0, -1, 0, 0, 0, -1, 0, 0, 0, -1,
 0, 0, 0, -1, 0, 0, 0, -1, 0, 0, 0, -1,
 0, 0, 0, -1, 0, 0, 0, -1, 0, 0, 0, -1,
 0, 0, 0, -1, 0, 0, 0, -1, 0, 0, 0, -1,
 0, 0, 0, -1, 0, 0, 0, -1, 0, 0, 0, -1,
 0, 0, 0, -1, 0, 0, 0, -1, 0, 0, 0, -1,
 0, 0, 0, -1, 0, 0, 0, -1, 0, 0, 0, -1,
 0, 0, 0, -1, 0, 0, 0, -1, 0, 0, 0, -1,
 0, 0, 0, -1, 0, 0, 0, -1, 0, 0, 0, -1,
 0, 0, 0, -1, 0, 0, 0, -1, 0, 0, 0, -1,
 0, 0, 0, -1, 0, 0, 0, -1, 113, 113, 91, -1,
 91, 113, 91, -1, 91, 91, 75, -1, 75, 91, 75, -1,
 204, 204, 204, -1, 204, 204, 204, -1, 341, 341, 325, -1,
 325, 341, 325, -1, 325, 325, 303, -1, 303, 325, 303, -1,
 415, 415, 415, -1, 415, 415, 415, -1, 415, 415, 415, -1,
 415, 415, 415, -1, 415, 415, 415, -1, 415, 415, 415, -1,
 415, 415, 415, -1, 415, 415, 415, -1, 415, 415, 415, -1,
 415, 415, 415, -1, 415, 415, 415, -1, 415, 415, 415, -1,
 415, 415, 415, -1, 415, 415, 415, -1, 415, 415, 415, -1,
 415, 415, 415, -1, 415, 415, 415, -1, 415, 415, 415, -1,
 415, 415, 415, -1, 415, 415, 415, -1, 415, 415, 415, -1,
 415, 415, 415, -1, 415, 415, 415, -1, 415, 415, 415, -1,
 415, 415, 415, -1, 415, 415, 415, -1, 415, 415, 415, -1,
 415, 415, 415, -1, 415, 415, 415, -1, 415, 415, 415, -1,
 415, 415, 415, -1, 415, 415, 415, -1, 180, 180, 180, -1,
 180, 180, 180, -1, 180, 180, 180, -1, 180, 180, 180, -1,
 180, 180, 180, -1, 180, 180, 180, -1, 180, 180, 180, -1,
 180, 180, 180, -1, 180, 180, 180, -1, 180, 180, 180, -1,
 180, 180, 180, -1, 180, 180, 180, -1, 180, 180, 180, -1,
 180, 180, 180, -1, 180, 180, 180, -1, 180, 180, 180, -1,
 180, 180, 180, -1, 180, 180, 180, -1, 180, 180, 180, -1,
 180, 180, 180, -1, 180, 180, 180, -1, 180, 180, 180, -1,
 180, 180, 180, -1, 180, 180, 180, -1, 180, 180, 180, -1,
 180, 180, 180, -1, 180, 180, 180, -1, 180, 180, 180, -1,
 180, 180, 180, -1, 180, 180, 180, -1, 180, 180, 180, -1,
 180, 180, 180, -1, 180, 180, 180, -1, 180, 180, 180, -1,
 180, 180, 180, -1, 180, 180, 180, -1, 180, 180, 180, -1,
 180, 180, 180, -1, 180, 180, 180, -1, 180, 180, 180, -1,
 180, 180, 180, -1, 180, 180, 180, -1, 180, 180, 180, -1,
 180, 180, 180, -1, 180, 180, 180, -1, 180, 180, 180, -1,
 180, 180, 180, -1, 180, 180, 180, -1, 180, 180, 180, -1,
 180, 180, 180, -1, 180, 180, 180, -1, 180, 180, 180, -1,
 180, 180, 180, -1, 180, 180, 180, -1, 180, 180, 180, -1,
 180, 180, 180, -1, 180, 180, 180, -1, 180, 180, 180, -1,
 180, 180, 180, -1, 180, 180, 180, -1, 180, 180, 180, -1,
 180, 180, 180, -1, 180, 180, 180, -1, 180, 180, 180, -1,
 180, 180, 180, -1, 180, 180, 180, -1, 203, 203, 141, -1,
 141, 203, 141, -1, 141, 141, 108, -1, 108, 141, 108, -1,
 108, 108, 70, -1, 70, 108, 70, -1, 70, 70, 43, -1,
 43, 70, 43, -1, 43, 43, 27, -1, 27, 43, 27, -1,
 27, 27, 5, -1, 5, 27, 5, -1, 5, 5, 6, -1,
 6, 5, 6, -1, 6, 6, 28, -1, 28, 6, 28, -1,
 28, 28, 44, -1, 44, 28, 44, -1, 44, 44, 71, -1,
 71, 44, 71, -1, 71, 71, 109, -1, 109, 71, 109, -1,
 109, 109, 142, -1, 142, 109, 142, -1, 142, 142, 204, -1,
 204, 142, 204, -1, 235, 235, 235, -1, 235, 235, 235, -1,
 235, 235, 235, -1, 235, 235, 235, -1, 235, 235, 235, -1,
 235, 235, 235, -1, 235, 235, 235, -1, 235, 235, 235, -1,
 235, 235, 235, -1, 235, 235, 235, -1, 235, 235, 235, -1,
 235, 235, 235, -1, 235, 235, 235, -1, 235, 235, 235, -1,
 235, 235, 235, -1, 235, 235, 235, -1, 235, 235, 235, -1,
 235, 235, 235, -1, 235, 235, 235, -1, 235, 235, 235, -1,
 235, 235, 235, -1, 235, 235, 235, -1, 264, 269, 270, -1,
 137, 133, 132, -1, 132, 133, 131, -1, 132, 131, 127, -1,
 166, 157, 152, -1, 152, 157, 149, -1, 152, 149, 146, -1,
 146, 149, 145, -1, 146, 145, 137, -1, 137, 145, 143, -1,
 137, 143, 133, -1, 178, 175, 169, -1, 169, 175, 167, -1,
 169, 167, 166, -1, 166, 167, 165, -1, 166, 165, 157, -1,
 238, 237, 218, -1, 218, 237, 179, -1, 218, 179, 178, -1,
 178, 179, 177, -1, 178, 177, 175, -1, 270, 261, 264, -1,
 264, 261, 251, -1, 264, 251, 249, -1, 249, 251, 250, -1,
 249, 250, 247, -1, 247, 250, 245, -1, 247, 245, 238, -1,
 238, 245, 239, -1, 238, 239, 237, -1, 289, 287, 283, -1,
 283, 287, 284, -1, 283, 284, 279, -1, 279, 284, 277, -1,
 279, 277, 269, -1, 269, 277, 271, -1, 269, 271, 270, -1,
 104, 103, 107, -1, 95, 89, 81, -1, 103, 104, 99, -1,
 81, 85, 95, -1, 95, 85, 93, -1, 95, 93, 97, -1,
 97, 93, 99, -1, 97, 99, 101, -1, 101, 99, 104, -1,
 94, 96, 98, -1, 98, 96, 100, -1, 98, 100, 102, -1,
 102, 100, 105, -1, 102, 105, 106, -1, 80, 88, 84, -1,
 84, 88, 94, -1, 84, 94, 92, -1, 92, 94, 98, -1,
 84, 80, 80, -1, 80, 80, 78, -1, 80, 78, 76, -1,
 78, 76, 76, -1, 76, 76, 72, -1, 76, 72, 68, -1,
 72, 68, 68, -1, 68, 68, 62, -1, 68, 62, 60, -1,
 62, 60, 60, -1, 60, 60, 58, -1, 60, 58, 56, -1,
 58, 56, 56, -1, 56, 56, 55, -1, 56, 55, 55, -1,
 55, 55, 57, -1, 55, 57, 57, -1, 57, 57, 59, -1,
 57, 59, 61, -1, 59, 61, 61, -1, 61, 61, 63, -1,
 61, 63, 69, -1, 63, 69, 69, -1, 69, 69, 73, -1,
 69, 73, 77, -1, 73, 77, 77, -1, 77, 77, 79, -1,
 77, 79, 81, -1, 81, 79, 81, -1, 81, 81, 85, -1,
 282, 288, 280, -1, 282, 280, 281, -1, 281, 280, 278, -1,
 281, 278, 272, -1, 272, 278, 267, -1, 272, 267, 268, -1,
 268, 267, 266, -1, 266, 267, 263, -1, 266, 263, 258, -1,
 258, 263, 256, -1, 258, 256, 257, -1, 257, 256, 248, -1,
 248, 256, 246, -1, 248, 246, 242, -1, 242, 246, 240, -1,
 242, 240, 241, -1, 241, 240, 236, -1, 236, 240, 217, -1,
 236, 217, 217, -1, 311, 312, 308, -1, 320, 326, 334, -1,
 312, 311, 316, -1, 334, 330, 320, -1, 320, 330, 322, -1,
 320, 322, 318, -1, 318, 322, 316, -1, 318, 316, 314, -1,
 314, 316, 311, -1, 321, 319, 317, -1, 317, 319, 315, -1,
 317, 315, 313, -1, 313, 315, 310, -1, 313, 310, 309, -1,
 335, 327, 331, -1, 331, 327, 321, -1, 331, 321, 323, -1,
 323, 321, 317, -1, 331, 335, 335, -1, 335, 335, 337, -1,
 335, 337, 339, -1, 337, 339, 339, -1, 339, 339, 343, -1,
 339, 343, 347, -1, 343, 347, 347, -1, 347, 347, 353, -1,
 347, 353, 355, -1, 353, 355, 355, -1, 355, 355, 357, -1,
 355, 357, 359, -1, 357, 359, 359, -1, 359, 359, 362, -1,
 359, 362, 362, -1, 362, 362, 358, -1, 362, 358, 358, -1,
 358, 358, 356, -1, 358, 356, 354, -1, 356, 354, 354, -1,
 354, 354, 352, -1, 354, 352, 346, -1, 352, 346, 346, -1,
 346, 346, 342, -1, 346, 342, 338, -1, 342, 338, 338, -1,
 338, 338, 336, -1, 338, 336, 334, -1, 334, 336, 334, -1,
 334, 334, 330, -1, 204, 204, 202, -1, 204, 202, 202, -1,
 202, 202, 198, -1, 202, 198, 198, -1, 198, 198, 194, -1,
 198, 194, 194, -1, 194, 194, 190, -1, 194, 190, 190, -1,
 190, 190, 188, -1, 190, 188, 188, -1, 188, 188, 186, -1,
 188, 186, 186, -1, 186, 186, 182, -1, 186, 182, 182, -1,
 182, 182, 181, -1, 182, 181, 181, -1, 181, 181, 185, -1,
 181, 185, 185, -1, 185, 185, 187, -1, 185, 187, 187, -1,
 187, 187, 189, -1, 187, 189, 189, -1, 189, 189, 193, -1,
 189, 193, 193, -1, 193, 193, 197, -1, 193, 197, 197, -1,
 197, 197, 201, -1, 197, 201, 201, -1, 201, 201, 203, -1,
 201, 203, 203, -1, 415, 415, 415, -1, 415, 415, 415, -1,
 415, 415, 415, -1, 415, 415, 415, -1, 415, 415, 415, -1,
 415, 415, 415, -1, 415, 415, 415, -1, 415, 415, 415, -1,
 415, 415, 415, -1, 415, 415, 415, -1, 415, 415, 415, -1,
 415, 415, 415, -1, 415, 415, 415, -1, 415, 415, 415, -1,
 415, 415, 415, -1, 415, 415, 415, -1, 415, 415, 415, -1,
 415, 415, 415, -1, 415, 415, 415, -1, 415, 415, 415, -1,
 415, 415, 415, -1, 415, 415, 415, -1, 415, 415, 415, -1,
 415, 415, 415, -1, 415, 415, 415, -1, 415, 415, 415, -1,
 415, 415, 415, -1, 415, 415, 415, -1, 415, 415, 415, -1,
 415, 415, 415, -1, 415, 415, 415, -1, 415, 415, 415, -1,
 415, 415, 415, -1, 415, 415, 415, -1, 415, 415, 415, -1,
 415, 415, 415, -1, 415, 415, 415, -1, 415, 415, 415, -1,
 415, 415, 415, -1, 415, 415, 415, -1, 415, 415, 415, -1,
 415, 415, 415, -1, 415, 415, 415, -1, 415, 415, 415, -1,
 415, 415, 415, -1, 415, 415, 415, -1, 415, 415, 415, -1,
 415, 415, 415, -1, 415, 415, 415, -1, 415, 415, 415, -1,
 415, 415, 415, -1, 415, 415, 415, -1, 415, 415, 415, -1,
 415, 415, 415, -1, 0, 0, 0, -1, 0, 0, 0, -1,
 0, 0, 0, -1, 0, 0, 0, -1, 0, 0, 0, -1,
 0, 0, 0, -1, 0, 0, 0, -1, 0, 0, 0, -1,
 0, 0, 0, -1, 0, 0, 0, -1, 0, 0, 0, -1,
 0, 0, 0, -1, 0, 0, 0, -1, 0, 0, 0, -1,
 0, 0, 0, -1, 0, 0, 0, -1, 0, 0, 0, -1,
 0, 0, 0, -1, 0, 0, 0, -1, 0, 0, 0, -1,
 0, 0, 0, -1, 0, 0, 0, -1, 0, 0, 0, -1,
 0, 0, 0, -1, 0, 0, 0, -1, 0, 0, 0, -1,
 0, 0, 0, -1, 0, 0, 0, -1, 0, 0, 0, -1,
 0, 0, 0, -1, 0, 0, 0, -1, 0, 0, 0, -1,
 0, 0, 0, -1, 0, 0, 0, -1, 0, 0, 0, -1,
 0, 0, 0, -1, 0, 0, 0, -1, 0, 0, 0, -1,
 0, 0, 0, -1, 0, 0, 0, -1, 0, 0, 0, -1,
 0, 0, 0, -1, 0, 0, 0, -1, 0, 0, 0, -1,
 0, 0, 0, -1, 0, 0, 0, -1, 0, 0, 0, -1,
 0, 0, 0, -1, 0, 0, 0, -1, 0, 0, 0, -1,
 0, 0, 0, -1, 0, 0, 0, -1, 0, 0, 0, -1,
 0, 0, 0, -1, 203, 203, 201, -1, 203, 201, 201, -1,
 201, 201, 197, -1, 201, 197, 197, -1, 197, 197, 193, -1,
 197, 193, 193, -1, 193, 193, 189, -1, 193, 189, 189, -1,
 189, 189, 187, -1, 189, 187, 187, -1, 187, 187, 185, -1,
 187, 185, 185, -1, 185, 185, 181, -1, 185, 181, 181, -1,
 181, 181, 182, -1, 181, 182, 182, -1, 182, 182, 186, -1,
 182, 186, 186, -1, 186, 186, 188, -1, 186, 188, 188, -1,
 188, 188, 190, -1, 188, 190, 190, -1, 190, 190, 194, -1,
 190, 194, 194, -1, 194, 194, 198, -1, 194, 198, 198, -1,
 198, 198, 202, -1, 198, 202, 202, -1, 202, 202, 204, -1,
 202, 204, 204, -1, 0, 0, 0, -1, 0, 0, 0, -1,
 0, 0, 0, -1, 0, 0, 0, -1, 0, 0, 0, -1,
 0, 0, 0, -1, 0, 0, 0, -1, 0, 0, 0, -1,
 0, 0, 0, -1, 0, 0, 0, -1, 0, 0, 0, -1,
 0, 0, 0, -1, 0, 0, 0, -1, 0, 0, 0, -1,
 0, 0, 0, -1, 0, 0, 0, -1, 0, 0, 0, -1,
 0, 0, 0, -1, 0, 0, 0, -1, 0, 0, 0, -1,
 0, 0, 0, -1, 0, 0, 0, -1, 0, 0, 0, -1,
 0, 0, 0, -1, 0, 0, 0, -1, 0, 0, 0, -1,
 0, 0, 0, -1, 0, 0, 0, -1, 0, 0, 0, -1,
 0, 0, 0, -1, 0, 0, 0, -1, 0, 0, 0, -1,
 0, 0, 0, -1, 0, 0, 0, -1, 0, 0, 0, -1,
 0, 0, 0, -1, 0, 0, 0, -1, 0, 0, 0, -1,
 0, 0, 0, -1, 0, 0, 0, -1, 0, 0, 0, -1,
 0, 0, 0, -1, 0, 0, 0, -1, 0, 0, 0, -1,
 0, 0, 0, -1, 0, 0, 0, -1, 0, 0, 0, -1,
 0, 0, 0, -1, 0, 0, 0, -1, 0, 0, 0, -1,
 0, 0, 0, -1, 0, 0, 0, -1, 0, 0, 0, -1,
 0, 0, 0, -1, 415, 415, 415, -1, 415, 415, 415, -1,
 415, 415, 415, -1, 415, 415, 415, -1, 415, 415, 415, -1,
 415, 415, 415, -1, 415, 415, 415, -1, 415, 415, 415, -1,
 415, 415, 415, -1, 415, 415, 415, -1, 415, 415, 415, -1,
 415, 415, 415, -1, 415, 415, 415, -1, 415, 415, 415, -1,
 415, 415, 415, -1, 415, 415, 415, -1, 415, 415, 415, -1,
 415, 415, 415, -1, 415, 415, 415, -1, 415, 415, 415, -1,
 415, 415, 415, -1, 415, 415, 415, -1, 415, 415, 415, -1,
 415, 415, 415, -1, 415, 415, 415, -1, 415, 415, 415, -1,
 415, 415, 415, -1, 415, 415, 415, -1, 415, 415, 415, -1,
 415, 415, 415, -1, 415, 415, 415, -1, 415, 415, 415, -1,
 415, 415, 415, -1, 415, 415, 415, -1, 415, 415, 415, -1,
 415, 415, 415, -1, 415, 415, 415, -1, 415, 415, 415, -1,
 415, 415, 415, -1, 415, 415, 415, -1, 415, 415, 415, -1,
 415, 415, 415, -1, 415, 415, 415, -1, 415, 415, 415, -1,
 415, 415, 415, -1, 415, 415, 415, -1, 415, 415, 415, -1,
 415, 415, 415, -1, 415, 415, 415, -1, 415, 415, 415, -1,
 415, 415, 415, -1, 415, 415, 415, -1, 415, 415, 415, -1,
 415, 415, 415, -1, 203, 203, 199, -1, 199, 203, 199, -1,
 199, 199, 195, -1, 195, 199, 195, -1, 195, 195, 191, -1,
 191, 195, 191, -1, 191, 191, 187, -1, 187, 191, 187, -1,
 187, 187, 183, -1, 183, 187, 183, -1, 183, 183, 180, -1,
 180, 183, 180, -1, 180, 180, 184, -1, 184, 180, 184, -1,
 184, 184, 188, -1, 188, 184, 188, -1, 188, 188, 192, -1,
 192, 188, 192, -1, 192, 192, 196, -1, 196, 192, 196, -1,
 196, 196, 200, -1, 200, 196, 200, -1, 200, 200, 204, -1,
 204, 200, 204, -1, 203, 203, 199, -1, 199, 203, 199, -1,
 199, 199, 195, -1, 195, 199, 195, -1, 195, 195, 191, -1,
 191, 195, 191, -1, 191, 191, 187, -1, 187, 191, 187, -1,
 187, 187, 183, -1, 183, 187, 183, -1, 183, 183, 180, -1,
 180, 183, 180, -1, 180, 180, 184, -1, 184, 180, 184, -1,
 184, 184, 188, -1, 188, 184, 188, -1, 188, 188, 192, -1,
 192, 188, 192, -1, 192, 192, 196, -1, 196, 192, 196, -1,
 196, 196, 200, -1, 200, 196, 200, -1, 200, 200, 204, -1,
 204, 200, 204, -1, 235, 235, 232, -1, 232, 235, 232, -1,
 232, 232, 226, -1, 226, 232, 226, -1, 226, 226, 222, -1,
 222, 226, 222, -1, 222, 222, 214, -1, 214, 222, 214, -1,
 213, 213, 221, -1, 221, 213, 221, -1, 221, 221, 225, -1,
 225, 221, 225, -1, 225, 225, 231, -1, 231, 225, 231, -1,
 231, 231, 235, -1, 235, 231, 235, -1, 235, 235, 231, -1,
 231, 235, 231, -1, 231, 231, 225, -1, 225, 231, 225, -1,
 225, 225, 221, -1, 221, 225, 221, -1, 221, 221, 213, -1,
 213, 221, 213, -1, 214, 214, 222, -1, 222, 214, 222, -1,
 222, 222, 226, -1, 226, 222, 226, -1, 226, 226, 232, -1,
 232, 226, 232, -1, 232, 232, 235, -1, 235, 232, 235, -1,
 361, 361, 361, -1, 361, 361, 361, -1, 54, 54, 54, -1,
 54, 54, 54, -1, 361, 361, 361, -1, 361, 361, 361, -1,
 54, 54, 54, -1, 54, 54, 54, -1, 360, 360, 360, -1,
 360, 360, 360, -1, 53, 53, 53, -1, 53, 53, 53, -1,
 360, 360, 360, -1, 360, 360, 360, -1, 53, 53, 53, -1,
 53, 53, 53, -1, 204, 204, 204, -1, 204, 204, 204, -1,
 0, 0, 0, -1, 0, 0, 0, -1, 180, 180, 180, -1,
 180, 180, 180, -1, 180, 180, 180, -1, 180, 180, 180, -1,
 180, 180, 180, -1, 180, 180, 180, -1, 180, 180, 180, -1,
 180, 180, 180, -1, 180, 180, 180, -1, 180, 180, 180, -1,
 180, 180, 180, -1, 180, 180, 180, -1, 180, 180, 180, -1,
 180, 180, 180, -1, 204, 204, 204, -1, 204, 204, 204, -1,
 415, 415, 415, -1, 415, 415, 415, -1
]
colorPerVertex FALSE
normalPerVertex TRUE
}
}
]
}
