#VRML V2.0 utf8
Transform {
children [
Shape {
appearance Appearance {
material Material {
ambientIntensity 1.000000
diffuseColor 1.000000 1.000000 1.000000
emissiveColor 0.210000 0.210000 0.210000
specularColor 0.880000 0.880000 0.880000
shininess 0.210000
transparency 0.000000
}
}
geometry IndexedFaceSet {
color Color {
color [
 1.000000 1.000000 1.000000
]
}
coord Coordinate {
point [
 -0.007300 0.010000 -0.009000, -0.007300 0.010000 -0.005750, -0.007300 0.010000 -0.003250, -0.007300 0.010000 0.003250, -0.007300 0.010000 0.005750,
 -0.007300 0.010000 0.009000, -0.007300 0.012500 -0.009000, -0.007300 0.012500 -0.005750, -0.007300 0.012500 -0.003250, -0.007300 0.012500 0.003250,
 -0.007300 0.012500 0.005750, -0.007300 0.012500 0.009000, -0.007266 0.010000 -0.009259, -0.007266 0.010000 0.009259, -0.007266 0.012500 -0.009259,
 -0.007266 0.012500 0.009259, -0.007166 0.010000 -0.009500, -0.007166 0.010000 0.009500, -0.007166 0.012500 -0.009500, -0.007166 0.012500 0.009500,
 -0.007007 0.010000 -0.009707, -0.007007 0.010000 0.009707, -0.007007 0.012500 -0.009707, -0.007007 0.012500 0.009707, -0.006800 0.010000 -0.009866,
 -0.006800 0.010000 0.009866, -0.006800 0.012500 -0.009866, -0.006800 0.012500 0.009866, -0.006559 0.010000 -0.009966, -0.006559 0.010000 0.009966,
 -0.006559 0.012500 -0.009966, -0.006559 0.012500 0.009966, -0.006300 0.010000 -0.010000, -0.006300 0.010000 0.010000, -0.006300 0.012500 -0.010000,
 -0.006300 0.012500 0.010000, -0.005899 0.010000 -0.005750, -0.005899 0.010000 -0.003250, -0.005899 0.010000 0.003250, -0.005899 0.010000 0.005750,
 -0.005899 0.012500 -0.005750, -0.005899 0.012500 -0.003250, -0.005899 0.012500 0.003250, -0.005899 0.012500 0.005750, -0.005532 0.010000 -0.006147,
 -0.005532 0.010000 -0.002853, -0.005532 0.010000 0.002853, -0.005532 0.010000 0.006147, -0.005532 0.012500 -0.006147, -0.005532 0.012500 -0.002853,
 -0.005532 0.012500 0.002853, -0.005532 0.012500 0.006147, -0.005500 -0.015500 -0.003300, -0.005500 -0.015500 0.003300, -0.005500 -0.011500 -0.003300,
 -0.005500 -0.011500 0.003300, -0.005078 0.010000 -0.006440, -0.005078 0.010000 -0.002560, -0.005078 0.010000 0.002560, -0.005078 0.010000 0.006440,
 -0.005078 0.012500 -0.006440, -0.005078 0.012500 -0.002560, -0.005078 0.012500 0.002560, -0.005078 0.012500 0.006440, -0.005000 -0.016000 -0.003400,
 -0.005000 -0.016000 0.003400, -0.005000 -0.015500 -0.003300, -0.005000 -0.015500 0.003300, -0.005000 -0.012000 -0.003400, -0.005000 -0.012000 -0.003300,
 -0.005000 -0.012000 0.003300, -0.005000 -0.012000 0.003400, -0.004565 0.010000 -0.006610, -0.004565 0.010000 -0.002390, -0.004565 0.010000 0.002390,
 -0.004565 0.010000 0.006610, -0.004565 0.012500 -0.006610, -0.004565 0.012500 -0.002390, -0.004565 0.012500 0.002390, -0.004565 0.012500 0.006610,
 -0.004025 0.010000 -0.006646, -0.004025 0.010000 -0.002354, -0.004025 0.010000 0.002354, -0.004025 0.010000 0.006646, -0.004025 0.012500 -0.006646,
 -0.004025 0.012500 -0.002354, -0.004025 0.012500 0.002354, -0.004025 0.012500 0.006646, -0.003494 0.010000 -0.006547, -0.003494 0.010000 -0.002453,
 -0.003494 0.010000 0.002453, -0.003494 0.010000 0.006547, -0.003494 0.012500 -0.006547, -0.003494 0.012500 -0.002453, -0.003494 0.012500 0.002453,
 -0.003494 0.012500 0.006547, -0.003004 0.010000 -0.006319, -0.003004 0.010000 -0.002681, -0.003004 0.010000 0.002681, -0.003004 0.010000 0.006319,
 -0.003004 0.012500 -0.006319, -0.003004 0.012500 -0.002681, -0.003004 0.012500 0.002681, -0.003004 0.012500 0.006319, -0.002586 0.010000 -0.005975,
 -0.002586 0.010000 -0.003025, -0.002586 0.010000 0.003025, -0.002586 0.010000 0.005975, -0.002586 0.012500 -0.005975, -0.002586 0.012500 -0.003025,
 -0.002586 0.012500 0.003025, -0.002586 0.012500 0.005975, -0.002268 0.010000 -0.005539, -0.002268 0.010000 -0.003461, -0.002268 0.010000 0.003461,
 -0.002268 0.010000 0.005539, -0.002268 0.012500 -0.005539, -0.002268 0.012500 -0.003461, -0.002268 0.012500 0.003461, -0.002268 0.012500 0.005539,
 -0.002068 0.010000 -0.005036, -0.002068 0.010000 -0.003964, -0.002068 0.010000 0.003964, -0.002068 0.010000 0.005036, -0.002068 0.012500 -0.005036,
 -0.002068 0.012500 -0.003964, -0.002068 0.012500 0.003964, -0.002068 0.012500 0.005036, -0.002000 0.010000 -0.004500, -0.002000 0.010000 0.004500,
 -0.002000 0.012500 -0.004500, -0.002000 0.012500 0.004500, 0.000000 -0.019500 -0.010000, 0.000000 -0.019500 0.010000, 0.000000 -0.016000 -0.003400,
 -0.000000 -0.016000 0.003400, -0.000000 -0.012000 -0.003400, 0.000000 -0.012000 -0.003300, 0.000000 -0.012000 0.003300, -0.000000 -0.012000 0.003400,
 0.000000 -0.011500 -0.003300, 0.000000 -0.011500 0.003300, 0.000000 0.010000 -0.010000, 0.000000 0.010000 0.010000, 0.000000 0.012500 -0.010000,
 0.000000 0.012500 0.010000, 0.000000 0.019500 -0.010000, 0.000000 0.019500 0.010000, 0.003008 0.019500 0.000324, 0.003008 0.020500 0.000324,
 0.003074 0.019500 -0.000969, 0.003074 0.020500 -0.000969, 0.003204 0.019500 0.001604, 0.003204 0.020500 0.001604, 0.003398 0.019500 -0.002223,
 0.003398 0.020500 -0.002223, 0.003654 0.019500 0.002819, 0.003654 0.020500 0.002819, 0.003969 0.019500 -0.003385, 0.003969 0.020500 -0.003385,
 0.004339 0.019500 0.003917, 0.004339 0.020500 0.003917, 0.004761 0.019500 -0.004409, 0.004761 0.020500 -0.004409, 0.005231 0.019500 0.004856,
 0.005231 0.020500 0.004856, 0.005744 0.019500 -0.005253, 0.005744 0.020500 -0.005253, 0.006294 0.019500 0.005596, 0.006294 0.020500 0.005596,
 0.006600 0.020500 0.000000, 0.006600 0.024500 0.000000, 0.006695 0.020500 -0.000725, 0.006695 0.020500 0.000725, 0.006695 0.024500 -0.000725,
 0.006695 0.024500 0.000725, 0.006876 0.019500 -0.005881, 0.006876 0.020500 -0.005881, 0.006975 0.020500 -0.001400, 0.006975 0.020500 0.001400,
 0.006975 0.024500 -0.001400, 0.006975 0.024500 0.001400, 0.007420 0.020500 -0.001980, 0.007420 0.020500 0.001980, 0.007420 0.024500 -0.001980,
 0.007420 0.024500 0.001980, 0.007484 0.019500 0.006106, 0.007484 0.020500 0.006106, 0.008000 0.019500 0.000000, 0.008000 0.020500 -0.002425,
 0.008000 0.020500 0.002425, 0.008000 0.024500 -0.002425, 0.008000 0.024500 0.000000, 0.008000 0.024500 0.002425, 0.008048 0.019500 -0.000362,
 0.008048 0.019500 0.000362, 0.008048 0.024500 -0.000362, 0.008048 0.024500 0.000362, 0.008112 0.019500 -0.006269, 0.008112 0.020500 -0.006269,
 0.008188 0.019500 -0.000700, 0.008188 0.019500 0.000700, 0.008188 0.024500 -0.000700, 0.008188 0.024500 0.000700, 0.008410 0.019500 -0.000990,
 0.008410 0.019500 0.000990, 0.008410 0.024500 -0.000990, 0.008410 0.024500 0.000990, 0.008675 0.020500 -0.002705, 0.008675 0.020500 0.002705,
 0.008675 0.024500 -0.002705, 0.008675 0.024500 0.002705, 0.008700 0.019500 -0.001212, 0.008700 0.019500 0.001212, 0.008700 0.024500 -0.001212,
 0.008700 0.024500 0.001212, 0.008753 0.019500 0.006367, 0.008753 0.020500 0.006367, 0.009038 0.019500 -0.001352, 0.009038 0.019500 0.001352,
 0.009038 0.024500 -0.001352, 0.009038 0.024500 0.001352, 0.009400 0.019500 -0.006400, 0.009400 0.019500 -0.001400, 0.009400 0.019500 0.000000,
 0.009400 0.019500 0.001400, 0.009400 0.020500 -0.006400, 0.009400 0.020500 -0.002800, 0.009400 0.020500 0.002800, 0.009400 0.020500 0.006400,
 0.009400 0.024500 -0.002800, 0.009400 0.024500 -0.001400, 0.009400 0.024500 0.001400, 0.009400 0.024500 0.002800, 0.009762 0.019500 -0.001352,
 0.009762 0.019500 0.001352, 0.009762 0.024500 -0.001352, 0.009762 0.024500 0.001352, 0.010047 0.019500 0.006367, 0.010047 0.020500 0.006367,
 0.010100 0.019500 -0.001212, 0.010100 0.019500 0.001212, 0.010100 0.024500 -0.001212, 0.010100 0.024500 0.001212, 0.010125 0.020500 -0.002705,
 0.010125 0.020500 0.002705, 0.010125 0.024500 -0.002705, 0.010125 0.024500 0.002705, 0.010390 0.019500 -0.000990, 0.010390 0.019500 0.000990,
 0.010390 0.024500 -0.000990, 0.010390 0.024500 0.000990, 0.010612 0.019500 -0.000700, 0.010612 0.019500 0.000700, 0.010612 0.024500 -0.000700,
 0.010612 0.024500 0.000700, 0.010688 0.019500 -0.006269, 0.010688 0.020500 -0.006269, 0.010752 0.019500 -0.000362, 0.010752 0.019500 0.000362,
 0.010752 0.024500 -0.000362, 0.010752 0.024500 0.000362, 0.010800 0.019500 0.000000, 0.010800 0.020500 -0.002425, 0.010800 0.020500 0.002425,
 0.010800 0.024500 -0.002425, 0.010800 0.024500 0.000000, 0.010800 0.024500 0.002425, 0.011316 0.019500 0.006106, 0.011316 0.020500 0.006106,
 0.011380 0.020500 -0.001980, 0.011380 0.020500 0.001980, 0.011380 0.024500 -0.001980, 0.011380 0.024500 0.001980, 0.011825 0.020500 -0.001400,
 0.011825 0.020500 0.001400, 0.011825 0.024500 -0.001400, 0.011825 0.024500 0.001400, 0.011924 0.019500 -0.005881, 0.011924 0.020500 -0.005881,
 0.012105 0.020500 -0.000725, 0.012105 0.020500 0.000725, 0.012105 0.024500 -0.000725, 0.012105 0.024500 0.000725, 0.012200 0.020500 0.000000,
 0.012200 0.024500 0.000000, 0.012506 0.019500 0.005596, 0.012506 0.020500 0.005596, 0.013056 0.019500 -0.005253, 0.013056 0.020500 -0.005253,
 0.013569 0.019500 0.004856, 0.013569 0.020500 0.004856, 0.014039 0.019500 -0.004409, 0.014039 0.020500 -0.004409, 0.014461 0.019500 0.003917,
 0.014461 0.020500 0.003917, 0.014831 0.019500 -0.003385, 0.014831 0.020500 -0.003385, 0.015146 0.019500 0.002819, 0.015146 0.020500 0.002819,
 0.015402 0.019500 -0.002223, 0.015402 0.020500 -0.002223, 0.015596 0.019500 0.001604, 0.015596 0.020500 0.001604, 0.015726 0.019500 -0.000969,
 0.015726 0.020500 -0.000969, 0.015792 0.019500 0.000324, 0.015792 0.020500 0.000324, 0.040000 -0.019500 -0.010000, 0.040000 -0.019500 0.010000,
 0.040000 0.010000 -0.010000, 0.040000 0.010000 0.010000, 0.040000 0.012500 -0.010000, 0.040000 0.012500 0.010000, 0.040000 0.019500 -0.010000,
 0.040000 0.019500 0.010000, 0.043019 0.010000 -0.004812, 0.043019 0.010000 -0.004188, 0.043019 0.010000 0.004188, 0.043019 0.010000 0.004812,
 0.043019 0.012500 -0.004812, 0.043019 0.012500 -0.004188, 0.043019 0.012500 0.004188, 0.043019 0.012500 0.004812, 0.043174 0.010000 -0.005416,
 0.043174 0.010000 -0.003584, 0.043174 0.010000 0.003584, 0.043174 0.010000 0.005416, 0.043174 0.012500 -0.005416, 0.043174 0.012500 -0.003584,
 0.043174 0.012500 0.003584, 0.043174 0.012500 0.005416, 0.043472 0.010000 -0.005963, 0.043472 0.010000 -0.003037, 0.043472 0.010000 0.003037,
 0.043472 0.010000 0.005963, 0.043472 0.012500 -0.005963, 0.043472 0.012500 -0.003037, 0.043472 0.012500 0.003037, 0.043472 0.012500 0.005963,
 0.043897 0.010000 -0.006419, 0.043897 0.010000 -0.002581, 0.043897 0.010000 0.002581, 0.043897 0.010000 0.006419, 0.043897 0.012500 -0.006419,
 0.043897 0.012500 -0.002581, 0.043897 0.012500 0.002581, 0.043897 0.012500 0.006419, 0.044422 0.010000 -0.006755, 0.044422 0.010000 -0.002245,
 0.044422 0.010000 0.002245, 0.044422 0.010000 0.006755, 0.044422 0.012500 -0.006755, 0.044422 0.012500 -0.002245, 0.044422 0.012500 0.002245,
 0.044422 0.012500 0.006755, 0.045013 0.010000 -0.006952, 0.045013 0.010000 -0.002048, 0.045013 0.010000 0.002048, 0.045013 0.010000 0.006952,
 0.045013 0.012500 -0.006952, 0.045013 0.012500 -0.002048, 0.045013 0.012500 0.002048, 0.045013 0.012500 0.006952, 0.045635 0.010000 -0.006996,
 0.045635 0.010000 -0.002004, 0.045635 0.010000 0.002004, 0.045635 0.010000 0.006996, 0.045635 0.012500 -0.006996, 0.045635 0.012500 -0.002004,
 0.045635 0.012500 0.002004, 0.045635 0.012500 0.006996, 0.046248 0.010000 -0.006885, 0.046248 0.010000 -0.002115, 0.046248 0.010000 0.002115,
 0.046248 0.010000 0.006885, 0.046248 0.012500 -0.006885, 0.046248 0.012500 -0.002115, 0.046248 0.012500 0.002115, 0.046248 0.012500 0.006885,
 0.046300 0.010000 -0.010000, 0.046300 0.010000 0.010000, 0.046300 0.012500 -0.010000, 0.046300 0.012500 0.010000, 0.046559 0.010000 -0.009966,
 0.046559 0.010000 0.009966, 0.046559 0.012500 -0.009966, 0.046559 0.012500 0.009966, 0.046800 0.010000 -0.009866, 0.046800 0.010000 0.009866,
 0.046800 0.012500 -0.009866, 0.046800 0.012500 0.009866, 0.046815 0.010000 -0.006626, 0.046815 0.010000 -0.002374, 0.046815 0.010000 0.002374,
 0.046815 0.010000 0.006626, 0.046815 0.012500 -0.006626, 0.046815 0.012500 -0.002374, 0.046815 0.012500 0.002374, 0.046815 0.012500 0.006626,
 0.047007 0.010000 -0.009707, 0.047007 0.010000 0.009707, 0.047007 0.012500 -0.009707, 0.047007 0.012500 0.009707, 0.047166 0.010000 -0.009500,
 0.047166 0.010000 0.009500, 0.047166 0.012500 -0.009500, 0.047166 0.012500 0.009500, 0.047266 0.010000 -0.009259, 0.047266 0.010000 0.009259,
 0.047266 0.012500 -0.009259, 0.047266 0.012500 0.009259, 0.047300 0.010000 -0.009000, 0.047300 0.010000 -0.006235, 0.047300 0.010000 -0.002765,
 0.047300 0.010000 0.002765, 0.047300 0.010000 0.006235, 0.047300 0.010000 0.009000, 0.047300 0.012500 -0.009000, 0.047300 0.012500 -0.006235,
 0.047300 0.012500 -0.002765, 0.047300 0.012500 0.002765, 0.047300 0.012500 0.006235, 0.047300 0.012500 0.009000
]
}
normal Normal {
vector [
 -1.000000 0.000000 0.000000, -0.998717 -0.000000 0.050649, -0.988468 0.000000 -0.151428, -0.968387 0.000000 -0.249453, -0.968387 0.000000 0.249453,
 -0.968077 -0.000000 0.250653, -0.965926 0.000000 -0.258819, -0.965926 -0.000000 0.258819, -0.937752 0.000000 -0.347305, -0.897805 -0.000000 0.440394,
 -0.875547 0.000000 -0.483133, -0.875547 0.000000 0.483133, -0.866025 0.000000 -0.500000, -0.866025 -0.000000 0.500000, -0.848644 0.000000 -0.528964,
 -0.790776 -0.000000 0.612106, -0.727349 0.000000 -0.686268, -0.727349 0.000000 0.686268, -0.724793 0.000000 -0.688967, -0.720000 0.000000 -0.693974,
 -0.720000 0.000000 0.693974, -0.707107 0.000000 -0.707107, -0.707107 -0.000000 0.707107, -0.651372 -0.000000 0.758758, -0.571268 0.000000 -0.820763,
 -0.533164 0.000000 -0.846012, -0.533164 0.000000 0.846012, -0.525961 0.000000 -0.850509, -0.525961 0.000000 0.850509, -0.500000 0.000000 -0.866025,
 -0.500000 -0.000000 0.866025, -0.485302 -0.000000 0.874347, -0.394356 0.000000 -0.918958, -0.305269 0.000000 -0.952266, -0.305269 0.000000 0.952266,
 -0.299363 -0.000000 0.954139, -0.299231 0.000000 -0.954181, -0.299231 0.000000 0.954181, -0.258819 0.000000 -0.965926, -0.258819 -0.000000 0.965926,
 -0.201299 0.000000 -0.979530, -0.101168 -0.000000 0.994869, -0.058074 0.000000 -0.998312, -0.058074 0.000000 0.998312, -0.053903 0.000000 -0.998546,
 -0.053903 0.000000 0.998546, 0.000000 -1.000000 0.000000, 0.000000 0.000000 -1.000000, 0.000000 0.000000 1.000000, 0.000000 1.000000 -0.000000,
 0.101168 -0.000000 0.994869, 0.192794 0.000000 -0.981239, 0.192794 0.000000 0.981239, 0.194776 0.000000 -0.980848, 0.194776 0.000000 0.980848,
 0.201299 0.000000 -0.979530, 0.258819 0.000000 -0.965926, 0.258819 -0.000000 0.965926, 0.299363 -0.000000 0.954139, 0.394356 0.000000 -0.918958,
 0.431348 0.000000 -0.902186, 0.431348 0.000000 0.902186, 0.431472 0.000000 -0.902126, 0.431472 0.000000 0.902126, 0.485302 -0.000000 0.874347,
 0.500000 0.000000 -0.866025, 0.500000 -0.000000 0.866025, 0.571268 0.000000 -0.820763, 0.641110 0.000000 -0.767449, 0.641110 0.000000 0.767449,
 0.642870 0.000000 -0.765976, 0.642870 0.000000 0.765976, 0.651372 -0.000000 0.758758, 0.707107 0.000000 -0.707107, 0.707107 -0.000000 0.707107,
 0.724793 0.000000 -0.688967, 0.790776 -0.000000 0.612106, 0.811025 0.000000 -0.585012, 0.811025 0.000000 0.585012, 0.813621 0.000000 -0.581395,
 0.813621 0.000000 0.581395, 0.848644 0.000000 -0.528964, 0.866025 0.000000 -0.500000, 0.866025 -0.000000 0.500000, 0.897805 -0.000000 0.440394,
 0.930531 0.000000 -0.366214, 0.930531 0.000000 0.366214, 0.937752 0.000000 -0.347305, 0.965926 0.000000 -0.258819, 0.965926 -0.000000 0.258819,
 0.968077 -0.000000 0.250653, 0.988468 0.000000 -0.151428, 0.992200 0.000000 -0.124654, 0.992200 0.000000 0.124654, 0.998717 -0.000000 0.050649,
 1.000000 0.000000 0.000000
]
}
coordIndex [
 141, 138, 139, -1, 143, 142, 140, -1, 140, 141, 143, -1,
 143, 141, 139, -1, 143, 139, 133, -1, 133, 139, 135, -1,
 133, 135, 132, -1, 132, 135, 134, -1, 132, 134, 136, -1,
 137, 140, 136, -1, 136, 140, 142, -1, 136, 142, 132, -1,
 137, 136, 69, -1, 69, 136, 68, -1, 70, 71, 138, -1,
 138, 71, 139, -1, 71, 70, 67, -1, 69, 68, 66, -1,
 66, 68, 64, -1, 66, 64, 67, -1, 67, 64, 65, -1,
 67, 65, 71, -1, 418, 419, 412, -1, 412, 419, 413, -1,
 421, 415, 420, -1, 420, 415, 414, -1, 395, 416, 417, -1,
 393, 414, 415, -1, 311, 310, 318, -1, 318, 310, 326, -1,
 324, 310, 332, -1, 332, 310, 340, -1, 324, 316, 310, -1,
 310, 316, 317, -1, 310, 317, 326, -1, 326, 317, 325, -1,
 326, 325, 334, -1, 318, 319, 311, -1, 311, 319, 327, -1,
 311, 327, 335, -1, 372, 408, 392, -1, 392, 408, 412, -1,
 392, 412, 413, -1, 384, 364, 380, -1, 380, 364, 356, -1,
 380, 356, 310, -1, 310, 356, 348, -1, 310, 348, 340, -1,
 335, 343, 311, -1, 311, 343, 351, -1, 311, 351, 381, -1,
 395, 417, 375, -1, 384, 388, 364, -1, 364, 388, 400, -1,
 364, 400, 372, -1, 372, 400, 404, -1, 372, 404, 408, -1,
 415, 394, 393, -1, 393, 394, 374, -1, 393, 374, 373, -1,
 351, 359, 381, -1, 381, 359, 367, -1, 381, 367, 385, -1,
 385, 367, 389, -1, 334, 325, 342, -1, 342, 325, 333, -1,
 342, 333, 341, -1, 341, 349, 342, -1, 342, 349, 357, -1,
 342, 357, 350, -1, 417, 409, 375, -1, 375, 409, 405, -1,
 375, 405, 367, -1, 367, 405, 401, -1, 367, 401, 389, -1,
 373, 374, 365, -1, 365, 374, 366, -1, 365, 366, 357, -1,
 357, 366, 358, -1, 357, 358, 350, -1, 396, 419, 418, -1,
 423, 422, 399, -1, 330, 312, 322, -1, 322, 312, 313, -1,
 322, 313, 323, -1, 323, 313, 331, -1, 398, 421, 397, -1,
 397, 421, 420, -1, 386, 382, 368, -1, 312, 328, 336, -1,
 386, 368, 390, -1, 396, 418, 376, -1, 355, 347, 313, -1,
 313, 347, 339, -1, 313, 339, 331, -1, 338, 329, 330, -1,
 330, 329, 321, -1, 330, 321, 312, -1, 312, 321, 320, -1,
 312, 320, 328, -1, 336, 344, 312, -1, 312, 344, 352, -1,
 312, 352, 382, -1, 382, 352, 360, -1, 382, 360, 368, -1,
 423, 399, 411, -1, 411, 399, 379, -1, 411, 379, 407, -1,
 407, 379, 403, -1, 403, 379, 371, -1, 403, 371, 391, -1,
 418, 410, 376, -1, 376, 410, 406, -1, 376, 406, 368, -1,
 368, 406, 402, -1, 368, 402, 390, -1, 355, 313, 363, -1,
 363, 313, 383, -1, 363, 383, 371, -1, 371, 383, 387, -1,
 371, 387, 391, -1, 338, 346, 329, -1, 329, 346, 354, -1,
 329, 354, 337, -1, 337, 354, 345, -1, 398, 397, 378, -1,
 378, 397, 377, -1, 378, 377, 370, -1, 370, 377, 369, -1,
 370, 369, 362, -1, 362, 369, 361, -1, 362, 361, 354, -1,
 354, 361, 353, -1, 354, 353, 345, -1, 314, 315, 312, -1,
 312, 315, 313, -1, 0, 1, 6, -1, 6, 1, 7, -1,
 3, 9, 2, -1, 2, 9, 8, -1, 147, 146, 145, -1,
 145, 146, 144, -1, 284, 305, 280, -1, 280, 305, 301, -1,
 280, 301, 274, -1, 274, 301, 297, -1, 274, 297, 270, -1,
 270, 297, 293, -1, 270, 293, 263, -1, 217, 228, 209, -1,
 271, 295, 275, -1, 275, 295, 299, -1, 275, 299, 281, -1,
 281, 299, 303, -1, 281, 303, 284, -1, 284, 303, 307, -1,
 284, 307, 305, -1, 217, 229, 228, -1, 228, 229, 239, -1,
 228, 239, 245, -1, 245, 239, 269, -1, 245, 269, 264, -1,
 264, 269, 287, -1, 264, 287, 271, -1, 271, 287, 291, -1,
 271, 291, 295, -1, 208, 177, 189, -1, 189, 177, 167, -1,
 189, 167, 182, -1, 182, 167, 163, -1, 182, 163, 178, -1,
 178, 163, 159, -1, 178, 159, 172, -1, 179, 161, 183, -1,
 183, 161, 165, -1, 183, 165, 190, -1, 190, 165, 169, -1,
 190, 169, 209, -1, 209, 169, 187, -1, 209, 187, 217, -1,
 159, 155, 172, -1, 172, 155, 151, -1, 172, 151, 170, -1,
 170, 151, 149, -1, 170, 149, 173, -1, 173, 149, 153, -1,
 173, 153, 179, -1, 179, 153, 157, -1, 179, 157, 161, -1,
 293, 289, 263, -1, 263, 289, 279, -1, 263, 279, 244, -1,
 244, 279, 257, -1, 244, 257, 227, -1, 227, 257, 226, -1,
 227, 226, 208, -1, 208, 226, 199, -1, 208, 199, 177, -1,
 381, 383, 311, -1, 311, 383, 313, -1, 315, 147, 313, -1,
 313, 147, 145, -1, 35, 33, 145, -1, 145, 33, 143, -1,
 145, 143, 313, -1, 313, 143, 133, -1, 313, 133, 311, -1,
 311, 133, 309, -1, 308, 309, 132, -1, 132, 309, 133, -1,
 382, 380, 312, -1, 312, 380, 310, -1, 308, 132, 310, -1,
 310, 132, 142, -1, 32, 34, 142, -1, 142, 34, 144, -1,
 142, 144, 310, -1, 310, 144, 146, -1, 310, 146, 312, -1,
 312, 146, 314, -1, 160, 156, 147, -1, 154, 158, 146, -1,
 146, 158, 162, -1, 162, 166, 146, -1, 146, 166, 176, -1,
 146, 176, 198, -1, 147, 216, 186, -1, 156, 152, 147, -1,
 147, 152, 148, -1, 147, 148, 146, -1, 146, 148, 150, -1,
 146, 150, 154, -1, 186, 168, 147, -1, 147, 168, 164, -1,
 147, 164, 160, -1, 198, 222, 146, -1, 146, 222, 256, -1,
 146, 256, 314, -1, 314, 256, 278, -1, 278, 288, 314, -1,
 314, 288, 292, -1, 314, 292, 296, -1, 294, 315, 298, -1,
 298, 315, 302, -1, 216, 147, 238, -1, 238, 147, 315, -1,
 238, 315, 268, -1, 296, 300, 314, -1, 314, 300, 304, -1,
 314, 304, 315, -1, 315, 304, 306, -1, 315, 306, 302, -1,
 294, 290, 315, -1, 315, 290, 286, -1, 315, 286, 268, -1,
 309, 308, 311, -1, 311, 308, 310, -1, 239, 229, 216, -1,
 229, 217, 216, -1, 216, 217, 187, -1, 216, 187, 186, -1,
 186, 187, 169, -1, 186, 169, 168, -1, 168, 169, 165, -1,
 168, 165, 164, -1, 164, 165, 161, -1, 164, 161, 160, -1,
 160, 161, 157, -1, 160, 157, 156, -1, 156, 157, 153, -1,
 156, 153, 152, -1, 152, 153, 149, -1, 152, 149, 148, -1,
 148, 149, 151, -1, 148, 151, 150, -1, 150, 151, 155, -1,
 150, 155, 154, -1, 154, 155, 159, -1, 154, 159, 158, -1,
 158, 159, 163, -1, 158, 163, 162, -1, 162, 163, 167, -1,
 162, 167, 166, -1, 166, 167, 177, -1, 166, 177, 176, -1,
 176, 177, 199, -1, 176, 199, 198, -1, 198, 199, 226, -1,
 198, 226, 222, -1, 222, 226, 257, -1, 222, 257, 256, -1,
 256, 257, 279, -1, 256, 279, 278, -1, 278, 279, 289, -1,
 278, 289, 288, -1, 288, 289, 293, -1, 288, 293, 292, -1,
 292, 293, 297, -1, 292, 297, 296, -1, 296, 297, 301, -1,
 296, 301, 300, -1, 300, 301, 305, -1, 300, 305, 304, -1,
 304, 305, 307, -1, 304, 307, 306, -1, 306, 307, 303, -1,
 306, 303, 302, -1, 302, 303, 299, -1, 302, 299, 298, -1,
 298, 299, 295, -1, 298, 295, 294, -1, 294, 295, 291, -1,
 294, 291, 290, -1, 290, 291, 287, -1, 290, 287, 286, -1,
 286, 287, 269, -1, 286, 269, 268, -1, 268, 269, 239, -1,
 268, 239, 238, -1, 238, 239, 216, -1, 236, 246, 231, -1,
 231, 246, 230, -1, 231, 230, 220, -1, 220, 230, 210, -1,
 220, 210, 214, -1, 214, 210, 191, -1, 214, 191, 206, -1,
 206, 191, 184, -1, 206, 184, 202, -1, 202, 184, 180, -1,
 202, 180, 196, -1, 196, 180, 174, -1, 196, 174, 192, -1,
 192, 174, 171, -1, 192, 171, 197, -1, 197, 171, 175, -1,
 197, 175, 203, -1, 203, 175, 181, -1, 203, 181, 207, -1,
 207, 181, 185, -1, 207, 185, 215, -1, 215, 185, 193, -1,
 215, 193, 221, -1, 221, 193, 211, -1, 221, 211, 232, -1,
 232, 211, 233, -1, 232, 233, 237, -1, 237, 233, 247, -1,
 237, 247, 243, -1, 243, 247, 267, -1, 243, 267, 251, -1,
 251, 267, 273, -1, 251, 273, 255, -1, 255, 273, 277, -1,
 255, 277, 261, -1, 261, 277, 283, -1, 261, 283, 266, -1,
 266, 283, 285, -1, 266, 285, 260, -1, 260, 285, 282, -1,
 260, 282, 254, -1, 254, 282, 276, -1, 254, 276, 250, -1,
 250, 276, 272, -1, 250, 272, 242, -1, 242, 272, 265, -1,
 242, 265, 236, -1, 236, 265, 246, -1, 227, 246, 244, -1,
 244, 246, 265, -1, 244, 265, 263, -1, 263, 265, 272, -1,
 263, 272, 270, -1, 270, 272, 276, -1, 270, 276, 274, -1,
 274, 276, 282, -1, 274, 282, 280, -1, 280, 282, 285, -1,
 280, 285, 284, -1, 284, 285, 283, -1, 284, 283, 281, -1,
 281, 283, 277, -1, 281, 277, 275, -1, 275, 277, 273, -1,
 275, 273, 271, -1, 271, 273, 267, -1, 271, 267, 264, -1,
 264, 267, 247, -1, 264, 247, 245, -1, 245, 247, 233, -1,
 245, 233, 228, -1, 228, 233, 211, -1, 228, 211, 209, -1,
 209, 211, 193, -1, 209, 193, 190, -1, 190, 193, 185, -1,
 190, 185, 183, -1, 183, 185, 181, -1, 183, 181, 179, -1,
 179, 181, 175, -1, 179, 175, 173, -1, 173, 175, 171, -1,
 173, 171, 170, -1, 170, 171, 174, -1, 170, 174, 172, -1,
 172, 174, 180, -1, 172, 180, 178, -1, 178, 180, 184, -1,
 178, 184, 182, -1, 182, 184, 191, -1, 182, 191, 189, -1,
 189, 191, 210, -1, 189, 210, 208, -1, 208, 210, 230, -1,
 208, 230, 227, -1, 227, 230, 246, -1, 213, 219, 224, -1,
 224, 219, 225, -1, 224, 225, 235, -1, 195, 201, 224, -1,
 224, 201, 205, -1, 224, 205, 213, -1, 200, 194, 224, -1,
 224, 194, 188, -1, 224, 188, 195, -1, 218, 212, 224, -1,
 224, 212, 204, -1, 224, 204, 200, -1, 240, 234, 224, -1,
 224, 234, 223, -1, 224, 223, 218, -1, 258, 252, 224, -1,
 224, 252, 248, -1, 224, 248, 240, -1, 253, 259, 224, -1,
 224, 259, 262, -1, 224, 262, 258, -1, 235, 241, 224, -1,
 224, 241, 249, -1, 224, 249, 253, -1, 231, 223, 236, -1,
 236, 223, 234, -1, 236, 234, 242, -1, 242, 234, 240, -1,
 242, 240, 250, -1, 250, 240, 248, -1, 250, 248, 254, -1,
 254, 248, 252, -1, 254, 252, 260, -1, 260, 252, 258, -1,
 260, 258, 266, -1, 266, 258, 262, -1, 266, 262, 261, -1,
 261, 262, 259, -1, 261, 259, 255, -1, 255, 259, 253, -1,
 255, 253, 251, -1, 251, 253, 249, -1, 251, 249, 243, -1,
 243, 249, 241, -1, 243, 241, 237, -1, 237, 241, 235, -1,
 237, 235, 232, -1, 232, 235, 225, -1, 232, 225, 221, -1,
 221, 225, 219, -1, 221, 219, 215, -1, 215, 219, 213, -1,
 215, 213, 207, -1, 207, 213, 205, -1, 207, 205, 203, -1,
 203, 205, 201, -1, 203, 201, 197, -1, 197, 201, 195, -1,
 197, 195, 192, -1, 192, 195, 188, -1, 192, 188, 196, -1,
 196, 188, 194, -1, 196, 194, 202, -1, 202, 194, 200, -1,
 202, 200, 206, -1, 206, 200, 204, -1, 206, 204, 214, -1,
 214, 204, 212, -1, 214, 212, 220, -1, 220, 212, 218, -1,
 220, 218, 231, -1, 231, 218, 223, -1, 114, 106, 142, -1,
 142, 106, 98, -1, 142, 98, 90, -1, 2, 37, 45, -1,
 91, 143, 83, -1, 83, 143, 33, -1, 83, 33, 75, -1,
 75, 33, 29, -1, 75, 29, 59, -1, 59, 29, 25, -1,
 59, 25, 21, -1, 112, 104, 142, -1, 38, 3, 46, -1,
 46, 3, 2, -1, 46, 2, 58, -1, 58, 2, 45, -1,
 58, 45, 74, -1, 91, 99, 143, -1, 143, 99, 107, -1,
 143, 107, 115, -1, 97, 105, 90, -1, 112, 142, 120, -1,
 104, 96, 142, -1, 142, 96, 88, -1, 142, 88, 32, -1,
 88, 80, 32, -1, 32, 80, 72, -1, 32, 72, 28, -1,
 28, 72, 56, -1, 4, 39, 5, -1, 5, 39, 47, -1,
 5, 47, 13, -1, 13, 47, 59, -1, 13, 59, 17, -1,
 17, 59, 21, -1, 115, 123, 143, -1, 143, 123, 129, -1,
 143, 129, 142, -1, 142, 129, 122, -1, 142, 122, 114, -1,
 45, 57, 74, -1, 74, 57, 73, -1, 74, 73, 82, -1,
 82, 73, 81, -1, 82, 81, 90, -1, 90, 81, 89, -1,
 90, 89, 97, -1, 16, 20, 56, -1, 56, 20, 24, -1,
 56, 24, 28, -1, 105, 113, 90, -1, 90, 113, 121, -1,
 90, 121, 142, -1, 142, 121, 128, -1, 142, 128, 120, -1,
 36, 1, 44, -1, 44, 1, 0, -1, 44, 0, 56, -1,
 56, 0, 12, -1, 56, 12, 16, -1, 49, 41, 8, -1,
 8, 9, 42, -1, 60, 26, 22, -1, 7, 40, 6, -1,
 6, 40, 48, -1, 6, 48, 14, -1, 14, 48, 60, -1,
 14, 60, 18, -1, 18, 60, 22, -1, 26, 60, 30, -1,
 30, 60, 76, -1, 30, 76, 34, -1, 34, 76, 84, -1,
 34, 84, 144, -1, 144, 84, 92, -1, 144, 92, 100, -1,
 94, 102, 144, -1, 144, 102, 110, -1, 144, 110, 118, -1,
 42, 50, 8, -1, 8, 50, 62, -1, 8, 62, 49, -1,
 49, 62, 78, -1, 49, 78, 61, -1, 61, 78, 77, -1,
 119, 111, 145, -1, 100, 108, 144, -1, 144, 108, 116, -1,
 144, 116, 124, -1, 118, 126, 144, -1, 144, 126, 131, -1,
 144, 131, 145, -1, 145, 131, 127, -1, 145, 127, 119, -1,
 109, 101, 94, -1, 94, 101, 93, -1, 94, 93, 85, -1,
 111, 103, 145, -1, 145, 103, 95, -1, 145, 95, 35, -1,
 124, 130, 144, -1, 144, 130, 125, -1, 144, 125, 94, -1,
 94, 125, 117, -1, 94, 117, 109, -1, 77, 78, 85, -1,
 85, 78, 86, -1, 85, 86, 94, -1, 19, 23, 63, -1,
 95, 87, 35, -1, 35, 87, 79, -1, 35, 79, 31, -1,
 31, 79, 63, -1, 31, 63, 27, -1, 27, 63, 23, -1,
 43, 10, 51, -1, 51, 10, 11, -1, 51, 11, 63, -1,
 63, 11, 15, -1, 63, 15, 19, -1, 11, 10, 5, -1,
 5, 10, 4, -1, 39, 43, 47, -1, 47, 43, 51, -1,
 47, 51, 59, -1, 59, 51, 63, -1, 59, 63, 75, -1,
 75, 63, 79, -1, 75, 79, 83, -1, 83, 79, 87, -1,
 83, 87, 91, -1, 91, 87, 95, -1, 91, 95, 99, -1,
 99, 95, 103, -1, 99, 103, 107, -1, 107, 103, 111, -1,
 107, 111, 115, -1, 115, 111, 119, -1, 115, 119, 123, -1,
 123, 119, 127, -1, 123, 127, 129, -1, 129, 127, 131, -1,
 129, 131, 122, -1, 122, 131, 126, -1, 122, 126, 114, -1,
 114, 126, 118, -1, 114, 118, 106, -1, 106, 118, 110, -1,
 106, 110, 98, -1, 98, 110, 102, -1, 98, 102, 90, -1,
 90, 102, 94, -1, 90, 94, 82, -1, 82, 94, 86, -1,
 82, 86, 74, -1, 74, 86, 78, -1, 74, 78, 58, -1,
 58, 78, 62, -1, 58, 62, 46, -1, 46, 62, 50, -1,
 46, 50, 38, -1, 38, 50, 42, -1, 43, 39, 10, -1,
 10, 39, 4, -1, 42, 9, 38, -1, 38, 9, 3, -1,
 37, 41, 45, -1, 45, 41, 49, -1, 45, 49, 57, -1,
 57, 49, 61, -1, 57, 61, 73, -1, 73, 61, 77, -1,
 73, 77, 81, -1, 81, 77, 85, -1, 81, 85, 89, -1,
 89, 85, 93, -1, 89, 93, 97, -1, 97, 93, 101, -1,
 97, 101, 105, -1, 105, 101, 109, -1, 105, 109, 113, -1,
 113, 109, 117, -1, 113, 117, 121, -1, 121, 117, 125, -1,
 121, 125, 128, -1, 128, 125, 130, -1, 128, 130, 120, -1,
 120, 130, 124, -1, 120, 124, 112, -1, 112, 124, 116, -1,
 112, 116, 104, -1, 104, 116, 108, -1, 104, 108, 96, -1,
 96, 108, 100, -1, 96, 100, 88, -1, 88, 100, 92, -1,
 88, 92, 80, -1, 80, 92, 84, -1, 80, 84, 72, -1,
 72, 84, 76, -1, 72, 76, 56, -1, 56, 76, 60, -1,
 56, 60, 44, -1, 44, 60, 48, -1, 44, 48, 36, -1,
 36, 48, 40, -1, 41, 37, 8, -1, 8, 37, 2, -1,
 40, 7, 36, -1, 36, 7, 1, -1, 71, 65, 139, -1,
 139, 65, 135, -1, 64, 68, 134, -1, 134, 68, 136, -1,
 65, 64, 135, -1, 135, 64, 134, -1, 11, 5, 13, -1,
 11, 13, 15, -1, 15, 13, 17, -1, 15, 17, 19, -1,
 19, 17, 21, -1, 19, 21, 23, -1, 23, 21, 25, -1,
 23, 25, 27, -1, 27, 25, 29, -1, 27, 29, 31, -1,
 31, 29, 33, -1, 31, 33, 35, -1, 0, 6, 14, -1,
 0, 14, 12, -1, 12, 14, 18, -1, 12, 18, 16, -1,
 16, 18, 22, -1, 16, 22, 20, -1, 20, 22, 26, -1,
 20, 26, 24, -1, 24, 26, 30, -1, 24, 30, 28, -1,
 28, 30, 34, -1, 28, 34, 32, -1, 417, 416, 423, -1,
 423, 416, 422, -1, 415, 421, 394, -1, 394, 421, 398, -1,
 394, 398, 374, -1, 374, 398, 378, -1, 374, 378, 366, -1,
 366, 378, 370, -1, 366, 370, 358, -1, 358, 370, 362, -1,
 358, 362, 350, -1, 350, 362, 354, -1, 350, 354, 342, -1,
 342, 354, 346, -1, 342, 346, 334, -1, 334, 346, 338, -1,
 334, 338, 326, -1, 326, 338, 330, -1, 326, 330, 318, -1,
 318, 330, 322, -1, 318, 322, 319, -1, 319, 322, 323, -1,
 319, 323, 327, -1, 327, 323, 331, -1, 327, 331, 335, -1,
 335, 331, 339, -1, 335, 339, 343, -1, 343, 339, 347, -1,
 343, 347, 351, -1, 351, 347, 355, -1, 351, 355, 359, -1,
 359, 355, 363, -1, 359, 363, 367, -1, 367, 363, 371, -1,
 367, 371, 375, -1, 375, 371, 379, -1, 375, 379, 395, -1,
 395, 379, 399, -1, 395, 399, 416, -1, 416, 399, 422, -1,
 413, 419, 392, -1, 392, 419, 396, -1, 392, 396, 372, -1,
 372, 396, 376, -1, 372, 376, 364, -1, 364, 376, 368, -1,
 364, 368, 356, -1, 356, 368, 360, -1, 356, 360, 348, -1,
 348, 360, 352, -1, 348, 352, 340, -1, 340, 352, 344, -1,
 340, 344, 332, -1, 332, 344, 336, -1, 332, 336, 324, -1,
 324, 336, 328, -1, 324, 328, 316, -1, 316, 328, 320, -1,
 316, 320, 317, -1, 317, 320, 321, -1, 317, 321, 325, -1,
 325, 321, 329, -1, 325, 329, 333, -1, 333, 329, 337, -1,
 333, 337, 341, -1, 341, 337, 345, -1, 341, 345, 349, -1,
 349, 345, 353, -1, 349, 353, 357, -1, 357, 353, 361, -1,
 357, 361, 365, -1, 365, 361, 369, -1, 365, 369, 373, -1,
 373, 369, 377, -1, 373, 377, 393, -1, 393, 377, 397, -1,
 393, 397, 414, -1, 414, 397, 420, -1, 67, 53, 66, -1,
 66, 53, 52, -1, 66, 52, 69, -1, 69, 52, 54, -1,
 69, 54, 137, -1, 137, 54, 140, -1, 138, 141, 70, -1,
 70, 141, 55, -1, 70, 55, 67, -1, 67, 55, 53, -1,
 54, 55, 140, -1, 140, 55, 141, -1, 53, 55, 52, -1,
 52, 55, 54, -1, 418, 412, 408, -1, 418, 408, 410, -1,
 410, 408, 404, -1, 410, 404, 406, -1, 406, 404, 400, -1,
 406, 400, 402, -1, 402, 400, 388, -1, 402, 388, 390, -1,
 390, 388, 384, -1, 390, 384, 386, -1, 386, 384, 380, -1,
 386, 380, 382, -1, 417, 423, 411, -1, 417, 411, 409, -1,
 409, 411, 407, -1, 409, 407, 405, -1, 405, 407, 403, -1,
 405, 403, 401, -1, 401, 403, 391, -1, 401, 391, 389, -1,
 389, 391, 387, -1, 389, 387, 385, -1, 385, 387, 383, -1,
 385, 383, 381, -1
]
normalIndex [
 0, 0, 0, -1, 0, 0, 0, -1, 0, 0, 0, -1,
 0, 0, 0, -1, 0, 0, 0, -1, 0, 0, 0, -1,
 0, 0, 0, -1, 0, 0, 0, -1, 0, 0, 0, -1,
 0, 0, 0, -1, 0, 0, 0, -1, 0, 0, 0, -1,
 49, 49, 49, -1, 49, 49, 49, -1, 49, 49, 49, -1,
 49, 49, 49, -1, 0, 0, 0, -1, 0, 0, 0, -1,
 0, 0, 0, -1, 0, 0, 0, -1, 0, 0, 0, -1,
 0, 0, 0, -1, 95, 95, 95, -1, 95, 95, 95, -1,
 95, 95, 95, -1, 95, 95, 95, -1, 46, 46, 46, -1,
 46, 46, 46, -1, 46, 46, 46, -1, 46, 46, 46, -1,
 46, 46, 46, -1, 46, 46, 46, -1, 46, 46, 46, -1,
 46, 46, 46, -1, 46, 46, 46, -1, 46, 46, 46, -1,
 46, 46, 46, -1, 46, 46, 46, -1, 46, 46, 46, -1,
 46, 46, 46, -1, 46, 46, 46, -1, 46, 46, 46, -1,
 46, 46, 46, -1, 46, 46, 46, -1, 46, 46, 46, -1,
 46, 46, 46, -1, 46, 46, 46, -1, 46, 46, 46, -1,
 46, 46, 46, -1, 46, 46, 46, -1, 46, 46, 46, -1,
 46, 46, 46, -1, 46, 46, 46, -1, 46, 46, 46, -1,
 46, 46, 46, -1, 46, 46, 46, -1, 46, 46, 46, -1,
 46, 46, 46, -1, 46, 46, 46, -1, 46, 46, 46, -1,
 46, 46, 46, -1, 46, 46, 46, -1, 46, 46, 46, -1,
 46, 46, 46, -1, 46, 46, 46, -1, 46, 46, 46, -1,
 46, 46, 46, -1, 46, 46, 46, -1, 46, 46, 46, -1,
 46, 46, 46, -1, 46, 46, 46, -1, 46, 46, 46, -1,
 46, 46, 46, -1, 46, 46, 46, -1, 46, 46, 46, -1,
 46, 46, 46, -1, 46, 46, 46, -1, 46, 46, 46, -1,
 46, 46, 46, -1, 46, 46, 46, -1, 49, 49, 49, -1,
 49, 49, 49, -1, 49, 49, 49, -1, 49, 49, 49, -1,
 49, 49, 49, -1, 49, 49, 49, -1, 49, 49, 49, -1,
 49, 49, 49, -1, 49, 49, 49, -1, 49, 49, 49, -1,
 49, 49, 49, -1, 49, 49, 49, -1, 49, 49, 49, -1,
 49, 49, 49, -1, 49, 49, 49, -1, 49, 49, 49, -1,
 49, 49, 49, -1, 49, 49, 49, -1, 49, 49, 49, -1,
 49, 49, 49, -1, 49, 49, 49, -1, 49, 49, 49, -1,
 49, 49, 49, -1, 49, 49, 49, -1, 49, 49, 49, -1,
 49, 49, 49, -1, 49, 49, 49, -1, 49, 49, 49, -1,
 49, 49, 49, -1, 49, 49, 49, -1, 49, 49, 49, -1,
 49, 49, 49, -1, 49, 49, 49, -1, 49, 49, 49, -1,
 49, 49, 49, -1, 49, 49, 49, -1, 49, 49, 49, -1,
 49, 49, 49, -1, 49, 49, 49, -1, 49, 49, 49, -1,
 49, 49, 49, -1, 49, 49, 49, -1, 49, 49, 49, -1,
 49, 49, 49, -1, 49, 49, 49, -1, 49, 49, 49, -1,
 49, 49, 49, -1, 49, 49, 49, -1, 49, 49, 49, -1,
 49, 49, 49, -1, 49, 49, 49, -1, 49, 49, 49, -1,
 49, 49, 49, -1, 49, 49, 49, -1, 95, 95, 95, -1,
 95, 95, 95, -1, 0, 0, 0, -1, 0, 0, 0, -1,
 0, 0, 0, -1, 0, 0, 0, -1, 0, 0, 0, -1,
 0, 0, 0, -1, 49, 49, 49, -1, 49, 49, 49, -1,
 49, 49, 49, -1, 49, 49, 49, -1, 49, 49, 49, -1,
 49, 49, 49, -1, 49, 49, 49, -1, 49, 49, 49, -1,
 49, 49, 49, -1, 49, 49, 49, -1, 49, 49, 49, -1,
 49, 49, 49, -1, 49, 49, 49, -1, 49, 49, 49, -1,
 49, 49, 49, -1, 49, 49, 49, -1, 49, 49, 49, -1,
 49, 49, 49, -1, 49, 49, 49, -1, 49, 49, 49, -1,
 49, 49, 49, -1, 49, 49, 49, -1, 49, 49, 49, -1,
 49, 49, 49, -1, 49, 49, 49, -1, 49, 49, 49, -1,
 49, 49, 49, -1, 49, 49, 49, -1, 49, 49, 49, -1,
 49, 49, 49, -1, 49, 49, 49, -1, 49, 49, 49, -1,
 49, 49, 49, -1, 49, 49, 49, -1, 49, 49, 49, -1,
 49, 49, 49, -1, 49, 49, 49, -1, 49, 49, 49, -1,
 49, 49, 49, -1, 49, 49, 49, -1, 49, 49, 49, -1,
 49, 49, 49, -1, 49, 49, 49, -1, 49, 49, 49, -1,
 49, 49, 49, -1, 49, 49, 49, -1, 49, 49, 49, -1,
 49, 49, 49, -1, 49, 49, 49, -1, 49, 49, 49, -1,
 49, 49, 49, -1, 49, 49, 49, -1, 49, 49, 49, -1,
 49, 49, 49, -1, 49, 49, 49, -1, 49, 49, 49, -1,
 48, 48, 48, -1, 48, 48, 48, -1, 48, 48, 48, -1,
 48, 48, 48, -1, 48, 48, 48, -1, 48, 48, 48, -1,
 48, 48, 48, -1, 48, 48, 48, -1, 48, 48, 48, -1,
 48, 48, 48, -1, 46, 46, 46, -1, 46, 46, 46, -1,
 47, 47, 47, -1, 47, 47, 47, -1, 47, 47, 47, -1,
 47, 47, 47, -1, 47, 47, 47, -1, 47, 47, 47, -1,
 47, 47, 47, -1, 47, 47, 47, -1, 47, 47, 47, -1,
 47, 47, 47, -1, 49, 49, 49, -1, 49, 49, 49, -1,
 49, 49, 49, -1, 49, 49, 49, -1, 49, 49, 49, -1,
 49, 49, 49, -1, 49, 49, 49, -1, 49, 49, 49, -1,
 49, 49, 49, -1, 49, 49, 49, -1, 49, 49, 49, -1,
 49, 49, 49, -1, 49, 49, 49, -1, 49, 49, 49, -1,
 49, 49, 49, -1, 49, 49, 49, -1, 49, 49, 49, -1,
 49, 49, 49, -1, 49, 49, 49, -1, 49, 49, 49, -1,
 49, 49, 49, -1, 49, 49, 49, -1, 49, 49, 49, -1,
 49, 49, 49, -1, 49, 49, 49, -1, 49, 49, 49, -1,
 49, 49, 49, -1, 49, 49, 49, -1, 49, 49, 49, -1,
 49, 49, 49, -1, 49, 49, 49, -1, 49, 49, 49, -1,
 49, 49, 49, -1, 49, 49, 49, -1, 49, 49, 49, -1,
 95, 95, 95, -1, 95, 95, 95, -1, 50, 48, 41, -1,
 48, 41, 41, -1, 41, 41, 35, -1, 41, 35, 35, -1,
 35, 35, 31, -1, 35, 31, 31, -1, 31, 31, 23, -1,
 31, 23, 23, -1, 23, 23, 15, -1, 23, 15, 15, -1,
 15, 15, 9, -1, 15, 9, 9, -1, 9, 9, 5, -1,
 9, 5, 5, -1, 5, 5, 1, -1, 5, 1, 1, -1,
 1, 1, 2, -1, 1, 2, 2, -1, 2, 2, 8, -1,
 2, 8, 8, -1, 8, 8, 14, -1, 8, 14, 14, -1,
 14, 14, 18, -1, 14, 18, 18, -1, 18, 18, 24, -1,
 18, 24, 24, -1, 24, 24, 32, -1, 24, 32, 32, -1,
 32, 32, 40, -1, 32, 40, 40, -1, 40, 40, 47, -1,
 40, 47, 47, -1, 47, 47, 55, -1, 47, 55, 55, -1,
 55, 55, 59, -1, 55, 59, 59, -1, 59, 59, 67, -1,
 59, 67, 67, -1, 67, 67, 75, -1, 67, 75, 75, -1,
 75, 75, 81, -1, 75, 81, 81, -1, 81, 81, 87, -1,
 81, 87, 87, -1, 87, 87, 91, -1, 87, 91, 91, -1,
 91, 91, 94, -1, 91, 94, 94, -1, 94, 94, 90, -1,
 94, 90, 90, -1, 90, 90, 84, -1, 90, 84, 84, -1,
 84, 84, 76, -1, 84, 76, 76, -1, 76, 76, 72, -1,
 76, 72, 72, -1, 72, 72, 64, -1, 72, 64, 64, -1,
 64, 64, 58, -1, 64, 58, 58, -1, 58, 58, 50, -1,
 58, 50, 50, -1, 50, 50, 41, -1, 49, 49, 49, -1,
 49, 49, 49, -1, 49, 49, 49, -1, 49, 49, 49, -1,
 49, 49, 49, -1, 49, 49, 49, -1, 49, 49, 49, -1,
 49, 49, 49, -1, 49, 49, 49, -1, 49, 49, 49, -1,
 49, 49, 49, -1, 49, 49, 49, -1, 49, 49, 49, -1,
 49, 49, 49, -1, 49, 49, 49, -1, 49, 49, 49, -1,
 49, 49, 49, -1, 49, 49, 49, -1, 49, 49, 49, -1,
 49, 49, 49, -1, 49, 49, 49, -1, 49, 49, 49, -1,
 49, 49, 49, -1, 49, 49, 49, -1, 49, 49, 49, -1,
 49, 49, 49, -1, 49, 49, 49, -1, 49, 49, 49, -1,
 49, 49, 49, -1, 49, 49, 49, -1, 49, 49, 49, -1,
 49, 49, 49, -1, 49, 49, 49, -1, 49, 49, 49, -1,
 49, 49, 49, -1, 49, 49, 49, -1, 49, 49, 49, -1,
 49, 49, 49, -1, 49, 49, 49, -1, 49, 49, 49, -1,
 49, 49, 49, -1, 49, 49, 49, -1, 49, 49, 49, -1,
 49, 49, 49, -1, 49, 49, 49, -1, 49, 49, 49, -1,
 49, 49, 49, -1, 49, 49, 49, -1, 47, 56, 56, -1,
 56, 56, 65, -1, 56, 65, 65, -1, 65, 65, 73, -1,
 65, 73, 73, -1, 73, 73, 82, -1, 73, 82, 82, -1,
 82, 82, 88, -1, 82, 88, 88, -1, 88, 88, 95, -1,
 88, 95, 95, -1, 95, 95, 89, -1, 95, 89, 89, -1,
 89, 89, 83, -1, 89, 83, 83, -1, 83, 83, 74, -1,
 83, 74, 74, -1, 74, 74, 66, -1, 74, 66, 66, -1,
 66, 66, 57, -1, 66, 57, 57, -1, 57, 57, 48, -1,
 57, 48, 48, -1, 48, 48, 39, -1, 48, 39, 39, -1,
 39, 39, 30, -1, 39, 30, 30, -1, 30, 30, 22, -1,
 30, 22, 22, -1, 22, 22, 13, -1, 22, 13, 13, -1,
 13, 13, 7, -1, 13, 7, 7, -1, 7, 7, 0, -1,
 7, 0, 0, -1, 0, 0, 6, -1, 0, 6, 6, -1,
 6, 6, 12, -1, 6, 12, 12, -1, 12, 12, 21, -1,
 12, 21, 21, -1, 21, 21, 29, -1, 21, 29, 29, -1,
 29, 29, 38, -1, 29, 38, 38, -1, 38, 38, 47, -1,
 38, 47, 47, -1, 47, 47, 56, -1, 49, 49, 49, -1,
 49, 49, 49, -1, 49, 49, 49, -1, 49, 49, 49, -1,
 49, 49, 49, -1, 49, 49, 49, -1, 49, 49, 49, -1,
 49, 49, 49, -1, 49, 49, 49, -1, 49, 49, 49, -1,
 49, 49, 49, -1, 49, 49, 49, -1, 49, 49, 49, -1,
 49, 49, 49, -1, 49, 49, 49, -1, 49, 49, 49, -1,
 49, 49, 49, -1, 49, 49, 49, -1, 49, 49, 49, -1,
 49, 49, 49, -1, 49, 49, 49, -1, 49, 49, 49, -1,
 49, 49, 49, -1, 49, 49, 49, -1, 48, 48, 39, -1,
 39, 48, 39, -1, 39, 39, 30, -1, 30, 39, 30, -1,
 30, 30, 22, -1, 22, 30, 22, -1, 22, 22, 13, -1,
 13, 22, 13, -1, 13, 13, 7, -1, 7, 13, 7, -1,
 7, 7, 0, -1, 0, 7, 0, -1, 0, 0, 6, -1,
 6, 0, 6, -1, 6, 6, 12, -1, 12, 6, 12, -1,
 12, 12, 21, -1, 21, 12, 21, -1, 21, 21, 29, -1,
 29, 21, 29, -1, 29, 29, 38, -1, 38, 29, 38, -1,
 38, 38, 47, -1, 47, 38, 47, -1, 47, 47, 56, -1,
 56, 47, 56, -1, 56, 56, 65, -1, 65, 56, 65, -1,
 65, 65, 73, -1, 73, 65, 73, -1, 73, 73, 82, -1,
 82, 73, 82, -1, 82, 82, 88, -1, 88, 82, 88, -1,
 88, 88, 95, -1, 95, 88, 95, -1, 95, 95, 89, -1,
 89, 95, 89, -1, 89, 89, 83, -1, 83, 89, 83, -1,
 83, 83, 74, -1, 74, 83, 74, -1, 74, 74, 66, -1,
 66, 74, 66, -1, 66, 66, 57, -1, 57, 66, 57, -1,
 57, 57, 48, -1, 48, 57, 48, -1, 46, 46, 46, -1,
 46, 46, 46, -1, 46, 46, 46, -1, 46, 46, 46, -1,
 46, 46, 46, -1, 46, 46, 46, -1, 46, 46, 46, -1,
 46, 46, 46, -1, 46, 46, 46, -1, 46, 46, 46, -1,
 46, 46, 46, -1, 46, 46, 46, -1, 46, 46, 46, -1,
 46, 46, 46, -1, 46, 46, 46, -1, 46, 46, 46, -1,
 46, 46, 46, -1, 46, 46, 46, -1, 46, 46, 46, -1,
 46, 46, 46, -1, 46, 46, 46, -1, 46, 46, 46, -1,
 46, 46, 46, -1, 46, 46, 46, -1, 46, 46, 46, -1,
 46, 46, 46, -1, 46, 46, 46, -1, 46, 46, 46, -1,
 46, 46, 46, -1, 46, 46, 46, -1, 46, 46, 46, -1,
 46, 46, 46, -1, 46, 46, 46, -1, 46, 46, 46, -1,
 46, 46, 46, -1, 46, 46, 46, -1, 46, 46, 46, -1,
 46, 46, 46, -1, 46, 46, 46, -1, 46, 46, 46, -1,
 46, 46, 46, -1, 46, 46, 46, -1, 46, 46, 46, -1,
 46, 46, 46, -1, 46, 46, 46, -1, 46, 46, 46, -1,
 46, 46, 46, -1, 46, 46, 46, -1, 46, 46, 46, -1,
 46, 46, 46, -1, 46, 46, 46, -1, 46, 46, 46, -1,
 46, 46, 46, -1, 46, 46, 46, -1, 46, 46, 46, -1,
 46, 46, 46, -1, 46, 46, 46, -1, 46, 46, 46, -1,
 46, 46, 46, -1, 46, 46, 46, -1, 49, 49, 49, -1,
 49, 49, 49, -1, 49, 49, 49, -1, 49, 49, 49, -1,
 49, 49, 49, -1, 49, 49, 49, -1, 49, 49, 49, -1,
 49, 49, 49, -1, 49, 49, 49, -1, 49, 49, 49, -1,
 49, 49, 49, -1, 49, 49, 49, -1, 49, 49, 49, -1,
 49, 49, 49, -1, 49, 49, 49, -1, 49, 49, 49, -1,
 49, 49, 49, -1, 49, 49, 49, -1, 49, 49, 49, -1,
 49, 49, 49, -1, 49, 49, 49, -1, 49, 49, 49, -1,
 49, 49, 49, -1, 49, 49, 49, -1, 49, 49, 49, -1,
 49, 49, 49, -1, 49, 49, 49, -1, 49, 49, 49, -1,
 49, 49, 49, -1, 49, 49, 49, -1, 49, 49, 49, -1,
 49, 49, 49, -1, 49, 49, 49, -1, 49, 49, 49, -1,
 49, 49, 49, -1, 49, 49, 49, -1, 49, 49, 49, -1,
 49, 49, 49, -1, 49, 49, 49, -1, 49, 49, 49, -1,
 49, 49, 49, -1, 49, 49, 49, -1, 49, 49, 49, -1,
 49, 49, 49, -1, 49, 49, 49, -1, 49, 49, 49, -1,
 49, 49, 49, -1, 49, 49, 49, -1, 49, 49, 49, -1,
 49, 49, 49, -1, 49, 49, 49, -1, 49, 49, 49, -1,
 49, 49, 49, -1, 49, 49, 49, -1, 49, 49, 49, -1,
 49, 49, 49, -1, 49, 49, 49, -1, 49, 49, 49, -1,
 49, 49, 49, -1, 49, 49, 49, -1, 0, 0, 0, -1,
 0, 0, 0, -1, 79, 79, 70, -1, 70, 79, 70, -1,
 70, 70, 62, -1, 62, 70, 62, -1, 62, 62, 51, -1,
 51, 62, 51, -1, 51, 51, 42, -1, 42, 51, 42, -1,
 42, 42, 33, -1, 33, 42, 33, -1, 33, 33, 25, -1,
 25, 33, 25, -1, 25, 25, 16, -1, 16, 25, 16, -1,
 16, 16, 10, -1, 10, 16, 10, -1, 10, 10, 3, -1,
 3, 10, 3, -1, 3, 3, 0, -1, 0, 3, 0, -1,
 0, 0, 4, -1, 4, 0, 4, -1, 4, 4, 11, -1,
 11, 4, 11, -1, 11, 11, 17, -1, 17, 11, 17, -1,
 17, 17, 26, -1, 26, 17, 26, -1, 26, 26, 34, -1,
 34, 26, 34, -1, 34, 34, 43, -1, 43, 34, 43, -1,
 43, 43, 52, -1, 52, 43, 52, -1, 52, 52, 63, -1,
 63, 52, 63, -1, 63, 63, 71, -1, 71, 63, 71, -1,
 71, 71, 80, -1, 80, 71, 80, -1, 47, 47, 47, -1,
 47, 47, 47, -1, 48, 48, 48, -1, 48, 48, 48, -1,
 79, 79, 70, -1, 70, 79, 70, -1, 70, 70, 62, -1,
 62, 70, 62, -1, 62, 62, 51, -1, 51, 62, 51, -1,
 51, 51, 42, -1, 42, 51, 42, -1, 42, 42, 33, -1,
 33, 42, 33, -1, 33, 33, 25, -1, 25, 33, 25, -1,
 25, 25, 16, -1, 16, 25, 16, -1, 16, 16, 10, -1,
 10, 16, 10, -1, 10, 10, 3, -1, 3, 10, 3, -1,
 3, 3, 0, -1, 0, 3, 0, -1, 0, 0, 4, -1,
 4, 0, 4, -1, 4, 4, 11, -1, 11, 4, 11, -1,
 11, 11, 17, -1, 17, 11, 17, -1, 17, 17, 26, -1,
 26, 17, 26, -1, 26, 26, 34, -1, 34, 26, 34, -1,
 34, 34, 43, -1, 43, 34, 43, -1, 43, 43, 52, -1,
 52, 43, 52, -1, 52, 52, 63, -1, 63, 52, 63, -1,
 63, 63, 71, -1, 71, 63, 71, -1, 71, 71, 80, -1,
 80, 71, 80, -1, 47, 47, 47, -1, 47, 47, 47, -1,
 48, 48, 48, -1, 48, 48, 48, -1, 48, 48, 48, -1,
 48, 48, 48, -1, 47, 47, 47, -1, 47, 47, 47, -1,
 46, 46, 46, -1, 46, 46, 46, -1, 0, 0, 7, -1,
 0, 7, 7, -1, 7, 7, 13, -1, 7, 13, 13, -1,
 13, 13, 22, -1, 13, 22, 22, -1, 22, 22, 30, -1,
 22, 30, 30, -1, 30, 30, 39, -1, 30, 39, 39, -1,
 39, 39, 48, -1, 39, 48, 48, -1, 0, 0, 6, -1,
 0, 6, 6, -1, 6, 6, 12, -1, 6, 12, 12, -1,
 12, 12, 21, -1, 12, 21, 21, -1, 21, 21, 29, -1,
 21, 29, 29, -1, 29, 29, 38, -1, 29, 38, 38, -1,
 38, 38, 47, -1, 38, 47, 47, -1, 95, 95, 95, -1,
 95, 95, 95, -1, 20, 20, 28, -1, 28, 20, 28, -1,
 28, 28, 37, -1, 37, 28, 37, -1, 37, 37, 45, -1,
 45, 37, 45, -1, 45, 45, 54, -1, 54, 45, 54, -1,
 54, 54, 61, -1, 61, 54, 61, -1, 61, 61, 69, -1,
 69, 61, 69, -1, 69, 69, 78, -1, 78, 69, 78, -1,
 78, 78, 86, -1, 86, 78, 86, -1, 86, 86, 93, -1,
 93, 86, 93, -1, 93, 93, 92, -1, 92, 93, 92, -1,
 92, 92, 85, -1, 85, 92, 85, -1, 85, 85, 77, -1,
 77, 85, 77, -1, 77, 77, 68, -1, 68, 77, 68, -1,
 68, 68, 60, -1, 60, 68, 60, -1, 60, 60, 53, -1,
 53, 60, 53, -1, 53, 53, 44, -1, 44, 53, 44, -1,
 44, 44, 36, -1, 36, 44, 36, -1, 36, 36, 27, -1,
 27, 36, 27, -1, 27, 27, 19, -1, 19, 27, 19, -1,
 20, 20, 28, -1, 28, 20, 28, -1, 28, 28, 37, -1,
 37, 28, 37, -1, 37, 37, 45, -1, 45, 37, 45, -1,
 45, 45, 54, -1, 54, 45, 54, -1, 54, 54, 61, -1,
 61, 54, 61, -1, 61, 61, 69, -1, 69, 61, 69, -1,
 69, 69, 78, -1, 78, 69, 78, -1, 78, 78, 86, -1,
 86, 78, 86, -1, 86, 86, 93, -1, 93, 86, 93, -1,
 93, 93, 92, -1, 92, 93, 92, -1, 92, 92, 85, -1,
 85, 92, 85, -1, 85, 85, 77, -1, 77, 85, 77, -1,
 77, 77, 68, -1, 68, 77, 68, -1, 68, 68, 60, -1,
 60, 68, 60, -1, 60, 60, 53, -1, 53, 60, 53, -1,
 53, 53, 44, -1, 44, 53, 44, -1, 44, 44, 36, -1,
 36, 44, 36, -1, 36, 36, 27, -1, 27, 36, 27, -1,
 27, 27, 19, -1, 19, 27, 19, -1, 46, 46, 46, -1,
 46, 46, 46, -1, 47, 47, 47, -1, 47, 47, 47, -1,
 47, 47, 47, -1, 47, 47, 47, -1, 48, 48, 48, -1,
 48, 48, 48, -1, 48, 48, 48, -1, 48, 48, 48, -1,
 49, 49, 49, -1, 49, 49, 49, -1, 0, 0, 0, -1,
 0, 0, 0, -1, 95, 95, 88, -1, 95, 88, 88, -1,
 88, 88, 82, -1, 88, 82, 82, -1, 82, 82, 73, -1,
 82, 73, 73, -1, 73, 73, 65, -1, 73, 65, 65, -1,
 65, 65, 56, -1, 65, 56, 56, -1, 56, 56, 47, -1,
 56, 47, 47, -1, 95, 95, 89, -1, 95, 89, 89, -1,
 89, 89, 83, -1, 89, 83, 83, -1, 83, 83, 74, -1,
 83, 74, 74, -1, 74, 74, 66, -1, 74, 66, 66, -1,
 66, 66, 57, -1, 66, 57, 57, -1, 57, 57, 48, -1,
 57, 48, 48, -1
]
colorPerVertex FALSE
normalPerVertex TRUE
}
}
]
}
