#VRML V2.0 utf8
Transform {
children [
Shape {
appearance Appearance {
material Material {
ambientIntensity 1.000000
diffuseColor 1.000000 1.000000 1.000000
emissiveColor 0.210000 0.210000 0.210000
specularColor 0.880000 0.880000 0.880000
shininess 0.210000
transparency 0.000000
}
}
geometry IndexedFaceSet {
color Color {
color [
 1.000000 1.000000 1.000000
]
}
coord Coordinate {
point [
 0.000000 0.000000 0.000000, 0.000000 0.000000 0.006300, 0.000000 0.002000 0.000000, 0.000000 0.002000 0.006300, 0.001500 0.000000 0.003150,
 0.001500 0.002000 0.003150, 0.001556 0.000000 0.002723, 0.001556 0.000000 0.003577, 0.001556 0.002000 0.002723, 0.001556 0.002000 0.003577,
 0.001721 0.000000 0.002325, 0.001721 0.000000 0.003975, 0.001721 0.002000 0.002325, 0.001721 0.002000 0.003975, 0.001983 0.000000 0.001983,
 0.001983 0.000000 0.004317, 0.001983 0.002000 0.001983, 0.001983 0.002000 0.004317, 0.002325 0.000000 0.001721, 0.002325 0.000000 0.004579,
 0.002325 0.002000 0.001721, 0.002325 0.002000 0.004579, 0.002723 0.000000 0.001556, 0.002723 0.000000 0.004744, 0.002723 0.002000 0.001556,
 0.002723 0.002000 0.004744, 0.003150 0.000000 0.001500, 0.003150 0.000000 0.004800, 0.003150 0.002000 0.001500, 0.003150 0.002000 0.004800,
 0.003666 -0.012000 -0.004900, 0.003666 -0.012000 -0.003900, 0.003666 0.002700 -0.004900, 0.003666 0.002700 -0.003900, 0.004966 -0.008700 -0.010800,
 0.004966 -0.008700 -0.004900, 0.004966 -0.000600 -0.010800, 0.004966 -0.000600 -0.004900, 0.005950 0.000000 0.001500, 0.005950 0.000000 0.004800,
 0.005950 0.002000 0.001500, 0.005950 0.002000 0.004800, 0.006377 0.000000 0.001556, 0.006377 0.000000 0.004744, 0.006377 0.002000 0.001556,
 0.006377 0.002000 0.004744, 0.006775 0.000000 0.001721, 0.006775 0.000000 0.004579, 0.006775 0.002000 0.001721, 0.006775 0.002000 0.004579,
 0.007117 0.000000 0.001983, 0.007117 0.000000 0.004317, 0.007117 0.002000 0.001983, 0.007117 0.002000 0.004317, 0.007379 0.000000 0.002325,
 0.007379 0.000000 0.003975, 0.007379 0.002000 0.002325, 0.007379 0.002000 0.003975, 0.007544 0.000000 0.002723, 0.007544 0.000000 0.003577,
 0.007544 0.002000 0.002723, 0.007544 0.002000 0.003577, 0.007600 0.000000 0.003150, 0.007600 0.002000 0.003150, 0.008666 -0.011000 -0.003900,
 0.008666 -0.011000 0.006700, 0.008666 -0.006200 -0.001300, 0.008666 -0.006200 0.006700, 0.008666 -0.002600 -0.001300, 0.008666 -0.002600 0.006700,
 0.008666 0.000000 0.000000, 0.008666 0.000000 0.006300, 0.008666 0.002000 -0.003900, 0.008666 0.002000 0.000000, 0.008666 0.002000 0.006300,
 0.008666 0.002000 0.006700, 0.009166 -0.010500 0.006400, 0.009166 -0.010500 0.006700, 0.009166 -0.006700 0.006400, 0.009166 -0.006700 0.006700,
 0.009166 -0.002100 0.006400, 0.009166 -0.002100 0.006700, 0.009166 0.001500 0.006400, 0.009166 0.001500 0.006700, 0.009466 -0.008700 -0.010800,
 0.009466 -0.008700 -0.004900, 0.009466 -0.000600 -0.010800, 0.009466 -0.000600 -0.004900, 0.014466 -0.010500 0.006400, 0.014466 -0.010500 0.006700,
 0.014466 -0.006700 0.006400, 0.014466 -0.006700 0.006700, 0.014466 -0.002100 0.006400, 0.014466 -0.002100 0.006700, 0.014466 0.001500 0.006400,
 0.014466 0.001500 0.006700, 0.014966 -0.011000 -0.003900, 0.014966 -0.011000 0.006700, 0.014966 -0.006200 -0.001300, 0.014966 -0.006200 0.006700,
 0.014966 -0.002600 -0.001300, 0.014966 -0.002600 0.006700, 0.014966 0.000000 0.000000, 0.014966 0.000000 0.006300, 0.014966 0.002000 -0.003900,
 0.014966 0.002000 0.000000, 0.014966 0.002000 0.006300, 0.014966 0.002000 0.006700, 0.015166 -0.012000 -0.004900, 0.015166 -0.012000 -0.003900,
 0.015166 0.002700 -0.004900, 0.015166 0.002700 -0.003900, 0.016000 0.000000 0.003150, 0.016000 0.002000 0.003150, 0.016056 0.000000 0.002723,
 0.016056 0.000000 0.003577, 0.016056 0.002000 0.002723, 0.016056 0.002000 0.003577, 0.016221 0.000000 0.002325, 0.016221 0.000000 0.003975,
 0.016221 0.002000 0.002325, 0.016221 0.002000 0.003975, 0.016483 0.000000 0.001983, 0.016483 0.000000 0.004317, 0.016483 0.002000 0.001983,
 0.016483 0.002000 0.004317, 0.016825 0.000000 0.001721, 0.016825 0.000000 0.004579, 0.016825 0.002000 0.001721, 0.016825 0.002000 0.004579,
 0.017223 0.000000 0.001556, 0.017223 0.000000 0.004744, 0.017223 0.002000 0.001556, 0.017223 0.002000 0.004744, 0.017650 0.000000 0.001500,
 0.017650 0.000000 0.004800, 0.017650 0.002000 0.001500, 0.017650 0.002000 0.004800, 0.020450 0.000000 0.001500, 0.020450 0.000000 0.004800,
 0.020450 0.002000 0.001500, 0.020450 0.002000 0.004800, 0.020877 0.000000 0.001556, 0.020877 0.000000 0.004744, 0.020877 0.002000 0.001556,
 0.020877 0.002000 0.004744, 0.021275 0.000000 0.001721, 0.021275 0.000000 0.004579, 0.021275 0.002000 0.001721, 0.021275 0.002000 0.004579,
 0.021617 0.000000 0.001983, 0.021617 0.000000 0.004317, 0.021617 0.002000 0.001983, 0.021617 0.002000 0.004317, 0.021879 0.000000 0.002325,
 0.021879 0.000000 0.003975, 0.021879 0.002000 0.002325, 0.021879 0.002000 0.003975, 0.022044 0.000000 0.002723, 0.022044 0.000000 0.003577,
 0.022044 0.002000 0.002723, 0.022044 0.002000 0.003577, 0.022100 0.000000 0.003150, 0.022100 0.002000 0.003150, 0.023600 0.000000 0.000000,
 0.023600 0.000000 0.006300, 0.023600 0.002000 0.000000, 0.023600 0.002000 0.006300
]
}
normal Normal {
vector [
 -1.000000 0.000000 0.000000, -0.965926 0.000000 -0.258819, -0.965926 0.000000 0.258819, -0.866025 0.000000 -0.500000, -0.866025 0.000000 0.500000,
 -0.707107 0.000000 -0.707107, -0.707107 0.000000 0.707107, -0.500000 0.000000 -0.866025, -0.500000 0.000000 0.866025, -0.258819 0.000000 -0.965926,
 -0.258819 0.000000 0.965926, 0.000000 -1.000000 0.000000, 0.000000 0.000000 -1.000000, 0.000000 0.000000 1.000000, 0.000000 1.000000 0.000000,
 0.258819 0.000000 -0.965926, 0.258819 0.000000 0.965926, 0.500000 0.000000 -0.866025, 0.500000 0.000000 0.866025, 0.707107 0.000000 -0.707107,
 0.707107 0.000000 0.707107, 0.866025 0.000000 -0.500000, 0.866025 0.000000 0.500000, 0.965926 0.000000 -0.258819, 0.965926 0.000000 0.258819,
 1.000000 0.000000 0.000000
]
}
coordIndex [
 70, 73, 72, -1, 68, 69, 71, -1, 71, 69, 75, -1,
 71, 75, 74, -1, 71, 70, 68, -1, 68, 70, 72, -1,
 68, 72, 66, -1, 66, 72, 64, -1, 66, 64, 67, -1,
 67, 64, 65, -1, 99, 97, 98, -1, 98, 97, 96, -1,
 98, 96, 100, -1, 100, 96, 104, -1, 106, 107, 103, -1,
 103, 107, 101, -1, 103, 101, 102, -1, 102, 101, 100, -1,
 102, 100, 105, -1, 105, 100, 104, -1, 81, 69, 93, -1,
 93, 69, 101, -1, 93, 101, 95, -1, 95, 101, 107, -1,
 95, 107, 83, -1, 83, 107, 75, -1, 83, 75, 81, -1,
 81, 75, 69, -1, 54, 50, 70, -1, 70, 50, 46, -1,
 43, 47, 71, -1, 71, 47, 51, -1, 71, 51, 55, -1,
 46, 42, 70, -1, 70, 42, 38, -1, 70, 38, 0, -1,
 0, 38, 26, -1, 0, 26, 22, -1, 22, 18, 0, -1,
 0, 18, 14, -1, 0, 14, 10, -1, 19, 1, 15, -1,
 15, 1, 11, -1, 55, 59, 71, -1, 71, 59, 62, -1,
 71, 62, 70, -1, 70, 62, 58, -1, 70, 58, 54, -1,
 10, 6, 0, -1, 0, 6, 4, -1, 0, 4, 1, -1,
 1, 4, 7, -1, 1, 7, 11, -1, 19, 23, 1, -1,
 1, 23, 27, -1, 1, 27, 71, -1, 71, 27, 39, -1,
 71, 39, 43, -1, 74, 3, 71, -1, 71, 3, 1, -1,
 70, 0, 73, -1, 73, 0, 2, -1, 75, 107, 74, -1,
 74, 107, 106, -1, 104, 72, 105, -1, 105, 72, 73, -1,
 74, 53, 49, -1, 157, 153, 167, -1, 167, 153, 149, -1,
 12, 16, 2, -1, 2, 16, 20, -1, 149, 145, 167, -1,
 167, 145, 141, -1, 167, 141, 106, -1, 106, 141, 137, -1,
 106, 137, 133, -1, 49, 45, 74, -1, 74, 45, 41, -1,
 74, 41, 3, -1, 3, 41, 29, -1, 3, 29, 25, -1,
 25, 21, 3, -1, 3, 21, 17, -1, 3, 17, 13, -1,
 133, 129, 106, -1, 106, 129, 125, -1, 106, 125, 74, -1,
 74, 125, 121, -1, 74, 121, 117, -1, 13, 9, 3, -1,
 3, 9, 5, -1, 3, 5, 2, -1, 2, 5, 8, -1,
 2, 8, 12, -1, 105, 124, 128, -1, 144, 148, 166, -1,
 166, 148, 152, -1, 166, 152, 156, -1, 44, 48, 73, -1,
 73, 48, 52, -1, 73, 52, 105, -1, 105, 52, 56, -1,
 105, 56, 60, -1, 117, 113, 74, -1, 74, 113, 116, -1,
 74, 116, 105, -1, 105, 116, 120, -1, 105, 120, 124, -1,
 156, 160, 166, -1, 166, 160, 163, -1, 166, 163, 167, -1,
 167, 163, 161, -1, 167, 161, 157, -1, 60, 63, 105, -1,
 105, 63, 61, -1, 105, 61, 74, -1, 74, 61, 57, -1,
 74, 57, 53, -1, 128, 132, 105, -1, 105, 132, 136, -1,
 105, 136, 166, -1, 166, 136, 140, -1, 166, 140, 144, -1,
 20, 24, 2, -1, 2, 24, 28, -1, 2, 28, 73, -1,
 73, 28, 40, -1, 73, 40, 44, -1, 102, 112, 103, -1,
 103, 112, 115, -1, 154, 150, 164, -1, 164, 150, 146, -1,
 146, 142, 164, -1, 164, 142, 138, -1, 164, 138, 102, -1,
 102, 138, 134, -1, 134, 130, 102, -1, 102, 130, 126, -1,
 102, 126, 122, -1, 122, 118, 102, -1, 102, 118, 114, -1,
 102, 114, 112, -1, 143, 147, 165, -1, 165, 147, 151, -1,
 165, 151, 155, -1, 155, 159, 165, -1, 165, 159, 162, -1,
 165, 162, 164, -1, 164, 162, 158, -1, 164, 158, 154, -1,
 115, 119, 103, -1, 103, 119, 123, -1, 103, 123, 127, -1,
 127, 131, 103, -1, 103, 131, 135, -1, 103, 135, 165, -1,
 165, 135, 139, -1, 165, 139, 143, -1, 3, 2, 1, -1,
 1, 2, 0, -1, 103, 165, 106, -1, 106, 165, 167, -1,
 166, 167, 164, -1, 164, 167, 165, -1, 105, 166, 102, -1,
 102, 166, 164, -1, 29, 27, 25, -1, 25, 27, 23, -1,
 25, 23, 21, -1, 21, 23, 19, -1, 21, 19, 17, -1,
 17, 19, 15, -1, 17, 15, 13, -1, 13, 15, 11, -1,
 13, 11, 9, -1, 9, 11, 7, -1, 9, 7, 5, -1,
 5, 7, 4, -1, 5, 4, 8, -1, 8, 4, 6, -1,
 8, 6, 12, -1, 12, 6, 10, -1, 12, 10, 16, -1,
 16, 10, 14, -1, 16, 14, 20, -1, 20, 14, 18, -1,
 20, 18, 24, -1, 24, 18, 22, -1, 24, 22, 28, -1,
 28, 22, 26, -1, 29, 41, 27, -1, 27, 41, 39, -1,
 40, 38, 44, -1, 44, 38, 42, -1, 44, 42, 48, -1,
 48, 42, 46, -1, 48, 46, 52, -1, 52, 46, 50, -1,
 52, 50, 56, -1, 56, 50, 54, -1, 56, 54, 60, -1,
 60, 54, 58, -1, 60, 58, 63, -1, 63, 58, 62, -1,
 63, 62, 61, -1, 61, 62, 59, -1, 61, 59, 57, -1,
 57, 59, 55, -1, 57, 55, 53, -1, 53, 55, 51, -1,
 53, 51, 49, -1, 49, 51, 47, -1, 49, 47, 45, -1,
 45, 47, 43, -1, 45, 43, 41, -1, 41, 43, 39, -1,
 40, 28, 38, -1, 38, 28, 26, -1, 137, 135, 133, -1,
 133, 135, 131, -1, 133, 131, 129, -1, 129, 131, 127, -1,
 129, 127, 125, -1, 125, 127, 123, -1, 125, 123, 121, -1,
 121, 123, 119, -1, 121, 119, 117, -1, 117, 119, 115, -1,
 117, 115, 113, -1, 113, 115, 112, -1, 113, 112, 116, -1,
 116, 112, 114, -1, 116, 114, 120, -1, 120, 114, 118, -1,
 120, 118, 124, -1, 124, 118, 122, -1, 124, 122, 128, -1,
 128, 122, 126, -1, 128, 126, 132, -1, 132, 126, 130, -1,
 132, 130, 136, -1, 136, 130, 134, -1, 137, 141, 135, -1,
 135, 141, 139, -1, 140, 138, 144, -1, 144, 138, 142, -1,
 144, 142, 148, -1, 148, 142, 146, -1, 148, 146, 152, -1,
 152, 146, 150, -1, 152, 150, 156, -1, 156, 150, 154, -1,
 156, 154, 160, -1, 160, 154, 158, -1, 160, 158, 163, -1,
 163, 158, 162, -1, 163, 162, 161, -1, 161, 162, 159, -1,
 161, 159, 157, -1, 157, 159, 155, -1, 157, 155, 153, -1,
 153, 155, 151, -1, 153, 151, 149, -1, 149, 151, 147, -1,
 149, 147, 145, -1, 145, 147, 143, -1, 145, 143, 141, -1,
 141, 143, 139, -1, 140, 136, 138, -1, 138, 136, 134, -1,
 77, 65, 89, -1, 89, 65, 97, -1, 89, 97, 91, -1,
 91, 97, 99, -1, 91, 99, 79, -1, 79, 99, 67, -1,
 79, 67, 77, -1, 77, 67, 65, -1, 96, 97, 64, -1,
 64, 97, 65, -1, 68, 100, 69, -1, 69, 100, 101, -1,
 98, 66, 99, -1, 99, 66, 67, -1, 98, 100, 66, -1,
 66, 100, 68, -1, 80, 82, 81, -1, 81, 82, 83, -1,
 82, 94, 83, -1, 83, 94, 95, -1, 94, 92, 95, -1,
 95, 92, 93, -1, 92, 80, 93, -1, 93, 80, 81, -1,
 92, 94, 80, -1, 80, 94, 82, -1, 76, 78, 77, -1,
 77, 78, 79, -1, 78, 90, 79, -1, 79, 90, 91, -1,
 90, 88, 91, -1, 91, 88, 89, -1, 88, 76, 89, -1,
 89, 76, 77, -1, 88, 90, 76, -1, 76, 90, 78, -1,
 108, 110, 109, -1, 109, 110, 111, -1, 30, 108, 31, -1,
 31, 108, 109, -1, 32, 30, 33, -1, 33, 30, 31, -1,
 110, 32, 111, -1, 111, 32, 33, -1, 85, 108, 35, -1,
 35, 108, 30, -1, 35, 30, 37, -1, 37, 30, 32, -1,
 37, 32, 87, -1, 87, 32, 110, -1, 87, 110, 85, -1,
 85, 110, 108, -1, 64, 109, 96, -1, 96, 109, 111, -1,
 96, 111, 104, -1, 104, 111, 72, -1, 72, 111, 33, -1,
 72, 33, 64, -1, 64, 33, 31, -1, 64, 31, 109, -1,
 84, 86, 85, -1, 85, 86, 87, -1, 34, 84, 35, -1,
 35, 84, 85, -1, 36, 34, 37, -1, 37, 34, 35, -1,
 86, 36, 87, -1, 87, 36, 37, -1, 34, 36, 84, -1,
 84, 36, 86, -1
]
normalIndex [
 0, 0, 0, -1, 0, 0, 0, -1, 0, 0, 0, -1,
 0, 0, 0, -1, 0, 0, 0, -1, 0, 0, 0, -1,
 0, 0, 0, -1, 0, 0, 0, -1, 0, 0, 0, -1,
 0, 0, 0, -1, 25, 25, 25, -1, 25, 25, 25, -1,
 25, 25, 25, -1, 25, 25, 25, -1, 25, 25, 25, -1,
 25, 25, 25, -1, 25, 25, 25, -1, 25, 25, 25, -1,
 25, 25, 25, -1, 25, 25, 25, -1, 13, 13, 13, -1,
 13, 13, 13, -1, 13, 13, 13, -1, 13, 13, 13, -1,
 13, 13, 13, -1, 13, 13, 13, -1, 13, 13, 13, -1,
 13, 13, 13, -1, 11, 11, 11, -1, 11, 11, 11, -1,
 11, 11, 11, -1, 11, 11, 11, -1, 11, 11, 11, -1,
 11, 11, 11, -1, 11, 11, 11, -1, 11, 11, 11, -1,
 11, 11, 11, -1, 11, 11, 11, -1, 11, 11, 11, -1,
 11, 11, 11, -1, 11, 11, 11, -1, 11, 11, 11, -1,
 11, 11, 11, -1, 11, 11, 11, -1, 11, 11, 11, -1,
 11, 11, 11, -1, 11, 11, 11, -1, 11, 11, 11, -1,
 11, 11, 11, -1, 11, 11, 11, -1, 11, 11, 11, -1,
 11, 11, 11, -1, 11, 11, 11, -1, 11, 11, 11, -1,
 11, 11, 11, -1, 11, 11, 11, -1, 11, 11, 11, -1,
 11, 11, 11, -1, 13, 13, 13, -1, 13, 13, 13, -1,
 12, 12, 12, -1, 12, 12, 12, -1, 14, 14, 14, -1,
 14, 14, 14, -1, 14, 14, 14, -1, 14, 14, 14, -1,
 14, 14, 14, -1, 14, 14, 14, -1, 14, 14, 14, -1,
 14, 14, 14, -1, 14, 14, 14, -1, 14, 14, 14, -1,
 14, 14, 14, -1, 14, 14, 14, -1, 14, 14, 14, -1,
 14, 14, 14, -1, 14, 14, 14, -1, 14, 14, 14, -1,
 14, 14, 14, -1, 14, 14, 14, -1, 14, 14, 14, -1,
 14, 14, 14, -1, 14, 14, 14, -1, 14, 14, 14, -1,
 14, 14, 14, -1, 14, 14, 14, -1, 14, 14, 14, -1,
 14, 14, 14, -1, 14, 14, 14, -1, 14, 14, 14, -1,
 14, 14, 14, -1, 14, 14, 14, -1, 14, 14, 14, -1,
 14, 14, 14, -1, 14, 14, 14, -1, 14, 14, 14, -1,
 14, 14, 14, -1, 14, 14, 14, -1, 14, 14, 14, -1,
 14, 14, 14, -1, 14, 14, 14, -1, 14, 14, 14, -1,
 14, 14, 14, -1, 14, 14, 14, -1, 14, 14, 14, -1,
 14, 14, 14, -1, 14, 14, 14, -1, 14, 14, 14, -1,
 14, 14, 14, -1, 14, 14, 14, -1, 14, 14, 14, -1,
 14, 14, 14, -1, 14, 14, 14, -1, 14, 14, 14, -1,
 14, 14, 14, -1, 14, 14, 14, -1, 14, 14, 14, -1,
 14, 14, 14, -1, 14, 14, 14, -1, 14, 14, 14, -1,
 14, 14, 14, -1, 14, 14, 14, -1, 14, 14, 14, -1,
 14, 14, 14, -1, 14, 14, 14, -1, 14, 14, 14, -1,
 14, 14, 14, -1, 14, 14, 14, -1, 11, 11, 11, -1,
 11, 11, 11, -1, 11, 11, 11, -1, 11, 11, 11, -1,
 11, 11, 11, -1, 11, 11, 11, -1, 11, 11, 11, -1,
 11, 11, 11, -1, 11, 11, 11, -1, 11, 11, 11, -1,
 11, 11, 11, -1, 11, 11, 11, -1, 11, 11, 11, -1,
 11, 11, 11, -1, 11, 11, 11, -1, 11, 11, 11, -1,
 11, 11, 11, -1, 11, 11, 11, -1, 11, 11, 11, -1,
 11, 11, 11, -1, 11, 11, 11, -1, 11, 11, 11, -1,
 11, 11, 11, -1, 11, 11, 11, -1, 11, 11, 11, -1,
 11, 11, 11, -1, 11, 11, 11, -1, 11, 11, 11, -1,
 11, 11, 11, -1, 11, 11, 11, -1, 0, 0, 0, -1,
 0, 0, 0, -1, 13, 13, 13, -1, 13, 13, 13, -1,
 25, 25, 25, -1, 25, 25, 25, -1, 12, 12, 12, -1,
 12, 12, 12, -1, 12, 12, 15, -1, 15, 12, 15, -1,
 15, 15, 17, -1, 17, 15, 17, -1, 17, 17, 19, -1,
 19, 17, 19, -1, 19, 19, 21, -1, 21, 19, 21, -1,
 21, 21, 23, -1, 23, 21, 23, -1, 23, 23, 25, -1,
 25, 23, 25, -1, 25, 25, 24, -1, 24, 25, 24, -1,
 24, 24, 22, -1, 22, 24, 22, -1, 22, 22, 20, -1,
 20, 22, 20, -1, 20, 20, 18, -1, 18, 20, 18, -1,
 18, 18, 16, -1, 16, 18, 16, -1, 16, 16, 13, -1,
 13, 16, 13, -1, 12, 12, 12, -1, 12, 12, 12, -1,
 13, 13, 10, -1, 10, 13, 10, -1, 10, 10, 8, -1,
 8, 10, 8, -1, 8, 8, 6, -1, 6, 8, 6, -1,
 6, 6, 4, -1, 4, 6, 4, -1, 4, 4, 2, -1,
 2, 4, 2, -1, 2, 2, 0, -1, 0, 2, 0, -1,
 0, 0, 1, -1, 1, 0, 1, -1, 1, 1, 3, -1,
 3, 1, 3, -1, 3, 3, 5, -1, 5, 3, 5, -1,
 5, 5, 7, -1, 7, 5, 7, -1, 7, 7, 9, -1,
 9, 7, 9, -1, 9, 9, 12, -1, 12, 9, 12, -1,
 13, 13, 13, -1, 13, 13, 13, -1, 12, 12, 15, -1,
 15, 12, 15, -1, 15, 15, 17, -1, 17, 15, 17, -1,
 17, 17, 19, -1, 19, 17, 19, -1, 19, 19, 21, -1,
 21, 19, 21, -1, 21, 21, 23, -1, 23, 21, 23, -1,
 23, 23, 25, -1, 25, 23, 25, -1, 25, 25, 24, -1,
 24, 25, 24, -1, 24, 24, 22, -1, 22, 24, 22, -1,
 22, 22, 20, -1, 20, 22, 20, -1, 20, 20, 18, -1,
 18, 20, 18, -1, 18, 18, 16, -1, 16, 18, 16, -1,
 16, 16, 13, -1, 13, 16, 13, -1, 12, 12, 12, -1,
 12, 12, 12, -1, 13, 13, 10, -1, 10, 13, 10, -1,
 10, 10, 8, -1, 8, 10, 8, -1, 8, 8, 6, -1,
 6, 8, 6, -1, 6, 6, 4, -1, 4, 6, 4, -1,
 4, 4, 2, -1, 2, 4, 2, -1, 2, 2, 0, -1,
 0, 2, 0, -1, 0, 0, 1, -1, 1, 0, 1, -1,
 1, 1, 3, -1, 3, 1, 3, -1, 3, 3, 5, -1,
 5, 3, 5, -1, 5, 5, 7, -1, 7, 5, 7, -1,
 7, 7, 9, -1, 9, 7, 9, -1, 9, 9, 12, -1,
 12, 9, 12, -1, 13, 13, 13, -1, 13, 13, 13, -1,
 13, 13, 13, -1, 13, 13, 13, -1, 13, 13, 13, -1,
 13, 13, 13, -1, 13, 13, 13, -1, 13, 13, 13, -1,
 13, 13, 13, -1, 13, 13, 13, -1, 11, 11, 11, -1,
 11, 11, 11, -1, 11, 11, 11, -1, 11, 11, 11, -1,
 14, 14, 14, -1, 14, 14, 14, -1, 13, 13, 13, -1,
 13, 13, 13, -1, 25, 25, 25, -1, 25, 25, 25, -1,
 11, 11, 11, -1, 11, 11, 11, -1, 0, 0, 0, -1,
 0, 0, 0, -1, 14, 14, 14, -1, 14, 14, 14, -1,
 13, 13, 13, -1, 13, 13, 13, -1, 25, 25, 25, -1,
 25, 25, 25, -1, 11, 11, 11, -1, 11, 11, 11, -1,
 0, 0, 0, -1, 0, 0, 0, -1, 14, 14, 14, -1,
 14, 14, 14, -1, 13, 13, 13, -1, 13, 13, 13, -1,
 25, 25, 25, -1, 25, 25, 25, -1, 11, 11, 11, -1,
 11, 11, 11, -1, 0, 0, 0, -1, 0, 0, 0, -1,
 14, 14, 14, -1, 14, 14, 14, -1, 12, 12, 12, -1,
 12, 12, 12, -1, 12, 12, 12, -1, 12, 12, 12, -1,
 12, 12, 12, -1, 12, 12, 12, -1, 12, 12, 12, -1,
 12, 12, 12, -1, 13, 13, 13, -1, 13, 13, 13, -1,
 13, 13, 13, -1, 13, 13, 13, -1, 13, 13, 13, -1,
 13, 13, 13, -1, 13, 13, 13, -1, 13, 13, 13, -1,
 25, 25, 25, -1, 25, 25, 25, -1, 11, 11, 11, -1,
 11, 11, 11, -1, 0, 0, 0, -1, 0, 0, 0, -1,
 14, 14, 14, -1, 14, 14, 14, -1, 12, 12, 12, -1,
 12, 12, 12, -1
]
colorPerVertex FALSE
normalPerVertex TRUE
}
}
]
}
