#VRML V2.0 utf8
Transform {
children [
Shape {
appearance Appearance {
material Material {
ambientIntensity 1.000000
diffuseColor 1.000000 1.000000 1.000000
emissiveColor 0.210000 0.210000 0.210000
specularColor 0.880000 0.880000 0.880000
shininess 0.210000
transparency 0.000000
}
}
geometry IndexedFaceSet {
color Color {
color [
 1.000000 1.000000 1.000000
]
}
coord Coordinate {
point [
 -0.035000 0.000000 -0.092800, -0.035000 0.000000 -0.085020, -0.035000 0.000000 -0.068945, -0.035000 0.000000 -0.046400, -0.035000 0.000000 -0.023855,
 -0.035000 0.000000 -0.007780, -0.035000 0.000000 -0.000250, -0.035000 0.000000 0.000000, -0.035000 0.001500 -0.092800, -0.035000 0.001500 0.000000,
 -0.034750 0.000000 -0.092800, -0.034750 0.000000 -0.085020, -0.034750 0.000000 -0.068945, -0.034750 0.000000 -0.046400, -0.034750 0.000000 -0.023855,
 -0.034750 0.000000 -0.007780, -0.034750 0.000000 -0.000250, -0.034750 0.000000 0.000000, -0.034500 0.000000 -0.090800, -0.034500 0.000000 -0.002000,
 -0.034500 0.001500 -0.090800, -0.034500 0.001500 -0.002000, -0.034449 0.000000 -0.091188, -0.034449 0.000000 -0.090412, -0.034449 0.000000 -0.002388,
 -0.034449 0.000000 -0.001612, -0.034449 0.001500 -0.091188, -0.034449 0.001500 -0.090412, -0.034449 0.001500 -0.002388, -0.034449 0.001500 -0.001612,
 -0.034299 0.000000 -0.091550, -0.034299 0.000000 -0.090050, -0.034299 0.000000 -0.002750, -0.034299 0.000000 -0.001250, -0.034299 0.001500 -0.091550,
 -0.034299 0.001500 -0.090050, -0.034299 0.001500 -0.002750, -0.034299 0.001500 -0.001250, -0.034061 0.000000 -0.091861, -0.034061 0.000000 -0.089739,
 -0.034061 0.000000 -0.003061, -0.034061 0.000000 -0.000939, -0.034061 0.001500 -0.091861, -0.034061 0.001500 -0.089739, -0.034061 0.001500 -0.003061,
 -0.034061 0.001500 -0.000939, -0.033750 0.000000 -0.092099, -0.033750 0.000000 -0.089501, -0.033750 0.000000 -0.003299, -0.033750 0.000000 -0.000701,
 -0.033750 0.001500 -0.092099, -0.033750 0.001500 -0.089501, -0.033750 0.001500 -0.003299, -0.033750 0.001500 -0.000701, -0.033388 0.000000 -0.092249,
 -0.033388 0.000000 -0.089351, -0.033388 0.000000 -0.003449, -0.033388 0.000000 -0.000551, -0.033388 0.001500 -0.092249, -0.033388 0.001500 -0.089351,
 -0.033388 0.001500 -0.003449, -0.033388 0.001500 -0.000551, -0.033238 0.000000 -0.088989, -0.033238 0.000000 -0.003811, -0.033238 0.001500 -0.088989,
 -0.033238 0.001500 -0.003811, -0.033000 0.000000 -0.092300, -0.033000 0.000000 -0.088679, -0.033000 0.000000 -0.004121, -0.033000 0.000000 -0.000500,
 -0.033000 0.001500 -0.092300, -0.033000 0.001500 -0.088679, -0.033000 0.001500 -0.004121, -0.033000 0.001500 -0.000500, -0.032689 0.000000 -0.088440,
 -0.032689 0.000000 -0.004360, -0.032689 0.001500 -0.088440, -0.032689 0.001500 -0.004360, -0.032612 0.000000 -0.092249, -0.032612 0.000000 -0.000551,
 -0.032612 0.001500 -0.092249, -0.032612 0.001500 -0.000551, -0.032328 0.000000 -0.088290, -0.032328 0.000000 -0.004510, -0.032328 0.001500 -0.088290,
 -0.032328 0.001500 -0.004510, -0.032250 0.000000 -0.092099, -0.032250 0.000000 -0.000701, -0.032250 0.001500 -0.092099, -0.032250 0.001500 -0.000701,
 -0.031939 0.000000 -0.091861, -0.031939 0.000000 -0.088239, -0.031939 0.000000 -0.004561, -0.031939 0.000000 -0.000939, -0.031939 0.001500 -0.091861,
 -0.031939 0.001500 -0.088239, -0.031939 0.001500 -0.004561, -0.031939 0.001500 -0.000939, -0.031701 0.000000 -0.091550, -0.031701 0.000000 -0.001250,
 -0.031701 0.001500 -0.091550, -0.031701 0.001500 -0.001250, -0.031551 0.000000 -0.091188, -0.031551 0.000000 -0.088290, -0.031551 0.000000 -0.004510,
 -0.031551 0.000000 -0.001612, -0.031551 0.001500 -0.091188, -0.031551 0.001500 -0.088290, -0.031551 0.001500 -0.004510, -0.031551 0.001500 -0.001612,
 -0.031189 0.000000 -0.091038, -0.031189 0.000000 -0.088440, -0.031189 0.000000 -0.004360, -0.031189 0.000000 -0.001762, -0.031189 0.001500 -0.091038,
 -0.031189 0.001500 -0.088440, -0.031189 0.001500 -0.004360, -0.031189 0.001500 -0.001762, -0.030879 0.000000 -0.090800, -0.030879 0.000000 -0.088679,
 -0.030879 0.000000 -0.004121, -0.030879 0.000000 -0.002000, -0.030879 0.001500 -0.090800, -0.030879 0.001500 -0.088679, -0.030879 0.001500 -0.004121,
 -0.030879 0.001500 -0.002000, -0.030640 0.000000 -0.090489, -0.030640 0.000000 -0.088989, -0.030640 0.000000 -0.003811, -0.030640 0.000000 -0.002311,
 -0.030640 0.001500 -0.090489, -0.030640 0.001500 -0.088989, -0.030640 0.001500 -0.003811, -0.030640 0.001500 -0.002311, -0.030490 0.000000 -0.090128,
 -0.030490 0.000000 -0.089351, -0.030490 0.000000 -0.003449, -0.030490 0.000000 -0.002672, -0.030490 0.001500 -0.090128, -0.030490 0.001500 -0.089351,
 -0.030490 0.001500 -0.003449, -0.030490 0.001500 -0.002672, -0.030439 0.000000 -0.089739, -0.030439 0.000000 -0.003061, -0.030439 0.001500 -0.089739,
 -0.030439 0.001500 -0.003061, -0.028570 0.000000 -0.092800, -0.028570 0.000000 -0.085020, -0.028570 0.000000 -0.068945, -0.028570 0.000000 -0.046400,
 -0.028570 0.000000 -0.023855, -0.028570 0.000000 -0.007780, -0.028570 0.000000 -0.000250, -0.028570 0.000000 0.000000, -0.026700 -0.003000 -0.081446,
 -0.026700 -0.003000 -0.059625, -0.026700 -0.003000 -0.033175, -0.026700 -0.003000 -0.011354, -0.026700 0.000000 -0.081446, -0.026700 0.000000 -0.059625,
 -0.026700 0.000000 -0.033175, -0.026700 0.000000 -0.011354, -0.026346 -0.003000 -0.081800, -0.026346 -0.003000 -0.059978, -0.026346 -0.003000 -0.032822,
 -0.026346 -0.003000 -0.011000, -0.026346 0.000000 -0.081800, -0.026346 0.000000 -0.059978, -0.026346 0.000000 -0.032822, -0.026346 0.000000 -0.011000,
 -0.026231 0.001500 -0.085400, -0.026231 0.001500 -0.006900, -0.026231 0.010500 -0.085400, -0.026231 0.010500 -0.006900, -0.023164 -0.003000 -0.077911,
 -0.023164 -0.003000 -0.056089, -0.023164 -0.003000 -0.036711, -0.023164 -0.003000 -0.014889, -0.023164 0.000000 -0.077911, -0.023164 0.000000 -0.056089,
 -0.023164 0.000000 -0.036711, -0.023164 0.000000 -0.014889, -0.022811 -0.003000 -0.078264, -0.022811 -0.003000 -0.056443, -0.022811 -0.003000 -0.036357,
 -0.022811 -0.003000 -0.014536, -0.022811 0.000000 -0.078264, -0.022811 0.000000 -0.056443, -0.022811 0.000000 -0.036357, -0.022811 0.000000 -0.014536,
 -0.021400 0.001500 -0.006900, -0.021400 0.001500 0.000000, -0.021400 0.005000 -0.006900, -0.021400 0.005000 0.000000, -0.020000 0.009700 -0.081900,
 -0.020000 0.009700 -0.010400, -0.020000 0.010500 -0.081900, -0.020000 0.010500 -0.010400, -0.019983 0.009700 -0.082029, -0.019983 0.009700 -0.010271,
 -0.019983 0.010500 -0.082029, -0.019983 0.010500 -0.010271, -0.019933 0.009700 -0.082150, -0.019933 0.009700 -0.010150, -0.019933 0.010500 -0.082150,
 -0.019933 0.010500 -0.010150, -0.019854 0.009700 -0.082254, -0.019854 0.009700 -0.010046, -0.019854 0.010500 -0.082254, -0.019854 0.010500 -0.010046,
 -0.019750 0.009700 -0.082333, -0.019750 0.009700 -0.009967, -0.019750 0.010500 -0.082333, -0.019750 0.010500 -0.009967, -0.019629 0.009700 -0.082383,
 -0.019629 0.009700 -0.009917, -0.019629 0.010500 -0.082383, -0.019629 0.010500 -0.009917, -0.019500 0.009700 -0.082400, -0.019500 0.009700 -0.009900,
 -0.019500 0.010500 -0.082400, -0.019500 0.010500 -0.009900, -0.000000 0.000000 -0.092800, -0.000000 0.000000 -0.085020, -0.000000 0.000000 -0.068945,
 -0.000000 0.000000 -0.046400, -0.000000 0.000000 -0.023855, -0.000000 0.000000 -0.007780, -0.000000 0.000000 -0.000250, -0.000000 0.000000 0.000000,
 0.019500 0.009700 -0.082400, 0.019500 0.009700 -0.009900, 0.019500 0.010500 -0.082400, 0.019500 0.010500 -0.009900, 0.019629 0.009700 -0.082383,
 0.019629 0.009700 -0.009917, 0.019629 0.010500 -0.082383, 0.019629 0.010500 -0.009917, 0.019750 0.009700 -0.082333, 0.019750 0.009700 -0.009967,
 0.019750 0.010500 -0.082333, 0.019750 0.010500 -0.009967, 0.019854 0.009700 -0.082254, 0.019854 0.009700 -0.010046, 0.019854 0.010500 -0.082254,
 0.019854 0.010500 -0.010046, 0.019933 0.009700 -0.082150, 0.019933 0.009700 -0.010150, 0.019933 0.010500 -0.082150, 0.019933 0.010500 -0.010150,
 0.019983 0.009700 -0.082029, 0.019983 0.009700 -0.010271, 0.019983 0.010500 -0.082029, 0.019983 0.010500 -0.010271, 0.020000 0.009700 -0.081900,
 0.020000 0.009700 -0.010400, 0.020000 0.010500 -0.081900, 0.020000 0.010500 -0.010400, 0.021400 0.001500 -0.006900, 0.021400 0.001500 0.000000,
 0.021400 0.005000 -0.006900, 0.021400 0.005000 0.000000, 0.022811 -0.003000 -0.078264, 0.022811 -0.003000 -0.056443, 0.022811 -0.003000 -0.036357,
 0.022811 -0.003000 -0.014536, 0.022811 0.000000 -0.078264, 0.022811 0.000000 -0.056443, 0.022811 0.000000 -0.036357, 0.022811 0.000000 -0.014536,
 0.023164 -0.003000 -0.077911, 0.023164 -0.003000 -0.056089, 0.023164 -0.003000 -0.036711, 0.023164 -0.003000 -0.014889, 0.023164 0.000000 -0.077911,
 0.023164 0.000000 -0.056089, 0.023164 0.000000 -0.036711, 0.023164 0.000000 -0.014889, 0.026231 0.001500 -0.085400, 0.026231 0.001500 -0.006900,
 0.026231 0.010500 -0.085400, 0.026231 0.010500 -0.006900, 0.026346 -0.003000 -0.081800, 0.026346 -0.003000 -0.059978, 0.026346 -0.003000 -0.032822,
 0.026346 -0.003000 -0.011000, 0.026346 0.000000 -0.081800, 0.026346 0.000000 -0.059978, 0.026346 0.000000 -0.032822, 0.026346 0.000000 -0.011000,
 0.026700 -0.003000 -0.081446, 0.026700 -0.003000 -0.059625, 0.026700 -0.003000 -0.033175, 0.026700 -0.003000 -0.011354, 0.026700 0.000000 -0.081446,
 0.026700 0.000000 -0.059625, 0.026700 0.000000 -0.033175, 0.026700 0.000000 -0.011354, 0.028570 0.000000 -0.092800, 0.028570 0.000000 -0.085020,
 0.028570 0.000000 -0.068945, 0.028570 0.000000 -0.046400, 0.028570 0.000000 -0.023855, 0.028570 0.000000 -0.007780, 0.028570 0.000000 -0.000250,
 0.028570 0.000000 0.000000, 0.030439 0.000000 -0.089739, 0.030439 0.000000 -0.003061, 0.030439 0.001500 -0.089739, 0.030439 0.001500 -0.003061,
 0.030490 0.000000 -0.090128, 0.030490 0.000000 -0.089351, 0.030490 0.000000 -0.003449, 0.030490 0.000000 -0.002672, 0.030490 0.001500 -0.090128,
 0.030490 0.001500 -0.089351, 0.030490 0.001500 -0.003449, 0.030490 0.001500 -0.002672, 0.030640 0.000000 -0.090489, 0.030640 0.000000 -0.088989,
 0.030640 0.000000 -0.003811, 0.030640 0.000000 -0.002311, 0.030640 0.001500 -0.090489, 0.030640 0.001500 -0.088989, 0.030640 0.001500 -0.003811,
 0.030640 0.001500 -0.002311, 0.030879 0.000000 -0.090800, 0.030879 0.000000 -0.088679, 0.030879 0.000000 -0.004121, 0.030879 0.000000 -0.002000,
 0.030879 0.001500 -0.090800, 0.030879 0.001500 -0.088679, 0.030879 0.001500 -0.004121, 0.030879 0.001500 -0.002000, 0.031189 0.000000 -0.091038,
 0.031189 0.000000 -0.088440, 0.031189 0.000000 -0.004360, 0.031189 0.000000 -0.001762, 0.031189 0.001500 -0.091038, 0.031189 0.001500 -0.088440,
 0.031189 0.001500 -0.004360, 0.031189 0.001500 -0.001762, 0.031551 0.000000 -0.091188, 0.031551 0.000000 -0.088290, 0.031551 0.000000 -0.004510,
 0.031551 0.000000 -0.001612, 0.031551 0.001500 -0.091188, 0.031551 0.001500 -0.088290, 0.031551 0.001500 -0.004510, 0.031551 0.001500 -0.001612,
 0.031701 0.000000 -0.091550, 0.031701 0.000000 -0.001250, 0.031701 0.001500 -0.091550, 0.031701 0.001500 -0.001250, 0.031939 0.000000 -0.091861,
 0.031939 0.000000 -0.088239, 0.031939 0.000000 -0.004561, 0.031939 0.000000 -0.000939, 0.031939 0.001500 -0.091861, 0.031939 0.001500 -0.088239,
 0.031939 0.001500 -0.004561, 0.031939 0.001500 -0.000939, 0.032250 0.000000 -0.092099, 0.032250 0.000000 -0.000701, 0.032250 0.001500 -0.092099,
 0.032250 0.001500 -0.000701, 0.032328 0.000000 -0.088290, 0.032328 0.000000 -0.004510, 0.032328 0.001500 -0.088290, 0.032328 0.001500 -0.004510,
 0.032612 0.000000 -0.092249, 0.032612 0.000000 -0.000551, 0.032612 0.001500 -0.092249, 0.032612 0.001500 -0.000551, 0.032689 0.000000 -0.088440,
 0.032689 0.000000 -0.004360, 0.032689 0.001500 -0.088440, 0.032689 0.001500 -0.004360, 0.033000 0.000000 -0.092300, 0.033000 0.000000 -0.088679,
 0.033000 0.000000 -0.004121, 0.033000 0.000000 -0.000500, 0.033000 0.001500 -0.092300, 0.033000 0.001500 -0.088679, 0.033000 0.001500 -0.004121,
 0.033000 0.001500 -0.000500, 0.033238 0.000000 -0.088989, 0.033238 0.000000 -0.003811, 0.033238 0.001500 -0.088989, 0.033238 0.001500 -0.003811,
 0.033388 0.000000 -0.092249, 0.033388 0.000000 -0.089351, 0.033388 0.000000 -0.003449, 0.033388 0.000000 -0.000551, 0.033388 0.001500 -0.092249,
 0.033388 0.001500 -0.089351, 0.033388 0.001500 -0.003449, 0.033388 0.001500 -0.000551, 0.033750 0.000000 -0.092099, 0.033750 0.000000 -0.089501,
 0.033750 0.000000 -0.003299, 0.033750 0.000000 -0.000701, 0.033750 0.001500 -0.092099, 0.033750 0.001500 -0.089501, 0.033750 0.001500 -0.003299,
 0.033750 0.001500 -0.000701, 0.034061 0.000000 -0.091861, 0.034061 0.000000 -0.089739, 0.034061 0.000000 -0.003061, 0.034061 0.000000 -0.000939,
 0.034061 0.001500 -0.091861, 0.034061 0.001500 -0.089739, 0.034061 0.001500 -0.003061, 0.034061 0.001500 -0.000939, 0.034299 0.000000 -0.091550,
 0.034299 0.000000 -0.090050, 0.034299 0.000000 -0.002750, 0.034299 0.000000 -0.001250, 0.034299 0.001500 -0.091550, 0.034299 0.001500 -0.090050,
 0.034299 0.001500 -0.002750, 0.034299 0.001500 -0.001250, 0.034449 0.000000 -0.091188, 0.034449 0.000000 -0.090412, 0.034449 0.000000 -0.002388,
 0.034449 0.000000 -0.001612, 0.034449 0.001500 -0.091188, 0.034449 0.001500 -0.090412, 0.034449 0.001500 -0.002388, 0.034449 0.001500 -0.001612,
 0.034500 0.000000 -0.090800, 0.034500 0.000000 -0.002000, 0.034500 0.001500 -0.090800, 0.034500 0.001500 -0.002000, 0.035000 0.000000 -0.092800,
 0.035000 0.000000 -0.085020, 0.035000 0.000000 -0.068945, 0.035000 0.000000 -0.046400, 0.035000 0.000000 -0.023855, 0.035000 0.000000 -0.007780,
 0.035000 0.000000 -0.000250, 0.035000 0.000000 0.000000, 0.035000 0.001500 -0.092800, 0.035000 0.001500 0.000000
]
}
normal Normal {
vector [
 -1.000000 0.000000 -0.000000, -0.965926 0.000000 -0.258819, -0.965926 0.000000 0.258819, -0.866025 0.000000 -0.500000, -0.866025 0.000000 0.500000,
 -0.707107 0.000000 -0.707107, -0.707107 0.000000 0.707107, -0.500000 0.000000 -0.866025, -0.500000 0.000000 0.866025, -0.258819 0.000000 -0.965926,
 -0.258819 0.000000 0.965926, 0.000000 -1.000000 0.000000, -0.000000 0.000000 -1.000000, 0.000000 0.000000 1.000000, 0.000000 1.000000 0.000000,
 0.258819 0.000000 -0.965926, 0.258819 0.000000 0.965926, 0.500000 0.000000 -0.866025, 0.500000 0.000000 0.866025, 0.707107 0.000000 -0.707107,
 0.707107 0.000000 0.707107, 0.866025 0.000000 -0.500000, 0.866025 0.000000 0.500000, 0.965926 0.000000 -0.258819, 0.965926 0.000000 0.258819,
 1.000000 0.000000 -0.000000
]
}
coordIndex [
 0, 10, 11, -1, 390, 378, 434, -1, 415, 435, 407, -1,
 407, 435, 399, -1, 327, 335, 299, -1, 299, 335, 343, -1,
 391, 399, 386, -1, 386, 399, 435, -1, 386, 435, 379, -1,
 379, 435, 374, -1, 415, 423, 435, -1, 435, 423, 430, -1,
 435, 430, 434, -1, 434, 430, 422, -1, 434, 422, 414, -1,
 434, 378, 298, -1, 298, 378, 370, -1, 298, 370, 362, -1,
 334, 326, 298, -1, 298, 326, 318, -1, 298, 318, 310, -1,
 343, 355, 435, -1, 435, 355, 366, -1, 435, 366, 374, -1,
 414, 406, 434, -1, 434, 406, 398, -1, 434, 398, 390, -1,
 342, 334, 350, -1, 350, 334, 298, -1, 350, 298, 354, -1,
 354, 298, 362, -1, 306, 311, 299, -1, 299, 311, 319, -1,
 299, 319, 327, -1, 440, 431, 439, -1, 439, 431, 424, -1,
 439, 424, 416, -1, 439, 387, 380, -1, 380, 375, 439, -1,
 439, 375, 367, -1, 439, 367, 356, -1, 401, 409, 440, -1,
 392, 387, 400, -1, 400, 387, 439, -1, 400, 439, 408, -1,
 408, 439, 416, -1, 343, 435, 299, -1, 299, 435, 436, -1,
 299, 436, 300, -1, 300, 436, 437, -1, 300, 437, 301, -1,
 301, 437, 438, -1, 301, 438, 302, -1, 302, 438, 439, -1,
 302, 439, 303, -1, 303, 439, 356, -1, 303, 356, 344, -1,
 344, 336, 303, -1, 303, 336, 328, -1, 303, 328, 320, -1,
 312, 307, 304, -1, 304, 307, 313, -1, 304, 313, 321, -1,
 409, 417, 440, -1, 440, 417, 425, -1, 440, 425, 431, -1,
 321, 329, 304, -1, 304, 329, 337, -1, 304, 337, 345, -1,
 345, 351, 304, -1, 304, 351, 357, -1, 304, 357, 363, -1,
 363, 371, 304, -1, 304, 371, 381, -1, 304, 381, 440, -1,
 440, 381, 393, -1, 440, 393, 401, -1, 266, 223, 286, -1,
 286, 223, 299, -1, 286, 299, 294, -1, 294, 299, 300, -1,
 294, 300, 274, -1, 274, 300, 224, -1, 274, 224, 266, -1,
 224, 267, 225, -1, 225, 267, 275, -1, 225, 275, 301, -1,
 301, 275, 295, -1, 301, 295, 300, -1, 300, 295, 287, -1,
 300, 287, 224, -1, 224, 287, 267, -1, 268, 288, 302, -1,
 302, 288, 296, -1, 302, 296, 301, -1, 301, 296, 276, -1,
 301, 276, 225, -1, 225, 276, 268, -1, 225, 268, 226, -1,
 226, 268, 302, -1, 277, 269, 227, -1, 227, 269, 289, -1,
 227, 289, 303, -1, 303, 289, 297, -1, 303, 297, 302, -1,
 302, 297, 277, -1, 302, 277, 226, -1, 226, 277, 227, -1,
 223, 186, 166, -1, 223, 166, 147, -1, 147, 166, 158, -1,
 147, 158, 148, -1, 266, 224, 223, -1, 223, 224, 178, -1,
 223, 178, 186, -1, 158, 178, 148, -1, 148, 178, 224, -1,
 148, 224, 187, -1, 187, 224, 225, -1, 187, 225, 179, -1,
 179, 225, 149, -1, 179, 149, 159, -1, 159, 149, 148, -1,
 159, 148, 167, -1, 167, 148, 187, -1, 226, 188, 225, -1,
 225, 188, 180, -1, 225, 180, 149, -1, 149, 180, 160, -1,
 149, 160, 150, -1, 150, 160, 168, -1, 150, 168, 226, -1,
 226, 168, 188, -1, 226, 181, 150, -1, 150, 181, 161, -1,
 150, 161, 151, -1, 151, 161, 169, -1, 151, 169, 227, -1,
 227, 169, 189, -1, 227, 189, 226, -1, 226, 189, 181, -1,
 91, 103, 147, -1, 23, 31, 11, -1, 11, 31, 39, -1,
 11, 39, 47, -1, 47, 55, 11, -1, 11, 55, 62, -1,
 11, 62, 67, -1, 67, 74, 11, -1, 11, 74, 82, -1,
 11, 82, 91, -1, 23, 11, 18, -1, 18, 11, 10, -1,
 18, 10, 22, -1, 103, 111, 147, -1, 147, 111, 119, -1,
 147, 119, 127, -1, 135, 142, 146, -1, 146, 142, 134, -1,
 146, 134, 126, -1, 86, 146, 90, -1, 90, 146, 98, -1,
 86, 78, 146, -1, 146, 78, 66, -1, 146, 66, 10, -1,
 10, 66, 54, -1, 10, 54, 46, -1, 127, 135, 147, -1,
 147, 135, 146, -1, 147, 146, 223, -1, 223, 146, 222, -1,
 223, 222, 299, -1, 299, 222, 298, -1, 299, 298, 306, -1,
 306, 298, 310, -1, 102, 98, 110, -1, 110, 98, 146, -1,
 110, 146, 118, -1, 118, 146, 126, -1, 46, 38, 10, -1,
 10, 38, 30, -1, 10, 30, 22, -1, 75, 15, 83, -1,
 83, 15, 92, -1, 136, 128, 151, -1, 32, 15, 40, -1,
 40, 15, 48, -1, 32, 24, 15, -1, 15, 24, 19, -1,
 15, 19, 16, -1, 16, 19, 25, -1, 99, 105, 113, -1,
 136, 151, 143, -1, 87, 93, 152, -1, 152, 93, 99, -1,
 129, 137, 152, -1, 128, 120, 151, -1, 151, 120, 112, -1,
 151, 112, 104, -1, 56, 48, 63, -1, 63, 48, 15, -1,
 63, 15, 68, -1, 68, 15, 75, -1, 25, 33, 16, -1,
 16, 33, 41, -1, 16, 41, 49, -1, 99, 113, 152, -1,
 152, 113, 121, -1, 152, 121, 129, -1, 91, 147, 11, -1,
 11, 147, 148, -1, 11, 148, 12, -1, 12, 148, 149, -1,
 12, 149, 13, -1, 13, 149, 150, -1, 13, 150, 14, -1,
 14, 150, 151, -1, 14, 151, 15, -1, 15, 151, 104, -1,
 15, 104, 92, -1, 49, 57, 16, -1, 16, 57, 69, -1,
 16, 69, 152, -1, 152, 69, 79, -1, 152, 79, 87, -1,
 137, 143, 152, -1, 152, 143, 151, -1, 152, 151, 228, -1,
 228, 151, 227, -1, 228, 227, 304, -1, 304, 227, 303, -1,
 304, 303, 312, -1, 312, 303, 320, -1, 440, 441, 304, -1,
 304, 441, 305, -1, 304, 305, 228, -1, 228, 305, 229, -1,
 228, 229, 152, -1, 152, 229, 153, -1, 152, 153, 16, -1,
 16, 153, 17, -1, 0, 11, 1, -1, 1, 11, 12, -1,
 1, 12, 2, -1, 2, 12, 13, -1, 2, 13, 3, -1,
 3, 13, 14, -1, 3, 14, 4, -1, 4, 14, 15, -1,
 4, 15, 5, -1, 5, 15, 16, -1, 5, 16, 6, -1,
 6, 16, 17, -1, 6, 17, 7, -1, 191, 190, 171, -1,
 96, 108, 171, -1, 171, 108, 116, -1, 171, 116, 124, -1,
 130, 138, 170, -1, 170, 138, 144, -1, 170, 144, 139, -1,
 333, 325, 279, -1, 279, 325, 317, -1, 373, 259, 385, -1,
 385, 259, 443, -1, 141, 133, 191, -1, 191, 133, 125, -1,
 191, 125, 117, -1, 191, 97, 89, -1, 139, 131, 170, -1,
 170, 131, 123, -1, 170, 123, 171, -1, 171, 123, 115, -1,
 171, 115, 96, -1, 96, 115, 107, -1, 96, 107, 95, -1,
 53, 45, 9, -1, 9, 45, 37, -1, 9, 37, 29, -1,
 72, 77, 84, -1, 64, 59, 51, -1, 395, 388, 443, -1,
 443, 388, 383, -1, 443, 383, 376, -1, 373, 365, 259, -1,
 259, 365, 361, -1, 259, 361, 353, -1, 279, 258, 333, -1,
 333, 258, 259, -1, 333, 259, 341, -1, 341, 259, 353, -1,
 341, 353, 349, -1, 124, 132, 171, -1, 171, 132, 140, -1,
 171, 140, 191, -1, 191, 140, 145, -1, 191, 145, 141, -1,
 117, 109, 191, -1, 191, 109, 101, -1, 191, 101, 97, -1,
 89, 81, 191, -1, 191, 81, 73, -1, 191, 73, 9, -1,
 9, 73, 61, -1, 9, 61, 53, -1, 44, 52, 84, -1,
 84, 76, 9, -1, 9, 76, 71, -1, 9, 71, 64, -1,
 376, 368, 443, -1, 443, 368, 428, -1, 443, 428, 433, -1,
 433, 429, 443, -1, 443, 429, 421, -1, 443, 421, 413, -1,
 29, 21, 9, -1, 9, 21, 28, -1, 9, 28, 84, -1,
 84, 28, 36, -1, 84, 36, 44, -1, 84, 77, 95, -1,
 95, 77, 85, -1, 95, 85, 96, -1, 443, 427, 419, -1,
 389, 396, 368, -1, 368, 396, 404, -1, 413, 405, 443, -1,
 443, 405, 397, -1, 443, 397, 385, -1, 64, 51, 9, -1,
 9, 51, 43, -1, 9, 43, 35, -1, 419, 411, 443, -1,
 443, 411, 403, -1, 443, 403, 395, -1, 332, 340, 368, -1,
 369, 377, 368, -1, 368, 377, 384, -1, 368, 384, 389, -1,
 404, 412, 368, -1, 368, 412, 420, -1, 368, 420, 428, -1,
 52, 60, 84, -1, 84, 60, 65, -1, 84, 65, 72, -1,
 80, 88, 278, -1, 278, 88, 94, -1, 278, 94, 100, -1,
 35, 27, 9, -1, 9, 27, 20, -1, 9, 20, 8, -1,
 427, 443, 432, -1, 432, 443, 442, -1, 432, 442, 426, -1,
 347, 309, 359, -1, 359, 309, 316, -1, 359, 316, 368, -1,
 368, 316, 324, -1, 368, 324, 332, -1, 340, 348, 368, -1,
 368, 348, 360, -1, 368, 360, 369, -1, 130, 170, 122, -1,
 122, 170, 278, -1, 122, 278, 114, -1, 114, 278, 100, -1,
 114, 100, 106, -1, 317, 309, 279, -1, 279, 309, 347, -1,
 279, 347, 278, -1, 278, 347, 339, -1, 278, 339, 80, -1,
 80, 339, 331, -1, 80, 331, 70, -1, 70, 331, 323, -1,
 70, 323, 315, -1, 330, 338, 8, -1, 8, 338, 346, -1,
 346, 352, 8, -1, 8, 352, 358, -1, 8, 358, 364, -1,
 364, 372, 8, -1, 8, 372, 382, -1, 8, 382, 442, -1,
 442, 382, 394, -1, 442, 394, 402, -1, 402, 410, 442, -1,
 442, 410, 418, -1, 442, 418, 426, -1, 20, 26, 8, -1,
 8, 26, 34, -1, 8, 34, 42, -1, 42, 50, 8, -1,
 8, 50, 58, -1, 8, 58, 70, -1, 315, 308, 70, -1,
 70, 308, 314, -1, 70, 314, 8, -1, 8, 314, 322, -1,
 8, 322, 330, -1, 258, 279, 260, -1, 260, 279, 281, -1,
 260, 281, 192, -1, 192, 281, 173, -1, 192, 173, 190, -1,
 190, 173, 171, -1, 10, 0, 8, -1, 434, 298, 442, -1,
 442, 298, 222, -1, 442, 222, 8, -1, 8, 222, 146, -1,
 8, 146, 10, -1, 8, 0, 1, -1, 1, 2, 8, -1,
 8, 2, 3, -1, 8, 3, 9, -1, 9, 3, 4, -1,
 4, 5, 9, -1, 9, 5, 6, -1, 9, 6, 7, -1,
 441, 443, 305, -1, 305, 443, 259, -1, 305, 259, 229, -1,
 229, 259, 261, -1, 7, 17, 9, -1, 9, 17, 153, -1,
 9, 153, 191, -1, 191, 153, 229, -1, 191, 229, 193, -1,
 193, 229, 261, -1, 435, 434, 442, -1, 441, 440, 443, -1,
 443, 440, 439, -1, 439, 438, 443, -1, 443, 438, 437, -1,
 443, 437, 442, -1, 442, 437, 436, -1, 442, 436, 435, -1,
 172, 280, 170, -1, 170, 280, 278, -1, 173, 172, 171, -1,
 171, 172, 170, -1, 280, 281, 278, -1, 278, 281, 279, -1,
 200, 204, 172, -1, 172, 204, 208, -1, 172, 208, 212, -1,
 217, 213, 173, -1, 173, 213, 209, -1, 173, 209, 205, -1,
 236, 240, 280, -1, 280, 240, 244, -1, 280, 244, 248, -1,
 253, 249, 281, -1, 281, 249, 245, -1, 281, 245, 241, -1,
 205, 201, 173, -1, 173, 201, 197, -1, 173, 197, 172, -1,
 172, 197, 196, -1, 172, 196, 200, -1, 212, 216, 172, -1,
 172, 216, 220, -1, 172, 220, 280, -1, 280, 220, 232, -1,
 280, 232, 236, -1, 241, 237, 281, -1, 281, 237, 233, -1,
 281, 233, 173, -1, 173, 233, 221, -1, 173, 221, 217, -1,
 248, 252, 280, -1, 280, 252, 256, -1, 280, 256, 281, -1,
 281, 256, 257, -1, 281, 257, 253, -1, 193, 192, 191, -1,
 191, 192, 190, -1, 260, 261, 258, -1, 258, 261, 259, -1,
 261, 260, 193, -1, 193, 260, 192, -1, 105, 109, 113, -1,
 113, 109, 117, -1, 113, 117, 121, -1, 121, 117, 125, -1,
 121, 125, 129, -1, 129, 125, 133, -1, 129, 133, 137, -1,
 137, 133, 141, -1, 137, 141, 143, -1, 143, 141, 145, -1,
 143, 145, 136, -1, 136, 145, 140, -1, 136, 140, 128, -1,
 128, 140, 132, -1, 128, 132, 120, -1, 120, 132, 124, -1,
 120, 124, 112, -1, 112, 124, 116, -1, 112, 116, 104, -1,
 104, 116, 108, -1, 104, 108, 92, -1, 92, 108, 96, -1,
 92, 96, 83, -1, 83, 96, 85, -1, 83, 85, 75, -1,
 75, 85, 77, -1, 75, 77, 68, -1, 68, 77, 72, -1,
 68, 72, 63, -1, 63, 72, 65, -1, 63, 65, 56, -1,
 56, 65, 60, -1, 56, 60, 48, -1, 48, 60, 52, -1,
 48, 52, 40, -1, 40, 52, 44, -1, 40, 44, 32, -1,
 32, 44, 36, -1, 32, 36, 24, -1, 24, 36, 28, -1,
 24, 28, 19, -1, 19, 28, 21, -1, 19, 21, 25, -1,
 25, 21, 29, -1, 25, 29, 33, -1, 33, 29, 37, -1,
 33, 37, 41, -1, 41, 37, 45, -1, 41, 45, 49, -1,
 49, 45, 53, -1, 49, 53, 57, -1, 57, 53, 61, -1,
 57, 61, 69, -1, 69, 61, 73, -1, 69, 73, 79, -1,
 79, 73, 81, -1, 79, 81, 87, -1, 87, 81, 89, -1,
 87, 89, 93, -1, 93, 89, 97, -1, 93, 97, 99, -1,
 99, 97, 101, -1, 99, 101, 105, -1, 105, 101, 109, -1,
 342, 346, 334, -1, 334, 346, 338, -1, 334, 338, 326, -1,
 326, 338, 330, -1, 326, 330, 318, -1, 318, 330, 322, -1,
 318, 322, 310, -1, 310, 322, 314, -1, 310, 314, 306, -1,
 306, 314, 308, -1, 306, 308, 311, -1, 311, 308, 315, -1,
 311, 315, 319, -1, 319, 315, 323, -1, 319, 323, 327, -1,
 327, 323, 331, -1, 327, 331, 335, -1, 335, 331, 339, -1,
 335, 339, 343, -1, 343, 339, 347, -1, 343, 347, 355, -1,
 355, 347, 359, -1, 355, 359, 366, -1, 366, 359, 368, -1,
 366, 368, 374, -1, 374, 368, 376, -1, 374, 376, 379, -1,
 379, 376, 383, -1, 379, 383, 386, -1, 386, 383, 388, -1,
 386, 388, 391, -1, 391, 388, 395, -1, 391, 395, 399, -1,
 399, 395, 403, -1, 399, 403, 407, -1, 407, 403, 411, -1,
 407, 411, 415, -1, 415, 411, 419, -1, 415, 419, 423, -1,
 423, 419, 427, -1, 423, 427, 430, -1, 430, 427, 432, -1,
 430, 432, 422, -1, 422, 432, 426, -1, 422, 426, 414, -1,
 414, 426, 418, -1, 414, 418, 406, -1, 406, 418, 410, -1,
 406, 410, 398, -1, 398, 410, 402, -1, 398, 402, 390, -1,
 390, 402, 394, -1, 390, 394, 378, -1, 378, 394, 382, -1,
 378, 382, 370, -1, 370, 382, 372, -1, 370, 372, 362, -1,
 362, 372, 364, -1, 362, 364, 354, -1, 354, 364, 358, -1,
 354, 358, 350, -1, 350, 358, 352, -1, 350, 352, 342, -1,
 342, 352, 346, -1, 102, 106, 98, -1, 98, 106, 100, -1,
 98, 100, 90, -1, 90, 100, 94, -1, 90, 94, 86, -1,
 86, 94, 88, -1, 86, 88, 78, -1, 78, 88, 80, -1,
 78, 80, 66, -1, 66, 80, 70, -1, 66, 70, 54, -1,
 54, 70, 58, -1, 54, 58, 46, -1, 46, 58, 50, -1,
 46, 50, 38, -1, 38, 50, 42, -1, 38, 42, 30, -1,
 30, 42, 34, -1, 30, 34, 22, -1, 22, 34, 26, -1,
 22, 26, 18, -1, 18, 26, 20, -1, 18, 20, 23, -1,
 23, 20, 27, -1, 23, 27, 31, -1, 31, 27, 35, -1,
 31, 35, 39, -1, 39, 35, 43, -1, 39, 43, 47, -1,
 47, 43, 51, -1, 47, 51, 55, -1, 55, 51, 59, -1,
 55, 59, 62, -1, 62, 59, 64, -1, 62, 64, 67, -1,
 67, 64, 71, -1, 67, 71, 74, -1, 74, 71, 76, -1,
 74, 76, 82, -1, 82, 76, 84, -1, 82, 84, 91, -1,
 91, 84, 95, -1, 91, 95, 103, -1, 103, 95, 107, -1,
 103, 107, 111, -1, 111, 107, 115, -1, 111, 115, 119, -1,
 119, 115, 123, -1, 119, 123, 127, -1, 127, 123, 131, -1,
 127, 131, 135, -1, 135, 131, 139, -1, 135, 139, 142, -1,
 142, 139, 144, -1, 142, 144, 134, -1, 134, 144, 138, -1,
 134, 138, 126, -1, 126, 138, 130, -1, 126, 130, 118, -1,
 118, 130, 122, -1, 118, 122, 110, -1, 110, 122, 114, -1,
 110, 114, 102, -1, 102, 114, 106, -1, 392, 396, 387, -1,
 387, 396, 389, -1, 387, 389, 380, -1, 380, 389, 384, -1,
 380, 384, 375, -1, 375, 384, 377, -1, 375, 377, 367, -1,
 367, 377, 369, -1, 367, 369, 356, -1, 356, 369, 360, -1,
 356, 360, 344, -1, 344, 360, 348, -1, 344, 348, 336, -1,
 336, 348, 340, -1, 336, 340, 328, -1, 328, 340, 332, -1,
 328, 332, 320, -1, 320, 332, 324, -1, 320, 324, 312, -1,
 312, 324, 316, -1, 312, 316, 307, -1, 307, 316, 309, -1,
 307, 309, 313, -1, 313, 309, 317, -1, 313, 317, 321, -1,
 321, 317, 325, -1, 321, 325, 329, -1, 329, 325, 333, -1,
 329, 333, 337, -1, 337, 333, 341, -1, 337, 341, 345, -1,
 345, 341, 349, -1, 345, 349, 351, -1, 351, 349, 353, -1,
 351, 353, 357, -1, 357, 353, 361, -1, 357, 361, 363, -1,
 363, 361, 365, -1, 363, 365, 371, -1, 371, 365, 373, -1,
 371, 373, 381, -1, 381, 373, 385, -1, 381, 385, 393, -1,
 393, 385, 397, -1, 393, 397, 401, -1, 401, 397, 405, -1,
 401, 405, 409, -1, 409, 405, 413, -1, 409, 413, 417, -1,
 417, 413, 421, -1, 417, 421, 425, -1, 425, 421, 429, -1,
 425, 429, 431, -1, 431, 429, 433, -1, 431, 433, 424, -1,
 424, 433, 428, -1, 424, 428, 416, -1, 416, 428, 420, -1,
 416, 420, 408, -1, 408, 420, 412, -1, 408, 412, 400, -1,
 400, 412, 404, -1, 400, 404, 392, -1, 392, 404, 396, -1,
 157, 165, 161, -1, 161, 165, 169, -1, 177, 157, 181, -1,
 181, 157, 161, -1, 185, 177, 189, -1, 189, 177, 181, -1,
 165, 185, 169, -1, 169, 185, 189, -1, 177, 185, 157, -1,
 157, 185, 165, -1, 293, 273, 297, -1, 297, 273, 277, -1,
 285, 293, 289, -1, 289, 293, 297, -1, 265, 285, 269, -1,
 269, 285, 289, -1, 273, 265, 277, -1, 277, 265, 269, -1,
 285, 265, 293, -1, 293, 265, 273, -1, 290, 282, 294, -1,
 294, 282, 286, -1, 270, 290, 274, -1, 274, 290, 294, -1,
 262, 270, 266, -1, 266, 270, 274, -1, 282, 262, 286, -1,
 286, 262, 266, -1, 270, 262, 290, -1, 290, 262, 282, -1,
 154, 174, 158, -1, 158, 174, 178, -1, 162, 154, 166, -1,
 166, 154, 158, -1, 182, 162, 186, -1, 186, 162, 166, -1,
 174, 182, 178, -1, 178, 182, 186, -1, 162, 182, 154, -1,
 154, 182, 174, -1, 291, 283, 295, -1, 295, 283, 287, -1,
 271, 291, 275, -1, 275, 291, 295, -1, 263, 271, 267, -1,
 267, 271, 275, -1, 283, 263, 287, -1, 287, 263, 267, -1,
 271, 263, 291, -1, 291, 263, 283, -1, 155, 175, 159, -1,
 159, 175, 179, -1, 163, 155, 167, -1, 167, 155, 159, -1,
 183, 163, 187, -1, 187, 163, 167, -1, 175, 183, 179, -1,
 179, 183, 187, -1, 163, 183, 155, -1, 155, 183, 175, -1,
 156, 164, 160, -1, 160, 164, 168, -1, 176, 156, 180, -1,
 180, 156, 160, -1, 184, 176, 188, -1, 188, 176, 180, -1,
 164, 184, 168, -1, 168, 184, 188, -1, 176, 184, 156, -1,
 156, 184, 164, -1, 292, 272, 296, -1, 296, 272, 276, -1,
 284, 292, 288, -1, 288, 292, 296, -1, 264, 284, 268, -1,
 268, 284, 288, -1, 272, 264, 276, -1, 276, 264, 268, -1,
 284, 264, 292, -1, 292, 264, 272, -1, 195, 194, 197, -1,
 197, 194, 196, -1, 232, 220, 230, -1, 230, 220, 218, -1,
 257, 256, 255, -1, 255, 256, 254, -1, 231, 219, 233, -1,
 233, 219, 221, -1, 199, 203, 219, -1, 219, 231, 255, -1,
 198, 194, 218, -1, 218, 194, 195, -1, 218, 195, 230, -1,
 219, 203, 215, -1, 215, 203, 207, -1, 215, 207, 211, -1,
 199, 219, 195, -1, 195, 219, 255, -1, 195, 255, 230, -1,
 230, 255, 254, -1, 230, 254, 250, -1, 214, 210, 206, -1,
 239, 243, 235, -1, 235, 243, 247, -1, 235, 247, 231, -1,
 231, 247, 251, -1, 231, 251, 255, -1, 238, 234, 242, -1,
 242, 234, 230, -1, 242, 230, 246, -1, 246, 230, 250, -1,
 214, 206, 218, -1, 218, 206, 202, -1, 218, 202, 198, -1,
 257, 255, 253, -1, 253, 255, 251, -1, 253, 251, 249, -1,
 249, 251, 247, -1, 249, 247, 245, -1, 245, 247, 243, -1,
 245, 243, 241, -1, 241, 243, 239, -1, 241, 239, 237, -1,
 237, 239, 235, -1, 237, 235, 233, -1, 233, 235, 231, -1,
 221, 219, 217, -1, 217, 219, 215, -1, 217, 215, 213, -1,
 213, 215, 211, -1, 213, 211, 209, -1, 209, 211, 207, -1,
 209, 207, 205, -1, 205, 207, 203, -1, 205, 203, 201, -1,
 201, 203, 199, -1, 201, 199, 197, -1, 197, 199, 195, -1,
 232, 230, 236, -1, 236, 230, 234, -1, 236, 234, 240, -1,
 240, 234, 238, -1, 240, 238, 244, -1, 244, 238, 242, -1,
 244, 242, 248, -1, 248, 242, 246, -1, 248, 246, 252, -1,
 252, 246, 250, -1, 252, 250, 256, -1, 256, 250, 254, -1,
 196, 194, 200, -1, 200, 194, 198, -1, 200, 198, 204, -1,
 204, 198, 202, -1, 204, 202, 208, -1, 208, 202, 206, -1,
 208, 206, 212, -1, 212, 206, 210, -1, 212, 210, 216, -1,
 216, 210, 214, -1, 216, 214, 220, -1, 220, 214, 218, -1
]
normalIndex [
 11, 11, 11, -1, 11, 11, 11, -1, 11, 11, 11, -1,
 11, 11, 11, -1, 11, 11, 11, -1, 11, 11, 11, -1,
 11, 11, 11, -1, 11, 11, 11, -1, 11, 11, 11, -1,
 11, 11, 11, -1, 11, 11, 11, -1, 11, 11, 11, -1,
 11, 11, 11, -1, 11, 11, 11, -1, 11, 11, 11, -1,
 11, 11, 11, -1, 11, 11, 11, -1, 11, 11, 11, -1,
 11, 11, 11, -1, 11, 11, 11, -1, 11, 11, 11, -1,
 11, 11, 11, -1, 11, 11, 11, -1, 11, 11, 11, -1,
 11, 11, 11, -1, 11, 11, 11, -1, 11, 11, 11, -1,
 11, 11, 11, -1, 11, 11, 11, -1, 11, 11, 11, -1,
 11, 11, 11, -1, 11, 11, 11, -1, 11, 11, 11, -1,
 11, 11, 11, -1, 11, 11, 11, -1, 11, 11, 11, -1,
 11, 11, 11, -1, 11, 11, 11, -1, 11, 11, 11, -1,
 11, 11, 11, -1, 11, 11, 11, -1, 11, 11, 11, -1,
 11, 11, 11, -1, 11, 11, 11, -1, 11, 11, 11, -1,
 11, 11, 11, -1, 11, 11, 11, -1, 11, 11, 11, -1,
 11, 11, 11, -1, 11, 11, 11, -1, 11, 11, 11, -1,
 11, 11, 11, -1, 11, 11, 11, -1, 11, 11, 11, -1,
 11, 11, 11, -1, 11, 11, 11, -1, 11, 11, 11, -1,
 11, 11, 11, -1, 11, 11, 11, -1, 11, 11, 11, -1,
 11, 11, 11, -1, 11, 11, 11, -1, 11, 11, 11, -1,
 11, 11, 11, -1, 11, 11, 11, -1, 11, 11, 11, -1,
 11, 11, 11, -1, 11, 11, 11, -1, 11, 11, 11, -1,
 11, 11, 11, -1, 11, 11, 11, -1, 11, 11, 11, -1,
 11, 11, 11, -1, 11, 11, 11, -1, 11, 11, 11, -1,
 11, 11, 11, -1, 11, 11, 11, -1, 11, 11, 11, -1,
 11, 11, 11, -1, 11, 11, 11, -1, 11, 11, 11, -1,
 11, 11, 11, -1, 11, 11, 11, -1, 11, 11, 11, -1,
 11, 11, 11, -1, 11, 11, 11, -1, 11, 11, 11, -1,
 11, 11, 11, -1, 11, 11, 11, -1, 11, 11, 11, -1,
 11, 11, 11, -1, 11, 11, 11, -1, 11, 11, 11, -1,
 11, 11, 11, -1, 11, 11, 11, -1, 11, 11, 11, -1,
 11, 11, 11, -1, 11, 11, 11, -1, 11, 11, 11, -1,
 11, 11, 11, -1, 11, 11, 11, -1, 11, 11, 11, -1,
 11, 11, 11, -1, 11, 11, 11, -1, 11, 11, 11, -1,
 11, 11, 11, -1, 11, 11, 11, -1, 11, 11, 11, -1,
 11, 11, 11, -1, 11, 11, 11, -1, 11, 11, 11, -1,
 11, 11, 11, -1, 11, 11, 11, -1, 11, 11, 11, -1,
 11, 11, 11, -1, 11, 11, 11, -1, 11, 11, 11, -1,
 11, 11, 11, -1, 11, 11, 11, -1, 11, 11, 11, -1,
 11, 11, 11, -1, 11, 11, 11, -1, 11, 11, 11, -1,
 11, 11, 11, -1, 11, 11, 11, -1, 11, 11, 11, -1,
 11, 11, 11, -1, 11, 11, 11, -1, 11, 11, 11, -1,
 11, 11, 11, -1, 11, 11, 11, -1, 11, 11, 11, -1,
 11, 11, 11, -1, 11, 11, 11, -1, 11, 11, 11, -1,
 11, 11, 11, -1, 11, 11, 11, -1, 11, 11, 11, -1,
 11, 11, 11, -1, 11, 11, 11, -1, 11, 11, 11, -1,
 11, 11, 11, -1, 11, 11, 11, -1, 11, 11, 11, -1,
 11, 11, 11, -1, 11, 11, 11, -1, 11, 11, 11, -1,
 11, 11, 11, -1, 11, 11, 11, -1, 11, 11, 11, -1,
 11, 11, 11, -1, 11, 11, 11, -1, 11, 11, 11, -1,
 11, 11, 11, -1, 11, 11, 11, -1, 11, 11, 11, -1,
 11, 11, 11, -1, 11, 11, 11, -1, 11, 11, 11, -1,
 11, 11, 11, -1, 11, 11, 11, -1, 11, 11, 11, -1,
 11, 11, 11, -1, 11, 11, 11, -1, 11, 11, 11, -1,
 11, 11, 11, -1, 11, 11, 11, -1, 11, 11, 11, -1,
 11, 11, 11, -1, 11, 11, 11, -1, 11, 11, 11, -1,
 11, 11, 11, -1, 11, 11, 11, -1, 11, 11, 11, -1,
 11, 11, 11, -1, 11, 11, 11, -1, 11, 11, 11, -1,
 11, 11, 11, -1, 11, 11, 11, -1, 11, 11, 11, -1,
 11, 11, 11, -1, 11, 11, 11, -1, 11, 11, 11, -1,
 11, 11, 11, -1, 11, 11, 11, -1, 11, 11, 11, -1,
 11, 11, 11, -1, 11, 11, 11, -1, 11, 11, 11, -1,
 11, 11, 11, -1, 11, 11, 11, -1, 11, 11, 11, -1,
 11, 11, 11, -1, 11, 11, 11, -1, 11, 11, 11, -1,
 11, 11, 11, -1, 11, 11, 11, -1, 11, 11, 11, -1,
 11, 11, 11, -1, 11, 11, 11, -1, 11, 11, 11, -1,
 11, 11, 11, -1, 11, 11, 11, -1, 11, 11, 11, -1,
 11, 11, 11, -1, 11, 11, 11, -1, 11, 11, 11, -1,
 11, 11, 11, -1, 11, 11, 11, -1, 11, 11, 11, -1,
 11, 11, 11, -1, 11, 11, 11, -1, 11, 11, 11, -1,
 11, 11, 11, -1, 11, 11, 11, -1, 11, 11, 11, -1,
 11, 11, 11, -1, 11, 11, 11, -1, 11, 11, 11, -1,
 11, 11, 11, -1, 11, 11, 11, -1, 11, 11, 11, -1,
 11, 11, 11, -1, 11, 11, 11, -1, 11, 11, 11, -1,
 11, 11, 11, -1, 11, 11, 11, -1, 11, 11, 11, -1,
 11, 11, 11, -1, 11, 11, 11, -1, 11, 11, 11, -1,
 11, 11, 11, -1, 11, 11, 11, -1, 11, 11, 11, -1,
 11, 11, 11, -1, 11, 11, 11, -1, 11, 11, 11, -1,
 11, 11, 11, -1, 11, 11, 11, -1, 11, 11, 11, -1,
 11, 11, 11, -1, 11, 11, 11, -1, 11, 11, 11, -1,
 11, 11, 11, -1, 11, 11, 11, -1, 11, 11, 11, -1,
 11, 11, 11, -1, 11, 11, 11, -1, 11, 11, 11, -1,
 11, 11, 11, -1, 11, 11, 11, -1, 11, 11, 11, -1,
 11, 11, 11, -1, 11, 11, 11, -1, 14, 14, 14, -1,
 14, 14, 14, -1, 14, 14, 14, -1, 14, 14, 14, -1,
 14, 14, 14, -1, 14, 14, 14, -1, 14, 14, 14, -1,
 14, 14, 14, -1, 14, 14, 14, -1, 14, 14, 14, -1,
 14, 14, 14, -1, 14, 14, 14, -1, 14, 14, 14, -1,
 14, 14, 14, -1, 14, 14, 14, -1, 14, 14, 14, -1,
 14, 14, 14, -1, 14, 14, 14, -1, 14, 14, 14, -1,
 14, 14, 14, -1, 14, 14, 14, -1, 14, 14, 14, -1,
 14, 14, 14, -1, 14, 14, 14, -1, 14, 14, 14, -1,
 14, 14, 14, -1, 14, 14, 14, -1, 14, 14, 14, -1,
 14, 14, 14, -1, 14, 14, 14, -1, 14, 14, 14, -1,
 14, 14, 14, -1, 14, 14, 14, -1, 14, 14, 14, -1,
 14, 14, 14, -1, 14, 14, 14, -1, 14, 14, 14, -1,
 14, 14, 14, -1, 14, 14, 14, -1, 14, 14, 14, -1,
 14, 14, 14, -1, 14, 14, 14, -1, 14, 14, 14, -1,
 14, 14, 14, -1, 14, 14, 14, -1, 14, 14, 14, -1,
 14, 14, 14, -1, 14, 14, 14, -1, 14, 14, 14, -1,
 14, 14, 14, -1, 14, 14, 14, -1, 14, 14, 14, -1,
 14, 14, 14, -1, 14, 14, 14, -1, 14, 14, 14, -1,
 14, 14, 14, -1, 14, 14, 14, -1, 14, 14, 14, -1,
 14, 14, 14, -1, 14, 14, 14, -1, 14, 14, 14, -1,
 14, 14, 14, -1, 14, 14, 14, -1, 14, 14, 14, -1,
 14, 14, 14, -1, 14, 14, 14, -1, 14, 14, 14, -1,
 14, 14, 14, -1, 14, 14, 14, -1, 14, 14, 14, -1,
 14, 14, 14, -1, 14, 14, 14, -1, 14, 14, 14, -1,
 14, 14, 14, -1, 14, 14, 14, -1, 14, 14, 14, -1,
 14, 14, 14, -1, 14, 14, 14, -1, 14, 14, 14, -1,
 14, 14, 14, -1, 14, 14, 14, -1, 14, 14, 14, -1,
 14, 14, 14, -1, 14, 14, 14, -1, 14, 14, 14, -1,
 14, 14, 14, -1, 14, 14, 14, -1, 14, 14, 14, -1,
 14, 14, 14, -1, 14, 14, 14, -1, 14, 14, 14, -1,
 14, 14, 14, -1, 14, 14, 14, -1, 14, 14, 14, -1,
 14, 14, 14, -1, 14, 14, 14, -1, 14, 14, 14, -1,
 14, 14, 14, -1, 14, 14, 14, -1, 14, 14, 14, -1,
 14, 14, 14, -1, 14, 14, 14, -1, 14, 14, 14, -1,
 14, 14, 14, -1, 14, 14, 14, -1, 14, 14, 14, -1,
 14, 14, 14, -1, 14, 14, 14, -1, 14, 14, 14, -1,
 14, 14, 14, -1, 14, 14, 14, -1, 14, 14, 14, -1,
 14, 14, 14, -1, 14, 14, 14, -1, 14, 14, 14, -1,
 14, 14, 14, -1, 14, 14, 14, -1, 14, 14, 14, -1,
 14, 14, 14, -1, 14, 14, 14, -1, 14, 14, 14, -1,
 14, 14, 14, -1, 14, 14, 14, -1, 14, 14, 14, -1,
 14, 14, 14, -1, 14, 14, 14, -1, 14, 14, 14, -1,
 14, 14, 14, -1, 14, 14, 14, -1, 14, 14, 14, -1,
 14, 14, 14, -1, 14, 14, 14, -1, 14, 14, 14, -1,
 14, 14, 14, -1, 14, 14, 14, -1, 14, 14, 14, -1,
 14, 14, 14, -1, 14, 14, 14, -1, 14, 14, 14, -1,
 14, 14, 14, -1, 14, 14, 14, -1, 14, 14, 14, -1,
 14, 14, 14, -1, 14, 14, 14, -1, 14, 14, 14, -1,
 14, 14, 14, -1, 13, 13, 13, -1, 13, 13, 13, -1,
 13, 13, 13, -1, 13, 13, 13, -1, 13, 13, 13, -1,
 13, 13, 13, -1, 12, 12, 12, -1, 12, 12, 12, -1,
 12, 12, 12, -1, 12, 12, 12, -1, 12, 12, 12, -1,
 12, 12, 12, -1, 0, 0, 0, -1, 0, 0, 0, -1,
 0, 0, 0, -1, 0, 0, 0, -1, 0, 0, 0, -1,
 0, 0, 0, -1, 0, 0, 0, -1, 0, 0, 0, -1,
 13, 13, 13, -1, 13, 13, 13, -1, 13, 13, 13, -1,
 13, 13, 13, -1, 13, 13, 13, -1, 13, 13, 13, -1,
 13, 13, 13, -1, 13, 13, 13, -1, 13, 13, 13, -1,
 13, 13, 13, -1, 25, 25, 25, -1, 25, 25, 25, -1,
 25, 25, 25, -1, 25, 25, 25, -1, 25, 25, 25, -1,
 25, 25, 25, -1, 25, 25, 25, -1, 25, 25, 25, -1,
 12, 12, 12, -1, 12, 12, 12, -1, 0, 0, 0, -1,
 0, 0, 0, -1, 25, 25, 25, -1, 25, 25, 25, -1,
 14, 14, 14, -1, 14, 14, 14, -1, 14, 14, 14, -1,
 14, 14, 14, -1, 14, 14, 14, -1, 14, 14, 14, -1,
 14, 14, 14, -1, 14, 14, 14, -1, 14, 14, 14, -1,
 14, 14, 14, -1, 14, 14, 14, -1, 14, 14, 14, -1,
 14, 14, 14, -1, 14, 14, 14, -1, 14, 14, 14, -1,
 14, 14, 14, -1, 14, 14, 14, -1, 14, 14, 14, -1,
 14, 14, 14, -1, 14, 14, 14, -1, 14, 14, 14, -1,
 14, 14, 14, -1, 14, 14, 14, -1, 14, 14, 14, -1,
 14, 14, 14, -1, 14, 14, 14, -1, 14, 14, 14, -1,
 14, 14, 14, -1, 14, 14, 14, -1, 14, 14, 14, -1,
 14, 14, 14, -1, 14, 14, 14, -1, 0, 0, 0, -1,
 0, 0, 0, -1, 25, 25, 25, -1, 25, 25, 25, -1,
 14, 14, 14, -1, 14, 14, 14, -1, 9, 9, 7, -1,
 7, 9, 7, -1, 7, 7, 5, -1, 5, 7, 5, -1,
 5, 5, 3, -1, 3, 5, 3, -1, 3, 3, 1, -1,
 1, 3, 1, -1, 1, 1, 0, -1, 0, 1, 0, -1,
 0, 0, 2, -1, 2, 0, 2, -1, 2, 2, 4, -1,
 4, 2, 4, -1, 4, 4, 6, -1, 6, 4, 6, -1,
 6, 6, 8, -1, 8, 6, 8, -1, 8, 8, 10, -1,
 10, 8, 10, -1, 10, 10, 13, -1, 13, 10, 13, -1,
 13, 13, 16, -1, 16, 13, 16, -1, 16, 16, 18, -1,
 18, 16, 18, -1, 18, 18, 20, -1, 20, 18, 20, -1,
 20, 20, 22, -1, 22, 20, 22, -1, 22, 22, 24, -1,
 24, 22, 24, -1, 16, 16, 18, -1, 18, 16, 18, -1,
 18, 18, 20, -1, 20, 18, 20, -1, 20, 20, 22, -1,
 22, 20, 22, -1, 22, 22, 24, -1, 24, 22, 24, -1,
 24, 24, 25, -1, 25, 24, 25, -1, 25, 25, 23, -1,
 23, 25, 23, -1, 23, 23, 21, -1, 21, 23, 21, -1,
 21, 21, 19, -1, 19, 21, 19, -1, 19, 19, 17, -1,
 17, 19, 17, -1, 17, 17, 15, -1, 15, 17, 15, -1,
 15, 15, 12, -1, 12, 15, 12, -1, 12, 12, 9, -1,
 9, 12, 9, -1, 9, 9, 7, -1, 7, 9, 7, -1,
 7, 7, 5, -1, 5, 7, 5, -1, 5, 5, 3, -1,
 3, 5, 3, -1, 3, 3, 1, -1, 1, 3, 1, -1,
 16, 16, 18, -1, 18, 16, 18, -1, 18, 18, 20, -1,
 20, 18, 20, -1, 20, 20, 22, -1, 22, 20, 22, -1,
 22, 22, 24, -1, 24, 22, 24, -1, 24, 24, 25, -1,
 25, 24, 25, -1, 25, 25, 23, -1, 23, 25, 23, -1,
 23, 23, 21, -1, 21, 23, 21, -1, 21, 21, 19, -1,
 19, 21, 19, -1, 19, 19, 17, -1, 17, 19, 17, -1,
 17, 17, 15, -1, 15, 17, 15, -1, 15, 15, 12, -1,
 12, 15, 12, -1, 12, 12, 9, -1, 9, 12, 9, -1,
 9, 9, 7, -1, 7, 9, 7, -1, 7, 7, 5, -1,
 5, 7, 5, -1, 5, 5, 3, -1, 3, 5, 3, -1,
 3, 3, 1, -1, 1, 3, 1, -1, 9, 9, 7, -1,
 7, 9, 7, -1, 7, 7, 5, -1, 5, 7, 5, -1,
 5, 5, 3, -1, 3, 5, 3, -1, 3, 3, 1, -1,
 1, 3, 1, -1, 1, 1, 0, -1, 0, 1, 0, -1,
 0, 0, 2, -1, 2, 0, 2, -1, 2, 2, 4, -1,
 4, 2, 4, -1, 4, 4, 6, -1, 6, 4, 6, -1,
 6, 6, 8, -1, 8, 6, 8, -1, 8, 8, 10, -1,
 10, 8, 10, -1, 10, 10, 13, -1, 13, 10, 13, -1,
 13, 13, 16, -1, 16, 13, 16, -1, 16, 16, 18, -1,
 18, 16, 18, -1, 18, 18, 20, -1, 20, 18, 20, -1,
 20, 20, 22, -1, 22, 20, 22, -1, 22, 22, 24, -1,
 24, 22, 24, -1, 2, 2, 4, -1, 4, 2, 4, -1,
 4, 4, 6, -1, 6, 4, 6, -1, 6, 6, 8, -1,
 8, 6, 8, -1, 8, 8, 10, -1, 10, 8, 10, -1,
 10, 10, 13, -1, 13, 10, 13, -1, 13, 13, 16, -1,
 16, 13, 16, -1, 16, 16, 18, -1, 18, 16, 18, -1,
 18, 18, 20, -1, 20, 18, 20, -1, 20, 20, 22, -1,
 22, 20, 22, -1, 22, 22, 24, -1, 24, 22, 24, -1,
 24, 24, 25, -1, 25, 24, 25, -1, 25, 25, 23, -1,
 23, 25, 23, -1, 23, 23, 21, -1, 21, 23, 21, -1,
 21, 21, 19, -1, 19, 21, 19, -1, 19, 19, 17, -1,
 17, 19, 17, -1, 17, 17, 15, -1, 15, 17, 15, -1,
 23, 23, 21, -1, 21, 23, 21, -1, 21, 21, 19, -1,
 19, 21, 19, -1, 19, 19, 17, -1, 17, 19, 17, -1,
 17, 17, 15, -1, 15, 17, 15, -1, 15, 15, 12, -1,
 12, 15, 12, -1, 12, 12, 9, -1, 9, 12, 9, -1,
 9, 9, 7, -1, 7, 9, 7, -1, 7, 7, 5, -1,
 5, 7, 5, -1, 5, 5, 3, -1, 3, 5, 3, -1,
 3, 3, 1, -1, 1, 3, 1, -1, 1, 1, 0, -1,
 0, 1, 0, -1, 0, 0, 2, -1, 2, 0, 2, -1,
 2, 2, 4, -1, 4, 2, 4, -1, 4, 4, 6, -1,
 6, 4, 6, -1, 6, 6, 8, -1, 8, 6, 8, -1,
 8, 8, 10, -1, 10, 8, 10, -1, 2, 2, 4, -1,
 4, 2, 4, -1, 4, 4, 6, -1, 6, 4, 6, -1,
 6, 6, 8, -1, 8, 6, 8, -1, 8, 8, 10, -1,
 10, 8, 10, -1, 10, 10, 13, -1, 13, 10, 13, -1,
 13, 13, 16, -1, 16, 13, 16, -1, 16, 16, 18, -1,
 18, 16, 18, -1, 18, 18, 20, -1, 20, 18, 20, -1,
 20, 20, 22, -1, 22, 20, 22, -1, 22, 22, 24, -1,
 24, 22, 24, -1, 24, 24, 25, -1, 25, 24, 25, -1,
 25, 25, 23, -1, 23, 25, 23, -1, 23, 23, 21, -1,
 21, 23, 21, -1, 21, 21, 19, -1, 19, 21, 19, -1,
 19, 19, 17, -1, 17, 19, 17, -1, 17, 17, 15, -1,
 15, 17, 15, -1, 23, 23, 21, -1, 21, 23, 21, -1,
 21, 21, 19, -1, 19, 21, 19, -1, 19, 19, 17, -1,
 17, 19, 17, -1, 17, 17, 15, -1, 15, 17, 15, -1,
 15, 15, 12, -1, 12, 15, 12, -1, 12, 12, 9, -1,
 9, 12, 9, -1, 9, 9, 7, -1, 7, 9, 7, -1,
 7, 7, 5, -1, 5, 7, 5, -1, 5, 5, 3, -1,
 3, 5, 3, -1, 3, 3, 1, -1, 1, 3, 1, -1,
 1, 1, 0, -1, 0, 1, 0, -1, 0, 0, 2, -1,
 2, 0, 2, -1, 2, 2, 4, -1, 4, 2, 4, -1,
 4, 4, 6, -1, 6, 4, 6, -1, 6, 6, 8, -1,
 8, 6, 8, -1, 8, 8, 10, -1, 10, 8, 10, -1,
 6, 6, 6, -1, 6, 6, 6, -1, 5, 5, 5, -1,
 5, 5, 5, -1, 19, 19, 19, -1, 19, 19, 19, -1,
 20, 20, 20, -1, 20, 20, 20, -1, 11, 11, 11, -1,
 11, 11, 11, -1, 19, 19, 19, -1, 19, 19, 19, -1,
 20, 20, 20, -1, 20, 20, 20, -1, 6, 6, 6, -1,
 6, 6, 6, -1, 5, 5, 5, -1, 5, 5, 5, -1,
 11, 11, 11, -1, 11, 11, 11, -1, 19, 19, 19, -1,
 19, 19, 19, -1, 20, 20, 20, -1, 20, 20, 20, -1,
 6, 6, 6, -1, 6, 6, 6, -1, 5, 5, 5, -1,
 5, 5, 5, -1, 11, 11, 11, -1, 11, 11, 11, -1,
 6, 6, 6, -1, 6, 6, 6, -1, 5, 5, 5, -1,
 5, 5, 5, -1, 19, 19, 19, -1, 19, 19, 19, -1,
 20, 20, 20, -1, 20, 20, 20, -1, 11, 11, 11, -1,
 11, 11, 11, -1, 19, 19, 19, -1, 19, 19, 19, -1,
 20, 20, 20, -1, 20, 20, 20, -1, 6, 6, 6, -1,
 6, 6, 6, -1, 5, 5, 5, -1, 5, 5, 5, -1,
 11, 11, 11, -1, 11, 11, 11, -1, 6, 6, 6, -1,
 6, 6, 6, -1, 5, 5, 5, -1, 5, 5, 5, -1,
 19, 19, 19, -1, 19, 19, 19, -1, 20, 20, 20, -1,
 20, 20, 20, -1, 11, 11, 11, -1, 11, 11, 11, -1,
 6, 6, 6, -1, 6, 6, 6, -1, 5, 5, 5, -1,
 5, 5, 5, -1, 19, 19, 19, -1, 19, 19, 19, -1,
 20, 20, 20, -1, 20, 20, 20, -1, 11, 11, 11, -1,
 11, 11, 11, -1, 19, 19, 19, -1, 19, 19, 19, -1,
 20, 20, 20, -1, 20, 20, 20, -1, 6, 6, 6, -1,
 6, 6, 6, -1, 5, 5, 5, -1, 5, 5, 5, -1,
 11, 11, 11, -1, 11, 11, 11, -1, 25, 25, 25, -1,
 25, 25, 25, -1, 13, 13, 13, -1, 13, 13, 13, -1,
 0, 0, 0, -1, 0, 0, 0, -1, 12, 12, 12, -1,
 12, 12, 12, -1, 14, 14, 14, -1, 14, 14, 14, -1,
 14, 14, 14, -1, 14, 14, 14, -1, 14, 14, 14, -1,
 14, 14, 14, -1, 14, 14, 14, -1, 14, 14, 14, -1,
 14, 14, 14, -1, 14, 14, 14, -1, 14, 14, 14, -1,
 14, 14, 14, -1, 14, 14, 14, -1, 14, 14, 14, -1,
 14, 14, 14, -1, 14, 14, 14, -1, 14, 14, 14, -1,
 14, 14, 14, -1, 14, 14, 14, -1, 14, 14, 14, -1,
 14, 14, 14, -1, 14, 14, 14, -1, 14, 14, 14, -1,
 14, 14, 14, -1, 14, 14, 14, -1, 14, 14, 14, -1,
 0, 0, 1, -1, 1, 0, 1, -1, 1, 1, 3, -1,
 3, 1, 3, -1, 3, 3, 5, -1, 5, 3, 5, -1,
 5, 5, 7, -1, 7, 5, 7, -1, 7, 7, 9, -1,
 9, 7, 9, -1, 9, 9, 12, -1, 12, 9, 12, -1,
 12, 12, 15, -1, 15, 12, 15, -1, 15, 15, 17, -1,
 17, 15, 17, -1, 17, 17, 19, -1, 19, 17, 19, -1,
 19, 19, 21, -1, 21, 19, 21, -1, 21, 21, 23, -1,
 23, 21, 23, -1, 23, 23, 25, -1, 25, 23, 25, -1,
 13, 13, 10, -1, 10, 13, 10, -1, 10, 10, 8, -1,
 8, 10, 8, -1, 8, 8, 6, -1, 6, 8, 6, -1,
 6, 6, 4, -1, 4, 6, 4, -1, 4, 4, 2, -1,
 2, 4, 2, -1, 2, 2, 0, -1, 0, 2, 0, -1,
 25, 25, 24, -1, 24, 25, 24, -1, 24, 24, 22, -1,
 22, 24, 22, -1, 22, 22, 20, -1, 20, 22, 20, -1,
 20, 20, 18, -1, 18, 20, 18, -1, 18, 18, 16, -1,
 16, 18, 16, -1, 16, 16, 13, -1, 13, 16, 13, -1
]
colorPerVertex FALSE
normalPerVertex TRUE
}
}
]
}
