#VRML V2.0 utf8
Transform {
children [
Shape {
appearance Appearance {
material Material {
ambientIntensity 1.000000
diffuseColor 1.000000 1.000000 1.000000
emissiveColor 0.210000 0.210000 0.210000
specularColor 0.880000 0.880000 0.880000
shininess 0.210000
transparency 0.000000
}
}
geometry IndexedFaceSet {
color Color {
color [
 1.000000 1.000000 1.000000
]
}
coord Coordinate {
point [
 -0.055000 0.000000 -0.014000, -0.055000 0.000000 0.014000, -0.055000 0.006052 -0.014000, -0.055000 0.006052 0.014000, -0.053000 0.000000 -0.016000,
 -0.053000 0.000000 0.016000, -0.053000 0.005006 -0.016000, -0.053000 0.005006 0.016000, -0.052750 -0.000000 -0.016000, -0.052750 0.000000 0.016000,
 -0.052000 0.000937 -0.016000, -0.052000 0.000937 0.016000, -0.051250 -0.000000 -0.016000, -0.051250 0.000000 0.016000, -0.050500 -0.000000 -0.016000,
 -0.050500 0.000000 0.016000, -0.049750 0.000937 -0.016000, -0.049750 0.000937 0.016000, -0.049000 -0.000000 -0.016000, -0.049000 0.000000 0.016000,
 -0.048250 -0.000000 -0.016000, -0.048250 0.000000 0.016000, -0.047500 0.000937 -0.016000, -0.047500 0.000937 0.016000, -0.046750 -0.000000 -0.016000,
 -0.046750 0.000000 0.016000, -0.046000 -0.000000 -0.016000, -0.046000 0.000000 0.016000, -0.045250 0.000937 -0.016000, -0.045250 0.000937 0.016000,
 -0.044500 -0.000000 -0.016000, -0.044500 0.000000 0.016000, -0.043750 -0.000000 -0.016000, -0.043750 0.000000 0.016000, -0.043000 0.000937 -0.016000,
 -0.043000 0.000937 0.016000, -0.042250 -0.000000 -0.016000, -0.042250 0.000000 0.016000, -0.040000 0.000000 -0.016000, -0.040000 0.000000 0.016000,
 -0.038509 0.002185 -0.016000, -0.038509 0.002185 0.016000, -0.036703 0.004119 -0.016000, -0.036703 0.004119 0.016000, -0.034625 0.005757 -0.016000,
 -0.034625 0.005757 0.016000, -0.032322 0.007061 -0.016000, -0.032322 0.007061 0.016000, -0.032037 0.022000 -0.014000, -0.032037 0.022000 0.014000,
 -0.031411 0.020000 -0.016000, -0.031411 0.020000 0.016000, -0.029849 0.008000 -0.016000, -0.029849 0.008000 0.016000, -0.027262 0.008554 -0.016000,
 -0.027262 0.008554 0.016000, -0.024620 0.008708 -0.016000, -0.024620 0.008708 0.016000, -0.021986 0.008461 -0.016000, -0.021986 0.008461 0.016000,
 -0.019420 0.007817 -0.016000, -0.019420 0.007817 0.016000, -0.016981 0.006791 -0.016000, -0.016981 0.006791 0.016000, -0.014726 0.005407 -0.016000,
 -0.014726 0.005407 0.016000, -0.012707 0.003697 -0.016000, -0.012707 0.003697 0.016000, -0.011709 0.002626 -0.011750, -0.011709 0.002626 0.011750,
 -0.011056 0.004666 -0.011750, -0.011056 0.004666 0.011750, -0.010971 0.001700 -0.016000, -0.010971 0.001700 -0.011750, -0.010971 0.001700 0.011750,
 -0.010971 0.001700 0.016000, -0.010049 0.006558 -0.011750, -0.010049 0.006558 0.011750, -0.009557 -0.000536 -0.016000, -0.009557 -0.000536 -0.011750,
 -0.009557 -0.000536 0.011750, -0.009557 -0.000536 0.016000, -0.008723 0.008241 -0.011750, -0.008723 0.008241 0.011750, -0.008499 -0.002961 -0.016000,
 -0.008499 -0.002961 -0.011750, -0.008499 -0.002961 0.011750, -0.008499 -0.002961 0.016000, -0.007646 -0.004747 -0.016000, -0.007646 -0.004747 -0.011750,
 -0.007646 -0.004747 0.011750, -0.007646 -0.004747 0.016000, -0.007118 0.009661 -0.011750, -0.007118 0.009661 0.011750, -0.006424 -0.006303 -0.016000,
 -0.006424 -0.006303 -0.011750, -0.006424 -0.006303 0.011750, -0.006424 -0.006303 0.016000, -0.005287 0.010773 -0.011750, -0.005287 0.010773 0.011750,
 -0.005200 0.000000 -0.016000, -0.005200 0.000000 -0.011750, -0.005200 0.000000 0.011750, -0.005200 0.000000 0.016000, -0.005023 -0.001346 -0.016000,
 -0.005023 -0.001346 -0.011750, -0.005023 -0.001346 0.011750, -0.005023 -0.001346 0.016000, -0.005023 0.001346 -0.016000, -0.005023 0.001346 -0.011750,
 -0.005023 0.001346 0.011750, -0.005023 0.001346 0.016000, -0.004892 -0.007555 -0.016000, -0.004892 -0.007555 -0.011750, -0.004892 -0.007555 0.011750,
 -0.004892 -0.007555 0.016000, -0.004503 -0.002600 -0.016000, -0.004503 -0.002600 -0.011750, -0.004503 -0.002600 0.011750, -0.004503 -0.002600 0.016000,
 -0.004503 0.002600 -0.016000, -0.004503 0.002600 -0.011750, -0.004503 0.002600 0.011750, -0.004503 0.002600 0.016000, -0.003677 -0.003677 -0.016000,
 -0.003677 -0.003677 -0.011750, -0.003677 -0.003677 0.011750, -0.003677 -0.003677 0.016000, -0.003677 0.003677 -0.016000, -0.003677 0.003677 -0.011750,
 -0.003677 0.003677 0.011750, -0.003677 0.003677 0.016000, -0.003286 0.011541 -0.011750, -0.003286 0.011541 0.011750, -0.003122 -0.008441 -0.016000,
 -0.003122 -0.008441 -0.011750, -0.003122 -0.008441 0.011750, -0.003122 -0.008441 0.016000, -0.002600 -0.004503 -0.016000, -0.002600 -0.004503 -0.011750,
 -0.002600 -0.004503 0.011750, -0.002600 -0.004503 0.016000, -0.002600 0.004503 -0.016000, -0.002600 0.004503 -0.011750, -0.002600 0.004503 0.011750,
 -0.002600 0.004503 0.016000, -0.001346 -0.005023 -0.016000, -0.001346 -0.005023 -0.011750, -0.001346 -0.005023 0.011750, -0.001346 -0.005023 0.016000,
 -0.001346 0.005023 -0.016000, -0.001346 0.005023 -0.011750, -0.001346 0.005023 0.011750, -0.001346 0.005023 0.016000, -0.001202 -0.008919 -0.016000,
 -0.001202 -0.008919 -0.011750, -0.001202 -0.008919 0.011750, -0.001202 -0.008919 0.016000, -0.001181 0.011942 -0.011750, -0.001181 0.011942 0.011750,
 -0.000000 -0.005200 -0.016000, -0.000000 -0.005200 -0.011750, -0.000000 -0.005200 0.011750, -0.000000 -0.005200 0.016000, 0.000000 0.005200 -0.016000,
 0.000000 0.005200 -0.011750, 0.000000 0.005200 0.011750, 0.000000 0.005200 0.016000, 0.000776 -0.008967 -0.016000, 0.000776 -0.008967 -0.011750,
 0.000776 -0.008967 0.011750, 0.000776 -0.008967 0.016000, 0.000961 0.011961 -0.011750, 0.000961 0.011961 0.011750, 0.001346 -0.005023 -0.016000,
 0.001346 -0.005023 -0.011750, 0.001346 -0.005023 0.011750, 0.001346 -0.005023 0.016000, 0.001346 0.005023 -0.016000, 0.001346 0.005023 -0.011750,
 0.001346 0.005023 0.011750, 0.001346 0.005023 0.016000, 0.002600 -0.004503 -0.016000, 0.002600 -0.004503 -0.011750, 0.002600 -0.004503 0.011750,
 0.002600 -0.004503 0.016000, 0.002600 0.004503 -0.016000, 0.002600 0.004503 -0.011750, 0.002600 0.004503 0.011750, 0.002600 0.004503 0.016000,
 0.002716 -0.008580 -0.016000, 0.002716 -0.008580 -0.011750, 0.002716 -0.008580 0.011750, 0.002716 -0.008580 0.016000, 0.003073 0.011600 -0.011750,
 0.003073 0.011600 0.011750, 0.003677 -0.003677 -0.016000, 0.003677 -0.003677 -0.011750, 0.003677 -0.003677 0.011750, 0.003677 -0.003677 0.016000,
 0.003677 0.003677 -0.016000, 0.003677 0.003677 -0.011750, 0.003677 0.003677 0.011750, 0.003677 0.003677 0.016000, 0.004178 0.011249 -0.007500,
 0.004178 0.011249 0.007500, 0.004503 -0.002600 -0.016000, 0.004503 -0.002600 -0.011750, 0.004503 -0.002600 0.011750, 0.004503 -0.002600 0.016000,
 0.004503 0.002600 -0.016000, 0.004503 0.002600 -0.011750, 0.004503 0.002600 0.011750, 0.004503 0.002600 0.016000, 0.004526 -0.007779 -0.016000,
 0.004526 -0.007779 -0.011750, 0.004526 -0.007779 0.011750, 0.004526 -0.007779 0.016000, 0.005023 -0.001346 -0.016000, 0.005023 -0.001346 -0.011750,
 0.005023 -0.001346 0.011750, 0.005023 -0.001346 0.016000, 0.005023 0.001346 -0.016000, 0.005023 0.001346 -0.011750, 0.005023 0.001346 0.011750,
 0.005023 0.001346 0.016000, 0.005087 0.010868 -0.011750, 0.005087 0.010868 -0.007500, 0.005087 0.010868 0.007500, 0.005087 0.010868 0.011750,
 0.005200 -0.000000 -0.016000, 0.005200 -0.000000 -0.011750, 0.005200 -0.000000 0.011750, 0.005200 -0.000000 0.016000, 0.006116 -0.006602 -0.016000,
 0.006116 -0.006602 -0.011750, 0.006116 -0.006602 0.011750, 0.006116 -0.006602 0.016000, 0.006939 0.009790 -0.011750, 0.006939 0.009790 -0.007500,
 0.006939 0.009790 0.007500, 0.006939 0.009790 0.011750, 0.007411 -0.005106 -0.016000, 0.007411 -0.005106 -0.011750, 0.007411 -0.005106 0.011750,
 0.007411 -0.005106 0.016000, 0.008348 -0.003363 -0.016000, 0.008348 -0.003363 -0.011750, 0.008348 -0.003363 0.011750, 0.008348 -0.003363 0.016000,
 0.008570 0.008400 -0.011750, 0.008570 0.008400 -0.007500, 0.008570 0.008400 0.007500, 0.008570 0.008400 0.011750, 0.008881 -0.001458 -0.016000,
 0.008881 -0.001458 -0.011750, 0.008881 -0.001458 0.011750, 0.008881 -0.001458 0.016000, 0.009508 0.001250 -0.016000, 0.009508 0.001250 -0.011750,
 0.009508 0.001250 0.011750, 0.009508 0.001250 0.016000, 0.009927 0.006742 -0.011750, 0.009927 0.006742 -0.007500, 0.009927 0.006742 0.007500,
 0.009927 0.006742 0.011750, 0.010189 0.017260 -0.007500, 0.010189 0.017260 0.007500, 0.010283 0.018929 -0.007500, 0.010283 0.018929 0.007500,
 0.010479 0.003853 -0.016000, 0.010479 0.003853 -0.011750, 0.010479 0.003853 0.011750, 0.010479 0.003853 0.016000, 0.010743 0.020535 -0.007500,
 0.010743 0.020535 0.007500, 0.010968 0.004869 -0.011750, 0.010968 0.004869 -0.007500, 0.010968 0.004869 0.007500, 0.010968 0.004869 0.011750,
 0.011548 0.022000 -0.007500, 0.011548 0.022000 0.007500, 0.011779 0.006309 -0.016000, 0.011779 0.006309 -0.007500, 0.011779 0.006309 0.007500,
 0.011779 0.006309 0.016000, 0.013355 0.017678 -0.016000, 0.013355 0.017678 -0.012000, 0.013356 0.017717 0.012000, 0.013356 0.017717 0.016000,
 0.013386 0.008576 -0.016000, 0.013386 0.008576 -0.007500, 0.013386 0.008576 0.007500, 0.013386 0.008576 0.016000, 0.013453 0.016766 0.012000,
 0.013453 0.016766 0.016000, 0.013457 0.016747 -0.016000, 0.013457 0.016747 -0.012000, 0.013464 0.018641 -0.016000, 0.013464 0.018641 -0.012000,
 0.013470 0.018666 0.012000, 0.013470 0.018666 0.016000, 0.013520 0.022000 -0.014000, 0.013520 0.022000 -0.012000, 0.013520 0.022000 0.012000,
 0.013520 0.022000 0.014000, 0.013595 0.021997 0.014003, 0.013697 0.021984 -0.014016, 0.013757 0.015859 -0.016000, 0.013757 0.015859 -0.012000,
 0.013757 0.015859 0.012000, 0.013757 0.015859 0.016000, 0.013765 0.021965 -0.014035, 0.013766 0.021969 -0.012000, 0.013778 0.021966 0.014034,
 0.013778 0.021966 0.012000, 0.013779 0.021966 0.014034, 0.013785 0.019555 -0.016000, 0.013785 0.019555 -0.012000, 0.013790 0.019567 0.012000,
 0.013790 0.019567 0.016000, 0.013884 0.021931 -0.014069, 0.013954 0.021901 0.014099, 0.013996 0.021873 -0.014127, 0.013998 0.021878 -0.012000,
 0.014017 0.021862 0.014138, 0.014020 0.021866 0.012000, 0.014032 0.020000 -0.016000, 0.014032 0.020000 0.016000, 0.014070 0.021835 -0.014165,
 0.014132 0.021791 0.014209, 0.014162 0.020191 -0.015809, 0.014162 0.020191 0.015809, 0.014197 0.021729 -0.014271, 0.014200 0.021733 -0.012000,
 0.014220 0.021701 0.014299, 0.014227 0.021707 0.012000, 0.014243 0.021691 -0.014309, 0.014301 0.020376 -0.015624, 0.014301 0.020376 -0.012000,
 0.014301 0.020376 0.012000, 0.014301 0.020376 0.015624, 0.014323 0.021595 0.014405, 0.014355 0.021538 -0.014462, 0.014360 0.021542 -0.012000,
 0.014377 0.021495 0.014505, 0.014386 0.021500 0.012000, 0.014394 0.021485 -0.014515, 0.014413 0.020569 0.015431, 0.014420 0.020566 0.012000,
 0.014424 0.020592 -0.015408, 0.014431 0.020588 -0.012000, 0.014449 0.020630 0.015370, 0.014455 0.020647 -0.015353, 0.014459 0.021343 0.014657,
 0.014464 0.021316 -0.014684, 0.014468 0.021318 -0.012000, 0.014474 0.021257 0.014743, 0.014482 0.020780 0.015220, 0.014482 0.021271 -0.014729,
 0.014486 0.021259 0.012000, 0.014492 0.020828 -0.015172, 0.014494 0.020777 0.012000, 0.014504 0.020826 -0.012000, 0.014506 0.021073 -0.014927,
 0.014517 0.021074 -0.012000, 0.014518 0.020948 0.015052, 0.014519 0.020960 -0.015040, 0.014520 0.021000 0.012000, 0.014520 0.021000 0.015000,
 0.015272 0.010617 -0.016000, 0.015272 0.010617 -0.007500, 0.015272 0.010617 0.007500, 0.015272 0.010617 0.016000, 0.015382 0.010721 -0.016000,
 0.015382 0.010721 -0.012000, 0.015382 0.010721 0.012000, 0.015382 0.010721 0.016000, 0.015542 0.010914 -0.016000, 0.015542 0.010914 -0.012000,
 0.015542 0.010914 0.012000, 0.015542 0.010914 0.016000, 0.015606 0.011872 -0.016000, 0.015606 0.011872 -0.012000, 0.015606 0.011872 0.012000,
 0.015606 0.011872 0.016000, 0.015649 0.011139 -0.016000, 0.015649 0.011139 -0.012000, 0.015649 0.011139 0.012000, 0.015649 0.011139 0.016000,
 0.015682 0.011634 -0.016000, 0.015682 0.011634 -0.012000, 0.015682 0.011634 0.012000, 0.015682 0.011634 0.016000, 0.015696 0.011384 -0.016000,
 0.015696 0.011384 -0.012000, 0.015696 0.011384 0.012000, 0.015696 0.011384 0.016000, 0.016228 0.017678 -0.012000, 0.016228 0.017678 -0.007500,
 0.016228 0.017678 0.007500, 0.016228 0.017678 0.012000, 0.016277 0.017302 -0.012000, 0.016277 0.017302 -0.007500, 0.016277 0.017302 0.007500,
 0.016277 0.017302 0.012000, 0.016277 0.018053 -0.012000, 0.016277 0.018053 -0.007500, 0.016277 0.018053 0.007500, 0.016277 0.018053 0.012000,
 0.016422 0.016953 -0.012000, 0.016422 0.016953 -0.007500, 0.016422 0.016953 0.007500, 0.016422 0.016953 0.012000, 0.016422 0.018403 -0.012000,
 0.016422 0.018403 -0.007500, 0.016422 0.018403 0.007500, 0.016422 0.018403 0.012000, 0.016652 0.016652 -0.012000, 0.016652 0.016652 -0.007500,
 0.016652 0.016652 0.007500, 0.016652 0.016652 0.012000, 0.016652 0.018703 -0.012000, 0.016652 0.018703 -0.007500, 0.016652 0.018703 0.007500,
 0.016652 0.018703 0.012000, 0.016953 0.016422 -0.012000, 0.016953 0.016422 -0.007500, 0.016953 0.016422 0.007500, 0.016953 0.016422 0.012000,
 0.016953 0.018933 -0.012000, 0.016953 0.018933 -0.007500, 0.016953 0.018933 0.007500, 0.016953 0.018933 0.012000, 0.017302 0.016277 -0.012000,
 0.017302 0.016277 -0.007500, 0.017302 0.016277 0.007500, 0.017302 0.016277 0.012000, 0.017302 0.019078 -0.012000, 0.017302 0.019078 -0.007500,
 0.017302 0.019078 0.007500, 0.017302 0.019078 0.012000, 0.017406 0.012397 -0.012000, 0.017406 0.012397 -0.007500, 0.017406 0.012397 0.007500,
 0.017406 0.012397 0.012000, 0.017678 0.016228 -0.012000, 0.017678 0.016228 -0.007500, 0.017678 0.016228 0.007500, 0.017678 0.016228 0.012000,
 0.017678 0.019128 -0.012000, 0.017678 0.019128 -0.007500, 0.017678 0.019128 0.007500, 0.017678 0.019128 0.012000, 0.017678 0.022000 -0.012000,
 0.017678 0.022000 -0.007500, 0.017678 0.022000 0.007500, 0.017678 0.022000 0.012000, 0.018053 0.016277 -0.012000, 0.018053 0.016277 -0.007500,
 0.018053 0.016277 0.007500, 0.018053 0.016277 0.012000, 0.018053 0.019078 -0.012000, 0.018053 0.019078 -0.007500, 0.018053 0.019078 0.007500,
 0.018053 0.019078 0.012000, 0.018403 0.016422 -0.012000, 0.018403 0.016422 -0.007500, 0.018403 0.016422 0.007500, 0.018403 0.016422 0.012000,
 0.018403 0.018933 -0.012000, 0.018403 0.018933 -0.007500, 0.018403 0.018933 0.007500, 0.018403 0.018933 0.012000, 0.018703 0.016652 -0.012000,
 0.018703 0.016652 -0.007500, 0.018703 0.016652 0.007500, 0.018703 0.016652 0.012000, 0.018703 0.018703 -0.012000, 0.018703 0.018703 -0.007500,
 0.018703 0.018703 0.007500, 0.018703 0.018703 0.012000, 0.018705 0.021876 -0.012000, 0.018705 0.021876 -0.007500, 0.018705 0.021876 0.007500,
 0.018705 0.021876 0.012000, 0.018933 0.016953 -0.012000, 0.018933 0.016953 -0.007500, 0.018933 0.016953 0.007500, 0.018933 0.016953 0.012000,
 0.018933 0.018403 -0.012000, 0.018933 0.018403 -0.007500, 0.018933 0.018403 0.007500, 0.018933 0.018403 0.012000, 0.019078 0.017302 -0.012000,
 0.019078 0.017302 -0.007500, 0.019078 0.017302 0.007500, 0.019078 0.017302 0.012000, 0.019078 0.018053 -0.012000, 0.019078 0.018053 -0.007500,
 0.019078 0.018053 0.007500, 0.019078 0.018053 0.012000, 0.019128 0.017678 -0.012000, 0.019128 0.017678 -0.007500, 0.019128 0.017678 0.007500,
 0.019128 0.017678 0.012000, 0.019674 0.021511 -0.012000, 0.019674 0.021511 -0.007500, 0.019674 0.021511 0.007500, 0.019674 0.021511 0.012000,
 0.019752 0.013886 -0.012000, 0.019752 0.013886 -0.007500, 0.019752 0.013886 0.007500, 0.019752 0.013886 0.012000, 0.020529 0.020926 -0.012000,
 0.020529 0.020926 -0.007500, 0.020529 0.020926 0.007500, 0.020529 0.020926 0.012000, 0.020594 0.014488 -0.012000, 0.020594 0.014488 -0.007500,
 0.020594 0.014488 0.007500, 0.020594 0.014488 0.012000, 0.021219 0.020155 -0.012000, 0.021219 0.020155 -0.007500, 0.021219 0.020155 0.007500,
 0.021219 0.020155 0.012000, 0.021269 0.015273 -0.012000, 0.021269 0.015273 -0.007500, 0.021269 0.015273 0.007500, 0.021269 0.015273 0.012000,
 0.021707 0.019242 -0.012000, 0.021707 0.019242 -0.007500, 0.021707 0.019242 0.007500, 0.021707 0.019242 0.012000, 0.021738 0.016196 -0.012000,
 0.021738 0.016196 -0.007500, 0.021738 0.016196 0.007500, 0.021738 0.016196 0.012000, 0.021963 0.018239 -0.012000, 0.021963 0.018239 -0.007500,
 0.021963 0.018239 0.007500, 0.021963 0.018239 0.012000, 0.021974 0.017204 -0.012000, 0.021974 0.017204 -0.007500, 0.021974 0.017204 0.007500,
 0.021974 0.017204 0.012000
]
}
normal Normal {
vector [
 -1.000000 0.000000 0.000000, -0.965926 -0.258819 0.000000, -0.965926 0.258819 0.000000, -0.944318 -0.329033 0.000000, -0.913990 -0.405736 0.000000,
 -0.883498 -0.468434 0.000000, -0.866025 -0.500000 0.000000, -0.866025 0.500000 0.000000, -0.849594 -0.527438 0.000000, -0.827259 -0.561821 0.000000,
 -0.802242 -0.596999 0.000000, -0.780625 -0.625000 0.000000, -0.759777 -0.650183 0.000000, -0.714150 -0.699993 0.000000, -0.713802 -0.700348 0.000000,
 -0.707107 -0.707107 0.000000, -0.707107 0.000000 -0.707107, -0.707107 0.000000 0.707107, -0.707107 0.707107 0.000000, -0.702428 -0.711755 0.000000,
 -0.586365 -0.810047 0.000000, -0.578270 -0.815845 0.000000, -0.570435 0.821343 0.000000, -0.543507 -0.839405 0.000000, -0.500000 -0.866025 0.000000,
 -0.500000 0.866025 0.000000, -0.456739 -0.889601 0.000000, -0.423953 -0.905684 0.000000, -0.403358 0.580777 -0.707107, -0.403358 0.580777 0.707107,
 -0.348174 -0.937430 0.000000, -0.346940 -0.937887 0.000000, -0.316548 -0.948577 0.000000, -0.258819 -0.965926 0.000000, -0.258819 0.965926 0.000000,
 -0.256118 -0.966646 0.000000, -0.169034 -0.985610 0.000000, -0.133604 -0.991035 0.000000, -0.080116 -0.996786 0.000000, -0.017611 -0.999845 0.000000,
 -0.000000 -1.000000 0.000000, 0.000000 0.000000 -1.000000, 0.000000 0.000000 1.000000, 0.000000 0.707107 -0.707107, 0.000000 0.707107 0.707107,
 0.000000 1.000000 0.000000, 0.075069 0.997178 0.000000, 0.086191 -0.996279 0.000000, 0.098440 -0.995143 0.000000, 0.134220 -0.990951 0.000000,
 0.176986 0.984213 0.000000, 0.237787 0.971317 0.000000, 0.246749 0.969079 0.000000, 0.246859 0.969051 0.000000, 0.258819 -0.965926 0.000000,
 0.258819 0.965926 0.000000, 0.258824 0.965924 0.000000, 0.259433 0.965761 0.000000, 0.273857 -0.961770 0.000000, 0.282947 -0.959136 0.000000,
 0.301819 -0.953365 0.000000, 0.364496 0.931205 0.000000, 0.425128 -0.905133 0.000000, 0.433891 0.900965 0.000000, 0.440543 -0.897732 0.000000,
 0.461933 0.886915 0.000000, 0.478437 0.878122 0.000000, 0.478530 0.878071 0.000000, 0.479985 -0.877276 0.000000, 0.499876 0.866097 0.000000,
 0.500000 -0.866025 0.000000, 0.500000 0.866025 0.000000, 0.502859 -0.864369 0.000000, 0.549911 0.835223 0.000000, 0.557475 -0.830194 0.000000,
 0.589369 -0.807864 0.000000, 0.593181 -0.805069 0.000000, 0.612411 0.790539 0.000000, 0.659580 0.751634 0.000000, 0.674823 -0.737980 0.000000,
 0.676927 -0.736050 0.000000, 0.679591 -0.733591 0.000000, 0.680403 0.732839 0.000000, 0.680578 0.732676 0.000000, 0.683716 -0.729749 0.000000,
 0.688861 -0.724893 0.000000, 0.707043 0.707171 0.000000, 0.707107 -0.707107 0.000000, 0.707107 0.707107 0.000000, 0.722977 0.690872 0.000000,
 0.726907 -0.686736 0.000000, 0.776792 -0.629757 0.000000, 0.780625 -0.625000 0.000000, 0.780720 -0.624881 0.000000, 0.781245 -0.624225 0.000000,
 0.803613 0.595152 0.000000, 0.813484 -0.581587 0.000000, 0.817231 -0.576311 0.000000, 0.819391 0.573236 0.000000, 0.823474 -0.567353 0.000000,
 0.830949 -0.556348 0.000000, 0.837454 -0.546507 0.000000, 0.840253 0.542195 0.000000, 0.840436 0.541910 0.000000, 0.843240 -0.537537 0.000000,
 0.843400 -0.537287 0.000000, 0.851687 -0.524052 0.000000, 0.865897 0.500222 0.000000, 0.866025 -0.500000 0.000000, 0.866025 0.500000 0.000000,
 0.866454 -0.499256 0.000000, 0.874486 0.485051 0.000000, 0.889514 -0.456908 0.000000, 0.899374 -0.437180 0.000000, 0.900697 -0.434449 0.000000,
 0.900926 -0.433974 0.000000, 0.907185 0.420731 0.000000, 0.911162 -0.412049 0.000000, 0.911425 -0.411466 0.000000, 0.912287 -0.409551 0.000000,
 0.921300 -0.388853 0.000000, 0.924561 -0.381034 0.000000, 0.927553 -0.373692 0.000000, 0.929151 -0.369701 0.000000, 0.932196 0.361953 0.000000,
 0.935797 -0.352538 0.000000, 0.939408 -0.342802 0.000000, 0.939513 0.342513 0.000000, 0.948094 0.317991 0.000000, 0.948175 0.317750 0.000000,
 0.950152 -0.311786 0.000000, 0.957577 -0.288177 0.000000, 0.962577 0.271009 0.000000, 0.965708 0.259632 0.000000, 0.965926 -0.258819 0.000000,
 0.965926 0.258819 0.000000, 0.973488 -0.228740 0.000000, 0.974835 -0.222928 0.000000, 0.974858 -0.222827 0.000000, 0.975770 -0.218800 0.000000,
 0.976521 0.215424 0.000000, 0.977491 0.210976 0.000000, 0.983154 0.182777 0.000000, 0.984680 -0.174368 0.000000, 0.984726 -0.174109 0.000000,
 0.985984 -0.166838 0.000000, 0.986796 -0.161967 0.000000, 0.991526 0.129907 0.000000, 0.993977 -0.109591 0.000000, 0.997250 0.074105 0.000000,
 0.997281 0.073692 0.000000, 0.997781 -0.066581 0.000000, 0.998451 0.055642 0.000000, 0.998640 -0.052135 0.000000, 0.999194 -0.040144 0.000000,
 0.999959 -0.009105 0.000000, 1.000000 -0.000000 0.000000
]
}
coordIndex [
 340, 349, 341, -1, 341, 349, 348, -1, 362, 368, 369, -1,
 369, 366, 362, -1, 362, 366, 358, -1, 362, 358, 349, -1,
 349, 358, 352, -1, 349, 352, 348, -1, 102, 103, 106, -1,
 106, 103, 107, -1, 106, 107, 118, -1, 118, 107, 119, -1,
 118, 119, 126, -1, 126, 119, 127, -1, 126, 127, 140, -1,
 140, 127, 141, -1, 140, 141, 148, -1, 148, 141, 149, -1,
 148, 149, 162, -1, 162, 149, 163, -1, 162, 163, 176, -1,
 176, 163, 177, -1, 176, 177, 184, -1, 184, 177, 185, -1,
 184, 185, 198, -1, 198, 185, 199, -1, 198, 199, 208, -1,
 208, 199, 209, -1, 208, 209, 220, -1, 220, 209, 221, -1,
 220, 221, 232, -1, 232, 221, 233, -1, 100, 101, 104, -1,
 104, 101, 105, -1, 104, 105, 116, -1, 116, 105, 117, -1,
 116, 117, 124, -1, 124, 117, 125, -1, 124, 125, 138, -1,
 138, 125, 139, -1, 138, 139, 146, -1, 146, 139, 147, -1,
 146, 147, 160, -1, 160, 147, 161, -1, 160, 161, 174, -1,
 174, 161, 175, -1, 174, 175, 182, -1, 182, 175, 183, -1,
 182, 183, 196, -1, 196, 183, 197, -1, 196, 197, 206, -1,
 206, 197, 207, -1, 206, 207, 218, -1, 218, 207, 219, -1,
 218, 219, 230, -1, 230, 219, 231, -1, 400, 401, 404, -1,
 404, 401, 405, -1, 404, 405, 412, -1, 412, 405, 413, -1,
 412, 413, 420, -1, 420, 413, 421, -1, 420, 421, 428, -1,
 428, 421, 429, -1, 428, 429, 436, -1, 436, 429, 437, -1,
 436, 437, 448, -1, 448, 437, 449, -1, 448, 449, 460, -1,
 460, 449, 461, -1, 460, 461, 468, -1, 468, 461, 469, -1,
 468, 469, 476, -1, 476, 469, 477, -1, 476, 477, 488, -1,
 488, 477, 489, -1, 488, 489, 496, -1, 496, 489, 497, -1,
 496, 497, 504, -1, 504, 497, 505, -1, 398, 399, 402, -1,
 402, 399, 403, -1, 402, 403, 410, -1, 410, 403, 411, -1,
 410, 411, 418, -1, 418, 411, 419, -1, 418, 419, 426, -1,
 426, 419, 427, -1, 426, 427, 434, -1, 434, 427, 435, -1,
 434, 435, 446, -1, 446, 435, 447, -1, 446, 447, 458, -1,
 458, 447, 459, -1, 458, 459, 466, -1, 466, 459, 467, -1,
 466, 467, 474, -1, 474, 467, 475, -1, 474, 475, 486, -1,
 486, 475, 487, -1, 486, 487, 494, -1, 494, 487, 495, -1,
 494, 495, 502, -1, 502, 495, 503, -1, 338, 339, 331, -1,
 331, 339, 318, -1, 331, 318, 327, -1, 287, 286, 299, -1,
 299, 286, 298, -1, 299, 298, 318, -1, 318, 298, 317, -1,
 318, 317, 327, -1, 282, 210, 200, -1, 26, 24, 28, -1,
 28, 24, 22, -1, 298, 186, 317, -1, 317, 186, 327, -1,
 16, 14, 12, -1, 8, 4, 10, -1, 10, 4, 6, -1,
 210, 282, 222, -1, 222, 282, 270, -1, 222, 270, 230, -1,
 230, 270, 258, -1, 230, 258, 218, -1, 150, 50, 164, -1,
 164, 50, 327, -1, 164, 327, 178, -1, 178, 327, 186, -1,
 150, 142, 50, -1, 50, 142, 128, -1, 50, 128, 120, -1,
 20, 18, 22, -1, 22, 18, 16, -1, 32, 30, 34, -1,
 34, 30, 28, -1, 34, 28, 50, -1, 50, 28, 22, -1,
 50, 22, 6, -1, 6, 22, 16, -1, 6, 16, 10, -1,
 10, 16, 12, -1, 382, 374, 308, -1, 308, 374, 370, -1,
 308, 370, 290, -1, 290, 282, 308, -1, 308, 282, 200, -1,
 308, 200, 296, -1, 296, 200, 186, -1, 296, 186, 286, -1,
 286, 186, 298, -1, 160, 154, 146, -1, 146, 154, 134, -1,
 146, 134, 138, -1, 138, 134, 112, -1, 138, 112, 124, -1,
 124, 112, 94, -1, 124, 94, 116, -1, 116, 94, 88, -1,
 116, 88, 104, -1, 104, 88, 84, -1, 104, 84, 100, -1,
 100, 84, 78, -1, 100, 78, 72, -1, 382, 390, 394, -1,
 394, 386, 382, -1, 382, 386, 378, -1, 382, 378, 374, -1,
 66, 120, 72, -1, 72, 120, 108, -1, 72, 108, 100, -1,
 38, 36, 40, -1, 40, 36, 34, -1, 40, 34, 42, -1,
 42, 34, 50, -1, 42, 50, 44, -1, 44, 50, 46, -1,
 258, 254, 218, -1, 218, 254, 246, -1, 218, 246, 206, -1,
 206, 246, 242, -1, 206, 242, 196, -1, 196, 242, 234, -1,
 196, 234, 182, -1, 182, 234, 214, -1, 182, 214, 174, -1,
 174, 214, 190, -1, 174, 190, 160, -1, 160, 190, 168, -1,
 160, 168, 154, -1, 58, 56, 50, -1, 66, 64, 120, -1,
 120, 64, 62, -1, 120, 62, 50, -1, 50, 62, 60, -1,
 50, 60, 58, -1, 56, 54, 50, -1, 50, 54, 52, -1,
 50, 52, 46, -1, 255, 254, 259, -1, 259, 254, 258, -1,
 259, 258, 271, -1, 271, 258, 270, -1, 271, 270, 276, -1,
 276, 270, 282, -1, 276, 282, 277, -1, 510, 511, 442, -1,
 442, 511, 443, -1, 442, 443, 375, -1, 375, 443, 371, -1,
 374, 375, 370, -1, 370, 375, 371, -1, 370, 371, 290, -1,
 290, 371, 291, -1, 290, 291, 282, -1, 282, 291, 283, -1,
 282, 283, 277, -1, 309, 308, 297, -1, 297, 308, 296, -1,
 297, 296, 287, -1, 287, 296, 286, -1, 511, 510, 518, -1,
 511, 518, 519, -1, 519, 518, 526, -1, 519, 526, 527, -1,
 527, 526, 534, -1, 527, 534, 535, -1, 535, 534, 542, -1,
 535, 542, 543, -1, 543, 542, 538, -1, 543, 538, 539, -1,
 539, 538, 530, -1, 539, 530, 531, -1, 531, 530, 522, -1,
 531, 522, 523, -1, 523, 522, 514, -1, 523, 514, 515, -1,
 515, 514, 506, -1, 515, 506, 507, -1, 507, 506, 482, -1,
 507, 482, 483, -1, 483, 482, 454, -1, 483, 454, 455, -1,
 502, 503, 498, -1, 498, 503, 499, -1, 498, 499, 490, -1,
 490, 499, 491, -1, 490, 491, 478, -1, 478, 491, 479, -1,
 478, 479, 470, -1, 470, 479, 471, -1, 470, 471, 462, -1,
 462, 471, 463, -1, 462, 463, 450, -1, 450, 463, 451, -1,
 450, 451, 438, -1, 438, 451, 439, -1, 438, 439, 430, -1,
 430, 439, 431, -1, 430, 431, 422, -1, 422, 431, 423, -1,
 422, 423, 414, -1, 414, 423, 415, -1, 414, 415, 406, -1,
 406, 415, 407, -1, 406, 407, 398, -1, 398, 407, 399, -1,
 327, 50, 331, -1, 331, 50, 48, -1, 331, 48, 338, -1,
 367, 361, 48, -1, 361, 353, 48, -1, 48, 353, 350, -1,
 48, 350, 338, -1, 347, 355, 48, -1, 355, 359, 48, -1,
 48, 359, 364, -1, 48, 364, 367, -1, 333, 337, 48, -1,
 48, 337, 343, -1, 48, 343, 347, -1, 312, 321, 323, -1,
 307, 312, 302, -1, 302, 312, 323, -1, 302, 323, 48, -1,
 48, 323, 329, -1, 48, 329, 333, -1, 36, 38, 37, -1,
 37, 38, 39, -1, 33, 31, 32, -1, 32, 31, 30, -1,
 27, 25, 26, -1, 26, 25, 24, -1, 21, 19, 20, -1,
 20, 19, 18, -1, 15, 13, 14, -1, 14, 13, 12, -1,
 513, 512, 520, -1, 513, 520, 521, -1, 521, 520, 528, -1,
 521, 528, 529, -1, 529, 528, 536, -1, 529, 536, 537, -1,
 537, 536, 544, -1, 537, 544, 545, -1, 545, 544, 540, -1,
 545, 540, 541, -1, 541, 540, 532, -1, 541, 532, 533, -1,
 533, 532, 524, -1, 533, 524, 525, -1, 525, 524, 516, -1,
 525, 516, 517, -1, 517, 516, 508, -1, 517, 508, 509, -1,
 509, 508, 484, -1, 509, 484, 485, -1, 485, 484, 456, -1,
 485, 456, 457, -1, 504, 505, 500, -1, 500, 505, 501, -1,
 500, 501, 492, -1, 492, 501, 493, -1, 492, 493, 480, -1,
 480, 493, 481, -1, 480, 481, 472, -1, 472, 481, 473, -1,
 472, 473, 464, -1, 464, 473, 465, -1, 464, 465, 452, -1,
 452, 465, 453, -1, 452, 453, 440, -1, 440, 453, 441, -1,
 440, 441, 432, -1, 432, 441, 433, -1, 432, 433, 424, -1,
 424, 433, 425, -1, 424, 425, 416, -1, 416, 425, 417, -1,
 416, 417, 408, -1, 408, 417, 409, -1, 408, 409, 400, -1,
 400, 409, 401, -1, 85, 84, 88, -1, 85, 88, 89, -1,
 89, 88, 94, -1, 89, 94, 95, -1, 95, 94, 112, -1,
 95, 112, 113, -1, 113, 112, 134, -1, 113, 134, 135, -1,
 135, 134, 154, -1, 135, 154, 155, -1, 155, 154, 168, -1,
 155, 168, 169, -1, 169, 168, 190, -1, 169, 190, 191, -1,
 191, 190, 214, -1, 191, 214, 215, -1, 215, 214, 234, -1,
 215, 234, 235, -1, 235, 234, 242, -1, 235, 242, 243, -1,
 243, 242, 246, -1, 243, 246, 247, -1, 247, 246, 254, -1,
 247, 254, 255, -1, 86, 87, 80, -1, 80, 87, 81, -1,
 80, 81, 74, -1, 74, 81, 75, -1, 74, 75, 69, -1,
 69, 75, 67, -1, 69, 67, 68, -1, 84, 85, 78, -1,
 78, 85, 79, -1, 78, 79, 72, -1, 72, 79, 73, -1,
 72, 73, 66, -1, 39, 38, 41, -1, 41, 38, 40, -1,
 41, 40, 43, -1, 43, 40, 42, -1, 43, 42, 45, -1,
 45, 42, 44, -1, 45, 44, 47, -1, 47, 44, 46, -1,
 47, 46, 53, -1, 53, 46, 52, -1, 53, 52, 55, -1,
 55, 52, 54, -1, 55, 54, 57, -1, 57, 54, 56, -1,
 57, 56, 59, -1, 59, 56, 58, -1, 59, 58, 61, -1,
 61, 58, 60, -1, 61, 60, 63, -1, 63, 60, 62, -1,
 63, 62, 65, -1, 65, 62, 64, -1, 65, 64, 67, -1,
 67, 64, 66, -1, 67, 66, 68, -1, 68, 66, 73, -1,
 280, 455, 454, -1, 302, 48, 303, -1, 303, 48, 49, -1,
 49, 305, 304, -1, 454, 303, 280, -1, 280, 303, 49, -1,
 280, 49, 281, -1, 281, 49, 304, -1, 281, 304, 456, -1,
 456, 304, 457, -1, 8, 9, 5, -1, 4, 8, 0, -1,
 0, 8, 5, -1, 0, 5, 1, -1, 87, 86, 90, -1,
 87, 90, 91, -1, 91, 90, 96, -1, 91, 96, 97, -1,
 97, 96, 114, -1, 97, 114, 115, -1, 115, 114, 136, -1,
 115, 136, 137, -1, 137, 136, 156, -1, 137, 156, 157, -1,
 157, 156, 170, -1, 157, 170, 171, -1, 171, 170, 192, -1,
 171, 192, 193, -1, 193, 192, 216, -1, 193, 216, 217, -1,
 217, 216, 236, -1, 217, 236, 237, -1, 237, 236, 244, -1,
 237, 244, 245, -1, 245, 244, 248, -1, 245, 248, 249, -1,
 249, 248, 256, -1, 249, 256, 257, -1, 376, 377, 373, -1,
 279, 278, 284, -1, 257, 256, 261, -1, 261, 256, 260, -1,
 261, 260, 273, -1, 273, 260, 272, -1, 273, 272, 285, -1,
 512, 513, 444, -1, 444, 513, 445, -1, 444, 445, 372, -1,
 272, 279, 285, -1, 285, 279, 284, -1, 285, 284, 293, -1,
 293, 284, 292, -1, 293, 292, 373, -1, 373, 292, 372, -1,
 373, 372, 376, -1, 376, 372, 445, -1, 2, 3, 48, -1,
 48, 3, 49, -1, 0, 1, 2, -1, 2, 1, 3, -1,
 11, 13, 15, -1, 5, 9, 7, -1, 7, 9, 11, -1,
 7, 11, 17, -1, 17, 11, 15, -1, 289, 301, 189, -1,
 301, 320, 189, -1, 189, 320, 328, -1, 189, 328, 181, -1,
 311, 203, 213, -1, 19, 21, 17, -1, 17, 21, 23, -1,
 17, 23, 7, -1, 7, 23, 51, -1, 31, 33, 29, -1,
 29, 33, 35, -1, 203, 311, 189, -1, 189, 311, 295, -1,
 189, 295, 289, -1, 293, 311, 285, -1, 285, 311, 213, -1,
 285, 213, 273, -1, 273, 213, 225, -1, 273, 225, 261, -1,
 261, 225, 233, -1, 261, 233, 257, -1, 257, 233, 221, -1,
 257, 221, 249, -1, 249, 221, 209, -1, 293, 373, 311, -1,
 311, 373, 377, -1, 311, 377, 385, -1, 149, 141, 115, -1,
 131, 145, 51, -1, 51, 145, 153, -1, 51, 153, 328, -1,
 328, 153, 167, -1, 328, 167, 181, -1, 381, 389, 397, -1,
 115, 141, 97, -1, 97, 141, 127, -1, 97, 127, 91, -1,
 91, 127, 119, -1, 91, 119, 87, -1, 87, 119, 107, -1,
 87, 107, 81, -1, 81, 107, 103, -1, 81, 103, 75, -1,
 75, 103, 111, -1, 75, 111, 67, -1, 381, 397, 377, -1,
 377, 397, 393, -1, 377, 393, 385, -1, 55, 57, 51, -1,
 115, 137, 149, -1, 149, 137, 157, -1, 149, 157, 163, -1,
 163, 157, 171, -1, 163, 171, 177, -1, 177, 171, 193, -1,
 177, 193, 185, -1, 185, 193, 217, -1, 185, 217, 199, -1,
 199, 217, 237, -1, 199, 237, 209, -1, 209, 237, 245, -1,
 209, 245, 249, -1, 35, 37, 39, -1, 41, 43, 51, -1,
 51, 43, 45, -1, 39, 41, 35, -1, 35, 41, 51, -1,
 35, 51, 29, -1, 29, 51, 23, -1, 29, 23, 27, -1,
 27, 23, 25, -1, 45, 47, 51, -1, 51, 47, 53, -1,
 51, 53, 55, -1, 57, 59, 51, -1, 51, 59, 61, -1,
 51, 61, 63, -1, 131, 51, 123, -1, 123, 51, 63, -1,
 123, 63, 111, -1, 111, 63, 65, -1, 111, 65, 67, -1,
 278, 279, 264, -1, 264, 279, 265, -1, 264, 265, 252, -1,
 252, 265, 253, -1, 252, 253, 240, -1, 240, 253, 241, -1,
 240, 241, 228, -1, 228, 241, 229, -1, 228, 229, 205, -1,
 205, 229, 195, -1, 205, 195, 204, -1, 276, 277, 262, -1,
 262, 277, 263, -1, 262, 263, 250, -1, 250, 263, 251, -1,
 250, 251, 238, -1, 238, 251, 239, -1, 238, 239, 226, -1,
 226, 239, 227, -1, 226, 227, 194, -1, 227, 204, 194, -1,
 194, 204, 195, -1, 194, 195, 172, -1, 172, 195, 173, -1,
 172, 173, 158, -1, 158, 173, 159, -1, 158, 159, 132, -1,
 132, 159, 133, -1, 132, 133, 98, -1, 98, 133, 99, -1,
 98, 99, 92, -1, 92, 99, 93, -1, 92, 93, 82, -1,
 82, 93, 83, -1, 82, 83, 76, -1, 76, 83, 77, -1,
 76, 77, 70, -1, 70, 77, 71, -1, 70, 71, 68, -1,
 68, 71, 69, -1, 280, 281, 274, -1, 274, 281, 275, -1,
 274, 275, 268, -1, 268, 275, 269, -1, 268, 269, 266, -1,
 266, 269, 267, -1, 251, 511, 239, -1, 239, 511, 266, -1,
 239, 266, 227, -1, 227, 266, 204, -1, 447, 511, 459, -1,
 459, 511, 467, -1, 263, 371, 251, -1, 251, 371, 443, -1,
 251, 443, 511, -1, 277, 283, 263, -1, 263, 283, 291, -1,
 263, 291, 371, -1, 467, 511, 475, -1, 475, 511, 519, -1,
 475, 519, 487, -1, 487, 519, 527, -1, 487, 527, 495, -1,
 495, 527, 535, -1, 495, 535, 503, -1, 447, 435, 511, -1,
 511, 435, 427, -1, 511, 427, 266, -1, 266, 427, 419, -1,
 266, 419, 411, -1, 411, 403, 266, -1, 266, 403, 399, -1,
 266, 399, 268, -1, 268, 399, 407, -1, 268, 407, 274, -1,
 274, 407, 415, -1, 274, 415, 280, -1, 415, 423, 280, -1,
 280, 423, 431, -1, 280, 431, 455, -1, 431, 439, 455, -1,
 455, 439, 451, -1, 455, 451, 483, -1, 483, 451, 463, -1,
 483, 463, 507, -1, 507, 463, 471, -1, 507, 471, 515, -1,
 515, 471, 479, -1, 515, 479, 523, -1, 523, 479, 491, -1,
 523, 491, 531, -1, 531, 491, 499, -1, 531, 499, 539, -1,
 539, 499, 503, -1, 539, 503, 543, -1, 543, 503, 535, -1,
 412, 228, 404, -1, 404, 228, 205, -1, 404, 205, 400, -1,
 400, 205, 267, -1, 400, 267, 408, -1, 512, 444, 448, -1,
 432, 281, 440, -1, 440, 281, 456, -1, 440, 456, 452, -1,
 284, 278, 428, -1, 428, 278, 264, -1, 428, 264, 420, -1,
 420, 264, 252, -1, 420, 252, 412, -1, 412, 252, 240, -1,
 412, 240, 228, -1, 448, 444, 436, -1, 436, 444, 372, -1,
 436, 372, 428, -1, 428, 372, 292, -1, 428, 292, 284, -1,
 432, 424, 281, -1, 281, 424, 416, -1, 281, 416, 275, -1,
 275, 416, 408, -1, 275, 408, 269, -1, 269, 408, 267, -1,
 500, 540, 504, -1, 504, 540, 544, -1, 504, 544, 496, -1,
 496, 544, 536, -1, 496, 536, 488, -1, 488, 536, 528, -1,
 488, 528, 476, -1, 476, 528, 520, -1, 476, 520, 468, -1,
 468, 520, 512, -1, 468, 512, 460, -1, 460, 512, 448, -1,
 452, 456, 464, -1, 464, 456, 484, -1, 464, 484, 472, -1,
 472, 484, 508, -1, 472, 508, 480, -1, 480, 508, 516, -1,
 480, 516, 492, -1, 492, 516, 524, -1, 492, 524, 500, -1,
 500, 524, 532, -1, 500, 532, 540, -1, 204, 266, 205, -1,
 205, 266, 267, -1, 220, 232, 260, -1, 260, 232, 272, -1,
 272, 232, 224, -1, 272, 224, 212, -1, 279, 272, 265, -1,
 265, 272, 212, -1, 265, 212, 253, -1, 253, 212, 202, -1,
 253, 202, 241, -1, 241, 202, 188, -1, 162, 156, 148, -1,
 148, 156, 136, -1, 148, 136, 140, -1, 140, 136, 114, -1,
 140, 114, 126, -1, 126, 114, 96, -1, 126, 96, 118, -1,
 118, 96, 90, -1, 118, 90, 106, -1, 106, 90, 86, -1,
 106, 86, 102, -1, 102, 86, 80, -1, 102, 80, 110, -1,
 110, 80, 74, -1, 152, 159, 166, -1, 166, 159, 173, -1,
 166, 173, 180, -1, 180, 173, 195, -1, 180, 195, 188, -1,
 188, 195, 229, -1, 188, 229, 241, -1, 130, 93, 144, -1,
 144, 93, 99, -1, 144, 99, 152, -1, 152, 99, 133, -1,
 152, 133, 159, -1, 260, 256, 220, -1, 220, 256, 248, -1,
 220, 248, 208, -1, 208, 248, 244, -1, 208, 244, 198, -1,
 198, 244, 236, -1, 198, 236, 184, -1, 184, 236, 216, -1,
 184, 216, 176, -1, 176, 216, 192, -1, 176, 192, 162, -1,
 162, 192, 170, -1, 162, 170, 156, -1, 74, 69, 110, -1,
 110, 69, 71, -1, 110, 71, 122, -1, 122, 71, 77, -1,
 122, 77, 130, -1, 130, 77, 83, -1, 130, 83, 93, -1,
 147, 155, 161, -1, 161, 155, 169, -1, 161, 169, 175, -1,
 175, 169, 191, -1, 175, 191, 183, -1, 183, 191, 215, -1,
 183, 215, 197, -1, 197, 215, 235, -1, 197, 235, 207, -1,
 109, 73, 101, -1, 101, 73, 79, -1, 101, 79, 105, -1,
 105, 79, 85, -1, 105, 85, 117, -1, 117, 85, 89, -1,
 117, 89, 125, -1, 125, 89, 95, -1, 125, 95, 139, -1,
 139, 95, 113, -1, 139, 113, 147, -1, 147, 113, 135, -1,
 147, 135, 155, -1, 121, 70, 109, -1, 109, 70, 68, -1,
 109, 68, 73, -1, 271, 276, 262, -1, 165, 158, 151, -1,
 151, 158, 132, -1, 151, 132, 143, -1, 235, 243, 207, -1,
 207, 243, 247, -1, 207, 247, 219, -1, 219, 247, 255, -1,
 219, 255, 231, -1, 231, 255, 259, -1, 231, 259, 223, -1,
 223, 259, 271, -1, 223, 271, 211, -1, 211, 271, 262, -1,
 211, 262, 201, -1, 132, 98, 143, -1, 143, 98, 92, -1,
 143, 92, 129, -1, 129, 92, 82, -1, 129, 82, 121, -1,
 121, 82, 76, -1, 121, 76, 70, -1, 262, 250, 201, -1,
 201, 250, 238, -1, 201, 238, 187, -1, 187, 238, 226, -1,
 187, 226, 179, -1, 179, 226, 194, -1, 179, 194, 165, -1,
 165, 194, 172, -1, 165, 172, 158, -1, 230, 231, 222, -1,
 222, 231, 223, -1, 222, 223, 210, -1, 210, 223, 211, -1,
 210, 211, 200, -1, 200, 211, 201, -1, 200, 201, 186, -1,
 186, 201, 187, -1, 186, 187, 178, -1, 178, 187, 179, -1,
 178, 179, 164, -1, 164, 179, 165, -1, 164, 165, 150, -1,
 150, 165, 151, -1, 150, 151, 142, -1, 142, 151, 143, -1,
 142, 143, 128, -1, 128, 143, 129, -1, 128, 129, 120, -1,
 120, 129, 121, -1, 120, 121, 108, -1, 108, 121, 109, -1,
 108, 109, 100, -1, 100, 109, 101, -1, 232, 233, 224, -1,
 224, 233, 225, -1, 224, 225, 212, -1, 212, 225, 213, -1,
 212, 213, 202, -1, 202, 213, 203, -1, 202, 203, 188, -1,
 188, 203, 189, -1, 188, 189, 180, -1, 180, 189, 181, -1,
 180, 181, 166, -1, 166, 181, 167, -1, 166, 167, 152, -1,
 152, 167, 153, -1, 152, 153, 144, -1, 144, 153, 145, -1,
 144, 145, 130, -1, 130, 145, 131, -1, 130, 131, 122, -1,
 122, 131, 123, -1, 122, 123, 110, -1, 110, 123, 111, -1,
 110, 111, 102, -1, 102, 111, 103, -1, 326, 457, 315, -1,
 315, 457, 304, -1, 513, 521, 477, -1, 477, 521, 489, -1,
 489, 521, 529, -1, 489, 529, 497, -1, 497, 529, 537, -1,
 497, 537, 505, -1, 477, 469, 513, -1, 513, 469, 461, -1,
 513, 461, 445, -1, 445, 461, 449, -1, 445, 449, 437, -1,
 392, 437, 384, -1, 384, 437, 429, -1, 384, 429, 310, -1,
 392, 396, 437, -1, 437, 396, 388, -1, 437, 388, 445, -1,
 445, 388, 380, -1, 445, 380, 376, -1, 326, 336, 457, -1,
 457, 336, 346, -1, 457, 346, 433, -1, 429, 421, 310, -1,
 310, 421, 413, -1, 310, 413, 294, -1, 294, 413, 405, -1,
 294, 405, 288, -1, 288, 405, 401, -1, 288, 401, 300, -1,
 300, 401, 409, -1, 300, 409, 319, -1, 319, 409, 417, -1,
 319, 417, 340, -1, 340, 417, 425, -1, 340, 425, 349, -1,
 346, 360, 433, -1, 433, 360, 368, -1, 433, 368, 425, -1,
 425, 368, 362, -1, 425, 362, 349, -1, 433, 441, 457, -1,
 457, 441, 453, -1, 457, 453, 485, -1, 485, 453, 465, -1,
 485, 465, 509, -1, 509, 465, 473, -1, 509, 473, 517, -1,
 517, 473, 481, -1, 517, 481, 525, -1, 525, 481, 493, -1,
 525, 493, 533, -1, 533, 493, 501, -1, 533, 501, 541, -1,
 541, 501, 505, -1, 541, 505, 545, -1, 545, 505, 537, -1,
 332, 328, 320, -1, 319, 340, 341, -1, 341, 332, 319, -1,
 319, 332, 320, -1, 319, 320, 300, -1, 300, 320, 301, -1,
 300, 301, 288, -1, 288, 301, 289, -1, 288, 289, 294, -1,
 294, 289, 295, -1, 294, 295, 310, -1, 310, 295, 311, -1,
 6, 2, 50, -1, 50, 2, 48, -1, 4, 0, 6, -1,
 6, 0, 2, -1, 335, 330, 325, -1, 51, 328, 49, -1,
 49, 328, 332, -1, 49, 332, 305, -1, 305, 332, 306, -1,
 322, 316, 332, -1, 332, 316, 314, -1, 332, 314, 306, -1,
 322, 332, 325, -1, 325, 332, 341, -1, 325, 341, 348, -1,
 348, 352, 325, -1, 325, 352, 358, -1, 325, 358, 366, -1,
 342, 335, 345, -1, 345, 335, 325, -1, 345, 325, 354, -1,
 366, 369, 325, -1, 325, 369, 357, -1, 325, 357, 354, -1,
 3, 7, 49, -1, 49, 7, 51, -1, 1, 5, 3, -1,
 3, 5, 7, -1, 10, 12, 11, -1, 11, 12, 13, -1,
 8, 10, 9, -1, 9, 10, 11, -1, 16, 18, 17, -1,
 17, 18, 19, -1, 14, 16, 15, -1, 15, 16, 17, -1,
 22, 24, 23, -1, 23, 24, 25, -1, 20, 22, 21, -1,
 21, 22, 23, -1, 28, 30, 29, -1, 29, 30, 31, -1,
 26, 28, 27, -1, 27, 28, 29, -1, 34, 36, 35, -1,
 35, 36, 37, -1, 32, 34, 33, -1, 33, 34, 35, -1,
 384, 310, 385, -1, 385, 310, 311, -1, 377, 376, 380, -1,
 377, 380, 381, -1, 381, 380, 388, -1, 381, 388, 389, -1,
 389, 388, 396, -1, 389, 396, 397, -1, 397, 396, 392, -1,
 397, 392, 393, -1, 393, 392, 384, -1, 393, 384, 385, -1,
 322, 325, 326, -1, 368, 360, 369, -1, 369, 360, 357, -1,
 346, 345, 360, -1, 360, 345, 354, -1, 360, 354, 357, -1,
 326, 325, 336, -1, 325, 330, 336, -1, 336, 330, 335, -1,
 336, 335, 346, -1, 346, 335, 342, -1, 346, 342, 345, -1,
 315, 304, 305, -1, 305, 306, 315, -1, 315, 306, 314, -1,
 315, 314, 326, -1, 326, 314, 316, -1, 326, 316, 322, -1,
 313, 303, 454, -1, 351, 363, 422, -1, 309, 297, 402, -1,
 450, 438, 454, -1, 454, 438, 430, -1, 422, 363, 430, -1,
 430, 363, 365, -1, 430, 365, 356, -1, 356, 344, 430, -1,
 430, 344, 334, -1, 430, 334, 454, -1, 454, 334, 324, -1,
 454, 324, 313, -1, 402, 297, 398, -1, 398, 297, 287, -1,
 398, 287, 406, -1, 406, 287, 299, -1, 406, 299, 414, -1,
 414, 299, 318, -1, 414, 318, 422, -1, 422, 318, 339, -1,
 422, 339, 351, -1, 402, 410, 309, -1, 309, 410, 418, -1,
 309, 418, 383, -1, 383, 418, 426, -1, 383, 426, 391, -1,
 391, 426, 434, -1, 375, 379, 442, -1, 442, 379, 387, -1,
 510, 442, 446, -1, 446, 442, 387, -1, 446, 387, 434, -1,
 434, 387, 395, -1, 434, 395, 391, -1, 498, 538, 502, -1,
 502, 538, 542, -1, 502, 542, 494, -1, 494, 542, 534, -1,
 494, 534, 486, -1, 486, 534, 526, -1, 486, 526, 474, -1,
 474, 526, 518, -1, 474, 518, 466, -1, 466, 518, 510, -1,
 466, 510, 458, -1, 458, 510, 446, -1, 450, 454, 462, -1,
 462, 454, 482, -1, 462, 482, 470, -1, 470, 482, 506, -1,
 470, 506, 478, -1, 478, 506, 514, -1, 478, 514, 490, -1,
 490, 514, 522, -1, 490, 522, 498, -1, 498, 522, 530, -1,
 498, 530, 538, -1, 382, 308, 383, -1, 383, 308, 309, -1,
 375, 374, 378, -1, 375, 378, 379, -1, 379, 378, 386, -1,
 379, 386, 387, -1, 387, 386, 394, -1, 387, 394, 395, -1,
 395, 394, 390, -1, 395, 390, 391, -1, 391, 390, 382, -1,
 391, 382, 383, -1, 302, 303, 307, -1, 307, 303, 313, -1,
 307, 313, 312, -1, 312, 313, 321, -1, 321, 313, 324, -1,
 321, 324, 323, -1, 323, 324, 329, -1, 329, 324, 334, -1,
 329, 334, 333, -1, 333, 334, 337, -1, 337, 334, 344, -1,
 337, 344, 343, -1, 343, 344, 347, -1, 347, 344, 356, -1,
 347, 356, 355, -1, 355, 356, 359, -1, 359, 356, 365, -1,
 359, 365, 364, -1, 364, 365, 367, -1, 367, 365, 363, -1,
 367, 363, 361, -1, 361, 363, 353, -1, 353, 363, 351, -1,
 353, 351, 350, -1, 350, 351, 339, -1, 350, 339, 338, -1
]
normalIndex [
 94, 114, 94, -1, 94, 114, 115, -1, 138, 156, 156, -1,
 156, 153, 138, -1, 138, 153, 137, -1, 138, 137, 114, -1,
 114, 137, 123, -1, 114, 123, 115, -1, 156, 156, 135, -1,
 135, 156, 135, -1, 135, 135, 109, -1, 109, 135, 109, -1,
 109, 109, 88, -1, 88, 109, 88, -1, 88, 88, 71, -1,
 71, 88, 71, -1, 71, 71, 55, -1, 55, 71, 55, -1,
 55, 55, 45, -1, 45, 55, 45, -1, 45, 45, 34, -1,
 34, 45, 34, -1, 34, 34, 25, -1, 25, 34, 25, -1,
 25, 25, 18, -1, 18, 25, 18, -1, 18, 18, 7, -1,
 7, 18, 7, -1, 7, 7, 2, -1, 2, 7, 2, -1,
 2, 2, 0, -1, 0, 2, 0, -1, 156, 156, 135, -1,
 135, 156, 135, -1, 135, 135, 109, -1, 109, 135, 109, -1,
 109, 109, 88, -1, 88, 109, 88, -1, 88, 88, 71, -1,
 71, 88, 71, -1, 71, 71, 55, -1, 55, 71, 55, -1,
 55, 55, 45, -1, 45, 55, 45, -1, 45, 45, 34, -1,
 34, 45, 34, -1, 34, 34, 25, -1, 25, 34, 25, -1,
 25, 25, 18, -1, 18, 25, 18, -1, 18, 18, 7, -1,
 7, 18, 7, -1, 7, 7, 2, -1, 2, 7, 2, -1,
 2, 2, 0, -1, 0, 2, 0, -1, 156, 156, 135, -1,
 135, 156, 135, -1, 135, 135, 109, -1, 109, 135, 109, -1,
 109, 109, 88, -1, 88, 109, 88, -1, 88, 88, 71, -1,
 71, 88, 71, -1, 71, 71, 55, -1, 55, 71, 55, -1,
 55, 55, 45, -1, 45, 55, 45, -1, 45, 45, 34, -1,
 34, 45, 34, -1, 34, 34, 25, -1, 25, 34, 25, -1,
 25, 25, 18, -1, 18, 25, 18, -1, 18, 18, 7, -1,
 7, 18, 7, -1, 7, 7, 2, -1, 2, 7, 2, -1,
 2, 2, 0, -1, 0, 2, 0, -1, 156, 156, 135, -1,
 135, 156, 135, -1, 135, 135, 109, -1, 109, 135, 109, -1,
 109, 109, 88, -1, 88, 109, 88, -1, 88, 88, 71, -1,
 71, 88, 71, -1, 71, 71, 55, -1, 55, 71, 55, -1,
 55, 55, 45, -1, 45, 55, 45, -1, 45, 45, 34, -1,
 34, 45, 34, -1, 34, 34, 25, -1, 25, 34, 25, -1,
 25, 25, 18, -1, 18, 25, 18, -1, 18, 18, 7, -1,
 7, 18, 7, -1, 7, 7, 2, -1, 2, 7, 2, -1,
 2, 2, 0, -1, 0, 2, 0, -1, 94, 94, 96, -1,
 96, 94, 114, -1, 96, 114, 105, -1, 156, 156, 138, -1,
 138, 156, 138, -1, 138, 138, 114, -1, 114, 138, 114, -1,
 114, 114, 105, -1, 41, 41, 41, -1, 41, 41, 41, -1,
 41, 41, 41, -1, 41, 41, 41, -1, 41, 41, 41, -1,
 41, 41, 41, -1, 41, 41, 41, -1, 41, 41, 41, -1,
 41, 41, 41, -1, 41, 41, 41, -1, 41, 41, 41, -1,
 41, 41, 41, -1, 41, 41, 41, -1, 41, 41, 41, -1,
 41, 41, 41, -1, 41, 41, 41, -1, 41, 41, 41, -1,
 41, 41, 41, -1, 41, 41, 41, -1, 41, 41, 41, -1,
 41, 41, 41, -1, 41, 41, 41, -1, 41, 41, 41, -1,
 41, 41, 41, -1, 41, 41, 41, -1, 41, 41, 41, -1,
 41, 41, 41, -1, 41, 41, 41, -1, 41, 41, 41, -1,
 41, 41, 41, -1, 41, 41, 41, -1, 41, 41, 41, -1,
 41, 41, 41, -1, 41, 41, 41, -1, 41, 41, 41, -1,
 41, 41, 41, -1, 41, 41, 41, -1, 41, 41, 41, -1,
 41, 41, 41, -1, 41, 41, 41, -1, 41, 41, 41, -1,
 41, 41, 41, -1, 41, 41, 41, -1, 41, 41, 41, -1,
 41, 41, 41, -1, 41, 41, 41, -1, 41, 41, 41, -1,
 41, 41, 41, -1, 41, 41, 41, -1, 41, 41, 41, -1,
 41, 41, 41, -1, 41, 41, 41, -1, 41, 41, 41, -1,
 41, 41, 41, -1, 41, 41, 41, -1, 41, 41, 41, -1,
 41, 41, 41, -1, 41, 41, 41, -1, 41, 41, 41, -1,
 41, 41, 41, -1, 41, 41, 41, -1, 41, 41, 41, -1,
 41, 41, 41, -1, 41, 41, 41, -1, 41, 41, 41, -1,
 41, 41, 41, -1, 41, 41, 41, -1, 41, 41, 41, -1,
 41, 41, 41, -1, 41, 41, 41, -1, 41, 41, 41, -1,
 41, 41, 41, -1, 41, 41, 41, -1, 41, 41, 41, -1,
 41, 41, 41, -1, 41, 41, 41, -1, 41, 41, 41, -1,
 41, 41, 41, -1, 41, 41, 41, -1, 41, 41, 41, -1,
 41, 41, 41, -1, 41, 41, 41, -1, 41, 41, 41, -1,
 41, 41, 41, -1, 41, 41, 41, -1, 41, 41, 41, -1,
 41, 41, 41, -1, 146, 146, 131, -1, 131, 146, 131, -1,
 131, 131, 119, -1, 119, 131, 119, -1, 119, 119, 112, -1,
 112, 119, 106, -1, 112, 106, 112, -1, 68, 68, 75, -1,
 75, 68, 75, -1, 75, 75, 84, -1, 84, 75, 85, -1,
 84, 84, 85, -1, 85, 84, 85, -1, 85, 85, 91, -1,
 91, 85, 91, -1, 91, 91, 106, -1, 106, 91, 106, -1,
 106, 106, 112, -1, 116, 116, 140, -1, 140, 116, 140, -1,
 140, 140, 156, -1, 156, 140, 156, -1, 68, 68, 79, -1,
 68, 79, 79, -1, 79, 79, 100, -1, 79, 100, 100, -1,
 100, 100, 126, -1, 100, 126, 126, -1, 126, 126, 148, -1,
 126, 148, 148, -1, 148, 148, 147, -1, 148, 147, 147, -1,
 147, 147, 124, -1, 147, 124, 124, -1, 124, 124, 98, -1,
 124, 98, 98, -1, 98, 98, 78, -1, 98, 78, 78, -1,
 78, 78, 65, -1, 78, 65, 65, -1, 65, 65, 51, -1,
 65, 51, 51, -1, 51, 51, 45, -1, 51, 45, 45, -1,
 0, 0, 1, -1, 1, 0, 1, -1, 1, 1, 6, -1,
 6, 1, 6, -1, 6, 6, 15, -1, 15, 6, 15, -1,
 15, 15, 24, -1, 24, 15, 24, -1, 24, 24, 33, -1,
 33, 24, 33, -1, 33, 33, 40, -1, 40, 33, 40, -1,
 40, 40, 54, -1, 54, 40, 54, -1, 54, 54, 70, -1,
 70, 54, 70, -1, 70, 70, 87, -1, 87, 70, 87, -1,
 87, 87, 108, -1, 108, 87, 108, -1, 108, 108, 134, -1,
 134, 108, 134, -1, 134, 134, 156, -1, 156, 134, 156, -1,
 43, 43, 43, -1, 43, 43, 43, -1, 43, 43, 43, -1,
 43, 43, 43, -1, 43, 43, 43, -1, 43, 43, 43, -1,
 43, 43, 43, -1, 43, 43, 43, -1, 43, 43, 43, -1,
 43, 43, 43, -1, 43, 43, 43, -1, 43, 43, 43, -1,
 43, 43, 43, -1, 43, 43, 43, -1, 43, 43, 43, -1,
 43, 43, 43, -1, 43, 43, 43, -1, 43, 43, 43, -1,
 43, 43, 43, -1, 43, 43, 43, -1, 40, 40, 40, -1,
 40, 40, 40, -1, 40, 40, 40, -1, 40, 40, 40, -1,
 40, 40, 40, -1, 40, 40, 40, -1, 40, 40, 40, -1,
 40, 40, 40, -1, 40, 40, 40, -1, 40, 40, 40, -1,
 68, 68, 79, -1, 68, 79, 79, -1, 79, 79, 100, -1,
 79, 100, 100, -1, 100, 100, 126, -1, 100, 126, 126, -1,
 126, 126, 148, -1, 126, 148, 148, -1, 148, 148, 147, -1,
 148, 147, 147, -1, 147, 147, 124, -1, 147, 124, 124, -1,
 124, 124, 98, -1, 124, 98, 98, -1, 98, 98, 78, -1,
 98, 78, 78, -1, 78, 78, 65, -1, 78, 65, 65, -1,
 65, 65, 51, -1, 65, 51, 51, -1, 51, 51, 45, -1,
 51, 45, 45, -1, 0, 0, 1, -1, 1, 0, 1, -1,
 1, 1, 6, -1, 6, 1, 6, -1, 6, 6, 15, -1,
 15, 6, 15, -1, 15, 15, 24, -1, 24, 15, 24, -1,
 24, 24, 33, -1, 33, 24, 33, -1, 33, 33, 40, -1,
 40, 33, 40, -1, 40, 40, 54, -1, 54, 40, 54, -1,
 54, 54, 70, -1, 70, 54, 70, -1, 70, 70, 87, -1,
 87, 70, 87, -1, 87, 87, 108, -1, 108, 87, 108, -1,
 108, 108, 134, -1, 134, 108, 134, -1, 134, 134, 156, -1,
 156, 134, 156, -1, 3, 3, 8, -1, 3, 8, 8, -1,
 8, 8, 14, -1, 8, 14, 14, -1, 14, 14, 23, -1,
 14, 23, 23, -1, 23, 23, 31, -1, 23, 31, 31, -1,
 31, 31, 37, -1, 31, 37, 37, -1, 37, 37, 47, -1,
 37, 47, 47, -1, 47, 47, 60, -1, 47, 60, 60, -1,
 60, 60, 72, -1, 60, 72, 72, -1, 72, 72, 81, -1,
 72, 81, 81, -1, 81, 81, 99, -1, 81, 99, 99, -1,
 99, 99, 122, -1, 99, 122, 122, -1, 122, 122, 146, -1,
 122, 146, 146, -1, 3, 3, 5, -1, 5, 3, 5, -1,
 5, 5, 10, -1, 10, 5, 10, -1, 10, 10, 12, -1,
 12, 10, 19, -1, 12, 19, 12, -1, 3, 3, 5, -1,
 5, 3, 5, -1, 5, 5, 10, -1, 10, 5, 10, -1,
 10, 10, 19, -1, 110, 110, 93, -1, 93, 110, 93, -1,
 93, 93, 80, -1, 80, 93, 80, -1, 80, 80, 74, -1,
 74, 80, 74, -1, 74, 74, 62, -1, 62, 74, 62, -1,
 62, 62, 59, -1, 59, 62, 59, -1, 59, 59, 49, -1,
 49, 59, 49, -1, 49, 49, 39, -1, 39, 49, 39, -1,
 39, 39, 36, -1, 36, 39, 36, -1, 36, 36, 32, -1,
 32, 36, 32, -1, 32, 32, 26, -1, 26, 32, 26, -1,
 26, 26, 20, -1, 20, 26, 20, -1, 20, 20, 19, -1,
 19, 20, 19, -1, 19, 19, 12, -1, 12, 19, 10, -1,
 45, 45, 45, -1, 45, 45, 45, -1, 45, 45, 45, -1,
 45, 45, 45, -1, 45, 45, 45, -1, 45, 45, 45, -1,
 45, 45, 45, -1, 45, 45, 45, -1, 45, 45, 45, -1,
 45, 45, 45, -1, 40, 40, 40, -1, 40, 40, 40, -1,
 40, 40, 40, -1, 40, 40, 40, -1, 3, 3, 8, -1,
 3, 8, 8, -1, 8, 8, 14, -1, 8, 14, 14, -1,
 14, 14, 23, -1, 14, 23, 23, -1, 23, 23, 31, -1,
 23, 31, 31, -1, 31, 31, 37, -1, 31, 37, 37, -1,
 37, 37, 47, -1, 37, 47, 47, -1, 47, 47, 60, -1,
 47, 60, 60, -1, 60, 60, 72, -1, 60, 72, 72, -1,
 72, 72, 81, -1, 72, 81, 81, -1, 81, 81, 99, -1,
 81, 99, 99, -1, 99, 99, 122, -1, 99, 122, 122, -1,
 122, 122, 146, -1, 122, 146, 146, -1, 84, 84, 85, -1,
 112, 112, 106, -1, 146, 146, 131, -1, 131, 146, 131, -1,
 131, 131, 119, -1, 119, 131, 119, -1, 119, 119, 106, -1,
 68, 68, 75, -1, 75, 68, 75, -1, 75, 75, 85, -1,
 119, 112, 106, -1, 106, 112, 106, -1, 106, 106, 91, -1,
 91, 106, 91, -1, 91, 91, 85, -1, 85, 91, 85, -1,
 85, 85, 84, -1, 84, 85, 75, -1, 22, 22, 22, -1,
 22, 22, 22, -1, 0, 0, 0, -1, 0, 0, 0, -1,
 42, 42, 42, -1, 42, 42, 42, -1, 42, 42, 42, -1,
 42, 42, 42, -1, 42, 42, 42, -1, 42, 42, 42, -1,
 42, 42, 42, -1, 42, 42, 42, -1, 42, 42, 42, -1,
 42, 42, 42, -1, 42, 42, 42, -1, 42, 42, 42, -1,
 42, 42, 42, -1, 42, 42, 42, -1, 42, 42, 42, -1,
 42, 42, 42, -1, 42, 42, 42, -1, 42, 42, 42, -1,
 42, 42, 42, -1, 42, 42, 42, -1, 42, 42, 42, -1,
 42, 42, 42, -1, 42, 42, 42, -1, 42, 42, 42, -1,
 42, 42, 42, -1, 42, 42, 42, -1, 42, 42, 42, -1,
 42, 42, 42, -1, 42, 42, 42, -1, 42, 42, 42, -1,
 42, 42, 42, -1, 42, 42, 42, -1, 42, 42, 42, -1,
 42, 42, 42, -1, 42, 42, 42, -1, 42, 42, 42, -1,
 42, 42, 42, -1, 42, 42, 42, -1, 42, 42, 42, -1,
 42, 42, 42, -1, 42, 42, 42, -1, 42, 42, 42, -1,
 42, 42, 42, -1, 42, 42, 42, -1, 42, 42, 42, -1,
 42, 42, 42, -1, 42, 42, 42, -1, 42, 42, 42, -1,
 42, 42, 42, -1, 42, 42, 42, -1, 42, 42, 42, -1,
 42, 42, 42, -1, 42, 42, 42, -1, 42, 42, 42, -1,
 42, 42, 42, -1, 42, 42, 42, -1, 42, 42, 42, -1,
 42, 42, 42, -1, 42, 42, 42, -1, 42, 42, 42, -1,
 42, 42, 42, -1, 42, 42, 42, -1, 42, 42, 42, -1,
 42, 42, 42, -1, 42, 42, 42, -1, 42, 42, 42, -1,
 42, 42, 42, -1, 42, 42, 42, -1, 42, 42, 42, -1,
 42, 42, 42, -1, 42, 42, 42, -1, 42, 42, 42, -1,
 42, 42, 42, -1, 42, 42, 42, -1, 42, 42, 42, -1,
 42, 42, 42, -1, 42, 42, 42, -1, 42, 42, 42, -1,
 42, 42, 42, -1, 42, 42, 42, -1, 42, 42, 42, -1,
 42, 42, 42, -1, 42, 42, 42, -1, 42, 42, 42, -1,
 42, 42, 42, -1, 42, 42, 42, -1, 42, 42, 42, -1,
 4, 4, 9, -1, 9, 4, 9, -1, 9, 9, 13, -1,
 13, 9, 13, -1, 13, 13, 21, -1, 21, 13, 21, -1,
 21, 21, 27, -1, 27, 21, 27, -1, 27, 27, 30, -1,
 30, 27, 35, -1, 30, 35, 30, -1, 4, 4, 9, -1,
 9, 4, 9, -1, 9, 9, 13, -1, 13, 9, 13, -1,
 13, 13, 21, -1, 21, 13, 21, -1, 21, 21, 27, -1,
 27, 21, 27, -1, 27, 27, 35, -1, 27, 30, 35, -1,
 35, 30, 35, -1, 35, 35, 38, -1, 38, 35, 38, -1,
 38, 38, 48, -1, 48, 38, 48, -1, 48, 48, 58, -1,
 58, 48, 58, -1, 58, 58, 64, -1, 64, 58, 64, -1,
 64, 64, 76, -1, 76, 64, 76, -1, 76, 76, 90, -1,
 90, 76, 90, -1, 90, 90, 101, -1, 101, 90, 101, -1,
 101, 101, 120, -1, 120, 101, 120, -1, 120, 120, 139, -1,
 139, 120, 139, -1, 97, 97, 121, -1, 121, 97, 121, -1,
 121, 121, 145, -1, 145, 121, 145, -1, 145, 145, 152, -1,
 152, 145, 152, -1, 42, 42, 42, -1, 42, 42, 42, -1,
 42, 42, 42, -1, 42, 42, 42, -1, 42, 42, 42, -1,
 42, 42, 42, -1, 42, 42, 42, -1, 42, 42, 42, -1,
 42, 42, 42, -1, 42, 42, 42, -1, 42, 42, 42, -1,
 42, 42, 42, -1, 42, 42, 42, -1, 42, 42, 42, -1,
 42, 42, 42, -1, 42, 42, 42, -1, 42, 42, 42, -1,
 42, 42, 42, -1, 42, 42, 42, -1, 42, 42, 42, -1,
 42, 42, 42, -1, 42, 42, 42, -1, 42, 42, 42, -1,
 42, 42, 42, -1, 42, 42, 42, -1, 42, 42, 42, -1,
 42, 42, 42, -1, 42, 42, 42, -1, 42, 42, 42, -1,
 42, 42, 42, -1, 42, 42, 42, -1, 42, 42, 42, -1,
 42, 42, 42, -1, 42, 42, 42, -1, 42, 42, 42, -1,
 42, 42, 42, -1, 42, 42, 42, -1, 42, 42, 42, -1,
 42, 42, 42, -1, 42, 42, 42, -1, 42, 42, 42, -1,
 42, 42, 42, -1, 42, 42, 42, -1, 42, 42, 42, -1,
 42, 42, 42, -1, 42, 42, 42, -1, 42, 42, 42, -1,
 42, 42, 42, -1, 42, 42, 42, -1, 42, 42, 42, -1,
 41, 41, 41, -1, 41, 41, 41, -1, 41, 41, 41, -1,
 41, 41, 41, -1, 41, 41, 41, -1, 41, 41, 41, -1,
 41, 41, 41, -1, 41, 41, 41, -1, 41, 41, 41, -1,
 41, 41, 41, -1, 41, 41, 41, -1, 41, 41, 41, -1,
 41, 41, 41, -1, 41, 41, 41, -1, 41, 41, 41, -1,
 41, 41, 41, -1, 41, 41, 41, -1, 41, 41, 41, -1,
 41, 41, 41, -1, 41, 41, 41, -1, 41, 41, 41, -1,
 41, 41, 41, -1, 41, 41, 41, -1, 41, 41, 41, -1,
 41, 41, 41, -1, 41, 41, 41, -1, 41, 41, 41, -1,
 41, 41, 41, -1, 41, 41, 41, -1, 41, 41, 41, -1,
 41, 41, 41, -1, 41, 41, 41, -1, 41, 41, 41, -1,
 41, 41, 41, -1, 41, 41, 41, -1, 41, 41, 41, -1,
 41, 41, 41, -1, 41, 41, 41, -1, 41, 41, 41, -1,
 41, 41, 41, -1, 41, 41, 41, -1, 41, 41, 41, -1,
 41, 41, 41, -1, 41, 41, 41, -1, 41, 41, 41, -1,
 41, 41, 41, -1, 41, 41, 41, -1, 41, 41, 41, -1,
 41, 41, 41, -1, 41, 41, 41, -1, 87, 87, 87, -1,
 87, 87, 87, -1, 41, 41, 41, -1, 41, 41, 41, -1,
 41, 41, 41, -1, 41, 41, 41, -1, 41, 41, 41, -1,
 41, 41, 41, -1, 41, 41, 41, -1, 41, 41, 41, -1,
 41, 41, 41, -1, 41, 41, 41, -1, 41, 41, 41, -1,
 41, 41, 41, -1, 41, 41, 41, -1, 41, 41, 41, -1,
 41, 41, 41, -1, 41, 41, 41, -1, 41, 41, 41, -1,
 41, 41, 41, -1, 41, 41, 41, -1, 41, 41, 41, -1,
 41, 41, 41, -1, 41, 41, 41, -1, 41, 41, 41, -1,
 41, 41, 41, -1, 41, 41, 41, -1, 41, 41, 41, -1,
 41, 41, 41, -1, 41, 41, 41, -1, 41, 41, 41, -1,
 41, 41, 41, -1, 41, 41, 41, -1, 41, 41, 41, -1,
 41, 41, 41, -1, 41, 41, 41, -1, 41, 41, 41, -1,
 41, 41, 41, -1, 41, 41, 41, -1, 41, 41, 41, -1,
 41, 41, 41, -1, 41, 41, 41, -1, 41, 41, 41, -1,
 41, 41, 41, -1, 41, 41, 41, -1, 41, 41, 41, -1,
 41, 41, 41, -1, 41, 41, 41, -1, 41, 41, 41, -1,
 41, 41, 41, -1, 41, 41, 41, -1, 41, 41, 41, -1,
 41, 41, 41, -1, 41, 41, 41, -1, 41, 41, 41, -1,
 41, 41, 41, -1, 41, 41, 41, -1, 41, 41, 41, -1,
 42, 42, 42, -1, 42, 42, 42, -1, 42, 42, 42, -1,
 42, 42, 42, -1, 42, 42, 42, -1, 42, 42, 42, -1,
 42, 42, 42, -1, 42, 42, 42, -1, 42, 42, 42, -1,
 42, 42, 42, -1, 42, 42, 42, -1, 42, 42, 42, -1,
 42, 42, 42, -1, 42, 42, 42, -1, 42, 42, 42, -1,
 42, 42, 42, -1, 42, 42, 42, -1, 42, 42, 42, -1,
 42, 42, 42, -1, 42, 42, 42, -1, 42, 42, 42, -1,
 42, 42, 42, -1, 42, 42, 42, -1, 42, 42, 42, -1,
 42, 42, 42, -1, 42, 42, 42, -1, 42, 42, 42, -1,
 42, 42, 42, -1, 42, 42, 42, -1, 42, 42, 42, -1,
 42, 42, 42, -1, 42, 42, 42, -1, 42, 42, 42, -1,
 42, 42, 42, -1, 42, 42, 42, -1, 42, 42, 42, -1,
 42, 42, 42, -1, 42, 42, 42, -1, 42, 42, 42, -1,
 42, 42, 42, -1, 42, 42, 42, -1, 42, 42, 42, -1,
 42, 42, 42, -1, 42, 42, 42, -1, 42, 42, 42, -1,
 42, 42, 42, -1, 42, 42, 42, -1, 42, 42, 42, -1,
 42, 42, 42, -1, 42, 42, 42, -1, 42, 42, 42, -1,
 42, 42, 42, -1, 42, 42, 42, -1, 42, 42, 42, -1,
 42, 42, 42, -1, 42, 42, 42, -1, 0, 0, 1, -1,
 1, 0, 1, -1, 1, 1, 6, -1, 6, 1, 6, -1,
 6, 6, 15, -1, 15, 6, 15, -1, 15, 15, 24, -1,
 24, 15, 24, -1, 24, 24, 33, -1, 33, 24, 33, -1,
 33, 33, 40, -1, 40, 33, 40, -1, 40, 40, 54, -1,
 54, 40, 54, -1, 54, 54, 70, -1, 70, 54, 70, -1,
 70, 70, 87, -1, 87, 70, 87, -1, 87, 87, 108, -1,
 108, 87, 108, -1, 108, 108, 134, -1, 134, 108, 134, -1,
 134, 134, 156, -1, 156, 134, 156, -1, 0, 0, 1, -1,
 1, 0, 1, -1, 1, 1, 6, -1, 6, 1, 6, -1,
 6, 6, 15, -1, 15, 6, 15, -1, 15, 15, 24, -1,
 24, 15, 24, -1, 24, 24, 33, -1, 33, 24, 33, -1,
 33, 33, 40, -1, 40, 33, 40, -1, 40, 40, 54, -1,
 54, 40, 54, -1, 54, 54, 70, -1, 70, 54, 70, -1,
 70, 70, 87, -1, 87, 70, 87, -1, 87, 87, 108, -1,
 108, 87, 108, -1, 108, 108, 134, -1, 134, 108, 134, -1,
 134, 134, 156, -1, 156, 134, 156, -1, 42, 42, 42, -1,
 42, 42, 42, -1, 42, 42, 42, -1, 42, 42, 42, -1,
 42, 42, 42, -1, 42, 42, 42, -1, 42, 42, 42, -1,
 42, 42, 42, -1, 42, 42, 42, -1, 42, 42, 42, -1,
 42, 42, 42, -1, 42, 42, 42, -1, 42, 42, 42, -1,
 42, 42, 42, -1, 42, 42, 42, -1, 42, 42, 42, -1,
 42, 42, 42, -1, 42, 42, 42, -1, 42, 42, 42, -1,
 42, 42, 42, -1, 42, 42, 42, -1, 42, 42, 42, -1,
 42, 42, 42, -1, 42, 42, 42, -1, 42, 42, 42, -1,
 42, 42, 42, -1, 42, 42, 42, -1, 42, 42, 42, -1,
 42, 42, 42, -1, 42, 42, 42, -1, 42, 42, 42, -1,
 42, 42, 42, -1, 42, 42, 42, -1, 42, 42, 42, -1,
 42, 42, 42, -1, 42, 42, 42, -1, 42, 42, 42, -1,
 42, 42, 42, -1, 42, 42, 42, -1, 42, 42, 42, -1,
 42, 42, 42, -1, 42, 42, 42, -1, 42, 42, 42, -1,
 42, 42, 42, -1, 42, 42, 42, -1, 42, 42, 42, -1,
 42, 42, 42, -1, 42, 42, 42, -1, 42, 42, 42, -1,
 42, 42, 42, -1, 42, 42, 42, -1, 42, 42, 42, -1,
 42, 42, 42, -1, 42, 42, 42, -1, 42, 42, 42, -1,
 42, 42, 42, -1, 42, 42, 42, -1, 42, 42, 42, -1,
 96, 105, 113, -1, 113, 94, 94, -1, 94, 96, 113, -1,
 113, 96, 113, -1, 113, 113, 136, -1, 136, 113, 136, -1,
 136, 136, 155, -1, 155, 136, 155, -1, 155, 155, 141, -1,
 141, 155, 141, -1, 141, 141, 116, -1, 116, 141, 116, -1,
 28, 28, 28, -1, 28, 28, 28, -1, 16, 16, 16, -1,
 16, 16, 16, -1, 44, 44, 44, -1, 44, 44, 44, -1,
 44, 44, 44, -1, 44, 44, 44, -1, 44, 44, 44, -1,
 44, 44, 44, -1, 44, 44, 44, -1, 44, 44, 44, -1,
 44, 44, 44, -1, 44, 44, 44, -1, 44, 44, 44, -1,
 44, 44, 44, -1, 44, 44, 44, -1, 44, 44, 44, -1,
 44, 44, 44, -1, 44, 44, 44, -1, 44, 44, 44, -1,
 44, 44, 44, -1, 44, 44, 44, -1, 44, 44, 44, -1,
 29, 29, 29, -1, 29, 29, 29, -1, 17, 17, 17, -1,
 17, 17, 17, -1, 11, 11, 11, -1, 11, 11, 11, -1,
 92, 92, 92, -1, 92, 92, 92, -1, 11, 11, 11, -1,
 11, 11, 11, -1, 92, 92, 92, -1, 92, 92, 92, -1,
 11, 11, 11, -1, 11, 11, 11, -1, 92, 92, 92, -1,
 92, 92, 92, -1, 11, 11, 11, -1, 11, 11, 11, -1,
 92, 92, 92, -1, 92, 92, 92, -1, 11, 11, 11, -1,
 11, 11, 11, -1, 92, 92, 92, -1, 92, 92, 92, -1,
 116, 116, 116, -1, 116, 116, 116, -1, 84, 84, 104, -1,
 84, 104, 104, -1, 104, 104, 130, -1, 104, 130, 130, -1,
 130, 130, 151, -1, 130, 151, 151, -1, 151, 151, 142, -1,
 151, 142, 142, -1, 142, 142, 116, -1, 142, 116, 116, -1,
 63, 69, 71, -1, 156, 135, 156, -1, 156, 135, 133, -1,
 109, 107, 135, -1, 135, 107, 127, -1, 135, 127, 133, -1,
 71, 69, 88, -1, 69, 77, 88, -1, 88, 77, 86, -1,
 88, 86, 109, -1, 109, 86, 95, -1, 109, 95, 107, -1,
 55, 45, 45, -1, 45, 46, 55, -1, 55, 46, 56, -1,
 55, 56, 71, -1, 71, 56, 57, -1, 71, 57, 63, -1,
 41, 41, 41, -1, 41, 41, 41, -1, 41, 41, 41, -1,
 41, 41, 41, -1, 41, 41, 41, -1, 41, 41, 41, -1,
 41, 41, 41, -1, 41, 41, 41, -1, 41, 41, 41, -1,
 41, 41, 41, -1, 41, 41, 41, -1, 41, 41, 41, -1,
 41, 41, 41, -1, 41, 41, 41, -1, 41, 41, 41, -1,
 41, 41, 41, -1, 41, 41, 41, -1, 41, 41, 41, -1,
 41, 41, 41, -1, 41, 41, 41, -1, 41, 41, 41, -1,
 41, 41, 41, -1, 41, 41, 41, -1, 41, 41, 41, -1,
 41, 41, 41, -1, 41, 41, 41, -1, 41, 41, 41, -1,
 41, 41, 41, -1, 41, 41, 41, -1, 41, 41, 41, -1,
 41, 41, 41, -1, 41, 41, 41, -1, 41, 41, 41, -1,
 41, 41, 41, -1, 41, 41, 41, -1, 41, 41, 41, -1,
 41, 41, 41, -1, 41, 41, 41, -1, 41, 41, 41, -1,
 41, 41, 41, -1, 41, 41, 41, -1, 41, 41, 41, -1,
 41, 41, 41, -1, 41, 41, 41, -1, 41, 41, 41, -1,
 41, 41, 41, -1, 41, 41, 41, -1, 41, 41, 41, -1,
 41, 41, 41, -1, 41, 41, 41, -1, 41, 41, 41, -1,
 41, 41, 41, -1, 41, 41, 41, -1, 41, 41, 41, -1,
 41, 41, 41, -1, 41, 41, 41, -1, 41, 41, 41, -1,
 41, 41, 41, -1, 116, 116, 116, -1, 116, 116, 116, -1,
 84, 84, 104, -1, 84, 104, 104, -1, 104, 104, 130, -1,
 104, 130, 130, -1, 130, 130, 151, -1, 130, 151, 151, -1,
 151, 151, 142, -1, 151, 142, 142, -1, 142, 142, 116, -1,
 142, 116, 116, -1, 45, 45, 50, -1, 50, 45, 53, -1,
 50, 53, 52, -1, 52, 53, 61, -1, 61, 53, 66, -1,
 61, 66, 67, -1, 67, 66, 73, -1, 73, 66, 82, -1,
 73, 82, 83, -1, 83, 82, 89, -1, 89, 82, 102, -1,
 89, 102, 103, -1, 103, 102, 111, -1, 111, 102, 128, -1,
 111, 128, 129, -1, 129, 128, 132, -1, 132, 128, 149, -1,
 132, 149, 150, -1, 150, 149, 154, -1, 154, 149, 143, -1,
 154, 143, 144, -1, 144, 143, 125, -1, 125, 143, 117, -1,
 125, 117, 118, -1, 118, 117, 94, -1, 118, 94, 94, -1
]
colorPerVertex FALSE
normalPerVertex TRUE
}
}
]
}
