#VRML V2.0 utf8
Transform {
children [
Shape {
appearance Appearance {
material Material {
ambientIntensity 1.000000
diffuseColor 1.000000 1.000000 1.000000
emissiveColor 0.210000 0.210000 0.210000
specularColor 0.880000 0.880000 0.880000
shininess 0.210000
transparency 0.000000
}
}
geometry IndexedFaceSet {
color Color {
color [
 1.000000 1.000000 1.000000
]
}
coord Coordinate {
point [
 -0.031994 0.000000 -0.000602, -0.031994 0.000000 0.000602, -0.031994 0.012000 -0.000602, -0.031994 0.012000 0.000602, -0.031420 0.000000 -0.006063,
 -0.031420 0.000000 0.006063, -0.031420 0.012000 -0.006063, -0.031420 0.012000 0.006063, -0.031170 0.000000 -0.007241, -0.031170 0.000000 0.007241,
 -0.031170 0.012000 -0.007241, -0.031170 0.012000 0.007241, -0.030538 0.000000 -0.001256, -0.030538 0.000000 0.001256, -0.030538 0.012000 -0.001256,
 -0.030538 0.012000 0.001256, -0.030131 0.000000 -0.005120, -0.030131 0.000000 0.005120, -0.030131 0.012000 -0.005120, -0.030131 0.012000 0.005120,
 -0.029609 0.000000 0.007578, -0.029609 0.012000 0.007578, -0.029532 0.000000 -0.007589, -0.029532 0.012000 -0.007589, -0.029473 0.000000 -0.012463,
 -0.029473 0.000000 0.012463, -0.029473 0.012000 -0.012463, -0.029473 0.012000 0.012463, -0.029007 0.000000 -0.001712, -0.029007 0.000000 0.001712,
 -0.029007 0.012000 -0.001712, -0.029007 0.012000 0.001712, -0.028983 0.000000 -0.013563, -0.028983 0.000000 0.013563, -0.028983 0.012000 -0.013563,
 -0.028983 0.012000 0.013563, -0.028729 0.000000 -0.004357, -0.028729 0.000000 0.004357, -0.028729 0.012000 -0.004357, -0.028729 0.012000 0.004357,
 -0.028408 0.000000 -0.011273, -0.028408 0.000000 0.011273, -0.028408 0.012000 -0.011273, -0.028408 0.012000 0.011273, -0.028146 0.000000 -0.013593,
 -0.028146 0.012000 -0.013593, -0.028017 0.000000 0.007705, -0.028017 0.012000 0.007705, -0.027862 0.000000 -0.007706, -0.027862 0.012000 -0.007706,
 -0.027429 0.000000 -0.001959, -0.027429 0.000000 0.001959, -0.027429 0.012000 -0.001959, -0.027429 0.012000 0.001959, -0.027386 0.000000 0.013569,
 -0.027386 0.012000 0.013569, -0.027237 0.000000 -0.003786, -0.027237 0.000000 0.003786, -0.027237 0.012000 -0.003786, -0.027237 0.012000 0.003786,
 -0.027195 0.000000 -0.010235, -0.027195 0.000000 0.010235, -0.027195 0.012000 -0.010235, -0.027195 0.012000 0.010235, -0.026422 0.000000 -0.007619,
 -0.026422 0.000000 0.007619, -0.026422 0.012000 -0.007619, -0.026422 0.012000 0.007619, -0.026238 0.000000 -0.018319, -0.026238 0.000000 0.018319,
 -0.026238 0.012000 -0.018319, -0.026238 0.012000 0.018319, -0.026177 0.000000 -0.013430, -0.026177 0.012000 -0.013430, -0.025855 0.000000 -0.009367,
 -0.025855 0.000000 0.009367, -0.025855 0.012000 -0.009367, -0.025855 0.012000 0.009367, -0.025803 0.000000 0.013362, -0.025803 0.012000 0.013362,
 -0.025530 0.000000 -0.019293, -0.025530 0.000000 0.019293, -0.025530 0.012000 -0.019293, -0.025530 0.012000 0.019293, -0.025444 0.000000 -0.016933,
 -0.025444 0.000000 0.016933, -0.025444 0.012000 -0.016933, -0.025444 0.012000 0.016933, -0.024608 0.000000 -0.001433, -0.024608 0.000000 0.001433,
 -0.024608 0.012000 -0.001433, -0.024608 0.012000 0.001433, -0.024473 0.000000 -0.015665, -0.024473 0.000000 0.015665, -0.024473 0.012000 -0.015665,
 -0.024473 0.012000 0.015665, -0.024276 0.000000 -0.004280, -0.024276 0.000000 0.004280, -0.024276 0.012000 -0.004280, -0.024276 0.012000 0.004280,
 -0.024261 0.000000 -0.012946, -0.024261 0.000000 0.012946, -0.024261 0.012000 -0.012946, -0.024261 0.012000 0.012946, -0.023967 0.000000 -0.018966,
 -0.023967 0.000000 0.018966, -0.023967 0.012000 -0.018966, -0.023967 0.012000 0.018966, -0.023614 0.000000 -0.007070, -0.023614 0.000000 0.007070,
 -0.023614 0.012000 -0.007070, -0.023614 0.012000 0.007070, -0.023342 0.000000 -0.014537, -0.023342 0.000000 0.014537, -0.023342 0.012000 -0.014537,
 -0.023342 0.012000 0.014537, -0.022634 0.000000 -0.009763, -0.022634 0.000000 0.009763, -0.022634 0.012000 -0.009763, -0.022634 0.012000 0.009763,
 -0.022461 0.000000 -0.018434, -0.022461 0.000000 0.018434, -0.022461 0.012000 -0.018434, -0.022461 0.012000 0.018434, -0.021856 0.000000 -0.023374,
 -0.021856 0.000000 0.023374, -0.021856 0.012000 -0.023374, -0.021856 0.012000 0.023374, -0.021367 0.000000 -0.021853, -0.021367 0.000000 0.021853,
 -0.021367 0.012000 -0.021853, -0.021367 0.012000 0.021853, -0.021348 0.000000 -0.012325, -0.021348 0.000000 0.012325, -0.021348 0.012000 -0.012325,
 -0.021348 0.012000 0.012325, -0.021039 0.000000 -0.017708, -0.021039 0.000000 0.017708, -0.021039 0.012000 -0.017708, -0.021039 0.012000 0.017708,
 -0.020961 0.000000 -0.024179, -0.020961 0.000000 0.024179, -0.020961 0.012000 -0.024179, -0.020961 0.012000 0.024179, -0.020681 0.000000 -0.020411,
 -0.020681 0.000000 0.020411, -0.020681 0.012000 -0.020411, -0.020681 0.012000 0.020411, -0.019810 0.000000 -0.019073, -0.019810 0.000000 0.019073,
 -0.019810 0.012000 -0.019073, -0.019810 0.012000 0.019073, -0.019772 0.000000 -0.014720, -0.019772 0.000000 0.014720, -0.019772 0.012000 -0.014720,
 -0.019772 0.012000 0.014720, -0.019500 0.000000 -0.023535, -0.019500 0.000000 0.023535, -0.019500 0.012000 -0.023535, -0.019500 0.012000 0.023535,
 -0.018137 0.000000 -0.022701, -0.018137 0.000000 0.022701, -0.018137 0.012000 -0.022701, -0.018137 0.012000 0.022701, -0.017930 0.000000 -0.016916,
 -0.017930 0.000000 0.016916, -0.017930 0.012000 -0.016916, -0.017930 0.012000 0.016916, -0.016898 0.000000 -0.021695, -0.016898 0.000000 0.021695,
 -0.016898 0.012000 -0.021695, -0.016898 0.012000 0.021695, -0.016519 0.000000 -0.027407, -0.016519 0.000000 0.027407, -0.016519 0.012000 -0.027407,
 -0.016519 0.012000 0.027407, -0.016357 0.000000 -0.025818, -0.016357 0.000000 0.025818, -0.016357 0.012000 -0.025818, -0.016357 0.012000 0.025818,
 -0.015986 0.000000 -0.024265, -0.015986 0.000000 0.024265, -0.015986 0.012000 -0.024265, -0.015986 0.012000 0.024265, -0.015845 0.000000 -0.018883,
 -0.015845 0.000000 0.018883, -0.015845 0.012000 -0.018883, -0.015845 0.012000 0.018883, -0.015476 0.000000 -0.028009, -0.015476 0.000000 0.028009,
 -0.015476 0.012000 -0.028009, -0.015476 0.012000 0.028009, -0.015411 0.000000 -0.022775, -0.015411 0.000000 0.022775, -0.015411 0.012000 -0.022775,
 -0.015411 0.012000 0.022775, -0.014181 0.000000 -0.027075, -0.014181 0.000000 0.027075, -0.014181 0.012000 -0.027075, -0.014181 0.012000 0.027075,
 -0.013545 0.000000 -0.020595, -0.013545 0.000000 0.020595, -0.013545 0.012000 -0.020595, -0.013545 0.012000 0.020595, -0.013021 0.000000 -0.025976,
 -0.013021 0.000000 0.025976, -0.013021 0.012000 -0.025976, -0.013021 0.012000 0.025976, -0.012018 0.000000 -0.024734, -0.012018 0.000000 0.024734,
 -0.012018 0.012000 -0.024734, -0.012018 0.012000 0.024734, -0.011063 0.000000 -0.022028, -0.011063 0.000000 0.022028, -0.011063 0.012000 -0.022028,
 -0.011063 0.012000 0.022028, -0.010632 0.000000 -0.028655, -0.010632 0.000000 0.028655, -0.010632 0.012000 -0.028655, -0.010632 0.012000 0.028655,
 -0.010591 0.000000 -0.027058, -0.010591 0.000000 0.027058, -0.010591 0.012000 -0.027058, -0.010591 0.012000 0.027058, -0.010459 0.000000 -0.030242,
 -0.010459 0.000000 0.030242, -0.010459 0.012000 -0.030242, -0.010459 0.012000 0.030242, -0.010339 0.000000 -0.025481, -0.010339 0.000000 0.025481,
 -0.010339 0.012000 -0.025481, -0.010339 0.012000 0.025481, -0.009314 0.000000 -0.030614, -0.009314 0.000000 0.030614, -0.009314 0.012000 -0.030614,
 -0.009314 0.012000 0.030614, -0.008431 0.000000 -0.023163, -0.008431 0.000000 0.023163, -0.008431 0.012000 -0.023163, -0.008431 0.012000 0.023163,
 -0.008242 0.000000 -0.029431, -0.008242 0.000000 0.029431, -0.008242 0.012000 -0.029431, -0.008242 0.012000 0.029431, -0.007336 0.000000 -0.028116,
 -0.007336 0.000000 0.028116, -0.007336 0.012000 -0.028116, -0.007336 0.012000 0.028116, -0.006613 0.000000 -0.026692, -0.006613 0.000000 0.026692,
 -0.006613 0.012000 -0.026692, -0.006613 0.012000 0.026692, -0.005685 0.000000 -0.023986, -0.005685 0.000000 0.023986, -0.005685 0.012000 -0.023986,
 -0.005685 0.012000 0.023986, -0.004816 0.000000 -0.027074, -0.004816 0.000000 0.027074, -0.004816 0.012000 -0.027074, -0.004816 0.012000 0.027074,
 -0.004734 0.000000 -0.028669, -0.004734 0.000000 0.028669, -0.004734 0.012000 -0.028669, -0.004734 0.012000 0.028669, -0.004442 0.000000 -0.030239,
 -0.004442 0.000000 0.030239, -0.004442 0.012000 -0.030239, -0.004442 0.012000 0.030239, -0.003943 0.000000 -0.031756, -0.003943 0.000000 0.031756,
 -0.003943 0.012000 -0.031756, -0.003943 0.012000 0.031756, -0.002862 0.000000 -0.024483, -0.002862 0.000000 0.024483, -0.002862 0.012000 -0.024483,
 -0.002862 0.012000 0.024483, -0.002745 0.000000 -0.031882, -0.002745 0.000000 0.031882, -0.002745 0.012000 -0.031882, -0.002745 0.012000 0.031882,
 -0.001942 0.000000 -0.030502, -0.001942 0.000000 0.030502, -0.001942 0.012000 -0.030502, -0.001942 0.012000 0.030502, -0.001330 0.000000 -0.029027,
 -0.001330 0.000000 0.029027, -0.001330 0.012000 -0.029027, -0.001330 0.012000 0.029027, -0.000919 0.000000 -0.027484, -0.000919 0.000000 0.027484,
 -0.000919 0.012000 -0.027484, -0.000919 0.012000 0.027484, -0.000000 0.000000 -0.027499, 0.000000 0.000000 -0.024650, -0.000000 0.000000 0.024650,
 -0.000000 0.012000 -0.027499, 0.000000 0.012000 -0.024650, -0.000000 0.012000 0.024650, 0.000919 0.000000 -0.027484, 0.000919 0.000000 0.027484,
 0.000919 0.012000 -0.027484, 0.000919 0.012000 0.027484, 0.001330 0.000000 -0.029027, 0.001330 0.000000 0.029027, 0.001330 0.012000 -0.029027,
 0.001330 0.012000 0.029027, 0.001942 0.000000 -0.030502, 0.001942 0.000000 0.030502, 0.001942 0.012000 -0.030502, 0.001942 0.012000 0.030502,
 0.002745 0.000000 -0.031882, 0.002745 0.000000 0.031882, 0.002745 0.012000 -0.031882, 0.002745 0.012000 0.031882, 0.002862 0.000000 -0.024483,
 0.002862 0.000000 0.024483, 0.002862 0.012000 -0.024483, 0.002862 0.012000 0.024483, 0.003943 0.000000 -0.031756, 0.003943 0.000000 0.031756,
 0.003943 0.012000 -0.031756, 0.003943 0.012000 0.031756, 0.004442 0.000000 -0.030239, 0.004442 0.000000 0.030239, 0.004442 0.012000 -0.030239,
 0.004442 0.012000 0.030239, 0.004734 0.000000 -0.028669, 0.004734 0.000000 0.028669, 0.004734 0.012000 -0.028669, 0.004734 0.012000 0.028669,
 0.004816 0.000000 -0.027074, 0.004816 0.000000 0.027074, 0.004816 0.012000 -0.027074, 0.004816 0.012000 0.027074, 0.005685 0.000000 -0.023986,
 0.005685 0.000000 0.023986, 0.005685 0.012000 -0.023986, 0.005685 0.012000 0.023986, 0.006613 0.000000 -0.026692, 0.006613 0.000000 0.026692,
 0.006613 0.012000 -0.026692, 0.006613 0.012000 0.026692, 0.007336 0.000000 -0.028116, 0.007336 0.000000 0.028116, 0.007336 0.012000 -0.028116,
 0.007336 0.012000 0.028116, 0.008242 0.000000 -0.029431, 0.008242 0.000000 0.029431, 0.008242 0.012000 -0.029431, 0.008242 0.012000 0.029431,
 0.008431 0.000000 -0.023163, 0.008431 0.000000 0.023163, 0.008431 0.012000 -0.023163, 0.008431 0.012000 0.023163, 0.009314 0.000000 -0.030614,
 0.009314 0.000000 0.030614, 0.009314 0.012000 -0.030614, 0.009314 0.012000 0.030614, 0.010339 0.000000 -0.025481, 0.010339 0.000000 0.025481,
 0.010339 0.012000 -0.025481, 0.010339 0.012000 0.025481, 0.010459 0.000000 -0.030242, 0.010459 0.000000 0.030242, 0.010459 0.012000 -0.030242,
 0.010459 0.012000 0.030242, 0.010591 0.000000 -0.027058, 0.010591 0.000000 0.027058, 0.010591 0.012000 -0.027058, 0.010591 0.012000 0.027058,
 0.010632 0.000000 -0.028655, 0.010632 0.000000 0.028655, 0.010632 0.012000 -0.028655, 0.010632 0.012000 0.028655, 0.011063 0.000000 -0.022028,
 0.011063 0.000000 0.022028, 0.011063 0.012000 -0.022028, 0.011063 0.012000 0.022028, 0.012018 0.000000 -0.024734, 0.012018 0.000000 0.024734,
 0.012018 0.012000 -0.024734, 0.012018 0.012000 0.024734, 0.013021 0.000000 -0.025976, 0.013021 0.000000 0.025976, 0.013021 0.012000 -0.025976,
 0.013021 0.012000 0.025976, 0.013545 0.000000 -0.020595, 0.013545 0.000000 0.020595, 0.013545 0.012000 -0.020595, 0.013545 0.012000 0.020595,
 0.014181 0.000000 -0.027075, 0.014181 0.000000 0.027075, 0.014181 0.012000 -0.027075, 0.014181 0.012000 0.027075, 0.015411 0.000000 -0.022775,
 0.015411 0.000000 0.022775, 0.015411 0.012000 -0.022775, 0.015411 0.012000 0.022775, 0.015476 0.000000 -0.028009, 0.015476 0.000000 0.028009,
 0.015476 0.012000 -0.028009, 0.015476 0.012000 0.028009, 0.015845 0.000000 -0.018883, 0.015845 0.000000 0.018883, 0.015845 0.012000 -0.018883,
 0.015845 0.012000 0.018883, 0.015986 0.000000 -0.024265, 0.015986 0.000000 0.024265, 0.015986 0.012000 -0.024265, 0.015986 0.012000 0.024265,
 0.016357 0.000000 -0.025818, 0.016357 0.000000 0.025818, 0.016357 0.012000 -0.025818, 0.016357 0.012000 0.025818, 0.016519 0.000000 -0.027407,
 0.016519 0.000000 0.027407, 0.016519 0.012000 -0.027407, 0.016519 0.012000 0.027407, 0.016898 0.000000 -0.021695, 0.016898 0.000000 0.021695,
 0.016898 0.012000 -0.021695, 0.016898 0.012000 0.021695, 0.017930 0.000000 -0.016916, 0.017930 0.000000 0.016916, 0.017930 0.012000 -0.016916,
 0.017930 0.012000 0.016916, 0.018137 0.000000 -0.022701, 0.018137 0.000000 0.022701, 0.018137 0.012000 -0.022701, 0.018137 0.012000 0.022701,
 0.019500 0.000000 -0.023535, 0.019500 0.000000 0.023535, 0.019500 0.012000 -0.023535, 0.019500 0.012000 0.023535, 0.019772 0.000000 -0.014720,
 0.019772 0.000000 0.014720, 0.019772 0.012000 -0.014720, 0.019772 0.012000 0.014720, 0.019810 0.000000 -0.019073, 0.019810 0.000000 0.019073,
 0.019810 0.012000 -0.019073, 0.019810 0.012000 0.019073, 0.020681 0.000000 -0.020411, 0.020681 0.000000 0.020411, 0.020681 0.012000 -0.020411,
 0.020681 0.012000 0.020411, 0.020961 0.000000 -0.024179, 0.020961 0.000000 0.024179, 0.020961 0.012000 -0.024179, 0.020961 0.012000 0.024179,
 0.021039 0.000000 -0.017708, 0.021039 0.000000 0.017708, 0.021039 0.012000 -0.017708, 0.021039 0.012000 0.017708, 0.021348 0.000000 -0.012325,
 0.021348 0.000000 0.012325, 0.021348 0.012000 -0.012325, 0.021348 0.012000 0.012325, 0.021367 0.000000 -0.021853, 0.021367 0.000000 0.021853,
 0.021367 0.012000 -0.021853, 0.021367 0.012000 0.021853, 0.021856 0.000000 -0.023374, 0.021856 0.000000 0.023374, 0.021856 0.012000 -0.023374,
 0.021856 0.012000 0.023374, 0.022461 0.000000 -0.018434, 0.022461 0.000000 0.018434, 0.022461 0.012000 -0.018434, 0.022461 0.012000 0.018434,
 0.022634 0.000000 -0.009763, 0.022634 0.000000 0.009763, 0.022634 0.012000 -0.009763, 0.022634 0.012000 0.009763, 0.023342 0.000000 -0.014537,
 0.023342 0.000000 0.014537, 0.023342 0.012000 -0.014537, 0.023342 0.012000 0.014537, 0.023614 0.000000 -0.007070, 0.023614 0.000000 0.007070,
 0.023614 0.012000 -0.007070, 0.023614 0.012000 0.007070, 0.023967 0.000000 -0.018966, 0.023967 0.000000 0.018966, 0.023967 0.012000 -0.018966,
 0.023967 0.012000 0.018966, 0.024261 0.000000 -0.012946, 0.024261 0.000000 0.012946, 0.024261 0.012000 -0.012946, 0.024261 0.012000 0.012946,
 0.024276 0.000000 -0.004280, 0.024276 0.000000 0.004280, 0.024276 0.012000 -0.004280, 0.024276 0.012000 0.004280, 0.024473 0.000000 -0.015665,
 0.024473 0.000000 0.015665, 0.024473 0.012000 -0.015665, 0.024473 0.012000 0.015665, 0.024608 0.000000 -0.001433, 0.024608 0.000000 0.001433,
 0.024608 0.012000 -0.001433, 0.024608 0.012000 0.001433, 0.025444 0.000000 -0.016933, 0.025444 0.000000 0.016933, 0.025444 0.012000 -0.016933,
 0.025444 0.012000 0.016933, 0.025530 0.000000 -0.019293, 0.025530 0.000000 0.019293, 0.025530 0.012000 -0.019293, 0.025530 0.012000 0.019293,
 0.025803 0.000000 0.013362, 0.025803 0.012000 0.013362, 0.025855 0.000000 -0.009367, 0.025855 0.000000 0.009367, 0.025855 0.012000 -0.009367,
 0.025855 0.012000 0.009367, 0.026177 0.000000 -0.013430, 0.026177 0.012000 -0.013430, 0.026238 0.000000 -0.018319, 0.026238 0.000000 0.018319,
 0.026238 0.012000 -0.018319, 0.026238 0.012000 0.018319, 0.026422 0.000000 -0.007619, 0.026422 0.000000 0.007619, 0.026422 0.012000 -0.007619,
 0.026422 0.012000 0.007619, 0.027195 0.000000 -0.010235, 0.027195 0.000000 0.010235, 0.027195 0.012000 -0.010235, 0.027195 0.012000 0.010235,
 0.027237 0.000000 -0.003786, 0.027237 0.000000 0.003786, 0.027237 0.012000 -0.003786, 0.027237 0.012000 0.003786, 0.027386 0.000000 0.013569,
 0.027386 0.012000 0.013569, 0.027429 0.000000 -0.001959, 0.027429 0.000000 0.001959, 0.027429 0.012000 -0.001959, 0.027429 0.012000 0.001959,
 0.027862 0.000000 -0.007706, 0.027862 0.012000 -0.007706, 0.028017 0.000000 0.007705, 0.028017 0.012000 0.007705, 0.028146 0.000000 -0.013593,
 0.028146 0.012000 -0.013593, 0.028408 0.000000 -0.011273, 0.028408 0.000000 0.011273, 0.028408 0.012000 -0.011273, 0.028408 0.012000 0.011273,
 0.028729 0.000000 -0.004357, 0.028729 0.000000 0.004357, 0.028729 0.012000 -0.004357, 0.028729 0.012000 0.004357, 0.028983 0.000000 -0.013563,
 0.028983 0.000000 0.013563, 0.028983 0.012000 -0.013563, 0.028983 0.012000 0.013563, 0.029007 0.000000 -0.001712, 0.029007 0.000000 0.001712,
 0.029007 0.012000 -0.001712, 0.029007 0.012000 0.001712, 0.029473 0.000000 -0.012463, 0.029473 0.000000 0.012463, 0.029473 0.012000 -0.012463,
 0.029473 0.012000 0.012463, 0.029532 0.000000 -0.007589, 0.029532 0.012000 -0.007589, 0.029609 0.000000 0.007578, 0.029609 0.012000 0.007578,
 0.030131 0.000000 -0.005120, 0.030131 0.000000 0.005120, 0.030131 0.012000 -0.005120, 0.030131 0.012000 0.005120, 0.030538 0.000000 -0.001256,
 0.030538 0.000000 0.001256, 0.030538 0.012000 -0.001256, 0.030538 0.012000 0.001256, 0.031170 0.000000 -0.007241, 0.031170 0.000000 0.007241,
 0.031170 0.012000 -0.007241, 0.031170 0.012000 0.007241, 0.031420 0.000000 -0.006063, 0.031420 0.000000 0.006063, 0.031420 0.012000 -0.006063,
 0.031420 0.012000 0.006063, 0.031994 0.000000 -0.000602, 0.031994 0.000000 0.000602, 0.031994 0.012000 -0.000602, 0.031994 0.012000 0.000602
]
}
normal Normal {
vector [
 -0.999879 0.000000 -0.015525, -0.999879 0.000000 0.015525, -0.999823 0.000000 -0.018816, -0.999823 0.000000 0.018816, -0.999392 0.000000 -0.034855,
 -0.999392 0.000000 0.034855, -0.999143 0.000000 -0.041385, -0.999143 0.000000 0.041385, -0.998308 0.000000 -0.058145, -0.998308 0.000000 0.058145,
 -0.997458 0.000000 -0.071250, -0.997458 0.000000 0.071250, -0.995791 0.000000 -0.091655, -0.995791 0.000000 0.091655, -0.993087 0.000000 -0.117384,
 -0.993087 0.000000 0.117384, -0.990475 0.000000 -0.137690, -0.990475 0.000000 0.137690, -0.985914 0.000000 -0.167253, -0.985914 0.000000 0.167253,
 -0.984808 0.000000 -0.173648, -0.984808 0.000000 0.173648, -0.984800 0.000000 -0.173693, -0.984800 0.000000 0.173693, -0.981887 0.000000 -0.189470,
 -0.981887 0.000000 0.189470, -0.981257 0.000000 -0.192701, -0.981257 0.000000 0.192701, -0.974802 0.000000 -0.223072, -0.974802 0.000000 0.223072,
 -0.974062 0.000000 -0.226280, -0.974062 0.000000 0.226280, -0.970307 0.000000 -0.241878, -0.970307 0.000000 0.241878, -0.968705 0.000000 -0.248214,
 -0.968705 0.000000 0.248214, -0.960848 0.000000 -0.277076, -0.960848 0.000000 0.277076, -0.957990 0.000000 -0.286803, -0.957990 0.000000 0.286803,
 -0.954974 0.000000 -0.296689, -0.954974 0.000000 0.296689, -0.946980 0.000000 -0.321293, -0.946980 0.000000 0.321293, -0.940204 0.000000 -0.340613,
 -0.940204 0.000000 0.340613, -0.929596 0.000000 -0.368581, -0.929596 0.000000 0.368581, -0.927167 0.000000 -0.374648, -0.927167 0.000000 0.374648,
 -0.921037 0.000000 -0.389475, -0.921037 0.000000 0.389475, -0.919750 0.000000 -0.392505, -0.919750 0.000000 0.392505, -0.918216 0.000000 -0.396080,
 -0.918216 0.000000 0.396080, -0.907121 0.000000 -0.420870, -0.907121 0.000000 0.420870, -0.905730 0.000000 -0.423854, -0.905730 0.000000 0.423854,
 -0.898814 0.000000 -0.438331, -0.898814 0.000000 0.438331, -0.895930 0.000000 -0.444195, -0.895930 0.000000 0.444195, -0.882244 0.000000 -0.470793,
 -0.882244 0.000000 0.470793, -0.872421 0.000000 -0.488756, -0.872421 0.000000 0.488756, -0.866025 0.000000 -0.500000, -0.866025 0.000000 0.500000,
 -0.859485 0.000000 -0.511160, -0.859485 0.000000 0.511160, -0.848841 0.000000 -0.528649, -0.848841 0.000000 0.528649, -0.832649 0.000000 -0.553800,
 -0.832649 0.000000 0.553800, -0.829012 0.000000 -0.559230, -0.829012 0.000000 0.559230, -0.819934 0.000000 -0.572458, -0.819934 0.000000 0.572458,
 -0.818045 0.000000 -0.575154, -0.818045 0.000000 0.575154, -0.802123 0.000000 -0.597159, -0.802123 0.000000 0.597159, -0.799794 0.000000 -0.600274,
 -0.799794 0.000000 0.600274, -0.797814 0.000000 -0.602904, -0.797814 0.000000 0.602904, -0.788038 0.000000 -0.615626, -0.788038 0.000000 0.615626,
 -0.783998 0.000000 -0.620763, -0.783998 0.000000 0.620763, -0.765081 0.000000 -0.643934, -0.765081 0.000000 0.643934, -0.751738 0.000000 -0.659462,
 -0.751738 0.000000 0.659462, -0.734427 0.000000 -0.678687, -0.734427 0.000000 0.678687, -0.727374 0.000000 -0.686242, -0.727374 0.000000 0.686242,
 -0.720379 0.000000 -0.693581, -0.720379 0.000000 0.693581, -0.699313 0.000000 -0.714816, -0.699313 0.000000 0.714816, -0.694626 0.000000 -0.719371,
 -0.694626 0.000000 0.719371, -0.682995 0.000000 -0.730423, -0.682995 0.000000 0.730423, -0.680587 0.000000 -0.732667, -0.680587 0.000000 0.732667,
 -0.657513 0.000000 -0.753443, -0.657513 0.000000 0.753443, -0.655029 0.000000 -0.755604, -0.655029 0.000000 0.755604, -0.642822 0.000000 -0.766016,
 -0.642822 0.000000 0.766016, -0.642788 0.000000 -0.766044, -0.642788 0.000000 0.766044, -0.637802 0.000000 -0.770200, -0.637802 0.000000 0.770200,
 -0.614481 0.000000 -0.788932, -0.614481 0.000000 0.788932, -0.598201 0.000000 -0.801346, -0.598201 0.000000 0.801346, -0.577271 0.000000 -0.816553,
 -0.577271 0.000000 0.816553, -0.560434 0.000000 -0.828199, -0.560434 0.000000 0.828199, -0.549509 0.000000 -0.835488, -0.549509 0.000000 0.835488,
 -0.535412 0.000000 -0.844591, -0.535412 0.000000 0.844591, -0.529881 0.000000 -0.848072, -0.529881 0.000000 0.848072, -0.516207 0.000000 -0.856464,
 -0.516207 0.000000 0.856464, -0.513385 0.000000 -0.858159, -0.513385 0.000000 0.858159, -0.486495 0.000000 -0.873684, -0.486495 0.000000 0.873684,
 -0.483616 0.000000 -0.875280, -0.483616 0.000000 0.875280, -0.469511 0.000000 -0.882926, -0.469511 0.000000 0.882926, -0.463731 0.000000 -0.885976,
 -0.463731 0.000000 0.885976, -0.448799 0.000000 -0.893633, -0.448799 0.000000 0.893633, -0.437025 0.000000 -0.899449, -0.437025 0.000000 0.899449,
 -0.418520 0.000000 -0.908208, -0.418520 0.000000 0.908208, -0.394886 0.000000 -0.918730, -0.394886 0.000000 0.918730, -0.375994 0.000000 -0.926622,
 -0.375994 0.000000 0.926622, -0.348112 0.000000 -0.937453, -0.348112 0.000000 0.937453, -0.342020 0.000000 -0.939693, -0.342020 0.000000 0.939693,
 -0.341978 0.000000 -0.939708, -0.341978 0.000000 0.939708, -0.326858 0.000000 -0.945074, -0.326858 0.000000 0.945074, -0.323745 0.000000 -0.946144,
 -0.323745 0.000000 0.946144, -0.294215 0.000000 -0.955739, -0.294215 0.000000 0.955739, -0.291067 0.000000 -0.956703, -0.291067 0.000000 0.956703,
 -0.275681 0.000000 -0.961249, -0.275681 0.000000 0.961249, -0.269393 0.000000 -0.963030, -0.269393 0.000000 0.963030, -0.240469 0.000000 -0.970657,
 -0.240469 0.000000 0.970657, -0.230616 0.000000 -0.973045, -0.230616 0.000000 0.973045, -0.220547 0.000000 -0.975376, -0.220547 0.000000 0.975376,
 -0.195242 0.000000 0.980755, -0.175123 0.000000 -0.984547, -0.175123 0.000000 0.984547, -0.164097 0.000000 -0.986444, -0.145597 0.000000 0.989344,
 -0.139195 0.000000 -0.990265, -0.139129 0.000000 -0.990274, -0.139129 0.000000 0.990274, -0.123223 0.000000 -0.992379, -0.123223 0.000000 0.992379,
 -0.119956 0.000000 -0.992779, -0.119956 0.000000 0.992779, -0.116093 0.000000 -0.993238, -0.116093 0.000000 0.993238, -0.089076 0.000000 -0.996025,
 -0.089076 0.000000 0.996025, -0.085797 0.000000 -0.996313, -0.085797 0.000000 0.996313, -0.069801 0.000000 -0.997561, -0.069801 0.000000 0.997561,
 -0.063280 0.000000 0.997996, -0.033403 0.000000 -0.999442, -0.033403 0.000000 0.999442, -0.012935 0.000000 0.999916, 0.000000 -1.000000 0.000000,
 0.000000 0.000000 -1.000000, -0.000000 0.000000 1.000000, 0.000000 1.000000 0.000000, 0.012935 0.000000 0.999916, 0.033403 0.000000 -0.999442,
 0.033403 0.000000 0.999442, 0.063280 0.000000 0.997996, 0.069801 0.000000 -0.997561, 0.069801 0.000000 0.997561, 0.085797 0.000000 -0.996313,
 0.085797 0.000000 0.996313, 0.089076 0.000000 -0.996025, 0.089076 0.000000 0.996025, 0.116093 0.000000 -0.993238, 0.116093 0.000000 0.993238,
 0.119956 0.000000 -0.992779, 0.119956 0.000000 0.992779, 0.123223 0.000000 -0.992379, 0.123223 0.000000 0.992379, 0.139129 0.000000 -0.990274,
 0.139129 0.000000 0.990274, 0.139195 0.000000 -0.990265, 0.145597 0.000000 0.989344, 0.164097 0.000000 -0.986444, 0.175123 0.000000 -0.984547,
 0.175123 0.000000 0.984547, 0.195242 0.000000 0.980755, 0.220547 0.000000 -0.975376, 0.220547 0.000000 0.975376, 0.230616 0.000000 -0.973045,
 0.230616 0.000000 0.973045, 0.240469 0.000000 -0.970657, 0.240469 0.000000 0.970657, 0.269393 0.000000 -0.963030, 0.269393 0.000000 0.963030,
 0.275681 0.000000 -0.961249, 0.275681 0.000000 0.961249, 0.291067 0.000000 -0.956703, 0.291067 0.000000 0.956703, 0.294215 0.000000 -0.955739,
 0.294215 0.000000 0.955739, 0.323745 0.000000 -0.946144, 0.323745 0.000000 0.946144, 0.326858 0.000000 -0.945074, 0.326858 0.000000 0.945074,
 0.341978 0.000000 -0.939708, 0.341978 0.000000 0.939708, 0.342020 0.000000 -0.939693, 0.342020 0.000000 0.939693, 0.348112 0.000000 -0.937453,
 0.348112 0.000000 0.937453, 0.375994 0.000000 -0.926622, 0.375994 0.000000 0.926622, 0.394886 0.000000 -0.918730, 0.394886 0.000000 0.918730,
 0.418520 0.000000 -0.908208, 0.418520 0.000000 0.908208, 0.437025 0.000000 -0.899449, 0.437025 0.000000 0.899449, 0.448799 0.000000 -0.893633,
 0.448799 0.000000 0.893633, 0.463731 0.000000 -0.885976, 0.463731 0.000000 0.885976, 0.469511 0.000000 -0.882926, 0.469511 0.000000 0.882926,
 0.483616 0.000000 -0.875280, 0.483616 0.000000 0.875280, 0.486495 0.000000 -0.873684, 0.486495 0.000000 0.873684, 0.513385 0.000000 -0.858159,
 0.513385 0.000000 0.858159, 0.516207 0.000000 -0.856464, 0.516207 0.000000 0.856464, 0.529881 0.000000 -0.848072, 0.529881 0.000000 0.848072,
 0.535412 0.000000 -0.844591, 0.535412 0.000000 0.844591, 0.549509 0.000000 -0.835488, 0.549509 0.000000 0.835488, 0.560434 0.000000 -0.828199,
 0.560434 0.000000 0.828199, 0.577271 0.000000 -0.816553, 0.577271 0.000000 0.816553, 0.598201 0.000000 -0.801346, 0.598201 0.000000 0.801346,
 0.614481 0.000000 -0.788932, 0.614481 0.000000 0.788932, 0.637802 0.000000 -0.770200, 0.637802 0.000000 0.770200, 0.642788 0.000000 -0.766044,
 0.642788 0.000000 0.766044, 0.642822 0.000000 -0.766016, 0.642822 0.000000 0.766016, 0.655029 0.000000 -0.755604, 0.655029 0.000000 0.755604,
 0.657513 0.000000 -0.753443, 0.657513 0.000000 0.753443, 0.680587 0.000000 -0.732667, 0.680587 0.000000 0.732667, 0.682995 0.000000 -0.730423,
 0.682995 0.000000 0.730423, 0.694626 0.000000 -0.719371, 0.694626 0.000000 0.719371, 0.699313 0.000000 -0.714816, 0.699313 0.000000 0.714816,
 0.720379 0.000000 -0.693581, 0.720379 0.000000 0.693581, 0.727374 0.000000 -0.686242, 0.727374 0.000000 0.686242, 0.734427 0.000000 -0.678687,
 0.734427 0.000000 0.678687, 0.751738 0.000000 -0.659462, 0.751738 0.000000 0.659462, 0.765081 0.000000 -0.643934, 0.765081 0.000000 0.643934,
 0.783998 0.000000 -0.620763, 0.783998 0.000000 0.620763, 0.788038 0.000000 -0.615626, 0.788038 0.000000 0.615626, 0.797814 0.000000 -0.602904,
 0.797814 0.000000 0.602904, 0.799794 0.000000 -0.600274, 0.799794 0.000000 0.600274, 0.802123 0.000000 -0.597159, 0.802123 0.000000 0.597159,
 0.818045 0.000000 -0.575154, 0.818045 0.000000 0.575154, 0.819934 0.000000 -0.572458, 0.819934 0.000000 0.572458, 0.829012 0.000000 -0.559230,
 0.829012 0.000000 0.559230, 0.832649 0.000000 -0.553800, 0.832649 0.000000 0.553800, 0.848841 0.000000 -0.528649, 0.848841 0.000000 0.528649,
 0.859485 0.000000 -0.511160, 0.859485 0.000000 0.511160, 0.866025 0.000000 -0.500000, 0.866025 0.000000 0.500000, 0.872421 0.000000 -0.488756,
 0.872421 0.000000 0.488756, 0.882244 0.000000 -0.470793, 0.882244 0.000000 0.470793, 0.895930 0.000000 -0.444195, 0.895930 0.000000 0.444195,
 0.898814 0.000000 -0.438331, 0.898814 0.000000 0.438331, 0.905730 0.000000 -0.423854, 0.905730 0.000000 0.423854, 0.907121 0.000000 -0.420870,
 0.907121 0.000000 0.420870, 0.918216 0.000000 -0.396080, 0.918216 0.000000 0.396080, 0.919750 0.000000 -0.392505, 0.919750 0.000000 0.392505,
 0.921037 0.000000 -0.389475, 0.921037 0.000000 0.389475, 0.927167 0.000000 -0.374648, 0.927167 0.000000 0.374648, 0.929596 0.000000 -0.368581,
 0.929596 0.000000 0.368581, 0.940204 0.000000 -0.340613, 0.940204 0.000000 0.340613, 0.946980 0.000000 -0.321293, 0.946980 0.000000 0.321293,
 0.954974 0.000000 -0.296689, 0.954974 0.000000 0.296689, 0.957990 0.000000 -0.286803, 0.957990 0.000000 0.286803, 0.960848 0.000000 -0.277076,
 0.960848 0.000000 0.277076, 0.968705 0.000000 -0.248214, 0.968705 0.000000 0.248214, 0.970307 0.000000 -0.241878, 0.970307 0.000000 0.241878,
 0.974062 0.000000 -0.226280, 0.974062 0.000000 0.226280, 0.974802 0.000000 -0.223072, 0.974802 0.000000 0.223072, 0.981257 0.000000 -0.192701,
 0.981257 0.000000 0.192701, 0.981887 0.000000 -0.189470, 0.981887 0.000000 0.189470, 0.984800 0.000000 -0.173693, 0.984800 0.000000 0.173693,
 0.984808 0.000000 -0.173648, 0.984808 0.000000 0.173648, 0.985914 0.000000 -0.167253, 0.985914 0.000000 0.167253, 0.990475 0.000000 -0.137690,
 0.990475 0.000000 0.137690, 0.993087 0.000000 -0.117384, 0.993087 0.000000 0.117384, 0.995791 0.000000 -0.091655, 0.995791 0.000000 0.091655,
 0.997458 0.000000 -0.071250, 0.997458 0.000000 0.071250, 0.998308 0.000000 -0.058145, 0.998308 0.000000 0.058145, 0.999143 0.000000 -0.041385,
 0.999143 0.000000 0.041385, 0.999392 0.000000 -0.034855, 0.999392 0.000000 0.034855, 0.999823 0.000000 -0.018816, 0.999823 0.000000 0.018816,
 0.999879 0.000000 -0.015525, 0.999879 0.000000 0.015525
]
}
coordIndex [
 293, 296, 272, -1, 272, 296, 274, -1, 272, 274, 252, -1,
 252, 274, 254, -1, 252, 254, 236, -1, 236, 254, 238, -1,
 236, 238, 212, -1, 212, 238, 214, -1, 212, 214, 200, -1,
 200, 214, 202, -1, 200, 202, 184, -1, 184, 202, 186, -1,
 184, 186, 164, -1, 164, 186, 166, -1, 164, 166, 152, -1,
 152, 166, 154, -1, 152, 154, 132, -1, 132, 154, 134, -1,
 132, 134, 116, -1, 116, 134, 118, -1, 116, 118, 108, -1,
 108, 118, 110, -1, 108, 110, 96, -1, 96, 110, 98, -1,
 96, 98, 88, -1, 88, 98, 90, -1, 88, 90, 89, -1,
 89, 90, 91, -1, 89, 91, 97, -1, 97, 91, 99, -1,
 97, 99, 109, -1, 109, 99, 111, -1, 109, 111, 117, -1,
 117, 111, 119, -1, 117, 119, 133, -1, 133, 119, 135, -1,
 133, 135, 153, -1, 153, 135, 155, -1, 153, 155, 165, -1,
 165, 155, 167, -1, 165, 167, 185, -1, 185, 167, 187, -1,
 185, 187, 201, -1, 201, 187, 203, -1, 201, 203, 213, -1,
 213, 203, 215, -1, 213, 215, 237, -1, 237, 215, 239, -1,
 237, 239, 253, -1, 253, 239, 255, -1, 253, 255, 273, -1,
 273, 255, 275, -1, 273, 275, 294, -1, 294, 275, 297, -1,
 49, 48, 22, -1, 49, 22, 23, -1, 23, 22, 8, -1,
 23, 8, 10, -1, 44, 32, 45, -1, 45, 32, 34, -1,
 292, 288, 295, -1, 295, 288, 290, -1, 545, 544, 516, -1,
 545, 516, 517, -1, 517, 516, 486, -1, 517, 486, 488, -1,
 540, 522, 541, -1, 541, 522, 524, -1, 0, 1, 2, -1,
 2, 1, 3, -1, 3, 1, 13, -1, 3, 13, 15, -1,
 15, 13, 29, -1, 15, 29, 31, -1, 31, 29, 51, -1,
 31, 51, 53, -1, 51, 57, 53, -1, 53, 57, 59, -1,
 59, 57, 37, -1, 59, 37, 39, -1, 39, 37, 17, -1,
 39, 17, 19, -1, 19, 17, 5, -1, 19, 5, 7, -1,
 5, 9, 7, -1, 7, 9, 11, -1, 11, 9, 20, -1,
 11, 20, 21, -1, 21, 20, 46, -1, 21, 46, 47, -1,
 47, 46, 65, -1, 47, 65, 67, -1, 65, 75, 67, -1,
 67, 75, 77, -1, 77, 75, 61, -1, 77, 61, 63, -1,
 63, 61, 41, -1, 63, 41, 43, -1, 43, 41, 25, -1,
 43, 25, 27, -1, 25, 33, 27, -1, 27, 33, 35, -1,
 35, 33, 54, -1, 35, 54, 55, -1, 55, 54, 78, -1,
 55, 78, 79, -1, 79, 78, 101, -1, 79, 101, 103, -1,
 101, 113, 103, -1, 103, 113, 115, -1, 115, 113, 93, -1,
 115, 93, 95, -1, 95, 93, 85, -1, 95, 85, 87, -1,
 87, 85, 69, -1, 87, 69, 71, -1, 69, 81, 71, -1,
 71, 81, 83, -1, 83, 81, 105, -1, 83, 105, 107, -1,
 107, 105, 121, -1, 107, 121, 123, -1, 123, 121, 137, -1,
 123, 137, 139, -1, 137, 149, 139, -1, 139, 149, 151, -1,
 151, 149, 145, -1, 151, 145, 147, -1, 147, 145, 129, -1,
 147, 129, 131, -1, 131, 129, 125, -1, 131, 125, 127, -1,
 125, 141, 127, -1, 127, 141, 143, -1, 143, 141, 157, -1,
 143, 157, 159, -1, 159, 157, 161, -1, 159, 161, 163, -1,
 163, 161, 169, -1, 163, 169, 171, -1, 169, 193, 171, -1,
 171, 193, 195, -1, 195, 193, 181, -1, 195, 181, 183, -1,
 183, 181, 177, -1, 183, 177, 179, -1, 179, 177, 173, -1,
 179, 173, 175, -1, 173, 189, 175, -1, 175, 189, 191, -1,
 191, 189, 197, -1, 191, 197, 199, -1, 199, 197, 205, -1,
 199, 205, 207, -1, 207, 205, 209, -1, 207, 209, 211, -1,
 209, 229, 211, -1, 211, 229, 231, -1, 231, 229, 221, -1,
 231, 221, 223, -1, 223, 221, 217, -1, 223, 217, 219, -1,
 219, 217, 225, -1, 219, 225, 227, -1, 225, 233, 227, -1,
 227, 233, 235, -1, 235, 233, 241, -1, 235, 241, 243, -1,
 243, 241, 245, -1, 243, 245, 247, -1, 247, 245, 249, -1,
 247, 249, 251, -1, 249, 257, 251, -1, 251, 257, 259, -1,
 259, 257, 261, -1, 259, 261, 263, -1, 263, 261, 265, -1,
 263, 265, 267, -1, 267, 265, 269, -1, 267, 269, 271, -1,
 269, 277, 271, -1, 271, 277, 279, -1, 279, 277, 281, -1,
 279, 281, 283, -1, 283, 281, 285, -1, 283, 285, 287, -1,
 287, 285, 289, -1, 287, 289, 291, -1, 289, 299, 291, -1,
 291, 299, 301, -1, 301, 299, 303, -1, 301, 303, 305, -1,
 305, 303, 307, -1, 305, 307, 309, -1, 309, 307, 311, -1,
 309, 311, 313, -1, 311, 319, 313, -1, 313, 319, 321, -1,
 321, 319, 323, -1, 321, 323, 325, -1, 325, 323, 327, -1,
 325, 327, 329, -1, 329, 327, 331, -1, 329, 331, 333, -1,
 331, 339, 333, -1, 333, 339, 341, -1, 341, 339, 343, -1,
 341, 343, 345, -1, 345, 343, 347, -1, 345, 347, 349, -1,
 349, 347, 355, -1, 349, 355, 357, -1, 355, 363, 357, -1,
 357, 363, 365, -1, 365, 363, 371, -1, 365, 371, 373, -1,
 373, 371, 367, -1, 373, 367, 369, -1, 369, 367, 359, -1,
 369, 359, 361, -1, 359, 379, 361, -1, 361, 379, 381, -1,
 381, 379, 383, -1, 381, 383, 385, -1, 385, 383, 391, -1,
 385, 391, 393, -1, 393, 391, 399, -1, 393, 399, 401, -1,
 399, 415, 401, -1, 401, 415, 417, -1, 417, 415, 411, -1,
 417, 411, 413, -1, 413, 411, 407, -1, 413, 407, 409, -1,
 409, 407, 395, -1, 409, 395, 397, -1, 395, 419, 397, -1,
 397, 419, 421, -1, 421, 419, 427, -1, 421, 427, 429, -1,
 429, 427, 431, -1, 429, 431, 433, -1, 433, 431, 447, -1,
 433, 447, 449, -1, 447, 463, 449, -1, 449, 463, 465, -1,
 465, 463, 459, -1, 465, 459, 461, -1, 461, 459, 443, -1,
 461, 443, 445, -1, 445, 443, 439, -1, 445, 439, 441, -1,
 439, 451, 441, -1, 441, 451, 453, -1, 453, 451, 467, -1,
 453, 467, 469, -1, 469, 467, 483, -1, 469, 483, 485, -1,
 485, 483, 507, -1, 485, 507, 509, -1, 507, 519, 509, -1,
 509, 519, 521, -1, 521, 519, 503, -1, 521, 503, 505, -1,
 505, 503, 495, -1, 505, 495, 497, -1, 497, 495, 475, -1,
 497, 475, 477, -1, 475, 487, 477, -1, 477, 487, 489, -1,
 489, 487, 510, -1, 489, 510, 511, -1, 511, 510, 534, -1,
 511, 534, 535, -1, 535, 534, 555, -1, 535, 555, 557, -1,
 555, 563, 557, -1, 557, 563, 565, -1, 565, 563, 547, -1,
 565, 547, 549, -1, 549, 547, 527, -1, 549, 527, 529, -1,
 529, 527, 513, -1, 529, 513, 515, -1, 513, 523, 515, -1,
 515, 523, 525, -1, 525, 523, 542, -1, 525, 542, 543, -1,
 543, 542, 568, -1, 543, 568, 569, -1, 569, 568, 579, -1,
 569, 579, 581, -1, 579, 583, 581, -1, 581, 583, 585, -1,
 585, 583, 571, -1, 585, 571, 573, -1, 573, 571, 551, -1,
 573, 551, 553, -1, 553, 551, 531, -1, 553, 531, 533, -1,
 531, 537, 533, -1, 533, 537, 539, -1, 539, 537, 559, -1,
 539, 559, 561, -1, 561, 559, 575, -1, 561, 575, 577, -1,
 577, 575, 587, -1, 577, 587, 589, -1, 587, 586, 589, -1,
 589, 586, 588, -1, 588, 586, 574, -1, 588, 574, 576, -1,
 576, 574, 558, -1, 576, 558, 560, -1, 560, 558, 536, -1,
 560, 536, 538, -1, 536, 530, 538, -1, 538, 530, 532, -1,
 532, 530, 550, -1, 532, 550, 552, -1, 552, 550, 570, -1,
 552, 570, 572, -1, 572, 570, 582, -1, 572, 582, 584, -1,
 582, 578, 584, -1, 584, 578, 580, -1, 580, 578, 566, -1,
 580, 566, 567, -1, 567, 566, 540, -1, 567, 540, 541, -1,
 522, 512, 524, -1, 524, 512, 514, -1, 514, 512, 526, -1,
 514, 526, 528, -1, 528, 526, 546, -1, 528, 546, 548, -1,
 548, 546, 562, -1, 548, 562, 564, -1, 562, 554, 564, -1,
 564, 554, 556, -1, 554, 544, 556, -1, 556, 544, 545, -1,
 486, 474, 488, -1, 488, 474, 476, -1, 476, 474, 494, -1,
 476, 494, 496, -1, 496, 494, 502, -1, 496, 502, 504, -1,
 504, 502, 518, -1, 504, 518, 520, -1, 518, 506, 520, -1,
 520, 506, 508, -1, 508, 506, 482, -1, 508, 482, 484, -1,
 484, 482, 466, -1, 484, 466, 468, -1, 468, 466, 450, -1,
 468, 450, 452, -1, 450, 438, 452, -1, 452, 438, 440, -1,
 440, 438, 442, -1, 440, 442, 444, -1, 444, 442, 458, -1,
 444, 458, 460, -1, 460, 458, 462, -1, 460, 462, 464, -1,
 462, 446, 464, -1, 464, 446, 448, -1, 448, 446, 430, -1,
 448, 430, 432, -1, 432, 430, 426, -1, 432, 426, 428, -1,
 428, 426, 418, -1, 428, 418, 420, -1, 418, 394, 420, -1,
 420, 394, 396, -1, 396, 394, 406, -1, 396, 406, 408, -1,
 408, 406, 410, -1, 408, 410, 412, -1, 412, 410, 414, -1,
 412, 414, 416, -1, 414, 398, 416, -1, 416, 398, 400, -1,
 400, 398, 390, -1, 400, 390, 392, -1, 392, 390, 382, -1,
 392, 382, 384, -1, 384, 382, 378, -1, 384, 378, 380, -1,
 378, 358, 380, -1, 380, 358, 360, -1, 360, 358, 366, -1,
 360, 366, 368, -1, 368, 366, 370, -1, 368, 370, 372, -1,
 372, 370, 362, -1, 372, 362, 364, -1, 362, 354, 364, -1,
 364, 354, 356, -1, 356, 354, 346, -1, 356, 346, 348, -1,
 348, 346, 342, -1, 348, 342, 344, -1, 344, 342, 338, -1,
 344, 338, 340, -1, 338, 330, 340, -1, 340, 330, 332, -1,
 332, 330, 326, -1, 332, 326, 328, -1, 328, 326, 322, -1,
 328, 322, 324, -1, 324, 322, 318, -1, 324, 318, 320, -1,
 318, 310, 320, -1, 320, 310, 312, -1, 312, 310, 306, -1,
 312, 306, 308, -1, 308, 306, 302, -1, 308, 302, 304, -1,
 304, 302, 298, -1, 304, 298, 300, -1, 298, 292, 300, -1,
 300, 292, 295, -1, 290, 288, 284, -1, 290, 284, 286, -1,
 286, 284, 280, -1, 286, 280, 282, -1, 282, 280, 276, -1,
 282, 276, 278, -1, 276, 268, 278, -1, 278, 268, 270, -1,
 270, 268, 264, -1, 270, 264, 266, -1, 266, 264, 260, -1,
 266, 260, 262, -1, 262, 260, 256, -1, 262, 256, 258, -1,
 256, 248, 258, -1, 258, 248, 250, -1, 250, 248, 244, -1,
 250, 244, 246, -1, 246, 244, 240, -1, 246, 240, 242, -1,
 242, 240, 232, -1, 242, 232, 234, -1, 232, 224, 234, -1,
 234, 224, 226, -1, 226, 224, 216, -1, 226, 216, 218, -1,
 218, 216, 220, -1, 218, 220, 222, -1, 222, 220, 228, -1,
 222, 228, 230, -1, 228, 208, 230, -1, 230, 208, 210, -1,
 210, 208, 204, -1, 210, 204, 206, -1, 206, 204, 196, -1,
 206, 196, 198, -1, 198, 196, 188, -1, 198, 188, 190, -1,
 188, 172, 190, -1, 190, 172, 174, -1, 174, 172, 176, -1,
 174, 176, 178, -1, 178, 176, 180, -1, 178, 180, 182, -1,
 182, 180, 192, -1, 182, 192, 194, -1, 192, 168, 194, -1,
 194, 168, 170, -1, 170, 168, 160, -1, 170, 160, 162, -1,
 162, 160, 156, -1, 162, 156, 158, -1, 158, 156, 140, -1,
 158, 140, 142, -1, 140, 124, 142, -1, 142, 124, 126, -1,
 126, 124, 128, -1, 126, 128, 130, -1, 130, 128, 144, -1,
 130, 144, 146, -1, 146, 144, 148, -1, 146, 148, 150, -1,
 148, 136, 150, -1, 150, 136, 138, -1, 138, 136, 120, -1,
 138, 120, 122, -1, 122, 120, 104, -1, 122, 104, 106, -1,
 106, 104, 80, -1, 106, 80, 82, -1, 80, 68, 82, -1,
 82, 68, 70, -1, 70, 68, 84, -1, 70, 84, 86, -1,
 86, 84, 92, -1, 86, 92, 94, -1, 94, 92, 112, -1,
 94, 112, 114, -1, 112, 100, 114, -1, 114, 100, 102, -1,
 102, 100, 72, -1, 102, 72, 73, -1, 73, 72, 44, -1,
 73, 44, 45, -1, 32, 24, 34, -1, 34, 24, 26, -1,
 26, 24, 40, -1, 26, 40, 42, -1, 42, 40, 60, -1,
 42, 60, 62, -1, 62, 60, 74, -1, 62, 74, 76, -1,
 74, 64, 76, -1, 76, 64, 66, -1, 64, 48, 66, -1,
 66, 48, 49, -1, 8, 4, 10, -1, 10, 4, 6, -1,
 6, 4, 16, -1, 6, 16, 18, -1, 18, 16, 36, -1,
 18, 36, 38, -1, 38, 36, 56, -1, 38, 56, 58, -1,
 56, 50, 58, -1, 58, 50, 52, -1, 52, 50, 28, -1,
 52, 28, 30, -1, 30, 28, 12, -1, 30, 12, 14, -1,
 14, 12, 0, -1, 14, 0, 2, -1, 291, 297, 275, -1,
 541, 524, 492, -1, 290, 214, 238, -1, 428, 420, 424, -1,
 297, 291, 317, -1, 560, 538, 500, -1, 238, 254, 290, -1,
 290, 254, 274, -1, 290, 274, 295, -1, 295, 274, 296, -1,
 295, 296, 300, -1, 300, 296, 316, -1, 300, 316, 336, -1,
 266, 262, 290, -1, 53, 59, 99, -1, 258, 250, 230, -1,
 230, 250, 246, -1, 262, 258, 290, -1, 290, 258, 230, -1,
 290, 230, 214, -1, 214, 230, 210, -1, 214, 210, 202, -1,
 138, 154, 150, -1, 150, 154, 166, -1, 301, 305, 333, -1,
 369, 361, 337, -1, 384, 380, 388, -1, 170, 186, 194, -1,
 194, 186, 202, -1, 194, 202, 182, -1, 182, 202, 210, -1,
 182, 210, 178, -1, 142, 126, 130, -1, 82, 70, 106, -1,
 106, 70, 86, -1, 114, 154, 94, -1, 94, 154, 138, -1,
 94, 138, 86, -1, 86, 138, 122, -1, 86, 122, 106, -1,
 99, 91, 66, -1, 66, 91, 90, -1, 10, 6, 23, -1,
 23, 6, 18, -1, 23, 18, 49, -1, 49, 18, 38, -1,
 49, 38, 58, -1, 31, 53, 52, -1, 52, 53, 99, -1,
 52, 99, 58, -1, 58, 99, 66, -1, 58, 66, 49, -1,
 227, 235, 243, -1, 271, 279, 283, -1, 449, 465, 461, -1,
 525, 481, 515, -1, 515, 481, 473, -1, 515, 473, 529, -1,
 539, 561, 560, -1, 560, 561, 577, -1, 560, 577, 576, -1,
 576, 577, 589, -1, 576, 589, 588, -1, 500, 538, 492, -1,
 492, 538, 532, -1, 492, 532, 541, -1, 476, 436, 488, -1,
 488, 436, 456, -1, 488, 456, 472, -1, 520, 508, 504, -1,
 504, 508, 484, -1, 464, 448, 460, -1, 460, 448, 432, -1,
 460, 432, 444, -1, 444, 432, 440, -1, 432, 428, 440, -1,
 440, 428, 424, -1, 440, 424, 452, -1, 452, 424, 436, -1,
 452, 436, 468, -1, 468, 436, 476, -1, 468, 476, 484, -1,
 484, 476, 496, -1, 484, 496, 504, -1, 352, 340, 336, -1,
 336, 340, 332, -1, 336, 332, 300, -1, 300, 332, 328, -1,
 300, 328, 304, -1, 304, 328, 324, -1, 304, 324, 308, -1,
 308, 324, 320, -1, 308, 320, 312, -1, 278, 270, 282, -1,
 282, 270, 266, -1, 282, 266, 286, -1, 286, 266, 290, -1,
 142, 130, 158, -1, 158, 130, 146, -1, 158, 146, 162, -1,
 162, 146, 150, -1, 162, 150, 170, -1, 170, 150, 166, -1,
 170, 166, 186, -1, 90, 98, 66, -1, 66, 98, 110, -1,
 66, 110, 76, -1, 76, 110, 118, -1, 76, 118, 62, -1,
 7, 11, 19, -1, 19, 11, 21, -1, 67, 77, 119, -1,
 71, 83, 107, -1, 155, 139, 167, -1, 167, 139, 151, -1,
 227, 243, 219, -1, 219, 243, 247, -1, 219, 247, 223, -1,
 223, 247, 251, -1, 223, 251, 231, -1, 231, 251, 239, -1,
 231, 239, 211, -1, 271, 283, 267, -1, 267, 283, 287, -1,
 267, 287, 263, -1, 263, 287, 291, -1, 263, 291, 259, -1,
 259, 291, 275, -1, 259, 275, 251, -1, 251, 275, 255, -1,
 251, 255, 239, -1, 333, 305, 329, -1, 329, 305, 309, -1,
 329, 309, 325, -1, 325, 309, 313, -1, 325, 313, 321, -1,
 401, 417, 413, -1, 449, 461, 433, -1, 433, 461, 445, -1,
 433, 445, 429, -1, 429, 445, 441, -1, 429, 441, 421, -1,
 560, 500, 539, -1, 539, 500, 501, -1, 539, 501, 533, -1,
 564, 556, 548, -1, 548, 556, 545, -1, 548, 545, 528, -1,
 234, 226, 242, -1, 242, 226, 218, -1, 242, 218, 246, -1,
 246, 218, 222, -1, 246, 222, 230, -1, 190, 174, 198, -1,
 198, 174, 178, -1, 198, 178, 206, -1, 206, 178, 210, -1,
 34, 26, 45, -1, 45, 26, 42, -1, 45, 42, 73, -1,
 73, 42, 62, -1, 73, 62, 102, -1, 102, 62, 118, -1,
 102, 118, 114, -1, 114, 118, 134, -1, 114, 134, 154, -1,
 52, 30, 31, -1, 31, 30, 14, -1, 31, 14, 15, -1,
 15, 14, 2, -1, 15, 2, 3, -1, 119, 111, 67, -1,
 67, 111, 99, -1, 67, 99, 47, -1, 47, 99, 59, -1,
 47, 59, 21, -1, 21, 59, 39, -1, 21, 39, 19, -1,
 71, 107, 87, -1, 87, 107, 123, -1, 87, 123, 95, -1,
 95, 123, 139, -1, 95, 139, 115, -1, 115, 139, 155, -1,
 115, 155, 103, -1, 195, 203, 171, -1, 171, 203, 187, -1,
 171, 187, 163, -1, 373, 369, 341, -1, 341, 369, 337, -1,
 341, 337, 333, -1, 333, 337, 317, -1, 333, 317, 301, -1,
 301, 317, 291, -1, 401, 413, 393, -1, 393, 413, 409, -1,
 393, 409, 385, -1, 385, 409, 397, -1, 385, 397, 381, -1,
 509, 521, 505, -1, 557, 565, 535, -1, 535, 565, 549, -1,
 535, 549, 511, -1, 511, 549, 529, -1, 511, 529, 489, -1,
 489, 529, 473, -1, 489, 473, 477, -1, 477, 473, 457, -1,
 477, 457, 437, -1, 581, 585, 569, -1, 569, 585, 573, -1,
 501, 493, 533, -1, 533, 493, 481, -1, 533, 481, 553, -1,
 553, 481, 525, -1, 553, 525, 573, -1, 573, 525, 543, -1,
 573, 543, 569, -1, 532, 552, 541, -1, 541, 552, 572, -1,
 541, 572, 567, -1, 567, 572, 584, -1, 567, 584, 580, -1,
 545, 517, 528, -1, 528, 517, 488, -1, 528, 488, 514, -1,
 514, 488, 472, -1, 514, 472, 524, -1, 524, 472, 480, -1,
 524, 480, 492, -1, 364, 356, 348, -1, 27, 35, 43, -1,
 43, 35, 55, -1, 155, 135, 103, -1, 103, 135, 119, -1,
 103, 119, 79, -1, 79, 119, 77, -1, 79, 77, 55, -1,
 55, 77, 63, -1, 55, 63, 43, -1, 509, 505, 485, -1,
 485, 505, 497, -1, 485, 497, 469, -1, 469, 497, 477, -1,
 469, 477, 453, -1, 453, 477, 437, -1, 453, 437, 441, -1,
 441, 437, 425, -1, 441, 425, 421, -1, 421, 425, 405, -1,
 421, 405, 397, -1, 397, 405, 389, -1, 397, 389, 381, -1,
 381, 389, 377, -1, 381, 377, 361, -1, 361, 377, 353, -1,
 361, 353, 337, -1, 364, 348, 372, -1, 372, 348, 344, -1,
 372, 344, 368, -1, 368, 344, 340, -1, 368, 340, 360, -1,
 360, 340, 352, -1, 360, 352, 380, -1, 380, 352, 376, -1,
 380, 376, 388, -1, 127, 143, 131, -1, 131, 143, 159, -1,
 131, 159, 147, -1, 147, 159, 163, -1, 147, 163, 151, -1,
 151, 163, 187, -1, 151, 187, 167, -1, 175, 191, 179, -1,
 179, 191, 199, -1, 239, 215, 211, -1, 211, 215, 203, -1,
 211, 203, 207, -1, 207, 203, 195, -1, 207, 195, 199, -1,
 199, 195, 183, -1, 199, 183, 179, -1, 357, 365, 349, -1,
 349, 365, 373, -1, 349, 373, 345, -1, 345, 373, 341, -1,
 416, 400, 412, -1, 412, 400, 392, -1, 412, 392, 408, -1,
 408, 392, 384, -1, 408, 384, 396, -1, 396, 384, 388, -1,
 396, 388, 420, -1, 420, 388, 404, -1, 420, 404, 424, -1,
 298, 374, 350, -1, 350, 334, 298, -1, 298, 334, 314, -1,
 298, 314, 292, -1, 292, 314, 293, -1, 292, 293, 288, -1,
 288, 293, 272, -1, 288, 272, 252, -1, 530, 522, 540, -1,
 268, 276, 280, -1, 438, 450, 434, -1, 148, 164, 136, -1,
 136, 164, 152, -1, 136, 152, 120, -1, 402, 386, 338, -1,
 338, 386, 374, -1, 338, 374, 330, -1, 330, 374, 298, -1,
 330, 298, 302, -1, 116, 100, 132, -1, 132, 100, 112, -1,
 124, 140, 128, -1, 128, 140, 156, -1, 200, 184, 168, -1,
 168, 184, 164, -1, 168, 164, 160, -1, 160, 164, 148, -1,
 160, 148, 156, -1, 156, 148, 144, -1, 156, 144, 128, -1,
 172, 188, 196, -1, 208, 228, 236, -1, 268, 280, 264, -1,
 264, 280, 284, -1, 264, 284, 260, -1, 260, 284, 288, -1,
 260, 288, 256, -1, 256, 288, 252, -1, 256, 252, 248, -1,
 310, 318, 306, -1, 306, 318, 322, -1, 306, 322, 302, -1,
 302, 322, 326, -1, 302, 326, 330, -1, 354, 362, 346, -1,
 346, 362, 370, -1, 346, 370, 342, -1, 342, 370, 338, -1,
 434, 422, 378, -1, 378, 422, 402, -1, 378, 402, 358, -1,
 358, 402, 338, -1, 358, 338, 366, -1, 366, 338, 370, -1,
 394, 382, 406, -1, 406, 382, 390, -1, 406, 390, 410, -1,
 410, 390, 398, -1, 410, 398, 414, -1, 578, 582, 566, -1,
 566, 582, 570, -1, 566, 570, 540, -1, 540, 570, 550, -1,
 540, 550, 530, -1, 24, 32, 40, -1, 40, 32, 44, -1,
 40, 44, 60, -1, 172, 196, 176, -1, 176, 196, 204, -1,
 176, 204, 180, -1, 180, 204, 208, -1, 180, 208, 192, -1,
 168, 192, 200, -1, 200, 192, 208, -1, 200, 208, 212, -1,
 212, 208, 236, -1, 224, 232, 240, -1, 483, 467, 475, -1,
 435, 451, 423, -1, 423, 451, 439, -1, 395, 375, 387, -1,
 363, 355, 347, -1, 153, 165, 149, -1, 51, 89, 57, -1,
 57, 89, 97, -1, 57, 97, 109, -1, 50, 56, 96, -1,
 96, 56, 48, -1, 96, 48, 64, -1, 44, 72, 60, -1,
 60, 72, 100, -1, 60, 100, 74, -1, 74, 100, 116, -1,
 74, 116, 64, -1, 64, 116, 108, -1, 64, 108, 96, -1,
 224, 240, 216, -1, 216, 240, 244, -1, 216, 244, 220, -1,
 220, 244, 248, -1, 220, 248, 228, -1, 228, 248, 252, -1,
 228, 252, 236, -1, 446, 462, 458, -1, 537, 479, 530, -1,
 530, 479, 491, -1, 530, 491, 522, -1, 522, 491, 499, -1,
 522, 499, 498, -1, 498, 490, 522, -1, 522, 490, 478, -1,
 522, 478, 512, -1, 512, 478, 470, -1, 512, 470, 526, -1,
 395, 387, 419, -1, 363, 347, 371, -1, 371, 347, 343, -1,
 371, 343, 367, -1, 367, 343, 339, -1, 367, 339, 359, -1,
 319, 311, 307, -1, 315, 299, 294, -1, 294, 299, 289, -1,
 169, 185, 193, -1, 193, 185, 201, -1, 193, 201, 213, -1,
 145, 149, 169, -1, 169, 149, 165, -1, 169, 165, 185, -1,
 81, 69, 85, -1, 9, 5, 17, -1, 1, 0, 13, -1,
 13, 0, 12, -1, 96, 88, 50, -1, 50, 88, 89, -1,
 50, 89, 28, -1, 28, 89, 51, -1, 28, 51, 12, -1,
 12, 51, 29, -1, 12, 29, 13, -1, 68, 80, 84, -1,
 84, 80, 104, -1, 84, 104, 92, -1, 92, 104, 120, -1,
 92, 120, 112, -1, 112, 120, 152, -1, 112, 152, 132, -1,
 446, 458, 430, -1, 430, 458, 442, -1, 430, 442, 426, -1,
 426, 442, 438, -1, 426, 438, 418, -1, 418, 438, 434, -1,
 418, 434, 394, -1, 394, 434, 378, -1, 394, 378, 382, -1,
 506, 518, 482, -1, 482, 518, 502, -1, 486, 454, 474, -1,
 474, 454, 434, -1, 474, 434, 494, -1, 494, 434, 450, -1,
 494, 450, 502, -1, 502, 450, 466, -1, 502, 466, 482, -1,
 387, 403, 419, -1, 419, 403, 423, -1, 419, 423, 427, -1,
 427, 423, 439, -1, 427, 439, 431, -1, 319, 307, 323, -1,
 323, 307, 303, -1, 323, 303, 327, -1, 327, 303, 299, -1,
 327, 299, 331, -1, 331, 299, 315, -1, 331, 315, 339, -1,
 339, 315, 335, -1, 339, 335, 359, -1, 359, 335, 351, -1,
 359, 351, 379, -1, 379, 351, 375, -1, 379, 375, 383, -1,
 383, 375, 395, -1, 383, 395, 391, -1, 237, 229, 213, -1,
 213, 229, 209, -1, 213, 209, 193, -1, 193, 209, 205, -1,
 193, 205, 181, -1, 181, 205, 197, -1, 181, 197, 177, -1,
 177, 197, 189, -1, 177, 189, 173, -1, 169, 161, 145, -1,
 145, 161, 157, -1, 145, 157, 129, -1, 129, 157, 141, -1,
 129, 141, 125, -1, 81, 85, 105, -1, 105, 85, 93, -1,
 105, 93, 121, -1, 121, 93, 113, -1, 121, 113, 137, -1,
 149, 137, 153, -1, 153, 137, 113, -1, 153, 113, 133, -1,
 133, 113, 101, -1, 133, 101, 117, -1, 56, 36, 48, -1,
 48, 36, 16, -1, 48, 16, 22, -1, 22, 16, 4, -1,
 22, 4, 8, -1, 530, 536, 537, -1, 537, 536, 558, -1,
 537, 558, 559, -1, 559, 558, 574, -1, 559, 574, 575, -1,
 575, 574, 586, -1, 575, 586, 587, -1, 583, 579, 568, -1,
 471, 487, 455, -1, 455, 487, 475, -1, 455, 475, 435, -1,
 435, 475, 467, -1, 435, 467, 451, -1, 519, 507, 503, -1,
 503, 507, 483, -1, 503, 483, 495, -1, 495, 483, 475, -1,
 463, 447, 459, -1, 459, 447, 431, -1, 459, 431, 443, -1,
 443, 431, 439, -1, 277, 269, 265, -1, 273, 257, 253, -1,
 253, 257, 249, -1, 233, 225, 217, -1, 33, 25, 54, -1,
 54, 25, 41, -1, 9, 17, 20, -1, 20, 17, 37, -1,
 20, 37, 46, -1, 46, 37, 57, -1, 46, 57, 65, -1,
 65, 57, 109, -1, 65, 109, 75, -1, 75, 109, 117, -1,
 75, 117, 61, -1, 61, 117, 101, -1, 61, 101, 41, -1,
 41, 101, 78, -1, 41, 78, 54, -1, 554, 562, 544, -1,
 544, 562, 546, -1, 544, 546, 516, -1, 516, 546, 526, -1,
 516, 526, 486, -1, 486, 526, 470, -1, 486, 470, 454, -1,
 583, 568, 571, -1, 571, 568, 542, -1, 571, 542, 551, -1,
 551, 542, 523, -1, 551, 523, 531, -1, 537, 531, 479, -1,
 479, 531, 523, -1, 479, 523, 471, -1, 471, 523, 513, -1,
 471, 513, 487, -1, 487, 513, 527, -1, 487, 527, 510, -1,
 510, 527, 547, -1, 510, 547, 534, -1, 534, 547, 563, -1,
 534, 563, 555, -1, 415, 399, 411, -1, 411, 399, 391, -1,
 411, 391, 407, -1, 407, 391, 395, -1, 277, 265, 281, -1,
 281, 265, 261, -1, 281, 261, 285, -1, 285, 261, 257, -1,
 285, 257, 289, -1, 289, 257, 273, -1, 289, 273, 294, -1,
 233, 217, 241, -1, 241, 217, 221, -1, 241, 221, 245, -1,
 245, 221, 229, -1, 245, 229, 249, -1, 249, 229, 237, -1,
 249, 237, 253, -1, 294, 297, 315, -1, 315, 297, 317, -1,
 315, 317, 335, -1, 335, 317, 337, -1, 335, 337, 351, -1,
 351, 337, 353, -1, 351, 353, 375, -1, 375, 353, 377, -1,
 375, 377, 387, -1, 387, 377, 389, -1, 387, 389, 403, -1,
 403, 389, 405, -1, 403, 405, 423, -1, 423, 405, 425, -1,
 423, 425, 435, -1, 435, 425, 437, -1, 435, 437, 455, -1,
 455, 437, 457, -1, 455, 457, 471, -1, 471, 457, 473, -1,
 471, 473, 479, -1, 479, 473, 481, -1, 479, 481, 491, -1,
 491, 481, 493, -1, 491, 493, 499, -1, 499, 493, 501, -1,
 499, 501, 498, -1, 498, 501, 500, -1, 498, 500, 490, -1,
 490, 500, 492, -1, 490, 492, 478, -1, 478, 492, 480, -1,
 478, 480, 470, -1, 470, 480, 472, -1, 470, 472, 454, -1,
 454, 472, 456, -1, 454, 456, 434, -1, 434, 456, 436, -1,
 434, 436, 422, -1, 422, 436, 424, -1, 422, 424, 402, -1,
 402, 424, 404, -1, 402, 404, 386, -1, 386, 404, 388, -1,
 386, 388, 374, -1, 374, 388, 376, -1, 374, 376, 350, -1,
 350, 376, 352, -1, 350, 352, 334, -1, 334, 352, 336, -1,
 334, 336, 314, -1, 314, 336, 316, -1, 314, 316, 293, -1,
 293, 316, 296, -1
]
normalIndex [
 206, 206, 219, -1, 219, 206, 219, -1, 219, 219, 235, -1,
 235, 219, 235, -1, 235, 235, 253, -1, 253, 235, 253, -1,
 253, 253, 265, -1, 265, 253, 265, -1, 265, 265, 283, -1,
 283, 265, 283, -1, 283, 283, 295, -1, 295, 283, 295, -1,
 295, 295, 313, -1, 313, 295, 313, -1, 313, 313, 329, -1,
 329, 313, 329, -1, 329, 329, 343, -1, 343, 329, 343, -1,
 343, 343, 357, -1, 357, 343, 357, -1, 357, 357, 373, -1,
 373, 357, 373, -1, 373, 373, 391, -1, 391, 373, 391, -1,
 391, 391, 403, -1, 403, 391, 403, -1, 403, 403, 402, -1,
 402, 403, 402, -1, 402, 402, 390, -1, 390, 402, 390, -1,
 390, 390, 372, -1, 372, 390, 372, -1, 372, 372, 356, -1,
 356, 372, 356, -1, 356, 356, 342, -1, 342, 356, 342, -1,
 342, 342, 328, -1, 328, 342, 328, -1, 328, 328, 312, -1,
 312, 328, 312, -1, 312, 312, 294, -1, 294, 312, 294, -1,
 294, 294, 282, -1, 282, 294, 282, -1, 282, 282, 264, -1,
 264, 282, 264, -1, 264, 264, 252, -1, 252, 264, 252, -1,
 252, 252, 234, -1, 234, 252, 234, -1, 234, 234, 218, -1,
 218, 234, 218, -1, 218, 218, 205, -1, 205, 218, 205, -1,
 205, 205, 185, -1, 205, 185, 185, -1, 185, 185, 170, -1,
 185, 170, 170, -1, 205, 198, 205, -1, 205, 198, 198, -1,
 205, 201, 205, -1, 205, 201, 201, -1, 205, 205, 183, -1,
 205, 183, 183, -1, 183, 183, 164, -1, 183, 164, 164, -1,
 205, 190, 205, -1, 205, 190, 190, -1, 2, 3, 2, -1,
 2, 3, 3, -1, 143, 143, 157, -1, 143, 157, 157, -1,
 157, 157, 179, -1, 157, 179, 179, -1, 179, 179, 195, -1,
 179, 195, 195, -1, 11, 17, 11, -1, 11, 17, 17, -1,
 166, 166, 150, -1, 166, 150, 150, -1, 150, 150, 130, -1,
 150, 130, 130, -1, 130, 130, 114, -1, 130, 114, 114, -1,
 25, 31, 25, -1, 25, 31, 31, -1, 171, 171, 184, -1,
 171, 184, 184, -1, 184, 184, 203, -1, 184, 203, 203, -1,
 203, 203, 221, -1, 203, 221, 221, -1, 37, 45, 37, -1,
 37, 45, 45, -1, 138, 138, 122, -1, 138, 122, 122, -1,
 122, 122, 102, -1, 122, 102, 102, -1, 102, 102, 88, -1,
 102, 88, 88, -1, 51, 59, 51, -1, 51, 59, 59, -1,
 199, 199, 211, -1, 199, 211, 211, -1, 211, 211, 231, -1,
 211, 231, 231, -1, 231, 231, 247, -1, 231, 247, 247, -1,
 65, 73, 65, -1, 65, 73, 73, -1, 110, 110, 94, -1,
 110, 94, 94, -1, 94, 94, 74, -1, 94, 74, 74, -1,
 74, 74, 60, -1, 74, 60, 60, -1, 79, 87, 79, -1,
 79, 87, 87, -1, 225, 225, 239, -1, 225, 239, 239, -1,
 239, 239, 259, -1, 239, 259, 259, -1, 259, 259, 275, -1,
 259, 275, 275, -1, 93, 101, 93, -1, 93, 101, 101, -1,
 84, 84, 66, -1, 84, 66, 66, -1, 66, 66, 46, -1,
 66, 46, 46, -1, 46, 46, 32, -1, 46, 32, 32, -1,
 107, 113, 107, -1, 107, 113, 113, -1, 251, 251, 267, -1,
 251, 267, 267, -1, 267, 267, 287, -1, 267, 287, 287, -1,
 287, 287, 303, -1, 287, 303, 303, -1, 121, 127, 121, -1,
 121, 127, 127, -1, 56, 56, 40, -1, 56, 40, 40, -1,
 40, 40, 18, -1, 40, 18, 18, -1, 18, 18, 4, -1,
 18, 4, 4, -1, 135, 141, 135, -1, 135, 141, 141, -1,
 279, 279, 293, -1, 279, 293, 293, -1, 293, 293, 315, -1,
 293, 315, 315, -1, 315, 315, 331, -1, 315, 331, 331, -1,
 149, 155, 149, -1, 149, 155, 155, -1, 28, 28, 12, -1,
 28, 12, 12, -1, 12, 12, 7, -1, 12, 7, 7, -1,
 7, 7, 23, -1, 7, 23, 23, -1, 163, 169, 163, -1,
 163, 169, 169, -1, 307, 307, 321, -1, 307, 321, 321, -1,
 321, 321, 341, -1, 321, 341, 341, -1, 341, 341, 359, -1,
 341, 359, 359, -1, 175, 182, 175, -1, 175, 182, 182, -1,
 0, 0, 15, -1, 0, 15, 15, -1, 15, 15, 35, -1,
 15, 35, 35, -1, 35, 35, 49, -1, 35, 49, 49, -1,
 189, 197, 189, -1, 189, 197, 197, -1, 335, 335, 349, -1,
 335, 349, 349, -1, 349, 349, 369, -1, 349, 369, 369, -1,
 369, 369, 385, -1, 369, 385, 385, -1, 202, 210, 202, -1,
 202, 210, 210, -1, 27, 27, 43, -1, 27, 43, 43, -1,
 43, 43, 63, -1, 43, 63, 63, -1, 63, 63, 77, -1,
 63, 77, 77, -1, 215, 223, 215, -1, 215, 223, 223, -1,
 363, 363, 377, -1, 363, 377, 377, -1, 377, 377, 397, -1,
 377, 397, 397, -1, 397, 397, 410, -1, 397, 410, 410, -1,
 230, 237, 230, -1, 230, 237, 237, -1, 53, 53, 71, -1,
 53, 71, 71, -1, 71, 71, 91, -1, 71, 91, 91, -1,
 91, 91, 105, -1, 91, 105, 105, -1, 243, 249, 243, -1,
 243, 249, 249, -1, 389, 389, 405, -1, 389, 405, 405, -1,
 405, 405, 398, -1, 405, 398, 398, -1, 398, 398, 382, -1,
 398, 382, 382, -1, 257, 263, 257, -1, 257, 263, 263, -1,
 81, 81, 97, -1, 81, 97, 97, -1, 97, 97, 119, -1,
 97, 119, 119, -1, 119, 119, 133, -1, 119, 133, 133, -1,
 271, 277, 271, -1, 271, 277, 277, -1, 406, 406, 392, -1,
 406, 392, 392, -1, 392, 392, 370, -1, 392, 370, 370, -1,
 370, 370, 354, -1, 370, 354, 354, -1, 285, 291, 285, -1,
 285, 291, 291, -1, 109, 109, 125, -1, 109, 125, 125, -1,
 125, 125, 145, -1, 125, 145, 145, -1, 145, 145, 161, -1,
 145, 161, 161, -1, 299, 305, 299, -1, 299, 305, 305, -1,
 378, 378, 364, -1, 378, 364, 364, -1, 364, 364, 344, -1,
 364, 344, 344, -1, 344, 344, 326, -1, 344, 326, 326, -1,
 311, 319, 311, -1, 311, 319, 319, -1, 137, 137, 153, -1,
 137, 153, 153, -1, 153, 153, 173, -1, 153, 173, 173, -1,
 173, 173, 187, -1, 173, 187, 187, -1, 325, 333, 325, -1,
 325, 333, 333, -1, 350, 350, 336, -1, 350, 336, 336, -1,
 336, 336, 316, -1, 336, 316, 316, -1, 316, 316, 300, -1,
 316, 300, 300, -1, 339, 347, 339, -1, 339, 347, 347, -1,
 165, 165, 180, -1, 165, 180, 180, -1, 180, 180, 200, -1,
 180, 200, 200, -1, 200, 200, 213, -1, 200, 213, 213, -1,
 353, 361, 353, -1, 353, 361, 361, -1, 322, 322, 308, -1,
 322, 308, 308, -1, 308, 308, 288, -1, 308, 288, 288, -1,
 288, 288, 272, -1, 288, 272, 272, -1, 367, 375, 367, -1,
 367, 375, 375, -1, 191, 191, 208, -1, 191, 208, 208, -1,
 208, 208, 227, -1, 208, 227, 227, -1, 227, 227, 241, -1,
 227, 241, 241, -1, 381, 387, 381, -1, 381, 387, 387, -1,
 296, 296, 280, -1, 296, 280, 280, -1, 280, 280, 260, -1,
 280, 260, 260, -1, 260, 260, 244, -1, 260, 244, 244, -1,
 395, 401, 395, -1, 395, 401, 401, -1, 217, 217, 233, -1,
 217, 233, 233, -1, 233, 233, 255, -1, 233, 255, 255, -1,
 255, 255, 269, -1, 255, 269, 269, -1, 409, 408, 409, -1,
 409, 408, 408, -1, 268, 268, 254, -1, 268, 254, 254, -1,
 254, 254, 232, -1, 254, 232, 232, -1, 232, 232, 216, -1,
 232, 216, 216, -1, 400, 394, 400, -1, 400, 394, 394, -1,
 245, 245, 261, -1, 245, 261, 261, -1, 261, 261, 281, -1,
 261, 281, 281, -1, 281, 281, 297, -1, 281, 297, 297, -1,
 386, 380, 386, -1, 386, 380, 380, -1, 240, 240, 226, -1,
 240, 226, 226, -1, 226, 226, 205, -1, 226, 205, 205, -1,
 374, 366, 374, -1, 374, 366, 366, -1, 273, 273, 289, -1,
 273, 289, 289, -1, 289, 289, 309, -1, 289, 309, 309, -1,
 309, 309, 323, -1, 309, 323, 323, -1, 360, 352, 360, -1,
 360, 352, 352, -1, 212, 205, 212, -1, 212, 205, 205, -1,
 346, 338, 346, -1, 346, 338, 338, -1, 301, 301, 317, -1,
 301, 317, 317, -1, 317, 317, 337, -1, 317, 337, 337, -1,
 337, 337, 351, -1, 337, 351, 351, -1, 332, 324, 332, -1,
 332, 324, 324, -1, 186, 186, 172, -1, 186, 172, 172, -1,
 172, 172, 152, -1, 172, 152, 152, -1, 152, 152, 136, -1,
 152, 136, 136, -1, 318, 310, 318, -1, 318, 310, 310, -1,
 327, 327, 345, -1, 327, 345, 345, -1, 345, 345, 365, -1,
 345, 365, 365, -1, 365, 365, 379, -1, 365, 379, 379, -1,
 304, 298, 304, -1, 304, 298, 298, -1, 160, 160, 144, -1,
 160, 144, 144, -1, 144, 144, 124, -1, 144, 124, 124, -1,
 124, 124, 108, -1, 124, 108, 108, -1, 290, 284, 290, -1,
 290, 284, 284, -1, 355, 355, 371, -1, 355, 371, 371, -1,
 371, 371, 393, -1, 371, 393, 393, -1, 393, 393, 407, -1,
 393, 407, 407, -1, 276, 270, 276, -1, 276, 270, 270, -1,
 132, 132, 118, -1, 132, 118, 118, -1, 118, 118, 96, -1,
 118, 96, 96, -1, 96, 96, 80, -1, 96, 80, 80, -1,
 262, 256, 262, -1, 262, 256, 256, -1, 383, 383, 399, -1,
 383, 399, 399, -1, 399, 399, 404, -1, 399, 404, 404, -1,
 404, 404, 388, -1, 404, 388, 388, -1, 248, 242, 248, -1,
 248, 242, 242, -1, 104, 104, 90, -1, 104, 90, 90, -1,
 90, 90, 70, -1, 90, 70, 70, -1, 70, 70, 52, -1,
 70, 52, 52, -1, 236, 229, 236, -1, 236, 229, 229, -1,
 411, 411, 396, -1, 411, 396, 396, -1, 396, 396, 376, -1,
 396, 376, 376, -1, 376, 376, 362, -1, 376, 362, 362, -1,
 222, 214, 222, -1, 222, 214, 214, -1, 76, 76, 62, -1,
 76, 62, 62, -1, 62, 62, 42, -1, 62, 42, 42, -1,
 42, 42, 26, -1, 42, 26, 26, -1, 209, 205, 209, -1,
 209, 205, 205, -1, 384, 384, 368, -1, 384, 368, 368, -1,
 368, 368, 348, -1, 368, 348, 348, -1, 348, 348, 334, -1,
 348, 334, 334, -1, 196, 188, 196, -1, 196, 188, 188, -1,
 48, 48, 34, -1, 48, 34, 34, -1, 34, 34, 14, -1,
 34, 14, 14, -1, 14, 14, 1, -1, 14, 1, 1, -1,
 181, 174, 181, -1, 181, 174, 174, -1, 358, 358, 340, -1,
 358, 340, 340, -1, 340, 340, 320, -1, 340, 320, 320, -1,
 320, 320, 306, -1, 320, 306, 306, -1, 168, 162, 168, -1,
 168, 162, 162, -1, 22, 22, 6, -1, 22, 6, 6, -1,
 6, 6, 13, -1, 6, 13, 13, -1, 13, 13, 29, -1,
 13, 29, 29, -1, 154, 148, 154, -1, 154, 148, 148, -1,
 330, 330, 314, -1, 330, 314, 314, -1, 314, 314, 292, -1,
 314, 292, 292, -1, 292, 292, 278, -1, 292, 278, 278, -1,
 140, 134, 140, -1, 140, 134, 134, -1, 5, 5, 19, -1,
 5, 19, 19, -1, 19, 19, 41, -1, 19, 41, 41, -1,
 41, 41, 57, -1, 41, 57, 57, -1, 126, 120, 126, -1,
 126, 120, 120, -1, 302, 302, 286, -1, 302, 286, 286, -1,
 286, 286, 266, -1, 286, 266, 266, -1, 266, 266, 250, -1,
 266, 250, 250, -1, 112, 106, 112, -1, 112, 106, 106, -1,
 33, 33, 47, -1, 33, 47, 47, -1, 47, 47, 67, -1,
 47, 67, 67, -1, 67, 67, 85, -1, 67, 85, 85, -1,
 100, 92, 100, -1, 100, 92, 92, -1, 274, 274, 258, -1,
 274, 258, 258, -1, 258, 258, 238, -1, 258, 238, 238, -1,
 238, 238, 224, -1, 238, 224, 224, -1, 86, 78, 86, -1,
 86, 78, 78, -1, 61, 61, 75, -1, 61, 75, 75, -1,
 75, 75, 95, -1, 75, 95, 95, -1, 95, 95, 111, -1,
 95, 111, 111, -1, 72, 64, 72, -1, 72, 64, 64, -1,
 246, 246, 228, -1, 246, 228, 228, -1, 228, 228, 205, -1,
 228, 205, 205, -1, 58, 50, 58, -1, 58, 50, 50, -1,
 89, 89, 103, -1, 89, 103, 103, -1, 103, 103, 123, -1,
 103, 123, 123, -1, 123, 123, 139, -1, 123, 139, 139, -1,
 44, 36, 44, -1, 44, 36, 36, -1, 220, 205, 220, -1,
 220, 205, 205, -1, 30, 24, 30, -1, 30, 24, 24, -1,
 115, 115, 131, -1, 115, 131, 131, -1, 131, 131, 151, -1,
 131, 151, 151, -1, 151, 151, 167, -1, 151, 167, 167, -1,
 16, 10, 16, -1, 16, 10, 10, -1, 194, 194, 178, -1,
 194, 178, 178, -1, 178, 178, 156, -1, 178, 156, 156, -1,
 156, 156, 142, -1, 156, 142, 142, -1, 207, 207, 207, -1,
 207, 207, 207, -1, 207, 207, 207, -1, 207, 207, 207, -1,
 207, 207, 207, -1, 207, 207, 207, -1, 207, 207, 207, -1,
 207, 207, 207, -1, 207, 207, 207, -1, 207, 207, 207, -1,
 207, 207, 207, -1, 207, 207, 207, -1, 207, 207, 207, -1,
 207, 207, 207, -1, 207, 207, 207, -1, 207, 207, 207, -1,
 207, 207, 207, -1, 207, 207, 207, -1, 207, 207, 207, -1,
 207, 207, 207, -1, 207, 207, 207, -1, 207, 207, 207, -1,
 207, 207, 207, -1, 207, 207, 207, -1, 207, 207, 207, -1,
 207, 207, 207, -1, 207, 207, 207, -1, 207, 207, 207, -1,
 207, 207, 207, -1, 207, 207, 207, -1, 207, 207, 207, -1,
 207, 207, 207, -1, 207, 207, 207, -1, 207, 207, 207, -1,
 207, 207, 207, -1, 207, 207, 207, -1, 207, 207, 207, -1,
 207, 207, 207, -1, 207, 207, 207, -1, 207, 207, 207, -1,
 207, 207, 207, -1, 207, 207, 207, -1, 207, 207, 207, -1,
 207, 207, 207, -1, 207, 207, 207, -1, 207, 207, 207, -1,
 207, 207, 207, -1, 207, 207, 207, -1, 207, 207, 207, -1,
 207, 207, 207, -1, 207, 207, 207, -1, 207, 207, 207, -1,
 207, 207, 207, -1, 207, 207, 207, -1, 207, 207, 207, -1,
 207, 207, 207, -1, 207, 207, 207, -1, 207, 207, 207, -1,
 207, 207, 207, -1, 207, 207, 207, -1, 207, 207, 207, -1,
 207, 207, 207, -1, 207, 207, 207, -1, 207, 207, 207, -1,
 207, 207, 207, -1, 207, 207, 207, -1, 207, 207, 207, -1,
 207, 207, 207, -1, 207, 207, 207, -1, 207, 207, 207, -1,
 207, 207, 207, -1, 207, 207, 207, -1, 207, 207, 207, -1,
 207, 207, 207, -1, 207, 207, 207, -1, 207, 207, 207, -1,
 207, 207, 207, -1, 207, 207, 207, -1, 207, 207, 207, -1,
 207, 207, 207, -1, 207, 207, 207, -1, 207, 207, 207, -1,
 207, 207, 207, -1, 207, 207, 207, -1, 207, 207, 207, -1,
 207, 207, 207, -1, 207, 207, 207, -1, 207, 207, 207, -1,
 207, 207, 207, -1, 207, 207, 207, -1, 207, 207, 207, -1,
 207, 207, 207, -1, 207, 207, 207, -1, 207, 207, 207, -1,
 207, 207, 207, -1, 207, 207, 207, -1, 207, 207, 207, -1,
 207, 207, 207, -1, 207, 207, 207, -1, 207, 207, 207, -1,
 207, 207, 207, -1, 207, 207, 207, -1, 207, 207, 207, -1,
 207, 207, 207, -1, 207, 207, 207, -1, 207, 207, 207, -1,
 207, 207, 207, -1, 207, 207, 207, -1, 207, 207, 207, -1,
 207, 207, 207, -1, 207, 207, 207, -1, 207, 207, 207, -1,
 207, 207, 207, -1, 207, 207, 207, -1, 207, 207, 207, -1,
 207, 207, 207, -1, 207, 207, 207, -1, 207, 207, 207, -1,
 207, 207, 207, -1, 207, 207, 207, -1, 207, 207, 207, -1,
 207, 207, 207, -1, 207, 207, 207, -1, 207, 207, 207, -1,
 207, 207, 207, -1, 207, 207, 207, -1, 207, 207, 207, -1,
 207, 207, 207, -1, 207, 207, 207, -1, 207, 207, 207, -1,
 207, 207, 207, -1, 207, 207, 207, -1, 207, 207, 207, -1,
 207, 207, 207, -1, 207, 207, 207, -1, 207, 207, 207, -1,
 207, 207, 207, -1, 207, 207, 207, -1, 207, 207, 207, -1,
 207, 207, 207, -1, 207, 207, 207, -1, 207, 207, 207, -1,
 207, 207, 207, -1, 207, 207, 207, -1, 207, 207, 207, -1,
 207, 207, 207, -1, 207, 207, 207, -1, 207, 207, 207, -1,
 207, 207, 207, -1, 207, 207, 207, -1, 207, 207, 207, -1,
 207, 207, 207, -1, 207, 207, 207, -1, 207, 207, 207, -1,
 207, 207, 207, -1, 207, 207, 207, -1, 207, 207, 207, -1,
 207, 207, 207, -1, 207, 207, 207, -1, 207, 207, 207, -1,
 207, 207, 207, -1, 207, 207, 207, -1, 207, 207, 207, -1,
 207, 207, 207, -1, 207, 207, 207, -1, 207, 207, 207, -1,
 207, 207, 207, -1, 207, 207, 207, -1, 207, 207, 207, -1,
 207, 207, 207, -1, 207, 207, 207, -1, 207, 207, 207, -1,
 207, 207, 207, -1, 207, 207, 207, -1, 207, 207, 207, -1,
 207, 207, 207, -1, 207, 207, 207, -1, 207, 207, 207, -1,
 207, 207, 207, -1, 207, 207, 207, -1, 207, 207, 207, -1,
 207, 207, 207, -1, 207, 207, 207, -1, 207, 207, 207, -1,
 207, 207, 207, -1, 207, 207, 207, -1, 207, 207, 207, -1,
 207, 207, 207, -1, 207, 207, 207, -1, 207, 207, 207, -1,
 207, 207, 207, -1, 207, 207, 207, -1, 207, 207, 207, -1,
 207, 207, 207, -1, 207, 207, 207, -1, 207, 207, 207, -1,
 207, 207, 207, -1, 207, 207, 207, -1, 207, 207, 207, -1,
 207, 207, 207, -1, 207, 207, 207, -1, 207, 207, 207, -1,
 207, 207, 207, -1, 207, 207, 207, -1, 207, 207, 207, -1,
 207, 207, 207, -1, 207, 207, 207, -1, 207, 207, 207, -1,
 207, 207, 207, -1, 207, 207, 207, -1, 207, 207, 207, -1,
 207, 207, 207, -1, 207, 207, 207, -1, 207, 207, 207, -1,
 207, 207, 207, -1, 207, 207, 207, -1, 207, 207, 207, -1,
 207, 207, 207, -1, 207, 207, 207, -1, 207, 207, 207, -1,
 207, 207, 207, -1, 207, 207, 207, -1, 207, 207, 207, -1,
 207, 207, 207, -1, 207, 207, 207, -1, 207, 207, 207, -1,
 207, 207, 207, -1, 207, 207, 207, -1, 207, 207, 207, -1,
 207, 207, 207, -1, 207, 207, 207, -1, 207, 207, 207, -1,
 207, 207, 207, -1, 207, 207, 207, -1, 207, 207, 207, -1,
 207, 207, 207, -1, 207, 207, 207, -1, 207, 207, 207, -1,
 207, 207, 207, -1, 207, 207, 207, -1, 207, 207, 207, -1,
 207, 207, 207, -1, 207, 207, 207, -1, 207, 207, 207, -1,
 207, 207, 207, -1, 207, 207, 207, -1, 207, 207, 207, -1,
 207, 207, 207, -1, 207, 207, 207, -1, 207, 207, 207, -1,
 207, 207, 207, -1, 207, 207, 207, -1, 207, 207, 207, -1,
 207, 207, 207, -1, 207, 207, 207, -1, 207, 207, 207, -1,
 207, 207, 207, -1, 207, 207, 207, -1, 207, 207, 207, -1,
 207, 207, 207, -1, 207, 207, 207, -1, 207, 207, 207, -1,
 207, 207, 207, -1, 207, 207, 207, -1, 207, 207, 207, -1,
 207, 207, 207, -1, 207, 207, 207, -1, 207, 207, 207, -1,
 207, 207, 207, -1, 207, 207, 207, -1, 207, 207, 207, -1,
 207, 207, 207, -1, 207, 207, 207, -1, 207, 207, 207, -1,
 207, 207, 207, -1, 207, 207, 207, -1, 207, 207, 207, -1,
 207, 207, 207, -1, 207, 207, 207, -1, 207, 207, 207, -1,
 207, 207, 207, -1, 207, 207, 207, -1, 207, 207, 207, -1,
 207, 207, 207, -1, 207, 207, 207, -1, 207, 207, 207, -1,
 207, 207, 207, -1, 207, 207, 207, -1, 207, 207, 207, -1,
 207, 207, 207, -1, 207, 207, 207, -1, 207, 207, 207, -1,
 207, 207, 207, -1, 207, 207, 207, -1, 207, 207, 207, -1,
 204, 204, 204, -1, 204, 204, 204, -1, 204, 204, 204, -1,
 204, 204, 204, -1, 204, 204, 204, -1, 204, 204, 204, -1,
 204, 204, 204, -1, 204, 204, 204, -1, 204, 204, 204, -1,
 204, 204, 204, -1, 204, 204, 204, -1, 204, 204, 204, -1,
 204, 204, 204, -1, 204, 204, 204, -1, 204, 204, 204, -1,
 204, 204, 204, -1, 204, 204, 204, -1, 204, 204, 204, -1,
 204, 204, 204, -1, 204, 204, 204, -1, 204, 204, 204, -1,
 204, 204, 204, -1, 204, 204, 204, -1, 204, 204, 204, -1,
 204, 204, 204, -1, 204, 204, 204, -1, 204, 204, 204, -1,
 204, 204, 204, -1, 204, 204, 204, -1, 204, 204, 204, -1,
 204, 204, 204, -1, 204, 204, 204, -1, 204, 204, 204, -1,
 204, 204, 204, -1, 204, 204, 204, -1, 204, 204, 204, -1,
 204, 204, 204, -1, 204, 204, 204, -1, 204, 204, 204, -1,
 204, 204, 204, -1, 204, 204, 204, -1, 204, 204, 204, -1,
 204, 204, 204, -1, 204, 204, 204, -1, 204, 204, 204, -1,
 204, 204, 204, -1, 204, 204, 204, -1, 204, 204, 204, -1,
 204, 204, 204, -1, 204, 204, 204, -1, 204, 204, 204, -1,
 204, 204, 204, -1, 204, 204, 204, -1, 204, 204, 204, -1,
 204, 204, 204, -1, 204, 204, 204, -1, 204, 204, 204, -1,
 204, 204, 204, -1, 204, 204, 204, -1, 204, 204, 204, -1,
 204, 204, 204, -1, 204, 204, 204, -1, 204, 204, 204, -1,
 204, 204, 204, -1, 204, 204, 204, -1, 204, 204, 204, -1,
 204, 204, 204, -1, 204, 204, 204, -1, 204, 204, 204, -1,
 204, 204, 204, -1, 204, 204, 204, -1, 204, 204, 204, -1,
 204, 204, 204, -1, 204, 204, 204, -1, 204, 204, 204, -1,
 204, 204, 204, -1, 204, 204, 204, -1, 204, 204, 204, -1,
 204, 204, 204, -1, 204, 204, 204, -1, 204, 204, 204, -1,
 204, 204, 204, -1, 204, 204, 204, -1, 204, 204, 204, -1,
 204, 204, 204, -1, 204, 204, 204, -1, 204, 204, 204, -1,
 204, 204, 204, -1, 204, 204, 204, -1, 204, 204, 204, -1,
 204, 204, 204, -1, 204, 204, 204, -1, 204, 204, 204, -1,
 204, 204, 204, -1, 204, 204, 204, -1, 204, 204, 204, -1,
 204, 204, 204, -1, 204, 204, 204, -1, 204, 204, 204, -1,
 204, 204, 204, -1, 204, 204, 204, -1, 204, 204, 204, -1,
 204, 204, 204, -1, 204, 204, 204, -1, 204, 204, 204, -1,
 204, 204, 204, -1, 204, 204, 204, -1, 204, 204, 204, -1,
 204, 204, 204, -1, 204, 204, 204, -1, 204, 204, 204, -1,
 204, 204, 204, -1, 204, 204, 204, -1, 204, 204, 204, -1,
 204, 204, 204, -1, 204, 204, 204, -1, 204, 204, 204, -1,
 204, 204, 204, -1, 204, 204, 204, -1, 204, 204, 204, -1,
 204, 204, 204, -1, 204, 204, 204, -1, 204, 204, 204, -1,
 204, 204, 204, -1, 204, 204, 204, -1, 204, 204, 204, -1,
 204, 204, 204, -1, 204, 204, 204, -1, 204, 204, 204, -1,
 204, 204, 204, -1, 204, 204, 204, -1, 204, 204, 204, -1,
 204, 204, 204, -1, 204, 204, 204, -1, 204, 204, 204, -1,
 204, 204, 204, -1, 204, 204, 204, -1, 204, 204, 204, -1,
 204, 204, 204, -1, 204, 204, 204, -1, 204, 204, 204, -1,
 204, 204, 204, -1, 204, 204, 204, -1, 204, 204, 204, -1,
 204, 204, 204, -1, 204, 204, 204, -1, 204, 204, 204, -1,
 204, 204, 204, -1, 204, 204, 204, -1, 204, 204, 204, -1,
 204, 204, 204, -1, 204, 204, 204, -1, 204, 204, 204, -1,
 204, 204, 204, -1, 204, 204, 204, -1, 204, 204, 204, -1,
 204, 204, 204, -1, 204, 204, 204, -1, 204, 204, 204, -1,
 204, 204, 204, -1, 204, 204, 204, -1, 204, 204, 204, -1,
 204, 204, 204, -1, 204, 204, 204, -1, 204, 204, 204, -1,
 204, 204, 204, -1, 204, 204, 204, -1, 204, 204, 204, -1,
 204, 204, 204, -1, 204, 204, 204, -1, 204, 204, 204, -1,
 204, 204, 204, -1, 204, 204, 204, -1, 204, 204, 204, -1,
 204, 204, 204, -1, 204, 204, 204, -1, 204, 204, 204, -1,
 204, 204, 204, -1, 204, 204, 204, -1, 204, 204, 204, -1,
 204, 204, 204, -1, 204, 204, 204, -1, 204, 204, 204, -1,
 204, 204, 204, -1, 204, 204, 204, -1, 204, 204, 204, -1,
 204, 204, 204, -1, 204, 204, 204, -1, 204, 204, 204, -1,
 204, 204, 204, -1, 204, 204, 204, -1, 204, 204, 204, -1,
 204, 204, 204, -1, 204, 204, 204, -1, 204, 204, 204, -1,
 204, 204, 204, -1, 204, 204, 204, -1, 204, 204, 204, -1,
 204, 204, 204, -1, 204, 204, 204, -1, 204, 204, 204, -1,
 204, 204, 204, -1, 204, 204, 204, -1, 204, 204, 204, -1,
 204, 204, 204, -1, 204, 204, 204, -1, 204, 204, 204, -1,
 204, 204, 204, -1, 204, 204, 204, -1, 204, 204, 204, -1,
 204, 204, 204, -1, 204, 204, 204, -1, 204, 204, 204, -1,
 204, 204, 204, -1, 204, 204, 204, -1, 204, 204, 204, -1,
 204, 204, 204, -1, 204, 204, 204, -1, 204, 204, 204, -1,
 204, 204, 204, -1, 204, 204, 204, -1, 204, 204, 204, -1,
 204, 204, 204, -1, 204, 204, 204, -1, 204, 204, 204, -1,
 204, 204, 204, -1, 204, 204, 204, -1, 204, 204, 204, -1,
 204, 204, 204, -1, 204, 204, 204, -1, 204, 204, 204, -1,
 204, 204, 204, -1, 204, 204, 204, -1, 204, 204, 204, -1,
 204, 204, 204, -1, 204, 204, 204, -1, 204, 204, 204, -1,
 204, 204, 204, -1, 204, 204, 204, -1, 204, 204, 204, -1,
 204, 204, 204, -1, 204, 204, 204, -1, 204, 204, 204, -1,
 204, 204, 204, -1, 204, 204, 204, -1, 204, 204, 204, -1,
 204, 204, 204, -1, 204, 204, 204, -1, 204, 204, 204, -1,
 204, 204, 204, -1, 204, 204, 204, -1, 204, 204, 204, -1,
 204, 204, 204, -1, 204, 204, 204, -1, 204, 204, 204, -1,
 204, 204, 204, -1, 204, 204, 204, -1, 204, 204, 204, -1,
 204, 204, 204, -1, 204, 204, 204, -1, 204, 204, 204, -1,
 204, 204, 204, -1, 204, 204, 204, -1, 204, 204, 204, -1,
 204, 204, 204, -1, 204, 204, 204, -1, 204, 204, 204, -1,
 204, 204, 204, -1, 204, 204, 204, -1, 204, 204, 204, -1,
 204, 204, 204, -1, 204, 204, 204, -1, 204, 204, 204, -1,
 204, 204, 204, -1, 204, 204, 204, -1, 204, 204, 204, -1,
 204, 204, 204, -1, 204, 204, 204, -1, 204, 204, 204, -1,
 204, 204, 204, -1, 204, 204, 204, -1, 204, 204, 204, -1,
 204, 204, 204, -1, 204, 204, 204, -1, 204, 204, 204, -1,
 204, 204, 204, -1, 204, 204, 204, -1, 204, 204, 204, -1,
 204, 204, 204, -1, 204, 204, 204, -1, 204, 204, 204, -1,
 204, 204, 204, -1, 204, 204, 204, -1, 204, 204, 204, -1,
 204, 204, 204, -1, 205, 205, 192, -1, 192, 205, 192, -1,
 192, 192, 176, -1, 176, 192, 176, -1, 176, 176, 158, -1,
 158, 176, 158, -1, 158, 158, 146, -1, 146, 158, 146, -1,
 146, 146, 128, -1, 128, 146, 128, -1, 128, 128, 116, -1,
 116, 128, 116, -1, 116, 116, 98, -1, 98, 116, 98, -1,
 98, 98, 82, -1, 82, 98, 82, -1, 82, 82, 68, -1,
 68, 82, 68, -1, 68, 68, 54, -1, 54, 68, 54, -1,
 54, 54, 38, -1, 38, 54, 38, -1, 38, 38, 20, -1,
 20, 38, 20, -1, 20, 20, 8, -1, 8, 20, 8, -1,
 8, 8, 9, -1, 9, 8, 9, -1, 9, 9, 21, -1,
 21, 9, 21, -1, 21, 21, 39, -1, 39, 21, 39, -1,
 39, 39, 55, -1, 55, 39, 55, -1, 55, 55, 69, -1,
 69, 55, 69, -1, 69, 69, 83, -1, 83, 69, 83, -1,
 83, 83, 99, -1, 99, 83, 99, -1, 99, 99, 117, -1,
 117, 99, 117, -1, 117, 117, 129, -1, 129, 117, 129, -1,
 129, 129, 147, -1, 147, 129, 147, -1, 147, 147, 159, -1,
 159, 147, 159, -1, 159, 159, 177, -1, 177, 159, 177, -1,
 177, 177, 193, -1, 193, 177, 193, -1, 193, 193, 206, -1,
 206, 193, 206, -1
]
colorPerVertex FALSE
normalPerVertex TRUE
}
}
]
}
