#VRML V2.0 utf8
Transform {
children [
Shape {
appearance Appearance {
material Material {
ambientIntensity 1.000000
diffuseColor 1.000000 1.000000 1.000000
emissiveColor 0.210000 0.210000 0.210000
specularColor 0.880000 0.880000 0.880000
shininess 0.210000
transparency 0.000000
}
}
geometry IndexedFaceSet {
color Color {
color [
 1.000000 1.000000 1.000000
]
}
coord Coordinate {
point [
 -0.007843 0.000000 -0.000333, -0.007843 0.000000 0.000333, -0.007843 0.001000 -0.000333, -0.007843 0.001000 0.000333, -0.007787 0.000000 -0.000996,
 -0.007787 0.000000 0.000996, -0.007787 0.001000 -0.000996, -0.007787 0.001000 0.000996, -0.007674 0.000000 -0.001652, -0.007674 0.000000 0.001652,
 -0.007674 0.001000 -0.001652, -0.007674 0.001000 0.001652, -0.007180 0.000000 -0.003174, -0.007180 0.000000 0.003174, -0.007180 0.001000 -0.003174,
 -0.007180 0.001000 0.003174, -0.006885 0.000000 -0.003771, -0.006885 0.000000 0.003771, -0.006885 0.001000 -0.003771, -0.006885 0.001000 0.003771,
 -0.006541 0.000000 -0.004341, -0.006541 0.000000 0.004341, -0.006541 0.001000 -0.004341, -0.006541 0.001000 0.004341, -0.006149 0.000000 -0.004879,
 -0.006149 0.000000 0.004879, -0.006149 0.001000 -0.004879, -0.006149 0.001000 0.004879, -0.005714 0.000000 -0.005383, -0.005714 0.000000 0.005383,
 -0.005714 0.001000 -0.005383, -0.005714 0.001000 0.005383, -0.005237 0.000000 -0.005847, -0.005237 0.000000 0.005847, -0.005237 0.001000 -0.005847,
 -0.005237 0.001000 0.005847, -0.004670 0.000000 -0.000676, -0.004670 0.000000 0.000676, -0.004670 0.001000 -0.000676, -0.004670 0.001000 0.000676,
 -0.004175 0.000000 -0.002198, -0.004175 0.000000 0.002198, -0.004175 0.001000 -0.002198, -0.004175 0.001000 0.002198, -0.003943 0.000000 -0.006788,
 -0.003943 0.000000 0.006788, -0.003943 0.001000 -0.006788, -0.003943 0.001000 0.006788, -0.003380 0.000000 -0.003292, -0.003380 0.000000 0.003292,
 -0.003380 0.001000 -0.003292, -0.003380 0.001000 0.003292, -0.003354 0.000000 -0.007098, -0.003354 0.000000 0.007098, -0.003354 0.001000 -0.007098,
 -0.003354 0.001000 0.007098, -0.002740 0.000000 -0.007356, -0.002740 0.000000 0.007356, -0.002740 0.001000 -0.007356, -0.002740 0.001000 0.007356,
 -0.002107 0.000000 -0.007562, -0.002107 0.000000 0.007562, -0.002107 0.001000 -0.007562, -0.002107 0.001000 0.007562, -0.002086 0.000000 -0.004232,
 -0.002086 0.000000 0.004232, -0.002086 0.001000 -0.004232, -0.002086 0.001000 0.004232, -0.001459 0.000000 -0.007713, -0.001459 0.000000 0.007713,
 -0.001459 0.001000 -0.007713, -0.001459 0.001000 0.007713, -0.000900 0.000000 0.000000, -0.000900 0.001000 0.000000, -0.000869 0.000000 -0.000233,
 -0.000869 0.000000 0.000233, -0.000869 0.001000 -0.000233, -0.000869 0.001000 0.000233, -0.000800 0.000000 -0.007809, -0.000800 0.000000 -0.004650,
 -0.000800 0.000000 0.004650, -0.000800 0.000000 0.007809, -0.000800 0.001000 -0.007809, -0.000800 0.001000 -0.004650, -0.000800 0.001000 0.004650,
 -0.000800 0.001000 0.007809, -0.000779 0.000000 -0.000450, -0.000779 0.000000 0.000450, -0.000779 0.001000 -0.000450, -0.000779 0.001000 0.000450,
 -0.000636 0.000000 -0.000636, -0.000636 0.000000 0.000636, -0.000636 0.001000 -0.000636, -0.000636 0.001000 0.000636, -0.000450 0.000000 -0.000779,
 -0.000450 0.000000 0.000779, -0.000450 0.001000 -0.000779, -0.000450 0.001000 0.000779, -0.000233 0.000000 -0.000869, -0.000233 0.000000 0.000869,
 -0.000233 0.001000 -0.000869, -0.000233 0.001000 0.000869, 0.000000 0.000000 -0.000900, 0.000000 0.000000 0.000900, -0.000000 0.001000 -0.000900,
 0.000000 0.001000 0.000900, 0.000233 0.000000 -0.000869, 0.000233 0.000000 0.000869, 0.000233 0.001000 -0.000869, 0.000233 0.001000 0.000869,
 0.000450 0.000000 -0.000779, 0.000450 0.000000 0.000779, 0.000450 0.001000 -0.000779, 0.000450 0.001000 0.000779, 0.000636 0.000000 -0.000636,
 0.000636 0.000000 0.000636, 0.000636 0.001000 -0.000636, 0.000636 0.001000 0.000636, 0.000779 0.000000 -0.000450, 0.000779 0.000000 0.000450,
 0.000779 0.001000 -0.000450, 0.000779 0.001000 0.000450, 0.000800 0.000000 -0.007809, 0.000800 0.000000 -0.004650, 0.000800 0.000000 0.004650,
 0.000800 0.000000 0.007809, 0.000800 0.001000 -0.007809, 0.000800 0.001000 -0.004650, 0.000800 0.001000 0.004650, 0.000800 0.001000 0.007809,
 0.000869 0.000000 -0.000233, 0.000869 0.000000 0.000233, 0.000869 0.001000 -0.000233, 0.000869 0.001000 0.000233, 0.000900 0.000000 -0.000000,
 0.000900 0.001000 -0.000000, 0.001459 0.000000 -0.007713, 0.001459 0.000000 0.007713, 0.001459 0.001000 -0.007713, 0.001459 0.001000 0.007713,
 0.002086 0.000000 -0.004232, 0.002086 0.000000 0.004232, 0.002086 0.001000 -0.004232, 0.002086 0.001000 0.004232, 0.002107 0.000000 -0.007562,
 0.002107 0.000000 0.007562, 0.002107 0.001000 -0.007562, 0.002107 0.001000 0.007562, 0.002740 0.000000 -0.007356, 0.002740 0.000000 0.007356,
 0.002740 0.001000 -0.007356, 0.002740 0.001000 0.007356, 0.003354 0.000000 -0.007098, 0.003354 0.000000 0.007098, 0.003354 0.001000 -0.007098,
 0.003354 0.001000 0.007098, 0.003380 0.000000 -0.003292, 0.003380 0.000000 0.003292, 0.003380 0.001000 -0.003292, 0.003380 0.001000 0.003292,
 0.003943 0.000000 -0.006788, 0.003943 0.000000 0.006788, 0.003943 0.001000 -0.006788, 0.003943 0.001000 0.006788, 0.004175 0.000000 -0.002198,
 0.004175 0.000000 0.002198, 0.004175 0.001000 -0.002198, 0.004175 0.001000 0.002198, 0.004670 0.000000 -0.000676, 0.004670 0.000000 0.000676,
 0.004670 0.001000 -0.000676, 0.004670 0.001000 0.000676, 0.005237 0.000000 -0.005847, 0.005237 0.000000 0.005847, 0.005237 0.001000 -0.005847,
 0.005237 0.001000 0.005847, 0.005714 0.000000 -0.005383, 0.005714 0.000000 0.005383, 0.005714 0.001000 -0.005383, 0.005714 0.001000 0.005383,
 0.006149 0.000000 -0.004879, 0.006149 0.000000 0.004879, 0.006149 0.001000 -0.004879, 0.006149 0.001000 0.004879, 0.006541 0.000000 -0.004341,
 0.006541 0.000000 0.004341, 0.006541 0.001000 -0.004341, 0.006541 0.001000 0.004341, 0.006885 0.000000 -0.003771, 0.006885 0.000000 0.003771,
 0.006885 0.001000 -0.003771, 0.006885 0.001000 0.003771, 0.007180 0.000000 -0.003174, 0.007180 0.000000 0.003174, 0.007180 0.001000 -0.003174,
 0.007180 0.001000 0.003174, 0.007674 0.000000 -0.001652, 0.007674 0.000000 0.001652, 0.007674 0.001000 -0.001652, 0.007674 0.001000 0.001652,
 0.007787 0.000000 -0.000996, 0.007787 0.000000 0.000996, 0.007787 0.001000 -0.000996, 0.007787 0.001000 0.000996, 0.007843 0.000000 -0.000333,
 0.007843 0.000000 0.000333, 0.007843 0.001000 -0.000333, 0.007843 0.001000 0.000333
]
}
normal Normal {
vector [
 -1.000000 0.000000 0.000000, -0.999101 0.000000 -0.042402, -0.999101 0.000000 0.042402, -0.991916 0.000000 -0.126900, -0.991916 0.000000 0.126900,
 -0.977597 0.000000 -0.210485, -0.977597 0.000000 0.210485, -0.965926 0.000000 -0.258819, -0.965926 0.000000 0.258819, -0.951057 0.000000 -0.309017,
 -0.951057 0.000000 0.309017, -0.914613 0.000000 -0.404331, -0.914613 0.000000 0.404331, -0.877066 0.000000 -0.480369, -0.877066 0.000000 0.480369,
 -0.866025 0.000000 -0.500000, -0.866025 0.000000 0.500000, -0.833212 0.000000 -0.552953, -0.833212 0.000000 0.552953, -0.809017 0.000000 -0.587785,
 -0.809017 0.000000 0.587785, -0.783366 0.000000 -0.621560, -0.783366 0.000000 0.621560, -0.727887 0.000000 -0.685697, -0.727887 0.000000 0.685697,
 -0.707107 0.000000 -0.707107, -0.707107 0.000000 0.707107, -0.667173 0.000000 -0.744903, -0.667173 0.000000 0.744903, -0.587785 0.000000 -0.809017,
 -0.587785 0.000000 0.809017, -0.502277 0.000000 -0.864707, -0.502277 0.000000 0.864707, -0.500000 0.000000 -0.866025, -0.500000 0.000000 0.866025,
 -0.427207 0.000000 -0.904154, -0.427207 0.000000 0.904154, -0.349065 0.000000 -0.937098, -0.349065 0.000000 0.937098, -0.309017 0.000000 -0.951057,
 -0.309017 0.000000 0.951057, -0.268413 0.000000 -0.963304, -0.268413 0.000000 0.963304, -0.258819 0.000000 -0.965926, -0.258819 0.000000 0.965926,
 -0.185830 0.000000 -0.982582, -0.185830 0.000000 0.982582, -0.101911 0.000000 -0.994794, -0.101911 0.000000 0.994794, 0.000000 -1.000000 0.000000,
 -0.000000 0.000000 -1.000000, 0.000000 0.000000 1.000000, 0.000000 1.000000 0.000000, 0.101911 0.000000 -0.994794, 0.101911 0.000000 0.994794,
 0.185830 0.000000 -0.982582, 0.185830 0.000000 0.982582, 0.258819 0.000000 -0.965926, 0.258819 0.000000 0.965926, 0.268413 0.000000 -0.963304,
 0.268413 0.000000 0.963304, 0.309017 0.000000 -0.951057, 0.309017 0.000000 0.951057, 0.349065 0.000000 -0.937098, 0.349065 0.000000 0.937098,
 0.427207 0.000000 -0.904154, 0.427207 0.000000 0.904154, 0.500000 0.000000 -0.866025, 0.500000 0.000000 0.866025, 0.502277 0.000000 -0.864707,
 0.502277 0.000000 0.864707, 0.587785 0.000000 -0.809017, 0.587785 0.000000 0.809017, 0.667173 0.000000 -0.744903, 0.667173 0.000000 0.744903,
 0.707107 0.000000 -0.707107, 0.707107 0.000000 0.707107, 0.727887 0.000000 -0.685697, 0.727887 0.000000 0.685697, 0.783366 0.000000 -0.621560,
 0.783366 0.000000 0.621560, 0.809017 0.000000 -0.587785, 0.809017 0.000000 0.587785, 0.833212 0.000000 -0.552953, 0.833212 0.000000 0.552953,
 0.866025 0.000000 -0.500000, 0.866025 0.000000 0.500000, 0.877066 0.000000 -0.480369, 0.877066 0.000000 0.480369, 0.914613 0.000000 -0.404331,
 0.914613 0.000000 0.404331, 0.951057 0.000000 -0.309017, 0.951057 0.000000 0.309017, 0.965926 0.000000 -0.258819, 0.965926 0.000000 0.258819,
 0.977597 0.000000 -0.210485, 0.977597 0.000000 0.210485, 0.991916 0.000000 -0.126900, 0.991916 0.000000 0.126900, 0.999101 0.000000 -0.042402,
 0.999101 0.000000 0.042402, 1.000000 0.000000 -0.000000
]
}
coordIndex [
 10, 8, 4, -1, 10, 4, 6, -1, 6, 4, 0, -1,
 6, 0, 2, -1, 2, 0, 1, -1, 2, 1, 3, -1,
 3, 1, 5, -1, 3, 5, 7, -1, 7, 5, 9, -1,
 7, 9, 11, -1, 34, 32, 28, -1, 34, 28, 30, -1,
 30, 28, 24, -1, 30, 24, 26, -1, 26, 24, 20, -1,
 26, 20, 22, -1, 22, 20, 16, -1, 22, 16, 18, -1,
 18, 16, 12, -1, 18, 12, 14, -1, 47, 45, 53, -1,
 47, 53, 55, -1, 55, 53, 57, -1, 55, 57, 59, -1,
 59, 57, 61, -1, 59, 61, 63, -1, 63, 61, 69, -1,
 63, 69, 71, -1, 71, 69, 81, -1, 71, 81, 85, -1,
 15, 13, 17, -1, 15, 17, 19, -1, 19, 17, 21, -1,
 19, 21, 23, -1, 23, 21, 25, -1, 23, 25, 27, -1,
 27, 25, 29, -1, 27, 29, 31, -1, 31, 29, 33, -1,
 31, 33, 35, -1, 194, 192, 188, -1, 194, 188, 190, -1,
 190, 188, 184, -1, 190, 184, 186, -1, 186, 184, 180, -1,
 186, 180, 182, -1, 182, 180, 176, -1, 182, 176, 178, -1,
 178, 176, 172, -1, 178, 172, 174, -1, 199, 197, 201, -1,
 199, 201, 203, -1, 203, 201, 205, -1, 203, 205, 207, -1,
 207, 205, 204, -1, 207, 204, 206, -1, 206, 204, 200, -1,
 206, 200, 202, -1, 202, 200, 196, -1, 202, 196, 198, -1,
 175, 173, 177, -1, 175, 177, 179, -1, 179, 177, 181, -1,
 179, 181, 183, -1, 183, 181, 185, -1, 183, 185, 187, -1,
 187, 185, 189, -1, 187, 189, 191, -1, 191, 189, 193, -1,
 191, 193, 195, -1, 129, 125, 137, -1, 129, 137, 139, -1,
 139, 137, 145, -1, 139, 145, 147, -1, 147, 145, 149, -1,
 147, 149, 151, -1, 151, 149, 153, -1, 151, 153, 155, -1,
 155, 153, 161, -1, 155, 161, 163, -1, 162, 160, 152, -1,
 162, 152, 154, -1, 154, 152, 148, -1, 154, 148, 150, -1,
 150, 148, 144, -1, 150, 144, 146, -1, 146, 144, 136, -1,
 146, 136, 138, -1, 138, 136, 122, -1, 138, 122, 126, -1,
 82, 78, 68, -1, 82, 68, 70, -1, 70, 68, 60, -1,
 70, 60, 62, -1, 62, 60, 56, -1, 62, 56, 58, -1,
 58, 56, 52, -1, 58, 52, 54, -1, 54, 52, 44, -1,
 54, 44, 46, -1, 84, 128, 67, -1, 67, 128, 51, -1,
 178, 174, 158, -1, 191, 195, 167, -1, 35, 51, 31, -1,
 31, 51, 27, -1, 143, 139, 147, -1, 147, 151, 143, -1,
 143, 151, 155, -1, 143, 155, 163, -1, 191, 167, 187, -1,
 15, 19, 43, -1, 43, 19, 23, -1, 178, 158, 182, -1,
 138, 126, 127, -1, 202, 198, 170, -1, 143, 133, 121, -1,
 138, 127, 146, -1, 175, 179, 159, -1, 159, 179, 183, -1,
 67, 47, 55, -1, 55, 59, 67, -1, 67, 59, 63, -1,
 67, 63, 84, -1, 84, 63, 71, -1, 84, 71, 85, -1,
 109, 139, 113, -1, 113, 139, 143, -1, 113, 143, 117, -1,
 117, 143, 121, -1, 186, 166, 190, -1, 190, 166, 194, -1,
 50, 34, 30, -1, 7, 11, 39, -1, 89, 77, 38, -1,
 109, 105, 139, -1, 139, 105, 128, -1, 139, 128, 129, -1,
 162, 154, 142, -1, 142, 154, 150, -1, 199, 203, 171, -1,
 171, 203, 207, -1, 171, 207, 206, -1, 183, 187, 159, -1,
 159, 187, 167, -1, 159, 167, 166, -1, 166, 167, 171, -1,
 166, 171, 170, -1, 170, 171, 206, -1, 170, 206, 202, -1,
 26, 22, 42, -1, 42, 22, 18, -1, 42, 18, 14, -1,
 2, 38, 6, -1, 6, 38, 10, -1, 7, 39, 3, -1,
 142, 100, 104, -1, 2, 3, 38, -1, 38, 3, 39, -1,
 38, 39, 128, -1, 128, 39, 43, -1, 128, 43, 51, -1,
 51, 43, 23, -1, 51, 23, 27, -1, 82, 70, 83, -1,
 83, 70, 62, -1, 46, 66, 54, -1, 54, 66, 58, -1,
 105, 101, 128, -1, 128, 101, 97, -1, 128, 97, 38, -1,
 38, 97, 93, -1, 38, 93, 89, -1, 150, 146, 142, -1,
 142, 146, 127, -1, 142, 127, 50, -1, 50, 127, 83, -1,
 50, 83, 66, -1, 66, 83, 62, -1, 66, 62, 58, -1,
 42, 92, 96, -1, 104, 108, 142, -1, 142, 108, 112, -1,
 142, 112, 158, -1, 30, 26, 50, -1, 50, 26, 42, -1,
 50, 42, 142, -1, 142, 42, 96, -1, 142, 96, 100, -1,
 77, 73, 38, -1, 38, 73, 76, -1, 38, 76, 42, -1,
 42, 76, 88, -1, 42, 88, 92, -1, 112, 116, 158, -1,
 158, 116, 120, -1, 158, 120, 132, -1, 186, 182, 166, -1,
 166, 182, 158, -1, 166, 158, 159, -1, 159, 158, 132, -1,
 159, 132, 143, -1, 143, 132, 135, -1, 143, 135, 133, -1,
 36, 65, 49, -1, 169, 165, 156, -1, 17, 13, 41, -1,
 28, 32, 48, -1, 28, 48, 24, -1, 25, 49, 29, -1,
 29, 49, 33, -1, 17, 41, 21, -1, 37, 9, 5, -1,
 68, 78, 79, -1, 140, 136, 144, -1, 144, 148, 140, -1,
 140, 148, 152, -1, 140, 152, 160, -1, 137, 125, 124, -1,
 156, 172, 176, -1, 12, 16, 40, -1, 40, 16, 20, -1,
 1, 0, 36, -1, 36, 0, 4, -1, 36, 4, 8, -1,
 165, 193, 189, -1, 123, 122, 136, -1, 5, 1, 37, -1,
 37, 1, 36, -1, 37, 36, 41, -1, 41, 36, 49, -1,
 41, 49, 21, -1, 21, 49, 25, -1, 140, 130, 118, -1,
 118, 114, 140, -1, 140, 114, 110, -1, 140, 110, 136, -1,
 137, 124, 145, -1, 180, 184, 164, -1, 164, 184, 188, -1,
 164, 188, 192, -1, 44, 52, 64, -1, 64, 52, 56, -1,
 64, 56, 60, -1, 20, 24, 40, -1, 40, 24, 48, -1,
 40, 48, 123, -1, 123, 48, 64, -1, 123, 64, 79, -1,
 79, 64, 60, -1, 79, 60, 68, -1, 185, 181, 157, -1,
 157, 181, 177, -1, 157, 177, 173, -1, 168, 196, 200, -1,
 204, 205, 169, -1, 169, 205, 201, -1, 169, 201, 197, -1,
 161, 153, 141, -1, 141, 153, 149, -1, 72, 75, 36, -1,
 81, 69, 80, -1, 80, 69, 61, -1, 45, 65, 53, -1,
 53, 65, 57, -1, 200, 204, 168, -1, 168, 204, 169, -1,
 168, 169, 164, -1, 164, 169, 156, -1, 164, 156, 180, -1,
 180, 156, 176, -1, 87, 91, 80, -1, 110, 106, 136, -1,
 136, 106, 102, -1, 136, 102, 123, -1, 123, 102, 98, -1,
 123, 98, 40, -1, 40, 98, 94, -1, 75, 87, 36, -1,
 36, 87, 80, -1, 36, 80, 65, -1, 65, 80, 61, -1,
 65, 61, 57, -1, 94, 90, 40, -1, 40, 90, 86, -1,
 40, 86, 36, -1, 36, 86, 74, -1, 36, 74, 72, -1,
 91, 95, 80, -1, 80, 95, 99, -1, 80, 99, 124, -1,
 124, 99, 103, -1, 124, 103, 107, -1, 149, 145, 141, -1,
 141, 145, 124, -1, 141, 124, 157, -1, 157, 124, 107, -1,
 157, 107, 111, -1, 111, 115, 157, -1, 157, 115, 119, -1,
 157, 119, 131, -1, 189, 185, 165, -1, 165, 185, 157, -1,
 165, 157, 156, -1, 156, 157, 131, -1, 156, 131, 140, -1,
 140, 131, 134, -1, 140, 134, 130, -1, 104, 102, 108, -1,
 108, 102, 106, -1, 108, 106, 112, -1, 112, 106, 110, -1,
 112, 110, 116, -1, 116, 110, 114, -1, 116, 114, 120, -1,
 120, 114, 118, -1, 120, 118, 132, -1, 132, 118, 130, -1,
 132, 130, 135, -1, 135, 130, 134, -1, 135, 134, 133, -1,
 133, 134, 131, -1, 133, 131, 121, -1, 121, 131, 119, -1,
 121, 119, 117, -1, 117, 119, 115, -1, 117, 115, 113, -1,
 113, 115, 111, -1, 113, 111, 109, -1, 109, 111, 107, -1,
 109, 107, 105, -1, 105, 107, 103, -1, 105, 103, 101, -1,
 101, 103, 99, -1, 101, 99, 97, -1, 97, 99, 95, -1,
 97, 95, 93, -1, 93, 95, 91, -1, 93, 91, 89, -1,
 89, 91, 87, -1, 89, 87, 77, -1, 77, 87, 75, -1,
 77, 75, 73, -1, 73, 75, 72, -1, 73, 72, 76, -1,
 76, 72, 74, -1, 76, 74, 88, -1, 88, 74, 86, -1,
 88, 86, 92, -1, 92, 86, 90, -1, 92, 90, 96, -1,
 96, 90, 94, -1, 96, 94, 100, -1, 100, 94, 98, -1,
 100, 98, 104, -1, 104, 98, 102, -1, 79, 78, 83, -1,
 83, 78, 82, -1, 127, 126, 123, -1, 123, 126, 122, -1,
 123, 79, 127, -1, 127, 79, 83, -1, 140, 160, 142, -1,
 142, 160, 162, -1, 158, 174, 156, -1, 156, 174, 172, -1,
 156, 140, 158, -1, 158, 140, 142, -1, 124, 125, 128, -1,
 128, 125, 129, -1, 84, 85, 80, -1, 80, 85, 81, -1,
 80, 124, 84, -1, 84, 124, 128, -1, 157, 173, 159, -1,
 159, 173, 175, -1, 143, 163, 141, -1, 141, 163, 161, -1,
 141, 157, 143, -1, 143, 157, 159, -1, 169, 197, 171, -1,
 171, 197, 199, -1, 167, 195, 165, -1, 165, 195, 193, -1,
 165, 169, 167, -1, 167, 169, 171, -1, 164, 192, 166, -1,
 166, 192, 194, -1, 170, 198, 168, -1, 168, 198, 196, -1,
 168, 164, 170, -1, 170, 164, 166, -1, 41, 13, 43, -1,
 43, 13, 15, -1, 39, 11, 37, -1, 37, 11, 9, -1,
 37, 41, 39, -1, 39, 41, 43, -1, 65, 45, 67, -1,
 67, 45, 47, -1, 51, 35, 49, -1, 49, 35, 33, -1,
 49, 65, 51, -1, 51, 65, 67, -1, 48, 32, 50, -1,
 50, 32, 34, -1, 66, 46, 64, -1, 64, 46, 44, -1,
 64, 48, 66, -1, 66, 48, 50, -1, 36, 8, 38, -1,
 38, 8, 10, -1, 42, 14, 40, -1, 40, 14, 12, -1,
 40, 36, 42, -1, 42, 36, 38, -1
]
normalIndex [
 5, 5, 3, -1, 5, 3, 3, -1, 3, 3, 1, -1,
 3, 1, 1, -1, 1, 1, 2, -1, 1, 2, 2, -1,
 2, 2, 4, -1, 2, 4, 4, -1, 4, 4, 6, -1,
 4, 6, 6, -1, 27, 27, 23, -1, 27, 23, 23, -1,
 23, 23, 21, -1, 23, 21, 21, -1, 21, 21, 17, -1,
 21, 17, 17, -1, 17, 17, 13, -1, 17, 13, 13, -1,
 13, 13, 11, -1, 13, 11, 11, -1, 32, 32, 36, -1,
 32, 36, 36, -1, 36, 36, 38, -1, 36, 38, 38, -1,
 38, 38, 42, -1, 38, 42, 42, -1, 42, 42, 46, -1,
 42, 46, 46, -1, 46, 46, 48, -1, 46, 48, 48, -1,
 12, 12, 14, -1, 12, 14, 14, -1, 14, 14, 18, -1,
 14, 18, 18, -1, 18, 18, 22, -1, 18, 22, 22, -1,
 22, 22, 24, -1, 22, 24, 24, -1, 24, 24, 28, -1,
 24, 28, 28, -1, 89, 89, 87, -1, 89, 87, 87, -1,
 87, 87, 83, -1, 87, 83, 83, -1, 83, 83, 79, -1,
 83, 79, 79, -1, 79, 79, 77, -1, 79, 77, 77, -1,
 77, 77, 73, -1, 77, 73, 73, -1, 96, 96, 98, -1,
 96, 98, 98, -1, 98, 98, 100, -1, 98, 100, 100, -1,
 100, 100, 99, -1, 100, 99, 99, -1, 99, 99, 97, -1,
 99, 97, 97, -1, 97, 97, 95, -1, 97, 95, 95, -1,
 74, 74, 78, -1, 74, 78, 78, -1, 78, 78, 80, -1,
 78, 80, 80, -1, 80, 80, 84, -1, 80, 84, 84, -1,
 84, 84, 88, -1, 84, 88, 88, -1, 88, 88, 90, -1,
 88, 90, 90, -1, 54, 54, 56, -1, 54, 56, 56, -1,
 56, 56, 60, -1, 56, 60, 60, -1, 60, 60, 64, -1,
 60, 64, 64, -1, 64, 64, 66, -1, 64, 66, 66, -1,
 66, 66, 70, -1, 66, 70, 70, -1, 69, 69, 65, -1,
 69, 65, 65, -1, 65, 65, 63, -1, 65, 63, 63, -1,
 63, 63, 59, -1, 63, 59, 59, -1, 59, 59, 55, -1,
 59, 55, 55, -1, 55, 55, 53, -1, 55, 53, 53, -1,
 47, 47, 45, -1, 47, 45, 45, -1, 45, 45, 41, -1,
 45, 41, 41, -1, 41, 41, 37, -1, 41, 37, 37, -1,
 37, 37, 35, -1, 37, 35, 35, -1, 35, 35, 31, -1,
 35, 31, 31, -1, 52, 52, 52, -1, 52, 52, 52, -1,
 52, 52, 52, -1, 52, 52, 52, -1, 52, 52, 52, -1,
 52, 52, 52, -1, 52, 52, 52, -1, 52, 52, 52, -1,
 52, 52, 52, -1, 52, 52, 52, -1, 52, 52, 52, -1,
 52, 52, 52, -1, 52, 52, 52, -1, 52, 52, 52, -1,
 52, 52, 52, -1, 52, 52, 52, -1, 52, 52, 52, -1,
 52, 52, 52, -1, 52, 52, 52, -1, 52, 52, 52, -1,
 52, 52, 52, -1, 52, 52, 52, -1, 52, 52, 52, -1,
 52, 52, 52, -1, 52, 52, 52, -1, 52, 52, 52, -1,
 52, 52, 52, -1, 52, 52, 52, -1, 52, 52, 52, -1,
 52, 52, 52, -1, 52, 52, 52, -1, 52, 52, 52, -1,
 52, 52, 52, -1, 52, 52, 52, -1, 52, 52, 52, -1,
 52, 52, 52, -1, 52, 52, 52, -1, 52, 52, 52, -1,
 52, 52, 52, -1, 52, 52, 52, -1, 52, 52, 52, -1,
 52, 52, 52, -1, 52, 52, 52, -1, 52, 52, 52, -1,
 52, 52, 52, -1, 52, 52, 52, -1, 52, 52, 52, -1,
 52, 52, 52, -1, 52, 52, 52, -1, 52, 52, 52, -1,
 52, 52, 52, -1, 52, 52, 52, -1, 52, 52, 52, -1,
 52, 52, 52, -1, 52, 52, 52, -1, 52, 52, 52, -1,
 52, 52, 52, -1, 52, 52, 52, -1, 52, 52, 52, -1,
 52, 52, 52, -1, 52, 52, 52, -1, 52, 52, 52, -1,
 52, 52, 52, -1, 52, 52, 52, -1, 52, 52, 52, -1,
 52, 52, 52, -1, 52, 52, 52, -1, 52, 52, 52, -1,
 52, 52, 52, -1, 52, 52, 52, -1, 52, 52, 52, -1,
 52, 52, 52, -1, 52, 52, 52, -1, 52, 52, 52, -1,
 52, 52, 52, -1, 52, 52, 52, -1, 52, 52, 52, -1,
 52, 52, 52, -1, 52, 52, 52, -1, 52, 52, 52, -1,
 52, 52, 52, -1, 52, 52, 52, -1, 52, 52, 52, -1,
 52, 52, 52, -1, 52, 52, 52, -1, 52, 52, 52, -1,
 52, 52, 52, -1, 52, 52, 52, -1, 52, 52, 52, -1,
 52, 52, 52, -1, 52, 52, 52, -1, 52, 52, 52, -1,
 52, 52, 52, -1, 52, 52, 52, -1, 52, 52, 52, -1,
 52, 52, 52, -1, 52, 52, 52, -1, 52, 52, 52, -1,
 52, 52, 52, -1, 52, 52, 52, -1, 52, 52, 52, -1,
 52, 52, 52, -1, 52, 52, 52, -1, 52, 52, 52, -1,
 49, 49, 49, -1, 49, 49, 49, -1, 49, 49, 49, -1,
 49, 49, 49, -1, 49, 49, 49, -1, 49, 49, 49, -1,
 49, 49, 49, -1, 49, 49, 49, -1, 49, 49, 49, -1,
 49, 49, 49, -1, 49, 49, 49, -1, 49, 49, 49, -1,
 49, 49, 49, -1, 49, 49, 49, -1, 49, 49, 49, -1,
 49, 49, 49, -1, 49, 49, 49, -1, 49, 49, 49, -1,
 49, 49, 49, -1, 49, 49, 49, -1, 49, 49, 49, -1,
 49, 49, 49, -1, 49, 49, 49, -1, 49, 49, 49, -1,
 49, 49, 49, -1, 49, 49, 49, -1, 49, 49, 49, -1,
 49, 49, 49, -1, 49, 49, 49, -1, 49, 49, 49, -1,
 49, 49, 49, -1, 49, 49, 49, -1, 49, 49, 49, -1,
 49, 49, 49, -1, 49, 49, 49, -1, 49, 49, 49, -1,
 49, 49, 49, -1, 49, 49, 49, -1, 49, 49, 49, -1,
 49, 49, 49, -1, 49, 49, 49, -1, 49, 49, 49, -1,
 49, 49, 49, -1, 49, 49, 49, -1, 49, 49, 49, -1,
 49, 49, 49, -1, 49, 49, 49, -1, 49, 49, 49, -1,
 49, 49, 49, -1, 49, 49, 49, -1, 49, 49, 49, -1,
 49, 49, 49, -1, 49, 49, 49, -1, 49, 49, 49, -1,
 49, 49, 49, -1, 49, 49, 49, -1, 49, 49, 49, -1,
 49, 49, 49, -1, 49, 49, 49, -1, 49, 49, 49, -1,
 49, 49, 49, -1, 49, 49, 49, -1, 49, 49, 49, -1,
 49, 49, 49, -1, 49, 49, 49, -1, 49, 49, 49, -1,
 49, 49, 49, -1, 49, 49, 49, -1, 49, 49, 49, -1,
 49, 49, 49, -1, 49, 49, 49, -1, 49, 49, 49, -1,
 49, 49, 49, -1, 49, 49, 49, -1, 49, 49, 49, -1,
 49, 49, 49, -1, 49, 49, 49, -1, 49, 49, 49, -1,
 49, 49, 49, -1, 49, 49, 49, -1, 49, 49, 49, -1,
 49, 49, 49, -1, 49, 49, 49, -1, 49, 49, 49, -1,
 49, 49, 49, -1, 49, 49, 49, -1, 49, 49, 49, -1,
 49, 49, 49, -1, 49, 49, 49, -1, 49, 49, 49, -1,
 49, 49, 49, -1, 49, 49, 49, -1, 49, 49, 49, -1,
 49, 49, 49, -1, 49, 49, 49, -1, 49, 49, 49, -1,
 49, 49, 49, -1, 49, 49, 49, -1, 49, 49, 49, -1,
 49, 49, 49, -1, 49, 49, 49, -1, 49, 49, 49, -1,
 49, 49, 49, -1, 49, 49, 49, -1, 51, 51, 44, -1,
 44, 51, 44, -1, 44, 44, 34, -1, 34, 44, 34, -1,
 34, 34, 26, -1, 26, 34, 26, -1, 26, 26, 16, -1,
 16, 26, 16, -1, 16, 16, 8, -1, 8, 16, 8, -1,
 8, 8, 0, -1, 0, 8, 0, -1, 0, 0, 7, -1,
 7, 0, 7, -1, 7, 7, 15, -1, 15, 7, 15, -1,
 15, 15, 25, -1, 25, 15, 25, -1, 25, 25, 33, -1,
 33, 25, 33, -1, 33, 33, 43, -1, 43, 33, 43, -1,
 43, 43, 50, -1, 50, 43, 50, -1, 50, 50, 57, -1,
 57, 50, 57, -1, 57, 57, 67, -1, 67, 57, 67, -1,
 67, 67, 75, -1, 75, 67, 75, -1, 75, 75, 85, -1,
 85, 75, 85, -1, 85, 85, 93, -1, 93, 85, 93, -1,
 93, 93, 101, -1, 101, 93, 101, -1, 101, 101, 94, -1,
 94, 101, 94, -1, 94, 94, 86, -1, 86, 94, 86, -1,
 86, 86, 76, -1, 76, 86, 76, -1, 76, 76, 68, -1,
 68, 76, 68, -1, 68, 68, 58, -1, 58, 68, 58, -1,
 58, 58, 51, -1, 51, 58, 51, -1, 101, 101, 101, -1,
 101, 101, 101, -1, 0, 0, 0, -1, 0, 0, 0, -1,
 50, 50, 50, -1, 50, 50, 50, -1, 82, 82, 82, -1,
 82, 82, 82, -1, 19, 19, 19, -1, 19, 19, 19, -1,
 71, 71, 71, -1, 71, 71, 71, -1, 0, 0, 0, -1,
 0, 0, 0, -1, 101, 101, 101, -1, 101, 101, 101, -1,
 51, 51, 51, -1, 51, 51, 51, -1, 20, 20, 20, -1,
 20, 20, 20, -1, 81, 81, 81, -1, 81, 81, 81, -1,
 72, 72, 72, -1, 72, 72, 72, -1, 40, 40, 40, -1,
 40, 40, 40, -1, 61, 61, 61, -1, 61, 61, 61, -1,
 92, 92, 92, -1, 92, 92, 92, -1, 62, 62, 62, -1,
 62, 62, 62, -1, 39, 39, 39, -1, 39, 39, 39, -1,
 91, 91, 91, -1, 91, 91, 91, -1, 39, 39, 39, -1,
 39, 39, 39, -1, 62, 62, 62, -1, 62, 62, 62, -1,
 10, 10, 10, -1, 10, 10, 10, -1, 19, 19, 19, -1,
 19, 19, 19, -1, 82, 82, 82, -1, 82, 82, 82, -1,
 30, 30, 30, -1, 30, 30, 30, -1, 81, 81, 81, -1,
 81, 81, 81, -1, 20, 20, 20, -1, 20, 20, 20, -1,
 29, 29, 29, -1, 29, 29, 29, -1, 61, 61, 61, -1,
 61, 61, 61, -1, 40, 40, 40, -1, 40, 40, 40, -1,
 9, 9, 9, -1, 9, 9, 9, -1
]
colorPerVertex FALSE
normalPerVertex TRUE
}
}
]
}
