#VRML V2.0 utf8
Transform {
children [
Shape {
appearance Appearance {
material Material {
ambientIntensity 1.000000
diffuseColor 1.000000 1.000000 1.000000
emissiveColor 0.210000 0.210000 0.210000
specularColor 0.880000 0.880000 0.880000
shininess 0.210000
transparency 0.000000
}
}
geometry IndexedFaceSet {
color Color {
color [
 1.000000 1.000000 1.000000
]
}
coord Coordinate {
point [
 -0.055000 -0.003000 0.001000, -0.055000 -0.003000 0.002000, -0.055000 -0.002000 0.000000, -0.055000 0.005000 0.010000, -0.055000 0.006000 0.000000,
 -0.055000 0.006000 0.010000, -0.052348 0.008882 0.000000, -0.052348 0.008882 0.010000, -0.049456 0.011522 0.000000, -0.049456 0.011522 0.010000,
 -0.049196 0.005000 0.010000, -0.048608 0.000999 0.005999, -0.048244 0.005273 0.010000, -0.048000 -0.003000 0.001000, -0.048000 -0.003000 0.002000,
 -0.046346 0.013901 0.000000, -0.046346 0.013901 0.010000, -0.046224 -0.002469 0.000469, -0.046202 -0.002464 0.000464, -0.046202 -0.002465 0.002000,
 -0.046104 -0.002436 0.002000, -0.044430 -0.002000 0.000000, -0.044174 0.006256 0.010000, -0.043040 0.016000 0.000000, -0.043040 0.016000 0.010000,
 -0.042559 -0.001580 0.002000, -0.042188 -0.001504 0.000000, -0.042186 -0.001516 0.002000, -0.040046 0.006962 0.010000, -0.039564 0.017804 0.000000,
 -0.039564 0.017804 0.010000, -0.038964 -0.000964 0.002000, -0.038112 -0.000855 0.000000, -0.038110 -0.000877 0.002000, -0.035945 0.019299 0.000000,
 -0.035945 0.019299 0.010000, -0.035881 0.007388 0.010000, -0.035336 -0.000593 0.002000, -0.033999 -0.000519 0.000000, -0.033998 -0.000547 0.002000,
 -0.032209 0.020474 0.000000, -0.032209 0.020474 0.010000, -0.031696 0.007532 0.010000, -0.031691 -0.000468 0.002000, -0.029873 -0.000528 0.002000,
 -0.029872 -0.000497 0.000000, -0.028386 0.021320 0.000000, -0.028386 0.021320 0.010000, -0.028046 -0.000589 0.002000, -0.027511 0.007393 0.010000,
 -0.025758 -0.000820 0.002000, -0.025756 -0.000792 0.000000, -0.024503 0.021830 0.000000, -0.024503 0.021830 0.010000, -0.024417 -0.000956 0.002000,
 -0.023345 0.006972 0.010000, -0.021676 -0.001416 0.002000, -0.021673 -0.001399 0.000000, -0.021000 -0.001530 0.002000, -0.020664 -0.000918 0.002671,
 -0.020591 0.022000 0.000000, -0.020591 0.022000 0.010000, -0.020530 -0.001627 0.002939, -0.019217 0.006271 0.010000, -0.017652 -0.002326 0.008696,
 -0.017650 -0.002317 0.000000, -0.017466 -0.002366 0.000000, -0.017311 -0.002409 0.009379, -0.017000 0.005000 0.000000, -0.017000 0.005774 0.010000,
 -0.017000 0.022000 0.000000, -0.017000 0.022000 0.010000, -0.016365 -0.002679 0.000670, -0.015271 -0.003014 0.001360, -0.015000 0.022000 0.014000,
 -0.014994 -0.003103 0.001634, -0.014871 -0.003144 0.001727, -0.014797 -0.003168 -0.011750, -0.014797 0.005000 -0.011750, -0.014595 -0.003235 0.001937,
 -0.014398 -0.003301 -0.013878, -0.014375 0.022000 -0.014000, -0.014204 -0.003367 0.002161, -0.014133 -0.003391 0.002202, -0.014000 -0.003437 -0.016000,
 -0.014000 -0.003437 0.016000, -0.014000 0.020000 -0.016000, -0.014000 0.020000 0.016000, -0.013708 -0.003539 0.002379, -0.013708 -0.003539 0.016000,
 -0.013538 -0.003599 0.002450, -0.013422 -0.003641 0.002483, -0.012961 -0.003808 0.002614, -0.012573 -0.003954 0.002677, -0.012300 -0.004057 0.002722,
 -0.011994 -0.000375 0.000000, -0.011983 -0.000644 0.011750, -0.011978 -0.000644 0.000259, -0.011952 -0.001077 0.000675, -0.011928 0.001308 0.000000,
 -0.011928 0.001308 0.011750, -0.011868 -0.001776 0.001360, -0.011831 -0.002008 0.001702, -0.011827 -0.002033 0.001729, -0.011775 -0.002314 0.002032,
 -0.011741 -0.002473 0.002158, -0.011719 -0.002580 0.011750, -0.011719 -0.002580 0.002243, -0.011708 -0.002631 0.002284, -0.011705 -0.004290 0.002749,
 -0.011696 -0.004294 0.002750, -0.011622 -0.002986 0.002485, -0.011612 -0.003027 0.002508, -0.011558 0.003226 0.000000, -0.011558 0.003226 0.011750,
 -0.011501 -0.003424 0.002655, -0.011461 -0.003549 0.002680, -0.011372 -0.003831 0.002735, -0.011310 -0.004449 -0.016000, -0.011310 -0.004449 -0.011750,
 -0.011265 -0.004130 0.002741, -0.011213 -0.004274 0.002744, -0.011146 -0.004447 0.011750, -0.011145 -0.004447 0.002722, -0.011112 -0.004529 0.002712,
 -0.011112 -0.004529 0.011750, -0.010909 0.005000 -0.011750, -0.010909 0.005000 0.000000, -0.010882 0.005058 -0.011750, -0.010882 0.005058 0.011750,
 -0.009917 0.006757 -0.011750, -0.009917 0.006757 0.011750, -0.009871 -0.005058 0.011750, -0.009871 -0.005058 0.016000, -0.008690 0.008276 -0.011750,
 -0.008690 0.008276 0.011750, -0.007858 -0.005996 -0.016000, -0.007858 -0.005996 -0.011750, -0.007232 0.009576 -0.011750, -0.007232 0.009576 0.011750,
 -0.006161 -0.006867 0.011750, -0.006161 -0.006867 0.016000, -0.005583 0.010622 -0.011750, -0.005583 0.010622 0.011750, -0.005200 0.000000 -0.016000,
 -0.005200 0.000000 -0.011750, -0.005200 0.000000 0.011750, -0.005200 0.000000 0.016000, -0.005049 -0.001244 -0.016000, -0.005049 -0.001244 -0.011750,
 -0.005049 -0.001244 0.011750, -0.005049 -0.001244 0.016000, -0.005049 0.001244 -0.016000, -0.005049 0.001244 -0.011750, -0.005049 0.001244 0.011750,
 -0.005049 0.001244 0.016000, -0.004604 -0.002417 -0.016000, -0.004604 -0.002417 -0.011750, -0.004604 -0.002417 0.011750, -0.004604 -0.002417 0.016000,
 -0.004604 0.002417 -0.016000, -0.004604 0.002417 -0.011750, -0.004604 0.002417 0.011750, -0.004604 0.002417 0.016000, -0.004523 -0.007781 -0.016000,
 -0.004523 -0.007781 -0.011750, -0.004523 -0.007781 0.011750, -0.004523 -0.007781 0.016000, -0.003892 -0.003448 -0.016000, -0.003892 -0.003448 -0.011750,
 -0.003892 -0.003448 0.011750, -0.003892 -0.003448 0.016000, -0.003892 0.003448 -0.016000, -0.003892 0.003448 -0.011750, -0.003892 0.003448 0.011750,
 -0.003892 0.003448 0.016000, -0.003785 0.011387 -0.011750, -0.003785 0.011387 0.011750, -0.002954 -0.004280 -0.016000, -0.002954 -0.004280 -0.011750,
 -0.002954 -0.004280 0.011750, -0.002954 -0.004280 0.016000, -0.002954 0.004280 -0.016000, -0.002954 0.004280 -0.011750, -0.002954 0.004280 0.011750,
 -0.002954 0.004280 0.016000, -0.002942 -0.008505 -0.016000, -0.002942 -0.008505 -0.011750, -0.002942 -0.008505 0.011750, -0.002942 -0.008505 0.016000,
 -0.001888 0.011851 -0.011750, -0.001888 0.011851 0.011750, -0.001844 -0.004862 -0.016000, -0.001844 -0.004862 -0.011750, -0.001844 -0.004862 0.011750,
 -0.001844 -0.004862 0.016000, -0.001844 0.004862 -0.016000, -0.001844 0.004862 -0.011750, -0.001844 0.004862 0.011750, -0.001844 0.004862 0.016000,
 -0.001252 -0.008912 -0.016000, -0.001252 -0.008912 -0.011750, -0.001252 -0.008912 0.011750, -0.001252 -0.008912 0.016000, -0.000627 -0.005162 -0.016000,
 -0.000627 -0.005162 -0.011750, -0.000627 -0.005162 0.011750, -0.000627 -0.005162 0.016000, -0.000627 0.005162 -0.016000, -0.000627 0.005162 -0.011750,
 -0.000627 0.005162 0.011750, -0.000627 0.005162 0.016000, 0.000060 0.012000 -0.011750, 0.000060 0.012000 0.011750, 0.000485 -0.008987 -0.016000,
 0.000485 -0.008987 -0.011750, 0.000485 -0.008987 0.011750, 0.000485 -0.008987 0.016000, 0.000627 -0.005162 -0.016000, 0.000627 -0.005162 -0.011750,
 0.000627 -0.005162 0.011750, 0.000627 -0.005162 0.016000, 0.000627 0.005162 -0.016000, 0.000627 0.005162 -0.011750, 0.000627 0.005162 0.011750,
 0.000627 0.005162 0.016000, 0.001844 -0.004862 -0.016000, 0.001844 -0.004862 -0.011750, 0.001844 -0.004862 0.011750, 0.001844 -0.004862 0.016000,
 0.001844 0.004862 -0.016000, 0.001844 0.004862 -0.011750, 0.001844 0.004862 0.011750, 0.001844 0.004862 0.016000, 0.002006 0.011831 -0.011750,
 0.002006 0.011831 0.011750, 0.002203 -0.008726 -0.016000, 0.002203 -0.008726 -0.011750, 0.002203 -0.008726 0.011750, 0.002203 -0.008726 0.016000,
 0.002954 -0.004280 -0.016000, 0.002954 -0.004280 -0.011750, 0.002954 -0.004280 0.011750, 0.002954 -0.004280 0.016000, 0.002954 0.004280 -0.016000,
 0.002954 0.004280 -0.011750, 0.002954 0.004280 0.011750, 0.002954 0.004280 0.016000, 0.003840 -0.008140 -0.016000, 0.003840 -0.008140 -0.011750,
 0.003840 -0.008140 0.011750, 0.003840 -0.008140 0.016000, 0.003892 -0.003448 -0.016000, 0.003892 -0.003448 -0.011750, 0.003892 -0.003448 0.011750,
 0.003892 -0.003448 0.016000, 0.003892 0.003448 -0.016000, 0.003892 0.003448 -0.011750, 0.003892 0.003448 0.011750, 0.003892 0.003448 0.016000,
 0.003898 0.011349 -0.011750, 0.003898 0.011349 0.011750, 0.004178 0.011249 -0.007500, 0.004178 0.011249 0.007500, 0.004604 -0.002417 -0.016000,
 0.004604 -0.002417 -0.011750, 0.004604 -0.002417 0.011750, 0.004604 -0.002417 0.016000, 0.004604 0.002417 -0.016000, 0.004604 0.002417 -0.011750,
 0.004604 0.002417 0.011750, 0.004604 0.002417 0.016000, 0.005049 -0.001244 -0.016000, 0.005049 -0.001244 -0.011750, 0.005049 -0.001244 0.011750,
 0.005049 -0.001244 0.016000, 0.005049 0.001244 -0.016000, 0.005049 0.001244 -0.011750, 0.005049 0.001244 0.011750, 0.005049 0.001244 0.016000,
 0.005200 0.000000 -0.016000, 0.005200 0.000000 -0.011750, 0.005200 0.000000 0.011750, 0.005200 0.000000 0.016000, 0.005333 -0.007250 -0.016000,
 0.005333 -0.007250 -0.011750, 0.005333 -0.007250 0.011750, 0.005333 -0.007250 0.016000, 0.005688 0.010566 -0.011750, 0.005688 0.010566 -0.007500,
 0.005688 0.010566 0.007500, 0.005688 0.010566 0.011750, 0.006628 -0.006089 -0.016000, 0.006628 -0.006089 -0.011750, 0.006628 -0.006089 0.011750,
 0.006628 -0.006089 0.016000, 0.007327 0.009504 -0.011750, 0.007327 0.009504 -0.007500, 0.007327 0.009504 0.007500, 0.007327 0.009504 0.011750,
 0.007675 -0.004701 -0.016000, 0.007675 -0.004701 -0.011750, 0.007675 -0.004701 0.011750, 0.007675 -0.004701 0.016000, 0.008435 -0.003138 -0.016000,
 0.008435 -0.003138 -0.011750, 0.008435 -0.003138 0.011750, 0.008435 -0.003138 0.016000, 0.008771 0.008189 -0.011750, 0.008771 0.008189 -0.007500,
 0.008771 0.008189 0.007500, 0.008771 0.008189 0.011750, 0.008881 -0.001458 -0.016000, 0.008881 -0.001458 -0.011750, 0.008881 -0.001458 0.011750,
 0.008881 -0.001458 0.016000, 0.009410 0.000916 -0.016000, 0.009410 0.000916 -0.011750, 0.009410 0.000916 0.011750, 0.009410 0.000916 0.016000,
 0.009854 0.022000 -0.007500, 0.009854 0.022000 0.007500, 0.009984 0.006658 -0.011750, 0.009984 0.006658 -0.007500, 0.009984 0.006658 0.007500,
 0.009984 0.006658 0.011750, 0.010113 0.021966 -0.007500, 0.010113 0.021966 0.007500, 0.010189 0.017260 -0.007500, 0.010189 0.017260 0.007500,
 0.010205 0.003214 -0.016000, 0.010205 0.003214 -0.011750, 0.010205 0.003214 0.011750, 0.010205 0.003214 0.016000, 0.010213 0.018402 -0.007500,
 0.010213 0.018402 0.007500, 0.010354 0.021866 -0.007500, 0.010354 0.021866 0.007500, 0.010409 0.019527 -0.007500, 0.010409 0.019527 0.007500,
 0.010561 0.021707 -0.007500, 0.010561 0.021707 0.007500, 0.010720 0.021500 -0.007500, 0.010720 0.021500 0.007500, 0.010774 0.020609 -0.007500,
 0.010774 0.020609 0.007500, 0.010820 0.021259 -0.007500, 0.010820 0.021259 0.007500, 0.010834 0.020801 -0.007500, 0.010834 0.020801 0.007500,
 0.010854 0.021000 -0.007500, 0.010854 0.021000 0.007500, 0.010932 0.004950 -0.011750, 0.010932 0.004950 -0.007500, 0.010932 0.004950 0.007500,
 0.010932 0.004950 0.011750, 0.010968 0.004869 -0.011750, 0.010968 0.004869 -0.007500, 0.010968 0.004869 0.007500, 0.010968 0.004869 0.011750,
 0.011255 0.005408 -0.016000, 0.011255 0.005408 -0.007500, 0.011255 0.005408 0.007500, 0.011255 0.005408 0.016000, 0.012546 0.007469 -0.016000,
 0.012546 0.007469 -0.007500, 0.012546 0.007469 0.007500, 0.012546 0.007469 0.016000, 0.013355 0.017678 -0.016000, 0.013355 0.017678 -0.012000,
 0.013356 0.017717 0.012000, 0.013356 0.017717 0.016000, 0.013453 0.016766 0.012000, 0.013453 0.016766 0.016000, 0.013457 0.016747 -0.016000,
 0.013457 0.016747 -0.012000, 0.013464 0.018641 -0.016000, 0.013464 0.018641 -0.012000, 0.013470 0.018666 0.012000, 0.013470 0.018666 0.016000,
 0.013520 0.022000 -0.014000, 0.013520 0.022000 -0.012000, 0.013520 0.022000 0.012000, 0.013520 0.022000 0.014000, 0.013651 0.021991 -0.014009,
 0.013696 0.021984 0.014016, 0.013757 0.015859 -0.016000, 0.013757 0.015859 -0.012000, 0.013757 0.015859 0.012000, 0.013757 0.015859 0.016000,
 0.013766 0.021965 -0.014035, 0.013766 0.021969 -0.012000, 0.013777 0.021962 0.014038, 0.013778 0.021966 0.012000, 0.013785 0.019555 -0.016000,
 0.013785 0.019555 -0.012000, 0.013790 0.019567 0.012000, 0.013790 0.019567 0.016000, 0.013834 0.021949 -0.014051, 0.013877 0.021934 0.014066,
 0.013998 0.021877 -0.014123, 0.013998 0.021878 -0.012000, 0.014011 0.021871 -0.014129, 0.014018 0.021863 0.014137, 0.014020 0.021866 0.012000,
 0.014032 0.020000 -0.016000, 0.014032 0.020000 0.016000, 0.014052 0.021846 0.014154, 0.014062 0.009370 -0.016000, 0.014062 0.009370 -0.007500,
 0.014062 0.009370 0.007500, 0.014062 0.009370 0.016000, 0.014162 0.020191 -0.015809, 0.014162 0.020191 0.015809, 0.014179 0.021752 -0.014248,
 0.014198 0.021731 -0.014269, 0.014200 0.021733 -0.012000, 0.014221 0.021713 0.014287, 0.014227 0.021707 0.014293, 0.014227 0.021707 0.012000,
 0.014244 0.021689 0.014311, 0.014301 0.020376 -0.015624, 0.014301 0.020376 -0.012000, 0.014301 0.020376 0.012000, 0.014301 0.020376 0.015624,
 0.014348 0.021560 -0.014440, 0.014349 0.020441 0.015559, 0.014357 0.021541 -0.014459, 0.014360 0.021542 -0.012000, 0.014383 0.021498 0.014502,
 0.014386 0.021500 0.012000, 0.014397 0.021479 0.014521, 0.014410 0.020570 0.015430, 0.014420 0.020566 0.012000, 0.014425 0.020591 -0.015409,
 0.014431 0.020588 -0.012000, 0.014450 0.020633 -0.015367, 0.014465 0.021317 -0.014683, 0.014468 0.021318 -0.012000, 0.014474 0.021298 -0.014702,
 0.014476 0.020708 0.015292, 0.014481 0.021257 0.014743, 0.014486 0.021259 0.012000, 0.014487 0.020778 0.015222, 0.014489 0.020829 -0.015171,
 0.014494 0.020777 0.012000, 0.014495 0.021220 0.014780, 0.014504 0.020826 -0.012000, 0.014506 0.021073 -0.014927, 0.014517 0.021074 -0.012000,
 0.014519 0.020976 -0.015024, 0.014520 0.021000 0.012000, 0.014520 0.021000 0.015000, 0.015382 0.010721 -0.016000, 0.015382 0.010721 -0.012000,
 0.015382 0.010721 0.012000, 0.015382 0.010721 0.016000, 0.015542 0.010914 -0.016000, 0.015542 0.010914 -0.012000, 0.015542 0.010914 0.012000,
 0.015542 0.010914 0.016000, 0.015606 0.011872 -0.016000, 0.015606 0.011872 -0.012000, 0.015606 0.011872 0.012000, 0.015606 0.011872 0.016000,
 0.015649 0.011139 -0.016000, 0.015649 0.011139 -0.012000, 0.015649 0.011139 0.012000, 0.015649 0.011139 0.016000, 0.015682 0.011634 -0.016000,
 0.015682 0.011634 -0.012000, 0.015682 0.011634 0.012000, 0.015682 0.011634 0.016000, 0.015696 0.011384 -0.016000, 0.015696 0.011384 -0.012000,
 0.015696 0.011384 0.012000, 0.015696 0.011384 0.016000, 0.015784 0.011088 -0.012000, 0.015784 0.011088 -0.007500, 0.015784 0.011088 0.007500,
 0.015784 0.011088 0.012000, 0.016228 0.017678 -0.012000, 0.016228 0.017678 -0.007500, 0.016228 0.017678 0.007500, 0.016228 0.017678 0.012000,
 0.016277 0.017302 -0.012000, 0.016277 0.017302 -0.007500, 0.016277 0.017302 0.007500, 0.016277 0.017302 0.012000, 0.016277 0.018053 -0.012000,
 0.016277 0.018053 -0.007500, 0.016277 0.018053 0.007500, 0.016277 0.018053 0.012000, 0.016422 0.016953 -0.012000, 0.016422 0.016953 -0.007500,
 0.016422 0.016953 0.007500, 0.016422 0.016953 0.012000, 0.016422 0.018403 -0.012000, 0.016422 0.018403 -0.007500, 0.016422 0.018403 0.007500,
 0.016422 0.018403 0.012000, 0.016652 0.016652 -0.012000, 0.016652 0.016652 -0.007500, 0.016652 0.016652 0.007500, 0.016652 0.016652 0.012000,
 0.016652 0.018703 -0.012000, 0.016652 0.018703 -0.007500, 0.016652 0.018703 0.007500, 0.016652 0.018703 0.012000, 0.016953 0.016422 -0.012000,
 0.016953 0.016422 -0.007500, 0.016953 0.016422 0.007500, 0.016953 0.016422 0.012000, 0.016953 0.018933 -0.012000, 0.016953 0.018933 -0.007500,
 0.016953 0.018933 0.007500, 0.016953 0.018933 0.012000, 0.017302 0.016277 -0.012000, 0.017302 0.016277 -0.007500, 0.017302 0.016277 0.007500,
 0.017302 0.016277 0.012000, 0.017302 0.019078 -0.012000, 0.017302 0.019078 -0.007500, 0.017302 0.019078 0.007500, 0.017302 0.019078 0.012000,
 0.017678 0.016228 -0.012000, 0.017678 0.016228 -0.007500, 0.017678 0.016228 0.007500, 0.017678 0.016228 0.012000, 0.017678 0.019128 -0.012000,
 0.017678 0.019128 -0.007500, 0.017678 0.019128 0.007500, 0.017678 0.019128 0.012000, 0.017678 0.022000 -0.012000, 0.017678 0.022000 -0.007500,
 0.017678 0.022000 0.007500, 0.017678 0.022000 0.012000, 0.017688 0.012599 -0.012000, 0.017688 0.012599 -0.007500, 0.017688 0.012599 0.007500,
 0.017688 0.012599 0.012000, 0.018053 0.016277 -0.012000, 0.018053 0.016277 -0.007500, 0.018053 0.016277 0.007500, 0.018053 0.016277 0.012000,
 0.018053 0.019078 -0.012000, 0.018053 0.019078 -0.007500, 0.018053 0.019078 0.007500, 0.018053 0.019078 0.012000, 0.018403 0.016422 -0.012000,
 0.018403 0.016422 -0.007500, 0.018403 0.016422 0.007500, 0.018403 0.016422 0.012000, 0.018403 0.018933 -0.012000, 0.018403 0.018933 -0.007500,
 0.018403 0.018933 0.007500, 0.018403 0.018933 0.012000, 0.018703 0.016652 -0.012000, 0.018703 0.016652 -0.007500, 0.018703 0.016652 0.007500,
 0.018703 0.016652 0.012000, 0.018703 0.018703 -0.012000, 0.018703 0.018703 -0.007500, 0.018703 0.018703 0.007500, 0.018703 0.018703 0.012000,
 0.018705 0.021876 -0.012000, 0.018705 0.021876 -0.007500, 0.018705 0.021876 0.007500, 0.018705 0.021876 0.012000, 0.018933 0.016953 -0.012000,
 0.018933 0.016953 -0.007500, 0.018933 0.016953 0.007500, 0.018933 0.016953 0.012000, 0.018933 0.018403 -0.012000, 0.018933 0.018403 -0.007500,
 0.018933 0.018403 0.007500, 0.018933 0.018403 0.012000, 0.019078 0.017302 -0.012000, 0.019078 0.017302 -0.007500, 0.019078 0.017302 0.007500,
 0.019078 0.017302 0.012000, 0.019078 0.018053 -0.012000, 0.019078 0.018053 -0.007500, 0.019078 0.018053 0.007500, 0.019078 0.018053 0.012000,
 0.019128 0.017678 -0.012000, 0.019128 0.017678 -0.007500, 0.019128 0.017678 0.007500, 0.019128 0.017678 0.012000, 0.019674 0.021511 -0.012000,
 0.019674 0.021511 -0.007500, 0.019674 0.021511 0.007500, 0.019674 0.021511 0.012000, 0.019752 0.013886 -0.012000, 0.019752 0.013886 -0.007500,
 0.019752 0.013886 0.007500, 0.019752 0.013886 0.012000, 0.020529 0.020926 -0.012000, 0.020529 0.020926 -0.007500, 0.020529 0.020926 0.007500,
 0.020529 0.020926 0.012000, 0.020594 0.014488 -0.012000, 0.020594 0.014488 -0.007500, 0.020594 0.014488 0.007500, 0.020594 0.014488 0.012000,
 0.021219 0.020155 -0.012000, 0.021219 0.020155 -0.007500, 0.021219 0.020155 0.007500, 0.021219 0.020155 0.012000, 0.021269 0.015273 -0.012000,
 0.021269 0.015273 -0.007500, 0.021269 0.015273 0.007500, 0.021269 0.015273 0.012000, 0.021707 0.019242 -0.012000, 0.021707 0.019242 -0.007500,
 0.021707 0.019242 0.007500, 0.021707 0.019242 0.012000, 0.021738 0.016196 -0.012000, 0.021738 0.016196 -0.007500, 0.021738 0.016196 0.007500,
 0.021738 0.016196 0.012000, 0.021963 0.018239 -0.012000, 0.021963 0.018239 -0.007500, 0.021963 0.018239 0.007500, 0.021963 0.018239 0.012000,
 0.021974 0.017204 -0.012000, 0.021974 0.017204 -0.007500, 0.021974 0.017204 0.007500, 0.021974 0.017204 0.012000
]
}
normal Normal {
vector [
 -1.000000 0.000000 0.000000, -0.982872 0.000000 -0.184289, -0.970942 -0.239316 0.000000, -0.970942 0.239316 0.000000, -0.965926 -0.258819 0.000000,
 -0.965926 0.258819 0.000000, -0.913990 -0.405736 0.000000, -0.910960 -0.412494 0.000000, -0.894427 0.000000 0.447214, -0.885456 -0.464723 0.000000,
 -0.885456 0.464723 0.000000, -0.866025 -0.500000 0.000000, -0.866025 0.500000 0.000000, -0.831974 -0.554814 0.000000, -0.764651 0.644444 0.000000,
 -0.748511 -0.663123 0.000000, -0.748511 0.663123 0.000000, -0.730947 -0.682434 0.000000, -0.707107 -0.707107 0.000000, -0.707107 0.707107 0.000000,
 -0.705728 0.708483 0.000000, -0.641460 0.767156 0.000000, -0.610554 -0.791975 0.000000, -0.572334 0.820020 0.000000, -0.568065 -0.822984 0.000000,
 -0.568065 0.822984 0.000000, -0.502512 -0.864570 0.000000, -0.500000 -0.866025 0.000000, -0.500000 0.866025 0.000000, -0.498875 0.866674 0.000000,
 -0.473985 -0.880533 0.000000, -0.472173 -0.881506 0.000000, -0.440752 -0.897629 0.000000, -0.421637 0.906765 0.000000, -0.403473 -0.914992 0.000000,
 -0.380479 -0.924790 0.000000, -0.376829 -0.926283 0.000000, -0.369681 -0.929159 0.000000, -0.369502 -0.929230 0.000000, -0.358492 -0.933533 0.000000,
 -0.354605 -0.935016 0.000000, -0.354605 0.935016 0.000000, -0.353440 -0.935457 0.000000, -0.348174 -0.937430 0.000000, -0.346238 -0.938147 0.000000,
 -0.341206 0.939988 0.000000, -0.337714 -0.941249 0.000000, -0.335556 -0.942020 0.000000, -0.332416 -0.943133 0.000000, -0.332416 -0.943133 0.000000,
 -0.327005 -0.945023 0.000000, -0.326918 -0.945053 0.000000, -0.324858 -0.945763 0.000000, -0.324545 -0.945870 0.000000, -0.323228 -0.946321 0.000000,
 -0.319636 -0.947540 0.000000, -0.315990 -0.948762 0.000000, -0.312248 -0.950001 0.000000, -0.310868 -0.950453 0.000000, -0.308605 -0.951190 0.000000,
 -0.303465 -0.952842 0.000000, -0.283208 -0.959058 0.000000, -0.265695 -0.964057 0.000000, -0.262824 -0.964844 0.000000, -0.259420 -0.965765 0.000000,
 -0.259417 -0.965765 0.000000, -0.258819 -0.965926 0.000000, -0.258819 0.965926 0.000000, -0.258192 0.966094 0.000000, -0.206071 -0.978537 0.000000,
 -0.197375 -0.980328 0.000000, -0.184909 -0.982756 0.000000, -0.184903 -0.982757 0.000000, -0.173222 0.984883 0.000000, -0.167177 -0.687060 0.707107,
 -0.167125 -0.985936 0.000000, -0.142202 -0.692661 0.707107, -0.141897 -0.692723 0.707107, -0.139565 -0.693197 0.707107, -0.139126 -0.990275 0.000000,
 -0.134089 -0.990969 0.000000, -0.130751 -0.694913 0.707107, -0.120537 -0.992709 0.000000, -0.120537 0.992709 0.000000, -0.109314 -0.994007 0.000000,
 -0.109309 -0.994008 0.000000, -0.094815 -0.700721 0.707107, -0.086940 0.996214 0.000000, -0.077297 -0.702869 0.707107, -0.066894 -0.997760 0.000000,
 -0.056647 0.155635 -0.986189, -0.047301 -0.705523 0.707107, -0.045646 0.125412 -0.991054, -0.033077 -0.999453 0.000000, -0.033077 -0.999453 0.000000,
 -0.023389 -0.706720 0.707107, -0.022569 0.062008 -0.997820, -0.004965 -0.999988 0.000000, -0.004304 0.011826 -0.999921, -0.003475 0.009547 -0.999948,
 -0.003446 0.009467 -0.999949, -0.000000 -1.000000 0.000000, -0.000000 -0.707107 -0.707107, 0.000000 -0.707107 0.707107, -0.000000 0.000000 -1.000000,
 0.000000 0.000000 1.000000, 0.000000 0.707107 -0.707107, 0.000000 0.707107 0.707107, 0.000000 1.000000 0.000000, 0.000429 -0.707107 0.707107,
 0.000606 -1.000000 0.000000, 0.030655 -0.706442 0.707107, 0.036039 -0.099016 -0.994433, 0.043349 -0.999060 0.000000, 0.043353 -0.999060 0.000000,
 0.048156 -0.705465 0.707107, 0.049037 -0.134728 -0.989668, 0.053857 -0.998549 0.000000, 0.068103 -0.997678 0.000000, 0.072939 -0.200397 -0.976996,
 0.072980 -0.200512 -0.976969, 0.084519 -0.702037 0.707107, 0.089103 -0.244808 -0.965469, 0.095665 -0.700606 0.707107, 0.106299 -0.292054 -0.950476,
 0.119521 -0.992832 0.000000, 0.119528 -0.992831 0.000000, 0.120537 -0.992709 0.000000, 0.120537 0.992709 0.000000, 0.131006 0.991382 0.000000,
 0.135290 -0.990806 0.000000, 0.137886 -0.693533 0.707107, 0.140167 -0.385106 -0.912166, 0.142736 -0.692551 0.707107, 0.145643 -0.400150 -0.904803,
 0.145693 -0.400288 -0.904734, 0.155291 -0.426658 -0.890981, 0.157328 -0.987546 0.000000, 0.169959 -0.466958 -0.867793, 0.176372 0.984324 0.000000,
 0.189157 -0.681337 0.707107, 0.190445 -0.680978 0.707107, 0.190560 -0.523560 -0.830404, 0.194995 -0.980804 0.000000, 0.195001 -0.980803 0.000000,
 0.197279 -0.542019 -0.816882, 0.200015 -0.678229 0.707107, 0.201860 -0.979414 0.000000, 0.204883 -0.562913 -0.800720, 0.206650 -0.676237 0.707107,
 0.211026 -0.579789 -0.786964, 0.211042 -0.579834 -0.786927, 0.213988 -0.673950 0.707107, 0.230431 -0.633105 -0.738972, 0.236513 -0.971628 0.000000,
 0.237787 0.971317 0.000000, 0.241845 -0.664463 -0.707107, 0.242784 -0.667044 -0.704350, 0.244830 -0.969566 0.000000, 0.246859 0.969051 0.000000,
 0.246953 0.969027 0.000000, 0.258780 0.965936 0.000000, 0.258819 -0.965926 0.000000, 0.258819 0.965926 0.000000, 0.265786 -0.730240 -0.629370,
 0.265789 -0.730249 -0.629359, 0.267508 -0.963556 0.000000, 0.268605 -0.737985 -0.619055, 0.269330 -0.963048 0.000000, 0.269331 -0.963048 0.000000,
 0.269728 -0.962937 0.000000, 0.275079 -0.755774 -0.594254, 0.297295 -0.816811 -0.494404, 0.302625 -0.953110 0.000000, 0.314356 0.949305 0.000000,
 0.315452 -0.948942 0.000000, 0.354605 -0.935016 0.000000, 0.354605 0.935016 0.000000, 0.357138 0.934052 0.000000, 0.426668 -0.904408 0.000000,
 0.461933 0.886915 0.000000, 0.465219 -0.885196 0.000000, 0.478437 0.878122 0.000000, 0.478527 0.878073 0.000000, 0.479985 -0.877276 0.000000,
 0.491104 0.871101 0.000000, 0.500000 -0.866025 0.000000, 0.500000 0.866025 0.000000, 0.500148 0.865940 0.000000, 0.532569 0.846387 0.000000,
 0.568065 -0.822984 0.000000, 0.568065 0.822984 0.000000, 0.576201 -0.817308 0.000000, 0.592587 -0.805506 0.000000, 0.602660 -0.797998 0.000000,
 0.659353 0.751834 0.000000, 0.659580 0.751634 0.000000, 0.665010 -0.746835 0.000000, 0.674823 -0.737980 0.000000, 0.680194 0.733032 0.000000,
 0.680403 0.732839 0.000000, 0.683716 -0.729749 0.000000, 0.701109 0.713054 0.000000, 0.707106 0.707107 0.000000, 0.707107 -0.707107 0.000000,
 0.707107 0.707107 0.000000, 0.724135 -0.689659 0.000000, 0.724795 0.688965 0.000000, 0.736397 -0.676550 0.000000, 0.745271 -0.666762 0.000000,
 0.748511 -0.663123 0.000000, 0.748511 0.663123 0.000000, 0.781245 -0.624225 0.000000, 0.813484 -0.581587 0.000000, 0.815953 -0.578118 0.000000,
 0.819391 0.573236 0.000000, 0.826425 -0.563047 0.000000, 0.828674 0.559731 0.000000, 0.829012 -0.559231 0.000000, 0.830949 -0.556348 0.000000,
 0.840089 0.542448 0.000000, 0.840253 0.542195 0.000000, 0.843240 -0.537537 0.000000, 0.843400 -0.537287 0.000000, 0.852730 -0.522352 0.000000,
 0.866025 -0.500000 0.000000, 0.866025 0.500000 0.000000, 0.866156 0.499774 0.000000, 0.876147 -0.482044 0.000000, 0.877720 0.479173 0.000000,
 0.885456 -0.464723 0.000000, 0.885456 0.464723 0.000000, 0.889514 -0.456908 0.000000, 0.899374 -0.437180 0.000000, 0.900678 -0.434488 0.000000,
 0.900697 -0.434449 0.000000, 0.906819 -0.421519 0.000000, 0.907185 0.420731 0.000000, 0.909059 -0.416667 0.000000, 0.911162 -0.412049 0.000000,
 0.911380 -0.411567 0.000000, 0.920449 -0.390862 0.000000, 0.925079 -0.379774 0.000000, 0.926034 0.377440 0.000000, 0.928804 0.370571 0.000000,
 0.928804 0.370571 0.000000, 0.930371 -0.366619 0.000000, 0.932196 0.361953 0.000000, 0.934413 0.356191 0.000000, 0.937248 -0.348664 0.000000,
 0.938896 0.344200 0.000000, 0.939408 -0.342802 0.000000, 0.947678 0.319229 0.000000, 0.948094 0.317991 0.000000, 0.948189 0.317706 0.000000,
 0.950152 -0.311786 0.000000, 0.954566 0.298000 0.000000, 0.955257 0.295778 0.000000, 0.956481 -0.291794 0.000000, 0.958436 0.285308 0.000000,
 0.962121 -0.272622 0.000000, 0.963189 -0.268823 0.000000, 0.965926 -0.258819 0.000000, 0.965926 0.258819 0.000000, 0.966028 0.258436 0.000000,
 0.967661 0.252255 0.000000, 0.968553 0.248808 0.000000, 0.969121 -0.246586 0.000000, 0.970942 -0.239316 0.000000, 0.970942 0.239316 0.000000,
 0.973488 -0.228740 0.000000, 0.974743 -0.223330 0.000000, 0.974858 -0.222827 0.000000, 0.975457 0.220192 0.000000, 0.975672 0.219236 0.000000,
 0.976521 0.215424 0.000000, 0.976616 0.214991 0.000000, 0.976618 0.214983 0.000000, 0.977491 0.210976 0.000000, 0.978536 0.206075 0.000000,
 0.979910 -0.199438 0.000000, 0.981232 0.192832 0.000000, 0.983154 0.182777 0.000000, 0.984680 -0.174368 0.000000, 0.984735 -0.174062 0.000000,
 0.985550 0.169383 0.000000, 0.985903 0.167320 0.000000, 0.986796 -0.161967 0.000000, 0.988990 0.147980 0.000000, 0.991526 0.129907 0.000000,
 0.993977 -0.109591 0.000000, 0.994041 -0.109005 0.000000, 0.995324 -0.096592 0.000000, 0.995963 0.089763 0.000000, 0.997250 0.074105 0.000000,
 0.997296 0.073493 0.000000, 0.997781 -0.066581 0.000000, 0.998451 0.055642 0.000000, 0.998557 0.053700 0.000000, 0.998557 0.053698 0.000000,
 0.999512 0.031237 0.000000, 0.999722 -0.023569 0.000000, 0.999959 -0.009105 0.000000, 1.000000 0.000000 0.000000
]
}
coordIndex [
 350, 351, 349, -1, 350, 349, 348, -1, 348, 349, 345, -1,
 348, 345, 344, -1, 443, 440, 433, -1, 433, 440, 432, -1,
 433, 432, 423, -1, 423, 432, 426, -1, 423, 426, 424, -1,
 433, 445, 443, -1, 443, 445, 451, -1, 443, 451, 452, -1,
 146, 147, 150, -1, 150, 147, 151, -1, 150, 151, 158, -1,
 158, 151, 159, -1, 158, 159, 170, -1, 170, 159, 171, -1,
 170, 171, 180, -1, 180, 171, 181, -1, 180, 181, 194, -1,
 194, 181, 195, -1, 194, 195, 206, -1, 206, 195, 207, -1,
 206, 207, 220, -1, 220, 207, 221, -1, 220, 221, 228, -1,
 228, 221, 229, -1, 228, 229, 242, -1, 242, 229, 243, -1,
 242, 243, 254, -1, 254, 243, 255, -1, 254, 255, 266, -1,
 266, 255, 267, -1, 266, 267, 274, -1, 274, 267, 275, -1,
 274, 275, 282, -1, 282, 275, 283, -1, 144, 145, 148, -1,
 148, 145, 149, -1, 148, 149, 156, -1, 156, 149, 157, -1,
 156, 157, 168, -1, 168, 157, 169, -1, 168, 169, 178, -1,
 178, 169, 179, -1, 178, 179, 192, -1, 192, 179, 193, -1,
 192, 193, 204, -1, 204, 193, 205, -1, 204, 205, 218, -1,
 218, 205, 219, -1, 218, 219, 226, -1, 226, 219, 227, -1,
 226, 227, 240, -1, 240, 227, 241, -1, 240, 241, 252, -1,
 252, 241, 253, -1, 252, 253, 264, -1, 264, 253, 265, -1,
 264, 265, 272, -1, 272, 265, 273, -1, 272, 273, 280, -1,
 280, 273, 281, -1, 483, 484, 487, -1, 487, 484, 488, -1,
 487, 488, 495, -1, 495, 488, 496, -1, 495, 496, 503, -1,
 503, 496, 504, -1, 503, 504, 511, -1, 511, 504, 512, -1,
 511, 512, 519, -1, 519, 512, 520, -1, 519, 520, 527, -1,
 527, 520, 528, -1, 527, 528, 543, -1, 543, 528, 544, -1,
 543, 544, 551, -1, 551, 544, 552, -1, 551, 552, 559, -1,
 559, 552, 560, -1, 559, 560, 571, -1, 571, 560, 572, -1,
 571, 572, 579, -1, 579, 572, 580, -1, 579, 580, 587, -1,
 587, 580, 588, -1, 481, 482, 485, -1, 485, 482, 486, -1,
 485, 486, 493, -1, 493, 486, 494, -1, 493, 494, 501, -1,
 501, 494, 502, -1, 501, 502, 509, -1, 509, 502, 510, -1,
 509, 510, 517, -1, 517, 510, 518, -1, 517, 518, 525, -1,
 525, 518, 526, -1, 525, 526, 541, -1, 541, 526, 542, -1,
 541, 542, 549, -1, 549, 542, 550, -1, 549, 550, 557, -1,
 557, 550, 558, -1, 557, 558, 569, -1, 569, 558, 570, -1,
 569, 570, 577, -1, 577, 570, 578, -1, 577, 578, 585, -1,
 585, 578, 586, -1, 421, 422, 412, -1, 412, 422, 395, -1,
 412, 395, 405, -1, 369, 368, 377, -1, 377, 368, 376, -1,
 377, 376, 395, -1, 395, 376, 394, -1, 395, 394, 405, -1,
 54, 50, 51, -1, 26, 27, 25, -1, 26, 25, 21, -1,
 21, 25, 20, -1, 21, 20, 18, -1, 18, 20, 19, -1,
 18, 19, 17, -1, 17, 19, 14, -1, 17, 14, 13, -1,
 27, 26, 31, -1, 31, 26, 32, -1, 31, 32, 33, -1,
 33, 32, 37, -1, 37, 32, 38, -1, 37, 38, 39, -1,
 39, 38, 43, -1, 43, 38, 45, -1, 43, 45, 44, -1,
 51, 50, 45, -1, 45, 50, 48, -1, 45, 48, 44, -1,
 54, 51, 56, -1, 56, 51, 57, -1, 56, 57, 58, -1,
 58, 57, 65, -1, 58, 65, 62, -1, 62, 65, 64, -1,
 64, 65, 66, -1, 64, 66, 72, -1, 72, 73, 64, -1,
 64, 73, 75, -1, 64, 75, 76, -1, 76, 79, 64, -1,
 64, 79, 82, -1, 64, 82, 67, -1, 67, 82, 83, -1,
 67, 83, 88, -1, 90, 89, 88, -1, 88, 89, 85, -1,
 88, 85, 67, -1, 90, 91, 89, -1, 89, 91, 92, -1,
 89, 92, 93, -1, 94, 109, 125, -1, 125, 109, 110, -1,
 125, 110, 124, -1, 166, 167, 140, -1, 140, 167, 141, -1,
 140, 141, 132, -1, 132, 141, 133, -1, 132, 133, 125, -1,
 125, 133, 89, -1, 125, 89, 94, -1, 94, 89, 93, -1,
 127, 126, 128, -1, 123, 122, 124, -1, 124, 122, 125, -1,
 358, 359, 354, -1, 354, 359, 355, -1, 354, 355, 324, -1,
 324, 355, 325, -1, 324, 325, 310, -1, 310, 325, 311, -1,
 310, 311, 298, -1, 298, 311, 299, -1, 298, 299, 290, -1,
 290, 299, 291, -1, 290, 291, 263, -1, 263, 291, 261, -1,
 263, 261, 262, -1, 356, 357, 352, -1, 352, 357, 353, -1,
 352, 353, 322, -1, 322, 353, 323, -1, 322, 323, 308, -1,
 308, 323, 309, -1, 308, 309, 296, -1, 296, 309, 297, -1,
 296, 297, 288, -1, 288, 297, 289, -1, 288, 289, 260, -1,
 100, 96, 97, -1, 97, 95, 100, -1, 100, 95, 99, -1,
 100, 99, 114, -1, 114, 99, 113, -1, 114, 113, 129, -1,
 106, 107, 96, -1, 96, 107, 105, -1, 105, 104, 96, -1,
 96, 104, 103, -1, 96, 103, 102, -1, 102, 101, 96, -1,
 96, 101, 98, -1, 96, 98, 97, -1, 115, 112, 106, -1,
 115, 106, 116, -1, 123, 121, 122, -1, 122, 121, 120, -1,
 122, 120, 106, -1, 106, 120, 117, -1, 106, 117, 116, -1,
 112, 111, 106, -1, 106, 111, 108, -1, 106, 108, 107, -1,
 289, 262, 260, -1, 260, 262, 261, -1, 260, 261, 234, -1,
 234, 261, 235, -1, 234, 235, 212, -1, 212, 235, 213, -1,
 212, 213, 190, -1, 190, 213, 191, -1, 190, 191, 176, -1,
 176, 191, 177, -1, 176, 177, 142, -1, 142, 177, 143, -1,
 142, 143, 138, -1, 138, 143, 139, -1, 138, 139, 134, -1,
 134, 139, 135, -1, 134, 135, 130, -1, 130, 135, 131, -1,
 130, 131, 128, -1, 128, 131, 129, -1, 128, 129, 127, -1,
 127, 129, 113, -1, 99, 95, 66, -1, 70, 68, 60, -1,
 60, 68, 57, -1, 60, 57, 52, -1, 52, 57, 51, -1,
 52, 51, 46, -1, 46, 51, 45, -1, 46, 45, 40, -1,
 40, 45, 38, -1, 40, 38, 34, -1, 34, 38, 29, -1,
 29, 38, 32, -1, 29, 32, 23, -1, 23, 32, 26, -1,
 23, 26, 15, -1, 66, 65, 99, -1, 99, 65, 57, -1,
 99, 57, 113, -1, 113, 57, 68, -1, 113, 68, 127, -1,
 2, 4, 21, -1, 21, 4, 6, -1, 21, 6, 26, -1,
 26, 6, 8, -1, 26, 8, 15, -1, 80, 84, 118, -1,
 77, 80, 119, -1, 119, 80, 118, -1, 119, 118, 137, -1,
 137, 118, 136, -1, 137, 136, 165, -1, 165, 136, 164, -1,
 86, 78, 81, -1, 81, 78, 68, -1, 81, 68, 70, -1,
 77, 78, 80, -1, 80, 78, 86, -1, 80, 86, 84, -1,
 86, 160, 84, -1, 84, 160, 152, -1, 272, 312, 304, -1,
 272, 304, 264, -1, 264, 304, 300, -1, 264, 300, 252, -1,
 252, 300, 292, -1, 252, 292, 240, -1, 240, 292, 284, -1,
 240, 284, 226, -1, 196, 182, 86, -1, 86, 182, 172, -1,
 86, 172, 160, -1, 312, 272, 316, -1, 316, 272, 280, -1,
 316, 280, 330, -1, 330, 280, 276, -1, 330, 276, 360, -1,
 360, 276, 268, -1, 360, 268, 364, -1, 364, 268, 256, -1,
 364, 256, 408, -1, 405, 394, 244, -1, 244, 394, 376, -1,
 244, 376, 368, -1, 244, 230, 405, -1, 405, 230, 222, -1,
 405, 222, 86, -1, 86, 222, 208, -1, 86, 208, 196, -1,
 152, 144, 84, -1, 84, 144, 148, -1, 84, 148, 118, -1,
 118, 148, 156, -1, 118, 156, 136, -1, 136, 156, 168, -1,
 136, 168, 164, -1, 164, 168, 178, -1, 164, 178, 186, -1,
 186, 178, 192, -1, 186, 192, 200, -1, 200, 192, 204, -1,
 200, 204, 214, -1, 214, 204, 218, -1, 214, 218, 236, -1,
 236, 218, 226, -1, 236, 226, 248, -1, 248, 226, 284, -1,
 461, 469, 473, -1, 473, 465, 461, -1, 461, 465, 457, -1,
 461, 457, 453, -1, 453, 408, 461, -1, 461, 408, 256, -1,
 461, 256, 386, -1, 386, 256, 244, -1, 386, 244, 374, -1,
 374, 244, 368, -1, 313, 312, 317, -1, 317, 312, 316, -1,
 317, 316, 331, -1, 331, 316, 330, -1, 331, 330, 356, -1,
 356, 330, 360, -1, 593, 594, 537, -1, 537, 594, 538, -1,
 537, 538, 477, -1, 477, 538, 478, -1, 477, 478, 454, -1,
 454, 478, 409, -1, 454, 409, 453, -1, 357, 356, 361, -1,
 361, 356, 360, -1, 361, 360, 365, -1, 365, 360, 364, -1,
 365, 364, 409, -1, 409, 364, 408, -1, 409, 408, 453, -1,
 387, 386, 375, -1, 375, 386, 374, -1, 375, 374, 369, -1,
 369, 374, 368, -1, 594, 593, 601, -1, 594, 601, 602, -1,
 602, 601, 609, -1, 602, 609, 610, -1, 610, 609, 617, -1,
 610, 617, 618, -1, 618, 617, 625, -1, 618, 625, 626, -1,
 626, 625, 621, -1, 626, 621, 622, -1, 622, 621, 613, -1,
 622, 613, 614, -1, 614, 613, 605, -1, 614, 605, 606, -1,
 606, 605, 597, -1, 606, 597, 598, -1, 598, 597, 589, -1,
 598, 589, 590, -1, 590, 589, 565, -1, 590, 565, 566, -1,
 566, 565, 533, -1, 566, 533, 534, -1, 585, 586, 581, -1,
 581, 586, 582, -1, 581, 582, 573, -1, 573, 582, 574, -1,
 573, 574, 561, -1, 561, 574, 562, -1, 561, 562, 553, -1,
 553, 562, 554, -1, 553, 554, 545, -1, 545, 554, 546, -1,
 545, 546, 529, -1, 529, 546, 530, -1, 529, 530, 521, -1,
 521, 530, 522, -1, 521, 522, 513, -1, 513, 522, 514, -1,
 513, 514, 505, -1, 505, 514, 506, -1, 505, 506, 497, -1,
 497, 506, 498, -1, 497, 498, 489, -1, 489, 498, 490, -1,
 489, 490, 481, -1, 481, 490, 482, -1, 596, 595, 603, -1,
 596, 603, 604, -1, 604, 603, 611, -1, 604, 611, 612, -1,
 612, 611, 619, -1, 612, 619, 620, -1, 620, 619, 627, -1,
 620, 627, 628, -1, 628, 627, 623, -1, 628, 623, 624, -1,
 624, 623, 615, -1, 624, 615, 616, -1, 616, 615, 607, -1,
 616, 607, 608, -1, 608, 607, 599, -1, 608, 599, 600, -1,
 600, 599, 591, -1, 600, 591, 592, -1, 592, 591, 567, -1,
 592, 567, 568, -1, 568, 567, 535, -1, 568, 535, 536, -1,
 587, 588, 583, -1, 583, 588, 584, -1, 583, 584, 575, -1,
 575, 584, 576, -1, 575, 576, 563, -1, 563, 576, 564, -1,
 563, 564, 555, -1, 555, 564, 556, -1, 555, 556, 547, -1,
 547, 556, 548, -1, 547, 548, 531, -1, 531, 548, 532, -1,
 531, 532, 523, -1, 523, 532, 524, -1, 523, 524, 515, -1,
 515, 524, 516, -1, 515, 516, 507, -1, 507, 516, 508, -1,
 507, 508, 499, -1, 499, 508, 500, -1, 499, 500, 491, -1,
 491, 500, 492, -1, 491, 492, 483, -1, 483, 492, 484, -1,
 165, 164, 186, -1, 165, 186, 187, -1, 187, 186, 200, -1,
 187, 200, 201, -1, 201, 200, 214, -1, 201, 214, 215, -1,
 215, 214, 236, -1, 215, 236, 237, -1, 237, 236, 248, -1,
 237, 248, 249, -1, 249, 248, 284, -1, 249, 284, 285, -1,
 285, 284, 292, -1, 285, 292, 293, -1, 293, 292, 300, -1,
 293, 300, 301, -1, 301, 300, 304, -1, 301, 304, 305, -1,
 305, 304, 312, -1, 305, 312, 313, -1, 536, 535, 382, -1,
 382, 535, 321, -1, 81, 70, 320, -1, 320, 70, 321, -1,
 70, 60, 61, -1, 380, 81, 381, -1, 381, 81, 320, -1,
 381, 320, 533, -1, 533, 320, 534, -1, 61, 71, 70, -1,
 70, 71, 74, -1, 70, 74, 321, -1, 321, 74, 383, -1,
 321, 383, 382, -1, 13, 14, 0, -1, 0, 14, 1, -1,
 167, 166, 188, -1, 167, 188, 189, -1, 189, 188, 202, -1,
 189, 202, 203, -1, 203, 202, 216, -1, 203, 216, 217, -1,
 217, 216, 238, -1, 217, 238, 239, -1, 239, 238, 250, -1,
 239, 250, 251, -1, 251, 250, 286, -1, 251, 286, 287, -1,
 287, 286, 294, -1, 287, 294, 295, -1, 295, 294, 302, -1,
 295, 302, 303, -1, 303, 302, 306, -1, 303, 306, 307, -1,
 307, 306, 314, -1, 307, 314, 315, -1, 455, 456, 411, -1,
 359, 358, 362, -1, 315, 314, 319, -1, 319, 314, 318, -1,
 319, 318, 333, -1, 333, 318, 332, -1, 333, 332, 363, -1,
 595, 596, 539, -1, 539, 596, 540, -1, 539, 540, 479, -1,
 479, 540, 480, -1, 479, 480, 410, -1, 332, 359, 363, -1,
 363, 359, 362, -1, 363, 362, 367, -1, 367, 362, 366, -1,
 367, 366, 411, -1, 411, 366, 410, -1, 411, 410, 455, -1,
 455, 410, 480, -1, 61, 60, 52, -1, 61, 52, 53, -1,
 53, 52, 46, -1, 53, 46, 47, -1, 47, 46, 40, -1,
 47, 40, 41, -1, 41, 40, 34, -1, 41, 34, 35, -1,
 35, 34, 29, -1, 35, 29, 30, -1, 30, 29, 23, -1,
 30, 23, 24, -1, 24, 23, 15, -1, 24, 15, 16, -1,
 16, 15, 8, -1, 16, 8, 9, -1, 9, 8, 6, -1,
 9, 6, 7, -1, 7, 6, 4, -1, 7, 4, 5, -1,
 0, 1, 2, -1, 2, 1, 3, -1, 2, 3, 4, -1,
 4, 3, 5, -1, 87, 175, 185, -1, 267, 255, 295, -1,
 185, 199, 87, -1, 87, 199, 211, -1, 87, 211, 406, -1,
 406, 211, 225, -1, 295, 255, 287, -1, 287, 255, 243, -1,
 287, 243, 251, -1, 251, 243, 229, -1, 251, 229, 239, -1,
 239, 229, 221, -1, 239, 221, 217, -1, 295, 303, 267, -1,
 267, 303, 307, -1, 267, 307, 275, -1, 275, 307, 315, -1,
 275, 315, 283, -1, 283, 315, 319, -1, 283, 319, 279, -1,
 279, 319, 333, -1, 279, 333, 271, -1, 271, 333, 363, -1,
 271, 363, 259, -1, 217, 221, 203, -1, 203, 221, 207, -1,
 203, 207, 189, -1, 189, 207, 195, -1, 189, 195, 167, -1,
 167, 195, 181, -1, 167, 181, 141, -1, 141, 181, 171, -1,
 141, 171, 133, -1, 133, 171, 159, -1, 133, 159, 89, -1,
 89, 159, 151, -1, 89, 151, 85, -1, 151, 147, 85, -1,
 85, 147, 155, -1, 85, 155, 87, -1, 87, 155, 163, -1,
 87, 163, 175, -1, 259, 464, 247, -1, 247, 464, 389, -1,
 389, 373, 247, -1, 247, 373, 371, -1, 247, 371, 379, -1,
 225, 233, 406, -1, 406, 233, 247, -1, 406, 247, 397, -1,
 397, 247, 379, -1, 363, 367, 259, -1, 259, 367, 411, -1,
 259, 411, 464, -1, 464, 411, 456, -1, 464, 456, 460, -1,
 460, 468, 464, -1, 464, 468, 476, -1, 464, 476, 472, -1,
 320, 326, 534, -1, 534, 326, 336, -1, 534, 336, 340, -1,
 526, 594, 542, -1, 542, 594, 550, -1, 478, 309, 409, -1,
 409, 309, 323, -1, 409, 323, 365, -1, 262, 289, 328, -1,
 328, 289, 297, -1, 328, 297, 594, -1, 594, 297, 309, -1,
 594, 309, 538, -1, 538, 309, 478, -1, 365, 323, 361, -1,
 361, 323, 353, -1, 361, 353, 357, -1, 550, 594, 558, -1,
 558, 594, 602, -1, 558, 602, 570, -1, 570, 602, 610, -1,
 570, 610, 578, -1, 578, 610, 618, -1, 578, 618, 586, -1,
 526, 518, 594, -1, 594, 518, 510, -1, 594, 510, 328, -1,
 328, 510, 502, -1, 328, 502, 494, -1, 494, 486, 328, -1,
 328, 486, 482, -1, 328, 482, 334, -1, 334, 482, 490, -1,
 506, 346, 498, -1, 498, 346, 350, -1, 506, 514, 346, -1,
 346, 514, 534, -1, 346, 534, 342, -1, 342, 534, 340, -1,
 350, 348, 498, -1, 498, 348, 344, -1, 498, 344, 490, -1,
 490, 344, 338, -1, 490, 338, 334, -1, 514, 522, 534, -1,
 534, 522, 530, -1, 534, 530, 566, -1, 566, 530, 546, -1,
 566, 546, 590, -1, 590, 546, 554, -1, 590, 554, 598, -1,
 598, 554, 562, -1, 598, 562, 606, -1, 606, 562, 574, -1,
 606, 574, 614, -1, 614, 574, 582, -1, 614, 582, 622, -1,
 622, 582, 586, -1, 622, 586, 626, -1, 626, 586, 618, -1,
 327, 321, 535, -1, 298, 290, 495, -1, 343, 341, 535, -1,
 535, 341, 337, -1, 535, 337, 327, -1, 495, 290, 487, -1,
 487, 290, 263, -1, 487, 263, 483, -1, 535, 531, 523, -1,
 343, 535, 347, -1, 347, 535, 523, -1, 347, 523, 515, -1,
 298, 495, 310, -1, 310, 495, 503, -1, 310, 503, 324, -1,
 324, 503, 511, -1, 324, 511, 354, -1, 410, 511, 479, -1,
 479, 511, 519, -1, 479, 519, 539, -1, 539, 519, 527, -1,
 539, 527, 595, -1, 515, 507, 347, -1, 347, 507, 499, -1,
 347, 499, 351, -1, 351, 499, 349, -1, 410, 366, 511, -1,
 511, 366, 362, -1, 511, 362, 354, -1, 354, 362, 358, -1,
 583, 623, 587, -1, 587, 623, 627, -1, 587, 627, 579, -1,
 579, 627, 619, -1, 579, 619, 571, -1, 571, 619, 611, -1,
 571, 611, 559, -1, 559, 611, 603, -1, 559, 603, 551, -1,
 551, 603, 595, -1, 551, 595, 543, -1, 543, 595, 527, -1,
 531, 535, 547, -1, 547, 535, 567, -1, 547, 567, 555, -1,
 555, 567, 591, -1, 555, 591, 563, -1, 563, 591, 599, -1,
 563, 599, 575, -1, 575, 599, 607, -1, 575, 607, 583, -1,
 583, 607, 615, -1, 583, 615, 623, -1, 263, 329, 483, -1,
 483, 329, 335, -1, 483, 335, 491, -1, 491, 335, 339, -1,
 491, 339, 499, -1, 499, 339, 345, -1, 499, 345, 349, -1,
 344, 345, 338, -1, 338, 345, 339, -1, 338, 339, 334, -1,
 334, 339, 335, -1, 334, 335, 328, -1, 328, 335, 329, -1,
 262, 328, 263, -1, 263, 328, 329, -1, 184, 174, 135, -1,
 274, 282, 318, -1, 135, 174, 131, -1, 131, 174, 162, -1,
 131, 162, 129, -1, 318, 282, 332, -1, 129, 162, 114, -1,
 114, 162, 154, -1, 114, 154, 100, -1, 100, 154, 146, -1,
 100, 146, 96, -1, 96, 146, 106, -1, 106, 146, 150, -1,
 106, 150, 122, -1, 122, 150, 158, -1, 122, 158, 125, -1,
 318, 314, 274, -1, 274, 314, 306, -1, 274, 306, 266, -1,
 266, 306, 302, -1, 266, 302, 254, -1, 254, 302, 294, -1,
 254, 294, 242, -1, 242, 294, 286, -1, 242, 286, 228, -1,
 282, 278, 332, -1, 332, 278, 270, -1, 332, 270, 359, -1,
 258, 325, 270, -1, 270, 325, 355, -1, 270, 355, 359, -1,
 232, 291, 246, -1, 246, 291, 299, -1, 246, 299, 258, -1,
 258, 299, 311, -1, 258, 311, 325, -1, 210, 213, 224, -1,
 224, 213, 235, -1, 224, 235, 232, -1, 232, 235, 261, -1,
 232, 261, 291, -1, 135, 139, 184, -1, 184, 139, 143, -1,
 184, 143, 198, -1, 198, 143, 177, -1, 198, 177, 210, -1,
 210, 177, 191, -1, 210, 191, 213, -1, 286, 250, 228, -1,
 228, 250, 238, -1, 228, 238, 220, -1, 220, 238, 216, -1,
 220, 216, 206, -1, 206, 216, 202, -1, 206, 202, 194, -1,
 194, 202, 188, -1, 194, 188, 180, -1, 180, 188, 166, -1,
 180, 166, 170, -1, 170, 166, 140, -1, 170, 140, 158, -1,
 158, 140, 132, -1, 158, 132, 125, -1, 187, 126, 165, -1,
 165, 126, 137, -1, 78, 77, 126, -1, 126, 77, 119, -1,
 126, 119, 137, -1, 173, 183, 138, -1, 138, 183, 142, -1,
 142, 183, 197, -1, 142, 197, 176, -1, 219, 237, 227, -1,
 227, 237, 249, -1, 227, 249, 241, -1, 241, 249, 285, -1,
 241, 285, 253, -1, 253, 285, 293, -1, 253, 293, 265, -1,
 187, 193, 179, -1, 179, 169, 187, -1, 187, 169, 157, -1,
 187, 157, 126, -1, 126, 157, 149, -1, 293, 301, 265, -1,
 265, 301, 305, -1, 265, 305, 273, -1, 273, 305, 313, -1,
 273, 313, 281, -1, 281, 313, 317, -1, 281, 317, 277, -1,
 277, 317, 331, -1, 277, 331, 269, -1, 193, 187, 205, -1,
 205, 187, 201, -1, 205, 201, 219, -1, 219, 201, 215, -1,
 219, 215, 237, -1, 176, 197, 190, -1, 190, 197, 209, -1,
 190, 209, 212, -1, 212, 209, 223, -1, 212, 223, 234, -1,
 234, 223, 260, -1, 260, 223, 231, -1, 260, 231, 288, -1,
 288, 231, 245, -1, 288, 245, 296, -1, 149, 145, 126, -1,
 126, 145, 153, -1, 126, 153, 128, -1, 128, 153, 161, -1,
 128, 161, 130, -1, 130, 161, 173, -1, 130, 173, 134, -1,
 134, 173, 138, -1, 296, 245, 308, -1, 308, 245, 257, -1,
 308, 257, 322, -1, 322, 257, 269, -1, 322, 269, 352, -1,
 352, 269, 331, -1, 352, 331, 356, -1, 280, 281, 276, -1,
 276, 281, 277, -1, 276, 277, 268, -1, 268, 277, 269, -1,
 268, 269, 256, -1, 256, 269, 257, -1, 256, 257, 244, -1,
 244, 257, 245, -1, 244, 245, 230, -1, 230, 245, 231, -1,
 230, 231, 222, -1, 222, 231, 223, -1, 222, 223, 208, -1,
 208, 223, 209, -1, 208, 209, 196, -1, 196, 209, 197, -1,
 196, 197, 182, -1, 182, 197, 183, -1, 182, 183, 172, -1,
 172, 183, 173, -1, 172, 173, 160, -1, 160, 173, 161, -1,
 160, 161, 152, -1, 152, 161, 153, -1, 152, 153, 144, -1,
 144, 153, 145, -1, 282, 283, 278, -1, 278, 283, 279, -1,
 278, 279, 270, -1, 270, 279, 271, -1, 270, 271, 258, -1,
 258, 271, 259, -1, 258, 259, 246, -1, 246, 259, 247, -1,
 246, 247, 232, -1, 232, 247, 233, -1, 232, 233, 224, -1,
 224, 233, 225, -1, 224, 225, 210, -1, 210, 225, 211, -1,
 210, 211, 198, -1, 198, 211, 199, -1, 198, 199, 184, -1,
 184, 199, 185, -1, 184, 185, 174, -1, 174, 185, 175, -1,
 174, 175, 162, -1, 162, 175, 163, -1, 162, 163, 154, -1,
 154, 163, 155, -1, 154, 155, 146, -1, 146, 155, 147, -1,
 382, 393, 536, -1, 536, 393, 404, -1, 596, 604, 560, -1,
 560, 604, 572, -1, 572, 604, 612, -1, 572, 612, 580, -1,
 580, 612, 620, -1, 580, 620, 588, -1, 471, 520, 463, -1,
 463, 520, 512, -1, 463, 512, 388, -1, 475, 467, 480, -1,
 480, 467, 459, -1, 480, 459, 455, -1, 404, 419, 536, -1,
 536, 419, 430, -1, 536, 430, 516, -1, 560, 552, 596, -1,
 596, 552, 544, -1, 596, 544, 540, -1, 540, 544, 528, -1,
 540, 528, 480, -1, 480, 528, 520, -1, 480, 520, 475, -1,
 475, 520, 471, -1, 512, 504, 388, -1, 388, 504, 496, -1,
 388, 496, 372, -1, 372, 496, 488, -1, 372, 488, 370, -1,
 370, 488, 484, -1, 370, 484, 378, -1, 378, 484, 492, -1,
 378, 492, 396, -1, 396, 492, 500, -1, 396, 500, 423, -1,
 423, 500, 508, -1, 423, 508, 433, -1, 430, 442, 516, -1,
 516, 442, 451, -1, 516, 451, 508, -1, 508, 451, 445, -1,
 508, 445, 433, -1, 516, 524, 536, -1, 536, 524, 532, -1,
 536, 532, 568, -1, 568, 532, 548, -1, 568, 548, 592, -1,
 592, 548, 556, -1, 592, 556, 600, -1, 600, 556, 564, -1,
 600, 564, 608, -1, 608, 564, 576, -1, 608, 576, 616, -1,
 616, 576, 584, -1, 616, 584, 624, -1, 624, 584, 588, -1,
 624, 588, 628, -1, 628, 588, 620, -1, 413, 406, 397, -1,
 396, 423, 424, -1, 424, 413, 396, -1, 396, 413, 397, -1,
 396, 397, 378, -1, 378, 397, 379, -1, 378, 379, 370, -1,
 370, 379, 371, -1, 370, 371, 372, -1, 372, 371, 373, -1,
 372, 373, 388, -1, 388, 373, 389, -1, 463, 388, 464, -1,
 464, 388, 389, -1, 456, 455, 459, -1, 456, 459, 460, -1,
 460, 459, 467, -1, 460, 467, 468, -1, 468, 467, 475, -1,
 468, 475, 476, -1, 476, 475, 471, -1, 476, 471, 472, -1,
 472, 471, 463, -1, 472, 463, 464, -1, 442, 430, 429, -1,
 429, 431, 442, -1, 442, 431, 441, -1, 442, 441, 451, -1,
 451, 441, 446, -1, 451, 446, 452, -1, 404, 403, 419, -1,
 419, 403, 407, -1, 407, 417, 419, -1, 419, 417, 418, -1,
 419, 418, 430, -1, 430, 418, 420, -1, 430, 420, 429, -1,
 393, 382, 383, -1, 383, 385, 393, -1, 393, 385, 392, -1,
 393, 392, 404, -1, 404, 392, 399, -1, 404, 399, 403, -1,
 391, 381, 533, -1, 435, 447, 505, -1, 387, 375, 485, -1,
 529, 521, 533, -1, 533, 521, 513, -1, 438, 428, 513, -1,
 513, 428, 416, -1, 513, 416, 533, -1, 533, 416, 401, -1,
 533, 401, 391, -1, 505, 447, 513, -1, 513, 447, 449, -1,
 513, 449, 438, -1, 477, 517, 537, -1, 537, 517, 525, -1,
 537, 525, 593, -1, 485, 375, 481, -1, 481, 375, 369, -1,
 481, 369, 489, -1, 489, 369, 377, -1, 489, 377, 497, -1,
 497, 377, 395, -1, 497, 395, 505, -1, 505, 395, 422, -1,
 505, 422, 435, -1, 477, 454, 458, -1, 581, 621, 585, -1,
 585, 621, 625, -1, 585, 625, 577, -1, 577, 625, 617, -1,
 577, 617, 569, -1, 569, 617, 609, -1, 569, 609, 557, -1,
 557, 609, 601, -1, 557, 601, 549, -1, 549, 601, 593, -1,
 549, 593, 541, -1, 541, 593, 525, -1, 529, 533, 545, -1,
 545, 533, 565, -1, 545, 565, 553, -1, 553, 565, 589, -1,
 553, 589, 561, -1, 561, 589, 597, -1, 561, 597, 573, -1,
 573, 597, 605, -1, 573, 605, 581, -1, 581, 605, 613, -1,
 581, 613, 621, -1, 485, 493, 387, -1, 387, 493, 501, -1,
 387, 501, 462, -1, 462, 501, 509, -1, 462, 509, 470, -1,
 470, 509, 517, -1, 470, 517, 474, -1, 474, 517, 477, -1,
 474, 477, 466, -1, 466, 477, 458, -1, 461, 386, 462, -1,
 462, 386, 387, -1, 454, 453, 457, -1, 454, 457, 458, -1,
 458, 457, 465, -1, 458, 465, 466, -1, 466, 465, 473, -1,
 466, 473, 474, -1, 474, 473, 469, -1, 474, 469, 470, -1,
 470, 469, 461, -1, 470, 461, 462, -1, 380, 381, 384, -1,
 384, 381, 391, -1, 401, 398, 391, -1, 391, 398, 390, -1,
 391, 390, 384, -1, 415, 414, 416, -1, 416, 414, 402, -1,
 416, 402, 401, -1, 401, 402, 400, -1, 401, 400, 398, -1,
 415, 416, 425, -1, 425, 416, 428, -1, 425, 428, 427, -1,
 427, 428, 438, -1, 427, 438, 437, -1, 437, 438, 439, -1,
 439, 438, 449, -1, 439, 449, 448, -1, 448, 449, 450, -1,
 450, 449, 447, -1, 450, 447, 444, -1, 444, 447, 436, -1,
 436, 447, 435, -1, 436, 435, 434, -1, 434, 435, 422, -1,
 434, 422, 421, -1, 12, 22, 16, -1, 16, 22, 24, -1,
 24, 22, 28, -1, 24, 28, 30, -1, 7, 5, 3, -1,
 30, 28, 35, -1, 35, 28, 36, -1, 35, 36, 41, -1,
 41, 36, 42, -1, 41, 42, 47, -1, 47, 42, 49, -1,
 47, 49, 53, -1, 53, 49, 55, -1, 53, 55, 61, -1,
 61, 55, 71, -1, 71, 55, 63, -1, 71, 63, 69, -1,
 16, 9, 12, -1, 12, 9, 7, -1, 12, 7, 10, -1,
 10, 7, 3, -1, 74, 71, 87, -1, 87, 71, 69, -1,
 87, 69, 85, -1, 58, 62, 59, -1, 59, 62, 64, -1,
 59, 64, 69, -1, 69, 64, 67, -1, 69, 67, 85, -1,
 69, 63, 59, -1, 11, 14, 19, -1, 11, 19, 10, -1,
 10, 19, 12, -1, 12, 19, 20, -1, 12, 20, 22, -1,
 20, 25, 22, -1, 22, 25, 27, -1, 22, 27, 28, -1,
 27, 31, 28, -1, 28, 31, 33, -1, 28, 33, 36, -1,
 33, 37, 36, -1, 36, 37, 39, -1, 36, 39, 42, -1,
 39, 43, 42, -1, 42, 43, 44, -1, 42, 44, 49, -1,
 58, 59, 56, -1, 56, 59, 63, -1, 56, 63, 54, -1,
 54, 63, 55, -1, 54, 55, 50, -1, 50, 55, 49, -1,
 50, 49, 48, -1, 48, 49, 44, -1, 10, 3, 11, -1,
 11, 3, 1, -1, 11, 1, 14, -1, 68, 78, 127, -1,
 127, 78, 126, -1, 13, 0, 17, -1, 17, 0, 2, -1,
 17, 2, 18, -1, 18, 2, 21, -1, 74, 87, 406, -1,
 420, 418, 74, -1, 74, 418, 417, -1, 403, 399, 392, -1,
 441, 431, 74, -1, 74, 431, 429, -1, 74, 429, 420, -1,
 417, 407, 74, -1, 74, 407, 403, -1, 74, 403, 383, -1,
 383, 403, 392, -1, 383, 392, 385, -1, 406, 413, 74, -1,
 74, 413, 424, -1, 74, 424, 426, -1, 426, 432, 74, -1,
 74, 432, 440, -1, 74, 440, 443, -1, 443, 452, 74, -1,
 74, 452, 446, -1, 74, 446, 441, -1, 427, 437, 390, -1,
 405, 86, 412, -1, 412, 86, 81, -1, 412, 81, 421, -1,
 390, 437, 384, -1, 439, 81, 437, -1, 437, 81, 380, -1,
 437, 380, 384, -1, 439, 448, 81, -1, 81, 448, 450, -1,
 81, 450, 444, -1, 444, 436, 81, -1, 81, 436, 434, -1,
 81, 434, 421, -1, 390, 398, 400, -1, 402, 414, 400, -1,
 400, 414, 415, -1, 400, 415, 390, -1, 390, 415, 425, -1,
 390, 425, 427, -1, 124, 110, 123, -1, 123, 110, 121, -1,
 121, 110, 120, -1, 120, 110, 109, -1, 120, 109, 117, -1,
 117, 109, 94, -1, 117, 94, 116, -1, 116, 94, 93, -1,
 116, 93, 115, -1, 115, 93, 92, -1, 115, 92, 112, -1,
 112, 92, 91, -1, 112, 91, 111, -1, 111, 91, 108, -1,
 108, 91, 90, -1, 108, 90, 88, -1, 105, 107, 82, -1,
 82, 107, 108, -1, 82, 108, 83, -1, 83, 108, 88, -1,
 76, 103, 104, -1, 105, 82, 104, -1, 104, 82, 79, -1,
 104, 79, 76, -1, 73, 101, 102, -1, 103, 76, 102, -1,
 102, 76, 75, -1, 102, 75, 73, -1, 98, 101, 73, -1,
 95, 97, 66, -1, 66, 97, 98, -1, 66, 98, 72, -1,
 72, 98, 73, -1, 320, 321, 327, -1, 320, 327, 326, -1,
 326, 327, 337, -1, 326, 337, 336, -1, 336, 337, 341, -1,
 336, 341, 340, -1, 340, 341, 343, -1, 340, 343, 342, -1,
 342, 343, 347, -1, 342, 347, 346, -1, 346, 347, 351, -1,
 346, 351, 350, -1
]
normalIndex [
 303, 303, 280, -1, 303, 280, 280, -1, 280, 280, 241, -1,
 280, 241, 241, -1, 271, 258, 235, -1, 235, 258, 234, -1,
 235, 234, 212, -1, 212, 234, 218, -1, 212, 218, 212, -1,
 235, 272, 271, -1, 271, 272, 303, -1, 271, 303, 303, -1,
 303, 303, 269, -1, 269, 303, 269, -1, 269, 269, 231, -1,
 231, 269, 231, -1, 231, 231, 211, -1, 211, 231, 211, -1,
 211, 211, 191, -1, 191, 211, 191, -1, 191, 191, 177, -1,
 177, 191, 177, -1, 177, 177, 128, -1, 128, 177, 128, -1,
 128, 128, 83, -1, 83, 128, 83, -1, 83, 83, 41, -1,
 41, 83, 41, -1, 41, 41, 25, -1, 25, 41, 25, -1,
 25, 25, 16, -1, 16, 25, 16, -1, 16, 16, 10, -1,
 10, 16, 10, -1, 10, 10, 3, -1, 3, 10, 3, -1,
 3, 3, 0, -1, 0, 3, 0, -1, 303, 303, 269, -1,
 269, 303, 269, -1, 269, 269, 231, -1, 231, 269, 231, -1,
 231, 231, 211, -1, 211, 231, 211, -1, 211, 211, 191, -1,
 191, 211, 191, -1, 191, 191, 177, -1, 177, 191, 177, -1,
 177, 177, 128, -1, 128, 177, 128, -1, 128, 128, 83, -1,
 83, 128, 83, -1, 83, 83, 41, -1, 41, 83, 41, -1,
 41, 41, 25, -1, 25, 41, 25, -1, 25, 25, 16, -1,
 16, 25, 16, -1, 16, 16, 10, -1, 10, 16, 10, -1,
 10, 10, 3, -1, 3, 10, 3, -1, 3, 3, 0, -1,
 0, 3, 0, -1, 303, 303, 263, -1, 263, 303, 263, -1,
 263, 263, 226, -1, 226, 263, 226, -1, 226, 226, 205, -1,
 205, 226, 205, -1, 205, 205, 187, -1, 187, 205, 187, -1,
 187, 187, 163, -1, 163, 187, 163, -1, 163, 163, 108, -1,
 108, 163, 108, -1, 108, 108, 67, -1, 67, 108, 67, -1,
 67, 67, 28, -1, 28, 67, 28, -1, 28, 28, 19, -1,
 19, 28, 19, -1, 19, 19, 12, -1, 12, 19, 12, -1,
 12, 12, 5, -1, 5, 12, 5, -1, 5, 5, 0, -1,
 0, 5, 0, -1, 303, 303, 263, -1, 263, 303, 263, -1,
 263, 263, 226, -1, 226, 263, 226, -1, 226, 226, 205, -1,
 205, 226, 205, -1, 205, 205, 187, -1, 187, 205, 187, -1,
 187, 187, 163, -1, 163, 187, 163, -1, 163, 163, 108, -1,
 108, 163, 108, -1, 108, 108, 67, -1, 67, 108, 67, -1,
 67, 67, 28, -1, 28, 67, 28, -1, 28, 28, 19, -1,
 19, 28, 19, -1, 19, 19, 12, -1, 12, 19, 12, -1,
 12, 12, 5, -1, 5, 12, 5, -1, 5, 5, 0, -1,
 0, 5, 0, -1, 212, 212, 213, -1, 213, 212, 235, -1,
 213, 235, 223, -1, 303, 303, 272, -1, 272, 303, 272, -1,
 272, 272, 235, -1, 235, 272, 235, -1, 235, 235, 223, -1,
 80, 84, 85, -1, 143, 144, 147, -1, 143, 147, 154, -1,
 154, 147, 166, -1, 154, 166, 169, -1, 169, 166, 168, -1,
 169, 168, 170, -1, 170, 168, 173, -1, 170, 173, 173, -1,
 144, 143, 130, -1, 130, 143, 125, -1, 130, 125, 126, -1,
 126, 125, 118, -1, 118, 125, 113, -1, 118, 113, 114, -1,
 114, 113, 110, -1, 110, 113, 93, -1, 110, 93, 94, -1,
 85, 84, 93, -1, 93, 84, 89, -1, 93, 89, 94, -1,
 80, 85, 71, -1, 71, 85, 72, -1, 71, 72, 70, -1,
 70, 72, 65, -1, 70, 65, 69, -1, 69, 65, 64, -1,
 64, 65, 63, -1, 64, 63, 61, -1, 61, 60, 64, -1,
 64, 60, 59, -1, 64, 59, 58, -1, 58, 56, 64, -1,
 64, 56, 54, -1, 64, 54, 62, -1, 62, 54, 53, -1,
 62, 53, 48, -1, 47, 49, 48, -1, 48, 49, 50, -1,
 48, 50, 62, -1, 47, 46, 49, -1, 49, 46, 44, -1,
 49, 44, 42, -1, 39, 38, 35, -1, 35, 38, 37, -1,
 35, 37, 35, -1, 26, 26, 31, -1, 31, 26, 31, -1,
 31, 31, 34, -1, 34, 31, 34, -1, 34, 34, 35, -1,
 35, 34, 49, -1, 35, 49, 39, -1, 39, 49, 42, -1,
 238, 238, 236, -1, 245, 244, 243, -1, 243, 244, 243, -1,
 6, 6, 7, -1, 7, 6, 7, -1, 7, 7, 13, -1,
 13, 7, 13, -1, 13, 13, 17, -1, 17, 13, 17, -1,
 17, 17, 22, -1, 22, 17, 22, -1, 22, 22, 30, -1,
 30, 22, 30, -1, 30, 30, 43, -1, 43, 30, 52, -1,
 43, 52, 43, -1, 6, 6, 7, -1, 7, 6, 7, -1,
 7, 7, 13, -1, 13, 7, 13, -1, 13, 13, 17, -1,
 17, 13, 17, -1, 17, 17, 22, -1, 22, 17, 22, -1,
 22, 22, 30, -1, 30, 22, 30, -1, 30, 30, 52, -1,
 291, 298, 299, -1, 299, 300, 291, -1, 291, 300, 291, -1,
 291, 291, 261, -1, 261, 291, 261, -1, 261, 261, 236, -1,
 277, 276, 298, -1, 298, 276, 279, -1, 279, 281, 298, -1,
 298, 281, 285, -1, 298, 285, 286, -1, 286, 288, 298, -1,
 298, 288, 293, -1, 298, 293, 299, -1, 259, 265, 277, -1,
 259, 277, 257, -1, 245, 248, 244, -1, 244, 248, 250, -1,
 244, 250, 277, -1, 277, 250, 252, -1, 277, 252, 257, -1,
 265, 266, 277, -1, 277, 266, 274, -1, 277, 274, 276, -1,
 30, 43, 52, -1, 52, 43, 52, -1, 52, 52, 75, -1,
 75, 52, 75, -1, 75, 75, 97, -1, 97, 75, 97, -1,
 97, 97, 137, -1, 137, 97, 137, -1, 137, 137, 175, -1,
 175, 137, 175, -1, 175, 175, 181, -1, 181, 175, 181, -1,
 181, 181, 194, -1, 194, 181, 194, -1, 194, 194, 206, -1,
 206, 194, 206, -1, 206, 206, 216, -1, 216, 206, 216, -1,
 216, 216, 236, -1, 236, 216, 236, -1, 236, 236, 238, -1,
 238, 236, 261, -1, 104, 104, 104, -1, 104, 104, 104, -1,
 104, 104, 104, -1, 104, 104, 104, -1, 104, 104, 104, -1,
 104, 104, 104, -1, 104, 104, 104, -1, 104, 104, 104, -1,
 104, 104, 104, -1, 104, 104, 104, -1, 104, 104, 104, -1,
 104, 104, 104, -1, 104, 104, 104, -1, 104, 104, 104, -1,
 104, 104, 104, -1, 104, 104, 104, -1, 104, 104, 104, -1,
 104, 104, 104, -1, 104, 104, 104, -1, 104, 104, 104, -1,
 104, 104, 104, -1, 104, 104, 104, -1, 104, 104, 104, -1,
 104, 104, 104, -1, 104, 104, 104, -1, 55, 50, 36, -1,
 57, 55, 36, -1, 36, 55, 36, -1, 36, 36, 32, -1,
 32, 36, 32, -1, 32, 32, 26, -1, 26, 32, 26, -1,
 1, 1, 1, -1, 1, 1, 1, -1, 1, 1, 1, -1,
 1, 1, 1, -1, 1, 1, 1, -1, 1, 1, 1, -1,
 104, 104, 104, -1, 104, 104, 104, -1, 104, 104, 104, -1,
 104, 104, 104, -1, 104, 104, 104, -1, 104, 104, 104, -1,
 104, 104, 104, -1, 104, 104, 104, -1, 104, 104, 104, -1,
 104, 104, 104, -1, 104, 104, 104, -1, 104, 104, 104, -1,
 104, 104, 104, -1, 104, 104, 104, -1, 104, 104, 104, -1,
 104, 104, 104, -1, 104, 104, 104, -1, 104, 104, 104, -1,
 104, 104, 104, -1, 104, 104, 104, -1, 104, 104, 104, -1,
 104, 104, 104, -1, 104, 104, 104, -1, 104, 104, 104, -1,
 104, 104, 104, -1, 104, 104, 104, -1, 104, 104, 104, -1,
 104, 104, 104, -1, 104, 104, 104, -1, 104, 104, 104, -1,
 104, 104, 104, -1, 104, 104, 104, -1, 104, 104, 104, -1,
 104, 104, 104, -1, 104, 104, 104, -1, 104, 104, 104, -1,
 104, 104, 104, -1, 104, 104, 104, -1, 104, 104, 104, -1,
 104, 104, 104, -1, 104, 104, 104, -1, 104, 104, 104, -1,
 104, 104, 104, -1, 104, 104, 104, -1, 104, 104, 104, -1,
 104, 104, 104, -1, 104, 104, 104, -1, 104, 104, 104, -1,
 104, 104, 104, -1, 104, 104, 104, -1, 104, 104, 104, -1,
 104, 104, 104, -1, 104, 104, 104, -1, 104, 104, 104, -1,
 104, 104, 104, -1, 104, 104, 104, -1, 104, 104, 104, -1,
 104, 104, 104, -1, 287, 287, 260, -1, 260, 287, 260, -1,
 260, 260, 242, -1, 242, 260, 242, -1, 242, 242, 232, -1,
 232, 242, 228, -1, 184, 184, 192, -1, 192, 184, 192, -1,
 192, 192, 197, -1, 197, 192, 197, -1, 197, 197, 201, -1,
 201, 197, 209, -1, 201, 209, 201, -1, 232, 232, 228, -1,
 228, 232, 228, -1, 228, 228, 214, -1, 214, 228, 214, -1,
 214, 214, 209, -1, 209, 214, 209, -1, 209, 209, 201, -1,
 237, 237, 275, -1, 275, 237, 275, -1, 275, 275, 303, -1,
 303, 275, 303, -1, 184, 184, 198, -1, 184, 198, 198, -1,
 198, 198, 219, -1, 198, 219, 219, -1, 219, 219, 251, -1,
 219, 251, 251, -1, 251, 251, 290, -1, 251, 290, 290, -1,
 290, 290, 289, -1, 290, 289, 289, -1, 289, 289, 247, -1,
 289, 247, 247, -1, 247, 247, 215, -1, 247, 215, 215, -1,
 215, 215, 196, -1, 215, 196, 196, -1, 196, 196, 180, -1,
 196, 180, 180, -1, 180, 180, 155, -1, 180, 155, 155, -1,
 155, 155, 108, -1, 155, 108, 108, -1, 0, 0, 4, -1,
 4, 0, 4, -1, 4, 4, 11, -1, 11, 4, 11, -1,
 11, 11, 18, -1, 18, 11, 18, -1, 18, 18, 27, -1,
 27, 18, 27, -1, 27, 27, 66, -1, 66, 27, 66, -1,
 66, 66, 101, -1, 101, 66, 101, -1, 101, 101, 162, -1,
 162, 101, 162, -1, 162, 162, 186, -1, 186, 162, 186, -1,
 186, 186, 204, -1, 204, 186, 204, -1, 204, 204, 225, -1,
 225, 204, 225, -1, 225, 225, 262, -1, 262, 225, 262, -1,
 262, 262, 303, -1, 303, 262, 303, -1, 184, 184, 198, -1,
 184, 198, 198, -1, 198, 198, 219, -1, 198, 219, 219, -1,
 219, 219, 251, -1, 219, 251, 251, -1, 251, 251, 290, -1,
 251, 290, 290, -1, 290, 290, 289, -1, 290, 289, 289, -1,
 289, 289, 247, -1, 289, 247, 247, -1, 247, 247, 215, -1,
 247, 215, 215, -1, 215, 215, 196, -1, 215, 196, 196, -1,
 196, 196, 180, -1, 196, 180, 180, -1, 180, 180, 155, -1,
 180, 155, 155, -1, 155, 155, 108, -1, 155, 108, 108, -1,
 0, 0, 4, -1, 4, 0, 4, -1, 4, 4, 11, -1,
 11, 4, 11, -1, 11, 11, 18, -1, 18, 11, 18, -1,
 18, 18, 27, -1, 27, 18, 27, -1, 27, 27, 66, -1,
 66, 27, 66, -1, 66, 66, 101, -1, 101, 66, 101, -1,
 101, 101, 162, -1, 162, 101, 162, -1, 162, 162, 186, -1,
 186, 162, 186, -1, 186, 186, 204, -1, 204, 186, 204, -1,
 204, 204, 225, -1, 225, 204, 225, -1, 225, 225, 262, -1,
 262, 225, 262, -1, 262, 262, 303, -1, 303, 262, 303, -1,
 26, 26, 51, -1, 26, 51, 51, -1, 51, 51, 79, -1,
 51, 79, 79, -1, 79, 79, 117, -1, 79, 117, 117, -1,
 117, 117, 158, -1, 117, 158, 158, -1, 158, 158, 179, -1,
 158, 179, 179, -1, 179, 179, 193, -1, 179, 193, 193, -1,
 193, 193, 208, -1, 193, 208, 208, -1, 208, 208, 224, -1,
 208, 224, 224, -1, 224, 224, 249, -1, 224, 249, 249, -1,
 249, 249, 287, -1, 249, 287, 287, -1, 108, 108, 108, -1,
 108, 108, 108, -1, 108, 108, 108, -1, 108, 108, 108, -1,
 108, 108, 108, -1, 108, 108, 108, -1, 108, 108, 108, -1,
 108, 108, 108, -1, 108, 108, 108, -1, 108, 108, 108, -1,
 108, 108, 108, -1, 108, 108, 108, -1, 108, 108, 108, -1,
 108, 108, 108, -1, 101, 101, 101, -1, 101, 101, 101, -1,
 26, 26, 51, -1, 26, 51, 51, -1, 51, 51, 79, -1,
 51, 79, 79, -1, 79, 79, 117, -1, 79, 117, 117, -1,
 117, 117, 158, -1, 117, 158, 158, -1, 158, 158, 179, -1,
 158, 179, 179, -1, 179, 179, 193, -1, 179, 193, 193, -1,
 193, 193, 208, -1, 193, 208, 208, -1, 208, 208, 224, -1,
 208, 224, 224, -1, 224, 224, 249, -1, 224, 249, 249, -1,
 249, 249, 287, -1, 249, 287, 287, -1, 201, 201, 209, -1,
 232, 232, 228, -1, 287, 287, 260, -1, 260, 287, 260, -1,
 260, 260, 242, -1, 242, 260, 242, -1, 242, 242, 228, -1,
 184, 184, 192, -1, 192, 184, 192, -1, 192, 192, 197, -1,
 197, 192, 197, -1, 197, 197, 209, -1, 242, 232, 228, -1,
 228, 232, 228, -1, 228, 228, 214, -1, 214, 228, 214, -1,
 214, 214, 209, -1, 209, 214, 209, -1, 209, 209, 201, -1,
 201, 209, 197, -1, 108, 108, 87, -1, 108, 87, 87, -1,
 87, 87, 73, -1, 87, 73, 73, -1, 73, 73, 68, -1,
 73, 68, 68, -1, 68, 68, 45, -1, 68, 45, 45, -1,
 45, 45, 33, -1, 45, 33, 33, -1, 33, 33, 29, -1,
 33, 29, 29, -1, 29, 29, 23, -1, 29, 23, 23, -1,
 23, 23, 21, -1, 23, 21, 21, -1, 21, 21, 20, -1,
 21, 20, 20, -1, 20, 20, 14, -1, 20, 14, 14, -1,
 0, 0, 0, -1, 0, 0, 0, -1, 0, 0, 0, -1,
 0, 0, 0, -1, 105, 105, 105, -1, 105, 105, 105, -1,
 105, 105, 105, -1, 105, 105, 105, -1, 105, 105, 105, -1,
 105, 105, 105, -1, 105, 105, 105, -1, 105, 105, 105, -1,
 105, 105, 105, -1, 105, 105, 105, -1, 105, 105, 105, -1,
 105, 105, 105, -1, 105, 105, 105, -1, 105, 105, 105, -1,
 105, 105, 105, -1, 105, 105, 105, -1, 105, 105, 105, -1,
 105, 105, 105, -1, 105, 105, 105, -1, 105, 105, 105, -1,
 105, 105, 105, -1, 105, 105, 105, -1, 105, 105, 105, -1,
 105, 105, 105, -1, 105, 105, 105, -1, 105, 105, 105, -1,
 105, 105, 105, -1, 105, 105, 105, -1, 105, 105, 105, -1,
 105, 105, 105, -1, 105, 105, 105, -1, 105, 105, 105, -1,
 105, 105, 105, -1, 105, 105, 105, -1, 105, 105, 105, -1,
 105, 105, 105, -1, 105, 105, 105, -1, 105, 105, 105, -1,
 105, 105, 105, -1, 105, 105, 105, -1, 105, 105, 105, -1,
 105, 105, 105, -1, 105, 105, 105, -1, 105, 105, 105, -1,
 105, 105, 105, -1, 105, 105, 105, -1, 105, 105, 105, -1,
 105, 105, 105, -1, 105, 105, 105, -1, 105, 105, 105, -1,
 105, 105, 105, -1, 105, 105, 105, -1, 105, 105, 105, -1,
 105, 105, 105, -1, 105, 105, 105, -1, 105, 105, 105, -1,
 105, 105, 105, -1, 105, 105, 105, -1, 105, 105, 105, -1,
 105, 105, 105, -1, 105, 105, 105, -1, 105, 105, 105, -1,
 105, 105, 105, -1, 105, 105, 105, -1, 105, 105, 105, -1,
 105, 105, 105, -1, 105, 105, 105, -1, 105, 105, 105, -1,
 105, 105, 105, -1, 105, 105, 105, -1, 105, 105, 105, -1,
 105, 105, 105, -1, 105, 105, 105, -1, 105, 105, 105, -1,
 105, 105, 105, -1, 105, 105, 105, -1, 105, 105, 105, -1,
 105, 105, 105, -1, 105, 105, 105, -1, 105, 105, 105, -1,
 105, 105, 105, -1, 105, 105, 105, -1, 105, 105, 105, -1,
 105, 105, 105, -1, 105, 105, 105, -1, 105, 105, 105, -1,
 105, 105, 105, -1, 105, 105, 105, -1, 105, 105, 105, -1,
 105, 105, 105, -1, 105, 105, 105, -1, 105, 105, 105, -1,
 105, 105, 105, -1, 105, 105, 105, -1, 105, 105, 105, -1,
 105, 105, 105, -1, 105, 105, 105, -1, 105, 105, 105, -1,
 105, 105, 105, -1, 105, 105, 105, -1, 105, 105, 105, -1,
 105, 105, 105, -1, 105, 105, 105, -1, 105, 105, 105, -1,
 105, 105, 105, -1, 105, 105, 105, -1, 105, 105, 105, -1,
 105, 105, 105, -1, 105, 105, 105, -1, 105, 105, 105, -1,
 105, 105, 105, -1, 105, 105, 105, -1, 105, 105, 105, -1,
 105, 105, 105, -1, 105, 105, 105, -1, 105, 105, 105, -1,
 105, 105, 105, -1, 105, 105, 105, -1, 105, 105, 105, -1,
 104, 104, 104, -1, 104, 104, 104, -1, 104, 104, 104, -1,
 104, 104, 104, -1, 104, 104, 104, -1, 104, 104, 104, -1,
 104, 104, 104, -1, 104, 104, 104, -1, 104, 104, 104, -1,
 104, 104, 104, -1, 104, 104, 104, -1, 104, 104, 104, -1,
 104, 104, 104, -1, 104, 104, 104, -1, 104, 104, 104, -1,
 104, 104, 104, -1, 104, 104, 104, -1, 104, 104, 104, -1,
 104, 104, 104, -1, 104, 104, 104, -1, 104, 104, 104, -1,
 104, 104, 104, -1, 104, 104, 104, -1, 104, 104, 104, -1,
 104, 104, 104, -1, 104, 104, 104, -1, 104, 104, 104, -1,
 104, 104, 104, -1, 104, 104, 104, -1, 104, 104, 104, -1,
 104, 104, 104, -1, 104, 104, 104, -1, 104, 104, 104, -1,
 104, 104, 104, -1, 104, 104, 104, -1, 104, 104, 104, -1,
 104, 104, 104, -1, 104, 104, 104, -1, 104, 104, 104, -1,
 104, 104, 104, -1, 104, 104, 104, -1, 104, 104, 104, -1,
 104, 104, 104, -1, 104, 104, 104, -1, 104, 104, 104, -1,
 104, 104, 104, -1, 104, 104, 104, -1, 104, 104, 104, -1,
 104, 104, 104, -1, 104, 104, 104, -1, 104, 104, 104, -1,
 104, 104, 104, -1, 104, 104, 104, -1, 104, 104, 104, -1,
 104, 104, 104, -1, 104, 104, 104, -1, 104, 104, 104, -1,
 104, 104, 104, -1, 104, 104, 104, -1, 104, 104, 104, -1,
 241, 241, 267, -1, 267, 241, 267, -1, 267, 267, 292, -1,
 292, 267, 292, -1, 292, 292, 297, -1, 297, 292, 297, -1,
 204, 204, 204, -1, 204, 204, 204, -1, 104, 104, 104, -1,
 104, 104, 104, -1, 104, 104, 104, -1, 104, 104, 104, -1,
 104, 104, 104, -1, 104, 104, 104, -1, 104, 104, 104, -1,
 104, 104, 104, -1, 104, 104, 104, -1, 104, 104, 104, -1,
 104, 104, 104, -1, 104, 104, 104, -1, 104, 104, 104, -1,
 104, 104, 104, -1, 104, 104, 104, -1, 104, 104, 104, -1,
 104, 104, 104, -1, 104, 104, 104, -1, 104, 104, 104, -1,
 104, 104, 104, -1, 104, 104, 104, -1, 104, 104, 104, -1,
 104, 104, 104, -1, 104, 104, 104, -1, 104, 104, 104, -1,
 104, 104, 104, -1, 104, 104, 104, -1, 104, 104, 104, -1,
 104, 104, 104, -1, 104, 104, 104, -1, 104, 104, 104, -1,
 104, 104, 104, -1, 104, 104, 104, -1, 104, 104, 104, -1,
 104, 104, 104, -1, 104, 104, 104, -1, 104, 104, 104, -1,
 104, 104, 104, -1, 104, 104, 104, -1, 104, 104, 104, -1,
 104, 104, 104, -1, 104, 104, 104, -1, 104, 104, 104, -1,
 104, 104, 104, -1, 104, 104, 104, -1, 104, 104, 104, -1,
 104, 104, 104, -1, 104, 104, 104, -1, 104, 104, 104, -1,
 104, 104, 104, -1, 104, 104, 104, -1, 104, 104, 104, -1,
 104, 104, 104, -1, 104, 104, 104, -1, 104, 104, 104, -1,
 104, 104, 104, -1, 104, 104, 104, -1, 104, 104, 104, -1,
 104, 104, 104, -1, 104, 104, 104, -1, 104, 104, 104, -1,
 104, 104, 104, -1, 104, 104, 104, -1, 105, 105, 105, -1,
 105, 105, 105, -1, 105, 105, 105, -1, 105, 105, 105, -1,
 105, 105, 105, -1, 105, 105, 105, -1, 105, 105, 105, -1,
 105, 105, 105, -1, 105, 105, 105, -1, 105, 105, 105, -1,
 105, 105, 105, -1, 105, 105, 105, -1, 105, 105, 105, -1,
 105, 105, 105, -1, 105, 105, 105, -1, 105, 105, 105, -1,
 105, 105, 105, -1, 105, 105, 105, -1, 105, 105, 105, -1,
 105, 105, 105, -1, 105, 105, 105, -1, 105, 105, 105, -1,
 105, 105, 105, -1, 105, 105, 105, -1, 105, 105, 105, -1,
 105, 105, 105, -1, 105, 105, 105, -1, 105, 105, 105, -1,
 105, 105, 105, -1, 105, 105, 105, -1, 105, 105, 105, -1,
 105, 105, 105, -1, 105, 105, 105, -1, 105, 105, 105, -1,
 105, 105, 105, -1, 105, 105, 105, -1, 105, 105, 105, -1,
 105, 105, 105, -1, 105, 105, 105, -1, 105, 105, 105, -1,
 105, 105, 105, -1, 105, 105, 105, -1, 105, 105, 105, -1,
 105, 105, 105, -1, 105, 105, 105, -1, 105, 105, 105, -1,
 105, 105, 105, -1, 105, 105, 105, -1, 105, 105, 105, -1,
 105, 105, 105, -1, 105, 105, 105, -1, 105, 105, 105, -1,
 105, 105, 105, -1, 105, 105, 105, -1, 105, 105, 105, -1,
 105, 105, 105, -1, 105, 105, 105, -1, 105, 105, 105, -1,
 105, 105, 105, -1, 105, 105, 105, -1, 0, 0, 2, -1,
 2, 0, 2, -1, 2, 2, 9, -1, 9, 2, 9, -1,
 9, 9, 15, -1, 15, 9, 15, -1, 15, 15, 24, -1,
 24, 15, 24, -1, 24, 24, 40, -1, 40, 24, 40, -1,
 40, 40, 82, -1, 82, 40, 82, -1, 82, 82, 127, -1,
 127, 82, 127, -1, 127, 127, 176, -1, 176, 127, 176, -1,
 176, 176, 190, -1, 190, 176, 190, -1, 190, 190, 210, -1,
 210, 190, 210, -1, 210, 210, 230, -1, 230, 210, 230, -1,
 230, 230, 268, -1, 268, 230, 268, -1, 268, 268, 303, -1,
 303, 268, 303, -1, 0, 0, 2, -1, 2, 0, 2, -1,
 2, 2, 9, -1, 9, 2, 9, -1, 9, 9, 15, -1,
 15, 9, 15, -1, 15, 15, 24, -1, 24, 15, 24, -1,
 24, 24, 40, -1, 40, 24, 40, -1, 40, 40, 82, -1,
 82, 40, 82, -1, 82, 82, 127, -1, 127, 82, 127, -1,
 127, 127, 176, -1, 176, 127, 176, -1, 176, 176, 190, -1,
 190, 176, 190, -1, 190, 190, 210, -1, 210, 190, 210, -1,
 210, 210, 230, -1, 230, 210, 230, -1, 230, 230, 268, -1,
 268, 230, 268, -1, 268, 268, 303, -1, 303, 268, 303, -1,
 105, 105, 105, -1, 105, 105, 105, -1, 105, 105, 105, -1,
 105, 105, 105, -1, 105, 105, 105, -1, 105, 105, 105, -1,
 105, 105, 105, -1, 105, 105, 105, -1, 105, 105, 105, -1,
 105, 105, 105, -1, 105, 105, 105, -1, 105, 105, 105, -1,
 105, 105, 105, -1, 105, 105, 105, -1, 105, 105, 105, -1,
 105, 105, 105, -1, 105, 105, 105, -1, 105, 105, 105, -1,
 105, 105, 105, -1, 105, 105, 105, -1, 105, 105, 105, -1,
 105, 105, 105, -1, 105, 105, 105, -1, 105, 105, 105, -1,
 105, 105, 105, -1, 105, 105, 105, -1, 105, 105, 105, -1,
 105, 105, 105, -1, 105, 105, 105, -1, 105, 105, 105, -1,
 105, 105, 105, -1, 105, 105, 105, -1, 105, 105, 105, -1,
 105, 105, 105, -1, 105, 105, 105, -1, 105, 105, 105, -1,
 105, 105, 105, -1, 105, 105, 105, -1, 105, 105, 105, -1,
 105, 105, 105, -1, 105, 105, 105, -1, 105, 105, 105, -1,
 105, 105, 105, -1, 105, 105, 105, -1, 105, 105, 105, -1,
 105, 105, 105, -1, 105, 105, 105, -1, 105, 105, 105, -1,
 105, 105, 105, -1, 105, 105, 105, -1, 105, 105, 105, -1,
 105, 105, 105, -1, 105, 105, 105, -1, 105, 105, 105, -1,
 105, 105, 105, -1, 105, 105, 105, -1, 105, 105, 105, -1,
 105, 105, 105, -1, 105, 105, 105, -1, 213, 223, 233, -1,
 233, 212, 212, -1, 212, 213, 233, -1, 233, 213, 233, -1,
 233, 233, 270, -1, 270, 233, 270, -1, 270, 270, 302, -1,
 302, 270, 302, -1, 302, 302, 278, -1, 278, 302, 278, -1,
 278, 278, 237, -1, 237, 278, 237, -1, 237, 237, 237, -1,
 237, 237, 237, -1, 201, 201, 222, -1, 201, 222, 222, -1,
 222, 222, 255, -1, 222, 255, 255, -1, 255, 255, 296, -1,
 255, 296, 296, -1, 296, 296, 282, -1, 296, 282, 282, -1,
 282, 282, 237, -1, 282, 237, 237, -1, 263, 226, 227, -1,
 227, 229, 263, -1, 263, 229, 264, -1, 263, 264, 303, -1,
 303, 264, 273, -1, 303, 273, 303, -1, 187, 188, 205, -1,
 205, 188, 189, -1, 189, 202, 205, -1, 205, 202, 203, -1,
 205, 203, 226, -1, 226, 203, 207, -1, 226, 207, 227, -1,
 163, 108, 108, -1, 108, 139, 163, -1, 163, 139, 161, -1,
 163, 161, 187, -1, 187, 161, 178, -1, 187, 178, 188, -1,
 104, 104, 104, -1, 104, 104, 104, -1, 104, 104, 104, -1,
 104, 104, 104, -1, 104, 104, 104, -1, 104, 104, 104, -1,
 104, 104, 104, -1, 104, 104, 104, -1, 104, 104, 104, -1,
 104, 104, 104, -1, 104, 104, 104, -1, 104, 104, 104, -1,
 104, 104, 104, -1, 104, 104, 104, -1, 104, 104, 104, -1,
 104, 104, 104, -1, 104, 104, 104, -1, 104, 104, 104, -1,
 104, 104, 104, -1, 104, 104, 104, -1, 104, 104, 104, -1,
 104, 104, 104, -1, 104, 104, 104, -1, 104, 104, 104, -1,
 104, 104, 104, -1, 104, 104, 104, -1, 104, 104, 104, -1,
 104, 104, 104, -1, 104, 104, 104, -1, 104, 104, 104, -1,
 104, 104, 104, -1, 104, 104, 104, -1, 104, 104, 104, -1,
 104, 104, 104, -1, 104, 104, 104, -1, 104, 104, 104, -1,
 104, 104, 104, -1, 104, 104, 104, -1, 104, 104, 104, -1,
 104, 104, 104, -1, 104, 104, 104, -1, 104, 104, 104, -1,
 104, 104, 104, -1, 104, 104, 104, -1, 104, 104, 104, -1,
 104, 104, 104, -1, 104, 104, 104, -1, 104, 104, 104, -1,
 104, 104, 104, -1, 104, 104, 104, -1, 104, 104, 104, -1,
 104, 104, 104, -1, 104, 104, 104, -1, 104, 104, 104, -1,
 104, 104, 104, -1, 104, 104, 104, -1, 104, 104, 104, -1,
 104, 104, 104, -1, 104, 104, 104, -1, 237, 237, 237, -1,
 237, 237, 237, -1, 201, 201, 222, -1, 201, 222, 222, -1,
 222, 222, 255, -1, 222, 255, 255, -1, 255, 255, 296, -1,
 255, 296, 296, -1, 296, 296, 282, -1, 296, 282, 282, -1,
 282, 282, 237, -1, 282, 237, 237, -1, 108, 108, 129, -1,
 129, 108, 159, -1, 182, 174, 159, -1, 159, 174, 160, -1,
 159, 160, 129, -1, 199, 195, 200, -1, 200, 195, 185, -1,
 200, 185, 182, -1, 182, 185, 183, -1, 182, 183, 174, -1,
 199, 200, 217, -1, 217, 200, 221, -1, 217, 221, 220, -1,
 220, 221, 253, -1, 220, 253, 254, -1, 254, 253, 256, -1,
 256, 253, 294, -1, 256, 294, 295, -1, 295, 294, 301, -1,
 301, 294, 283, -1, 301, 283, 284, -1, 284, 283, 246, -1,
 246, 283, 239, -1, 246, 239, 240, -1, 240, 239, 212, -1,
 240, 212, 212, -1, 105, 105, 105, -1, 105, 105, 105, -1,
 105, 105, 105, -1, 105, 105, 105, -1, 105, 105, 105, -1,
 105, 105, 105, -1, 105, 105, 105, -1, 105, 105, 105, -1,
 105, 105, 105, -1, 105, 105, 105, -1, 105, 105, 105, -1,
 105, 105, 105, -1, 105, 105, 105, -1, 105, 105, 105, -1,
 105, 105, 105, -1, 105, 105, 105, -1, 105, 105, 105, -1,
 105, 105, 105, -1, 105, 105, 105, -1, 105, 105, 105, -1,
 105, 105, 105, -1, 8, 8, 8, -1, 8, 8, 8, -1,
 8, 8, 8, -1, 8, 8, 8, -1, 8, 8, 8, -1,
 8, 8, 8, -1, 8, 8, 8, -1, 8, 8, 8, -1,
 74, 77, 76, -1, 149, 152, 141, -1, 149, 141, 146, -1,
 146, 141, 140, -1, 140, 141, 140, -1, 140, 140, 133, -1,
 140, 133, 133, -1, 133, 133, 131, -1, 133, 131, 123, -1,
 131, 123, 123, -1, 123, 123, 121, -1, 123, 121, 115, -1,
 121, 115, 115, -1, 115, 115, 111, -1, 115, 111, 109, -1,
 111, 109, 109, -1, 109, 109, 95, -1, 109, 95, 91, -1,
 78, 76, 81, -1, 81, 76, 77, -1, 81, 77, 86, -1,
 86, 77, 86, -1, 86, 86, 88, -1, 88, 86, 91, -1,
 88, 91, 91, -1, 91, 91, 95, -1, 103, 103, 103, -1,
 103, 103, 103, -1, 103, 103, 103, -1, 101, 101, 101, -1,
 101, 101, 101, -1, 102, 102, 102, -1, 102, 102, 102, -1,
 102, 102, 102, -1, 102, 102, 102, -1, 107, 107, 107, -1,
 107, 107, 107, -1, 107, 107, 107, -1, 107, 107, 107, -1,
 107, 107, 107, -1, 107, 107, 107, -1, 107, 107, 107, -1,
 107, 107, 107, -1, 107, 107, 107, -1, 107, 107, 107, -1,
 107, 107, 107, -1, 107, 107, 107, -1, 107, 107, 107, -1,
 107, 107, 107, -1, 107, 107, 107, -1, 107, 107, 107, -1,
 107, 107, 107, -1, 107, 107, 107, -1, 107, 107, 107, -1,
 107, 107, 107, -1, 107, 107, 107, -1, 106, 106, 106, -1,
 106, 106, 106, -1, 106, 106, 106, -1, 106, 106, 106, -1,
 106, 106, 106, -1, 106, 106, 106, -1, 106, 106, 106, -1,
 106, 106, 106, -1, 106, 106, 106, -1, 106, 106, 106, -1,
 106, 106, 106, -1, 106, 106, 106, -1, 106, 106, 106, -1,
 106, 106, 106, -1, 106, 106, 106, -1, 106, 106, 106, -1,
 106, 106, 106, -1, 106, 106, 106, -1, 106, 106, 106, -1,
 106, 106, 106, -1, 90, 98, 92, -1, 92, 98, 96, -1,
 96, 98, 99, -1, 99, 98, 100, -1, 99, 100, 112, -1,
 112, 100, 116, -1, 112, 116, 120, -1, 120, 116, 119, -1,
 120, 119, 122, -1, 122, 119, 124, -1, 122, 124, 132, -1,
 132, 124, 135, -1, 132, 135, 134, -1, 134, 135, 142, -1,
 142, 135, 136, -1, 142, 136, 138, -1, 151, 145, 150, -1,
 150, 145, 142, -1, 150, 142, 148, -1, 148, 142, 138, -1,
 164, 165, 153, -1, 151, 150, 153, -1, 153, 150, 157, -1,
 153, 157, 164, -1, 172, 172, 167, -1, 165, 164, 167, -1,
 167, 164, 171, -1, 167, 171, 172, -1, 156, 156, 156, -1,
 156, 156, 156, -1, 156, 156, 156, -1, 156, 156, 156, -1,
 156, 156, 156, -1, 108, 108, 163, -1, 108, 163, 163, -1,
 163, 163, 187, -1, 163, 187, 187, -1, 187, 187, 205, -1,
 187, 205, 205, -1, 205, 205, 226, -1, 205, 226, 226, -1,
 226, 226, 263, -1, 226, 263, 263, -1, 263, 263, 303, -1,
 263, 303, 303, -1
]
colorPerVertex FALSE
normalPerVertex TRUE
}
}
]
}
