#VRML V2.0 utf8
Transform {
children [
Shape {
appearance Appearance {
material Material {
ambientIntensity 1.000000
diffuseColor 1.000000 1.000000 1.000000
emissiveColor 0.210000 0.210000 0.210000
specularColor 0.880000 0.880000 0.880000
shininess 0.210000
transparency 0.000000
}
}
geometry IndexedFaceSet {
color Color {
color [
 1.000000 1.000000 1.000000
]
}
coord Coordinate {
point [
 -0.015000 0.001000 0.000000, -0.015000 0.017000 -0.000000, -0.015000 0.115000 0.000000, -0.015000 0.130000 0.000000, -0.014745 0.001000 -0.002756,
 -0.014745 0.001000 0.002756, -0.014745 0.017000 -0.002756, -0.014745 0.017000 0.002756, -0.014745 0.115000 -0.002756, -0.014745 0.115000 0.002756,
 -0.014745 0.130000 -0.002756, -0.014745 0.130000 0.002756, -0.013987 0.001000 -0.005419, -0.013987 0.001000 0.005419, -0.013987 0.017000 -0.005419,
 -0.013987 0.017000 0.005419, -0.013987 0.115000 -0.005419, -0.013987 0.115000 0.005419, -0.013987 0.130000 -0.005419, -0.013987 0.130000 0.005419,
 -0.012753 0.001000 -0.007896, -0.012753 0.001000 0.007896, -0.012753 0.017000 -0.007896, -0.012753 0.017000 0.007896, -0.012753 0.115000 -0.007896,
 -0.012753 0.115000 0.007896, -0.012753 0.130000 -0.007896, -0.012753 0.130000 0.007896, -0.012500 0.000000 0.000000, -0.012500 0.001000 0.000000,
 -0.012260 -0.000000 -0.002439, -0.012260 0.000000 0.002439, -0.012260 0.001000 -0.002439, -0.012260 0.001000 0.002439, -0.012000 0.020000 -0.000000,
 -0.011796 0.020000 -0.002205, -0.011796 0.020000 0.002205, -0.011550 0.120000 0.000000, -0.011550 0.130000 0.000000, -0.011548 -0.000000 -0.004784,
 -0.011548 0.000000 0.004784, -0.011548 0.001000 -0.004784, -0.011548 0.001000 0.004784, -0.011441 0.120000 -0.001584, -0.011441 0.120000 0.001584,
 -0.011441 0.130000 -0.001584, -0.011441 0.130000 0.001584, -0.011190 0.020000 -0.004335, -0.011190 0.020000 0.004335, -0.011085 0.001000 -0.010105,
 -0.011085 0.001000 0.010105, -0.011085 0.017000 -0.010105, -0.011085 0.017000 0.010105, -0.011085 0.115000 -0.010105, -0.011085 0.115000 0.010105,
 -0.011085 0.130000 -0.010105, -0.011085 0.130000 0.010105, -0.010393 -0.000000 -0.006945, -0.010393 0.000000 0.006945, -0.010393 0.001000 -0.006945,
 -0.010393 0.001000 0.006945, -0.010203 0.020000 -0.006317, -0.010203 0.020000 0.006317, -0.010000 -0.000000 0.000000, -0.010000 0.013500 0.000000,
 -0.009927 -0.000000 -0.001206, -0.009927 -0.000000 0.001206, -0.009927 0.013500 -0.001206, -0.009927 0.013500 0.001206, -0.009040 0.001000 -0.011970,
 -0.009040 0.001000 0.011970, -0.009040 0.017000 -0.011970, -0.009040 0.017000 0.011970, -0.009040 0.115000 -0.011970, -0.009040 0.115000 0.011970,
 -0.009040 0.130000 -0.011970, -0.009040 0.130000 0.011970, -0.009000 0.047000 0.000000, -0.009000 0.111536 0.000000, -0.008868 0.020000 -0.008084,
 -0.008868 0.020000 0.008084, -0.008847 0.111536 -0.001654, -0.008847 0.111536 0.001654, -0.008839 -0.000000 -0.008839, -0.008839 0.000000 0.008839,
 -0.008839 0.001000 -0.008839, -0.008839 0.001000 0.008839, -0.008738 0.047000 -0.002154, -0.008738 0.047000 0.002154, -0.008707 0.111536 -0.002145,
 -0.008707 0.111536 0.002145, -0.008392 0.111536 -0.003251, -0.008392 0.111536 0.003251, -0.007969 0.047000 -0.004183, -0.007969 0.047000 0.004183,
 -0.007937 0.111536 -0.004166, -0.007937 0.111536 0.004166, -0.007652 0.111536 -0.004738, -0.007652 0.111536 0.004738, -0.007232 0.020000 -0.009576,
 -0.007232 0.020000 0.009576, -0.007092 0.120000 -0.009116, -0.007092 0.120000 0.009116, -0.007092 0.130000 -0.009116, -0.007092 0.130000 0.009116,
 -0.006945 -0.000000 -0.010393, -0.006945 0.000000 0.010393, -0.006945 0.001000 -0.010393, -0.006945 0.001000 0.010393, -0.006737 0.047000 -0.005968,
 -0.006737 0.047000 0.005968, -0.006728 0.111536 -0.005962, -0.006728 0.111536 0.005962, -0.006686 0.001000 -0.013427, -0.006686 0.001000 0.013427,
 -0.006686 0.017000 -0.013427, -0.006686 0.017000 0.013427, -0.006686 0.115000 -0.013427, -0.006686 0.115000 0.013427, -0.006686 0.130000 -0.013427,
 -0.006686 0.130000 0.013427, -0.006651 0.111536 -0.006063, -0.006651 0.111536 0.006063, -0.006500 0.020000 0.000000, -0.006500 0.047000 0.000000,
 -0.006279 0.020000 -0.001682, -0.006279 0.020000 0.001682, -0.006279 0.047000 -0.001682, -0.006279 0.047000 0.001682, -0.006008 -0.000000 -0.007994,
 -0.006008 -0.000000 0.007994, -0.006008 0.013500 -0.007994, -0.006008 0.013500 0.007994, -0.005775 0.120000 -0.010003, -0.005775 0.120000 0.010003,
 -0.005775 0.130000 -0.010003, -0.005775 0.130000 0.010003, -0.005629 0.020000 -0.003250, -0.005629 0.020000 0.003250, -0.005629 0.047000 -0.003250,
 -0.005629 0.047000 0.003250, -0.005424 0.111536 -0.007182, -0.005424 0.111536 0.007182, -0.005349 0.020000 -0.010742, -0.005349 0.020000 0.010742,
 -0.005150 0.013500 0.000000, -0.005150 0.018800 0.000000, -0.005113 0.047000 -0.007407, -0.005113 0.047000 0.007407, -0.005098 0.111536 -0.007384,
 -0.005098 0.111536 0.007384, -0.005000 -0.000000 -0.008660, -0.005000 -0.000000 0.008660, -0.005000 0.013500 -0.008660, -0.005000 0.013500 0.008660,
 -0.004975 0.013500 -0.001333, -0.004975 0.013500 0.001333, -0.004975 0.018800 -0.001333, -0.004975 0.018800 0.001333, -0.004784 -0.000000 -0.011548,
 -0.004784 0.000000 0.011548, -0.004784 0.001000 -0.011548, -0.004784 0.001000 0.011548, -0.004596 0.020000 -0.004596, -0.004596 0.020000 0.004596,
 -0.004596 0.047000 -0.004596, -0.004596 0.047000 0.004596, -0.004460 0.013500 -0.002575, -0.004460 0.013500 0.002575, -0.004460 0.018800 -0.002575,
 -0.004460 0.018800 0.002575, -0.004349 0.120000 -0.010700, -0.004349 0.120000 0.010700, -0.004349 0.130000 -0.010700, -0.004349 0.130000 0.010700,
 -0.004105 0.001000 -0.014427, -0.004105 0.001000 0.014427, -0.004105 0.017000 -0.014427, -0.004105 0.017000 0.014427, -0.004105 0.115000 -0.014427,
 -0.004105 0.115000 0.014427, -0.004105 0.130000 -0.014427, -0.004105 0.130000 0.014427, -0.004012 0.111536 -0.008056, -0.004012 0.111536 0.008056,
 -0.003919 -0.000000 -0.009200, -0.003919 -0.000000 0.009200, -0.003919 0.013500 -0.009200, -0.003919 0.013500 0.009200, -0.003642 0.013500 -0.003642,
 -0.003642 0.013500 0.003642, -0.003642 0.018800 -0.003642, -0.003642 0.018800 0.003642, -0.003284 0.020000 -0.011542, -0.003284 0.020000 0.011542,
 -0.003250 0.020000 -0.005629, -0.003250 0.020000 0.005629, -0.003250 0.047000 -0.005629, -0.003250 0.047000 0.005629, -0.003191 0.047000 -0.008415,
 -0.003191 0.047000 0.008415, -0.003178 0.111536 -0.008380, -0.003178 0.111536 0.008380, -0.002575 0.013500 -0.004460, -0.002575 0.013500 0.004460,
 -0.002575 0.018800 -0.004460, -0.002575 0.018800 0.004460, -0.002463 0.111536 -0.008656, -0.002463 0.111536 0.008656, -0.002439 -0.000000 -0.012260,
 -0.002439 0.000000 0.012260, -0.002439 0.001000 -0.012260, -0.002439 0.001000 0.012260, -0.001682 0.020000 -0.006279, -0.001682 0.020000 0.006279,
 -0.001682 0.047000 -0.006279, -0.001682 0.047000 0.006279, -0.001384 0.001000 -0.014936, -0.001384 0.001000 0.014936, -0.001384 0.017000 -0.014936,
 -0.001384 0.017000 0.014936, -0.001384 0.115000 -0.014936, -0.001384 0.115000 0.014936, -0.001384 0.130000 -0.014936, -0.001384 0.130000 0.014936,
 -0.001333 0.013500 -0.004975, -0.001333 0.013500 0.004975, -0.001333 0.018800 -0.004975, -0.001333 0.018800 0.004975, -0.001107 0.020000 -0.011949,
 -0.001107 0.020000 0.011949, -0.001085 0.047000 -0.008934, -0.001085 0.047000 0.008934, -0.001081 0.111536 -0.008915, -0.001081 0.111536 0.008915,
 -0.000830 0.111536 -0.008962, -0.000830 0.111536 0.008962, -0.000000 -0.000000 -0.012500, -0.000000 0.000000 0.012500, -0.000000 0.001000 -0.012500,
 -0.000000 0.001000 0.012500, -0.000000 0.013500 -0.005150, 0.000000 0.013500 0.005150, -0.000000 0.018800 -0.005150, 0.000000 0.018800 0.005150,
 -0.000000 0.020000 -0.006500, -0.000000 0.020000 0.006500, -0.000000 0.047000 -0.006500, -0.000000 0.047000 0.006500, 0.000830 0.111536 -0.008962,
 0.000830 0.111536 0.008962, 0.001081 0.111536 -0.008915, 0.001081 0.111536 0.008915, 0.001085 0.047000 -0.008934, 0.001085 0.047000 0.008934,
 0.001107 0.020000 -0.011949, 0.001107 0.020000 0.011949, 0.001333 0.013500 -0.004975, 0.001333 0.013500 0.004975, 0.001333 0.018800 -0.004975,
 0.001333 0.018800 0.004975, 0.001384 0.001000 -0.014936, 0.001384 0.001000 0.014936, 0.001384 0.017000 -0.014936, 0.001384 0.017000 0.014936,
 0.001384 0.115000 -0.014936, 0.001384 0.115000 0.014936, 0.001384 0.130000 -0.014936, 0.001384 0.130000 0.014936, 0.001682 0.020000 -0.006279,
 0.001682 0.020000 0.006279, 0.001682 0.047000 -0.006279, 0.001682 0.047000 0.006279, 0.002439 -0.000000 -0.012260, 0.002439 0.000000 0.012260,
 0.002439 0.001000 -0.012260, 0.002439 0.001000 0.012260, 0.002463 0.111536 -0.008656, 0.002463 0.111536 0.008656, 0.002575 0.013500 -0.004460,
 0.002575 0.013500 0.004460, 0.002575 0.018800 -0.004460, 0.002575 0.018800 0.004460, 0.003178 0.111536 -0.008380, 0.003178 0.111536 0.008380,
 0.003191 0.047000 -0.008415, 0.003191 0.047000 0.008415, 0.003250 0.020000 -0.005629, 0.003250 0.020000 0.005629, 0.003250 0.047000 -0.005629,
 0.003250 0.047000 0.005629, 0.003284 0.020000 -0.011542, 0.003284 0.020000 0.011542, 0.003642 0.013500 -0.003642, 0.003642 0.013500 0.003642,
 0.003642 0.018800 -0.003642, 0.003642 0.018800 0.003642, 0.003919 -0.000000 -0.009200, 0.003919 -0.000000 0.009200, 0.003919 0.013500 -0.009200,
 0.003919 0.013500 0.009200, 0.004012 0.111536 -0.008056, 0.004012 0.111536 0.008056, 0.004105 0.001000 -0.014427, 0.004105 0.001000 0.014427,
 0.004105 0.017000 -0.014427, 0.004105 0.017000 0.014427, 0.004105 0.115000 -0.014427, 0.004105 0.115000 0.014427, 0.004105 0.130000 -0.014427,
 0.004105 0.130000 0.014427, 0.004349 0.120000 -0.010700, 0.004349 0.120000 0.010700, 0.004349 0.130000 -0.010700, 0.004349 0.130000 0.010700,
 0.004460 0.013500 -0.002575, 0.004460 0.013500 0.002575, 0.004460 0.018800 -0.002575, 0.004460 0.018800 0.002575, 0.004596 0.020000 -0.004596,
 0.004596 0.020000 0.004596, 0.004596 0.047000 -0.004596, 0.004596 0.047000 0.004596, 0.004784 -0.000000 -0.011548, 0.004784 0.000000 0.011548,
 0.004784 0.001000 -0.011548, 0.004784 0.001000 0.011548, 0.004975 0.013500 -0.001333, 0.004975 0.013500 0.001333, 0.004975 0.018800 -0.001333,
 0.004975 0.018800 0.001333, 0.005000 -0.000000 -0.008660, 0.005000 -0.000000 0.008660, 0.005000 0.013500 -0.008660, 0.005000 0.013500 0.008660,
 0.005098 0.111536 -0.007384, 0.005098 0.111536 0.007384, 0.005113 0.047000 -0.007407, 0.005113 0.047000 0.007407, 0.005150 0.013500 -0.000000,
 0.005150 0.018800 -0.000000, 0.005349 0.020000 -0.010742, 0.005349 0.020000 0.010742, 0.005424 0.111536 -0.007182, 0.005424 0.111536 0.007182,
 0.005629 0.020000 -0.003250, 0.005629 0.020000 0.003250, 0.005629 0.047000 -0.003250, 0.005629 0.047000 0.003250, 0.005775 0.120000 -0.010003,
 0.005775 0.120000 0.010003, 0.005775 0.130000 -0.010003, 0.005775 0.130000 0.010003, 0.006008 -0.000000 -0.007994, 0.006008 -0.000000 0.007994,
 0.006008 0.013500 -0.007994, 0.006008 0.013500 0.007994, 0.006279 0.020000 -0.001682, 0.006279 0.020000 0.001682, 0.006279 0.047000 -0.001682,
 0.006279 0.047000 0.001682, 0.006500 0.020000 0.000000, 0.006500 0.047000 0.000000, 0.006651 0.111536 -0.006063, 0.006651 0.111536 0.006063,
 0.006686 0.001000 -0.013427, 0.006686 0.001000 0.013427, 0.006686 0.017000 -0.013427, 0.006686 0.017000 0.013427, 0.006686 0.115000 -0.013427,
 0.006686 0.115000 0.013427, 0.006686 0.130000 -0.013427, 0.006686 0.130000 0.013427, 0.006728 0.111536 -0.005962, 0.006728 0.111536 0.005962,
 0.006737 0.047000 -0.005968, 0.006737 0.047000 0.005968, 0.006945 0.000000 -0.010393, 0.006945 0.000000 0.010393, 0.006945 0.001000 -0.010393,
 0.006945 0.001000 0.010393, 0.007092 0.120000 -0.009116, 0.007092 0.120000 0.009116, 0.007092 0.130000 -0.009116, 0.007092 0.130000 0.009116,
 0.007232 0.020000 -0.009576, 0.007232 0.020000 0.009576, 0.007652 0.111536 -0.004738, 0.007652 0.111536 0.004738, 0.007937 0.111536 -0.004166,
 0.007937 0.111536 0.004166, 0.007969 0.047000 -0.004183, 0.007969 0.047000 0.004183, 0.008392 0.111536 -0.003251, 0.008392 0.111536 0.003251,
 0.008707 0.111536 -0.002145, 0.008707 0.111536 0.002145, 0.008738 0.047000 -0.002154, 0.008738 0.047000 0.002154, 0.008839 0.000000 -0.008839,
 0.008839 0.000000 0.008839, 0.008839 0.001000 -0.008839, 0.008839 0.001000 0.008839, 0.008847 0.111536 -0.001654, 0.008847 0.111536 0.001654,
 0.008868 0.020000 -0.008084, 0.008868 0.020000 0.008084, 0.009000 0.047000 0.000000, 0.009000 0.111536 -0.000000, 0.009040 0.001000 -0.011970,
 0.009040 0.001000 0.011970, 0.009040 0.017000 -0.011970, 0.009040 0.017000 0.011970, 0.009040 0.115000 -0.011970, 0.009040 0.115000 0.011970,
 0.009040 0.130000 -0.011970, 0.009040 0.130000 0.011970, 0.009927 0.000000 -0.001206, 0.009927 0.000000 0.001206, 0.009927 0.013500 -0.001206,
 0.009927 0.013500 0.001206, 0.010000 0.000000 0.000000, 0.010000 0.013500 0.000000, 0.010203 0.020000 -0.006317, 0.010203 0.020000 0.006317,
 0.010393 0.000000 -0.006945, 0.010393 0.000000 0.006945, 0.010393 0.001000 -0.006945, 0.010393 0.001000 0.006945, 0.011085 0.001000 -0.010105,
 0.011085 0.001000 0.010105, 0.011085 0.017000 -0.010105, 0.011085 0.017000 0.010105, 0.011085 0.115000 -0.010105, 0.011085 0.115000 0.010105,
 0.011085 0.130000 -0.010105, 0.011085 0.130000 0.010105, 0.011190 0.020000 -0.004335, 0.011190 0.020000 0.004335, 0.011441 0.120000 -0.001584,
 0.011441 0.120000 0.001584, 0.011441 0.130000 -0.001584, 0.011441 0.130000 0.001584, 0.011548 0.000000 -0.004784, 0.011548 0.000000 0.004784,
 0.011548 0.001000 -0.004784, 0.011548 0.001000 0.004784, 0.011550 0.120000 0.000000, 0.011550 0.130000 0.000000, 0.011796 0.020000 -0.002205,
 0.011796 0.020000 0.002205, 0.012000 0.020000 0.000000, 0.012260 0.000000 -0.002439, 0.012260 0.000000 0.002439, 0.012260 0.001000 -0.002439,
 0.012260 0.001000 0.002439, 0.012500 0.000000 0.000000, 0.012500 0.001000 0.000000, 0.012753 0.001000 -0.007896, 0.012753 0.001000 0.007896,
 0.012753 0.017000 -0.007896, 0.012753 0.017000 0.007896, 0.012753 0.115000 -0.007896, 0.012753 0.115000 0.007896, 0.012753 0.130000 -0.007896,
 0.012753 0.130000 0.007896, 0.013987 0.001000 -0.005419, 0.013987 0.001000 0.005419, 0.013987 0.017000 -0.005419, 0.013987 0.017000 0.005419,
 0.013987 0.115000 -0.005419, 0.013987 0.115000 0.005419, 0.013987 0.130000 -0.005419, 0.013987 0.130000 0.005419, 0.014745 0.001000 -0.002756,
 0.014745 0.001000 0.002756, 0.014745 0.017000 -0.002756, 0.014745 0.017000 0.002756, 0.014745 0.115000 -0.002756, 0.014745 0.115000 0.002756,
 0.014745 0.130000 -0.002756, 0.014745 0.130000 0.002756, 0.015000 0.001000 0.000000, 0.015000 0.017000 0.000000, 0.015000 0.115000 0.000000,
 0.015000 0.130000 0.000000
]
}
normal Normal {
vector [
 -1.000000 0.000000 0.000000, -0.992703 0.000000 -0.120589, -0.992703 0.000000 0.120589, -0.990554 0.000000 -0.137124, -0.990554 0.000000 0.137124,
 -0.982973 0.000000 -0.183750, -0.982973 0.000000 0.183750, -0.980785 0.000000 -0.195090, -0.980785 0.000000 0.195090, -0.970973 0.000000 -0.239190,
 -0.970973 0.000000 0.239190, -0.970942 0.000000 -0.239316, -0.970942 0.000000 0.239316, -0.965926 0.000000 -0.258819, -0.965926 -0.000000 0.258819,
 -0.932472 0.000000 -0.361242, -0.932472 0.000000 0.361242, -0.923880 0.000000 -0.382683, -0.923880 0.000000 0.382683, -0.885456 0.000000 -0.464723,
 -0.885456 0.000000 0.464723, -0.885416 0.000000 -0.464800, -0.885416 0.000000 0.464800, -0.866025 0.000000 -0.500000, -0.866025 -0.000000 0.500000,
 -0.850217 0.000000 -0.526432, -0.850217 0.000000 0.526432, -0.831470 0.000000 -0.555570, -0.831470 0.000000 0.555570, -0.748511 0.000000 -0.663123,
 -0.748511 0.000000 0.663123, -0.748448 0.000000 -0.663194, -0.748448 0.000000 0.663194, -0.739009 0.000000 -0.673696, -0.739009 0.000000 0.673696,
 -0.707107 0.000000 -0.707107, -0.707107 -0.000000 0.707107, -0.707107 0.707107 -0.000000, -0.695067 0.707107 -0.129931, -0.695067 0.707107 0.129931,
 -0.659357 0.707107 -0.255436, -0.659357 0.707107 0.255436, -0.614030 0.000000 -0.789283, -0.614030 0.000000 0.789283, -0.602635 0.000000 -0.798017,
 -0.602635 0.000000 0.798017, -0.601194 0.707107 -0.372244, -0.601194 0.707107 0.372244, -0.600784 0.000000 -0.799411, -0.600784 0.000000 0.799411,
 -0.568189 0.000000 -0.822898, -0.568189 0.000000 0.822898, -0.568065 0.000000 -0.822984, -0.568065 0.000000 0.822984, -0.555570 0.000000 -0.831470,
 -0.555570 0.000000 0.831470, -0.522558 0.707107 -0.476375, -0.522558 0.707107 0.476375, -0.500000 -0.866025 0.000000, -0.500000 0.000000 -0.866025,
 -0.500000 -0.000000 0.866025, -0.491487 -0.866025 -0.091875, -0.491487 -0.866025 0.091875, -0.485486 -0.866025 -0.119595, -0.485486 -0.866025 0.119595,
 -0.466236 -0.866025 -0.180621, -0.466236 -0.866025 0.180621, -0.445738 0.000000 -0.895163, -0.445738 0.000000 0.895163, -0.442708 -0.866025 -0.232400,
 -0.442708 -0.866025 0.232400, -0.426127 0.707107 -0.564283, -0.426127 0.707107 0.564283, -0.425109 -0.866025 -0.263216, -0.425109 -0.866025 0.263216,
 -0.391918 0.000000 -0.920000, -0.391918 0.000000 0.920000, -0.382683 0.000000 -0.923880, -0.382683 0.000000 0.923880, -0.376524 0.000000 -0.926407,
 -0.376524 0.000000 0.926407, -0.374224 -0.866025 -0.331597, -0.374224 -0.866025 0.331597, -0.369504 -0.866025 -0.336848, -0.369504 -0.866025 0.336848,
 -0.354605 0.000000 -0.935016, -0.354605 0.000000 0.935016, -0.354577 0.000000 -0.935027, -0.354577 0.000000 0.935027, -0.315185 0.707107 -0.632976,
 -0.315185 0.707107 0.632976, -0.301317 -0.866025 -0.399009, -0.301317 -0.866025 0.399009, -0.284095 -0.866025 -0.411449, -0.284095 -0.866025 0.411449,
 -0.273663 0.000000 -0.961826, -0.273663 0.000000 0.961826, -0.258819 0.000000 -0.965926, -0.258819 -0.000000 0.965926, -0.222869 -0.866025 -0.447582,
 -0.222869 -0.866025 0.447582, -0.195090 0.000000 -0.980785, -0.195090 0.000000 0.980785, -0.193509 0.707107 -0.680113, -0.193509 0.707107 0.680113,
 -0.177288 -0.866025 -0.467514, -0.177288 -0.866025 0.467514, -0.136831 -0.866025 -0.480913, -0.136831 -0.866025 0.480913, -0.120537 0.000000 -0.992709,
 -0.120537 0.000000 0.992709, -0.120395 0.000000 -0.992726, -0.120395 0.000000 0.992726, -0.092268 0.000000 -0.995734, -0.092268 0.000000 0.995734,
 -0.065244 0.707107 -0.704090, -0.065244 0.707107 0.704090, -0.060198 -0.866025 -0.496363, -0.060198 -0.866025 0.496363, -0.046134 -0.866025 -0.497867,
 -0.046134 -0.866025 0.497867, 0.000000 -1.000000 0.000000, 0.000000 0.000000 -1.000000, 0.000000 -0.000000 1.000000, -0.000000 1.000000 0.000000,
 0.046134 -0.866025 -0.497867, 0.046134 -0.866025 0.497867, 0.060198 -0.866025 -0.496363, 0.060198 -0.866025 0.496363, 0.065244 0.707107 -0.704090,
 0.065244 0.707107 0.704090, 0.092268 0.000000 -0.995734, 0.092268 0.000000 0.995734, 0.120395 0.000000 -0.992726, 0.120395 0.000000 0.992726,
 0.120537 0.000000 -0.992709, 0.120537 0.000000 0.992709, 0.136831 -0.866025 -0.480913, 0.136831 -0.866025 0.480913, 0.177288 -0.866025 -0.467514,
 0.177288 -0.866025 0.467514, 0.193509 0.707107 -0.680113, 0.193509 0.707107 0.680113, 0.195090 0.000000 -0.980785, 0.195090 0.000000 0.980785,
 0.222869 -0.866025 -0.447582, 0.222869 -0.866025 0.447582, 0.258819 0.000000 -0.965926, 0.258819 -0.000000 0.965926, 0.273663 0.000000 -0.961826,
 0.273663 0.000000 0.961826, 0.284095 -0.866025 -0.411449, 0.284095 -0.866025 0.411449, 0.301317 -0.866025 -0.399009, 0.301317 -0.866025 0.399009,
 0.315185 0.707107 -0.632976, 0.315185 0.707107 0.632976, 0.354577 0.000000 -0.935027, 0.354577 0.000000 0.935027, 0.354605 0.000000 -0.935016,
 0.354605 0.000000 0.935016, 0.369504 -0.866025 -0.336848, 0.369504 -0.866025 0.336848, 0.374224 -0.866025 -0.331597, 0.374224 -0.866025 0.331597,
 0.376524 0.000000 -0.926407, 0.376524 0.000000 0.926407, 0.382683 0.000000 -0.923880, 0.382683 0.000000 0.923880, 0.391918 0.000000 -0.920000,
 0.391918 0.000000 0.920000, 0.425109 -0.866025 -0.263216, 0.425109 -0.866025 0.263216, 0.426127 0.707107 -0.564283, 0.426127 0.707107 0.564283,
 0.442708 -0.866025 -0.232400, 0.442708 -0.866025 0.232400, 0.445738 0.000000 -0.895163, 0.445738 0.000000 0.895163, 0.466236 -0.866025 -0.180621,
 0.466236 -0.866025 0.180621, 0.485486 -0.866025 -0.119595, 0.485486 -0.866025 0.119595, 0.491487 -0.866025 -0.091875, 0.491487 -0.866025 0.091875,
 0.500000 -0.866025 -0.000000, 0.500000 0.000000 -0.866025, 0.500000 -0.000000 0.866025, 0.522558 0.707107 -0.476375, 0.522558 0.707107 0.476375,
 0.555570 0.000000 -0.831470, 0.555570 0.000000 0.831470, 0.568065 0.000000 -0.822984, 0.568065 0.000000 0.822984, 0.568189 0.000000 -0.822898,
 0.568189 0.000000 0.822898, 0.600784 0.000000 -0.799411, 0.600784 0.000000 0.799411, 0.601194 0.707107 -0.372244, 0.601194 0.707107 0.372244,
 0.602635 0.000000 -0.798017, 0.602635 0.000000 0.798017, 0.614030 0.000000 -0.789283, 0.614030 0.000000 0.789283, 0.659357 0.707107 -0.255436,
 0.659357 0.707107 0.255436, 0.695067 0.707107 -0.129931, 0.695067 0.707107 0.129931, 0.707107 0.000000 -0.707107, 0.707107 -0.000000 0.707107,
 0.707107 0.707107 0.000000, 0.739009 0.000000 -0.673696, 0.739009 0.000000 0.673696, 0.748448 0.000000 -0.663194, 0.748448 0.000000 0.663194,
 0.748511 0.000000 -0.663123, 0.748511 0.000000 0.663123, 0.831470 0.000000 -0.555570, 0.831470 0.000000 0.555570, 0.850217 0.000000 -0.526432,
 0.850217 0.000000 0.526432, 0.866025 0.000000 -0.500000, 0.866025 -0.000000 0.500000, 0.885416 0.000000 -0.464800, 0.885416 0.000000 0.464800,
 0.885456 0.000000 -0.464723, 0.885456 0.000000 0.464723, 0.923880 0.000000 -0.382683, 0.923880 0.000000 0.382683, 0.932472 0.000000 -0.361242,
 0.932472 0.000000 0.361242, 0.965926 0.000000 -0.258819, 0.965926 -0.000000 0.258819, 0.970942 0.000000 -0.239316, 0.970942 0.000000 0.239316,
 0.970973 0.000000 -0.239190, 0.970973 0.000000 0.239190, 0.980785 0.000000 -0.195090, 0.980785 0.000000 0.195090, 0.982973 0.000000 -0.183750,
 0.982973 0.000000 0.183750, 0.990554 0.000000 -0.137124, 0.990554 0.000000 0.137124, 0.992703 0.000000 -0.120589, 0.992703 0.000000 0.120589,
 1.000000 0.000000 0.000000
]
}
coordIndex [
 37, 38, 44, -1, 44, 38, 46, -1, 146, 145, 157, -1,
 157, 145, 155, -1, 157, 155, 169, -1, 169, 155, 167, -1,
 169, 167, 191, -1, 191, 167, 189, -1, 191, 189, 205, -1,
 205, 189, 203, -1, 205, 203, 227, -1, 227, 203, 225, -1,
 227, 225, 243, -1, 243, 225, 241, -1, 243, 241, 259, -1,
 259, 241, 257, -1, 259, 257, 281, -1, 281, 257, 279, -1,
 281, 279, 295, -1, 295, 279, 293, -1, 295, 293, 317, -1,
 317, 293, 315, -1, 317, 315, 329, -1, 329, 315, 327, -1,
 329, 327, 340, -1, 340, 327, 339, -1, 422, 421, 420, -1,
 420, 421, 418, -1, 484, 485, 481, -1, 484, 481, 479, -1,
 479, 481, 473, -1, 479, 473, 471, -1, 471, 473, 465, -1,
 471, 465, 463, -1, 463, 465, 436, -1, 463, 436, 434, -1,
 434, 436, 416, -1, 434, 416, 414, -1, 414, 416, 372, -1,
 414, 372, 370, -1, 370, 372, 310, -1, 370, 310, 308, -1,
 308, 310, 268, -1, 308, 268, 266, -1, 266, 268, 224, -1,
 266, 224, 222, -1, 222, 224, 182, -1, 222, 182, 180, -1,
 180, 182, 120, -1, 180, 120, 118, -1, 118, 120, 76, -1,
 118, 76, 74, -1, 74, 76, 56, -1, 74, 56, 54, -1,
 54, 56, 27, -1, 54, 27, 25, -1, 25, 27, 19, -1,
 25, 19, 17, -1, 17, 19, 11, -1, 17, 11, 9, -1,
 9, 11, 3, -1, 9, 3, 2, -1, 484, 479, 408, -1,
 408, 479, 404, -1, 404, 479, 396, -1, 396, 479, 471, -1,
 396, 471, 394, -1, 394, 471, 390, -1, 390, 471, 463, -1,
 390, 463, 388, -1, 388, 463, 374, -1, 374, 463, 434, -1,
 374, 434, 364, -1, 364, 434, 414, -1, 364, 414, 344, -1,
 344, 414, 336, -1, 336, 414, 370, -1, 336, 370, 302, -1,
 302, 370, 284, -1, 284, 370, 308, -1, 284, 308, 278, -1,
 278, 308, 252, -1, 252, 308, 266, -1, 252, 266, 250, -1,
 250, 266, 222, -1, 250, 222, 236, -1, 236, 222, 234, -1,
 234, 222, 180, -1, 234, 180, 208, -1, 208, 180, 202, -1,
 202, 180, 118, -1, 202, 118, 184, -1, 184, 118, 150, -1,
 150, 118, 74, -1, 150, 74, 142, -1, 142, 74, 54, -1,
 142, 54, 122, -1, 122, 54, 112, -1, 112, 54, 25, -1,
 112, 25, 98, -1, 98, 25, 96, -1, 96, 25, 17, -1,
 96, 17, 92, -1, 92, 17, 90, -1, 90, 17, 9, -1,
 90, 9, 82, -1, 82, 9, 2, -1, 82, 2, 78, -1,
 408, 404, 407, -1, 407, 404, 398, -1, 404, 396, 398, -1,
 398, 396, 394, -1, 398, 394, 392, -1, 394, 390, 392, -1,
 392, 390, 388, -1, 392, 388, 376, -1, 376, 388, 374, -1,
 376, 374, 338, -1, 338, 374, 364, -1, 338, 364, 344, -1,
 344, 336, 338, -1, 338, 336, 302, -1, 338, 302, 286, -1,
 302, 284, 286, -1, 286, 284, 278, -1, 286, 278, 254, -1,
 254, 278, 252, -1, 254, 252, 232, -1, 232, 252, 250, -1,
 232, 250, 236, -1, 236, 234, 232, -1, 232, 234, 208, -1,
 232, 208, 200, -1, 150, 148, 184, -1, 184, 148, 200, -1,
 184, 200, 202, -1, 202, 200, 208, -1, 150, 142, 148, -1,
 148, 142, 122, -1, 148, 122, 110, -1, 122, 112, 110, -1,
 110, 112, 98, -1, 110, 98, 94, -1, 98, 96, 94, -1,
 94, 96, 92, -1, 94, 92, 88, -1, 78, 77, 82, -1,
 82, 77, 88, -1, 82, 88, 90, -1, 90, 88, 92, -1,
 361, 362, 360, -1, 361, 360, 358, -1, 358, 360, 348, -1,
 358, 348, 346, -1, 346, 348, 322, -1, 346, 322, 320, -1,
 320, 322, 290, -1, 320, 290, 288, -1, 288, 290, 272, -1,
 288, 272, 270, -1, 270, 272, 248, -1, 270, 248, 246, -1,
 246, 248, 216, -1, 246, 216, 214, -1, 214, 216, 198, -1,
 214, 198, 196, -1, 196, 198, 166, -1, 196, 166, 164, -1,
 164, 166, 140, -1, 164, 140, 138, -1, 138, 140, 128, -1,
 138, 128, 126, -1, 126, 128, 124, -1, 126, 124, 123, -1,
 34, 1, 7, -1, 34, 7, 36, -1, 36, 7, 15, -1,
 36, 15, 48, -1, 48, 15, 23, -1, 48, 23, 62, -1,
 62, 23, 52, -1, 62, 52, 80, -1, 80, 52, 72, -1,
 80, 72, 100, -1, 100, 72, 116, -1, 100, 116, 144, -1,
 144, 116, 178, -1, 144, 178, 194, -1, 194, 178, 220, -1,
 194, 220, 230, -1, 230, 220, 264, -1, 230, 264, 256, -1,
 256, 264, 306, -1, 256, 306, 292, -1, 292, 306, 368, -1,
 292, 368, 342, -1, 342, 368, 412, -1, 342, 412, 386, -1,
 386, 412, 432, -1, 386, 432, 406, -1, 406, 432, 461, -1,
 406, 461, 424, -1, 424, 461, 469, -1, 424, 469, 438, -1,
 438, 469, 477, -1, 438, 477, 450, -1, 450, 477, 483, -1,
 450, 483, 451, -1, 482, 483, 477, -1, 482, 477, 475, -1,
 475, 477, 469, -1, 475, 469, 467, -1, 467, 469, 461, -1,
 467, 461, 459, -1, 459, 461, 432, -1, 459, 432, 430, -1,
 430, 432, 412, -1, 430, 412, 410, -1, 410, 412, 368, -1,
 410, 368, 366, -1, 366, 368, 306, -1, 366, 306, 304, -1,
 304, 306, 264, -1, 304, 264, 262, -1, 262, 264, 220, -1,
 262, 220, 218, -1, 218, 220, 178, -1, 218, 178, 176, -1,
 176, 178, 116, -1, 176, 116, 114, -1, 114, 116, 72, -1,
 114, 72, 70, -1, 70, 72, 52, -1, 70, 52, 50, -1,
 50, 52, 23, -1, 50, 23, 21, -1, 21, 23, 15, -1,
 21, 15, 13, -1, 13, 15, 7, -1, 13, 7, 5, -1,
 5, 7, 1, -1, 5, 1, 0, -1, 456, 457, 455, -1,
 456, 455, 453, -1, 453, 455, 446, -1, 453, 446, 444, -1,
 444, 446, 428, -1, 444, 428, 426, -1, 426, 428, 402, -1,
 426, 402, 400, -1, 400, 402, 380, -1, 400, 380, 378, -1,
 378, 380, 326, -1, 378, 326, 324, -1, 324, 326, 276, -1,
 324, 276, 274, -1, 274, 276, 240, -1, 274, 240, 238, -1,
 238, 240, 212, -1, 238, 212, 210, -1, 210, 212, 162, -1,
 210, 162, 160, -1, 160, 162, 108, -1, 160, 108, 106, -1,
 106, 108, 86, -1, 106, 86, 84, -1, 84, 86, 60, -1,
 84, 60, 58, -1, 58, 60, 42, -1, 58, 42, 40, -1,
 40, 42, 33, -1, 40, 33, 31, -1, 31, 33, 29, -1,
 31, 29, 28, -1, 417, 452, 421, -1, 421, 452, 456, -1,
 421, 456, 418, -1, 106, 130, 152, -1, 106, 152, 160, -1,
 160, 152, 186, -1, 160, 186, 210, -1, 297, 323, 331, -1,
 331, 323, 377, -1, 331, 377, 353, -1, 83, 105, 129, -1,
 298, 332, 378, -1, 378, 332, 354, -1, 378, 354, 400, -1,
 377, 399, 353, -1, 353, 399, 425, -1, 353, 425, 417, -1,
 417, 425, 443, -1, 417, 443, 452, -1, 378, 324, 298, -1,
 298, 324, 274, -1, 298, 274, 186, -1, 186, 274, 238, -1,
 186, 238, 210, -1, 456, 453, 418, -1, 418, 453, 444, -1,
 418, 444, 354, -1, 354, 444, 426, -1, 354, 426, 400, -1,
 66, 31, 63, -1, 63, 31, 28, -1, 63, 28, 65, -1,
 106, 84, 130, -1, 130, 84, 58, -1, 130, 58, 66, -1,
 66, 58, 40, -1, 66, 40, 31, -1, 159, 209, 185, -1,
 185, 209, 237, -1, 185, 237, 297, -1, 297, 237, 273, -1,
 297, 273, 323, -1, 159, 185, 105, -1, 105, 185, 151, -1,
 105, 151, 129, -1, 28, 30, 65, -1, 65, 30, 39, -1,
 65, 39, 129, -1, 129, 39, 57, -1, 129, 57, 83, -1,
 28, 29, 32, -1, 28, 32, 30, -1, 30, 32, 41, -1,
 30, 41, 39, -1, 39, 41, 59, -1, 39, 59, 57, -1,
 57, 59, 85, -1, 57, 85, 83, -1, 83, 85, 107, -1,
 83, 107, 105, -1, 105, 107, 161, -1, 105, 161, 159, -1,
 159, 161, 211, -1, 159, 211, 209, -1, 209, 211, 239, -1,
 209, 239, 237, -1, 237, 239, 275, -1, 237, 275, 273, -1,
 273, 275, 325, -1, 273, 325, 323, -1, 323, 325, 379, -1,
 323, 379, 377, -1, 377, 379, 401, -1, 377, 401, 399, -1,
 399, 401, 427, -1, 399, 427, 425, -1, 425, 427, 445, -1,
 425, 445, 443, -1, 443, 445, 454, -1, 443, 454, 452, -1,
 452, 454, 457, -1, 452, 457, 456, -1, 239, 261, 275, -1,
 275, 261, 303, -1, 275, 303, 325, -1, 325, 303, 365, -1,
 325, 365, 379, -1, 379, 365, 409, -1, 379, 409, 401, -1,
 401, 409, 429, -1, 401, 429, 427, -1, 427, 429, 458, -1,
 427, 458, 445, -1, 445, 458, 466, -1, 445, 466, 454, -1,
 454, 466, 474, -1, 454, 474, 457, -1, 457, 474, 482, -1,
 457, 482, 455, -1, 455, 482, 475, -1, 455, 475, 446, -1,
 446, 475, 467, -1, 446, 467, 428, -1, 428, 467, 459, -1,
 428, 459, 402, -1, 402, 459, 430, -1, 402, 430, 380, -1,
 380, 430, 410, -1, 380, 410, 326, -1, 326, 410, 366, -1,
 326, 366, 276, -1, 276, 366, 304, -1, 276, 304, 240, -1,
 304, 262, 240, -1, 240, 262, 218, -1, 240, 218, 212, -1,
 212, 218, 176, -1, 212, 176, 162, -1, 162, 176, 114, -1,
 162, 114, 108, -1, 108, 114, 70, -1, 108, 70, 86, -1,
 86, 70, 50, -1, 86, 50, 60, -1, 60, 50, 21, -1,
 60, 21, 42, -1, 42, 21, 13, -1, 42, 13, 33, -1,
 33, 13, 5, -1, 33, 5, 29, -1, 29, 5, 0, -1,
 29, 0, 32, -1, 32, 0, 4, -1, 32, 4, 41, -1,
 41, 4, 12, -1, 41, 12, 59, -1, 59, 12, 20, -1,
 59, 20, 85, -1, 85, 20, 49, -1, 85, 49, 107, -1,
 107, 49, 69, -1, 107, 69, 161, -1, 161, 69, 113, -1,
 161, 113, 211, -1, 211, 113, 175, -1, 211, 175, 239, -1,
 239, 175, 217, -1, 239, 217, 261, -1, 0, 1, 6, -1,
 0, 6, 4, -1, 4, 6, 14, -1, 4, 14, 12, -1,
 12, 14, 22, -1, 12, 22, 20, -1, 20, 22, 51, -1,
 20, 51, 49, -1, 49, 51, 71, -1, 49, 71, 69, -1,
 69, 71, 115, -1, 69, 115, 113, -1, 113, 115, 177, -1,
 113, 177, 175, -1, 175, 177, 219, -1, 175, 219, 217, -1,
 217, 219, 263, -1, 217, 263, 261, -1, 261, 263, 305, -1,
 261, 305, 303, -1, 303, 305, 367, -1, 303, 367, 365, -1,
 365, 367, 411, -1, 365, 411, 409, -1, 409, 411, 431, -1,
 409, 431, 429, -1, 429, 431, 460, -1, 429, 460, 458, -1,
 458, 460, 468, -1, 458, 468, 466, -1, 466, 468, 476, -1,
 466, 476, 474, -1, 474, 476, 483, -1, 474, 483, 482, -1,
 451, 483, 476, -1, 451, 476, 449, -1, 449, 476, 468, -1,
 449, 468, 437, -1, 437, 468, 460, -1, 437, 460, 423, -1,
 423, 460, 431, -1, 423, 431, 405, -1, 405, 431, 411, -1,
 405, 411, 385, -1, 385, 411, 367, -1, 385, 367, 341, -1,
 341, 367, 305, -1, 341, 305, 291, -1, 291, 305, 263, -1,
 291, 263, 255, -1, 255, 263, 219, -1, 255, 219, 229, -1,
 229, 219, 177, -1, 229, 177, 193, -1, 193, 177, 115, -1,
 193, 115, 143, -1, 143, 115, 71, -1, 143, 71, 99, -1,
 99, 71, 51, -1, 99, 51, 79, -1, 79, 51, 22, -1,
 79, 22, 61, -1, 61, 22, 14, -1, 61, 14, 47, -1,
 47, 14, 6, -1, 47, 6, 35, -1, 35, 6, 1, -1,
 35, 1, 34, -1, 137, 47, 125, -1, 125, 47, 35, -1,
 125, 35, 123, -1, 123, 35, 34, -1, 123, 34, 126, -1,
 34, 36, 126, -1, 126, 36, 48, -1, 126, 48, 138, -1,
 138, 48, 62, -1, 138, 62, 164, -1, 269, 255, 245, -1,
 245, 255, 229, -1, 245, 229, 213, -1, 213, 229, 193, -1,
 213, 193, 195, -1, 193, 143, 195, -1, 195, 143, 99, -1,
 195, 99, 163, -1, 163, 99, 79, -1, 163, 79, 137, -1,
 137, 79, 61, -1, 137, 61, 47, -1, 319, 385, 287, -1,
 287, 385, 341, -1, 287, 341, 269, -1, 269, 341, 291, -1,
 269, 291, 255, -1, 288, 386, 320, -1, 320, 386, 406, -1,
 320, 406, 346, -1, 246, 256, 270, -1, 270, 256, 292, -1,
 270, 292, 288, -1, 288, 292, 342, -1, 288, 342, 386, -1,
 357, 437, 345, -1, 345, 437, 423, -1, 345, 423, 319, -1,
 319, 423, 405, -1, 319, 405, 385, -1, 406, 424, 346, -1,
 346, 424, 438, -1, 346, 438, 358, -1, 358, 438, 450, -1,
 358, 450, 361, -1, 361, 450, 451, -1, 361, 451, 357, -1,
 357, 451, 449, -1, 357, 449, 437, -1, 62, 80, 164, -1,
 164, 80, 100, -1, 164, 100, 196, -1, 196, 100, 144, -1,
 196, 144, 214, -1, 214, 144, 194, -1, 214, 194, 246, -1,
 246, 194, 230, -1, 246, 230, 256, -1, 123, 124, 127, -1,
 123, 127, 125, -1, 125, 127, 139, -1, 125, 139, 137, -1,
 137, 139, 165, -1, 137, 165, 163, -1, 163, 165, 197, -1,
 163, 197, 195, -1, 195, 197, 215, -1, 195, 215, 213, -1,
 213, 215, 247, -1, 213, 247, 245, -1, 245, 247, 271, -1,
 245, 271, 269, -1, 269, 271, 289, -1, 269, 289, 287, -1,
 287, 289, 321, -1, 287, 321, 319, -1, 319, 321, 347, -1,
 319, 347, 345, -1, 345, 347, 359, -1, 345, 359, 357, -1,
 357, 359, 362, -1, 357, 362, 361, -1, 248, 232, 216, -1,
 216, 232, 200, -1, 216, 200, 198, -1, 198, 200, 148, -1,
 198, 148, 166, -1, 166, 148, 110, -1, 166, 110, 140, -1,
 140, 110, 94, -1, 140, 94, 128, -1, 128, 94, 88, -1,
 128, 88, 124, -1, 124, 88, 77, -1, 124, 77, 127, -1,
 127, 77, 87, -1, 127, 87, 139, -1, 139, 87, 93, -1,
 139, 93, 165, -1, 165, 93, 109, -1, 165, 109, 197, -1,
 197, 109, 147, -1, 197, 147, 215, -1, 215, 147, 199, -1,
 215, 199, 247, -1, 199, 231, 247, -1, 247, 231, 253, -1,
 247, 253, 271, -1, 271, 253, 285, -1, 271, 285, 289, -1,
 289, 285, 337, -1, 289, 337, 321, -1, 321, 337, 375, -1,
 321, 375, 347, -1, 347, 375, 391, -1, 347, 391, 359, -1,
 359, 391, 397, -1, 359, 397, 362, -1, 362, 397, 407, -1,
 362, 407, 360, -1, 360, 407, 398, -1, 360, 398, 348, -1,
 348, 398, 392, -1, 348, 392, 322, -1, 322, 392, 376, -1,
 322, 376, 290, -1, 290, 376, 338, -1, 290, 338, 272, -1,
 272, 338, 286, -1, 272, 286, 248, -1, 248, 286, 254, -1,
 248, 254, 232, -1, 78, 81, 77, -1, 77, 81, 87, -1,
 81, 89, 87, -1, 87, 89, 91, -1, 87, 91, 93, -1,
 91, 95, 93, -1, 93, 95, 97, -1, 93, 97, 109, -1,
 109, 97, 111, -1, 109, 111, 147, -1, 147, 111, 121, -1,
 147, 121, 141, -1, 141, 149, 147, -1, 147, 149, 183, -1,
 147, 183, 199, -1, 183, 201, 199, -1, 199, 201, 207, -1,
 199, 207, 231, -1, 231, 207, 233, -1, 231, 233, 253, -1,
 253, 233, 235, -1, 253, 235, 249, -1, 249, 251, 253, -1,
 253, 251, 277, -1, 253, 277, 285, -1, 335, 337, 301, -1,
 301, 337, 285, -1, 301, 285, 283, -1, 283, 285, 277, -1,
 335, 343, 337, -1, 337, 343, 363, -1, 337, 363, 375, -1,
 363, 373, 375, -1, 375, 373, 387, -1, 375, 387, 391, -1,
 387, 389, 391, -1, 391, 389, 393, -1, 391, 393, 397, -1,
 408, 407, 403, -1, 403, 407, 397, -1, 403, 397, 395, -1,
 395, 397, 393, -1, 2, 8, 78, -1, 78, 8, 81, -1,
 81, 8, 89, -1, 89, 8, 16, -1, 89, 16, 91, -1,
 91, 16, 95, -1, 95, 16, 24, -1, 95, 24, 97, -1,
 97, 24, 111, -1, 111, 24, 53, -1, 111, 53, 121, -1,
 121, 53, 73, -1, 121, 73, 141, -1, 141, 73, 149, -1,
 149, 73, 117, -1, 149, 117, 183, -1, 183, 117, 201, -1,
 201, 117, 179, -1, 201, 179, 207, -1, 207, 179, 233, -1,
 233, 179, 221, -1, 233, 221, 235, -1, 235, 221, 265, -1,
 235, 265, 249, -1, 249, 265, 251, -1, 251, 265, 307, -1,
 251, 307, 277, -1, 277, 307, 283, -1, 283, 307, 369, -1,
 283, 369, 301, -1, 301, 369, 335, -1, 335, 369, 413, -1,
 335, 413, 343, -1, 343, 413, 433, -1, 343, 433, 363, -1,
 363, 433, 373, -1, 373, 433, 462, -1, 373, 462, 387, -1,
 387, 462, 389, -1, 389, 462, 470, -1, 389, 470, 393, -1,
 393, 470, 395, -1, 395, 470, 478, -1, 395, 478, 403, -1,
 403, 478, 484, -1, 403, 484, 408, -1, 2, 3, 10, -1,
 2, 10, 8, -1, 8, 10, 18, -1, 8, 18, 16, -1,
 16, 18, 26, -1, 16, 26, 24, -1, 24, 26, 55, -1,
 24, 55, 53, -1, 53, 55, 75, -1, 53, 75, 73, -1,
 73, 75, 119, -1, 73, 119, 117, -1, 117, 119, 181, -1,
 117, 181, 179, -1, 179, 181, 223, -1, 179, 223, 221, -1,
 221, 223, 267, -1, 221, 267, 265, -1, 265, 267, 309, -1,
 265, 309, 307, -1, 307, 309, 371, -1, 307, 371, 369, -1,
 369, 371, 415, -1, 369, 415, 413, -1, 413, 415, 435, -1,
 413, 435, 433, -1, 433, 435, 464, -1, 433, 464, 462, -1,
 462, 464, 472, -1, 462, 472, 470, -1, 470, 472, 480, -1,
 470, 480, 478, -1, 478, 480, 485, -1, 478, 485, 484, -1,
 56, 76, 104, -1, 435, 415, 383, -1, 314, 174, 224, -1,
 104, 76, 136, -1, 136, 76, 120, -1, 136, 120, 174, -1,
 174, 120, 182, -1, 174, 182, 224, -1, 46, 19, 104, -1,
 104, 19, 27, -1, 104, 27, 56, -1, 442, 481, 448, -1,
 448, 481, 485, -1, 448, 485, 441, -1, 416, 384, 372, -1,
 372, 384, 352, -1, 372, 352, 310, -1, 310, 352, 314, -1,
 310, 314, 268, -1, 268, 314, 224, -1, 173, 181, 135, -1,
 135, 181, 119, -1, 135, 119, 103, -1, 103, 119, 75, -1,
 383, 415, 351, -1, 351, 415, 371, -1, 351, 371, 313, -1,
 485, 480, 441, -1, 441, 480, 472, -1, 441, 472, 383, -1,
 383, 472, 464, -1, 383, 464, 435, -1, 75, 55, 103, -1,
 103, 55, 26, -1, 103, 26, 45, -1, 371, 309, 313, -1,
 313, 309, 267, -1, 313, 267, 173, -1, 173, 267, 223, -1,
 173, 223, 181, -1, 416, 436, 384, -1, 384, 436, 465, -1,
 384, 465, 442, -1, 442, 465, 473, -1, 442, 473, 481, -1,
 26, 18, 45, -1, 45, 18, 10, -1, 45, 10, 38, -1,
 38, 10, 3, -1, 38, 3, 46, -1, 46, 3, 11, -1,
 46, 11, 19, -1, 356, 420, 354, -1, 354, 420, 418, -1,
 419, 417, 422, -1, 422, 417, 421, -1, 419, 355, 417, -1,
 417, 355, 353, -1, 299, 297, 333, -1, 333, 297, 331, -1,
 333, 331, 355, -1, 355, 331, 353, -1, 299, 187, 297, -1,
 297, 187, 185, -1, 131, 129, 153, -1, 153, 129, 151, -1,
 153, 151, 187, -1, 187, 151, 185, -1, 131, 67, 129, -1,
 129, 67, 65, -1, 68, 66, 64, -1, 64, 66, 63, -1,
 64, 63, 67, -1, 67, 63, 65, -1, 68, 132, 66, -1,
 66, 132, 130, -1, 188, 186, 154, -1, 154, 186, 152, -1,
 154, 152, 132, -1, 132, 152, 130, -1, 188, 300, 186, -1,
 186, 300, 298, -1, 356, 354, 334, -1, 334, 354, 332, -1,
 334, 332, 300, -1, 300, 332, 298, -1, 420, 328, 422, -1,
 422, 328, 339, -1, 422, 339, 419, -1, 419, 339, 327, -1,
 419, 327, 355, -1, 300, 258, 334, -1, 334, 258, 280, -1,
 334, 280, 356, -1, 356, 280, 294, -1, 356, 294, 420, -1,
 420, 294, 316, -1, 420, 316, 328, -1, 327, 315, 355, -1,
 355, 315, 293, -1, 355, 293, 333, -1, 333, 293, 279, -1,
 333, 279, 299, -1, 299, 279, 257, -1, 299, 257, 187, -1,
 257, 241, 187, -1, 187, 241, 225, -1, 187, 225, 153, -1,
 153, 225, 203, -1, 153, 203, 131, -1, 131, 203, 189, -1,
 131, 189, 67, -1, 189, 167, 67, -1, 67, 167, 155, -1,
 67, 155, 64, -1, 64, 155, 145, -1, 64, 145, 68, -1,
 68, 145, 156, -1, 68, 156, 132, -1, 156, 168, 132, -1,
 132, 168, 190, -1, 132, 190, 154, -1, 154, 190, 204, -1,
 154, 204, 188, -1, 188, 204, 226, -1, 188, 226, 300, -1,
 300, 226, 242, -1, 300, 242, 258, -1, 340, 339, 330, -1,
 330, 339, 328, -1, 330, 328, 318, -1, 318, 328, 316, -1,
 318, 316, 296, -1, 296, 316, 294, -1, 296, 294, 282, -1,
 282, 294, 280, -1, 282, 280, 260, -1, 260, 280, 258, -1,
 260, 258, 244, -1, 244, 258, 242, -1, 244, 242, 228, -1,
 228, 242, 226, -1, 228, 226, 206, -1, 206, 226, 204, -1,
 206, 204, 192, -1, 192, 204, 190, -1, 192, 190, 170, -1,
 170, 190, 168, -1, 170, 168, 158, -1, 158, 168, 156, -1,
 158, 156, 146, -1, 146, 156, 145, -1, 296, 282, 206, -1,
 170, 158, 318, -1, 169, 191, 318, -1, 318, 191, 205, -1,
 318, 205, 227, -1, 227, 243, 318, -1, 318, 243, 259, -1,
 318, 259, 281, -1, 281, 295, 318, -1, 318, 295, 317, -1,
 318, 317, 330, -1, 330, 317, 329, -1, 330, 329, 340, -1,
 282, 260, 206, -1, 206, 260, 244, -1, 206, 244, 228, -1,
 296, 206, 318, -1, 318, 206, 192, -1, 318, 192, 170, -1,
 158, 146, 318, -1, 318, 146, 157, -1, 318, 157, 169, -1,
 312, 172, 314, -1, 314, 172, 174, -1, 102, 104, 134, -1,
 134, 104, 136, -1, 134, 136, 172, -1, 172, 136, 174, -1,
 102, 44, 104, -1, 104, 44, 46, -1, 43, 45, 37, -1,
 37, 45, 38, -1, 43, 101, 45, -1, 45, 101, 103, -1,
 171, 173, 133, -1, 133, 173, 135, -1, 133, 135, 101, -1,
 101, 135, 103, -1, 171, 311, 173, -1, 173, 311, 313, -1,
 381, 383, 349, -1, 349, 383, 351, -1, 349, 351, 311, -1,
 311, 351, 313, -1, 381, 439, 383, -1, 383, 439, 441, -1,
 440, 442, 447, -1, 447, 442, 448, -1, 447, 448, 439, -1,
 439, 448, 441, -1, 440, 382, 442, -1, 442, 382, 384, -1,
 312, 314, 350, -1, 350, 314, 352, -1, 350, 352, 382, -1,
 382, 352, 384, -1, 37, 44, 102, -1, 350, 382, 440, -1,
 133, 101, 350, -1, 350, 101, 43, -1, 350, 43, 37, -1,
 349, 311, 350, -1, 350, 311, 171, -1, 350, 171, 133, -1,
 312, 350, 172, -1, 172, 350, 37, -1, 172, 37, 134, -1,
 134, 37, 102, -1, 381, 349, 439, -1, 439, 349, 350, -1,
 439, 350, 447, -1, 447, 350, 440, -1
]
normalIndex [
 245, 245, 241, -1, 241, 245, 241, -1, 245, 245, 232, -1,
 232, 245, 232, -1, 232, 232, 222, -1, 222, 232, 222, -1,
 222, 222, 209, -1, 209, 222, 209, -1, 209, 209, 187, -1,
 187, 209, 187, -1, 187, 187, 148, -1, 148, 187, 148, -1,
 148, 148, 123, -1, 123, 148, 123, -1, 123, 123, 98, -1,
 98, 123, 98, -1, 98, 98, 60, -1, 60, 98, 60, -1,
 60, 60, 36, -1, 36, 60, 36, -1, 36, 36, 24, -1,
 24, 36, 24, -1, 24, 24, 14, -1, 14, 24, 14, -1,
 14, 14, 0, -1, 0, 14, 0, -1, 0, 0, 1, -1,
 1, 0, 1, -1, 245, 245, 240, -1, 245, 240, 240, -1,
 240, 240, 230, -1, 240, 230, 230, -1, 230, 230, 220, -1,
 230, 220, 220, -1, 220, 220, 212, -1, 220, 212, 212, -1,
 212, 212, 201, -1, 212, 201, 201, -1, 201, 201, 178, -1,
 201, 178, 178, -1, 178, 178, 150, -1, 178, 150, 150, -1,
 150, 150, 132, -1, 150, 132, 132, -1, 132, 132, 114, -1,
 132, 114, 114, -1, 114, 114, 96, -1, 114, 96, 96, -1,
 96, 96, 68, -1, 96, 68, 68, -1, 68, 68, 45, -1,
 68, 45, 45, -1, 45, 45, 34, -1, 45, 34, 34, -1,
 34, 34, 26, -1, 34, 26, 26, -1, 26, 26, 16, -1,
 26, 16, 16, -1, 16, 16, 6, -1, 16, 6, 6, -1,
 6, 6, 0, -1, 6, 0, 0, -1, 185, 184, 185, -1,
 185, 184, 184, -1, 184, 184, 182, -1, 182, 184, 180, -1,
 182, 180, 180, -1, 180, 180, 176, -1, 176, 180, 172, -1,
 176, 172, 172, -1, 172, 172, 164, -1, 164, 172, 162, -1,
 164, 162, 162, -1, 162, 162, 154, -1, 162, 154, 154, -1,
 154, 154, 152, -1, 152, 154, 146, -1, 152, 146, 146, -1,
 146, 146, 140, -1, 140, 146, 138, -1, 140, 138, 138, -1,
 138, 138, 128, -1, 128, 138, 126, -1, 128, 126, 126, -1,
 126, 126, 120, -1, 126, 120, 120, -1, 120, 120, 118, -1,
 118, 120, 108, -1, 118, 108, 108, -1, 108, 108, 106, -1,
 106, 108, 100, -1, 106, 100, 100, -1, 100, 100, 94, -1,
 94, 100, 92, -1, 94, 92, 92, -1, 92, 92, 84, -1,
 92, 84, 84, -1, 84, 84, 82, -1, 82, 84, 74, -1,
 82, 74, 74, -1, 74, 74, 70, -1, 70, 74, 66, -1,
 70, 66, 66, -1, 66, 66, 64, -1, 64, 66, 62, -1,
 64, 62, 62, -1, 62, 62, 58, -1, 62, 58, 58, -1,
 245, 240, 245, -1, 245, 240, 234, -1, 240, 236, 234, -1,
 234, 236, 230, -1, 234, 230, 226, -1, 230, 224, 226, -1,
 226, 224, 220, -1, 226, 220, 216, -1, 216, 220, 214, -1,
 216, 214, 193, -1, 193, 214, 212, -1, 193, 212, 201, -1,
 201, 195, 193, -1, 193, 195, 178, -1, 193, 178, 160, -1,
 178, 158, 160, -1, 160, 158, 150, -1, 160, 150, 136, -1,
 136, 150, 134, -1, 136, 134, 110, -1, 110, 134, 132, -1,
 110, 132, 114, -1, 114, 112, 110, -1, 110, 112, 96, -1,
 110, 96, 86, -1, 51, 53, 68, -1, 68, 53, 86, -1,
 68, 86, 88, -1, 88, 86, 96, -1, 51, 45, 53, -1,
 53, 45, 34, -1, 53, 34, 30, -1, 34, 32, 30, -1,
 30, 32, 26, -1, 30, 26, 20, -1, 26, 22, 20, -1,
 20, 22, 16, -1, 20, 16, 12, -1, 0, 0, 6, -1,
 6, 0, 12, -1, 6, 12, 10, -1, 10, 12, 16, -1,
 245, 245, 232, -1, 245, 232, 232, -1, 232, 232, 222, -1,
 232, 222, 222, -1, 222, 222, 209, -1, 222, 209, 209, -1,
 209, 209, 187, -1, 209, 187, 187, -1, 187, 187, 148, -1,
 187, 148, 148, -1, 148, 148, 123, -1, 148, 123, 123, -1,
 123, 123, 98, -1, 123, 98, 98, -1, 98, 98, 60, -1,
 98, 60, 60, -1, 60, 60, 36, -1, 60, 36, 36, -1,
 36, 36, 24, -1, 36, 24, 24, -1, 24, 24, 14, -1,
 24, 14, 14, -1, 14, 14, 0, -1, 14, 0, 0, -1,
 37, 37, 39, -1, 37, 39, 39, -1, 39, 39, 41, -1,
 39, 41, 41, -1, 41, 41, 47, -1, 41, 47, 47, -1,
 47, 47, 57, -1, 47, 57, 57, -1, 57, 57, 72, -1,
 57, 72, 72, -1, 72, 72, 90, -1, 72, 90, 90, -1,
 90, 90, 104, -1, 90, 104, 104, -1, 104, 104, 116, -1,
 104, 116, 116, -1, 116, 116, 130, -1, 116, 130, 130, -1,
 130, 130, 142, -1, 130, 142, 142, -1, 142, 142, 156, -1,
 142, 156, 156, -1, 156, 156, 174, -1, 156, 174, 174, -1,
 174, 174, 189, -1, 174, 189, 189, -1, 189, 189, 199, -1,
 189, 199, 199, -1, 199, 199, 205, -1, 199, 205, 205, -1,
 205, 205, 207, -1, 205, 207, 207, -1, 207, 207, 210, -1,
 207, 210, 210, -1, 245, 245, 240, -1, 245, 240, 240, -1,
 240, 240, 230, -1, 240, 230, 230, -1, 230, 230, 220, -1,
 230, 220, 220, -1, 220, 220, 212, -1, 220, 212, 212, -1,
 212, 212, 201, -1, 212, 201, 201, -1, 201, 201, 178, -1,
 201, 178, 178, -1, 178, 178, 150, -1, 178, 150, 150, -1,
 150, 150, 132, -1, 150, 132, 132, -1, 132, 132, 114, -1,
 132, 114, 114, -1, 114, 114, 96, -1, 114, 96, 96, -1,
 96, 96, 68, -1, 96, 68, 68, -1, 68, 68, 45, -1,
 68, 45, 45, -1, 45, 45, 34, -1, 45, 34, 34, -1,
 34, 34, 26, -1, 34, 26, 26, -1, 26, 26, 16, -1,
 26, 16, 16, -1, 16, 16, 6, -1, 16, 6, 6, -1,
 6, 6, 0, -1, 6, 0, 0, -1, 245, 245, 238, -1,
 245, 238, 238, -1, 238, 238, 228, -1, 238, 228, 228, -1,
 228, 228, 218, -1, 228, 218, 218, -1, 218, 218, 209, -1,
 218, 209, 209, -1, 209, 209, 191, -1, 209, 191, 191, -1,
 191, 191, 168, -1, 191, 168, 168, -1, 168, 168, 144, -1,
 168, 144, 144, -1, 144, 144, 123, -1, 144, 123, 123, -1,
 123, 123, 102, -1, 123, 102, 102, -1, 102, 102, 78, -1,
 102, 78, 78, -1, 78, 78, 55, -1, 78, 55, 55, -1,
 55, 55, 36, -1, 55, 36, 36, -1, 36, 36, 28, -1,
 36, 28, 28, -1, 28, 28, 18, -1, 28, 18, 18, -1,
 18, 18, 8, -1, 18, 8, 8, -1, 8, 8, 0, -1,
 8, 0, 0, -1, 121, 121, 121, -1, 121, 121, 121, -1,
 121, 121, 121, -1, 121, 121, 121, -1, 121, 121, 121, -1,
 121, 121, 121, -1, 121, 121, 121, -1, 121, 121, 121, -1,
 121, 121, 121, -1, 121, 121, 121, -1, 121, 121, 121, -1,
 121, 121, 121, -1, 121, 121, 121, -1, 121, 121, 121, -1,
 121, 121, 121, -1, 121, 121, 121, -1, 121, 121, 121, -1,
 121, 121, 121, -1, 121, 121, 121, -1, 121, 121, 121, -1,
 121, 121, 121, -1, 121, 121, 121, -1, 121, 121, 121, -1,
 121, 121, 121, -1, 121, 121, 121, -1, 121, 121, 121, -1,
 121, 121, 121, -1, 121, 121, 121, -1, 121, 121, 121, -1,
 121, 121, 121, -1, 121, 121, 121, -1, 121, 121, 121, -1,
 121, 121, 121, -1, 121, 121, 121, -1, 121, 121, 121, -1,
 121, 121, 121, -1, 121, 121, 121, -1, 121, 121, 121, -1,
 121, 121, 121, -1, 121, 121, 121, -1, 121, 121, 121, -1,
 121, 121, 121, -1, 121, 121, 121, -1, 121, 121, 121, -1,
 121, 121, 121, -1, 121, 121, 121, -1, 121, 121, 121, -1,
 121, 121, 121, -1, 121, 121, 121, -1, 121, 121, 121, -1,
 0, 0, 7, -1, 0, 7, 7, -1, 7, 7, 17, -1,
 7, 17, 17, -1, 17, 17, 27, -1, 17, 27, 27, -1,
 27, 27, 35, -1, 27, 35, 35, -1, 35, 35, 54, -1,
 35, 54, 54, -1, 54, 54, 77, -1, 54, 77, 77, -1,
 77, 77, 101, -1, 77, 101, 101, -1, 101, 101, 122, -1,
 101, 122, 122, -1, 122, 122, 143, -1, 122, 143, 143, -1,
 143, 143, 167, -1, 143, 167, 167, -1, 167, 167, 190, -1,
 167, 190, 190, -1, 190, 190, 208, -1, 190, 208, 208, -1,
 208, 208, 217, -1, 208, 217, 217, -1, 217, 217, 227, -1,
 217, 227, 227, -1, 227, 227, 237, -1, 227, 237, 237, -1,
 237, 237, 245, -1, 237, 245, 245, -1, 121, 121, 121, -1,
 121, 121, 121, -1, 121, 121, 121, -1, 121, 121, 121, -1,
 121, 121, 121, -1, 121, 121, 121, -1, 121, 121, 121, -1,
 121, 121, 121, -1, 121, 121, 121, -1, 121, 121, 121, -1,
 121, 121, 121, -1, 121, 121, 121, -1, 121, 121, 121, -1,
 121, 121, 121, -1, 121, 121, 121, -1, 121, 121, 121, -1,
 121, 121, 121, -1, 121, 121, 121, -1, 121, 121, 121, -1,
 121, 121, 121, -1, 121, 121, 121, -1, 121, 121, 121, -1,
 121, 121, 121, -1, 121, 121, 121, -1, 121, 121, 121, -1,
 121, 121, 121, -1, 121, 121, 121, -1, 121, 121, 121, -1,
 121, 121, 121, -1, 121, 121, 121, -1, 121, 121, 121, -1,
 121, 121, 121, -1, 121, 121, 121, -1, 121, 121, 121, -1,
 121, 121, 121, -1, 121, 121, 121, -1, 121, 121, 121, -1,
 121, 121, 121, -1, 121, 121, 121, -1, 121, 121, 121, -1,
 121, 121, 121, -1, 121, 121, 121, -1, 121, 121, 121, -1,
 121, 121, 121, -1, 121, 121, 121, -1, 121, 121, 121, -1,
 121, 121, 121, -1, 121, 121, 121, -1, 121, 121, 121, -1,
 121, 121, 121, -1, 121, 121, 121, -1, 121, 121, 121, -1,
 121, 121, 121, -1, 121, 121, 121, -1, 121, 121, 121, -1,
 121, 121, 121, -1, 121, 121, 121, -1, 121, 121, 121, -1,
 121, 121, 121, -1, 121, 121, 121, -1, 121, 121, 121, -1,
 121, 121, 121, -1, 121, 121, 121, -1, 121, 121, 121, -1,
 121, 121, 121, -1, 121, 121, 121, -1, 0, 0, 5, -1,
 0, 5, 5, -1, 5, 5, 15, -1, 5, 15, 15, -1,
 15, 15, 25, -1, 15, 25, 25, -1, 25, 25, 33, -1,
 25, 33, 33, -1, 33, 33, 44, -1, 33, 44, 44, -1,
 44, 44, 67, -1, 44, 67, 67, -1, 67, 67, 95, -1,
 67, 95, 95, -1, 95, 95, 113, -1, 95, 113, 113, -1,
 113, 113, 131, -1, 113, 131, 131, -1, 131, 131, 149, -1,
 131, 149, 149, -1, 149, 149, 177, -1, 149, 177, 177, -1,
 177, 177, 200, -1, 177, 200, 200, -1, 200, 200, 211, -1,
 200, 211, 211, -1, 211, 211, 219, -1, 211, 219, 219, -1,
 219, 219, 229, -1, 219, 229, 229, -1, 229, 229, 239, -1,
 229, 239, 239, -1, 239, 239, 245, -1, 239, 245, 245, -1,
 210, 210, 206, -1, 210, 206, 206, -1, 206, 206, 204, -1,
 206, 204, 204, -1, 204, 204, 198, -1, 204, 198, 198, -1,
 198, 198, 188, -1, 198, 188, 188, -1, 188, 188, 173, -1,
 188, 173, 173, -1, 173, 173, 155, -1, 173, 155, 155, -1,
 155, 155, 141, -1, 155, 141, 141, -1, 141, 141, 129, -1,
 141, 129, 129, -1, 129, 129, 115, -1, 129, 115, 115, -1,
 115, 115, 103, -1, 115, 103, 103, -1, 103, 103, 89, -1,
 103, 89, 89, -1, 89, 89, 71, -1, 89, 71, 71, -1,
 71, 71, 56, -1, 71, 56, 56, -1, 56, 56, 46, -1,
 56, 46, 46, -1, 46, 46, 40, -1, 46, 40, 40, -1,
 40, 40, 38, -1, 40, 38, 38, -1, 38, 38, 37, -1,
 38, 37, 37, -1, 124, 124, 124, -1, 124, 124, 124, -1,
 124, 124, 124, -1, 124, 124, 124, -1, 124, 124, 124, -1,
 124, 124, 124, -1, 124, 124, 124, -1, 124, 124, 124, -1,
 124, 124, 124, -1, 124, 124, 124, -1, 124, 124, 124, -1,
 124, 124, 124, -1, 124, 124, 124, -1, 124, 124, 124, -1,
 124, 124, 124, -1, 124, 124, 124, -1, 124, 124, 124, -1,
 124, 124, 124, -1, 124, 124, 124, -1, 124, 124, 124, -1,
 124, 124, 124, -1, 124, 124, 124, -1, 124, 124, 124, -1,
 124, 124, 124, -1, 124, 124, 124, -1, 124, 124, 124, -1,
 124, 124, 124, -1, 124, 124, 124, -1, 124, 124, 124, -1,
 124, 124, 124, -1, 124, 124, 124, -1, 124, 124, 124, -1,
 124, 124, 124, -1, 124, 124, 124, -1, 124, 124, 124, -1,
 124, 124, 124, -1, 124, 124, 124, -1, 124, 124, 124, -1,
 124, 124, 124, -1, 124, 124, 124, -1, 124, 124, 124, -1,
 124, 124, 124, -1, 124, 124, 124, -1, 124, 124, 124, -1,
 124, 124, 124, -1, 124, 124, 124, -1, 124, 124, 124, -1,
 124, 124, 124, -1, 124, 124, 124, -1, 124, 124, 124, -1,
 124, 124, 124, -1, 124, 124, 124, -1, 124, 124, 124, -1,
 124, 124, 124, -1, 124, 124, 124, -1, 124, 124, 124, -1,
 124, 124, 124, -1, 124, 124, 124, -1, 0, 0, 13, -1,
 0, 13, 13, -1, 13, 13, 23, -1, 13, 23, 23, -1,
 23, 23, 35, -1, 23, 35, 35, -1, 35, 35, 59, -1,
 35, 59, 59, -1, 59, 59, 97, -1, 59, 97, 97, -1,
 97, 97, 122, -1, 97, 122, 122, -1, 122, 122, 147, -1,
 122, 147, 147, -1, 147, 147, 186, -1, 147, 186, 186, -1,
 186, 186, 208, -1, 186, 208, 208, -1, 208, 208, 221, -1,
 208, 221, 221, -1, 221, 221, 231, -1, 221, 231, 231, -1,
 231, 231, 245, -1, 231, 245, 245, -1, 121, 121, 121, -1,
 121, 121, 121, -1, 121, 121, 121, -1, 121, 121, 121, -1,
 121, 121, 121, -1, 121, 121, 121, -1, 121, 121, 121, -1,
 121, 121, 121, -1, 121, 121, 121, -1, 121, 121, 121, -1,
 121, 121, 121, -1, 121, 121, 121, -1, 121, 121, 121, -1,
 121, 121, 121, -1, 121, 121, 121, -1, 121, 121, 121, -1,
 121, 121, 121, -1, 121, 121, 121, -1, 121, 121, 121, -1,
 121, 121, 121, -1, 121, 121, 121, -1, 121, 121, 121, -1,
 121, 121, 121, -1, 121, 121, 121, -1, 121, 121, 121, -1,
 121, 121, 121, -1, 121, 121, 121, -1, 121, 121, 121, -1,
 121, 121, 121, -1, 121, 121, 121, -1, 121, 121, 121, -1,
 121, 121, 121, -1, 121, 121, 121, -1, 121, 121, 121, -1,
 121, 121, 121, -1, 121, 121, 121, -1, 121, 121, 121, -1,
 121, 121, 121, -1, 121, 121, 121, -1, 121, 121, 121, -1,
 121, 121, 121, -1, 121, 121, 121, -1, 121, 121, 121, -1,
 121, 121, 121, -1, 121, 121, 121, -1, 121, 121, 121, -1,
 121, 121, 121, -1, 121, 121, 121, -1, 121, 121, 121, -1,
 121, 121, 121, -1, 0, 5, 0, -1, 0, 5, 11, -1,
 5, 9, 11, -1, 11, 9, 15, -1, 11, 15, 19, -1,
 15, 21, 19, -1, 19, 21, 25, -1, 19, 25, 29, -1,
 29, 25, 31, -1, 29, 31, 52, -1, 52, 31, 33, -1,
 52, 33, 44, -1, 44, 50, 52, -1, 52, 50, 67, -1,
 52, 67, 85, -1, 67, 87, 85, -1, 85, 87, 95, -1,
 85, 95, 109, -1, 109, 95, 111, -1, 109, 111, 135, -1,
 135, 111, 113, -1, 135, 113, 131, -1, 131, 133, 135, -1,
 135, 133, 149, -1, 135, 149, 159, -1, 194, 192, 177, -1,
 177, 192, 159, -1, 177, 159, 157, -1, 157, 159, 149, -1,
 194, 200, 192, -1, 192, 200, 211, -1, 192, 211, 215, -1,
 211, 213, 215, -1, 215, 213, 219, -1, 215, 219, 225, -1,
 219, 223, 225, -1, 225, 223, 229, -1, 225, 229, 233, -1,
 245, 245, 239, -1, 239, 245, 233, -1, 239, 233, 235, -1,
 235, 233, 229, -1, 58, 61, 58, -1, 58, 61, 61, -1,
 61, 61, 63, -1, 63, 61, 65, -1, 63, 65, 65, -1,
 65, 65, 69, -1, 69, 65, 73, -1, 69, 73, 73, -1,
 73, 73, 81, -1, 81, 73, 83, -1, 81, 83, 83, -1,
 83, 83, 91, -1, 83, 91, 91, -1, 91, 91, 93, -1,
 93, 91, 99, -1, 93, 99, 99, -1, 99, 99, 105, -1,
 105, 99, 107, -1, 105, 107, 107, -1, 107, 107, 117, -1,
 117, 107, 119, -1, 117, 119, 119, -1, 119, 119, 125, -1,
 119, 125, 125, -1, 125, 125, 127, -1, 127, 125, 137, -1,
 127, 137, 137, -1, 137, 137, 139, -1, 139, 137, 145, -1,
 139, 145, 145, -1, 145, 145, 151, -1, 151, 145, 153, -1,
 151, 153, 153, -1, 153, 153, 161, -1, 153, 161, 161, -1,
 161, 161, 163, -1, 163, 161, 171, -1, 163, 171, 171, -1,
 171, 171, 175, -1, 175, 171, 179, -1, 175, 179, 179, -1,
 179, 179, 181, -1, 181, 179, 183, -1, 181, 183, 183, -1,
 183, 183, 185, -1, 183, 185, 185, -1, 0, 0, 5, -1,
 0, 5, 5, -1, 5, 5, 15, -1, 5, 15, 15, -1,
 15, 15, 25, -1, 15, 25, 25, -1, 25, 25, 33, -1,
 25, 33, 33, -1, 33, 33, 44, -1, 33, 44, 44, -1,
 44, 44, 67, -1, 44, 67, 67, -1, 67, 67, 95, -1,
 67, 95, 95, -1, 95, 95, 113, -1, 95, 113, 113, -1,
 113, 113, 131, -1, 113, 131, 131, -1, 131, 131, 149, -1,
 131, 149, 149, -1, 149, 149, 177, -1, 149, 177, 177, -1,
 177, 177, 200, -1, 177, 200, 200, -1, 200, 200, 211, -1,
 200, 211, 211, -1, 211, 211, 219, -1, 211, 219, 219, -1,
 219, 219, 229, -1, 219, 229, 229, -1, 229, 229, 239, -1,
 229, 239, 239, -1, 239, 239, 245, -1, 239, 245, 245, -1,
 124, 124, 124, -1, 124, 124, 124, -1, 124, 124, 124, -1,
 124, 124, 124, -1, 124, 124, 124, -1, 124, 124, 124, -1,
 124, 124, 124, -1, 124, 124, 124, -1, 124, 124, 124, -1,
 124, 124, 124, -1, 124, 124, 124, -1, 124, 124, 124, -1,
 124, 124, 124, -1, 124, 124, 124, -1, 124, 124, 124, -1,
 124, 124, 124, -1, 124, 124, 124, -1, 124, 124, 124, -1,
 124, 124, 124, -1, 124, 124, 124, -1, 124, 124, 124, -1,
 124, 124, 124, -1, 124, 124, 124, -1, 124, 124, 124, -1,
 124, 124, 124, -1, 124, 124, 124, -1, 124, 124, 124, -1,
 124, 124, 124, -1, 124, 124, 124, -1, 124, 124, 124, -1,
 124, 124, 124, -1, 124, 124, 124, -1, 124, 124, 124, -1,
 124, 124, 124, -1, 124, 124, 124, -1, 124, 124, 124, -1,
 124, 124, 124, -1, 124, 124, 124, -1, 124, 124, 124, -1,
 124, 124, 124, -1, 124, 124, 124, -1, 124, 124, 124, -1,
 124, 124, 124, -1, 124, 124, 124, -1, 124, 124, 124, -1,
 124, 124, 124, -1, 124, 124, 124, -1, 124, 124, 124, -1,
 124, 124, 124, -1, 124, 124, 124, -1, 124, 124, 124, -1,
 124, 124, 124, -1, 23, 23, 23, -1, 23, 23, 23, -1,
 2, 2, 0, -1, 0, 2, 0, -1, 24, 24, 24, -1,
 24, 24, 24, -1, 76, 76, 60, -1, 60, 76, 60, -1,
 60, 60, 49, -1, 49, 60, 49, -1, 123, 123, 123, -1,
 123, 123, 123, -1, 197, 197, 187, -1, 187, 197, 187, -1,
 187, 187, 170, -1, 170, 187, 170, -1, 222, 222, 222, -1,
 222, 222, 222, -1, 243, 243, 245, -1, 245, 243, 245, -1,
 245, 245, 244, -1, 244, 245, 244, -1, 221, 221, 221, -1,
 221, 221, 221, -1, 169, 169, 186, -1, 186, 169, 186, -1,
 186, 186, 196, -1, 196, 186, 196, -1, 122, 122, 122, -1,
 122, 122, 122, -1, 48, 48, 59, -1, 59, 48, 59, -1,
 59, 59, 75, -1, 75, 59, 75, -1, 121, 121, 121, -1,
 121, 121, 121, -1, 121, 121, 121, -1, 121, 121, 121, -1,
 121, 121, 121, -1, 121, 121, 121, -1, 121, 121, 121, -1,
 121, 121, 121, -1, 121, 121, 121, -1, 121, 121, 121, -1,
 121, 121, 121, -1, 121, 121, 121, -1, 121, 121, 121, -1,
 121, 121, 121, -1, 121, 121, 121, -1, 121, 121, 121, -1,
 121, 121, 121, -1, 121, 121, 121, -1, 121, 121, 121, -1,
 121, 121, 121, -1, 121, 121, 121, -1, 121, 121, 121, -1,
 121, 121, 121, -1, 121, 121, 121, -1, 121, 121, 121, -1,
 121, 121, 121, -1, 121, 121, 121, -1, 121, 121, 121, -1,
 121, 121, 121, -1, 121, 121, 121, -1, 121, 121, 121, -1,
 121, 121, 121, -1, 121, 121, 121, -1, 121, 121, 121, -1,
 121, 121, 121, -1, 121, 121, 121, -1, 121, 121, 121, -1,
 121, 121, 121, -1, 121, 121, 121, -1, 121, 121, 121, -1,
 121, 121, 121, -1, 121, 121, 121, -1, 0, 0, 13, -1,
 13, 0, 13, -1, 13, 13, 23, -1, 23, 13, 23, -1,
 23, 23, 35, -1, 35, 23, 35, -1, 35, 35, 59, -1,
 59, 35, 59, -1, 59, 59, 97, -1, 97, 59, 97, -1,
 97, 97, 122, -1, 122, 97, 122, -1, 122, 122, 147, -1,
 147, 122, 147, -1, 147, 147, 186, -1, 186, 147, 186, -1,
 186, 186, 208, -1, 208, 186, 208, -1, 208, 208, 221, -1,
 221, 208, 221, -1, 221, 221, 231, -1, 231, 221, 231, -1,
 231, 231, 245, -1, 245, 231, 245, -1, 121, 121, 121, -1,
 121, 121, 121, -1, 121, 121, 121, -1, 121, 121, 121, -1,
 121, 121, 121, -1, 121, 121, 121, -1, 121, 121, 121, -1,
 121, 121, 121, -1, 121, 121, 121, -1, 121, 121, 121, -1,
 121, 121, 121, -1, 121, 121, 121, -1, 121, 121, 121, -1,
 121, 121, 121, -1, 121, 121, 121, -1, 121, 121, 121, -1,
 121, 121, 121, -1, 121, 121, 121, -1, 121, 121, 121, -1,
 121, 121, 121, -1, 121, 121, 121, -1, 121, 121, 121, -1,
 122, 122, 122, -1, 122, 122, 122, -1, 202, 202, 186, -1,
 186, 202, 186, -1, 186, 186, 165, -1, 165, 186, 165, -1,
 221, 221, 221, -1, 221, 221, 221, -1, 242, 242, 245, -1,
 245, 242, 245, -1, 222, 222, 222, -1, 222, 222, 222, -1,
 166, 166, 187, -1, 187, 166, 187, -1, 187, 187, 203, -1,
 203, 187, 203, -1, 123, 123, 123, -1, 123, 123, 123, -1,
 43, 43, 60, -1, 60, 43, 60, -1, 60, 60, 80, -1,
 80, 60, 80, -1, 24, 24, 24, -1, 24, 24, 24, -1,
 3, 3, 0, -1, 0, 3, 0, -1, 0, 0, 4, -1,
 4, 0, 4, -1, 23, 23, 23, -1, 23, 23, 23, -1,
 79, 79, 59, -1, 59, 79, 59, -1, 59, 59, 42, -1,
 42, 59, 42, -1, 124, 124, 124, -1, 124, 124, 124, -1,
 124, 124, 124, -1, 124, 124, 124, -1, 124, 124, 124, -1,
 124, 124, 124, -1, 124, 124, 124, -1, 124, 124, 124, -1,
 124, 124, 124, -1, 124, 124, 124, -1, 124, 124, 124, -1,
 124, 124, 124, -1, 124, 124, 124, -1, 124, 124, 124, -1,
 124, 124, 124, -1, 124, 124, 124, -1
]
colorPerVertex FALSE
normalPerVertex TRUE
}
}
]
}
