#VRML V2.0 utf8
Transform {
children [
Shape {
appearance Appearance {
material Material {
ambientIntensity 1.000000
diffuseColor 1.000000 1.000000 1.000000
emissiveColor 0.210000 0.210000 0.210000
specularColor 0.880000 0.880000 0.880000
shininess 0.210000
transparency 0.000000
}
}
geometry IndexedFaceSet {
color Color {
color [
 1.000000 1.000000 1.000000
]
}
coord Coordinate {
point [
 -0.065986 0.001500 -0.028577, -0.065986 0.001500 -0.016577, -0.065986 0.012200 -0.028577, -0.065986 0.012200 -0.016577, -0.062286 0.001500 0.004323,
 -0.062286 0.001500 0.013223, -0.062286 0.012300 0.004323, -0.062286 0.012300 0.013223, -0.059686 0.000000 -0.037077, -0.059686 0.000000 0.016123,
 -0.059686 0.001500 -0.037077, -0.059686 0.001500 -0.036327, -0.059686 0.001500 -0.035927, -0.059686 0.001500 -0.029027, -0.059686 0.001500 -0.028577,
 -0.059686 0.001500 -0.016577, -0.059686 0.001500 -0.016462, -0.059686 0.001500 -0.012477, -0.059686 0.001500 0.000523, -0.059686 0.001500 0.001454,
 -0.059686 0.001500 0.004323, -0.059686 0.001500 0.013223, -0.059686 0.001500 0.016123, -0.059686 0.010000 -0.012477, -0.059686 0.010000 0.000523,
 -0.058086 0.001500 -0.037077, -0.058086 0.001500 -0.036327, -0.058086 0.001500 -0.035927, -0.058086 0.001500 -0.029027, -0.058086 0.001500 -0.028577,
 -0.058086 0.001500 -0.016577, -0.058086 0.001500 -0.016462, -0.058086 0.001500 -0.012477, -0.058086 0.001500 0.000523, -0.058086 0.001500 0.001454,
 -0.058086 0.001500 0.004323, -0.058086 0.001500 0.013223, -0.058086 0.001500 0.016123, -0.056486 0.001500 -0.036677, -0.056486 0.001500 -0.036327,
 -0.056486 0.001500 -0.035927, -0.056486 0.001500 -0.030477, -0.056486 0.003800 -0.036677, -0.056486 0.003800 -0.030477, -0.050286 0.001500 -0.036677,
 -0.050286 0.001500 -0.036327, -0.050286 0.001500 -0.035927, -0.050286 0.001500 -0.030477, -0.050286 0.003800 -0.036677, -0.050286 0.003800 -0.030477,
 -0.049786 0.001500 -0.028577, -0.049786 0.001500 -0.024262, -0.049786 0.001500 -0.016577, -0.049786 0.012200 -0.028577, -0.049786 0.012200 -0.016577,
 -0.048486 0.001500 0.004323, -0.048486 0.001500 0.007954, -0.048486 0.001500 0.010698, -0.048486 0.001500 0.013223, -0.048486 0.012300 0.004323,
 -0.048486 0.012300 0.013223, -0.048086 0.001500 -0.037077, -0.048086 0.001500 -0.036327, -0.048086 0.001500 -0.035927, -0.048086 0.001500 -0.029027,
 -0.048086 0.001500 -0.024262, -0.048086 0.001500 -0.016462, -0.048086 0.001500 -0.012477, -0.048086 0.001500 0.000523, -0.048086 0.001500 0.001454,
 -0.048086 0.001500 0.007954, -0.048086 0.001500 0.010698, -0.048086 0.001500 0.016123, -0.047986 0.001500 -0.012477, -0.047986 0.001500 -0.005371,
 -0.047986 0.001500 0.000523, -0.047986 0.010000 -0.012477, -0.047986 0.010000 0.000523, -0.045886 0.000000 -0.034477, -0.045886 0.001500 -0.034477,
 -0.045835 0.000000 -0.034865, -0.045835 0.000000 -0.034089, -0.045835 0.001500 -0.034865, -0.045835 0.001500 -0.034089, -0.045685 0.000000 -0.035227,
 -0.045685 0.000000 -0.033727, -0.045685 0.001500 -0.035227, -0.045685 0.001500 -0.033727, -0.045446 0.000000 -0.035538, -0.045446 0.000000 -0.033416,
 -0.045446 0.001500 -0.035538, -0.045446 0.001500 -0.033416, -0.045136 0.000000 -0.035776, -0.045136 0.000000 -0.033178, -0.045136 0.001500 -0.035776,
 -0.045136 0.001500 -0.033178, -0.044774 0.000000 -0.035926, -0.044774 0.000000 -0.033028, -0.044774 0.001500 -0.035926, -0.044774 0.001500 -0.033028,
 -0.044766 0.001500 -0.035927, -0.044386 0.000000 -0.035977, -0.044386 0.000000 -0.032977, -0.044386 0.001500 -0.035977, -0.044386 0.001500 -0.032977,
 -0.044006 0.001500 -0.035927, -0.043997 0.000000 -0.035926, -0.043997 0.000000 -0.033028, -0.043997 0.001500 -0.035926, -0.043997 0.001500 -0.033028,
 -0.043636 0.000000 -0.035776, -0.043636 0.000000 -0.033178, -0.043636 0.001500 -0.035776, -0.043636 0.001500 -0.033178, -0.043325 0.000000 -0.035538,
 -0.043325 0.000000 -0.033416, -0.043325 0.001500 -0.035538, -0.043325 0.001500 -0.033416, -0.043087 0.000000 -0.035227, -0.043087 0.000000 -0.033727,
 -0.043087 0.001500 -0.035227, -0.043087 0.001500 -0.033727, -0.042937 0.000000 -0.034865, -0.042937 0.000000 -0.034089, -0.042937 0.001500 -0.034865,
 -0.042937 0.001500 -0.034089, -0.042886 0.000000 -0.034477, -0.042886 0.001500 -0.034477, -0.042636 0.001500 -0.037077, -0.042636 0.001500 -0.036327,
 -0.042636 0.001500 -0.035927, -0.042636 0.001500 -0.029027, -0.042636 0.001500 -0.024262, -0.042636 0.001500 -0.016462, -0.042636 0.001500 -0.005371,
 -0.042636 0.001500 0.001454, -0.042636 0.001500 0.007954, -0.042636 0.001500 0.010698, -0.042636 0.001500 0.016123, -0.042386 0.001500 -0.035877,
 -0.042386 0.001500 -0.033477, -0.042386 0.009700 -0.035877, -0.042386 0.009700 -0.033477, -0.035886 0.001500 -0.027577, -0.035886 0.001500 -0.024262,
 -0.035886 0.001500 -0.020077, -0.035886 0.010000 -0.027577, -0.035886 0.010000 -0.020077, -0.034486 0.001500 -0.037077, -0.034486 0.001500 -0.036327,
 -0.034486 0.001500 -0.035927, -0.034486 0.001500 -0.035877, -0.034486 0.001500 -0.033477, -0.034486 0.001500 -0.029027, -0.034486 0.001500 -0.027577,
 -0.034486 0.001500 -0.020077, -0.034486 0.001500 -0.016462, -0.034486 0.001500 -0.005371, -0.034486 0.001500 0.001454, -0.034486 0.001500 0.007954,
 -0.034486 0.001500 0.010698, -0.034486 0.001500 0.016123, -0.033086 0.001500 0.012523, -0.033086 0.001500 0.014823, -0.033086 0.010000 0.012523,
 -0.033086 0.010000 0.014823, -0.026486 0.001500 -0.037077, -0.026486 0.001500 -0.036327, -0.026486 0.001500 -0.035927, -0.026486 0.001500 -0.035877,
 -0.026486 0.001500 -0.033477, -0.026486 0.001500 -0.029027, -0.026486 0.001500 -0.027577, -0.026486 0.001500 -0.020077, -0.026486 0.001500 -0.016462,
 -0.026486 0.001500 -0.005371, -0.026486 0.001500 0.001454, -0.026486 0.001500 0.007954, -0.026486 0.001500 0.010698, -0.026486 0.001500 0.012523,
 -0.026486 0.001500 0.014823, -0.026486 0.001500 0.016123, -0.019886 0.001500 -0.002965, -0.019886 0.001500 0.001454, -0.019886 0.001500 0.007035,
 -0.019886 0.010000 -0.002965, -0.019886 0.010000 0.007035, 0.002214 0.001500 -0.027577, 0.002214 0.001500 -0.024262, 0.002214 0.001500 -0.020077,
 0.002214 0.010000 -0.027577, 0.002214 0.010000 -0.020077, 0.003114 0.001500 -0.002965, 0.003114 0.001500 0.001454, 0.003114 0.001500 0.007035,
 0.003114 0.010000 -0.002965, 0.003114 0.010000 0.007035, 0.003214 0.001500 -0.037077, 0.003214 0.001500 -0.036327, 0.003214 0.001500 -0.035927,
 0.003214 0.001500 -0.035877, 0.003214 0.001500 -0.033477, 0.003214 0.001500 -0.029027, 0.003214 0.001500 -0.024262, 0.003214 0.001500 -0.016462,
 0.003214 0.001500 -0.005371, 0.003214 0.001500 0.001454, 0.003214 0.001500 0.007954, 0.003214 0.001500 0.010698, 0.003214 0.001500 0.012523,
 0.003214 0.001500 0.014823, 0.003214 0.001500 0.016123, 0.003314 0.001500 -0.014977, 0.003314 0.001500 -0.007777, 0.003314 0.009700 -0.014977,
 0.003314 0.009700 -0.007777, 0.004214 0.001500 -0.037077, 0.004214 0.001500 -0.036327, 0.004214 0.001500 -0.035927, 0.004214 0.001500 -0.035877,
 0.004214 0.001500 -0.033477, 0.004214 0.001500 -0.029027, 0.004214 0.001500 -0.024262, 0.004214 0.001500 -0.016462, 0.004214 0.001500 -0.014977,
 0.004214 0.001500 -0.007777, 0.004214 0.001500 -0.005371, 0.004214 0.001500 0.001454, 0.004214 0.001500 0.007954, 0.004214 0.001500 0.010698,
 0.004214 0.001500 0.012523, 0.004214 0.001500 0.014823, 0.004214 0.001500 0.016123, 0.005114 0.000000 -0.019446, 0.005114 0.001500 -0.019446,
 0.005165 0.000000 -0.019834, 0.005165 0.000000 -0.019058, 0.005165 0.001500 -0.019834, 0.005165 0.001500 -0.019058, 0.005214 0.000000 0.007374,
 0.005214 0.001500 -0.035877, 0.005214 0.001500 -0.033477, 0.005214 0.001500 0.007374, 0.005214 0.009700 -0.035877, 0.005214 0.009700 -0.033477,
 0.005265 0.000000 0.006986, 0.005265 0.000000 0.007762, 0.005265 0.001500 0.006986, 0.005265 0.001500 0.007762, 0.005314 0.001500 0.012523,
 0.005314 0.001500 0.014823, 0.005314 0.010000 0.012523, 0.005314 0.010000 0.014823, 0.005315 0.000000 -0.020196, 0.005315 0.000000 -0.018696,
 0.005315 0.001500 -0.020196, 0.005315 0.001500 -0.018696, 0.005345 0.001500 0.007954, 0.005415 0.000000 0.006624, 0.005415 0.000000 0.008124,
 0.005415 0.001500 0.006624, 0.005415 0.001500 0.008124, 0.005554 0.000000 -0.020507, 0.005554 0.000000 -0.018385, 0.005554 0.001500 -0.020507,
 0.005554 0.001500 -0.018385, 0.005654 0.000000 0.006313, 0.005654 0.000000 0.008435, 0.005654 0.001500 0.006313, 0.005654 0.001500 0.008435,
 0.005864 0.000000 -0.020745, 0.005864 0.000000 -0.018147, 0.005864 0.001500 -0.020745, 0.005864 0.001500 -0.018147, 0.005964 0.000000 0.006075,
 0.005964 0.000000 0.008673, 0.005964 0.001500 0.006075, 0.005964 0.001500 0.008673, 0.006226 0.000000 -0.020895, 0.006226 0.000000 -0.017997,
 0.006226 0.001500 -0.020895, 0.006226 0.001500 -0.017997, 0.006326 0.000000 0.005925, 0.006326 0.000000 0.008823, 0.006326 0.001500 0.005925,
 0.006326 0.001500 0.008823, 0.006514 0.000000 -0.037077, 0.006514 0.000000 -0.024477, 0.006514 0.000000 0.013323, 0.006514 0.000000 0.016123,
 0.006514 0.001500 -0.037077, 0.006514 0.001500 -0.036327, 0.006514 0.001500 -0.035927, 0.006514 0.001500 -0.029027, 0.006514 0.001500 -0.024477,
 0.006514 0.001500 0.013323, 0.006514 0.001500 0.016123, 0.006614 0.000000 -0.020946, 0.006614 0.000000 -0.017946, 0.006614 0.001500 -0.020946,
 0.006614 0.001500 -0.017946, 0.006714 0.000000 0.005874, 0.006714 0.000000 0.008874, 0.006714 0.001500 0.005874, 0.006714 0.001500 0.008874,
 0.006720 0.001500 -0.024262, 0.007003 0.000000 -0.020895, 0.007003 0.000000 -0.017997, 0.007003 0.001500 -0.020895, 0.007003 0.001500 -0.017997,
 0.007103 0.000000 0.005925, 0.007103 0.000000 0.008823, 0.007103 0.001500 0.005925, 0.007103 0.001500 0.008823, 0.007364 0.000000 -0.020745,
 0.007364 0.000000 -0.018147, 0.007364 0.001500 -0.020745, 0.007364 0.001500 -0.018147, 0.007464 0.000000 0.006075, 0.007464 0.000000 0.008673,
 0.007464 0.001500 0.006075, 0.007464 0.001500 0.008673, 0.007675 0.000000 -0.020507, 0.007675 0.000000 -0.018385, 0.007675 0.001500 -0.020507,
 0.007675 0.001500 -0.018385, 0.007775 0.000000 0.006313, 0.007775 0.000000 0.008435, 0.007775 0.001500 0.006313, 0.007775 0.001500 0.008435,
 0.007913 0.000000 -0.020196, 0.007913 0.000000 -0.018696, 0.007913 0.001500 -0.020196, 0.007913 0.001500 -0.018696, 0.008013 0.000000 0.006624,
 0.008013 0.000000 0.008124, 0.008013 0.001500 0.006624, 0.008013 0.001500 0.008124, 0.008063 0.000000 -0.019834, 0.008063 0.000000 -0.019058,
 0.008063 0.001500 -0.019834, 0.008063 0.001500 -0.019058, 0.008084 0.001500 0.007954, 0.008114 0.000000 -0.019446, 0.008114 0.001500 -0.019446,
 0.008163 0.000000 0.006986, 0.008163 0.000000 0.007762, 0.008163 0.001500 0.006986, 0.008163 0.001500 0.007762, 0.008164 0.001500 -0.022747,
 0.008164 0.001500 -0.016462, 0.008164 0.001500 -0.014977, 0.008164 0.001500 -0.007777, 0.008164 0.001500 -0.005371, 0.008164 0.001500 0.001454,
 0.008164 0.001500 0.006994, 0.008164 0.001500 0.007754, 0.008164 0.001500 0.007954, 0.008164 0.001500 0.010698, 0.008164 0.001500 0.011381,
 0.008214 0.000000 0.007374, 0.008214 0.001500 -0.014977, 0.008214 0.001500 -0.007777, 0.008214 0.001500 0.007374, 0.008214 0.009700 -0.014977,
 0.008214 0.009700 -0.007777, 0.008745 0.001500 0.010698, 0.009314 0.000000 -0.021541, 0.009314 0.000000 0.010028, 0.009314 0.001500 -0.021541,
 0.009314 0.001500 -0.016462, 0.009314 0.001500 -0.005371, 0.009314 0.001500 0.001454, 0.009314 0.001500 0.007954, 0.009314 0.001500 0.010028
]
}
normal Normal {
vector [
 -1.000000 0.000000 0.000000, -0.967368 0.000000 -0.253376, -0.967368 0.000000 0.253376, -0.965926 0.000000 -0.258819, -0.965926 0.000000 0.258819,
 -0.920710 0.000000 -0.390246, -0.866025 0.000000 -0.500000, -0.866025 0.000000 0.500000, -0.707107 0.000000 -0.707107, -0.707107 0.000000 0.707107,
 -0.500000 0.000000 -0.866025, -0.500000 0.000000 0.866025, -0.258819 0.000000 -0.965926, -0.258819 0.000000 0.965926, -0.253376 0.000000 0.967368,
 0.000000 -1.000000 0.000000, 0.000000 0.000000 -1.000000, 0.000000 0.000000 1.000000, 0.000000 1.000000 0.000000, 0.253376 0.000000 0.967368,
 0.258819 0.000000 -0.965926, 0.258819 0.000000 0.965926, 0.500000 0.000000 -0.866025, 0.500000 0.000000 0.866025, 0.707107 0.000000 -0.707107,
 0.707107 0.000000 0.707107, 0.723656 0.000000 -0.690161, 0.761995 0.000000 0.647583, 0.866025 0.000000 -0.500000, 0.866025 0.000000 0.500000,
 0.920710 0.000000 -0.390246, 0.965926 0.000000 -0.258819, 0.965926 0.000000 0.258819, 1.000000 0.000000 0.000000
]
}
coordIndex [
 98, 100, 63, -1, 356, 357, 373, -1, 55, 56, 70, -1,
 241, 220, 221, -1, 133, 156, 155, -1, 203, 188, 189, -1,
 155, 156, 173, -1, 173, 156, 174, -1, 173, 174, 189, -1,
 189, 174, 204, -1, 189, 204, 203, -1, 188, 203, 187, -1,
 187, 203, 202, -1, 187, 202, 172, -1, 172, 202, 171, -1,
 172, 171, 154, -1, 154, 171, 153, -1, 154, 153, 143, -1,
 143, 153, 131, -1, 143, 131, 144, -1, 183, 182, 175, -1,
 175, 182, 205, -1, 161, 181, 180, -1, 180, 181, 210, -1,
 210, 181, 211, -1, 210, 211, 231, -1, 231, 211, 232, -1,
 231, 232, 250, -1, 250, 232, 296, -1, 250, 296, 249, -1,
 296, 295, 249, -1, 249, 295, 358, -1, 249, 358, 230, -1,
 230, 358, 229, -1, 230, 229, 209, -1, 209, 229, 208, -1,
 209, 208, 179, -1, 179, 208, 178, -1, 179, 178, 162, -1,
 162, 178, 160, -1, 162, 160, 163, -1, 33, 18, 19, -1,
 68, 69, 75, -1, 75, 69, 135, -1, 75, 135, 74, -1,
 16, 17, 31, -1, 31, 17, 32, -1, 31, 32, 66, -1,
 66, 32, 67, -1, 66, 67, 133, -1, 15, 16, 30, -1,
 30, 16, 31, -1, 30, 31, 52, -1, 52, 31, 66, -1,
 52, 66, 51, -1, 218, 219, 240, -1, 218, 240, 292, -1,
 292, 240, 241, -1, 292, 241, 293, -1, 293, 241, 221, -1,
 293, 221, 294, -1, 294, 221, 222, -1, 294, 222, 305, -1,
 325, 317, 350, -1, 265, 256, 223, -1, 265, 223, 273, -1,
 255, 264, 222, -1, 317, 309, 350, -1, 350, 309, 300, -1,
 350, 300, 223, -1, 223, 300, 281, -1, 223, 281, 273, -1,
 349, 316, 324, -1, 324, 332, 349, -1, 349, 332, 340, -1,
 349, 340, 344, -1, 344, 341, 350, -1, 350, 341, 333, -1,
 350, 333, 325, -1, 256, 238, 223, -1, 223, 238, 234, -1,
 223, 234, 222, -1, 222, 234, 237, -1, 222, 237, 255, -1,
 264, 272, 222, -1, 222, 272, 280, -1, 222, 280, 305, -1,
 305, 280, 299, -1, 305, 299, 349, -1, 349, 299, 308, -1,
 349, 308, 316, -1, 344, 350, 349, -1, 349, 350, 370, -1,
 349, 370, 369, -1, 295, 359, 358, -1, 358, 359, 366, -1,
 358, 366, 357, -1, 357, 366, 374, -1, 357, 374, 373, -1,
 21, 22, 36, -1, 36, 22, 37, -1, 36, 37, 58, -1,
 58, 37, 72, -1, 35, 69, 34, -1, 34, 69, 68, -1,
 34, 68, 33, -1, 33, 19, 34, -1, 34, 19, 20, -1,
 34, 20, 35, -1, 25, 26, 39, -1, 39, 26, 27, -1,
 39, 27, 40, -1, 44, 45, 62, -1, 62, 45, 46, -1,
 219, 218, 200, -1, 200, 218, 199, -1, 200, 199, 169, -1,
 169, 199, 168, -1, 169, 168, 151, -1, 151, 168, 150, -1,
 151, 150, 139, -1, 139, 150, 130, -1, 139, 130, 140, -1,
 140, 130, 131, -1, 140, 131, 152, -1, 152, 131, 153, -1,
 152, 153, 170, -1, 170, 153, 171, -1, 170, 171, 201, -1,
 201, 171, 202, -1, 201, 202, 220, -1, 213, 212, 204, -1,
 223, 224, 350, -1, 350, 224, 351, -1, 350, 351, 370, -1,
 370, 351, 361, -1, 370, 361, 371, -1, 371, 361, 362, -1,
 371, 362, 353, -1, 353, 362, 352, -1, 353, 352, 226, -1,
 226, 352, 225, -1, 226, 225, 205, -1, 229, 277, 269, -1,
 358, 329, 321, -1, 321, 313, 358, -1, 358, 313, 304, -1,
 358, 304, 229, -1, 229, 304, 285, -1, 229, 285, 277, -1,
 356, 348, 357, -1, 357, 348, 342, -1, 357, 342, 358, -1,
 358, 342, 337, -1, 358, 337, 329, -1, 373, 372, 354, -1,
 260, 268, 227, -1, 261, 257, 228, -1, 228, 257, 248, -1,
 228, 248, 242, -1, 312, 320, 354, -1, 354, 320, 328, -1,
 354, 328, 336, -1, 260, 227, 247, -1, 336, 347, 354, -1,
 354, 347, 355, -1, 354, 355, 373, -1, 373, 355, 363, -1,
 373, 363, 356, -1, 268, 276, 227, -1, 227, 276, 284, -1,
 227, 284, 354, -1, 354, 284, 303, -1, 354, 303, 312, -1,
 130, 105, 108, -1, 108, 112, 130, -1, 130, 112, 116, -1,
 130, 116, 120, -1, 113, 131, 117, -1, 117, 131, 121, -1,
 120, 124, 130, -1, 130, 124, 127, -1, 130, 127, 131, -1,
 131, 127, 125, -1, 131, 125, 121, -1, 64, 95, 91, -1,
 82, 86, 63, -1, 113, 109, 131, -1, 131, 109, 104, -1,
 131, 104, 64, -1, 64, 104, 99, -1, 64, 99, 95, -1,
 86, 90, 63, -1, 63, 90, 94, -1, 63, 94, 98, -1,
 91, 87, 64, -1, 64, 87, 83, -1, 64, 83, 63, -1,
 63, 83, 79, -1, 63, 79, 82, -1, 103, 129, 62, -1,
 40, 27, 41, -1, 41, 27, 28, -1, 41, 28, 47, -1,
 47, 28, 64, -1, 47, 64, 46, -1, 46, 64, 63, -1,
 46, 63, 62, -1, 62, 63, 100, -1, 62, 100, 103, -1,
 242, 247, 228, -1, 228, 247, 227, -1, 228, 227, 207, -1,
 207, 227, 206, -1, 372, 371, 354, -1, 354, 371, 353, -1,
 354, 353, 227, -1, 227, 353, 226, -1, 227, 226, 206, -1,
 206, 226, 205, -1, 206, 205, 192, -1, 192, 205, 182, -1,
 220, 202, 221, -1, 221, 202, 203, -1, 221, 203, 222, -1,
 222, 203, 204, -1, 222, 204, 223, -1, 223, 204, 212, -1,
 223, 212, 224, -1, 184, 183, 176, -1, 176, 183, 175, -1,
 176, 175, 158, -1, 158, 175, 157, -1, 158, 157, 135, -1,
 135, 157, 134, -1, 135, 134, 74, -1, 74, 134, 73, -1,
 225, 213, 205, -1, 205, 213, 204, -1, 205, 204, 175, -1,
 175, 204, 174, -1, 175, 174, 157, -1, 157, 174, 156, -1,
 157, 156, 134, -1, 134, 156, 133, -1, 134, 133, 73, -1,
 73, 133, 67, -1, 292, 291, 218, -1, 218, 291, 217, -1,
 218, 217, 199, -1, 199, 217, 198, -1, 199, 198, 168, -1,
 168, 198, 167, -1, 168, 167, 150, -1, 150, 167, 149, -1,
 150, 149, 130, -1, 130, 149, 129, -1, 130, 129, 105, -1,
 105, 129, 103, -1, 180, 163, 161, -1, 161, 163, 160, -1,
 161, 160, 138, -1, 138, 160, 137, -1, 138, 137, 72, -1,
 72, 137, 71, -1, 72, 71, 58, -1, 58, 71, 57, -1,
 269, 261, 229, -1, 229, 261, 228, -1, 229, 228, 208, -1,
 208, 228, 207, -1, 208, 207, 178, -1, 178, 207, 177, -1,
 178, 177, 160, -1, 160, 177, 159, -1, 160, 159, 137, -1,
 137, 159, 136, -1, 137, 136, 71, -1, 71, 136, 70, -1,
 71, 70, 57, -1, 57, 70, 56, -1, 192, 193, 206, -1,
 206, 193, 194, -1, 206, 194, 207, -1, 207, 194, 184, -1,
 207, 184, 177, -1, 177, 184, 176, -1, 177, 176, 159, -1,
 159, 176, 158, -1, 159, 158, 136, -1, 136, 158, 135, -1,
 136, 135, 70, -1, 70, 135, 69, -1, 70, 69, 55, -1,
 55, 69, 35, -1, 155, 145, 133, -1, 133, 145, 132, -1,
 133, 132, 66, -1, 66, 132, 65, -1, 66, 65, 51, -1,
 51, 65, 50, -1, 145, 144, 132, -1, 132, 144, 131, -1,
 132, 131, 65, -1, 65, 131, 64, -1, 65, 64, 50, -1,
 50, 64, 28, -1, 50, 28, 29, -1, 29, 28, 14, -1,
 291, 290, 217, -1, 217, 290, 216, -1, 217, 216, 198, -1,
 198, 216, 197, -1, 198, 197, 167, -1, 167, 197, 166, -1,
 167, 166, 149, -1, 149, 166, 148, -1, 149, 148, 129, -1,
 129, 148, 128, -1, 129, 128, 62, -1, 62, 128, 61, -1,
 62, 61, 44, -1, 44, 61, 25, -1, 44, 25, 38, -1,
 38, 25, 39, -1, 14, 28, 13, -1, 13, 28, 27, -1,
 13, 27, 12, -1, 12, 27, 26, -1, 12, 26, 11, -1,
 11, 26, 25, -1, 11, 25, 10, -1, 290, 291, 286, -1,
 286, 291, 292, -1, 286, 292, 287, -1, 287, 292, 293, -1,
 287, 293, 294, -1, 295, 296, 288, -1, 288, 296, 289, -1,
 216, 290, 286, -1, 10, 25, 8, -1, 8, 25, 61, -1,
 8, 61, 128, -1, 128, 148, 8, -1, 8, 148, 166, -1,
 8, 166, 286, -1, 286, 166, 197, -1, 286, 197, 216, -1,
 22, 21, 9, -1, 9, 21, 20, -1, 24, 23, 18, -1,
 18, 23, 17, -1, 20, 19, 9, -1, 9, 19, 18, -1,
 9, 18, 8, -1, 8, 18, 17, -1, 8, 17, 16, -1,
 16, 15, 8, -1, 8, 15, 14, -1, 8, 14, 13, -1,
 13, 12, 8, -1, 8, 12, 11, -1, 8, 11, 10, -1,
 289, 296, 232, -1, 232, 211, 289, -1, 289, 211, 181, -1,
 289, 181, 9, -1, 9, 181, 161, -1, 9, 161, 138, -1,
 138, 72, 9, -1, 9, 72, 37, -1, 9, 37, 22, -1,
 289, 9, 288, -1, 288, 9, 8, -1, 254, 301, 236, -1,
 236, 301, 233, -1, 8, 92, 88, -1, 323, 331, 368, -1,
 368, 331, 339, -1, 368, 339, 367, -1, 360, 345, 279, -1,
 279, 345, 334, -1, 279, 334, 326, -1, 339, 343, 367, -1,
 367, 343, 338, -1, 367, 338, 330, -1, 88, 84, 8, -1,
 8, 84, 80, -1, 8, 80, 78, -1, 330, 322, 367, -1,
 367, 322, 314, -1, 367, 314, 287, -1, 287, 314, 306, -1,
 287, 306, 297, -1, 326, 318, 279, -1, 279, 318, 310, -1,
 279, 310, 271, -1, 271, 310, 301, -1, 271, 301, 263, -1,
 263, 301, 254, -1, 288, 275, 283, -1, 97, 301, 93, -1,
 93, 301, 282, -1, 97, 102, 301, -1, 301, 102, 107, -1,
 301, 107, 111, -1, 111, 115, 301, -1, 301, 115, 119, -1,
 301, 119, 233, -1, 239, 246, 8, -1, 8, 246, 259, -1,
 8, 259, 288, -1, 288, 259, 267, -1, 288, 267, 275, -1,
 122, 118, 286, -1, 286, 118, 114, -1, 286, 114, 110, -1,
 78, 81, 8, -1, 8, 81, 85, -1, 8, 85, 89, -1,
 283, 302, 288, -1, 288, 302, 311, -1, 288, 311, 368, -1,
 368, 311, 319, -1, 368, 319, 327, -1, 123, 278, 270, -1,
 110, 106, 286, -1, 286, 106, 101, -1, 286, 101, 8, -1,
 8, 101, 96, -1, 8, 96, 92, -1, 282, 274, 93, -1,
 93, 274, 266, -1, 93, 266, 89, -1, 89, 266, 258, -1,
 89, 258, 8, -1, 8, 258, 245, -1, 8, 245, 239, -1,
 327, 335, 368, -1, 368, 335, 346, -1, 368, 346, 360, -1,
 279, 298, 360, -1, 360, 298, 307, -1, 360, 307, 368, -1,
 368, 307, 315, -1, 368, 315, 323, -1, 270, 262, 123, -1,
 123, 262, 253, -1, 123, 253, 119, -1, 119, 253, 235, -1,
 119, 235, 233, -1, 297, 278, 287, -1, 287, 278, 123, -1,
 287, 123, 286, -1, 286, 123, 126, -1, 286, 126, 122, -1,
 349, 369, 367, -1, 349, 367, 305, -1, 305, 367, 287, -1,
 305, 287, 294, -1, 373, 374, 368, -1, 369, 370, 367, -1,
 367, 370, 371, -1, 367, 371, 368, -1, 368, 371, 372, -1,
 368, 372, 373, -1, 295, 288, 359, -1, 359, 288, 368, -1,
 359, 368, 366, -1, 366, 368, 374, -1, 298, 300, 307, -1,
 307, 300, 309, -1, 307, 309, 315, -1, 315, 309, 317, -1,
 315, 317, 323, -1, 323, 317, 325, -1, 323, 325, 331, -1,
 331, 325, 333, -1, 331, 333, 339, -1, 339, 333, 341, -1,
 339, 341, 343, -1, 343, 341, 344, -1, 343, 344, 338, -1,
 338, 344, 340, -1, 338, 340, 330, -1, 330, 340, 332, -1,
 330, 332, 322, -1, 322, 332, 324, -1, 322, 324, 314, -1,
 314, 324, 316, -1, 314, 316, 306, -1, 306, 316, 308, -1,
 306, 308, 297, -1, 297, 308, 299, -1, 297, 299, 278, -1,
 278, 299, 280, -1, 278, 280, 270, -1, 270, 280, 272, -1,
 270, 272, 262, -1, 262, 272, 264, -1, 262, 264, 253, -1,
 253, 264, 255, -1, 253, 255, 235, -1, 235, 255, 237, -1,
 235, 237, 233, -1, 233, 237, 234, -1, 233, 234, 236, -1,
 236, 234, 238, -1, 236, 238, 254, -1, 254, 238, 256, -1,
 254, 256, 263, -1, 263, 256, 265, -1, 263, 265, 271, -1,
 271, 265, 273, -1, 271, 273, 279, -1, 279, 273, 281, -1,
 279, 281, 298, -1, 298, 281, 300, -1, 346, 335, 342, -1,
 342, 348, 346, -1, 346, 348, 356, -1, 346, 356, 360, -1,
 356, 363, 360, -1, 360, 363, 355, -1, 360, 355, 345, -1,
 345, 355, 347, -1, 345, 347, 334, -1, 334, 347, 336, -1,
 334, 336, 326, -1, 326, 336, 328, -1, 326, 328, 318, -1,
 318, 328, 320, -1, 318, 320, 310, -1, 310, 320, 312, -1,
 310, 312, 301, -1, 301, 312, 303, -1, 301, 303, 282, -1,
 282, 303, 284, -1, 282, 284, 274, -1, 274, 284, 276, -1,
 274, 276, 266, -1, 266, 276, 268, -1, 266, 268, 258, -1,
 258, 268, 260, -1, 258, 260, 245, -1, 245, 260, 247, -1,
 245, 247, 239, -1, 239, 247, 242, -1, 239, 242, 246, -1,
 242, 248, 246, -1, 246, 248, 257, -1, 246, 257, 259, -1,
 259, 257, 261, -1, 259, 261, 267, -1, 267, 261, 269, -1,
 267, 269, 275, -1, 275, 269, 277, -1, 275, 277, 283, -1,
 283, 277, 285, -1, 283, 285, 302, -1, 302, 285, 304, -1,
 302, 304, 311, -1, 311, 304, 313, -1, 311, 313, 319, -1,
 319, 313, 321, -1, 319, 321, 327, -1, 327, 321, 329, -1,
 327, 329, 335, -1, 335, 329, 337, -1, 335, 337, 342, -1,
 364, 365, 361, -1, 361, 365, 362, -1, 212, 214, 224, -1,
 224, 214, 364, -1, 224, 364, 351, -1, 351, 364, 361, -1,
 215, 214, 213, -1, 213, 214, 212, -1, 362, 365, 352, -1,
 352, 365, 215, -1, 352, 215, 225, -1, 225, 215, 213, -1,
 214, 215, 364, -1, 364, 215, 365, -1, 243, 244, 240, -1,
 240, 244, 241, -1, 151, 139, 141, -1, 240, 219, 243, -1,
 243, 219, 200, -1, 243, 200, 141, -1, 141, 200, 169, -1,
 141, 169, 151, -1, 142, 141, 140, -1, 140, 141, 139, -1,
 220, 241, 244, -1, 140, 152, 142, -1, 142, 152, 170, -1,
 142, 170, 244, -1, 244, 170, 201, -1, 244, 201, 220, -1,
 141, 142, 243, -1, 243, 142, 244, -1, 48, 49, 47, -1,
 47, 46, 48, -1, 48, 46, 45, -1, 48, 45, 44, -1,
 42, 48, 38, -1, 38, 48, 44, -1, 41, 43, 40, -1,
 40, 43, 42, -1, 40, 42, 39, -1, 39, 42, 38, -1,
 49, 43, 47, -1, 47, 43, 41, -1, 42, 43, 48, -1,
 48, 43, 49, -1, 101, 106, 105, -1, 105, 103, 101, -1,
 101, 103, 100, -1, 101, 100, 96, -1, 96, 100, 98, -1,
 96, 98, 92, -1, 92, 98, 94, -1, 92, 94, 88, -1,
 88, 94, 90, -1, 88, 90, 84, -1, 84, 90, 86, -1,
 84, 86, 80, -1, 80, 86, 82, -1, 80, 82, 78, -1,
 78, 82, 79, -1, 78, 79, 81, -1, 81, 79, 83, -1,
 81, 83, 85, -1, 85, 83, 87, -1, 85, 87, 89, -1,
 89, 87, 91, -1, 89, 91, 93, -1, 93, 91, 95, -1,
 93, 95, 97, -1, 97, 95, 99, -1, 97, 99, 102, -1,
 102, 99, 104, -1, 102, 104, 107, -1, 107, 104, 109, -1,
 107, 109, 111, -1, 111, 109, 113, -1, 111, 113, 115, -1,
 115, 113, 117, -1, 115, 117, 119, -1, 119, 117, 121, -1,
 119, 121, 123, -1, 123, 121, 125, -1, 123, 125, 126, -1,
 126, 125, 127, -1, 126, 127, 122, -1, 122, 127, 124, -1,
 122, 124, 118, -1, 118, 124, 120, -1, 118, 120, 114, -1,
 114, 120, 116, -1, 114, 116, 110, -1, 110, 116, 112, -1,
 110, 112, 106, -1, 106, 112, 108, -1, 106, 108, 105, -1,
 15, 1, 14, -1, 14, 1, 0, -1, 50, 53, 51, -1,
 51, 53, 54, -1, 51, 54, 52, -1, 2, 53, 50, -1,
 50, 29, 2, -1, 2, 29, 14, -1, 2, 14, 0, -1,
 3, 2, 1, -1, 1, 2, 0, -1, 52, 54, 30, -1,
 30, 54, 3, -1, 30, 3, 15, -1, 15, 3, 1, -1,
 2, 3, 53, -1, 53, 3, 54, -1, 73, 76, 74, -1,
 74, 76, 77, -1, 74, 77, 75, -1, 17, 23, 32, -1,
 32, 23, 76, -1, 32, 76, 67, -1, 67, 76, 73, -1,
 75, 77, 68, -1, 68, 77, 24, -1, 68, 24, 33, -1,
 33, 24, 18, -1, 23, 24, 76, -1, 76, 24, 77, -1,
 21, 5, 20, -1, 20, 5, 4, -1, 55, 59, 56, -1,
 56, 59, 60, -1, 56, 60, 57, -1, 57, 60, 58, -1,
 6, 59, 55, -1, 55, 35, 6, -1, 6, 35, 20, -1,
 6, 20, 4, -1, 7, 6, 5, -1, 5, 6, 4, -1,
 58, 60, 36, -1, 36, 60, 7, -1, 36, 7, 21, -1,
 21, 7, 5, -1, 6, 7, 59, -1, 59, 7, 60, -1,
 251, 252, 249, -1, 249, 252, 250, -1, 249, 230, 251, -1,
 251, 230, 209, -1, 251, 209, 164, -1, 164, 209, 179, -1,
 164, 179, 162, -1, 165, 164, 163, -1, 163, 164, 162, -1,
 231, 250, 252, -1, 165, 163, 180, -1, 165, 180, 252, -1,
 252, 180, 210, -1, 252, 210, 231, -1, 164, 165, 251, -1,
 251, 165, 252, -1, 192, 195, 193, -1, 193, 195, 196, -1,
 193, 196, 194, -1, 185, 195, 182, -1, 182, 195, 192, -1,
 184, 186, 183, -1, 183, 186, 185, -1, 183, 185, 182, -1,
 196, 186, 194, -1, 194, 186, 184, -1, 185, 186, 195, -1,
 195, 186, 196, -1, 187, 190, 188, -1, 188, 190, 191, -1,
 188, 191, 189, -1, 146, 190, 187, -1, 187, 172, 146, -1,
 146, 172, 154, -1, 146, 154, 143, -1, 145, 147, 144, -1,
 144, 147, 146, -1, 144, 146, 143, -1, 189, 191, 173, -1,
 173, 191, 147, -1, 173, 147, 155, -1, 155, 147, 145, -1,
 146, 147, 190, -1, 190, 147, 191, -1
]
normalIndex [
 18, 18, 18, -1, 18, 18, 18, -1, 18, 18, 18, -1,
 18, 18, 18, -1, 18, 18, 18, -1, 18, 18, 18, -1,
 18, 18, 18, -1, 18, 18, 18, -1, 18, 18, 18, -1,
 18, 18, 18, -1, 18, 18, 18, -1, 18, 18, 18, -1,
 18, 18, 18, -1, 18, 18, 18, -1, 18, 18, 18, -1,
 18, 18, 18, -1, 18, 18, 18, -1, 18, 18, 18, -1,
 18, 18, 18, -1, 18, 18, 18, -1, 18, 18, 18, -1,
 18, 18, 18, -1, 18, 18, 18, -1, 18, 18, 18, -1,
 18, 18, 18, -1, 18, 18, 18, -1, 18, 18, 18, -1,
 18, 18, 18, -1, 18, 18, 18, -1, 18, 18, 18, -1,
 18, 18, 18, -1, 18, 18, 18, -1, 18, 18, 18, -1,
 18, 18, 18, -1, 18, 18, 18, -1, 18, 18, 18, -1,
 18, 18, 18, -1, 18, 18, 18, -1, 18, 18, 18, -1,
 18, 18, 18, -1, 18, 18, 18, -1, 18, 18, 18, -1,
 18, 18, 18, -1, 18, 18, 18, -1, 18, 18, 18, -1,
 18, 18, 18, -1, 18, 18, 18, -1, 18, 18, 18, -1,
 18, 18, 18, -1, 18, 18, 18, -1, 18, 18, 18, -1,
 18, 18, 18, -1, 18, 18, 18, -1, 18, 18, 18, -1,
 18, 18, 18, -1, 18, 18, 18, -1, 18, 18, 18, -1,
 18, 18, 18, -1, 18, 18, 18, -1, 18, 18, 18, -1,
 18, 18, 18, -1, 18, 18, 18, -1, 18, 18, 18, -1,
 18, 18, 18, -1, 18, 18, 18, -1, 18, 18, 18, -1,
 18, 18, 18, -1, 18, 18, 18, -1, 18, 18, 18, -1,
 18, 18, 18, -1, 18, 18, 18, -1, 18, 18, 18, -1,
 18, 18, 18, -1, 18, 18, 18, -1, 18, 18, 18, -1,
 18, 18, 18, -1, 18, 18, 18, -1, 18, 18, 18, -1,
 18, 18, 18, -1, 18, 18, 18, -1, 18, 18, 18, -1,
 18, 18, 18, -1, 18, 18, 18, -1, 18, 18, 18, -1,
 18, 18, 18, -1, 18, 18, 18, -1, 18, 18, 18, -1,
 18, 18, 18, -1, 18, 18, 18, -1, 18, 18, 18, -1,
 18, 18, 18, -1, 18, 18, 18, -1, 18, 18, 18, -1,
 18, 18, 18, -1, 18, 18, 18, -1, 18, 18, 18, -1,
 18, 18, 18, -1, 18, 18, 18, -1, 18, 18, 18, -1,
 18, 18, 18, -1, 18, 18, 18, -1, 18, 18, 18, -1,
 18, 18, 18, -1, 18, 18, 18, -1, 18, 18, 18, -1,
 18, 18, 18, -1, 18, 18, 18, -1, 18, 18, 18, -1,
 18, 18, 18, -1, 18, 18, 18, -1, 18, 18, 18, -1,
 18, 18, 18, -1, 18, 18, 18, -1, 18, 18, 18, -1,
 18, 18, 18, -1, 18, 18, 18, -1, 18, 18, 18, -1,
 18, 18, 18, -1, 18, 18, 18, -1, 18, 18, 18, -1,
 18, 18, 18, -1, 18, 18, 18, -1, 18, 18, 18, -1,
 18, 18, 18, -1, 18, 18, 18, -1, 18, 18, 18, -1,
 18, 18, 18, -1, 18, 18, 18, -1, 18, 18, 18, -1,
 18, 18, 18, -1, 18, 18, 18, -1, 18, 18, 18, -1,
 18, 18, 18, -1, 18, 18, 18, -1, 18, 18, 18, -1,
 18, 18, 18, -1, 18, 18, 18, -1, 18, 18, 18, -1,
 18, 18, 18, -1, 18, 18, 18, -1, 18, 18, 18, -1,
 18, 18, 18, -1, 18, 18, 18, -1, 18, 18, 18, -1,
 18, 18, 18, -1, 18, 18, 18, -1, 18, 18, 18, -1,
 18, 18, 18, -1, 18, 18, 18, -1, 18, 18, 18, -1,
 18, 18, 18, -1, 18, 18, 18, -1, 18, 18, 18, -1,
 18, 18, 18, -1, 18, 18, 18, -1, 18, 18, 18, -1,
 18, 18, 18, -1, 18, 18, 18, -1, 18, 18, 18, -1,
 18, 18, 18, -1, 18, 18, 18, -1, 18, 18, 18, -1,
 18, 18, 18, -1, 18, 18, 18, -1, 18, 18, 18, -1,
 18, 18, 18, -1, 18, 18, 18, -1, 18, 18, 18, -1,
 18, 18, 18, -1, 18, 18, 18, -1, 18, 18, 18, -1,
 18, 18, 18, -1, 18, 18, 18, -1, 18, 18, 18, -1,
 18, 18, 18, -1, 18, 18, 18, -1, 18, 18, 18, -1,
 18, 18, 18, -1, 18, 18, 18, -1, 18, 18, 18, -1,
 18, 18, 18, -1, 18, 18, 18, -1, 18, 18, 18, -1,
 18, 18, 18, -1, 18, 18, 18, -1, 18, 18, 18, -1,
 18, 18, 18, -1, 18, 18, 18, -1, 18, 18, 18, -1,
 18, 18, 18, -1, 18, 18, 18, -1, 18, 18, 18, -1,
 18, 18, 18, -1, 18, 18, 18, -1, 18, 18, 18, -1,
 18, 18, 18, -1, 18, 18, 18, -1, 18, 18, 18, -1,
 18, 18, 18, -1, 18, 18, 18, -1, 18, 18, 18, -1,
 18, 18, 18, -1, 18, 18, 18, -1, 18, 18, 18, -1,
 18, 18, 18, -1, 18, 18, 18, -1, 18, 18, 18, -1,
 18, 18, 18, -1, 18, 18, 18, -1, 18, 18, 18, -1,
 18, 18, 18, -1, 18, 18, 18, -1, 18, 18, 18, -1,
 18, 18, 18, -1, 18, 18, 18, -1, 18, 18, 18, -1,
 18, 18, 18, -1, 18, 18, 18, -1, 18, 18, 18, -1,
 18, 18, 18, -1, 18, 18, 18, -1, 18, 18, 18, -1,
 18, 18, 18, -1, 18, 18, 18, -1, 18, 18, 18, -1,
 18, 18, 18, -1, 18, 18, 18, -1, 18, 18, 18, -1,
 18, 18, 18, -1, 18, 18, 18, -1, 18, 18, 18, -1,
 18, 18, 18, -1, 18, 18, 18, -1, 18, 18, 18, -1,
 18, 18, 18, -1, 18, 18, 18, -1, 18, 18, 18, -1,
 18, 18, 18, -1, 18, 18, 18, -1, 18, 18, 18, -1,
 18, 18, 18, -1, 18, 18, 18, -1, 18, 18, 18, -1,
 18, 18, 18, -1, 18, 18, 18, -1, 18, 18, 18, -1,
 18, 18, 18, -1, 18, 18, 18, -1, 18, 18, 18, -1,
 18, 18, 18, -1, 18, 18, 18, -1, 18, 18, 18, -1,
 18, 18, 18, -1, 18, 18, 18, -1, 18, 18, 18, -1,
 18, 18, 18, -1, 18, 18, 18, -1, 18, 18, 18, -1,
 18, 18, 18, -1, 18, 18, 18, -1, 18, 18, 18, -1,
 18, 18, 18, -1, 18, 18, 18, -1, 18, 18, 18, -1,
 18, 18, 18, -1, 18, 18, 18, -1, 18, 18, 18, -1,
 18, 18, 18, -1, 18, 18, 18, -1, 18, 18, 18, -1,
 18, 18, 18, -1, 18, 18, 18, -1, 18, 18, 18, -1,
 18, 18, 18, -1, 18, 18, 18, -1, 18, 18, 18, -1,
 18, 18, 18, -1, 18, 18, 18, -1, 18, 18, 18, -1,
 18, 18, 18, -1, 18, 18, 18, -1, 18, 18, 18, -1,
 18, 18, 18, -1, 18, 18, 18, -1, 18, 18, 18, -1,
 18, 18, 18, -1, 18, 18, 18, -1, 18, 18, 18, -1,
 18, 18, 18, -1, 18, 18, 18, -1, 18, 18, 18, -1,
 18, 18, 18, -1, 18, 18, 18, -1, 18, 18, 18, -1,
 18, 18, 18, -1, 18, 18, 18, -1, 18, 18, 18, -1,
 18, 18, 18, -1, 18, 18, 18, -1, 18, 18, 18, -1,
 18, 18, 18, -1, 18, 18, 18, -1, 18, 18, 18, -1,
 18, 18, 18, -1, 18, 18, 18, -1, 18, 18, 18, -1,
 18, 18, 18, -1, 18, 18, 18, -1, 18, 18, 18, -1,
 18, 18, 18, -1, 18, 18, 18, -1, 18, 18, 18, -1,
 18, 18, 18, -1, 18, 18, 18, -1, 18, 18, 18, -1,
 18, 18, 18, -1, 18, 18, 18, -1, 18, 18, 18, -1,
 18, 18, 18, -1, 18, 18, 18, -1, 18, 18, 18, -1,
 18, 18, 18, -1, 18, 18, 18, -1, 18, 18, 18, -1,
 18, 18, 18, -1, 18, 18, 18, -1, 18, 18, 18, -1,
 18, 18, 18, -1, 18, 18, 18, -1, 18, 18, 18, -1,
 18, 18, 18, -1, 18, 18, 18, -1, 33, 33, 33, -1,
 33, 33, 33, -1, 33, 33, 33, -1, 33, 33, 33, -1,
 33, 33, 33, -1, 33, 33, 33, -1, 33, 33, 33, -1,
 16, 16, 16, -1, 16, 16, 16, -1, 16, 16, 16, -1,
 16, 16, 16, -1, 16, 16, 16, -1, 16, 16, 16, -1,
 16, 16, 16, -1, 16, 16, 16, -1, 16, 16, 16, -1,
 0, 0, 0, -1, 0, 0, 0, -1, 0, 0, 0, -1,
 0, 0, 0, -1, 0, 0, 0, -1, 0, 0, 0, -1,
 0, 0, 0, -1, 0, 0, 0, -1, 0, 0, 0, -1,
 0, 0, 0, -1, 0, 0, 0, -1, 0, 0, 0, -1,
 0, 0, 0, -1, 0, 0, 0, -1, 0, 0, 0, -1,
 17, 17, 17, -1, 17, 17, 17, -1, 17, 17, 17, -1,
 17, 17, 17, -1, 17, 17, 17, -1, 17, 17, 17, -1,
 17, 17, 17, -1, 17, 17, 17, -1, 17, 17, 17, -1,
 15, 15, 15, -1, 15, 15, 15, -1, 15, 15, 15, -1,
 15, 15, 15, -1, 15, 15, 15, -1, 15, 15, 15, -1,
 15, 15, 15, -1, 15, 15, 15, -1, 15, 15, 15, -1,
 15, 15, 15, -1, 15, 15, 15, -1, 15, 15, 15, -1,
 15, 15, 15, -1, 15, 15, 15, -1, 15, 15, 15, -1,
 15, 15, 15, -1, 15, 15, 15, -1, 15, 15, 15, -1,
 15, 15, 15, -1, 15, 15, 15, -1, 15, 15, 15, -1,
 15, 15, 15, -1, 15, 15, 15, -1, 15, 15, 15, -1,
 15, 15, 15, -1, 15, 15, 15, -1, 15, 15, 15, -1,
 15, 15, 15, -1, 15, 15, 15, -1, 15, 15, 15, -1,
 15, 15, 15, -1, 15, 15, 15, -1, 15, 15, 15, -1,
 15, 15, 15, -1, 15, 15, 15, -1, 15, 15, 15, -1,
 15, 15, 15, -1, 15, 15, 15, -1, 15, 15, 15, -1,
 15, 15, 15, -1, 15, 15, 15, -1, 15, 15, 15, -1,
 15, 15, 15, -1, 15, 15, 15, -1, 15, 15, 15, -1,
 15, 15, 15, -1, 15, 15, 15, -1, 15, 15, 15, -1,
 15, 15, 15, -1, 15, 15, 15, -1, 15, 15, 15, -1,
 15, 15, 15, -1, 15, 15, 15, -1, 15, 15, 15, -1,
 15, 15, 15, -1, 15, 15, 15, -1, 15, 15, 15, -1,
 15, 15, 15, -1, 15, 15, 15, -1, 15, 15, 15, -1,
 15, 15, 15, -1, 15, 15, 15, -1, 15, 15, 15, -1,
 15, 15, 15, -1, 15, 15, 15, -1, 15, 15, 15, -1,
 15, 15, 15, -1, 15, 15, 15, -1, 15, 15, 15, -1,
 15, 15, 15, -1, 15, 15, 15, -1, 15, 15, 15, -1,
 15, 15, 15, -1, 15, 15, 15, -1, 15, 15, 15, -1,
 15, 15, 15, -1, 15, 15, 15, -1, 15, 15, 15, -1,
 15, 15, 15, -1, 15, 15, 15, -1, 15, 15, 15, -1,
 15, 15, 15, -1, 15, 15, 15, -1, 15, 15, 15, -1,
 26, 26, 26, -1, 26, 26, 26, -1, 26, 26, 26, -1,
 26, 26, 26, -1, 33, 33, 33, -1, 33, 33, 33, -1,
 33, 33, 33, -1, 33, 33, 33, -1, 33, 33, 33, -1,
 33, 33, 33, -1, 27, 27, 27, -1, 27, 27, 27, -1,
 27, 27, 27, -1, 27, 27, 27, -1, 16, 16, 12, -1,
 12, 16, 12, -1, 12, 12, 10, -1, 10, 12, 10, -1,
 10, 10, 8, -1, 8, 10, 8, -1, 8, 8, 6, -1,
 6, 8, 6, -1, 6, 6, 3, -1, 3, 6, 3, -1,
 3, 3, 0, -1, 0, 3, 0, -1, 0, 0, 4, -1,
 4, 0, 4, -1, 4, 4, 7, -1, 7, 4, 7, -1,
 7, 7, 9, -1, 9, 7, 9, -1, 9, 9, 11, -1,
 11, 9, 11, -1, 11, 11, 13, -1, 13, 11, 13, -1,
 13, 13, 17, -1, 17, 13, 17, -1, 17, 17, 21, -1,
 21, 17, 21, -1, 21, 21, 23, -1, 23, 21, 23, -1,
 23, 23, 25, -1, 25, 23, 25, -1, 25, 25, 29, -1,
 29, 25, 29, -1, 29, 29, 32, -1, 32, 29, 32, -1,
 32, 32, 33, -1, 33, 32, 33, -1, 33, 33, 31, -1,
 31, 33, 31, -1, 31, 31, 28, -1, 28, 31, 28, -1,
 28, 28, 24, -1, 24, 28, 24, -1, 24, 24, 22, -1,
 22, 24, 22, -1, 22, 22, 20, -1, 20, 22, 20, -1,
 20, 20, 16, -1, 16, 20, 16, -1, 3, 6, 5, -1,
 5, 3, 3, -1, 3, 3, 1, -1, 3, 1, 0, -1,
 1, 0, 0, -1, 0, 0, 2, -1, 0, 2, 4, -1,
 4, 2, 4, -1, 4, 4, 7, -1, 7, 4, 7, -1,
 7, 7, 9, -1, 9, 7, 9, -1, 9, 9, 11, -1,
 11, 9, 11, -1, 11, 11, 13, -1, 13, 11, 13, -1,
 13, 13, 17, -1, 17, 13, 17, -1, 17, 17, 21, -1,
 21, 17, 21, -1, 21, 21, 23, -1, 23, 21, 23, -1,
 23, 23, 25, -1, 25, 23, 25, -1, 25, 25, 29, -1,
 29, 25, 29, -1, 29, 29, 32, -1, 32, 29, 32, -1,
 32, 32, 33, -1, 33, 32, 33, -1, 33, 33, 31, -1,
 33, 31, 31, -1, 31, 31, 30, -1, 31, 30, 28, -1,
 28, 30, 28, -1, 28, 28, 24, -1, 24, 28, 24, -1,
 24, 24, 22, -1, 22, 24, 22, -1, 22, 22, 20, -1,
 20, 22, 20, -1, 20, 20, 16, -1, 16, 20, 16, -1,
 16, 16, 12, -1, 12, 16, 12, -1, 12, 12, 10, -1,
 10, 12, 10, -1, 10, 10, 8, -1, 8, 10, 8, -1,
 8, 8, 6, -1, 6, 8, 6, -1, 6, 6, 5, -1,
 33, 33, 33, -1, 33, 33, 33, -1, 16, 16, 16, -1,
 16, 16, 16, -1, 16, 16, 16, -1, 16, 16, 16, -1,
 0, 0, 0, -1, 0, 0, 0, -1, 17, 17, 17, -1,
 17, 17, 17, -1, 17, 17, 17, -1, 17, 17, 17, -1,
 18, 18, 18, -1, 18, 18, 18, -1, 33, 33, 33, -1,
 33, 33, 33, -1, 16, 16, 16, -1, 16, 16, 16, -1,
 16, 16, 16, -1, 16, 16, 16, -1, 16, 16, 16, -1,
 16, 16, 16, -1, 0, 0, 0, -1, 0, 0, 0, -1,
 17, 17, 17, -1, 17, 17, 17, -1, 17, 17, 17, -1,
 17, 17, 17, -1, 17, 17, 17, -1, 17, 17, 17, -1,
 18, 18, 18, -1, 18, 18, 18, -1, 33, 33, 33, -1,
 33, 33, 33, -1, 33, 33, 33, -1, 33, 33, 33, -1,
 16, 16, 16, -1, 16, 16, 16, -1, 0, 0, 0, -1,
 0, 0, 0, -1, 0, 0, 0, -1, 0, 0, 0, -1,
 17, 17, 17, -1, 17, 17, 17, -1, 18, 18, 18, -1,
 18, 18, 18, -1, 17, 13, 14, -1, 14, 17, 17, -1,
 17, 17, 19, -1, 17, 19, 21, -1, 21, 19, 21, -1,
 21, 21, 23, -1, 23, 21, 23, -1, 23, 23, 25, -1,
 25, 23, 25, -1, 25, 25, 29, -1, 29, 25, 29, -1,
 29, 29, 32, -1, 32, 29, 32, -1, 32, 32, 33, -1,
 33, 32, 33, -1, 33, 33, 31, -1, 31, 33, 31, -1,
 31, 31, 28, -1, 28, 31, 28, -1, 28, 28, 24, -1,
 24, 28, 24, -1, 24, 24, 22, -1, 22, 24, 22, -1,
 22, 22, 20, -1, 20, 22, 20, -1, 20, 20, 16, -1,
 16, 20, 16, -1, 16, 16, 12, -1, 12, 16, 12, -1,
 12, 12, 10, -1, 10, 12, 10, -1, 10, 10, 8, -1,
 8, 10, 8, -1, 8, 8, 6, -1, 6, 8, 6, -1,
 6, 6, 3, -1, 3, 6, 3, -1, 3, 3, 0, -1,
 0, 3, 0, -1, 0, 0, 4, -1, 4, 0, 4, -1,
 4, 4, 7, -1, 7, 4, 7, -1, 7, 7, 9, -1,
 9, 7, 9, -1, 9, 9, 11, -1, 11, 9, 11, -1,
 11, 11, 13, -1, 13, 11, 13, -1, 13, 13, 14, -1,
 15, 15, 15, -1, 15, 15, 15, -1, 33, 33, 33, -1,
 33, 33, 33, -1, 33, 33, 33, -1, 16, 16, 16, -1,
 16, 16, 16, -1, 16, 16, 16, -1, 16, 16, 16, -1,
 0, 0, 0, -1, 0, 0, 0, -1, 17, 17, 17, -1,
 17, 17, 17, -1, 17, 17, 17, -1, 17, 17, 17, -1,
 18, 18, 18, -1, 18, 18, 18, -1, 33, 33, 33, -1,
 33, 33, 33, -1, 33, 33, 33, -1, 16, 16, 16, -1,
 16, 16, 16, -1, 16, 16, 16, -1, 16, 16, 16, -1,
 17, 17, 17, -1, 17, 17, 17, -1, 17, 17, 17, -1,
 17, 17, 17, -1, 18, 18, 18, -1, 18, 18, 18, -1,
 15, 15, 15, -1, 15, 15, 15, -1, 33, 33, 33, -1,
 33, 33, 33, -1, 33, 33, 33, -1, 33, 33, 33, -1,
 16, 16, 16, -1, 16, 16, 16, -1, 16, 16, 16, -1,
 16, 16, 16, -1, 0, 0, 0, -1, 0, 0, 0, -1,
 17, 17, 17, -1, 17, 17, 17, -1, 17, 17, 17, -1,
 17, 17, 17, -1, 18, 18, 18, -1, 18, 18, 18, -1,
 33, 33, 33, -1, 33, 33, 33, -1, 16, 16, 16, -1,
 16, 16, 16, -1, 16, 16, 16, -1, 16, 16, 16, -1,
 16, 16, 16, -1, 0, 0, 0, -1, 0, 0, 0, -1,
 17, 17, 17, -1, 17, 17, 17, -1, 17, 17, 17, -1,
 17, 17, 17, -1, 17, 17, 17, -1, 18, 18, 18, -1,
 18, 18, 18, -1, 33, 33, 33, -1, 33, 33, 33, -1,
 33, 33, 33, -1, 16, 16, 16, -1, 16, 16, 16, -1,
 0, 0, 0, -1, 0, 0, 0, -1, 0, 0, 0, -1,
 17, 17, 17, -1, 17, 17, 17, -1, 18, 18, 18, -1,
 18, 18, 18, -1, 33, 33, 33, -1, 33, 33, 33, -1,
 33, 33, 33, -1, 16, 16, 16, -1, 16, 16, 16, -1,
 16, 16, 16, -1, 16, 16, 16, -1, 0, 0, 0, -1,
 0, 0, 0, -1, 0, 0, 0, -1, 17, 17, 17, -1,
 17, 17, 17, -1, 17, 17, 17, -1, 17, 17, 17, -1,
 18, 18, 18, -1, 18, 18, 18, -1
]
colorPerVertex FALSE
normalPerVertex TRUE
}
}
]
}
