#VRML V2.0 utf8
Transform {
children [
Shape {
appearance Appearance {
material Material {
ambientIntensity 1.000000
diffuseColor 1.000000 1.000000 1.000000
emissiveColor 0.210000 0.210000 0.210000
specularColor 0.880000 0.880000 0.880000
shininess 0.210000
transparency 0.000000
}
}
geometry IndexedFaceSet {
color Color {
color [
 1.000000 1.000000 1.000000
]
}
coord Coordinate {
point [
 -0.002699 0.009000 0.000087, -0.002688 0.009000 -0.000259, -0.002665 0.009000 0.000431, -0.002632 0.009000 -0.000601, -0.002588 0.009000 0.000768,
 -0.002534 0.009000 -0.000932, -0.002469 0.009000 0.001093, -0.002394 0.009000 -0.001249, -0.002309 0.009000 0.001400, -0.002214 0.009000 -0.001545,
 -0.002111 0.009000 0.001683, -0.001999 0.009000 -0.001815, -0.001878 0.009000 0.001940, -0.001750 0.009000 -0.002056, -0.001615 0.009000 0.002164,
 -0.001600 0.008000 -0.000450, -0.001600 0.008000 0.000450, -0.001600 0.009000 -0.000450, -0.001600 0.009000 0.000450, -0.001499 0.006900 0.000048,
 -0.001499 -0.000000 -0.000064, -0.001496 0.006900 -0.000064, -0.001493 0.006900 -0.000144, -0.001488 -0.000000 0.000191, -0.001486 0.006900 0.000190,
 -0.001481 0.006900 0.000239, -0.001473 0.009000 -0.002263, -0.001466 -0.000000 -0.000316, -0.001465 0.006900 -0.000316, -0.001462 0.006900 -0.000334,
 -0.001438 0.006900 0.000427, -0.001434 -0.000000 0.000439, -0.001434 0.006900 0.000439, -0.001408 0.006900 -0.000518, -0.001392 -0.000000 -0.000559,
 -0.001390 0.006900 -0.000558, -0.001372 0.006900 0.000607, -0.001339 -0.000000 0.000675, -0.001337 0.006900 0.000674, -0.001330 0.006900 -0.000694,
 -0.001325 0.009000 0.002353, -0.001283 0.006900 0.000778, -0.001277 -0.000000 -0.000786, -0.001275 0.006900 -0.000785, -0.001230 0.006900 -0.000858,
 -0.001206 -0.000000 0.000892, -0.001204 0.006900 0.000891, -0.001173 0.006900 0.000935, -0.001171 0.009000 -0.002433, -0.001126 -0.000000 -0.000991,
 -0.001125 0.006900 -0.000990, -0.001110 0.006900 -0.001008, -0.001044 0.006900 0.001078, -0.001038 -0.000000 0.001083, -0.001038 0.006900 0.001083,
 -0.001013 0.009000 0.002503, -0.000972 0.006900 -0.001142, -0.000942 -0.000000 -0.001167, -0.000941 0.006900 -0.001165, -0.000897 0.006900 0.001202,
 -0.000851 0.009000 -0.002562, -0.000840 -0.000000 0.001243, -0.000838 0.006900 0.001240, -0.000818 0.006900 -0.001257, -0.000736 0.006900 0.001307,
 -0.000732 -0.000000 -0.001310, -0.000730 0.006900 -0.001307, -0.000685 0.009000 0.002612, -0.000651 0.006900 -0.001351, -0.000618 -0.000000 0.001367,
 -0.000617 0.006900 0.001364, -0.000563 0.006900 0.001390, -0.000516 0.009000 -0.002650, -0.000500 -0.000000 -0.001414, -0.000499 0.006900 -0.001413,
 -0.000473 0.006900 -0.001424, -0.000450 0.008000 -0.001600, -0.000450 0.008000 -0.000450, -0.000450 0.008000 0.000450, -0.000450 0.008000 0.001600,
 -0.000450 0.009000 -0.001600, -0.000450 0.009000 -0.000450, -0.000450 0.009000 0.000450, -0.000450 0.009000 0.001600, -0.000380 0.006900 0.001451,
 -0.000378 -0.000000 0.001452, -0.000378 0.006900 0.001451, -0.000345 0.009000 0.002678, -0.000287 0.006900 -0.001472, -0.000254 -0.000000 -0.001478,
 -0.000253 0.006900 -0.001477, -0.000192 0.006900 0.001488, -0.000173 0.009000 -0.002694, -0.000127 -0.000000 0.001495, -0.000127 0.006900 0.001492,
 -0.000096 0.006900 -0.001497, -0.000000 -0.000000 -0.001500, 0.000000 -0.000000 0.000000, 0.000000 0.006900 -0.001500, 0.000000 0.006900 0.001500,
 0.000000 0.009000 -0.002700, 0.000000 0.009000 0.002700, 0.000096 0.006900 -0.001497, 0.000127 0.006900 0.001492, 0.000127 -0.000000 0.001495,
 0.000173 0.009000 -0.002694, 0.000192 0.006900 0.001488, 0.000253 0.006900 -0.001477, 0.000254 -0.000000 -0.001478, 0.000287 0.006900 -0.001472,
 0.000345 0.009000 0.002678, 0.000378 0.006900 0.001451, 0.000378 -0.000000 0.001452, 0.000380 0.006900 0.001451, 0.000450 0.008000 -0.001600,
 0.000450 0.008000 -0.000450, 0.000450 0.008000 0.000450, 0.000450 0.008000 0.001600, 0.000450 0.009000 -0.001600, 0.000450 0.009000 -0.000450,
 0.000450 0.009000 0.000450, 0.000450 0.009000 0.001600, 0.000473 0.006900 -0.001424, 0.000499 0.006900 -0.001413, 0.000500 -0.000000 -0.001414,
 0.000516 0.009000 -0.002650, 0.000563 0.006900 0.001390, 0.000617 0.006900 0.001364, 0.000618 -0.000000 0.001367, 0.000651 0.006900 -0.001351,
 0.000685 0.009000 0.002612, 0.000730 0.006900 -0.001307, 0.000732 -0.000000 -0.001310, 0.000736 0.006900 0.001307, 0.000818 0.006900 -0.001257,
 0.000838 0.006900 0.001240, 0.000840 -0.000000 0.001243, 0.000851 0.009000 -0.002562, 0.000897 0.006900 0.001202, 0.000941 0.006900 -0.001165,
 0.000942 -0.000000 -0.001167, 0.000972 0.006900 -0.001142, 0.001013 0.009000 0.002503, 0.001038 0.006900 0.001083, 0.001038 -0.000000 0.001083,
 0.001044 0.006900 0.001078, 0.001110 0.006900 -0.001008, 0.001125 0.006900 -0.000990, 0.001126 -0.000000 -0.000991, 0.001171 0.009000 -0.002433,
 0.001173 0.006900 0.000935, 0.001204 0.006900 0.000891, 0.001206 -0.000000 0.000892, 0.001230 0.006900 -0.000858, 0.001275 0.006900 -0.000785,
 0.001277 -0.000000 -0.000786, 0.001283 0.006900 0.000778, 0.001325 0.009000 0.002353, 0.001330 0.006900 -0.000694, 0.001337 0.006900 0.000674,
 0.001339 -0.000000 0.000675, 0.001372 0.006900 0.000607, 0.001390 0.006900 -0.000558, 0.001392 -0.000000 -0.000559, 0.001408 0.006900 -0.000518,
 0.001434 0.006900 0.000439, 0.001434 -0.000000 0.000439, 0.001438 0.006900 0.000427, 0.001462 0.006900 -0.000334, 0.001465 0.006900 -0.000316,
 0.001466 -0.000000 -0.000316, 0.001473 0.009000 -0.002263, 0.001481 0.006900 0.000239, 0.001486 0.006900 0.000190, 0.001488 -0.000000 0.000191,
 0.001493 0.006900 -0.000144, 0.001496 0.006900 -0.000064, 0.001499 -0.000000 -0.000064, 0.001499 0.006900 0.000048, 0.001600 0.008000 -0.000450,
 0.001600 0.008000 0.000450, 0.001600 0.009000 -0.000450, 0.001600 0.009000 0.000450, 0.001615 0.009000 0.002164, 0.001750 0.009000 -0.002056,
 0.001878 0.009000 0.001940, 0.001999 0.009000 -0.001815, 0.002111 0.009000 0.001683, 0.002214 0.009000 -0.001545, 0.002309 0.009000 0.001400,
 0.002394 0.009000 -0.001249, 0.002469 0.009000 0.001093, 0.002534 0.009000 -0.000932, 0.002588 0.009000 0.000768, 0.002632 0.009000 -0.000601,
 0.002665 0.009000 0.000431, 0.002688 0.009000 -0.000259, 0.002699 0.009000 0.000087
]
}
normal Normal {
vector [
 -1.000000 0.000000 0.000000, -0.999486 0.000000 0.032052, -0.999099 0.000000 -0.042441, -0.999098 0.000000 -0.042462, -0.995379 0.000000 -0.096023,
 -0.991900 0.000000 0.127018, -0.991894 0.000000 0.127066, -0.987182 0.000000 0.159600, -0.977555 0.000000 -0.210679, -0.977548 0.000000 -0.210715,
 -0.974928 0.000000 -0.222521, -0.958668 0.000000 0.284528, -0.956175 0.000000 0.292795, -0.956167 0.000000 0.292823, -0.938468 0.000000 -0.345365,
 -0.927908 0.000000 -0.372810, -0.927889 0.000000 -0.372856, -0.914413 0.000000 0.404783, -0.892938 0.000000 0.450179, -0.892926 0.000000 0.450204,
 -0.886599 0.000000 -0.462538, -0.867797 -0.496139 0.027829, -0.867460 -0.496139 -0.036867, -0.864231 -0.496139 -0.083371, -0.861205 -0.496139 0.110325,
 -0.857114 -0.496139 0.138572, -0.855143 0.000000 0.518393, -0.851529 0.000000 -0.524307, -0.851522 0.000000 -0.524319, -0.848749 -0.496139 -0.182952,
 -0.846474 -0.496139 -0.193202, -0.832357 -0.496139 0.247039, -0.830193 -0.496139 0.254218, -0.820172 0.000000 -0.572117, -0.814819 -0.496139 -0.299861,
 -0.805650 -0.496139 -0.323689, -0.803997 0.000000 0.594633, -0.803970 0.000000 0.594670, -0.793932 -0.496139 0.351450, -0.781832 0.000000 0.623490,
 -0.775287 -0.496139 0.390865, -0.769784 -0.496139 -0.401596, -0.750672 0.000000 -0.660675, -0.750644 0.000000 -0.660707, -0.742472 -0.496139 0.450091,
 -0.740278 0.000000 -0.672301, -0.739328 -0.496139 -0.455237, -0.712109 -0.496139 -0.496736, -0.698041 -0.496139 0.516319, -0.695683 0.000000 0.718349,
 -0.691952 0.000000 0.721943, -0.691939 0.000000 0.721956, -0.678820 -0.496139 0.541341, -0.651742 -0.496139 -0.573654, -0.648228 0.000000 -0.761446,
 -0.642741 -0.496139 -0.583721, -0.628259 0.000000 -0.778004, -0.628220 0.000000 -0.778036, -0.604022 -0.496139 0.623702, -0.600783 -0.496139 0.626822,
 -0.598111 0.000000 0.801414, -0.562820 -0.496139 -0.661120, -0.560002 0.000000 0.828491, -0.559975 0.000000 0.828510, -0.545535 0.000000 -0.838088,
 -0.545482 -0.496139 -0.675497, -0.519305 -0.496139 0.695822, -0.490718 0.000000 0.871319, -0.487695 0.000000 -0.873014, -0.487689 0.000000 -0.873018,
 -0.486218 -0.496139 0.719332, -0.473657 -0.496139 -0.727664, -0.433884 0.000000 -0.900969, -0.426062 -0.496139 0.756517, -0.423432 -0.496139 -0.757992,
 -0.411901 0.000000 0.911228, -0.411862 0.000000 0.911246, -0.376717 -0.496139 -0.782260, -0.375267 0.000000 0.926917, -0.357597 -0.496139 0.791183,
 -0.333140 0.000000 -0.942877, -0.333096 0.000000 -0.942893, -0.325823 -0.496139 0.804789, -0.315108 0.000000 -0.949056, -0.289208 -0.496139 -0.818660,
 -0.273591 -0.496139 -0.824011, -0.253655 0.000000 0.967295, -0.251985 0.000000 0.967731, -0.251978 0.000000 0.967733, -0.220234 -0.496139 0.839847,
 -0.218784 -0.496139 0.840226, -0.191159 0.000000 -0.981559, -0.169050 0.000000 -0.985608, -0.169001 0.000000 -0.985616, -0.165972 -0.496139 -0.852232,
 -0.146776 -0.496139 -0.855747, -0.127877 0.000000 0.991790, -0.111028 -0.496139 0.861115, -0.084844 0.000000 0.996394, -0.084806 0.000000 0.996397,
 -0.073665 -0.496139 0.865112, -0.064070 0.000000 -0.997945, -0.055629 -0.496139 -0.866459, 0.000000 -1.000000 0.000000, 0.000000 -0.496139 -0.868243,
 0.000000 -0.496139 0.868243, 0.000000 0.000000 -1.000000, 0.000000 0.000000 1.000000, 0.000000 1.000000 0.000000, 0.055629 -0.496139 -0.866459,
 0.064070 0.000000 -0.997945, 0.073665 -0.496139 0.865112, 0.084806 0.000000 0.996397, 0.084844 0.000000 0.996394, 0.111028 -0.496139 0.861115,
 0.127877 0.000000 0.991790, 0.146776 -0.496139 -0.855747, 0.165972 -0.496139 -0.852232, 0.169001 0.000000 -0.985616, 0.169050 0.000000 -0.985608,
 0.191159 0.000000 -0.981559, 0.218784 -0.496139 0.840226, 0.220234 -0.496139 0.839847, 0.251978 0.000000 0.967733, 0.251985 0.000000 0.967731,
 0.253655 0.000000 0.967295, 0.273591 -0.496139 -0.824011, 0.289208 -0.496139 -0.818660, 0.315108 0.000000 -0.949056, 0.325823 -0.496139 0.804789,
 0.333096 0.000000 -0.942893, 0.333140 0.000000 -0.942877, 0.357597 -0.496139 0.791183, 0.375267 0.000000 0.926917, 0.376717 -0.496139 -0.782260,
 0.411862 0.000000 0.911246, 0.411901 0.000000 0.911228, 0.423432 -0.496139 -0.757992, 0.426062 -0.496139 0.756517, 0.433884 0.000000 -0.900969,
 0.473657 -0.496139 -0.727664, 0.486218 -0.496139 0.719332, 0.487689 0.000000 -0.873018, 0.487695 0.000000 -0.873014, 0.490718 0.000000 0.871319,
 0.519305 -0.496139 0.695822, 0.545482 -0.496139 -0.675497, 0.545535 0.000000 -0.838088, 0.559975 0.000000 0.828510, 0.560002 0.000000 0.828491,
 0.562820 -0.496139 -0.661120, 0.598111 0.000000 0.801414, 0.600783 -0.496139 0.626822, 0.604022 -0.496139 0.623702, 0.628220 0.000000 -0.778036,
 0.628259 0.000000 -0.778004, 0.642741 -0.496139 -0.583721, 0.648228 0.000000 -0.761446, 0.651742 -0.496139 -0.573654, 0.678820 -0.496139 0.541341,
 0.691939 0.000000 0.721956, 0.691952 0.000000 0.721943, 0.695683 0.000000 0.718349, 0.698041 -0.496139 0.516319, 0.712109 -0.496139 -0.496736,
 0.739328 -0.496139 -0.455237, 0.740278 0.000000 -0.672301, 0.742472 -0.496139 0.450091, 0.750644 0.000000 -0.660707, 0.750672 0.000000 -0.660675,
 0.769784 -0.496139 -0.401596, 0.775287 -0.496139 0.390865, 0.781832 0.000000 0.623490, 0.793932 -0.496139 0.351450, 0.803970 0.000000 0.594670,
 0.803997 0.000000 0.594633, 0.805650 -0.496139 -0.323689, 0.814819 -0.496139 -0.299861, 0.820172 0.000000 -0.572117, 0.830193 -0.496139 0.254218,
 0.832357 -0.496139 0.247039, 0.846474 -0.496139 -0.193202, 0.848749 -0.496139 -0.182952, 0.851522 0.000000 -0.524319, 0.851529 0.000000 -0.524307,
 0.855143 0.000000 0.518393, 0.857114 -0.496139 0.138572, 0.861205 -0.496139 0.110325, 0.864231 -0.496139 -0.083371, 0.867460 -0.496139 -0.036867,
 0.867797 -0.496139 0.027829, 0.886599 0.000000 -0.462538, 0.892926 0.000000 0.450204, 0.892938 0.000000 0.450179, 0.914413 0.000000 0.404783,
 0.927889 0.000000 -0.372856, 0.927908 0.000000 -0.372810, 0.938468 0.000000 -0.345365, 0.956167 0.000000 0.292823, 0.956175 0.000000 0.292795,
 0.958668 0.000000 0.284528, 0.974928 0.000000 -0.222521, 0.977548 0.000000 -0.210715, 0.977555 0.000000 -0.210679, 0.987182 0.000000 0.159600,
 0.991894 0.000000 0.127066, 0.991900 0.000000 0.127018, 0.995379 0.000000 -0.096023, 0.999098 0.000000 -0.042462, 0.999099 0.000000 -0.042441,
 0.999486 0.000000 0.032052, 1.000000 0.000000 -0.000000
]
}
coordIndex [
 191, 193, 182, -1, 87, 83, 67, -1, 67, 83, 55, -1,
 183, 120, 157, -1, 157, 120, 121, -1, 157, 121, 142, -1,
 87, 101, 83, -1, 83, 101, 110, -1, 83, 110, 121, -1,
 121, 110, 130, -1, 121, 130, 142, -1, 18, 8, 82, -1,
 82, 8, 10, -1, 10, 12, 82, -1, 82, 12, 14, -1,
 82, 14, 83, -1, 83, 14, 40, -1, 83, 40, 55, -1,
 2, 18, 0, -1, 0, 18, 17, -1, 2, 4, 18, -1,
 18, 4, 6, -1, 18, 6, 8, -1, 80, 48, 81, -1,
 81, 48, 26, -1, 81, 26, 13, -1, 194, 192, 181, -1,
 181, 192, 190, -1, 181, 190, 119, -1, 119, 190, 188, -1,
 119, 188, 186, -1, 183, 185, 120, -1, 120, 185, 187, -1,
 120, 187, 182, -1, 182, 187, 189, -1, 182, 189, 191, -1,
 5, 3, 17, -1, 17, 3, 1, -1, 17, 1, 0, -1,
 186, 184, 119, -1, 119, 184, 171, -1, 119, 171, 118, -1,
 118, 171, 149, -1, 118, 149, 137, -1, 193, 195, 182, -1,
 182, 195, 197, -1, 182, 197, 181, -1, 181, 197, 196, -1,
 181, 196, 194, -1, 137, 125, 118, -1, 118, 125, 105, -1,
 118, 105, 80, -1, 80, 105, 100, -1, 80, 100, 92, -1,
 92, 72, 80, -1, 80, 72, 60, -1, 80, 60, 48, -1,
 13, 11, 81, -1, 81, 11, 9, -1, 81, 9, 17, -1,
 17, 9, 7, -1, 17, 7, 5, -1, 96, 108, 97, -1,
 65, 73, 97, -1, 97, 73, 89, -1, 97, 89, 96, -1,
 42, 49, 97, -1, 97, 49, 57, -1, 97, 57, 65, -1,
 20, 27, 97, -1, 97, 27, 34, -1, 97, 34, 42, -1,
 37, 31, 97, -1, 97, 31, 23, -1, 97, 23, 20, -1,
 61, 53, 97, -1, 97, 53, 45, -1, 97, 45, 37, -1,
 93, 85, 97, -1, 97, 85, 69, -1, 97, 69, 61, -1,
 128, 112, 97, -1, 97, 112, 104, -1, 97, 104, 93, -1,
 152, 144, 97, -1, 97, 144, 136, -1, 97, 136, 128, -1,
 174, 166, 97, -1, 97, 166, 160, -1, 97, 160, 152, -1,
 163, 170, 97, -1, 97, 170, 177, -1, 97, 177, 174, -1,
 140, 148, 97, -1, 97, 148, 155, -1, 97, 155, 163, -1,
 108, 124, 97, -1, 97, 124, 132, -1, 97, 132, 140, -1,
 52, 12, 10, -1, 101, 87, 94, -1, 84, 86, 87, -1,
 87, 86, 91, -1, 87, 91, 94, -1, 87, 67, 84, -1,
 84, 67, 55, -1, 84, 55, 71, -1, 71, 55, 70, -1,
 70, 55, 40, -1, 70, 40, 64, -1, 64, 40, 62, -1,
 62, 40, 14, -1, 62, 14, 59, -1, 12, 52, 14, -1,
 14, 52, 54, -1, 14, 54, 59, -1, 8, 46, 10, -1,
 10, 46, 47, -1, 10, 47, 52, -1, 6, 38, 8, -1,
 8, 38, 41, -1, 8, 41, 46, -1, 2, 30, 4, -1,
 4, 30, 32, -1, 4, 32, 6, -1, 6, 32, 36, -1,
 6, 36, 38, -1, 0, 24, 2, -1, 2, 24, 25, -1,
 2, 25, 30, -1, 1, 21, 0, -1, 0, 21, 19, -1,
 0, 19, 24, -1, 5, 29, 3, -1, 3, 29, 28, -1,
 3, 28, 1, -1, 1, 28, 22, -1, 1, 22, 21, -1,
 7, 35, 5, -1, 5, 35, 33, -1, 5, 33, 29, -1,
 9, 43, 7, -1, 7, 43, 39, -1, 7, 39, 35, -1,
 13, 51, 11, -1, 11, 51, 50, -1, 11, 50, 9, -1,
 9, 50, 44, -1, 9, 44, 43, -1, 26, 58, 13, -1,
 13, 58, 56, -1, 13, 56, 51, -1, 48, 66, 26, -1,
 26, 66, 63, -1, 26, 63, 58, -1, 72, 75, 60, -1,
 60, 75, 74, -1, 60, 74, 48, -1, 48, 74, 68, -1,
 48, 68, 66, -1, 92, 90, 72, -1, 72, 90, 88, -1,
 72, 88, 75, -1, 137, 109, 125, -1, 125, 109, 107, -1,
 125, 107, 105, -1, 105, 107, 102, -1, 105, 102, 100, -1,
 100, 102, 98, -1, 100, 98, 92, -1, 92, 98, 95, -1,
 92, 95, 90, -1, 149, 123, 137, -1, 137, 123, 122, -1,
 137, 122, 109, -1, 171, 131, 149, -1, 149, 131, 129, -1,
 149, 129, 123, -1, 186, 141, 184, -1, 184, 141, 139, -1,
 184, 139, 171, -1, 171, 139, 134, -1, 171, 134, 131, -1,
 188, 147, 186, -1, 186, 147, 146, -1, 186, 146, 141, -1,
 190, 154, 188, -1, 188, 154, 153, -1, 188, 153, 147, -1,
 194, 164, 192, -1, 192, 164, 162, -1, 192, 162, 190, -1,
 190, 162, 158, -1, 190, 158, 154, -1, 196, 169, 194, -1,
 194, 169, 168, -1, 194, 168, 164, -1, 197, 176, 196, -1,
 196, 176, 175, -1, 196, 175, 169, -1, 193, 172, 195, -1,
 195, 172, 173, -1, 195, 173, 197, -1, 197, 173, 178, -1,
 197, 178, 176, -1, 191, 165, 193, -1, 193, 165, 167, -1,
 193, 167, 172, -1, 189, 159, 191, -1, 191, 159, 161, -1,
 191, 161, 165, -1, 185, 150, 187, -1, 187, 150, 151, -1,
 187, 151, 189, -1, 189, 151, 156, -1, 189, 156, 159, -1,
 183, 143, 185, -1, 185, 143, 145, -1, 185, 145, 150, -1,
 157, 135, 183, -1, 183, 135, 138, -1, 183, 138, 143, -1,
 130, 126, 142, -1, 142, 126, 127, -1, 142, 127, 157, -1,
 157, 127, 133, -1, 157, 133, 135, -1, 110, 111, 130, -1,
 130, 111, 113, -1, 130, 113, 126, -1, 94, 99, 101, -1,
 101, 99, 103, -1, 101, 103, 110, -1, 110, 103, 106, -1,
 110, 106, 111, -1, 88, 90, 89, -1, 89, 90, 95, -1,
 89, 95, 96, -1, 65, 68, 73, -1, 73, 68, 74, -1,
 73, 74, 89, -1, 89, 74, 75, -1, 89, 75, 88, -1,
 56, 58, 57, -1, 57, 58, 63, -1, 57, 63, 65, -1,
 65, 63, 66, -1, 65, 66, 68, -1, 42, 44, 49, -1,
 49, 44, 50, -1, 49, 50, 57, -1, 57, 50, 51, -1,
 57, 51, 56, -1, 33, 35, 34, -1, 34, 35, 39, -1,
 34, 39, 42, -1, 42, 39, 43, -1, 42, 43, 44, -1,
 20, 22, 27, -1, 27, 22, 28, -1, 27, 28, 34, -1,
 34, 28, 29, -1, 34, 29, 33, -1, 25, 24, 23, -1,
 23, 24, 19, -1, 23, 19, 20, -1, 20, 19, 21, -1,
 20, 21, 22, -1, 37, 36, 31, -1, 31, 36, 32, -1,
 31, 32, 23, -1, 23, 32, 30, -1, 23, 30, 25, -1,
 47, 46, 45, -1, 45, 46, 41, -1, 45, 41, 37, -1,
 37, 41, 38, -1, 37, 38, 36, -1, 61, 59, 53, -1,
 53, 59, 54, -1, 53, 54, 45, -1, 45, 54, 52, -1,
 45, 52, 47, -1, 69, 64, 61, -1, 61, 64, 62, -1,
 61, 62, 59, -1, 84, 71, 69, -1, 69, 71, 70, -1,
 69, 70, 64, -1, 84, 69, 86, -1, 86, 69, 85, -1,
 86, 85, 91, -1, 91, 85, 93, -1, 91, 93, 94, -1,
 94, 93, 99, -1, 99, 93, 104, -1, 99, 104, 103, -1,
 103, 104, 106, -1, 106, 104, 112, -1, 106, 112, 111, -1,
 111, 112, 113, -1, 113, 112, 128, -1, 113, 128, 126, -1,
 136, 133, 128, -1, 128, 133, 127, -1, 128, 127, 126, -1,
 144, 138, 136, -1, 136, 138, 135, -1, 136, 135, 133, -1,
 151, 150, 152, -1, 152, 150, 145, -1, 152, 145, 144, -1,
 144, 145, 143, -1, 144, 143, 138, -1, 151, 152, 156, -1,
 156, 152, 160, -1, 156, 160, 159, -1, 159, 160, 161, -1,
 161, 160, 166, -1, 161, 166, 165, -1, 165, 166, 167, -1,
 167, 166, 174, -1, 167, 174, 172, -1, 177, 178, 174, -1,
 174, 178, 173, -1, 174, 173, 172, -1, 170, 175, 177, -1,
 177, 175, 176, -1, 177, 176, 178, -1, 162, 164, 163, -1,
 163, 164, 168, -1, 163, 168, 170, -1, 170, 168, 169, -1,
 170, 169, 175, -1, 162, 163, 158, -1, 158, 163, 155, -1,
 158, 155, 154, -1, 154, 155, 153, -1, 153, 155, 148, -1,
 153, 148, 147, -1, 147, 148, 146, -1, 146, 148, 140, -1,
 146, 140, 141, -1, 132, 134, 140, -1, 140, 134, 139, -1,
 140, 139, 141, -1, 122, 123, 124, -1, 124, 123, 129, -1,
 124, 129, 132, -1, 132, 129, 131, -1, 132, 131, 134, -1,
 95, 98, 96, -1, 96, 98, 102, -1, 96, 102, 108, -1,
 108, 102, 107, -1, 108, 107, 124, -1, 124, 107, 109, -1,
 124, 109, 122, -1, 114, 115, 118, -1, 118, 115, 119, -1,
 115, 179, 119, -1, 119, 179, 181, -1, 179, 180, 181, -1,
 181, 180, 182, -1, 180, 116, 182, -1, 182, 116, 120, -1,
 116, 117, 120, -1, 120, 117, 121, -1, 117, 79, 121, -1,
 121, 79, 83, -1, 79, 78, 83, -1, 83, 78, 82, -1,
 78, 16, 82, -1, 82, 16, 18, -1, 16, 15, 18, -1,
 18, 15, 17, -1, 15, 77, 17, -1, 17, 77, 81, -1,
 77, 76, 81, -1, 81, 76, 80, -1, 76, 114, 80, -1,
 80, 114, 118, -1, 180, 179, 116, -1, 116, 179, 115, -1,
 15, 16, 77, -1, 77, 16, 78, -1, 79, 117, 78, -1,
 78, 117, 116, -1, 78, 116, 77, -1, 77, 116, 115, -1,
 77, 115, 76, -1, 76, 115, 114, -1
]
normalIndex [
 108, 108, 108, -1, 108, 108, 108, -1, 108, 108, 108, -1,
 108, 108, 108, -1, 108, 108, 108, -1, 108, 108, 108, -1,
 108, 108, 108, -1, 108, 108, 108, -1, 108, 108, 108, -1,
 108, 108, 108, -1, 108, 108, 108, -1, 108, 108, 108, -1,
 108, 108, 108, -1, 108, 108, 108, -1, 108, 108, 108, -1,
 108, 108, 108, -1, 108, 108, 108, -1, 108, 108, 108, -1,
 108, 108, 108, -1, 108, 108, 108, -1, 108, 108, 108, -1,
 108, 108, 108, -1, 108, 108, 108, -1, 108, 108, 108, -1,
 108, 108, 108, -1, 108, 108, 108, -1, 108, 108, 108, -1,
 108, 108, 108, -1, 108, 108, 108, -1, 108, 108, 108, -1,
 108, 108, 108, -1, 108, 108, 108, -1, 108, 108, 108, -1,
 108, 108, 108, -1, 108, 108, 108, -1, 108, 108, 108, -1,
 108, 108, 108, -1, 108, 108, 108, -1, 108, 108, 108, -1,
 108, 108, 108, -1, 108, 108, 108, -1, 108, 108, 108, -1,
 108, 108, 108, -1, 108, 108, 108, -1, 108, 108, 108, -1,
 108, 108, 108, -1, 108, 108, 108, -1, 108, 108, 108, -1,
 108, 108, 108, -1, 108, 108, 108, -1, 108, 108, 108, -1,
 108, 108, 108, -1, 108, 108, 108, -1, 108, 108, 108, -1,
 108, 108, 108, -1, 108, 108, 108, -1, 108, 108, 108, -1,
 108, 108, 108, -1, 108, 108, 108, -1, 108, 108, 108, -1,
 108, 108, 108, -1, 108, 108, 108, -1, 103, 103, 103, -1,
 103, 103, 103, -1, 103, 103, 103, -1, 103, 103, 103, -1,
 103, 103, 103, -1, 103, 103, 103, -1, 103, 103, 103, -1,
 103, 103, 103, -1, 103, 103, 103, -1, 103, 103, 103, -1,
 103, 103, 103, -1, 103, 103, 103, -1, 103, 103, 103, -1,
 103, 103, 103, -1, 103, 103, 103, -1, 103, 103, 103, -1,
 103, 103, 103, -1, 103, 103, 103, -1, 103, 103, 103, -1,
 103, 103, 103, -1, 103, 103, 103, -1, 103, 103, 103, -1,
 103, 103, 103, -1, 103, 103, 103, -1, 103, 103, 103, -1,
 103, 103, 103, -1, 103, 103, 103, -1, 103, 103, 103, -1,
 103, 103, 103, -1, 103, 103, 103, -1, 103, 103, 103, -1,
 103, 103, 103, -1, 103, 103, 103, -1, 103, 103, 103, -1,
 103, 103, 103, -1, 103, 103, 103, -1, 103, 103, 103, -1,
 58, 58, 52, -1, 105, 97, 100, -1, 89, 90, 97, -1,
 97, 90, 97, -1, 97, 97, 100, -1, 97, 89, 89, -1,
 89, 89, 82, -1, 89, 82, 82, -1, 82, 82, 79, -1,
 79, 82, 73, -1, 79, 73, 73, -1, 73, 73, 70, -1,
 70, 73, 66, -1, 70, 66, 66, -1, 58, 58, 66, -1,
 66, 58, 59, -1, 66, 59, 66, -1, 44, 48, 52, -1,
 52, 48, 52, -1, 52, 52, 58, -1, 38, 40, 44, -1,
 44, 40, 44, -1, 44, 44, 48, -1, 25, 31, 31, -1,
 31, 31, 32, -1, 31, 32, 38, -1, 38, 32, 38, -1,
 38, 38, 40, -1, 21, 24, 25, -1, 25, 24, 25, -1,
 25, 25, 31, -1, 23, 22, 21, -1, 21, 22, 21, -1,
 21, 21, 24, -1, 34, 30, 30, -1, 30, 30, 29, -1,
 30, 29, 23, -1, 23, 29, 23, -1, 23, 23, 22, -1,
 41, 35, 34, -1, 34, 35, 34, -1, 34, 34, 30, -1,
 47, 46, 41, -1, 41, 46, 41, -1, 41, 41, 35, -1,
 61, 55, 55, -1, 55, 55, 53, -1, 55, 53, 47, -1,
 47, 53, 47, -1, 47, 47, 46, -1, 71, 65, 61, -1,
 61, 65, 61, -1, 61, 61, 55, -1, 77, 74, 71, -1,
 71, 74, 71, -1, 71, 71, 65, -1, 94, 85, 85, -1,
 85, 85, 84, -1, 85, 84, 77, -1, 77, 84, 77, -1,
 77, 77, 74, -1, 102, 95, 94, -1, 94, 95, 94, -1,
 94, 94, 85, -1, 126, 117, 117, -1, 117, 117, 116, -1,
 117, 116, 109, -1, 109, 116, 109, -1, 109, 109, 104, -1,
 104, 109, 104, -1, 104, 104, 102, -1, 102, 104, 102, -1,
 102, 102, 95, -1, 134, 127, 126, -1, 126, 127, 126, -1,
 126, 126, 117, -1, 140, 137, 134, -1, 134, 137, 134, -1,
 134, 134, 127, -1, 156, 150, 150, -1, 150, 150, 146, -1,
 150, 146, 140, -1, 140, 146, 140, -1, 140, 140, 137, -1,
 164, 158, 156, -1, 156, 158, 156, -1, 156, 156, 150, -1,
 170, 165, 164, -1, 164, 165, 164, -1, 164, 164, 158, -1,
 181, 177, 177, -1, 177, 177, 176, -1, 177, 176, 170, -1,
 170, 176, 170, -1, 170, 170, 165, -1, 188, 182, 181, -1,
 181, 182, 181, -1, 181, 181, 177, -1, 190, 189, 188, -1,
 188, 189, 188, -1, 188, 188, 182, -1, 180, 186, 186, -1,
 186, 186, 187, -1, 186, 187, 190, -1, 190, 187, 190, -1,
 190, 190, 189, -1, 173, 179, 180, -1, 180, 179, 180, -1,
 180, 180, 186, -1, 167, 171, 173, -1, 173, 171, 173, -1,
 173, 173, 179, -1, 153, 159, 159, -1, 159, 159, 163, -1,
 159, 163, 167, -1, 167, 163, 167, -1, 167, 167, 171, -1,
 145, 152, 153, -1, 153, 152, 153, -1, 153, 153, 159, -1,
 138, 141, 145, -1, 145, 141, 145, -1, 145, 145, 152, -1,
 122, 129, 129, -1, 129, 129, 132, -1, 129, 132, 138, -1,
 138, 132, 138, -1, 138, 138, 141, -1, 114, 121, 122, -1,
 122, 121, 122, -1, 122, 122, 129, -1, 100, 105, 105, -1,
 105, 105, 111, -1, 105, 111, 114, -1, 114, 111, 114, -1,
 114, 114, 121, -1, 91, 92, 93, -1, 93, 92, 101, -1,
 93, 101, 106, -1, 68, 72, 80, -1, 80, 72, 81, -1,
 80, 81, 93, -1, 93, 81, 83, -1, 93, 83, 91, -1,
 54, 56, 57, -1, 57, 56, 64, -1, 57, 64, 68, -1,
 68, 64, 69, -1, 68, 69, 72, -1, 27, 33, 42, -1,
 42, 33, 43, -1, 42, 43, 57, -1, 57, 43, 45, -1,
 57, 45, 54, -1, 14, 15, 16, -1, 16, 15, 20, -1,
 16, 20, 27, -1, 27, 20, 28, -1, 27, 28, 33, -1,
 2, 4, 8, -1, 8, 4, 9, -1, 8, 9, 16, -1,
 16, 9, 10, -1, 16, 10, 14, -1, 7, 6, 5, -1,
 5, 6, 1, -1, 5, 1, 2, -1, 2, 1, 3, -1,
 2, 3, 4, -1, 19, 17, 13, -1, 13, 17, 12, -1,
 13, 12, 5, -1, 5, 12, 11, -1, 5, 11, 7, -1,
 39, 37, 36, -1, 36, 37, 26, -1, 36, 26, 19, -1,
 19, 26, 18, -1, 19, 18, 17, -1, 63, 60, 51, -1,
 51, 60, 50, -1, 51, 50, 36, -1, 36, 50, 49, -1,
 36, 49, 39, -1, 75, 67, 63, -1, 63, 67, 62, -1,
 63, 62, 60, -1, 86, 78, 75, -1, 75, 78, 76, -1,
 75, 76, 67, -1, 86, 75, 87, -1, 87, 75, 88, -1,
 87, 88, 96, -1, 96, 88, 99, -1, 96, 99, 98, -1,
 98, 99, 107, -1, 107, 99, 112, -1, 107, 112, 113, -1,
 113, 112, 115, -1, 115, 112, 123, -1, 115, 123, 124, -1,
 124, 123, 125, -1, 125, 123, 136, -1, 125, 136, 133, -1,
 148, 144, 136, -1, 136, 144, 135, -1, 136, 135, 133, -1,
 160, 151, 148, -1, 148, 151, 149, -1, 148, 149, 144, -1,
 174, 172, 175, -1, 175, 172, 162, -1, 175, 162, 160, -1,
 160, 162, 161, -1, 160, 161, 151, -1, 174, 175, 185, -1,
 185, 175, 192, -1, 185, 192, 193, -1, 193, 192, 194, -1,
 194, 192, 198, -1, 194, 198, 199, -1, 199, 198, 200, -1,
 200, 198, 206, -1, 200, 206, 204, -1, 209, 210, 206, -1,
 206, 210, 205, -1, 206, 205, 204, -1, 203, 207, 209, -1,
 209, 207, 208, -1, 209, 208, 210, -1, 196, 197, 195, -1,
 195, 197, 201, -1, 195, 201, 203, -1, 203, 201, 202, -1,
 203, 202, 207, -1, 196, 195, 191, -1, 191, 195, 184, -1,
 191, 184, 183, -1, 183, 184, 178, -1, 178, 184, 169, -1,
 178, 169, 168, -1, 168, 169, 166, -1, 166, 169, 154, -1,
 166, 154, 157, -1, 143, 147, 154, -1, 154, 147, 155, -1,
 154, 155, 157, -1, 128, 130, 131, -1, 131, 130, 139, -1,
 131, 139, 143, -1, 143, 139, 142, -1, 143, 142, 147, -1,
 101, 106, 106, -1, 106, 106, 110, -1, 106, 110, 118, -1,
 118, 110, 119, -1, 118, 119, 131, -1, 131, 119, 120, -1,
 131, 120, 128, -1, 0, 0, 0, -1, 0, 0, 0, -1,
 107, 107, 107, -1, 107, 107, 107, -1, 0, 0, 0, -1,
 0, 0, 0, -1, 106, 106, 106, -1, 106, 106, 106, -1,
 0, 0, 0, -1, 0, 0, 0, -1, 106, 106, 106, -1,
 106, 106, 106, -1, 211, 211, 211, -1, 211, 211, 211, -1,
 106, 106, 106, -1, 106, 106, 106, -1, 211, 211, 211, -1,
 211, 211, 211, -1, 107, 107, 107, -1, 107, 107, 107, -1,
 211, 211, 211, -1, 211, 211, 211, -1, 107, 107, 107, -1,
 107, 107, 107, -1, 108, 108, 108, -1, 108, 108, 108, -1,
 108, 108, 108, -1, 108, 108, 108, -1, 108, 108, 108, -1,
 108, 108, 108, -1, 108, 108, 108, -1, 108, 108, 108, -1,
 108, 108, 108, -1, 108, 108, 108, -1
]
colorPerVertex FALSE
normalPerVertex TRUE
}
}
]
}
