#VRML V2.0 utf8
Transform {
children [
Shape {
appearance Appearance {
material Material {
ambientIntensity 1.000000
diffuseColor 1.000000 1.000000 1.000000
emissiveColor 0.210000 0.210000 0.210000
specularColor 0.880000 0.880000 0.880000
shininess 0.210000
transparency 0.000000
}
}
geometry IndexedFaceSet {
color Color {
color [
 1.000000 1.000000 1.000000
]
}
coord Coordinate {
point [
 -0.002598 -0.000000 -0.000171, -0.002598 0.009800 -0.000171, -0.001348 0.009800 -0.000073, -0.001348 0.015600 -0.000073, -0.001332 0.009800 0.000218,
 -0.001332 0.015600 0.000218, -0.001301 0.009800 -0.000361, -0.001301 0.015600 -0.000361, -0.001299 0.000000 -0.002421, -0.001299 -0.000000 0.002079,
 -0.001299 0.009800 -0.002421, -0.001299 0.009800 0.002079, -0.001254 0.009800 0.000500, -0.001254 0.015600 0.000500, -0.001198 0.000000 0.000070,
 -0.001198 0.008900 0.000070, -0.001193 0.009800 -0.000632, -0.001193 0.015600 -0.000632, -0.001182 0.000000 -0.000208, -0.001182 0.008900 -0.000208,
 -0.001150 0.000000 0.000344, -0.001150 0.008900 0.000344, -0.001117 0.009800 0.000758, -0.001117 0.015600 0.000758, -0.001102 0.000000 -0.000475,
 -0.001102 0.008900 -0.000475, -0.001039 0.000000 0.000600, -0.001039 0.008900 0.000600, -0.001029 0.009800 -0.000874, -0.001029 0.015600 -0.000874,
 -0.000963 0.000000 -0.000717, -0.000963 0.008900 -0.000717, -0.000928 0.009800 0.000980, -0.000928 0.015600 0.000980, -0.000873 0.000000 0.000823,
 -0.000873 0.008900 0.000823, -0.000817 0.009800 -0.001075, -0.000817 0.015600 -0.001075, -0.000771 0.000000 -0.000919, -0.000771 0.008900 -0.000919,
 -0.000696 0.009800 0.001157, -0.000696 0.015600 0.001157, -0.000659 0.000000 0.001003, -0.000659 0.008900 0.001003, -0.000567 0.009800 -0.001225,
 -0.000567 0.015600 -0.001225, -0.000539 0.000000 -0.001072, -0.000539 0.008900 -0.001072, -0.000431 0.009800 0.001279, -0.000431 0.015600 0.001279,
 -0.000410 0.000000 0.001128, -0.000410 0.008900 0.001128, -0.000290 0.009800 -0.001318, -0.000290 0.015600 -0.001318, -0.000277 0.000000 -0.001168,
 -0.000277 0.008900 -0.001168, -0.000146 0.009800 0.001342, -0.000146 0.015600 0.001342, -0.000139 0.000000 0.001192, -0.000139 0.008900 0.001192,
 0.000000 0.000000 -0.001200, -0.000000 0.008900 -0.001200, 0.000000 0.008900 0.000000, 0.000000 0.009800 -0.001350, 0.000000 0.009800 0.001350,
 0.000000 0.015600 -0.001350, 0.000000 0.015600 0.000000, 0.000000 0.015600 0.001350, 0.000139 0.000000 0.001192, 0.000139 0.008900 0.001192,
 0.000146 0.009800 0.001342, 0.000146 0.015600 0.001342, 0.000277 0.000000 -0.001168, 0.000277 0.008900 -0.001168, 0.000290 0.009800 -0.001318,
 0.000290 0.015600 -0.001318, 0.000410 0.000000 0.001128, 0.000410 0.008900 0.001128, 0.000431 0.009800 0.001279, 0.000431 0.015600 0.001279,
 0.000539 0.000000 -0.001072, 0.000539 0.008900 -0.001072, 0.000567 0.009800 -0.001225, 0.000567 0.015600 -0.001225, 0.000659 0.000000 0.001003,
 0.000659 0.008900 0.001003, 0.000696 0.009800 0.001157, 0.000696 0.015600 0.001157, 0.000771 0.000000 -0.000919, 0.000771 0.008900 -0.000919,
 0.000817 0.009800 -0.001075, 0.000817 0.015600 -0.001075, 0.000873 0.000000 0.000823, 0.000873 0.008900 0.000823, 0.000928 0.009800 0.000980,
 0.000928 0.015600 0.000980, 0.000963 0.000000 -0.000717, 0.000963 0.008900 -0.000717, 0.001029 0.009800 -0.000874, 0.001029 0.015600 -0.000874,
 0.001039 0.000000 0.000600, 0.001039 0.008900 0.000600, 0.001102 0.000000 -0.000475, 0.001102 0.008900 -0.000475, 0.001117 0.009800 0.000758,
 0.001117 0.015600 0.000758, 0.001150 0.000000 0.000344, 0.001150 0.008900 0.000344, 0.001182 0.000000 -0.000208, 0.001182 0.008900 -0.000208,
 0.001193 0.009800 -0.000632, 0.001193 0.015600 -0.000632, 0.001198 0.000000 0.000070, 0.001198 0.008900 0.000070, 0.001254 0.009800 0.000500,
 0.001254 0.015600 0.000500, 0.001299 0.000000 -0.002421, 0.001299 -0.000000 0.002079, 0.001299 0.009800 -0.002421, 0.001299 0.009800 0.002079,
 0.001301 0.009800 -0.000361, 0.001301 0.015600 -0.000361, 0.001332 0.009800 0.000218, 0.001332 0.015600 0.000218, 0.001348 0.009800 -0.000073,
 0.001348 0.015600 -0.000073, 0.002598 -0.000000 -0.000171, 0.002598 0.009800 -0.000171
]
}
normal Normal {
vector [
 -0.998533 0.000000 -0.054139, -0.998308 0.000000 -0.058145, -0.986827 0.000000 0.161782, -0.984808 0.000000 0.173648, -0.963550 0.000000 -0.267528,
 -0.957990 0.000000 -0.286803, -0.928977 0.000000 0.370138, -0.918216 0.000000 0.396080, -0.883512 0.000000 -0.468408, -0.866025 0.000000 -0.500000,
 -0.866025 0.000000 0.500000, -0.827689 0.000000 0.561187, -0.802123 0.000000 0.597159, -0.762162 0.000000 -0.647386, -0.727374 0.000000 -0.686242,
 -0.687699 0.000000 0.725995, -0.642788 0.000000 0.766044, -0.605174 0.000000 -0.796093, -0.549509 0.000000 -0.835488, -0.515554 0.000000 0.856857,
 -0.448799 0.000000 0.893633, -0.419889 0.000000 -0.907575, -0.342020 0.000000 -0.939693, -0.319302 0.000000 0.947653, -0.230616 0.000000 0.973045,
 -0.214970 0.000000 -0.976621, -0.116093 0.000000 -0.993238, -0.108119 0.000000 0.994138, 0.000000 -1.000000 0.000000, -0.000000 0.000000 -1.000000,
 0.000000 0.000000 1.000000, 0.000000 1.000000 0.000000, 0.108119 0.000000 0.994138, 0.116093 0.000000 -0.993238, 0.214970 0.000000 -0.976621,
 0.230616 0.000000 0.973045, 0.319302 0.000000 0.947653, 0.342020 0.000000 -0.939693, 0.419889 0.000000 -0.907575, 0.448799 0.000000 0.893633,
 0.515554 0.000000 0.856857, 0.549509 0.000000 -0.835488, 0.605174 0.000000 -0.796093, 0.642788 0.000000 0.766044, 0.687699 0.000000 0.725995,
 0.727374 0.000000 -0.686242, 0.762162 0.000000 -0.647386, 0.802123 0.000000 0.597159, 0.827689 0.000000 0.561187, 0.866025 0.000000 -0.500000,
 0.866025 0.000000 0.500000, 0.883512 0.000000 -0.468408, 0.918216 0.000000 0.396080, 0.928977 0.000000 0.370138, 0.957990 0.000000 -0.286803,
 0.963550 0.000000 -0.267528, 0.984808 0.000000 0.173648, 0.986827 0.000000 0.161782, 0.998308 0.000000 -0.058145, 0.998533 0.000000 -0.054139
]
}
coordIndex [
 127, 119, 126, -1, 126, 119, 117, -1, 118, 127, 116, -1,
 116, 127, 126, -1, 10, 118, 8, -1, 8, 118, 116, -1,
 1, 10, 0, -1, 0, 10, 8, -1, 11, 1, 9, -1,
 9, 1, 0, -1, 119, 11, 117, -1, 117, 11, 9, -1,
 94, 86, 119, -1, 56, 48, 11, -1, 11, 48, 40, -1,
 127, 120, 124, -1, 86, 78, 119, -1, 119, 78, 70, -1,
 119, 70, 11, -1, 11, 70, 64, -1, 11, 64, 56, -1,
 1, 4, 2, -1, 124, 122, 127, -1, 127, 122, 114, -1,
 127, 114, 119, -1, 119, 114, 104, -1, 119, 104, 94, -1,
 40, 32, 11, -1, 11, 32, 22, -1, 11, 22, 1, -1,
 1, 22, 12, -1, 1, 12, 4, -1, 74, 82, 118, -1,
 2, 6, 1, -1, 1, 6, 16, -1, 1, 16, 10, -1,
 10, 16, 28, -1, 10, 28, 36, -1, 36, 44, 10, -1,
 10, 44, 52, -1, 10, 52, 118, -1, 118, 52, 63, -1,
 118, 63, 74, -1, 82, 90, 118, -1, 118, 90, 98, -1,
 118, 98, 127, -1, 127, 98, 110, -1, 127, 110, 120, -1,
 34, 42, 9, -1, 88, 80, 116, -1, 80, 72, 116, -1,
 116, 72, 60, -1, 116, 60, 8, -1, 8, 60, 54, -1,
 8, 54, 46, -1, 46, 38, 8, -1, 8, 38, 30, -1,
 8, 30, 0, -1, 0, 30, 24, -1, 0, 24, 18, -1,
 42, 50, 9, -1, 9, 50, 58, -1, 9, 58, 117, -1,
 58, 68, 117, -1, 117, 68, 76, -1, 117, 76, 84, -1,
 18, 14, 0, -1, 0, 14, 20, -1, 0, 20, 9, -1,
 9, 20, 26, -1, 9, 26, 34, -1, 84, 92, 117, -1,
 117, 92, 100, -1, 117, 100, 126, -1, 126, 100, 106, -1,
 126, 106, 112, -1, 112, 108, 126, -1, 126, 108, 102, -1,
 126, 102, 116, -1, 116, 102, 96, -1, 116, 96, 88, -1,
 71, 67, 64, -1, 64, 67, 56, -1, 67, 57, 56, -1,
 56, 57, 49, -1, 56, 49, 48, -1, 48, 49, 41, -1,
 48, 41, 40, -1, 40, 41, 33, -1, 40, 33, 32, -1,
 32, 33, 23, -1, 32, 23, 22, -1, 22, 23, 13, -1,
 22, 13, 12, -1, 12, 13, 5, -1, 12, 5, 4, -1,
 4, 5, 3, -1, 4, 3, 2, -1, 2, 3, 7, -1,
 2, 7, 6, -1, 6, 7, 17, -1, 6, 17, 16, -1,
 16, 17, 29, -1, 16, 29, 28, -1, 28, 29, 37, -1,
 28, 37, 36, -1, 36, 37, 45, -1, 36, 45, 44, -1,
 44, 45, 53, -1, 44, 53, 52, -1, 52, 53, 65, -1,
 52, 65, 63, -1, 63, 65, 75, -1, 63, 75, 74, -1,
 74, 75, 83, -1, 74, 83, 82, -1, 82, 83, 91, -1,
 82, 91, 90, -1, 90, 91, 99, -1, 90, 99, 98, -1,
 98, 99, 111, -1, 98, 111, 110, -1, 110, 111, 121, -1,
 110, 121, 120, -1, 120, 121, 125, -1, 120, 125, 124, -1,
 124, 125, 123, -1, 124, 123, 122, -1, 122, 123, 115, -1,
 122, 115, 114, -1, 114, 115, 105, -1, 114, 105, 104, -1,
 104, 105, 95, -1, 104, 95, 94, -1, 94, 95, 87, -1,
 94, 87, 86, -1, 86, 87, 79, -1, 86, 79, 78, -1,
 78, 79, 71, -1, 78, 71, 70, -1, 70, 71, 64, -1,
 49, 57, 66, -1, 66, 57, 67, -1, 66, 67, 71, -1,
 23, 33, 66, -1, 66, 33, 41, -1, 66, 41, 49, -1,
 3, 5, 66, -1, 66, 5, 13, -1, 66, 13, 23, -1,
 29, 17, 66, -1, 66, 17, 7, -1, 66, 7, 3, -1,
 53, 45, 66, -1, 66, 45, 37, -1, 66, 37, 29, -1,
 83, 75, 66, -1, 66, 75, 65, -1, 66, 65, 53, -1,
 111, 99, 66, -1, 66, 99, 91, -1, 66, 91, 83, -1,
 123, 125, 66, -1, 66, 125, 121, -1, 66, 121, 111, -1,
 95, 105, 66, -1, 66, 105, 115, -1, 66, 115, 123, -1,
 71, 79, 66, -1, 66, 79, 87, -1, 66, 87, 95, -1,
 61, 60, 73, -1, 73, 60, 72, -1, 73, 72, 81, -1,
 81, 72, 80, -1, 81, 80, 89, -1, 89, 80, 88, -1,
 89, 88, 97, -1, 97, 88, 96, -1, 97, 96, 103, -1,
 103, 96, 102, -1, 103, 102, 109, -1, 109, 102, 108, -1,
 109, 108, 113, -1, 113, 108, 112, -1, 113, 112, 107, -1,
 107, 112, 106, -1, 107, 106, 101, -1, 101, 106, 100, -1,
 101, 100, 93, -1, 93, 100, 92, -1, 93, 92, 85, -1,
 85, 92, 84, -1, 85, 84, 77, -1, 77, 84, 76, -1,
 77, 76, 69, -1, 69, 76, 68, -1, 69, 68, 59, -1,
 59, 68, 58, -1, 59, 58, 51, -1, 51, 58, 50, -1,
 51, 50, 43, -1, 43, 50, 42, -1, 43, 42, 35, -1,
 35, 42, 34, -1, 35, 34, 27, -1, 27, 34, 26, -1,
 27, 26, 21, -1, 21, 26, 20, -1, 21, 20, 15, -1,
 15, 20, 14, -1, 15, 14, 19, -1, 19, 14, 18, -1,
 19, 18, 25, -1, 25, 18, 24, -1, 25, 24, 31, -1,
 31, 24, 30, -1, 31, 30, 39, -1, 39, 30, 38, -1,
 39, 38, 47, -1, 47, 38, 46, -1, 47, 46, 55, -1,
 55, 46, 54, -1, 55, 54, 61, -1, 61, 54, 60, -1,
 47, 55, 62, -1, 62, 55, 61, -1, 62, 61, 73, -1,
 25, 31, 62, -1, 62, 31, 39, -1, 62, 39, 47, -1,
 21, 15, 62, -1, 62, 15, 19, -1, 62, 19, 25, -1,
 43, 35, 62, -1, 62, 35, 27, -1, 62, 27, 21, -1,
 69, 59, 62, -1, 62, 59, 51, -1, 62, 51, 43, -1,
 93, 85, 62, -1, 62, 85, 77, -1, 62, 77, 69, -1,
 113, 107, 62, -1, 62, 107, 101, -1, 62, 101, 93, -1,
 97, 103, 62, -1, 62, 103, 109, -1, 62, 109, 113, -1,
 73, 81, 62, -1, 62, 81, 89, -1, 62, 89, 97, -1
]
normalIndex [
 50, 50, 50, -1, 50, 50, 50, -1, 49, 49, 49, -1,
 49, 49, 49, -1, 29, 29, 29, -1, 29, 29, 29, -1,
 9, 9, 9, -1, 9, 9, 9, -1, 10, 10, 10, -1,
 10, 10, 10, -1, 30, 30, 30, -1, 30, 30, 30, -1,
 31, 31, 31, -1, 31, 31, 31, -1, 31, 31, 31, -1,
 31, 31, 31, -1, 31, 31, 31, -1, 31, 31, 31, -1,
 31, 31, 31, -1, 31, 31, 31, -1, 31, 31, 31, -1,
 31, 31, 31, -1, 31, 31, 31, -1, 31, 31, 31, -1,
 31, 31, 31, -1, 31, 31, 31, -1, 31, 31, 31, -1,
 31, 31, 31, -1, 31, 31, 31, -1, 31, 31, 31, -1,
 31, 31, 31, -1, 31, 31, 31, -1, 31, 31, 31, -1,
 31, 31, 31, -1, 31, 31, 31, -1, 31, 31, 31, -1,
 31, 31, 31, -1, 31, 31, 31, -1, 31, 31, 31, -1,
 31, 31, 31, -1, 31, 31, 31, -1, 31, 31, 31, -1,
 31, 31, 31, -1, 31, 31, 31, -1, 31, 31, 31, -1,
 31, 31, 31, -1, 31, 31, 31, -1, 31, 31, 31, -1,
 28, 28, 28, -1, 28, 28, 28, -1, 28, 28, 28, -1,
 28, 28, 28, -1, 28, 28, 28, -1, 28, 28, 28, -1,
 28, 28, 28, -1, 28, 28, 28, -1, 28, 28, 28, -1,
 28, 28, 28, -1, 28, 28, 28, -1, 28, 28, 28, -1,
 28, 28, 28, -1, 28, 28, 28, -1, 28, 28, 28, -1,
 28, 28, 28, -1, 28, 28, 28, -1, 28, 28, 28, -1,
 28, 28, 28, -1, 28, 28, 28, -1, 28, 28, 28, -1,
 28, 28, 28, -1, 28, 28, 28, -1, 28, 28, 28, -1,
 28, 28, 28, -1, 28, 28, 28, -1, 28, 28, 28, -1,
 28, 28, 28, -1, 28, 28, 28, -1, 28, 28, 28, -1,
 28, 28, 28, -1, 28, 28, 28, -1, 28, 28, 28, -1,
 32, 30, 30, -1, 30, 30, 27, -1, 30, 27, 27, -1,
 27, 27, 23, -1, 27, 23, 23, -1, 23, 23, 19, -1,
 23, 19, 19, -1, 19, 19, 15, -1, 19, 15, 15, -1,
 15, 15, 11, -1, 15, 11, 11, -1, 11, 11, 6, -1,
 11, 6, 6, -1, 6, 6, 2, -1, 6, 2, 2, -1,
 2, 2, 0, -1, 2, 0, 0, -1, 0, 0, 4, -1,
 0, 4, 4, -1, 4, 4, 8, -1, 4, 8, 8, -1,
 8, 8, 13, -1, 8, 13, 13, -1, 13, 13, 17, -1,
 13, 17, 17, -1, 17, 17, 21, -1, 17, 21, 21, -1,
 21, 21, 25, -1, 21, 25, 25, -1, 25, 25, 29, -1,
 25, 29, 29, -1, 29, 29, 34, -1, 29, 34, 34, -1,
 34, 34, 38, -1, 34, 38, 38, -1, 38, 38, 42, -1,
 38, 42, 42, -1, 42, 42, 46, -1, 42, 46, 46, -1,
 46, 46, 51, -1, 46, 51, 51, -1, 51, 51, 55, -1,
 51, 55, 55, -1, 55, 55, 59, -1, 55, 59, 59, -1,
 59, 59, 57, -1, 59, 57, 57, -1, 57, 57, 53, -1,
 57, 53, 53, -1, 53, 53, 48, -1, 53, 48, 48, -1,
 48, 48, 44, -1, 48, 44, 44, -1, 44, 44, 40, -1,
 44, 40, 40, -1, 40, 40, 36, -1, 40, 36, 36, -1,
 36, 36, 32, -1, 36, 32, 32, -1, 32, 32, 30, -1,
 31, 31, 31, -1, 31, 31, 31, -1, 31, 31, 31, -1,
 31, 31, 31, -1, 31, 31, 31, -1, 31, 31, 31, -1,
 31, 31, 31, -1, 31, 31, 31, -1, 31, 31, 31, -1,
 31, 31, 31, -1, 31, 31, 31, -1, 31, 31, 31, -1,
 31, 31, 31, -1, 31, 31, 31, -1, 31, 31, 31, -1,
 31, 31, 31, -1, 31, 31, 31, -1, 31, 31, 31, -1,
 31, 31, 31, -1, 31, 31, 31, -1, 31, 31, 31, -1,
 31, 31, 31, -1, 31, 31, 31, -1, 31, 31, 31, -1,
 31, 31, 31, -1, 31, 31, 31, -1, 31, 31, 31, -1,
 31, 31, 31, -1, 31, 31, 31, -1, 31, 31, 31, -1,
 30, 30, 24, -1, 24, 30, 24, -1, 24, 24, 20, -1,
 20, 24, 20, -1, 20, 20, 16, -1, 16, 20, 16, -1,
 16, 16, 12, -1, 12, 16, 12, -1, 12, 12, 7, -1,
 7, 12, 7, -1, 7, 7, 3, -1, 3, 7, 3, -1,
 3, 3, 1, -1, 1, 3, 1, -1, 1, 1, 5, -1,
 5, 1, 5, -1, 5, 5, 9, -1, 9, 5, 9, -1,
 9, 9, 14, -1, 14, 9, 14, -1, 14, 14, 18, -1,
 18, 14, 18, -1, 18, 18, 22, -1, 22, 18, 22, -1,
 22, 22, 26, -1, 26, 22, 26, -1, 26, 26, 33, -1,
 33, 26, 33, -1, 33, 33, 37, -1, 37, 33, 37, -1,
 37, 37, 41, -1, 41, 37, 41, -1, 41, 41, 45, -1,
 45, 41, 45, -1, 45, 45, 49, -1, 49, 45, 49, -1,
 49, 49, 54, -1, 54, 49, 54, -1, 54, 54, 58, -1,
 58, 54, 58, -1, 58, 58, 56, -1, 56, 58, 56, -1,
 56, 56, 52, -1, 52, 56, 52, -1, 52, 52, 47, -1,
 47, 52, 47, -1, 47, 47, 43, -1, 43, 47, 43, -1,
 43, 43, 39, -1, 39, 43, 39, -1, 39, 39, 35, -1,
 35, 39, 35, -1, 35, 35, 30, -1, 30, 35, 30, -1,
 28, 28, 28, -1, 28, 28, 28, -1, 28, 28, 28, -1,
 28, 28, 28, -1, 28, 28, 28, -1, 28, 28, 28, -1,
 28, 28, 28, -1, 28, 28, 28, -1, 28, 28, 28, -1,
 28, 28, 28, -1, 28, 28, 28, -1, 28, 28, 28, -1,
 28, 28, 28, -1, 28, 28, 28, -1, 28, 28, 28, -1,
 28, 28, 28, -1, 28, 28, 28, -1, 28, 28, 28, -1,
 28, 28, 28, -1, 28, 28, 28, -1, 28, 28, 28, -1,
 28, 28, 28, -1, 28, 28, 28, -1, 28, 28, 28, -1,
 28, 28, 28, -1, 28, 28, 28, -1, 28, 28, 28, -1
]
colorPerVertex FALSE
normalPerVertex TRUE
}
}
]
}
