#VRML V2.0 utf8
Transform {
children [
Shape {
appearance Appearance {
material Material {
ambientIntensity 1.000000
diffuseColor 1.000000 1.000000 1.000000
emissiveColor 0.210000 0.210000 0.210000
specularColor 0.880000 0.880000 0.880000
shininess 0.210000
transparency 0.000000
}
}
geometry IndexedFaceSet {
color Color {
color [
 1.000000 1.000000 1.000000
]
}
coord Coordinate {
point [
 -0.004979 -0.023500 -0.000461, -0.004979 -0.023500 0.000461, -0.004979 0.023500 -0.000461, -0.004979 0.023500 0.000461, -0.004809 -0.023500 -0.001368,
 -0.004809 -0.023500 0.001368, -0.004809 0.023500 -0.001368, -0.004809 0.023500 0.001368, -0.004476 -0.023500 -0.002229, -0.004476 -0.023500 0.002229,
 -0.004476 0.023500 -0.002229, -0.004476 0.023500 0.002229, -0.003990 -0.023500 -0.003013, -0.003990 -0.023500 0.003013, -0.003990 0.023500 -0.003013,
 -0.003990 0.023500 0.003013, -0.003368 -0.023500 -0.003695, -0.003368 -0.023500 0.003695, -0.003368 0.023500 -0.003695, -0.003368 0.023500 0.003695,
 -0.003000 -0.007500 -0.004000, -0.003000 -0.007500 0.004000, -0.003000 0.007500 -0.004000, -0.003000 0.007500 0.004000, -0.002632 -0.023500 -0.004251,
 -0.002632 -0.023500 0.004251, -0.002632 -0.007500 -0.004251, -0.002632 -0.007500 0.004251, -0.002632 0.007500 -0.004251, -0.002632 0.007500 0.004251,
 -0.002632 0.023500 -0.004251, -0.002632 0.023500 0.004251, -0.001806 -0.023500 -0.004662, -0.001806 -0.023500 0.004662, -0.001806 -0.007500 -0.004662,
 -0.001806 -0.007500 0.004662, -0.001806 0.007500 -0.004662, -0.001806 0.007500 0.004662, -0.001806 0.023500 -0.004662, -0.001806 0.023500 0.004662,
 -0.001650 0.000000 -0.004000, -0.001650 0.000000 0.004000, -0.001594 -0.000427 -0.004000, -0.001594 -0.000427 0.004000, -0.001594 0.000427 -0.004000,
 -0.001594 0.000427 0.004000, -0.001429 -0.000825 -0.004000, -0.001429 -0.000825 0.004000, -0.001429 0.000825 -0.004000, -0.001429 0.000825 0.004000,
 -0.001167 -0.001167 -0.004000, -0.001167 -0.001167 0.004000, -0.001167 0.001167 -0.004000, -0.001167 0.001167 0.004000, -0.000919 -0.023500 -0.004915,
 -0.000919 -0.023500 0.004915, -0.000919 -0.007500 -0.004915, -0.000919 -0.007500 0.004915, -0.000919 0.007500 -0.004915, -0.000919 0.007500 0.004915,
 -0.000919 0.023500 -0.004915, -0.000919 0.023500 0.004915, -0.000825 -0.001429 -0.004000, -0.000825 -0.001429 0.004000, -0.000825 0.001429 -0.004000,
 -0.000825 0.001429 0.004000, -0.000427 -0.001594 -0.004000, -0.000427 -0.001594 0.004000, -0.000427 0.001594 -0.004000, -0.000427 0.001594 0.004000,
 0.000000 -0.023500 -0.005000, 0.000000 -0.023500 0.005000, 0.000000 -0.007500 -0.005000, 0.000000 -0.007500 0.005000, -0.000000 -0.001650 -0.004000,
 -0.000000 -0.001650 0.004000, 0.000000 0.001650 -0.004000, 0.000000 0.001650 0.004000, 0.000000 0.007500 -0.005000, 0.000000 0.007500 0.005000,
 0.000000 0.023500 -0.005000, 0.000000 0.023500 0.005000, 0.000427 -0.001594 -0.004000, 0.000427 -0.001594 0.004000, 0.000427 0.001594 -0.004000,
 0.000427 0.001594 0.004000, 0.000825 -0.001429 -0.004000, 0.000825 -0.001429 0.004000, 0.000825 0.001429 -0.004000, 0.000825 0.001429 0.004000,
 0.000919 -0.023500 -0.004915, 0.000919 -0.023500 0.004915, 0.000919 -0.007500 -0.004915, 0.000919 -0.007500 0.004915, 0.000919 0.007500 -0.004915,
 0.000919 0.007500 0.004915, 0.000919 0.023500 -0.004915, 0.000919 0.023500 0.004915, 0.001167 -0.001167 -0.004000, 0.001167 -0.001167 0.004000,
 0.001167 0.001167 -0.004000, 0.001167 0.001167 0.004000, 0.001429 -0.000825 -0.004000, 0.001429 -0.000825 0.004000, 0.001429 0.000825 -0.004000,
 0.001429 0.000825 0.004000, 0.001594 -0.000427 -0.004000, 0.001594 -0.000427 0.004000, 0.001594 0.000427 -0.004000, 0.001594 0.000427 0.004000,
 0.001650 -0.000000 -0.004000, 0.001650 -0.000000 0.004000, 0.001806 -0.023500 -0.004662, 0.001806 -0.023500 0.004662, 0.001806 -0.007500 -0.004662,
 0.001806 -0.007500 0.004662, 0.001806 0.007500 -0.004662, 0.001806 0.007500 0.004662, 0.001806 0.023500 -0.004662, 0.001806 0.023500 0.004662,
 0.002632 -0.023500 -0.004251, 0.002632 -0.023500 0.004251, 0.002632 -0.007500 -0.004251, 0.002632 -0.007500 0.004251, 0.002632 0.007500 -0.004251,
 0.002632 0.007500 0.004251, 0.002632 0.023500 -0.004251, 0.002632 0.023500 0.004251, 0.003000 -0.007500 -0.004000, 0.003000 -0.007500 0.004000,
 0.003000 0.007500 -0.004000, 0.003000 0.007500 0.004000, 0.003368 -0.023500 -0.003695, 0.003368 -0.023500 0.003695, 0.003368 0.023500 -0.003695,
 0.003368 0.023500 0.003695, 0.003990 -0.023500 -0.003013, 0.003990 -0.023500 0.003013, 0.003990 0.023500 -0.003013, 0.003990 0.023500 0.003013,
 0.004476 -0.023500 -0.002229, 0.004476 -0.023500 0.002229, 0.004476 0.023500 -0.002229, 0.004476 0.023500 0.002229, 0.004809 -0.023500 -0.001368,
 0.004809 -0.023500 0.001368, 0.004809 0.023500 -0.001368, 0.004809 0.023500 0.001368, 0.004979 -0.023500 -0.000461, 0.004979 -0.023500 0.000461,
 0.004979 0.023500 -0.000461, 0.004979 0.023500 0.000461
]
}
normal Normal {
vector [
 -1.000000 0.000000 0.000000, -0.995734 0.000000 -0.092268, -0.995734 0.000000 0.092268, -0.965926 -0.258819 0.000000, -0.965926 0.258819 0.000000,
 -0.961826 0.000000 -0.273663, -0.961826 0.000000 0.273663, -0.895163 0.000000 -0.445738, -0.895163 0.000000 0.445738, -0.866025 -0.500000 0.000000,
 -0.866025 0.500000 0.000000, -0.798017 0.000000 -0.602635, -0.798017 0.000000 0.602635, -0.707107 -0.707107 0.000000, -0.707107 0.707107 0.000000,
 -0.673696 0.000000 -0.739009, -0.673696 0.000000 0.739009, -0.600000 0.000000 -0.800000, -0.600000 0.000000 0.800000, -0.526432 0.000000 -0.850217,
 -0.526432 0.000000 0.850217, -0.500000 -0.866025 0.000000, -0.500000 0.866025 0.000000, -0.361242 0.000000 -0.932472, -0.361242 0.000000 0.932472,
 -0.258819 -0.965926 0.000000, -0.258819 0.965926 0.000000, -0.183750 0.000000 -0.982973, -0.183750 0.000000 0.982973, 0.000000 -1.000000 0.000000,
 0.000000 0.000000 -1.000000, 0.000000 0.000000 1.000000, 0.000000 1.000000 0.000000, 0.183750 0.000000 -0.982973, 0.183750 0.000000 0.982973,
 0.258819 -0.965926 0.000000, 0.258819 0.965926 0.000000, 0.361242 0.000000 -0.932472, 0.361242 0.000000 0.932472, 0.500000 -0.866025 0.000000,
 0.500000 0.866025 0.000000, 0.526432 0.000000 -0.850217, 0.526432 0.000000 0.850217, 0.600000 0.000000 -0.800000, 0.600000 0.000000 0.800000,
 0.673696 0.000000 -0.739009, 0.673696 0.000000 0.739009, 0.707107 -0.707107 0.000000, 0.707107 0.707107 0.000000, 0.798017 0.000000 -0.602635,
 0.798017 0.000000 0.602635, 0.866025 -0.500000 0.000000, 0.866025 0.500000 0.000000, 0.895163 0.000000 -0.445738, 0.895163 0.000000 0.445738,
 0.961826 0.000000 -0.273663, 0.961826 0.000000 0.273663, 0.965926 -0.258819 0.000000, 0.965926 0.258819 0.000000, 0.995734 0.000000 -0.092268,
 0.995734 0.000000 0.092268, 1.000000 -0.000000 0.000000
]
}
coordIndex [
 40, 41, 42, -1, 42, 41, 43, -1, 42, 43, 46, -1,
 46, 43, 47, -1, 46, 47, 50, -1, 50, 47, 51, -1,
 50, 51, 62, -1, 62, 51, 63, -1, 62, 63, 66, -1,
 66, 63, 67, -1, 66, 67, 74, -1, 74, 67, 75, -1,
 74, 75, 82, -1, 82, 75, 83, -1, 82, 83, 86, -1,
 86, 83, 87, -1, 86, 87, 98, -1, 98, 87, 99, -1,
 98, 99, 102, -1, 102, 99, 103, -1, 102, 103, 106, -1,
 106, 103, 107, -1, 106, 107, 110, -1, 110, 107, 111, -1,
 78, 80, 96, -1, 78, 96, 94, -1, 94, 96, 118, -1,
 94, 118, 116, -1, 116, 118, 126, -1, 116, 126, 124, -1,
 122, 128, 132, -1, 124, 126, 130, -1, 130, 126, 134, -1,
 130, 134, 128, -1, 132, 120, 122, -1, 122, 120, 112, -1,
 122, 112, 114, -1, 114, 112, 90, -1, 114, 90, 92, -1,
 92, 90, 70, -1, 92, 70, 72, -1, 121, 115, 113, -1,
 113, 115, 93, -1, 113, 93, 91, -1, 91, 93, 73, -1,
 91, 73, 71, -1, 125, 131, 135, -1, 133, 129, 121, -1,
 121, 129, 123, -1, 121, 123, 115, -1, 135, 127, 125, -1,
 125, 127, 119, -1, 125, 119, 117, -1, 117, 119, 97, -1,
 117, 97, 95, -1, 95, 97, 81, -1, 95, 81, 79, -1,
 128, 134, 132, -1, 132, 134, 138, -1, 132, 138, 136, -1,
 136, 138, 142, -1, 136, 142, 140, -1, 140, 142, 146, -1,
 140, 146, 144, -1, 144, 146, 150, -1, 144, 150, 148, -1,
 148, 150, 151, -1, 148, 151, 149, -1, 149, 151, 147, -1,
 149, 147, 145, -1, 145, 147, 143, -1, 145, 143, 141, -1,
 141, 143, 139, -1, 141, 139, 137, -1, 137, 139, 135, -1,
 137, 135, 133, -1, 133, 135, 131, -1, 133, 131, 129, -1,
 79, 81, 61, -1, 79, 61, 59, -1, 59, 61, 39, -1,
 59, 39, 37, -1, 37, 39, 31, -1, 37, 31, 29, -1,
 27, 21, 17, -1, 29, 31, 23, -1, 23, 31, 19, -1,
 23, 19, 21, -1, 17, 25, 27, -1, 27, 25, 33, -1,
 27, 33, 35, -1, 35, 33, 55, -1, 35, 55, 57, -1,
 57, 55, 71, -1, 57, 71, 73, -1, 24, 34, 32, -1,
 32, 34, 56, -1, 32, 56, 54, -1, 54, 56, 72, -1,
 54, 72, 70, -1, 28, 22, 18, -1, 16, 20, 24, -1,
 24, 20, 26, -1, 24, 26, 34, -1, 18, 30, 28, -1,
 28, 30, 38, -1, 28, 38, 36, -1, 36, 38, 60, -1,
 36, 60, 58, -1, 58, 60, 80, -1, 58, 80, 78, -1,
 21, 19, 17, -1, 17, 19, 15, -1, 17, 15, 13, -1,
 13, 15, 11, -1, 13, 11, 9, -1, 9, 11, 7, -1,
 9, 7, 5, -1, 5, 7, 3, -1, 5, 3, 1, -1,
 1, 3, 2, -1, 1, 2, 0, -1, 0, 2, 6, -1,
 0, 6, 4, -1, 4, 6, 10, -1, 4, 10, 8, -1,
 8, 10, 14, -1, 8, 14, 12, -1, 12, 14, 18, -1,
 12, 18, 16, -1, 16, 18, 22, -1, 16, 22, 20, -1,
 127, 18, 14, -1, 18, 127, 30, -1, 30, 127, 135, -1,
 30, 135, 139, -1, 139, 143, 30, -1, 30, 143, 147, -1,
 30, 147, 151, -1, 151, 150, 30, -1, 30, 150, 146, -1,
 30, 146, 38, -1, 134, 126, 138, -1, 138, 126, 142, -1,
 142, 126, 146, -1, 146, 126, 118, -1, 146, 118, 96, -1,
 96, 80, 146, -1, 146, 80, 60, -1, 146, 60, 38, -1,
 14, 10, 127, -1, 127, 10, 6, -1, 127, 6, 2, -1,
 11, 15, 61, -1, 11, 61, 7, -1, 7, 61, 81, -1,
 7, 81, 97, -1, 15, 19, 61, -1, 61, 19, 31, -1,
 61, 31, 39, -1, 2, 3, 127, -1, 127, 3, 7, -1,
 127, 7, 119, -1, 119, 7, 97, -1, 54, 121, 32, -1,
 32, 121, 24, -1, 91, 71, 5, -1, 5, 71, 55, -1,
 5, 55, 9, -1, 25, 17, 13, -1, 1, 0, 121, -1,
 121, 0, 4, -1, 121, 4, 8, -1, 70, 144, 54, -1,
 54, 144, 148, -1, 1, 121, 5, -1, 5, 121, 113, -1,
 5, 113, 91, -1, 9, 55, 13, -1, 13, 55, 33, -1,
 13, 33, 25, -1, 8, 12, 121, -1, 121, 12, 16, -1,
 121, 16, 24, -1, 70, 90, 144, -1, 144, 90, 112, -1,
 144, 112, 120, -1, 148, 149, 54, -1, 54, 149, 145, -1,
 54, 145, 141, -1, 132, 136, 120, -1, 120, 136, 140, -1,
 120, 140, 144, -1, 141, 137, 54, -1, 54, 137, 133, -1,
 54, 133, 121, -1, 23, 131, 125, -1, 117, 95, 125, -1,
 125, 95, 79, -1, 125, 79, 59, -1, 59, 37, 125, -1,
 125, 37, 29, -1, 125, 29, 23, -1, 123, 129, 21, -1,
 21, 27, 123, -1, 123, 27, 35, -1, 123, 35, 57, -1,
 57, 73, 123, -1, 123, 73, 93, -1, 123, 93, 115, -1,
 103, 99, 129, -1, 49, 53, 23, -1, 99, 87, 129, -1,
 129, 87, 83, -1, 129, 83, 21, -1, 21, 83, 75, -1,
 21, 75, 67, -1, 53, 65, 23, -1, 23, 65, 69, -1,
 23, 69, 131, -1, 131, 69, 77, -1, 131, 77, 85, -1,
 105, 109, 131, -1, 131, 109, 111, -1, 131, 111, 129, -1,
 129, 111, 107, -1, 129, 107, 103, -1, 85, 89, 131, -1,
 131, 89, 101, -1, 131, 101, 105, -1, 67, 63, 21, -1,
 21, 63, 51, -1, 21, 51, 47, -1, 47, 43, 21, -1,
 21, 43, 41, -1, 21, 41, 23, -1, 23, 41, 45, -1,
 23, 45, 49, -1, 110, 111, 108, -1, 108, 111, 109, -1,
 108, 109, 104, -1, 104, 109, 105, -1, 104, 105, 100, -1,
 100, 105, 101, -1, 100, 101, 88, -1, 88, 101, 89, -1,
 88, 89, 84, -1, 84, 89, 85, -1, 84, 85, 76, -1,
 76, 85, 77, -1, 76, 77, 68, -1, 68, 77, 69, -1,
 68, 69, 64, -1, 64, 69, 65, -1, 64, 65, 52, -1,
 52, 65, 53, -1, 52, 53, 48, -1, 48, 53, 49, -1,
 48, 49, 44, -1, 44, 49, 45, -1, 44, 45, 40, -1,
 40, 45, 41, -1, 20, 128, 26, -1, 26, 128, 122, -1,
 26, 122, 34, -1, 122, 114, 92, -1, 92, 72, 122, -1,
 122, 72, 56, -1, 122, 56, 34, -1, 130, 22, 28, -1,
 130, 28, 124, -1, 124, 28, 36, -1, 124, 36, 58, -1,
 58, 78, 124, -1, 124, 78, 94, -1, 124, 94, 116, -1,
 86, 98, 128, -1, 128, 98, 102, -1, 64, 52, 22, -1,
 22, 52, 48, -1, 62, 20, 50, -1, 50, 20, 46, -1,
 48, 44, 22, -1, 22, 44, 40, -1, 22, 40, 20, -1,
 20, 40, 42, -1, 20, 42, 46, -1, 62, 66, 20, -1,
 20, 66, 74, -1, 20, 74, 128, -1, 128, 74, 82, -1,
 128, 82, 86, -1, 104, 100, 130, -1, 130, 100, 88, -1,
 102, 106, 128, -1, 128, 106, 110, -1, 128, 110, 130, -1,
 130, 110, 108, -1, 130, 108, 104, -1, 88, 84, 130, -1,
 130, 84, 76, -1, 130, 76, 22, -1, 22, 76, 68, -1,
 22, 68, 64, -1
]
normalIndex [
 61, 61, 58, -1, 58, 61, 58, -1, 58, 58, 52, -1,
 52, 58, 52, -1, 52, 52, 48, -1, 48, 52, 48, -1,
 48, 48, 40, -1, 40, 48, 40, -1, 40, 40, 36, -1,
 36, 40, 36, -1, 36, 36, 32, -1, 32, 36, 32, -1,
 32, 32, 26, -1, 26, 32, 26, -1, 26, 26, 22, -1,
 22, 26, 22, -1, 22, 22, 14, -1, 14, 22, 14, -1,
 14, 14, 10, -1, 10, 14, 10, -1, 10, 10, 4, -1,
 4, 10, 4, -1, 4, 4, 0, -1, 0, 4, 0, -1,
 30, 30, 33, -1, 30, 33, 33, -1, 33, 33, 37, -1,
 33, 37, 37, -1, 37, 37, 41, -1, 37, 41, 41, -1,
 41, 43, 45, -1, 41, 41, 43, -1, 43, 41, 45, -1,
 43, 45, 43, -1, 45, 41, 41, -1, 41, 41, 37, -1,
 41, 37, 37, -1, 37, 37, 33, -1, 37, 33, 33, -1,
 33, 33, 30, -1, 33, 30, 30, -1, 42, 38, 38, -1,
 38, 38, 34, -1, 38, 34, 34, -1, 34, 34, 31, -1,
 34, 31, 31, -1, 42, 44, 46, -1, 46, 44, 42, -1,
 42, 44, 42, -1, 42, 42, 38, -1, 46, 42, 42, -1,
 42, 42, 38, -1, 42, 38, 38, -1, 38, 38, 34, -1,
 38, 34, 34, -1, 34, 34, 31, -1, 34, 31, 31, -1,
 43, 45, 45, -1, 45, 45, 49, -1, 45, 49, 49, -1,
 49, 49, 53, -1, 49, 53, 53, -1, 53, 53, 55, -1,
 53, 55, 55, -1, 55, 55, 59, -1, 55, 59, 59, -1,
 59, 59, 60, -1, 59, 60, 60, -1, 60, 60, 56, -1,
 60, 56, 56, -1, 56, 56, 54, -1, 56, 54, 54, -1,
 54, 54, 50, -1, 54, 50, 50, -1, 50, 50, 46, -1,
 50, 46, 46, -1, 46, 46, 44, -1, 46, 44, 44, -1,
 31, 31, 28, -1, 31, 28, 28, -1, 28, 28, 24, -1,
 28, 24, 24, -1, 24, 24, 20, -1, 24, 20, 20, -1,
 20, 18, 16, -1, 20, 20, 18, -1, 18, 20, 16, -1,
 18, 16, 18, -1, 16, 20, 20, -1, 20, 20, 24, -1,
 20, 24, 24, -1, 24, 24, 28, -1, 24, 28, 28, -1,
 28, 28, 31, -1, 28, 31, 31, -1, 19, 23, 23, -1,
 23, 23, 27, -1, 23, 27, 27, -1, 27, 27, 30, -1,
 27, 30, 30, -1, 19, 17, 15, -1, 15, 17, 19, -1,
 19, 17, 19, -1, 19, 19, 23, -1, 15, 19, 19, -1,
 19, 19, 23, -1, 19, 23, 23, -1, 23, 23, 27, -1,
 23, 27, 27, -1, 27, 27, 30, -1, 27, 30, 30, -1,
 18, 16, 16, -1, 16, 16, 12, -1, 16, 12, 12, -1,
 12, 12, 8, -1, 12, 8, 8, -1, 8, 8, 6, -1,
 8, 6, 6, -1, 6, 6, 2, -1, 6, 2, 2, -1,
 2, 2, 1, -1, 2, 1, 1, -1, 1, 1, 5, -1,
 1, 5, 5, -1, 5, 5, 7, -1, 5, 7, 7, -1,
 7, 7, 11, -1, 7, 11, 11, -1, 11, 11, 15, -1,
 11, 15, 15, -1, 15, 15, 17, -1, 15, 17, 17, -1,
 32, 32, 32, -1, 32, 32, 32, -1, 32, 32, 32, -1,
 32, 32, 32, -1, 32, 32, 32, -1, 32, 32, 32, -1,
 32, 32, 32, -1, 32, 32, 32, -1, 32, 32, 32, -1,
 32, 32, 32, -1, 32, 32, 32, -1, 32, 32, 32, -1,
 32, 32, 32, -1, 32, 32, 32, -1, 32, 32, 32, -1,
 32, 32, 32, -1, 32, 32, 32, -1, 32, 32, 32, -1,
 32, 32, 32, -1, 32, 32, 32, -1, 32, 32, 32, -1,
 32, 32, 32, -1, 32, 32, 32, -1, 32, 32, 32, -1,
 32, 32, 32, -1, 32, 32, 32, -1, 32, 32, 32, -1,
 32, 32, 32, -1, 32, 32, 32, -1, 32, 32, 32, -1,
 32, 32, 32, -1, 32, 32, 32, -1, 29, 29, 29, -1,
 29, 29, 29, -1, 29, 29, 29, -1, 29, 29, 29, -1,
 29, 29, 29, -1, 29, 29, 29, -1, 29, 29, 29, -1,
 29, 29, 29, -1, 29, 29, 29, -1, 29, 29, 29, -1,
 29, 29, 29, -1, 29, 29, 29, -1, 29, 29, 29, -1,
 29, 29, 29, -1, 29, 29, 29, -1, 29, 29, 29, -1,
 29, 29, 29, -1, 29, 29, 29, -1, 29, 29, 29, -1,
 29, 29, 29, -1, 29, 29, 29, -1, 29, 29, 29, -1,
 29, 29, 29, -1, 29, 29, 29, -1, 29, 29, 29, -1,
 29, 29, 29, -1, 29, 29, 29, -1, 29, 29, 29, -1,
 29, 29, 29, -1, 29, 29, 29, -1, 29, 29, 29, -1,
 29, 29, 29, -1, 29, 29, 29, -1, 29, 29, 29, -1,
 29, 29, 29, -1, 29, 29, 29, -1, 29, 29, 29, -1,
 29, 29, 29, -1, 29, 29, 29, -1, 32, 32, 32, -1,
 32, 32, 32, -1, 32, 32, 32, -1, 32, 32, 32, -1,
 32, 32, 32, -1, 32, 32, 32, -1, 32, 32, 32, -1,
 31, 31, 31, -1, 31, 31, 31, -1, 31, 31, 31, -1,
 31, 31, 31, -1, 31, 31, 31, -1, 31, 31, 31, -1,
 31, 31, 31, -1, 31, 31, 31, -1, 31, 31, 31, -1,
 31, 31, 31, -1, 31, 31, 31, -1, 31, 31, 31, -1,
 31, 31, 31, -1, 31, 31, 31, -1, 31, 31, 31, -1,
 31, 31, 31, -1, 31, 31, 31, -1, 31, 31, 31, -1,
 31, 31, 31, -1, 31, 31, 31, -1, 31, 31, 31, -1,
 31, 31, 31, -1, 31, 31, 31, -1, 31, 31, 31, -1,
 31, 31, 31, -1, 31, 31, 31, -1, 31, 31, 31, -1,
 31, 31, 31, -1, 0, 0, 3, -1, 3, 0, 3, -1,
 3, 3, 9, -1, 9, 3, 9, -1, 9, 9, 13, -1,
 13, 9, 13, -1, 13, 13, 21, -1, 21, 13, 21, -1,
 21, 21, 25, -1, 25, 21, 25, -1, 25, 25, 29, -1,
 29, 25, 29, -1, 29, 29, 35, -1, 35, 29, 35, -1,
 35, 35, 39, -1, 39, 35, 39, -1, 39, 39, 47, -1,
 47, 39, 47, -1, 47, 47, 51, -1, 51, 47, 51, -1,
 51, 51, 57, -1, 57, 51, 57, -1, 57, 57, 61, -1,
 61, 57, 61, -1, 32, 32, 32, -1, 32, 32, 32, -1,
 32, 32, 32, -1, 32, 32, 32, -1, 32, 32, 32, -1,
 32, 32, 32, -1, 32, 32, 32, -1, 29, 29, 29, -1,
 29, 29, 29, -1, 29, 29, 29, -1, 29, 29, 29, -1,
 29, 29, 29, -1, 29, 29, 29, -1, 29, 29, 29, -1,
 30, 30, 30, -1, 30, 30, 30, -1, 30, 30, 30, -1,
 30, 30, 30, -1, 30, 30, 30, -1, 30, 30, 30, -1,
 30, 30, 30, -1, 30, 30, 30, -1, 30, 30, 30, -1,
 30, 30, 30, -1, 30, 30, 30, -1, 30, 30, 30, -1,
 30, 30, 30, -1, 30, 30, 30, -1, 30, 30, 30, -1,
 30, 30, 30, -1, 30, 30, 30, -1, 30, 30, 30, -1,
 30, 30, 30, -1, 30, 30, 30, -1, 30, 30, 30, -1,
 30, 30, 30, -1, 30, 30, 30, -1, 30, 30, 30, -1,
 30, 30, 30, -1, 30, 30, 30, -1, 30, 30, 30, -1,
 30, 30, 30, -1
]
colorPerVertex FALSE
normalPerVertex TRUE
}
}
]
}
