#VRML V2.0 utf8
Transform {
children [
Shape {
appearance Appearance {
material Material {
ambientIntensity 1.000000
diffuseColor 1.000000 1.000000 1.000000
emissiveColor 0.210000 0.210000 0.210000
specularColor 0.880000 0.880000 0.880000
shininess 0.210000
transparency 0.000000
}
}
geometry IndexedFaceSet {
color Color {
color [
 1.000000 1.000000 1.000000
]
}
coord Coordinate {
point [
 -0.003168 0.000000 -0.000217, -0.003168 0.000000 0.000217, -0.003168 0.000800 -0.000217, -0.003168 0.000800 0.000217, -0.003109 0.000000 -0.000646,
 -0.003109 0.000000 0.000646, -0.003109 0.000800 -0.000646, -0.003109 0.000800 0.000646, -0.002992 0.000000 -0.001063, -0.002992 0.000000 0.001063,
 -0.002992 0.000800 -0.001063, -0.002992 0.000800 0.001063, -0.002819 0.000000 -0.001461, -0.002819 0.000000 0.001461, -0.002819 0.000800 -0.001461,
 -0.002819 0.000800 0.001461, -0.002594 0.000000 -0.001831, -0.002594 0.000000 0.001831, -0.002594 0.000800 -0.001831, -0.002594 0.000800 0.001831,
 -0.002320 0.000000 -0.002167, -0.002320 0.000000 0.002167, -0.002320 0.000800 -0.002167, -0.002320 0.000800 0.002167, -0.002004 0.000000 -0.002463,
 -0.002004 0.000000 0.002463, -0.002004 0.000800 -0.002463, -0.002004 0.000800 0.002463, -0.001650 0.000000 -0.002713, -0.001650 0.000000 0.002713,
 -0.001650 0.000800 -0.002713, -0.001650 0.000800 0.002713, -0.001500 0.000800 0.000000, -0.001500 0.012000 0.000000, -0.001471 0.000800 -0.000293,
 -0.001471 0.000800 0.000293, -0.001471 0.012000 -0.000293, -0.001471 0.012000 0.000293, -0.001386 0.000800 -0.000574, -0.001386 0.000800 0.000574,
 -0.001386 0.012000 -0.000574, -0.001386 0.012000 0.000574, -0.001265 0.000000 -0.002912, -0.001265 0.000000 0.002912, -0.001265 0.000800 -0.002912,
 -0.001265 0.000800 0.002912, -0.001247 0.000800 -0.000833, -0.001247 0.000800 0.000833, -0.001247 0.012000 -0.000833, -0.001247 0.012000 0.000833,
 -0.001061 0.000800 -0.001061, -0.001061 0.000800 0.001061, -0.001061 0.012000 -0.001061, -0.001061 0.012000 0.001061, -0.000968 0.012000 -0.000118,
 -0.000968 0.012000 0.000118, -0.000968 0.014000 -0.000118, -0.000968 0.014000 0.000118, -0.000912 0.012000 -0.000346, -0.000912 0.012000 0.000346,
 -0.000912 0.014000 -0.000346, -0.000912 0.014000 0.000346, -0.000857 0.000000 -0.003057, -0.000857 0.000000 0.003057, -0.000857 0.000800 -0.003057,
 -0.000857 0.000800 0.003057, -0.000833 0.000800 -0.001247, -0.000833 0.000800 0.001247, -0.000833 0.012000 -0.001247, -0.000833 0.012000 0.001247,
 -0.000802 0.012000 -0.000554, -0.000802 0.012000 0.000554, -0.000802 0.014000 -0.000554, -0.000802 0.014000 0.000554, -0.000647 0.012000 -0.000730,
 -0.000647 0.012000 0.000730, -0.000647 0.014000 -0.000730, -0.000647 0.014000 0.000730, -0.000574 0.000800 -0.001386, -0.000574 0.000800 0.001386,
 -0.000574 0.012000 -0.001386, -0.000574 0.012000 0.001386, -0.000453 0.012000 -0.000863, -0.000453 0.012000 0.000863, -0.000453 0.014000 -0.000863,
 -0.000453 0.014000 0.000863, -0.000432 0.000000 -0.003145, -0.000432 0.000000 0.003145, -0.000432 0.000800 -0.003145, -0.000432 0.000800 0.003145,
 -0.000293 0.000800 -0.001471, -0.000293 0.000800 0.001471, -0.000293 0.012000 -0.001471, -0.000293 0.012000 0.001471, -0.000233 0.012000 -0.000947,
 -0.000233 0.012000 0.000947, -0.000233 0.014000 -0.000947, -0.000233 0.014000 0.000947, 0.000000 0.000000 -0.003175, 0.000000 0.000000 0.003175,
 0.000000 0.000800 -0.003175, 0.000000 0.000800 -0.001500, 0.000000 0.000800 0.001500, 0.000000 0.000800 0.003175, 0.000000 0.012000 -0.001500,
 0.000000 0.012000 -0.000975, 0.000000 0.012000 0.000975, 0.000000 0.012000 0.001500, 0.000000 0.014000 -0.000975, 0.000000 0.014000 0.000975,
 0.000233 0.012000 -0.000947, 0.000233 0.012000 0.000947, 0.000233 0.014000 -0.000947, 0.000233 0.014000 0.000947, 0.000293 0.000800 -0.001471,
 0.000293 0.000800 0.001471, 0.000293 0.012000 -0.001471, 0.000293 0.012000 0.001471, 0.000432 0.000000 -0.003145, 0.000432 0.000000 0.003145,
 0.000432 0.000800 -0.003145, 0.000432 0.000800 0.003145, 0.000453 0.012000 -0.000863, 0.000453 0.012000 0.000863, 0.000453 0.014000 -0.000863,
 0.000453 0.014000 0.000863, 0.000574 0.000800 -0.001386, 0.000574 0.000800 0.001386, 0.000574 0.012000 -0.001386, 0.000574 0.012000 0.001386,
 0.000647 0.012000 -0.000730, 0.000647 0.012000 0.000730, 0.000647 0.014000 -0.000730, 0.000647 0.014000 0.000730, 0.000802 0.012000 -0.000554,
 0.000802 0.012000 0.000554, 0.000802 0.014000 -0.000554, 0.000802 0.014000 0.000554, 0.000833 0.000800 -0.001247, 0.000833 0.000800 0.001247,
 0.000833 0.012000 -0.001247, 0.000833 0.012000 0.001247, 0.000857 0.000000 -0.003057, 0.000857 0.000000 0.003057, 0.000857 0.000800 -0.003057,
 0.000857 0.000800 0.003057, 0.000912 0.012000 -0.000346, 0.000912 0.012000 0.000346, 0.000912 0.014000 -0.000346, 0.000912 0.014000 0.000346,
 0.000968 0.012000 -0.000118, 0.000968 0.012000 0.000118, 0.000968 0.014000 -0.000118, 0.000968 0.014000 0.000118, 0.001061 0.000800 -0.001061,
 0.001061 0.000800 0.001061, 0.001061 0.012000 -0.001061, 0.001061 0.012000 0.001061, 0.001247 0.000800 -0.000833, 0.001247 0.000800 0.000833,
 0.001247 0.012000 -0.000833, 0.001247 0.012000 0.000833, 0.001265 0.000000 -0.002912, 0.001265 0.000000 0.002912, 0.001265 0.000800 -0.002912,
 0.001265 0.000800 0.002912, 0.001386 0.000800 -0.000574, 0.001386 0.000800 0.000574, 0.001386 0.012000 -0.000574, 0.001386 0.012000 0.000574,
 0.001471 0.000800 -0.000293, 0.001471 0.000800 0.000293, 0.001471 0.012000 -0.000293, 0.001471 0.012000 0.000293, 0.001500 0.000800 -0.000000,
 0.001500 0.012000 -0.000000, 0.001650 0.000000 -0.002713, 0.001650 0.000000 0.002713, 0.001650 0.000800 -0.002713, 0.001650 0.000800 0.002713,
 0.002004 0.000000 -0.002463, 0.002004 0.000000 0.002463, 0.002004 0.000800 -0.002463, 0.002004 0.000800 0.002463, 0.002320 0.000000 -0.002167,
 0.002320 0.000000 0.002167, 0.002320 0.000800 -0.002167, 0.002320 0.000800 0.002167, 0.002594 0.000000 -0.001831, 0.002594 0.000000 0.001831,
 0.002594 0.000800 -0.001831, 0.002594 0.000800 0.001831, 0.002819 0.000000 -0.001461, 0.002819 0.000000 0.001461, 0.002819 0.000800 -0.001461,
 0.002819 0.000800 0.001461, 0.002992 0.000000 -0.001063, 0.002992 0.000000 0.001063, 0.002992 0.000800 -0.001063, 0.002992 0.000800 0.001063,
 0.003109 0.000000 -0.000646, 0.003109 0.000000 0.000646, 0.003109 0.000800 -0.000646, 0.003109 0.000800 0.000646, 0.003168 0.000000 -0.000217,
 0.003168 0.000000 0.000217, 0.003168 0.000800 -0.000217, 0.003168 0.000800 0.000217
]
}
normal Normal {
vector [
 -1.000000 0.000000 0.000000, -0.997669 0.000000 -0.068242, -0.997669 0.000000 0.068242, -0.992709 0.000000 -0.120537, -0.992709 0.000000 0.120537,
 -0.980785 0.000000 -0.195090, -0.980785 0.000000 0.195090, -0.979084 0.000000 -0.203456, -0.979084 0.000000 0.203456, -0.942261 0.000000 -0.334880,
 -0.942261 0.000000 0.334880, -0.935016 0.000000 -0.354605, -0.935016 0.000000 0.354605, -0.923880 0.000000 -0.382683, -0.923880 0.000000 0.382683,
 -0.887885 0.000000 -0.460065, -0.887885 0.000000 0.460065, -0.831470 0.000000 -0.555570, -0.831470 0.000000 0.555570, -0.822984 0.000000 -0.568065,
 -0.822984 0.000000 0.568065, -0.816970 0.000000 -0.576680, -0.816970 0.000000 0.576680, -0.730836 0.000000 -0.682553, -0.730836 0.000000 0.682553,
 -0.707107 0.000000 -0.707107, -0.707107 0.000000 0.707107, -0.663123 0.000000 -0.748511, -0.663123 0.000000 0.748511, -0.631088 0.000000 -0.775711,
 -0.631088 0.000000 0.775711, -0.555570 0.000000 -0.831470, -0.555570 0.000000 0.831470, -0.519584 0.000000 -0.854419, -0.519584 0.000000 0.854419,
 -0.464723 0.000000 -0.885456, -0.464723 0.000000 0.885456, -0.398401 0.000000 -0.917211, -0.398401 0.000000 0.917211, -0.382683 0.000000 -0.923880,
 -0.382683 0.000000 0.923880, -0.269797 0.000000 -0.962917, -0.269797 0.000000 0.962917, -0.239316 0.000000 -0.970942, -0.239316 0.000000 0.970942,
 -0.195090 0.000000 -0.980785, -0.195090 0.000000 0.980785, -0.136167 0.000000 -0.990686, -0.136167 0.000000 0.990686, 0.000000 -1.000000 0.000000,
 0.000000 0.000000 -1.000000, 0.000000 0.000000 1.000000, 0.000000 1.000000 0.000000, 0.136167 0.000000 -0.990686, 0.136167 0.000000 0.990686,
 0.195090 0.000000 -0.980785, 0.195090 0.000000 0.980785, 0.239316 0.000000 -0.970942, 0.239316 0.000000 0.970942, 0.269797 0.000000 -0.962917,
 0.269797 0.000000 0.962917, 0.382683 0.000000 -0.923880, 0.382683 0.000000 0.923880, 0.398401 0.000000 -0.917211, 0.398401 0.000000 0.917211,
 0.464723 0.000000 -0.885456, 0.464723 0.000000 0.885456, 0.519584 0.000000 -0.854419, 0.519584 0.000000 0.854419, 0.555570 0.000000 -0.831470,
 0.555570 0.000000 0.831470, 0.631088 0.000000 -0.775711, 0.631088 0.000000 0.775711, 0.663123 0.000000 -0.748511, 0.663123 0.000000 0.748511,
 0.707107 0.000000 -0.707107, 0.707107 0.000000 0.707107, 0.730836 0.000000 -0.682553, 0.730836 0.000000 0.682553, 0.816970 0.000000 -0.576680,
 0.816970 0.000000 0.576680, 0.822984 0.000000 -0.568065, 0.822984 0.000000 0.568065, 0.831470 0.000000 -0.555570, 0.831470 0.000000 0.555570,
 0.887885 0.000000 -0.460065, 0.887885 0.000000 0.460065, 0.923880 0.000000 -0.382683, 0.923880 0.000000 0.382683, 0.935016 0.000000 -0.354605,
 0.935016 0.000000 0.354605, 0.942261 0.000000 -0.334880, 0.942261 0.000000 0.334880, 0.979084 0.000000 -0.203456, 0.979084 0.000000 0.203456,
 0.980785 0.000000 -0.195090, 0.980785 0.000000 0.195090, 0.992709 0.000000 -0.120537, 0.992709 0.000000 0.120537, 0.997669 0.000000 -0.068242,
 0.997669 0.000000 0.068242, 1.000000 0.000000 -0.000000
]
}
coordIndex [
 109, 106, 111, -1, 109, 111, 113, -1, 113, 111, 123, -1,
 113, 123, 125, -1, 125, 123, 131, -1, 125, 131, 133, -1,
 133, 131, 135, -1, 133, 135, 137, -1, 137, 135, 147, -1,
 137, 147, 149, -1, 149, 147, 151, -1, 149, 151, 153, -1,
 153, 151, 150, -1, 153, 150, 152, -1, 152, 150, 146, -1,
 152, 146, 148, -1, 148, 146, 134, -1, 148, 134, 136, -1,
 136, 134, 130, -1, 136, 130, 132, -1, 132, 130, 122, -1,
 132, 122, 124, -1, 124, 122, 110, -1, 124, 110, 112, -1,
 112, 110, 105, -1, 112, 105, 108, -1, 107, 102, 115, -1,
 107, 115, 117, -1, 117, 115, 127, -1, 117, 127, 129, -1,
 129, 127, 139, -1, 129, 139, 141, -1, 141, 139, 155, -1,
 141, 155, 157, -1, 157, 155, 159, -1, 157, 159, 161, -1,
 161, 159, 167, -1, 161, 167, 169, -1, 169, 167, 171, -1,
 169, 171, 173, -1, 173, 171, 174, -1, 173, 174, 175, -1,
 175, 174, 170, -1, 175, 170, 172, -1, 172, 170, 166, -1,
 172, 166, 168, -1, 168, 166, 158, -1, 168, 158, 160, -1,
 160, 158, 154, -1, 160, 154, 156, -1, 156, 154, 138, -1,
 156, 138, 140, -1, 140, 138, 126, -1, 140, 126, 128, -1,
 128, 126, 114, -1, 128, 114, 116, -1, 116, 114, 101, -1,
 116, 101, 104, -1, 103, 99, 119, -1, 103, 119, 121, -1,
 121, 119, 143, -1, 121, 143, 145, -1, 145, 143, 163, -1,
 145, 163, 165, -1, 165, 163, 177, -1, 165, 177, 179, -1,
 179, 177, 181, -1, 179, 181, 183, -1, 183, 181, 185, -1,
 183, 185, 187, -1, 187, 185, 189, -1, 187, 189, 191, -1,
 191, 189, 193, -1, 191, 193, 195, -1, 195, 193, 197, -1,
 195, 197, 199, -1, 199, 197, 201, -1, 199, 201, 203, -1,
 203, 201, 205, -1, 203, 205, 207, -1, 207, 205, 204, -1,
 207, 204, 206, -1, 206, 204, 200, -1, 206, 200, 202, -1,
 202, 200, 196, -1, 202, 196, 198, -1, 198, 196, 192, -1,
 198, 192, 194, -1, 194, 192, 188, -1, 194, 188, 190, -1,
 190, 188, 184, -1, 190, 184, 186, -1, 186, 184, 180, -1,
 186, 180, 182, -1, 182, 180, 176, -1, 182, 176, 178, -1,
 178, 176, 162, -1, 178, 162, 164, -1, 164, 162, 142, -1,
 164, 142, 144, -1, 144, 142, 118, -1, 144, 118, 120, -1,
 120, 118, 98, -1, 120, 98, 100, -1, 100, 98, 86, -1,
 100, 86, 88, -1, 88, 86, 62, -1, 88, 62, 64, -1,
 64, 62, 42, -1, 64, 42, 44, -1, 44, 42, 28, -1,
 44, 28, 30, -1, 30, 28, 24, -1, 30, 24, 26, -1,
 26, 24, 20, -1, 26, 20, 22, -1, 22, 20, 16, -1,
 22, 16, 18, -1, 18, 16, 12, -1, 18, 12, 14, -1,
 14, 12, 8, -1, 14, 8, 10, -1, 10, 8, 4, -1,
 10, 4, 6, -1, 6, 4, 0, -1, 6, 0, 2, -1,
 2, 0, 1, -1, 2, 1, 3, -1, 3, 1, 5, -1,
 3, 5, 7, -1, 7, 5, 9, -1, 7, 9, 11, -1,
 11, 9, 13, -1, 11, 13, 15, -1, 15, 13, 17, -1,
 15, 17, 19, -1, 19, 17, 21, -1, 19, 21, 23, -1,
 23, 21, 25, -1, 23, 25, 27, -1, 27, 25, 29, -1,
 27, 29, 31, -1, 31, 29, 43, -1, 31, 43, 45, -1,
 45, 43, 63, -1, 45, 63, 65, -1, 65, 63, 87, -1,
 65, 87, 89, -1, 89, 87, 99, -1, 89, 99, 103, -1,
 79, 65, 91, -1, 91, 65, 89, -1, 91, 89, 102, -1,
 102, 89, 103, -1, 102, 103, 115, -1, 51, 27, 67, -1,
 67, 27, 31, -1, 67, 31, 79, -1, 79, 31, 45, -1,
 79, 45, 65, -1, 171, 207, 174, -1, 174, 207, 206, -1,
 174, 206, 170, -1, 170, 206, 202, -1, 170, 202, 166, -1,
 90, 64, 78, -1, 78, 64, 44, -1, 78, 44, 66, -1,
 202, 198, 166, -1, 166, 198, 194, -1, 166, 194, 158, -1,
 158, 194, 190, -1, 158, 190, 154, -1, 126, 144, 114, -1,
 114, 144, 120, -1, 114, 120, 101, -1, 101, 120, 100, -1,
 101, 100, 90, -1, 90, 100, 88, -1, 90, 88, 64, -1,
 159, 195, 167, -1, 167, 195, 199, -1, 167, 199, 171, -1,
 171, 199, 203, -1, 171, 203, 207, -1, 139, 183, 155, -1,
 155, 183, 187, -1, 155, 187, 159, -1, 159, 187, 191, -1,
 159, 191, 195, -1, 34, 2, 32, -1, 32, 2, 3, -1,
 32, 3, 35, -1, 35, 3, 7, -1, 35, 7, 39, -1,
 190, 186, 154, -1, 154, 186, 182, -1, 154, 182, 138, -1,
 138, 182, 178, -1, 138, 178, 126, -1, 126, 178, 164, -1,
 126, 164, 144, -1, 7, 11, 39, -1, 39, 11, 15, -1,
 39, 15, 47, -1, 47, 15, 19, -1, 47, 19, 51, -1,
 51, 19, 23, -1, 51, 23, 27, -1, 46, 14, 38, -1,
 38, 14, 10, -1, 38, 10, 34, -1, 34, 10, 6, -1,
 34, 6, 2, -1, 103, 121, 115, -1, 115, 121, 145, -1,
 115, 145, 127, -1, 127, 145, 165, -1, 127, 165, 139, -1,
 139, 165, 179, -1, 139, 179, 183, -1, 44, 30, 66, -1,
 66, 30, 26, -1, 66, 26, 50, -1, 50, 26, 22, -1,
 50, 22, 46, -1, 46, 22, 18, -1, 46, 18, 14, -1,
 9, 5, 196, -1, 196, 5, 1, -1, 196, 1, 0, -1,
 0, 4, 196, -1, 196, 4, 8, -1, 196, 8, 12, -1,
 196, 200, 9, -1, 9, 200, 204, -1, 9, 204, 205, -1,
 181, 25, 185, -1, 185, 25, 21, -1, 185, 21, 17, -1,
 205, 201, 9, -1, 9, 201, 197, -1, 9, 197, 193, -1,
 12, 16, 196, -1, 196, 16, 20, -1, 196, 20, 24, -1,
 118, 142, 196, -1, 17, 13, 185, -1, 185, 13, 9, -1,
 185, 9, 189, -1, 189, 9, 193, -1, 181, 177, 25, -1,
 25, 177, 163, -1, 25, 163, 143, -1, 87, 63, 25, -1,
 25, 63, 43, -1, 25, 43, 29, -1, 143, 119, 25, -1,
 25, 119, 99, -1, 25, 99, 87, -1, 24, 28, 196, -1,
 196, 28, 42, -1, 196, 42, 62, -1, 62, 86, 196, -1,
 196, 86, 98, -1, 196, 98, 118, -1, 142, 162, 196, -1,
 196, 162, 176, -1, 196, 176, 180, -1, 180, 184, 196, -1,
 196, 184, 188, -1, 196, 188, 192, -1, 104, 101, 90, -1,
 104, 90, 92, -1, 92, 90, 78, -1, 92, 78, 80, -1,
 80, 78, 66, -1, 80, 66, 68, -1, 68, 66, 50, -1,
 68, 50, 52, -1, 52, 50, 46, -1, 52, 46, 48, -1,
 48, 46, 38, -1, 48, 38, 40, -1, 40, 38, 34, -1,
 40, 34, 36, -1, 36, 34, 32, -1, 36, 32, 33, -1,
 33, 32, 35, -1, 33, 35, 37, -1, 37, 35, 39, -1,
 37, 39, 41, -1, 41, 39, 47, -1, 41, 47, 49, -1,
 49, 47, 51, -1, 49, 51, 53, -1, 53, 51, 67, -1,
 53, 67, 69, -1, 69, 67, 79, -1, 69, 79, 81, -1,
 81, 79, 91, -1, 81, 91, 93, -1, 93, 91, 102, -1,
 93, 102, 107, -1, 75, 69, 83, -1, 83, 69, 81, -1,
 83, 81, 95, -1, 95, 81, 93, -1, 95, 93, 106, -1,
 106, 93, 107, -1, 106, 107, 111, -1, 111, 107, 117, -1,
 111, 117, 123, -1, 54, 33, 55, -1, 55, 33, 37, -1,
 55, 37, 59, -1, 59, 37, 41, -1, 59, 41, 71, -1,
 71, 41, 49, -1, 71, 49, 75, -1, 75, 49, 53, -1,
 75, 53, 69, -1, 82, 68, 74, -1, 74, 68, 52, -1,
 74, 52, 70, -1, 70, 52, 48, -1, 70, 48, 58, -1,
 58, 48, 40, -1, 58, 40, 54, -1, 54, 40, 36, -1,
 54, 36, 33, -1, 130, 140, 122, -1, 122, 140, 128, -1,
 122, 128, 110, -1, 110, 128, 116, -1, 110, 116, 105, -1,
 105, 116, 104, -1, 105, 104, 94, -1, 94, 104, 92, -1,
 94, 92, 82, -1, 82, 92, 80, -1, 82, 80, 68, -1,
 151, 175, 150, -1, 150, 175, 172, -1, 150, 172, 146, -1,
 146, 172, 168, -1, 146, 168, 134, -1, 134, 168, 160, -1,
 134, 160, 130, -1, 130, 160, 156, -1, 130, 156, 140, -1,
 117, 129, 123, -1, 123, 129, 141, -1, 123, 141, 131, -1,
 131, 141, 157, -1, 131, 157, 135, -1, 135, 157, 161, -1,
 135, 161, 147, -1, 147, 161, 169, -1, 147, 169, 151, -1,
 151, 169, 173, -1, 151, 173, 175, -1, 108, 105, 94, -1,
 108, 94, 96, -1, 96, 94, 82, -1, 96, 82, 84, -1,
 84, 82, 74, -1, 84, 74, 76, -1, 76, 74, 70, -1,
 76, 70, 72, -1, 72, 70, 58, -1, 72, 58, 60, -1,
 60, 58, 54, -1, 60, 54, 56, -1, 56, 54, 55, -1,
 56, 55, 57, -1, 57, 55, 59, -1, 57, 59, 61, -1,
 61, 59, 71, -1, 61, 71, 73, -1, 73, 71, 75, -1,
 73, 75, 77, -1, 77, 75, 83, -1, 77, 83, 85, -1,
 85, 83, 95, -1, 85, 95, 97, -1, 97, 95, 106, -1,
 97, 106, 109, -1, 125, 84, 76, -1, 125, 133, 84, -1,
 84, 133, 137, -1, 84, 137, 149, -1, 76, 72, 125, -1,
 125, 72, 60, -1, 125, 60, 56, -1, 56, 57, 125, -1,
 125, 57, 61, -1, 125, 61, 73, -1, 85, 97, 109, -1,
 149, 153, 84, -1, 84, 153, 152, -1, 84, 152, 148, -1,
 73, 77, 125, -1, 125, 77, 85, -1, 125, 85, 113, -1,
 113, 85, 109, -1, 124, 112, 84, -1, 84, 112, 108, -1,
 84, 108, 96, -1, 148, 136, 84, -1, 84, 136, 132, -1,
 84, 132, 124, -1
]
normalIndex [
 51, 51, 58, -1, 51, 58, 58, -1, 58, 58, 66, -1,
 58, 66, 66, -1, 66, 66, 74, -1, 66, 74, 74, -1,
 74, 74, 82, -1, 74, 82, 82, -1, 82, 82, 90, -1,
 82, 90, 90, -1, 90, 90, 98, -1, 90, 98, 98, -1,
 98, 98, 97, -1, 98, 97, 97, -1, 97, 97, 89, -1,
 97, 89, 89, -1, 89, 89, 81, -1, 89, 81, 81, -1,
 81, 81, 73, -1, 81, 73, 73, -1, 73, 73, 65, -1,
 73, 65, 65, -1, 65, 65, 57, -1, 65, 57, 57, -1,
 57, 57, 50, -1, 57, 50, 50, -1, 51, 51, 56, -1,
 51, 56, 56, -1, 56, 56, 62, -1, 56, 62, 62, -1,
 62, 62, 70, -1, 62, 70, 70, -1, 70, 70, 76, -1,
 70, 76, 76, -1, 76, 76, 84, -1, 76, 84, 84, -1,
 84, 84, 88, -1, 84, 88, 88, -1, 88, 88, 96, -1,
 88, 96, 96, -1, 96, 96, 101, -1, 96, 101, 101, -1,
 101, 101, 95, -1, 101, 95, 95, -1, 95, 95, 87, -1,
 95, 87, 87, -1, 87, 87, 83, -1, 87, 83, 83, -1,
 83, 83, 75, -1, 83, 75, 75, -1, 75, 75, 69, -1,
 75, 69, 69, -1, 69, 69, 61, -1, 69, 61, 61, -1,
 61, 61, 55, -1, 61, 55, 55, -1, 55, 55, 50, -1,
 55, 50, 50, -1, 51, 51, 54, -1, 51, 54, 54, -1,
 54, 54, 60, -1, 54, 60, 60, -1, 60, 60, 64, -1,
 60, 64, 64, -1, 64, 64, 68, -1, 64, 68, 68, -1,
 68, 68, 72, -1, 68, 72, 72, -1, 72, 72, 78, -1,
 72, 78, 78, -1, 78, 78, 80, -1, 78, 80, 80, -1,
 80, 80, 86, -1, 80, 86, 86, -1, 86, 86, 92, -1,
 86, 92, 92, -1, 92, 92, 94, -1, 92, 94, 94, -1,
 94, 94, 100, -1, 94, 100, 100, -1, 100, 100, 99, -1,
 100, 99, 99, -1, 99, 99, 93, -1, 99, 93, 93, -1,
 93, 93, 91, -1, 93, 91, 91, -1, 91, 91, 85, -1,
 91, 85, 85, -1, 85, 85, 79, -1, 85, 79, 79, -1,
 79, 79, 77, -1, 79, 77, 77, -1, 77, 77, 71, -1,
 77, 71, 71, -1, 71, 71, 67, -1, 71, 67, 67, -1,
 67, 67, 63, -1, 67, 63, 63, -1, 63, 63, 59, -1,
 63, 59, 59, -1, 59, 59, 53, -1, 59, 53, 53, -1,
 53, 53, 50, -1, 53, 50, 50, -1, 50, 50, 47, -1,
 50, 47, 47, -1, 47, 47, 41, -1, 47, 41, 41, -1,
 41, 41, 37, -1, 41, 37, 37, -1, 37, 37, 33, -1,
 37, 33, 33, -1, 33, 33, 29, -1, 33, 29, 29, -1,
 29, 29, 23, -1, 29, 23, 23, -1, 23, 23, 21, -1,
 23, 21, 21, -1, 21, 21, 15, -1, 21, 15, 15, -1,
 15, 15, 9, -1, 15, 9, 9, -1, 9, 9, 7, -1,
 9, 7, 7, -1, 7, 7, 1, -1, 7, 1, 1, -1,
 1, 1, 2, -1, 1, 2, 2, -1, 2, 2, 8, -1,
 2, 8, 8, -1, 8, 8, 10, -1, 8, 10, 10, -1,
 10, 10, 16, -1, 10, 16, 16, -1, 16, 16, 22, -1,
 16, 22, 22, -1, 22, 22, 24, -1, 22, 24, 24, -1,
 24, 24, 30, -1, 24, 30, 30, -1, 30, 30, 34, -1,
 30, 34, 34, -1, 34, 34, 38, -1, 34, 38, 38, -1,
 38, 38, 42, -1, 38, 42, 42, -1, 42, 42, 48, -1,
 42, 48, 48, -1, 48, 48, 51, -1, 48, 51, 51, -1,
 52, 52, 52, -1, 52, 52, 52, -1, 52, 52, 52, -1,
 52, 52, 52, -1, 52, 52, 52, -1, 52, 52, 52, -1,
 52, 52, 52, -1, 52, 52, 52, -1, 52, 52, 52, -1,
 52, 52, 52, -1, 52, 52, 52, -1, 52, 52, 52, -1,
 52, 52, 52, -1, 52, 52, 52, -1, 52, 52, 52, -1,
 52, 52, 52, -1, 52, 52, 52, -1, 52, 52, 52, -1,
 52, 52, 52, -1, 52, 52, 52, -1, 52, 52, 52, -1,
 52, 52, 52, -1, 52, 52, 52, -1, 52, 52, 52, -1,
 52, 52, 52, -1, 52, 52, 52, -1, 52, 52, 52, -1,
 52, 52, 52, -1, 52, 52, 52, -1, 52, 52, 52, -1,
 52, 52, 52, -1, 52, 52, 52, -1, 52, 52, 52, -1,
 52, 52, 52, -1, 52, 52, 52, -1, 52, 52, 52, -1,
 52, 52, 52, -1, 52, 52, 52, -1, 52, 52, 52, -1,
 52, 52, 52, -1, 52, 52, 52, -1, 52, 52, 52, -1,
 52, 52, 52, -1, 52, 52, 52, -1, 52, 52, 52, -1,
 52, 52, 52, -1, 52, 52, 52, -1, 52, 52, 52, -1,
 52, 52, 52, -1, 52, 52, 52, -1, 52, 52, 52, -1,
 52, 52, 52, -1, 52, 52, 52, -1, 52, 52, 52, -1,
 52, 52, 52, -1, 52, 52, 52, -1, 52, 52, 52, -1,
 52, 52, 52, -1, 52, 52, 52, -1, 52, 52, 52, -1,
 52, 52, 52, -1, 52, 52, 52, -1, 52, 52, 52, -1,
 52, 52, 52, -1, 52, 52, 52, -1, 52, 52, 52, -1,
 52, 52, 52, -1, 52, 52, 52, -1, 52, 52, 52, -1,
 52, 52, 52, -1, 52, 52, 52, -1, 52, 52, 52, -1,
 52, 52, 52, -1, 52, 52, 52, -1, 52, 52, 52, -1,
 52, 52, 52, -1, 52, 52, 52, -1, 52, 52, 52, -1,
 49, 49, 49, -1, 49, 49, 49, -1, 49, 49, 49, -1,
 49, 49, 49, -1, 49, 49, 49, -1, 49, 49, 49, -1,
 49, 49, 49, -1, 49, 49, 49, -1, 49, 49, 49, -1,
 49, 49, 49, -1, 49, 49, 49, -1, 49, 49, 49, -1,
 49, 49, 49, -1, 49, 49, 49, -1, 49, 49, 49, -1,
 49, 49, 49, -1, 49, 49, 49, -1, 49, 49, 49, -1,
 49, 49, 49, -1, 49, 49, 49, -1, 49, 49, 49, -1,
 49, 49, 49, -1, 49, 49, 49, -1, 49, 49, 49, -1,
 49, 49, 49, -1, 49, 49, 49, -1, 49, 49, 49, -1,
 49, 49, 49, -1, 49, 49, 49, -1, 49, 49, 49, -1,
 49, 49, 49, -1, 49, 49, 49, -1, 49, 49, 49, -1,
 49, 49, 49, -1, 49, 49, 49, -1, 49, 49, 49, -1,
 49, 49, 49, -1, 49, 49, 49, -1, 49, 49, 49, -1,
 49, 49, 49, -1, 49, 49, 49, -1, 49, 49, 49, -1,
 49, 49, 49, -1, 49, 49, 49, -1, 50, 50, 45, -1,
 50, 45, 45, -1, 45, 45, 39, -1, 45, 39, 39, -1,
 39, 39, 31, -1, 39, 31, 31, -1, 31, 31, 25, -1,
 31, 25, 25, -1, 25, 25, 17, -1, 25, 17, 17, -1,
 17, 17, 13, -1, 17, 13, 13, -1, 13, 13, 5, -1,
 13, 5, 5, -1, 5, 5, 0, -1, 5, 0, 0, -1,
 0, 0, 6, -1, 0, 6, 6, -1, 6, 6, 14, -1,
 6, 14, 14, -1, 14, 14, 18, -1, 14, 18, 18, -1,
 18, 18, 26, -1, 18, 26, 26, -1, 26, 26, 32, -1,
 26, 32, 32, -1, 32, 32, 40, -1, 32, 40, 40, -1,
 40, 40, 46, -1, 40, 46, 46, -1, 46, 46, 51, -1,
 46, 51, 51, -1, 52, 52, 52, -1, 52, 52, 52, -1,
 52, 52, 52, -1, 52, 52, 52, -1, 52, 52, 52, -1,
 52, 52, 52, -1, 52, 52, 52, -1, 52, 52, 52, -1,
 52, 52, 52, -1, 52, 52, 52, -1, 52, 52, 52, -1,
 52, 52, 52, -1, 52, 52, 52, -1, 52, 52, 52, -1,
 52, 52, 52, -1, 52, 52, 52, -1, 52, 52, 52, -1,
 52, 52, 52, -1, 52, 52, 52, -1, 52, 52, 52, -1,
 52, 52, 52, -1, 52, 52, 52, -1, 52, 52, 52, -1,
 52, 52, 52, -1, 52, 52, 52, -1, 52, 52, 52, -1,
 52, 52, 52, -1, 52, 52, 52, -1, 52, 52, 52, -1,
 52, 52, 52, -1, 52, 52, 52, -1, 52, 52, 52, -1,
 52, 52, 52, -1, 52, 52, 52, -1, 52, 52, 52, -1,
 52, 52, 52, -1, 52, 52, 52, -1, 52, 52, 52, -1,
 52, 52, 52, -1, 52, 52, 52, -1, 52, 52, 52, -1,
 52, 52, 52, -1, 52, 52, 52, -1, 52, 52, 52, -1,
 52, 52, 52, -1, 52, 52, 52, -1, 52, 52, 52, -1,
 52, 52, 52, -1, 52, 52, 52, -1, 52, 52, 52, -1,
 52, 52, 52, -1, 52, 52, 52, -1, 52, 52, 52, -1,
 52, 52, 52, -1, 52, 52, 52, -1, 52, 52, 52, -1,
 52, 52, 52, -1, 52, 52, 52, -1, 50, 50, 43, -1,
 50, 43, 43, -1, 43, 43, 35, -1, 43, 35, 35, -1,
 35, 35, 27, -1, 35, 27, 27, -1, 27, 27, 19, -1,
 27, 19, 19, -1, 19, 19, 11, -1, 19, 11, 11, -1,
 11, 11, 3, -1, 11, 3, 3, -1, 3, 3, 4, -1,
 3, 4, 4, -1, 4, 4, 12, -1, 4, 12, 12, -1,
 12, 12, 20, -1, 12, 20, 20, -1, 20, 20, 28, -1,
 20, 28, 28, -1, 28, 28, 36, -1, 28, 36, 36, -1,
 36, 36, 44, -1, 36, 44, 44, -1, 44, 44, 51, -1,
 44, 51, 51, -1, 52, 52, 52, -1, 52, 52, 52, -1,
 52, 52, 52, -1, 52, 52, 52, -1, 52, 52, 52, -1,
 52, 52, 52, -1, 52, 52, 52, -1, 52, 52, 52, -1,
 52, 52, 52, -1, 52, 52, 52, -1, 52, 52, 52, -1,
 52, 52, 52, -1, 52, 52, 52, -1, 52, 52, 52, -1,
 52, 52, 52, -1, 52, 52, 52, -1, 52, 52, 52, -1,
 52, 52, 52, -1, 52, 52, 52, -1, 52, 52, 52, -1,
 52, 52, 52, -1, 52, 52, 52, -1, 52, 52, 52, -1,
 52, 52, 52, -1
]
colorPerVertex FALSE
normalPerVertex TRUE
}
}
]
}
