#VRML V2.0 utf8
Transform {
children [
Shape {
appearance Appearance {
material Material {
ambientIntensity 1.000000
diffuseColor 1.000000 1.000000 1.000000
emissiveColor 0.210000 0.210000 0.210000
specularColor 0.880000 0.880000 0.880000
shininess 0.210000
transparency 0.000000
}
}
geometry IndexedFaceSet {
color Color {
color [
 1.000000 1.000000 1.000000
]
}
coord Coordinate {
point [
 -0.055000 -0.003000 0.001000, -0.055000 -0.003000 0.002000, -0.055000 -0.002000 0.000000, -0.055000 0.005000 0.010000, -0.055000 0.006000 0.000000,
 -0.055000 0.006000 0.010000, -0.052348 0.008882 0.000000, -0.052348 0.008882 0.010000, -0.049456 0.011522 0.000000, -0.049456 0.011522 0.010000,
 -0.049196 0.005000 0.010000, -0.048608 0.000999 0.005999, -0.048244 0.005273 0.010000, -0.048000 -0.003000 0.001000, -0.048000 -0.003000 0.002000,
 -0.046346 0.013901 0.000000, -0.046346 0.013901 0.010000, -0.046224 -0.002469 0.000469, -0.046202 -0.002464 0.000464, -0.046202 -0.002465 0.002000,
 -0.046104 -0.002436 0.002000, -0.044430 -0.002000 0.000000, -0.044174 0.006256 0.010000, -0.043040 0.016000 0.000000, -0.043040 0.016000 0.010000,
 -0.042559 -0.001580 0.002000, -0.042188 -0.001504 0.000000, -0.042186 -0.001516 0.002000, -0.040046 0.006962 0.010000, -0.039564 0.017804 0.000000,
 -0.039564 0.017804 0.010000, -0.038964 -0.000964 0.002000, -0.038112 -0.000855 0.000000, -0.038110 -0.000877 0.002000, -0.035945 0.019299 0.000000,
 -0.035945 0.019299 0.010000, -0.035881 0.007388 0.010000, -0.035336 -0.000593 0.002000, -0.033999 -0.000519 0.000000, -0.033998 -0.000547 0.002000,
 -0.032209 0.020474 0.000000, -0.032209 0.020474 0.010000, -0.031696 0.007532 0.010000, -0.031691 -0.000468 0.002000, -0.029873 -0.000528 0.002000,
 -0.029872 -0.000497 0.000000, -0.028386 0.021320 0.000000, -0.028386 0.021320 0.010000, -0.028046 -0.000589 0.002000, -0.027511 0.007393 0.010000,
 -0.025758 -0.000820 0.002000, -0.025756 -0.000792 0.000000, -0.024503 0.021830 0.000000, -0.024503 0.021830 0.010000, -0.024417 -0.000956 0.002000,
 -0.023345 0.006972 0.010000, -0.021676 -0.001416 0.002000, -0.021673 -0.001399 0.000000, -0.021000 -0.001530 0.002000, -0.020664 -0.000918 0.002671,
 -0.020591 0.022000 -0.000000, -0.020591 0.022000 0.010000, -0.019217 0.006271 0.010000, -0.018548 -0.002083 0.006903, -0.017653 -0.002330 0.008693,
 -0.017650 -0.002317 0.000000, -0.017466 -0.002366 0.000000, -0.017000 0.005000 0.000000, -0.017000 0.005774 0.010000, -0.017000 0.022000 -0.000000,
 -0.017000 0.022000 0.010000, -0.016365 -0.002679 0.000670, -0.016125 -0.002750 0.011750, -0.016125 0.007442 0.011750, -0.016109 0.007273 0.011750,
 -0.016090 0.007212 0.011750, -0.016046 0.007074 0.011750, -0.016000 0.006998 0.011750, -0.015931 0.006886 0.011750, -0.015856 0.006813 0.011750,
 -0.015755 0.006715 0.011750, -0.015668 0.006666 0.011750, -0.015531 0.006589 0.011750, -0.015444 0.006565 0.011750, -0.015278 0.006519 0.011750,
 -0.015271 -0.003014 0.001360, -0.015196 0.006516 0.011750, -0.015000 0.022000 0.014000, -0.014996 0.006508 0.011750, -0.014994 -0.003103 0.001634,
 -0.014938 0.006520 0.011750, -0.014871 -0.003144 0.001727, -0.014797 0.005000 -0.011750, -0.014797 0.007930 -0.011750, -0.014767 0.007696 -0.011750,
 -0.014766 0.007685 -0.011750, -0.014684 0.007474 -0.011750, -0.014683 0.007471 -0.011750, -0.014681 0.006574 0.011750, -0.014595 -0.003235 0.001937,
 -0.014551 0.007280 -0.011750, -0.014550 0.007279 -0.011750, -0.014375 0.022000 -0.014000, -0.014373 0.007121 -0.011750, -0.014204 -0.003367 0.002161,
 -0.014161 0.007010 -0.011750, -0.014154 0.007006 -0.011750, -0.014133 -0.003391 0.002202, -0.014000 0.008175 0.016000, -0.014000 0.008205 -0.016000,
 -0.014000 0.020000 -0.016000, -0.014000 0.020000 0.016000, -0.013973 0.007975 -0.016000, -0.013972 0.007950 0.016000, -0.013971 0.007970 -0.016000,
 -0.013969 0.007943 0.016000, -0.013929 0.006951 -0.011750, -0.013917 0.006948 -0.011750, -0.013894 0.007751 0.016000, -0.013893 0.007759 -0.016000,
 -0.013887 0.007750 -0.016000, -0.013878 0.007729 0.016000, -0.013760 0.007561 -0.016000, -0.013757 0.007561 0.016000, -0.013752 0.007555 -0.016000,
 -0.013735 0.007543 0.016000, -0.013708 -0.003539 0.002379, -0.013708 -0.003539 0.011750, -0.013689 0.006947 -0.011750, -0.013678 0.006946 -0.011750,
 -0.013576 0.007396 -0.016000, -0.013574 0.007409 0.016000, -0.013547 0.007394 0.016000, -0.013538 -0.003599 0.002450, -0.013464 0.007348 0.016000,
 -0.013454 0.006997 -0.011750, -0.013422 -0.003641 0.002483, -0.013384 0.007292 -0.016000, -0.013364 0.007286 -0.016000, -0.013318 0.007298 0.016000,
 -0.013222 0.007264 0.016000, -0.013154 0.007227 -0.016000, -0.013133 0.007226 -0.016000, -0.013071 0.007249 0.016000, -0.012961 -0.003808 0.002614,
 -0.012955 0.007237 0.016000, -0.012913 0.007218 -0.016000, -0.012893 0.007222 -0.016000, -0.012813 0.007254 0.016000, -0.012679 0.007271 0.016000,
 -0.012657 0.007272 -0.016000, -0.012573 -0.003954 0.002677, -0.012556 0.007306 0.016000, -0.012300 -0.004057 0.002722, -0.011996 -0.000307 0.000000,
 -0.011996 -0.000307 0.007500, -0.011994 -0.000375 0.000000, -0.011952 -0.001077 0.000675, -0.011893 0.001597 0.000000, -0.011893 0.001597 0.007500,
 -0.011868 -0.001776 0.001360, -0.011856 -0.001856 0.001491, -0.011825 -0.002037 0.001726, -0.011808 -0.002138 0.001855, -0.011796 -0.002203 0.007500,
 -0.011795 -0.002203 0.001916, -0.011743 -0.002469 0.002164, -0.011742 -0.002473 0.002168, -0.011705 -0.004290 0.002749, -0.011696 -0.004294 0.002750,
 -0.011657 -0.002848 0.002418, -0.011621 -0.002987 0.002480, -0.011550 -0.003254 0.002601, -0.011490 0.003461 0.000000, -0.011490 0.003461 0.007500,
 -0.011461 -0.003549 0.002679, -0.011423 -0.003677 0.002713, -0.011298 -0.004043 0.007500, -0.011297 -0.004043 0.002745, -0.011276 -0.004106 0.002750,
 -0.011266 -0.004130 0.002748, -0.011112 -0.004529 0.002712, -0.011112 -0.004529 0.007500, -0.011000 0.000000 -0.011750, -0.011000 0.000000 -0.007500,
 -0.010909 0.005000 -0.007500, -0.010909 0.005000 0.000000, -0.010864 0.001723 -0.011750, -0.010864 0.001723 -0.007500, -0.010857 -0.001767 -0.011750,
 -0.010857 -0.001767 -0.007500, -0.010797 0.005237 -0.007500, -0.010797 0.005237 0.007500, -0.010460 0.003404 -0.011750, -0.010460 0.003404 -0.007500,
 -0.010433 -0.003487 -0.011750, -0.010433 -0.003487 -0.007500, -0.009871 -0.005058 0.007500, -0.009871 -0.005058 0.011750, -0.009831 0.006881 -0.007500,
 -0.009831 0.006881 0.007500, -0.009798 0.005000 -0.011750, -0.009798 0.005000 -0.007500, -0.009737 -0.005118 -0.011750, -0.009737 -0.005118 -0.007500,
 -0.008617 0.008351 -0.007500, -0.008617 0.008351 0.007500, -0.007186 0.009610 -0.007500, -0.007186 0.009610 0.007500, -0.007094 -0.006379 -0.011750,
 -0.007094 -0.006379 -0.007500, -0.006161 -0.006867 0.007500, -0.006161 -0.006867 0.011750, -0.005573 0.010627 -0.007500, -0.005573 0.010627 0.007500,
 -0.005200 0.000000 -0.011750, -0.005200 0.000000 -0.007500, -0.005200 0.000000 0.007500, -0.005200 0.000000 0.011750, -0.005049 -0.001244 -0.011750,
 -0.005049 -0.001244 -0.007500, -0.005049 -0.001244 0.007500, -0.005049 -0.001244 0.011750, -0.005049 0.001244 -0.011750, -0.005049 0.001244 -0.007500,
 -0.005049 0.001244 0.007500, -0.005049 0.001244 0.011750, -0.004604 -0.002417 -0.011750, -0.004604 -0.002417 -0.007500, -0.004604 -0.002417 0.007500,
 -0.004604 -0.002417 0.011750, -0.004604 0.002417 -0.011750, -0.004604 0.002417 -0.007500, -0.004604 0.002417 0.007500, -0.004604 0.002417 0.011750,
 -0.004523 -0.007781 -0.011750, -0.004523 -0.007781 -0.007500, -0.004523 -0.007781 0.007500, -0.004523 -0.007781 0.011750, -0.003892 -0.003448 -0.011750,
 -0.003892 -0.003448 -0.007500, -0.003892 -0.003448 0.007500, -0.003892 -0.003448 0.011750, -0.003892 0.003448 -0.011750, -0.003892 0.003448 -0.007500,
 -0.003892 0.003448 0.007500, -0.003892 0.003448 0.011750, -0.003820 0.011376 -0.007500, -0.003820 0.011376 0.007500, -0.003693 0.010361 -0.016000,
 -0.003693 0.010361 -0.011750, -0.003693 0.010361 0.011750, -0.003693 0.010361 0.016000, -0.003476 0.010436 -0.011750, -0.003476 0.010436 0.011750,
 -0.002954 -0.004280 -0.011750, -0.002954 -0.004280 -0.007500, -0.002954 -0.004280 0.007500, -0.002954 -0.004280 0.011750, -0.002954 0.004280 -0.011750,
 -0.002954 0.004280 -0.007500, -0.002954 0.004280 0.007500, -0.002954 0.004280 0.011750, -0.002943 -0.008505 -0.011750, -0.002943 -0.008505 -0.007500,
 -0.002943 -0.008505 0.007500, -0.002943 -0.008505 0.011750, -0.002633 0.010680 0.011750, -0.002633 0.010680 0.016000, -0.001970 0.011837 -0.007500,
 -0.001970 0.011837 0.007500, -0.001844 -0.004862 -0.011750, -0.001844 -0.004862 -0.007500, -0.001844 -0.004862 0.007500, -0.001844 -0.004862 0.011750,
 -0.001844 0.004862 -0.011750, -0.001844 0.004862 -0.007500, -0.001844 0.004862 0.007500, -0.001844 0.004862 0.011750, -0.001841 0.010845 -0.016000,
 -0.001841 0.010845 -0.011750, -0.001254 -0.008912 -0.011750, -0.001254 -0.008912 -0.007500, -0.001254 -0.008912 0.007500, -0.001254 -0.008912 0.011750,
 -0.000784 0.010972 0.011750, -0.000784 0.010972 0.016000, -0.000627 -0.005162 -0.011750, -0.000627 -0.005162 -0.007500, -0.000627 -0.005162 0.007500,
 -0.000627 -0.005162 0.011750, -0.000627 0.005162 -0.011750, -0.000627 0.005162 -0.007500, -0.000627 0.005162 0.007500, -0.000627 0.005162 0.011750,
 -0.000070 0.012000 -0.007500, -0.000070 0.012000 0.007500, 0.000067 0.011000 -0.016000, 0.000067 0.011000 -0.011750, 0.000483 -0.008987 -0.011750,
 0.000483 -0.008987 -0.007500, 0.000483 -0.008987 0.007500, 0.000483 -0.008987 0.011750, 0.000627 -0.005162 -0.011750, 0.000627 -0.005162 -0.007500,
 0.000627 -0.005162 0.007500, 0.000627 -0.005162 0.011750, 0.000627 0.005162 -0.011750, 0.000627 0.005162 -0.007500, 0.000627 0.005162 0.007500,
 0.000627 0.005162 0.011750, 0.001088 0.010946 0.011750, 0.001088 0.010946 0.016000, 0.001831 0.011859 -0.007500, 0.001831 0.011859 0.007500,
 0.001844 -0.004862 -0.011750, 0.001844 -0.004862 -0.007500, 0.001844 -0.004862 0.007500, 0.001844 -0.004862 0.011750, 0.001844 0.004862 -0.011750,
 0.001844 0.004862 -0.007500, 0.001844 0.004862 0.007500, 0.001844 0.004862 0.011750, 0.001974 0.010822 -0.016000, 0.001974 0.010822 -0.011750,
 0.002201 -0.008727 -0.011750, 0.002201 -0.008727 -0.007500, 0.002201 -0.008727 0.007500, 0.002201 -0.008727 0.011750, 0.002928 0.010603 0.011750,
 0.002928 0.010603 0.016000, 0.002954 -0.004280 -0.011750, 0.002954 -0.004280 -0.007500, 0.002954 -0.004280 0.007500, 0.002954 -0.004280 0.011750,
 0.002954 0.004280 -0.011750, 0.002954 0.004280 -0.007500, 0.002954 0.004280 0.007500, 0.002954 0.004280 0.011750, 0.003686 0.011420 -0.007500,
 0.003686 0.011420 0.007500, 0.003820 0.010315 -0.016000, 0.003820 0.010315 -0.011750, 0.003837 -0.008141 -0.011750, 0.003837 -0.008141 -0.007500,
 0.003837 -0.008141 0.007500, 0.003837 -0.008141 0.011750, 0.003892 -0.003448 -0.011750, 0.003892 -0.003448 -0.007500, 0.003892 -0.003448 0.007500,
 0.003892 -0.003448 0.011750, 0.003892 0.003448 -0.011750, 0.003892 0.003448 -0.007500, 0.003892 0.003448 0.007500, 0.003892 0.003448 0.011750,
 0.004178 0.011249 -0.007500, 0.004178 0.011249 0.007500, 0.004604 -0.002417 -0.011750, 0.004604 -0.002417 -0.007500, 0.004604 -0.002417 0.007500,
 0.004604 -0.002417 0.011750, 0.004604 0.002417 -0.011750, 0.004604 0.002417 -0.007500, 0.004604 0.002417 0.007500, 0.004604 0.002417 0.011750,
 0.004684 0.009953 0.011750, 0.004684 0.009953 0.016000, 0.005049 -0.001244 -0.011750, 0.005049 -0.001244 -0.007500, 0.005049 -0.001244 0.007500,
 0.005049 -0.001244 0.011750, 0.005049 0.001244 -0.011750, 0.005049 0.001244 -0.007500, 0.005049 0.001244 0.007500, 0.005049 0.001244 0.011750,
 0.005200 0.000000 -0.011750, 0.005200 0.000000 -0.007500, 0.005200 0.000000 0.007500, 0.005200 0.000000 0.011750, 0.005330 -0.007252 -0.011750,
 0.005330 -0.007252 -0.007500, 0.005330 -0.007252 0.007500, 0.005330 -0.007252 0.011750, 0.005551 0.009497 -0.016000, 0.005551 0.009497 -0.011750,
 0.006304 0.009015 0.011750, 0.006304 0.009015 0.016000, 0.006624 -0.006093 -0.011750, 0.006624 -0.006093 -0.007500, 0.006624 -0.006093 0.007500,
 0.006624 -0.006093 0.011750, 0.007113 0.008391 -0.016000, 0.007113 0.008391 -0.011750, 0.007672 -0.004706 -0.011750, 0.007672 -0.004706 -0.007500,
 0.007672 -0.004706 0.007500, 0.007672 -0.004706 0.011750, 0.007741 0.007815 0.011750, 0.007741 0.007815 0.016000, 0.008433 -0.003144 -0.011750,
 0.008433 -0.003144 -0.007500, 0.008433 -0.003144 0.007500, 0.008433 -0.003144 0.011750, 0.008460 0.007030 -0.016000, 0.008460 0.007030 -0.011750,
 0.008880 -0.001465 -0.011750, 0.008880 -0.001465 -0.007500, 0.008880 -0.001465 0.007500, 0.008880 -0.001465 0.011750, 0.008954 0.006389 0.011750,
 0.008954 0.006389 0.016000, 0.009411 0.000909 -0.011750, 0.009411 0.000909 -0.007500, 0.009411 0.000909 0.007500, 0.009411 0.000909 0.011750,
 0.009551 0.005457 -0.016000, 0.009551 0.005457 -0.011750, 0.009551 0.005457 0.011750, 0.009551 0.005457 0.016000, 0.009690 0.005268 -0.016000,
 0.009690 0.005268 -0.011750, 0.009690 0.005268 0.011750, 0.009690 0.005268 0.016000, 0.009854 0.022000 -0.012000, 0.009854 0.022000 0.012000,
 0.009870 0.005117 -0.016000, 0.009870 0.005117 -0.011750, 0.009870 0.005117 0.011750, 0.009870 0.005117 0.016000, 0.010080 0.005012 -0.016000,
 0.010080 0.005012 -0.011750, 0.010080 0.005012 0.011750, 0.010080 0.005012 0.016000, 0.010113 0.021966 -0.012000, 0.010113 0.021966 0.012000,
 0.010179 0.017556 -0.012000, 0.010179 0.017556 0.012000, 0.010189 0.017260 -0.007500, 0.010189 0.017260 0.007500, 0.010207 0.003208 -0.011750,
 0.010207 0.003208 -0.007500, 0.010207 0.003208 0.007500, 0.010207 0.003208 0.011750, 0.010308 0.004959 -0.016000, 0.010308 0.004959 -0.011750,
 0.010308 0.004959 0.011750, 0.010308 0.004959 0.016000, 0.010316 0.019114 -0.012000, 0.010316 0.019114 0.012000, 0.010354 0.021866 -0.012000,
 0.010354 0.021866 0.012000, 0.010367 0.016004 -0.012000, 0.010367 0.016004 -0.007500, 0.010367 0.016004 0.007500, 0.010367 0.016004 0.012000,
 0.010543 0.004961 -0.016000, 0.010543 0.004961 -0.011750, 0.010543 0.004961 0.011750, 0.010543 0.004961 0.016000, 0.010561 0.021707 -0.012000,
 0.010561 0.021707 0.012000, 0.010720 0.021500 -0.012000, 0.010720 0.021500 0.012000, 0.010771 0.005017 -0.016000, 0.010771 0.005017 -0.011750,
 0.010771 0.005017 0.011750, 0.010771 0.005017 0.016000, 0.010774 0.020609 -0.012000, 0.010774 0.020609 0.012000, 0.010820 0.021259 -0.012000,
 0.010820 0.021259 0.012000, 0.010834 0.020801 -0.012000, 0.010834 0.020801 0.012000, 0.010854 0.021000 -0.012000, 0.010854 0.021000 0.012000,
 0.010873 0.014524 -0.012000, 0.010873 0.014524 -0.007500, 0.010873 0.014524 0.007500, 0.010873 0.014524 0.012000, 0.010979 0.005124 -0.016000,
 0.010979 0.005124 -0.011750, 0.010979 0.005124 0.011750, 0.010979 0.005124 0.016000, 0.011157 0.005278 -0.016000, 0.011157 0.005278 -0.011750,
 0.011157 0.005278 0.011750, 0.011157 0.005278 0.016000, 0.011258 0.005403 -0.011750, 0.011258 0.005403 -0.007500, 0.011258 0.005403 0.007500,
 0.011258 0.005403 0.011750, 0.011294 0.005468 -0.016000, 0.011294 0.005468 -0.011750, 0.011294 0.005468 0.011750, 0.011294 0.005468 0.016000,
 0.011674 0.013182 -0.012000, 0.011674 0.013182 -0.007500, 0.011674 0.013182 0.007500, 0.011674 0.013182 0.012000, 0.012549 0.007464 -0.016000,
 0.012549 0.007464 -0.007500, 0.012549 0.007464 0.007500, 0.012549 0.007464 0.016000, 0.012737 0.012035 -0.012000, 0.012737 0.012035 -0.007500,
 0.012737 0.012035 0.007500, 0.012737 0.012035 0.012000, 0.014015 0.011133 -0.012000, 0.014015 0.011133 -0.007500, 0.014015 0.011133 0.007500,
 0.014015 0.011133 0.012000, 0.014066 0.009367 -0.016000, 0.014066 0.009367 -0.007500, 0.014066 0.009367 0.007500, 0.014066 0.009367 0.016000,
 0.014187 0.011011 0.007500, 0.014187 0.011011 0.012000, 0.014221 0.010980 -0.012000, 0.014221 0.010980 -0.007500, 0.014263 0.009584 -0.012000,
 0.014263 0.009584 -0.007500, 0.014263 0.009584 0.007500, 0.014263 0.009584 0.012000, 0.014331 0.010855 0.007500, 0.014331 0.010855 0.012000,
 0.014381 0.010779 -0.012000, 0.014381 0.010779 -0.007500, 0.014406 0.009785 0.007500, 0.014406 0.009785 0.012000, 0.014411 0.009794 -0.012000,
 0.014411 0.009794 -0.007500, 0.014438 0.010672 0.007500, 0.014438 0.010672 0.012000, 0.014485 0.010544 -0.012000, 0.014485 0.010544 -0.007500,
 0.014496 0.010015 0.007500, 0.014496 0.010015 0.012000, 0.014500 0.010035 -0.012000, 0.014500 0.010035 -0.007500, 0.014504 0.010471 0.007500,
 0.014504 0.010471 0.012000, 0.014526 0.010290 -0.012000, 0.014526 0.010290 -0.007500, 0.014526 0.010260 0.007500, 0.014526 0.010260 0.012000,
 0.014728 0.017678 -0.016000, 0.014728 0.017678 0.016000, 0.014740 0.017942 -0.016000, 0.014740 0.017942 0.016000, 0.014828 0.016914 -0.016000,
 0.014828 0.016914 0.016000, 0.014893 0.018652 -0.016000, 0.014893 0.018652 0.016000, 0.015123 0.016203 -0.016000, 0.015123 0.016203 0.016000,
 0.015216 0.019303 -0.016000, 0.015216 0.019303 0.016000, 0.015592 0.015592 -0.016000, 0.015592 0.015592 0.016000, 0.015687 0.019855 -0.016000,
 0.015687 0.019855 0.016000, 0.015787 0.011086 -0.016000, 0.015787 0.011086 -0.012000, 0.015787 0.011086 0.012000, 0.015787 0.011086 0.016000,
 0.015859 0.020000 -0.016000, 0.015859 0.020000 0.016000, 0.016203 0.015123 -0.016000, 0.016203 0.015123 0.016000, 0.016227 0.020114 -0.015886,
 0.016228 0.017678 -0.014500, 0.016228 0.017678 -0.012000, 0.016228 0.017678 0.012000, 0.016228 0.017678 0.014500, 0.016234 0.017808 -0.014500,
 0.016234 0.017808 0.014500, 0.016277 0.017302 -0.014500, 0.016277 0.017302 -0.012000, 0.016277 0.017302 0.012000, 0.016277 0.017302 0.014500,
 0.016277 0.018053 -0.012000, 0.016277 0.018053 0.012000, 0.016286 0.018051 -0.014500, 0.016286 0.018051 0.014500, 0.016309 0.018157 -0.014500,
 0.016309 0.018157 0.014500, 0.016349 0.020142 -0.015858, 0.016349 0.020143 0.015857, 0.016420 0.020164 0.015836, 0.016422 0.016953 -0.014500,
 0.016422 0.016953 -0.012000, 0.016422 0.016953 0.012000, 0.016422 0.016953 0.014500, 0.016422 0.018403 -0.012000, 0.016422 0.018403 0.012000,
 0.016429 0.018399 -0.014500, 0.016429 0.018399 0.014500, 0.016468 0.018476 -0.014500, 0.016468 0.018476 0.014500, 0.016652 0.016652 -0.014500,
 0.016652 0.016652 -0.012000, 0.016652 0.016652 0.012000, 0.016652 0.016652 0.014500, 0.016652 0.018703 -0.012000, 0.016652 0.018703 0.012000,
 0.016657 0.018699 -0.014500, 0.016657 0.018699 0.014500, 0.016699 0.018748 -0.014500, 0.016699 0.018748 0.014500, 0.016768 0.020235 -0.015765,
 0.016914 0.014828 -0.016000, 0.016914 0.014828 0.016000, 0.016953 0.016422 -0.014500, 0.016953 0.016422 -0.012000, 0.016953 0.016422 0.012000,
 0.016953 0.016422 0.014500, 0.016953 0.018933 -0.012000, 0.016953 0.018933 0.012000, 0.016955 0.018930 -0.014500, 0.016955 0.018930 0.014500,
 0.016979 0.020267 0.015733, 0.016991 0.018955 -0.014500, 0.016991 0.018955 0.014500, 0.017023 0.020271 0.015729, 0.017024 0.020267 -0.015733,
 0.017292 0.020300 -0.015700, 0.017302 0.016277 -0.014500, 0.017302 0.016277 -0.012000, 0.017302 0.016277 0.012000, 0.017302 0.016277 0.014500,
 0.017302 0.019078 -0.012000, 0.017302 0.019078 0.012000, 0.017303 0.019076 -0.014500, 0.017303 0.019076 0.014500, 0.017323 0.019084 -0.014500,
 0.017323 0.019084 0.014500, 0.017525 0.020312 0.015688, 0.017677 0.020308 0.015692, 0.017678 0.014728 -0.016000, 0.017678 0.014728 0.016000,
 0.017678 0.016228 -0.014500, 0.017678 0.016228 -0.012000, 0.017678 0.016228 0.012000, 0.017678 0.016228 0.014500, 0.017678 0.019128 -0.014500,
 0.017678 0.019128 -0.012000, 0.017678 0.019128 0.012000, 0.017678 0.019128 0.014500, 0.017678 0.022000 -0.014000, 0.017678 0.022000 -0.012000,
 0.017678 0.022000 0.012000, 0.017678 0.022000 0.014000, 0.017678 0.020308 -0.015692, 0.017692 0.012599 -0.016000, 0.017692 0.012599 -0.012000,
 0.017692 0.012599 0.012000, 0.017692 0.012599 0.016000, 0.017803 0.021998 -0.014002, 0.017831 0.020312 -0.015688, 0.018032 0.019084 -0.014500,
 0.018032 0.019084 0.014500, 0.018052 0.019076 -0.014500, 0.018052 0.019076 0.014500, 0.018053 0.016277 -0.014500, 0.018053 0.016277 -0.012000,
 0.018053 0.016277 0.012000, 0.018053 0.016277 0.014500, 0.018053 0.019078 -0.012000, 0.018053 0.019078 0.012000, 0.018064 0.020300 0.015700,
 0.018332 0.020267 0.015733, 0.018332 0.020271 -0.015729, 0.018365 0.018955 -0.014500, 0.018365 0.018955 0.014500, 0.018377 0.020267 -0.015733,
 0.018400 0.018930 -0.014500, 0.018400 0.018930 0.014500, 0.018403 0.016422 -0.014500, 0.018403 0.016422 -0.012000, 0.018403 0.016422 0.012000,
 0.018403 0.016422 0.014500, 0.018403 0.018933 -0.012000, 0.018403 0.018933 0.012000, 0.018437 0.021933 0.014067, 0.018441 0.014828 -0.016000,
 0.018441 0.014828 0.016000, 0.018530 0.021915 -0.014085, 0.018587 0.020235 0.015765, 0.018656 0.018748 -0.014500, 0.018656 0.018748 0.014500,
 0.018698 0.018699 -0.014500, 0.018698 0.018699 0.014500, 0.018701 0.021860 0.014140, 0.018702 0.021864 -0.014136, 0.018703 0.016652 -0.014500,
 0.018703 0.016652 -0.012000, 0.018703 0.016652 0.012000, 0.018703 0.016652 0.014500, 0.018703 0.018703 -0.012000, 0.018703 0.018703 0.012000,
 0.018705 0.021876 -0.012000, 0.018705 0.021876 0.012000, 0.018888 0.018476 -0.014500, 0.018888 0.018476 0.014500, 0.018926 0.018399 -0.014500,
 0.018926 0.018399 0.014500, 0.018933 0.016953 -0.014500, 0.018933 0.016953 -0.012000, 0.018933 0.016953 0.012000, 0.018933 0.016953 0.014500,
 0.018933 0.018403 -0.012000, 0.018933 0.018403 0.012000, 0.018935 0.020164 -0.015836, 0.019006 0.020143 -0.015857, 0.019007 0.020142 0.015858,
 0.019046 0.018157 -0.014500, 0.019046 0.018157 0.014500, 0.019069 0.018051 -0.014500, 0.019069 0.018051 0.014500, 0.019078 0.017302 -0.014500,
 0.019078 0.017302 -0.012000, 0.019078 0.017302 0.012000, 0.019078 0.017302 0.014500, 0.019078 0.018053 -0.012000, 0.019078 0.018053 0.012000,
 0.019122 0.017808 -0.014500, 0.019122 0.017808 0.014500, 0.019128 0.017678 -0.014500, 0.019128 0.017678 -0.012000, 0.019128 0.017678 0.012000,
 0.019128 0.017678 0.014500, 0.019128 0.020114 0.015886, 0.019153 0.015123 -0.016000, 0.019153 0.015123 0.016000, 0.019197 0.021724 0.014276,
 0.019274 0.021695 -0.014305, 0.019497 0.020000 -0.016000, 0.019497 0.020000 0.016000, 0.019663 0.021491 -0.014509, 0.019664 0.021492 0.014508,
 0.019668 0.019855 -0.016000, 0.019668 0.019855 0.016000, 0.019674 0.021512 -0.012000, 0.019674 0.021512 0.012000, 0.019756 0.013888 -0.016000,
 0.019756 0.013888 -0.012000, 0.019756 0.013888 0.012000, 0.019756 0.013888 0.016000, 0.019764 0.015592 -0.016000, 0.019764 0.015592 0.016000,
 0.019981 0.021335 0.014665, 0.020059 0.021285 -0.014715, 0.020140 0.019303 -0.016000, 0.020140 0.019303 0.016000, 0.020232 0.016203 -0.016000,
 0.020232 0.016203 0.016000, 0.020462 0.018652 -0.016000, 0.020462 0.018652 0.016000, 0.020516 0.020913 -0.015087, 0.020518 0.020915 0.015085,
 0.020527 0.016914 -0.016000, 0.020527 0.016914 0.016000, 0.020528 0.020927 -0.012000, 0.020528 0.020927 0.012000, 0.020597 0.014490 -0.016000,
 0.020597 0.014490 -0.012000, 0.020597 0.014490 0.012000, 0.020597 0.014490 0.016000, 0.020616 0.017942 -0.016000, 0.020616 0.017942 0.016000,
 0.020628 0.017678 -0.016000, 0.020628 0.017678 0.016000, 0.020669 0.020798 0.015202, 0.020726 0.020742 -0.015258, 0.021205 0.020146 -0.015854,
 0.021215 0.020154 0.015846, 0.021218 0.020157 -0.012000, 0.021218 0.020157 0.012000, 0.021244 0.020119 0.015881, 0.021271 0.015276 -0.016000,
 0.021271 0.015276 -0.012000, 0.021271 0.015276 0.012000, 0.021271 0.015276 0.016000, 0.021323 0.020000 -0.016000, 0.021323 0.020000 0.016000,
 0.021706 0.019244 -0.016000, 0.021706 0.019244 -0.012000, 0.021706 0.019244 0.012000, 0.021706 0.019244 0.016000, 0.021739 0.016199 -0.016000,
 0.021739 0.016199 -0.012000, 0.021739 0.016199 0.012000, 0.021739 0.016199 0.016000, 0.021963 0.018241 -0.016000, 0.021963 0.018241 -0.012000,
 0.021963 0.018241 0.012000, 0.021963 0.018241 0.016000, 0.021974 0.017207 -0.016000, 0.021974 0.017207 -0.012000, 0.021974 0.017207 0.012000,
 0.021974 0.017207 0.016000
]
}
normal Normal {
vector [
 -1.000000 0.000000 0.000000, -0.995974 -0.089639 0.000000, -0.987656 0.156640 0.000000, -0.987020 -0.160599 0.000000, -0.982872 0.000000 -0.184289,
 -0.970942 -0.239316 0.000000, -0.970942 0.239316 0.000000, -0.965926 -0.258819 0.000000, -0.965926 0.258819 0.000000, -0.965844 -0.259123 0.000000,
 -0.953791 -0.229718 -0.193683, -0.952643 -0.234361 -0.193768, -0.952593 -0.234559 -0.193772, -0.950928 0.309412 0.000000, -0.949957 -0.244881 -0.193945,
 -0.948416 -0.317029 0.000000, -0.943883 -0.330279 0.000000, -0.894427 0.000000 0.447214, -0.890724 0.454545 0.000000, -0.885456 -0.464723 0.000000,
 -0.885456 0.464723 0.000000, -0.885190 -0.465229 0.000000, -0.874304 -0.445476 -0.192725, -0.870163 -0.166506 0.463780, -0.869143 -0.455597 -0.192412,
 -0.869056 -0.455765 -0.192406, -0.868273 -0.496087 0.000000, -0.867261 -0.459219 -0.192293, -0.866025 -0.500000 0.000000, -0.866025 0.500000 0.000000,
 -0.865847 -0.500309 0.000000, -0.856583 -0.220854 0.466358, -0.854488 -0.228331 0.466599, -0.854459 -0.228434 0.466602, -0.834573 -0.550897 0.000000,
 -0.814011 -0.580850 0.000000, -0.806063 -0.364926 0.465930, -0.780299 -0.420790 0.462676, -0.769109 -0.639118 0.000000, -0.768255 -0.444424 0.460728,
 -0.768200 -0.444530 0.460719, -0.764651 0.644444 0.000000, -0.748511 -0.663123 0.000000, -0.748511 0.663123 0.000000, -0.743332 -0.643970 -0.180998,
 -0.738049 -0.650181 -0.180409, -0.736984 -0.651422 -0.180289, -0.736913 -0.651504 -0.180281, -0.728828 -0.684697 0.000000, -0.707107 -0.707107 0.000000,
 -0.707107 0.000000 -0.707107, -0.707107 0.000000 0.707107, -0.707107 0.707107 0.000000, -0.706855 -0.707359 0.000000, -0.705728 0.708483 0.000000,
 -0.704260 -0.063385 -0.707107, -0.704260 -0.063385 0.707107, -0.703729 -0.710469 0.000000, -0.700756 -0.556554 0.446305, -0.683013 0.183013 -0.707107,
 -0.683013 0.183013 0.707107, -0.682955 -0.183227 -0.707107, -0.682955 -0.183227 0.707107, -0.674671 -0.738119 0.000000, -0.667426 -0.233543 -0.707107,
 -0.667426 -0.233543 0.707107, -0.657403 -0.615457 0.434781, -0.646648 -0.762789 0.000000, -0.641460 0.767156 0.000000, -0.640372 -0.636489 0.429891,
 -0.640300 -0.636576 0.429869, -0.612372 0.353553 -0.707107, -0.612372 0.353553 0.707107, -0.612246 -0.353772 -0.707107, -0.612246 -0.353772 0.707107,
 -0.590132 -0.389543 -0.707107, -0.590132 -0.389543 0.707107, -0.573065 -0.819510 0.000000, -0.572334 0.820020 0.000000, -0.568065 -0.822984 0.000000,
 -0.568065 0.822984 0.000000, -0.563482 -0.810867 -0.158063, -0.549284 -0.835636 0.000000, -0.547378 -0.734909 0.400357, -0.504599 -0.863354 0.000000,
 -0.502512 -0.864570 0.000000, -0.500184 -0.776181 0.383874, -0.500000 -0.866025 0.000000, -0.500000 0.500000 -0.707107, -0.500000 0.500000 0.707107,
 -0.500000 0.866025 0.000000, -0.499822 -0.500178 -0.707107, -0.499822 -0.500178 0.707107, -0.499737 -0.866177 0.000000, -0.498875 0.866674 0.000000,
 -0.477744 -0.794090 0.375741, -0.477631 -0.794178 0.375699, -0.477064 -0.521929 -0.707107, -0.477064 -0.521929 0.707107, -0.473869 -0.880596 0.000000,
 -0.472173 -0.881506 0.000000, -0.454899 -0.890543 0.000000, -0.436044 -0.556656 -0.707107, -0.436044 -0.556656 0.707107, -0.425803 -0.904816 0.000000,
 -0.421637 0.906765 0.000000, -0.407394 -0.843876 0.349147, -0.405947 -0.913896 0.000000, -0.403473 -0.914992 0.000000, -0.380479 -0.924790 0.000000,
 -0.377124 -0.916996 -0.129981, -0.369681 -0.929159 0.000000, -0.369502 -0.929230 0.000000, -0.361727 -0.607580 0.707107, -0.359202 -0.872945 0.330061,
 -0.358731 -0.924757 -0.127033, -0.358491 -0.933533 0.000000, -0.358429 -0.924880 -0.126985, -0.354605 -0.935016 0.000000, -0.354605 0.935016 0.000000,
 -0.353553 0.612372 -0.707107, -0.353553 0.612372 0.707107, -0.353440 -0.935457 0.000000, -0.353368 -0.612480 -0.707107, -0.353368 -0.612480 0.707107,
 -0.350642 -0.928032 -0.125728, -0.348174 -0.937430 0.000000, -0.347265 -0.937767 0.000000, -0.346238 -0.938147 0.000000, -0.341206 0.939988 0.000000,
 -0.339519 -0.940599 0.000000, -0.337714 -0.941249 0.000000, -0.335683 -0.622348 0.707107, -0.335555 -0.942020 0.000000, -0.335422 -0.622489 -0.707107,
 -0.335076 -0.622675 -0.707107, -0.335076 -0.622675 0.707107, -0.332416 -0.943133 0.000000, -0.332416 -0.943133 0.000000, -0.326993 -0.945027 0.000000,
 -0.324545 -0.945870 0.000000, -0.323228 -0.946321 0.000000, -0.319138 -0.630992 -0.707107, -0.315990 -0.948763 0.000000, -0.310868 -0.950453 0.000000,
 -0.308604 -0.951191 0.000000, -0.307196 -0.951646 0.000000, -0.303465 -0.952842 0.000000, -0.289304 -0.908597 0.301257, -0.288966 -0.908751 0.301115,
 -0.287653 -0.957735 0.000000, -0.283208 -0.959058 0.000000, -0.266209 -0.963915 0.000000, -0.262824 -0.964844 0.000000, -0.259417 -0.965765 0.000000,
 -0.259416 -0.965766 0.000000, -0.258819 -0.965926 0.000000, -0.258819 0.965926 0.000000, -0.258638 -0.965974 0.000000, -0.258192 0.966094 0.000000,
 -0.244340 -0.969690 0.000000, -0.242777 -0.970082 0.000000, -0.236926 -0.666233 0.707107, -0.207101 -0.941512 0.265829, -0.197375 -0.980328 0.000000,
 -0.184909 -0.982756 0.000000, -0.184903 -0.982757 0.000000, -0.184279 -0.682672 -0.707107, -0.183013 0.683013 -0.707107, -0.183013 0.683013 0.707107,
 -0.182885 -0.683047 -0.707107, -0.182885 -0.683047 0.707107, -0.179413 -0.983774 0.000000, -0.173222 0.984883 0.000000, -0.173195 -0.685568 0.707107,
 -0.172953 -0.685629 -0.707107, -0.172775 -0.685674 -0.707107, -0.172775 -0.685674 0.707107, -0.167177 -0.687060 0.707107, -0.153843 -0.983763 -0.092431,
 -0.152597 -0.988288 0.000000, -0.150958 -0.958780 0.240734, -0.142202 -0.692661 0.707107, -0.141897 -0.692723 0.707107, -0.139565 -0.693197 0.707107,
 -0.139284 -0.990252 0.000000, -0.134089 -0.990969 0.000000, -0.133740 -0.987024 -0.088872, -0.133381 -0.987078 -0.088808, -0.130751 -0.694913 0.707107,
 -0.121618 -0.988782 -0.086713, -0.120537 -0.992709 0.000000, -0.120537 0.992709 0.000000, -0.111074 -0.993812 0.000000, -0.109314 -0.994007 0.000000,
 -0.109309 -0.994008 0.000000, -0.102955 -0.699571 0.707107, -0.098904 -0.995097 0.000000, -0.094815 -0.700721 0.707107, -0.086940 0.996214 0.000000,
 -0.085230 -0.973878 0.210472, -0.084832 -0.973953 0.210285, -0.077297 -0.702869 0.707107, -0.066894 -0.997760 0.000000, -0.056647 0.155635 -0.986189,
 -0.047301 -0.705523 0.707107, -0.041012 -0.705916 -0.707107, -0.033077 -0.999453 0.000000, -0.033077 -0.999453 0.000000, -0.023389 -0.706720 0.707107,
 -0.006125 -0.999981 0.000000, -0.004304 0.011824 -0.999921, -0.003446 0.009467 -0.999949, -0.003425 0.009409 -0.999950, -0.000237 0.000652 -1.000000,
 -0.000066 -0.707107 -0.707107, -0.000000 -1.000000 0.000000, -0.000000 -0.707107 -0.707107, 0.000000 -0.707107 0.707107, 0.000000 0.000000 -1.000000,
 0.000000 0.000000 1.000000, -0.000000 0.707107 -0.707107, 0.000000 0.707107 0.707107, 0.000000 1.000000 0.000000, 0.000066 -0.707107 0.707107,
 0.000429 -0.707107 0.707107, 0.000606 -1.000000 0.000000, 0.005854 -0.999983 0.000000, 0.008089 -0.022225 -0.999720, 0.009551 -0.986213 0.165207,
 0.028942 0.999581 0.000000, 0.030655 -0.706442 0.707107, 0.041012 -0.705916 0.707107, 0.043349 -0.999060 0.000000, 0.043353 -0.999060 0.000000,
 0.048156 -0.705465 0.707107, 0.049039 -0.134732 -0.989668, 0.053618 -0.998562 0.000000, 0.056219 -0.154462 -0.986398, 0.068103 -0.997678 0.000000,
 0.071265 -0.997457 0.000000, 0.072922 -0.200353 -0.977006, 0.072939 -0.200397 -0.976996, 0.076532 -0.988281 0.132073, 0.079191 -0.995630 -0.049504,
 0.084519 -0.702037 0.707107, 0.095665 -0.700606 0.707107, 0.098705 -0.994065 -0.045744, 0.099081 -0.994031 -0.045671, 0.102955 -0.699571 -0.707107,
 0.106301 -0.292060 -0.950474, 0.109591 -0.993019 -0.043635, 0.110957 -0.304853 -0.945914, 0.119521 -0.992832 0.000000, 0.119528 -0.992831 0.000000,
 0.120537 -0.992709 0.000000, 0.120537 0.992709 0.000000, 0.123377 -0.986429 0.108331, 0.123482 -0.992347 0.000000, 0.123862 -0.986396 0.108083,
 0.135290 -0.990806 0.000000, 0.137886 -0.693533 0.707107, 0.142736 -0.692551 0.707107, 0.145693 -0.400288 -0.904734, 0.145696 -0.400296 -0.904730,
 0.155293 -0.426665 -0.890978, 0.162959 -0.447726 -0.879196, 0.164157 -0.986434 0.000000, 0.167348 -0.985898 0.000000, 0.169959 -0.466958 -0.867793,
 0.172775 -0.685674 -0.707107, 0.172775 -0.685674 0.707107, 0.172953 -0.685629 0.707107, 0.173195 -0.685568 -0.707107, 0.175617 0.984459 0.000000,
 0.182885 -0.683047 -0.707107, 0.182885 -0.683047 0.707107, 0.183013 0.683013 -0.707107, 0.183013 0.683013 0.707107, 0.184279 -0.682672 0.707107,
 0.189157 -0.681337 0.707107, 0.190445 -0.680978 0.707107, 0.194995 -0.980804 0.000000, 0.195001 -0.980803 0.000000, 0.197169 0.980370 0.000000,
 0.200015 -0.678229 0.707107, 0.201860 -0.979414 0.000000, 0.204886 -0.562919 -0.800715, 0.206650 -0.676237 0.707107, 0.210418 -0.578119 -0.788354,
 0.211026 -0.579789 -0.786964, 0.211040 -0.579829 -0.786931, 0.213988 -0.673950 0.707107, 0.229691 -0.971838 0.052660, 0.236513 -0.971628 0.000000,
 0.236926 -0.666233 -0.707107, 0.237572 0.971370 0.000000, 0.237603 0.971362 0.000000, 0.237704 0.971338 0.000000, 0.239370 -0.970928 0.000000,
 0.241845 -0.664463 -0.707107, 0.242786 -0.667050 -0.704343, 0.244340 -0.969690 0.000000, 0.244521 -0.969644 0.000000, 0.244857 -0.672740 -0.698187,
 0.252452 -0.693606 -0.674670, 0.258638 -0.965974 0.000000, 0.258819 -0.965926 0.000000, 0.258819 0.965926 0.000000, 0.265756 -0.730158 -0.629479,
 0.265786 -0.730240 -0.629370, 0.267508 -0.963556 0.000000, 0.269330 -0.963048 0.000000, 0.269331 -0.963048 0.000000, 0.269728 -0.962937 0.000000,
 0.275081 -0.755779 -0.594246, 0.287350 -0.789489 -0.542345, 0.297295 -0.816811 -0.494404, 0.302625 -0.953110 0.000000, 0.316010 -0.948756 0.000000,
 0.318316 -0.947985 0.000000, 0.319138 -0.630992 0.707107, 0.325898 -0.945405 0.000000, 0.335076 -0.622675 -0.707107, 0.335076 -0.622675 0.707107,
 0.335422 -0.622489 0.707107, 0.335683 -0.622348 -0.707107, 0.335752 -0.941951 0.000000, 0.351244 -0.936284 0.000000, 0.351584 0.936156 0.000000,
 0.353368 -0.612480 -0.707107, 0.353368 -0.612480 0.707107, 0.353553 0.612372 -0.707107, 0.353553 0.612372 0.707107, 0.354605 -0.935016 0.000000,
 0.354605 0.935016 0.000000, 0.361727 -0.607580 -0.707107, 0.369247 0.929331 0.000000, 0.426308 -0.904578 0.000000, 0.436044 -0.556656 -0.707107,
 0.436044 -0.556656 0.707107, 0.461778 0.886996 0.000000, 0.461781 0.886994 0.000000, 0.461862 0.886952 0.000000, 0.464440 -0.885604 0.000000,
 0.473869 -0.880596 0.000000, 0.477064 -0.521929 -0.707107, 0.477064 -0.521929 0.707107, 0.480811 -0.876824 0.000000, 0.488402 0.872619 0.000000,
 0.499737 -0.866177 0.000000, 0.499822 -0.500178 -0.707107, 0.499822 -0.500178 0.707107, 0.500000 -0.866025 0.000000, 0.500000 0.500000 -0.707107,
 0.500000 0.500000 0.707107, 0.500000 0.866025 0.000000, 0.532781 0.846253 0.000000, 0.550851 0.834604 0.000000, 0.559681 -0.828708 0.000000,
 0.568065 -0.822984 0.000000, 0.568065 0.822984 0.000000, 0.576793 -0.816891 0.000000, 0.590132 -0.389543 -0.707107, 0.590132 -0.389543 0.707107,
 0.592202 -0.805790 0.000000, 0.598840 -0.800868 0.000000, 0.612246 -0.353772 -0.707107, 0.612246 -0.353772 0.707107, 0.612372 0.353553 -0.707107,
 0.612372 0.353553 0.707107, 0.658730 0.752379 0.000000, 0.659387 0.751803 0.000000, 0.659495 0.751709 0.000000, 0.659524 0.751684 0.000000,
 0.661161 0.750244 0.000000, 0.665388 -0.746497 0.000000, 0.667426 -0.233543 -0.707107, 0.667426 -0.233543 0.707107, 0.674671 -0.738119 0.000000,
 0.675455 -0.737402 0.000000, 0.682955 -0.183227 -0.707107, 0.682955 -0.183227 0.707107, 0.683013 0.183013 -0.707107, 0.683013 0.183013 0.707107,
 0.692105 0.721797 0.000000, 0.694650 0.719348 0.000000, 0.704260 -0.063385 -0.707107, 0.704260 -0.063385 0.707107, 0.705250 0.708958 0.000000,
 0.706855 -0.707359 0.000000, 0.707107 -0.707107 0.000000, 0.707107 0.000000 -0.707107, 0.707107 0.000000 0.707107, 0.707107 0.707107 0.000000,
 0.718123 -0.695916 0.000000, 0.736019 -0.676961 0.000000, 0.736315 -0.676639 0.000000, 0.737325 -0.675538 0.000000, 0.745464 -0.666546 0.000000,
 0.748511 -0.663123 0.000000, 0.748511 0.663123 0.000000, 0.800424 0.599434 0.000000, 0.804286 0.594243 0.000000, 0.815995 -0.578059 0.000000,
 0.819194 0.573516 0.000000, 0.819242 0.573448 0.000000, 0.819279 -0.573396 0.000000, 0.819324 0.573331 0.000000, 0.825196 0.564846 0.000000,
 0.831378 -0.555708 0.000000, 0.834573 -0.550897 0.000000, 0.843400 0.537287 0.000000, 0.852397 -0.522895 0.000000, 0.855030 0.518579 0.000000,
 0.865847 -0.500309 0.000000, 0.866025 -0.500000 0.000000, 0.866025 0.500000 0.000000, 0.874403 -0.485201 0.000000, 0.876077 -0.482171 0.000000,
 0.879751 -0.475436 0.000000, 0.884436 -0.466662 0.000000, 0.885456 -0.464723 0.000000, 0.885456 0.464723 0.000000, 0.899752 -0.436401 0.000000,
 0.907324 0.420432 0.000000, 0.909059 -0.416667 0.000000, 0.911362 0.411606 0.000000, 0.920449 -0.390862 0.000000, 0.924942 -0.380109 0.000000,
 0.926034 0.377440 0.000000, 0.932041 0.362352 0.000000, 0.936998 -0.349336 0.000000, 0.938906 0.344174 0.000000, 0.939638 0.342170 0.000000,
 0.939642 -0.342158 0.000000, 0.941530 0.336930 0.000000, 0.941530 0.336929 0.000000, 0.943883 -0.330279 0.000000, 0.951909 0.306380 0.000000,
 0.955242 0.295824 0.000000, 0.957513 -0.288390 0.000000, 0.958952 0.283568 0.000000, 0.961963 -0.273180 0.000000, 0.962521 0.271207 0.000000,
 0.965844 -0.259123 0.000000, 0.965926 -0.258819 0.000000, 0.965926 0.258819 0.000000, 0.968521 0.248930 0.000000, 0.969472 -0.245203 0.000000,
 0.970942 -0.239316 0.000000, 0.970942 0.239316 0.000000, 0.971420 0.237369 0.000000, 0.974157 -0.225872 0.000000, 0.974783 0.223154 0.000000,
 0.977589 0.210521 0.000000, 0.978528 0.206112 0.000000, 0.978610 0.205726 0.000000, 0.979910 -0.199438 0.000000, 0.981492 -0.191506 0.000000,
 0.983009 0.183557 0.000000, 0.983009 0.183556 0.000000, 0.984006 0.178133 0.000000, 0.985482 0.169780 0.000000, 0.986667 -0.162753 0.000000,
 0.987963 0.154692 0.000000, 0.988990 0.147980 0.000000, 0.991103 -0.133100 0.000000, 0.991459 0.130417 0.000000, 0.994042 -0.108995 0.000000,
 0.995963 0.089763 0.000000, 0.995974 -0.089639 0.000000, 0.998451 0.055642 0.000000, 0.999512 0.031237 0.000000, 0.999555 0.029833 0.000000,
 0.999674 0.025551 0.000000, 0.999869 0.016176 0.000000, 1.000000 0.000000 0.000000
]
}
coordIndex [
 573, 546, 579, -1, 579, 546, 550, -1, 579, 550, 592, -1,
 592, 550, 554, -1, 592, 554, 602, -1, 602, 554, 558, -1,
 602, 558, 615, -1, 615, 558, 568, -1, 615, 568, 629, -1,
 629, 568, 611, -1, 629, 611, 643, -1, 643, 611, 639, -1,
 643, 639, 666, -1, 666, 639, 685, -1, 666, 685, 680, -1,
 680, 685, 733, -1, 680, 733, 697, -1, 697, 733, 749, -1,
 697, 749, 709, -1, 709, 749, 755, -1, 709, 755, 722, -1,
 722, 755, 761, -1, 722, 761, 730, -1, 730, 761, 771, -1,
 727, 770, 719, -1, 719, 770, 760, -1, 719, 760, 706, -1,
 706, 760, 754, -1, 706, 754, 694, -1, 694, 754, 748, -1,
 694, 748, 677, -1, 677, 748, 732, -1, 677, 732, 663, -1,
 663, 732, 684, -1, 663, 684, 640, -1, 640, 684, 638, -1,
 640, 638, 626, -1, 626, 638, 610, -1, 626, 610, 612, -1,
 612, 610, 567, -1, 612, 567, 599, -1, 599, 567, 557, -1,
 599, 557, 589, -1, 589, 557, 553, -1, 589, 553, 576, -1,
 576, 553, 549, -1, 576, 549, 570, -1, 570, 549, 545, -1,
 473, 474, 472, -1, 473, 472, 471, -1, 471, 472, 468, -1,
 471, 468, 467, -1, 543, 544, 536, -1, 543, 536, 535, -1,
 535, 536, 528, -1, 535, 528, 527, -1, 527, 528, 522, -1,
 527, 522, 521, -1, 184, 183, 189, -1, 184, 189, 190, -1,
 190, 189, 195, -1, 190, 195, 196, -1, 196, 195, 203, -1,
 196, 203, 204, -1, 217, 218, 221, -1, 221, 218, 222, -1,
 221, 222, 229, -1, 229, 222, 230, -1, 229, 230, 241, -1,
 241, 230, 242, -1, 241, 242, 257, -1, 257, 242, 258, -1,
 257, 258, 273, -1, 273, 258, 274, -1, 273, 274, 289, -1,
 289, 274, 290, -1, 289, 290, 305, -1, 305, 290, 306, -1,
 305, 306, 317, -1, 317, 306, 318, -1, 317, 318, 333, -1,
 333, 318, 334, -1, 333, 334, 349, -1, 349, 334, 350, -1,
 349, 350, 359, -1, 359, 350, 360, -1, 359, 360, 369, -1,
 369, 360, 370, -1, 369, 370, 377, -1, 377, 370, 378, -1,
 215, 216, 219, -1, 219, 216, 220, -1, 219, 220, 227, -1,
 227, 220, 228, -1, 227, 228, 239, -1, 239, 228, 240, -1,
 239, 240, 255, -1, 255, 240, 256, -1, 255, 256, 271, -1,
 271, 256, 272, -1, 271, 272, 287, -1, 287, 272, 288, -1,
 287, 288, 303, -1, 303, 288, 304, -1, 303, 304, 315, -1,
 315, 304, 316, -1, 315, 316, 331, -1, 331, 316, 332, -1,
 331, 332, 347, -1, 347, 332, 348, -1, 347, 348, 357, -1,
 357, 348, 358, -1, 357, 358, 367, -1, 367, 358, 368, -1,
 367, 368, 375, -1, 375, 368, 376, -1, 570, 571, 576, -1,
 576, 571, 577, -1, 576, 577, 589, -1, 589, 577, 590, -1,
 589, 590, 599, -1, 599, 590, 600, -1, 599, 600, 612, -1,
 612, 600, 613, -1, 612, 613, 626, -1, 626, 613, 627, -1,
 626, 627, 640, -1, 640, 627, 641, -1, 640, 641, 663, -1,
 663, 641, 664, -1, 663, 664, 677, -1, 677, 664, 678, -1,
 677, 678, 694, -1, 694, 678, 695, -1, 694, 695, 706, -1,
 706, 695, 707, -1, 706, 707, 719, -1, 719, 707, 720, -1,
 719, 720, 727, -1, 727, 720, 728, -1, 572, 573, 578, -1,
 578, 573, 579, -1, 578, 579, 591, -1, 591, 579, 592, -1,
 591, 592, 601, -1, 601, 592, 602, -1, 601, 602, 614, -1,
 614, 602, 615, -1, 614, 615, 628, -1, 628, 615, 629, -1,
 628, 629, 642, -1, 642, 629, 643, -1, 642, 643, 665, -1,
 665, 643, 666, -1, 665, 666, 679, -1, 679, 666, 680, -1,
 679, 680, 696, -1, 696, 680, 697, -1, 696, 697, 708, -1,
 708, 697, 709, -1, 708, 709, 721, -1, 721, 709, 722, -1,
 721, 722, 729, -1, 729, 722, 730, -1, 26, 27, 25, -1,
 26, 25, 21, -1, 21, 25, 20, -1, 21, 20, 18, -1,
 18, 20, 19, -1, 18, 19, 17, -1, 17, 19, 14, -1,
 17, 14, 13, -1, 27, 26, 31, -1, 31, 26, 32, -1,
 31, 32, 33, -1, 33, 32, 37, -1, 37, 32, 38, -1,
 37, 38, 39, -1, 39, 38, 43, -1, 43, 38, 45, -1,
 43, 45, 44, -1, 51, 50, 45, -1, 45, 50, 48, -1,
 45, 48, 44, -1, 65, 58, 57, -1, 57, 58, 56, -1,
 57, 56, 51, -1, 51, 56, 54, -1, 51, 54, 50, -1,
 66, 64, 65, -1, 65, 64, 63, -1, 65, 63, 58, -1,
 66, 71, 64, -1, 64, 71, 85, -1, 64, 85, 89, -1,
 89, 91, 64, -1, 64, 91, 99, -1, 64, 99, 104, -1,
 127, 72, 64, -1, 104, 107, 64, -1, 64, 107, 126, -1,
 64, 126, 127, -1, 127, 126, 133, -1, 133, 136, 127, -1,
 127, 136, 144, -1, 127, 144, 151, -1, 153, 168, 182, -1,
 182, 168, 169, -1, 182, 169, 181, -1, 237, 238, 211, -1,
 211, 238, 212, -1, 211, 212, 197, -1, 197, 212, 198, -1,
 197, 198, 182, -1, 182, 198, 127, -1, 182, 127, 153, -1,
 153, 127, 151, -1, 204, 203, 210, -1, 210, 203, 209, -1,
 210, 209, 236, -1, 236, 209, 235, -1, 93, 92, 67, -1,
 110, 109, 102, -1, 102, 109, 93, -1, 102, 93, 69, -1,
 69, 93, 67, -1, 157, 156, 154, -1, 186, 185, 191, -1,
 182, 181, 180, -1, 182, 180, 177, -1, 162, 161, 155, -1,
 155, 161, 160, -1, 160, 157, 155, -1, 155, 157, 154, -1,
 155, 154, 159, -1, 159, 154, 158, -1, 159, 158, 174, -1,
 174, 158, 173, -1, 174, 173, 192, -1, 175, 172, 164, -1,
 180, 179, 177, -1, 177, 179, 178, -1, 177, 178, 164, -1,
 164, 178, 176, -1, 164, 176, 175, -1, 172, 171, 164, -1,
 164, 171, 170, -1, 164, 170, 167, -1, 167, 166, 164, -1,
 164, 166, 165, -1, 164, 165, 155, -1, 155, 165, 163, -1,
 155, 163, 162, -1, 355, 356, 339, -1, 339, 356, 340, -1,
 339, 340, 313, -1, 313, 340, 314, -1, 313, 314, 295, -1,
 295, 314, 296, -1, 295, 296, 269, -1, 269, 296, 270, -1,
 269, 270, 247, -1, 247, 270, 248, -1, 247, 248, 213, -1,
 213, 248, 214, -1, 213, 214, 207, -1, 207, 214, 208, -1,
 207, 208, 205, -1, 205, 208, 206, -1, 205, 206, 199, -1,
 199, 206, 200, -1, 199, 200, 191, -1, 191, 200, 192, -1,
 191, 192, 186, -1, 186, 192, 173, -1, 740, 736, 783, -1,
 112, 109, 249, -1, 297, 279, 549, -1, 565, 559, 110, -1,
 110, 559, 555, -1, 110, 555, 551, -1, 383, 341, 553, -1,
 553, 341, 549, -1, 549, 341, 323, -1, 549, 323, 297, -1,
 511, 567, 561, -1, 561, 567, 610, -1, 561, 610, 653, -1,
 279, 249, 549, -1, 549, 249, 109, -1, 549, 109, 545, -1,
 545, 109, 110, -1, 545, 110, 547, -1, 547, 110, 551, -1,
 383, 553, 391, -1, 391, 553, 557, -1, 391, 557, 403, -1,
 403, 557, 567, -1, 403, 567, 415, -1, 610, 638, 653, -1,
 653, 638, 684, -1, 653, 684, 744, -1, 744, 684, 732, -1,
 744, 732, 764, -1, 764, 732, 748, -1, 764, 748, 779, -1,
 779, 748, 754, -1, 779, 754, 789, -1, 789, 754, 760, -1,
 789, 760, 797, -1, 797, 760, 770, -1, 797, 770, 793, -1,
 793, 770, 768, -1, 793, 768, 785, -1, 785, 768, 756, -1,
 785, 756, 783, -1, 783, 756, 752, -1, 783, 752, 740, -1,
 137, 130, 124, -1, 120, 119, 249, -1, 249, 119, 114, -1,
 249, 114, 112, -1, 511, 499, 567, -1, 567, 499, 443, -1,
 567, 443, 429, -1, 483, 479, 463, -1, 150, 124, 249, -1,
 249, 124, 122, -1, 249, 122, 120, -1, 429, 425, 567, -1,
 567, 425, 419, -1, 567, 419, 415, -1, 499, 491, 443, -1,
 443, 491, 483, -1, 443, 483, 455, -1, 455, 483, 463, -1,
 150, 147, 124, -1, 124, 147, 146, -1, 124, 146, 142, -1,
 142, 141, 124, -1, 124, 141, 138, -1, 124, 138, 137, -1,
 83, 82, 72, -1, 82, 81, 72, -1, 72, 81, 80, -1,
 72, 80, 79, -1, 79, 78, 72, -1, 72, 78, 77, -1,
 72, 77, 76, -1, 127, 88, 86, -1, 127, 86, 72, -1,
 72, 86, 84, -1, 72, 84, 83, -1, 76, 75, 72, -1,
 72, 75, 74, -1, 72, 74, 73, -1, 306, 328, 318, -1,
 318, 328, 346, -1, 318, 346, 334, -1, 334, 346, 382, -1,
 334, 382, 350, -1, 350, 382, 390, -1, 350, 390, 360, -1,
 127, 198, 230, -1, 294, 267, 278, -1, 278, 267, 254, -1,
 278, 254, 251, -1, 230, 198, 242, -1, 242, 198, 212, -1,
 242, 212, 258, -1, 258, 212, 238, -1, 258, 238, 274, -1,
 274, 238, 266, -1, 274, 266, 290, -1, 290, 266, 284, -1,
 290, 284, 306, -1, 306, 284, 302, -1, 306, 302, 328, -1,
 322, 329, 310, -1, 310, 329, 311, -1, 310, 311, 294, -1,
 294, 311, 285, -1, 294, 285, 267, -1, 374, 427, 364, -1,
 364, 427, 421, -1, 226, 234, 98, -1, 98, 234, 246, -1,
 98, 246, 251, -1, 251, 246, 262, -1, 251, 262, 278, -1,
 442, 481, 465, -1, 465, 457, 442, -1, 442, 457, 445, -1,
 442, 445, 431, -1, 230, 222, 127, -1, 127, 222, 218, -1,
 127, 218, 88, -1, 88, 218, 226, -1, 88, 226, 90, -1,
 90, 226, 98, -1, 481, 442, 485, -1, 485, 442, 490, -1,
 485, 490, 493, -1, 421, 417, 364, -1, 364, 417, 409, -1,
 364, 409, 354, -1, 354, 409, 397, -1, 354, 397, 338, -1,
 338, 397, 385, -1, 338, 385, 322, -1, 322, 385, 365, -1,
 322, 365, 329, -1, 431, 427, 442, -1, 442, 427, 374, -1,
 442, 374, 414, -1, 414, 374, 378, -1, 414, 378, 408, -1,
 408, 378, 370, -1, 408, 370, 402, -1, 402, 370, 360, -1,
 402, 360, 396, -1, 396, 360, 390, -1, 70, 87, 424, -1,
 424, 87, 651, -1, 424, 651, 650, -1, 69, 60, 61, -1,
 61, 70, 69, -1, 69, 70, 424, -1, 69, 424, 102, -1,
 102, 424, 423, -1, 102, 423, 648, -1, 648, 423, 649, -1,
 514, 502, 501, -1, 408, 407, 414, -1, 414, 407, 413, -1,
 414, 413, 442, -1, 442, 413, 441, -1, 442, 441, 490, -1,
 490, 441, 489, -1, 490, 489, 493, -1, 493, 489, 501, -1,
 493, 501, 494, -1, 494, 501, 502, -1, 513, 521, 522, -1,
 746, 747, 655, -1, 655, 747, 656, -1, 655, 656, 563, -1,
 563, 656, 564, -1, 563, 564, 522, -1, 522, 564, 514, -1,
 522, 514, 513, -1, 513, 514, 501, -1, 778, 784, 788, -1,
 777, 775, 787, -1, 787, 775, 778, -1, 763, 743, 739, -1,
 739, 750, 763, -1, 763, 750, 759, -1, 763, 759, 777, -1,
 777, 759, 772, -1, 777, 772, 775, -1, 701, 650, 651, -1,
 651, 683, 701, -1, 701, 683, 692, -1, 701, 692, 743, -1,
 743, 692, 734, -1, 743, 734, 739, -1, 778, 788, 787, -1,
 787, 788, 796, -1, 787, 796, 795, -1, 795, 796, 800, -1,
 795, 800, 799, -1, 799, 800, 792, -1, 799, 792, 791, -1,
 791, 792, 782, -1, 791, 782, 781, -1, 781, 782, 767, -1,
 781, 767, 766, -1, 766, 767, 747, -1, 766, 747, 746, -1,
 356, 438, 453, -1, 317, 333, 381, -1, 233, 225, 174, -1,
 174, 225, 159, -1, 159, 225, 217, -1, 159, 217, 155, -1,
 505, 395, 497, -1, 497, 395, 356, -1, 497, 356, 477, -1,
 477, 356, 453, -1, 505, 501, 489, -1, 489, 441, 505, -1,
 505, 441, 413, -1, 505, 413, 395, -1, 395, 413, 407, -1,
 395, 407, 401, -1, 381, 333, 389, -1, 389, 333, 349, -1,
 389, 349, 395, -1, 395, 349, 359, -1, 395, 359, 369, -1,
 155, 217, 164, -1, 164, 217, 221, -1, 164, 221, 177, -1,
 177, 221, 229, -1, 177, 229, 182, -1, 381, 345, 317, -1,
 317, 345, 327, -1, 317, 327, 305, -1, 305, 327, 301, -1,
 305, 301, 289, -1, 289, 301, 283, -1, 289, 283, 273, -1,
 273, 283, 265, -1, 273, 265, 257, -1, 257, 265, 237, -1,
 257, 237, 241, -1, 241, 237, 211, -1, 241, 211, 229, -1,
 229, 211, 197, -1, 229, 197, 182, -1, 174, 192, 233, -1,
 233, 192, 200, -1, 233, 200, 245, -1, 245, 200, 206, -1,
 245, 206, 261, -1, 369, 377, 395, -1, 395, 377, 373, -1,
 395, 373, 356, -1, 356, 373, 363, -1, 356, 363, 353, -1,
 523, 531, 521, -1, 521, 531, 539, -1, 353, 337, 356, -1,
 356, 337, 321, -1, 356, 321, 340, -1, 340, 321, 309, -1,
 501, 505, 513, -1, 513, 505, 509, -1, 513, 509, 521, -1,
 521, 509, 515, -1, 521, 515, 523, -1, 293, 296, 309, -1,
 309, 296, 314, -1, 309, 314, 340, -1, 206, 208, 261, -1,
 261, 208, 214, -1, 261, 214, 277, -1, 277, 214, 248, -1,
 277, 248, 293, -1, 293, 248, 270, -1, 293, 270, 296, -1,
 539, 543, 521, -1, 521, 543, 535, -1, 521, 535, 527, -1,
 729, 730, 726, -1, 729, 726, 724, -1, 726, 718, 724, -1,
 724, 718, 716, -1, 724, 716, 711, -1, 716, 705, 711, -1,
 711, 705, 703, -1, 711, 703, 699, -1, 703, 691, 699, -1,
 699, 691, 689, -1, 699, 689, 682, -1, 689, 676, 682, -1,
 682, 676, 673, -1, 682, 673, 668, -1, 673, 662, 668, -1,
 668, 662, 660, -1, 668, 660, 646, -1, 660, 647, 646, -1,
 646, 647, 635, -1, 646, 635, 631, -1, 635, 633, 631, -1,
 631, 633, 622, -1, 631, 622, 617, -1, 622, 619, 617, -1,
 617, 619, 608, -1, 617, 608, 604, -1, 608, 606, 604, -1,
 604, 606, 598, -1, 604, 598, 594, -1, 598, 596, 594, -1,
 594, 596, 585, -1, 594, 585, 581, -1, 573, 572, 575, -1,
 575, 572, 581, -1, 575, 581, 583, -1, 583, 581, 585, -1,
 700, 693, 686, -1, 700, 686, 649, -1, 649, 686, 657, -1,
 649, 657, 648, -1, 693, 700, 735, -1, 735, 700, 742, -1,
 735, 742, 738, -1, 738, 742, 751, -1, 751, 742, 762, -1,
 751, 762, 758, -1, 758, 762, 773, -1, 773, 762, 776, -1,
 773, 776, 774, -1, 774, 776, 783, -1, 783, 776, 786, -1,
 783, 786, 785, -1, 785, 786, 794, -1, 785, 794, 793, -1,
 793, 794, 798, -1, 793, 798, 797, -1, 797, 798, 790, -1,
 797, 790, 789, -1, 789, 790, 780, -1, 789, 780, 779, -1,
 779, 780, 765, -1, 779, 765, 764, -1, 764, 765, 745, -1,
 764, 745, 744, -1, 727, 728, 725, -1, 725, 728, 723, -1,
 725, 723, 717, -1, 717, 723, 715, -1, 715, 723, 710, -1,
 715, 710, 704, -1, 704, 710, 702, -1, 702, 710, 698, -1,
 702, 698, 690, -1, 690, 698, 688, -1, 688, 698, 681, -1,
 688, 681, 675, -1, 675, 681, 672, -1, 672, 681, 667, -1,
 672, 667, 661, -1, 661, 667, 659, -1, 659, 667, 645, -1,
 659, 645, 644, -1, 644, 645, 634, -1, 634, 645, 630, -1,
 634, 630, 632, -1, 632, 630, 621, -1, 621, 630, 616, -1,
 621, 616, 618, -1, 618, 616, 607, -1, 607, 616, 603, -1,
 607, 603, 605, -1, 605, 603, 597, -1, 597, 603, 593, -1,
 597, 593, 595, -1, 595, 593, 584, -1, 584, 593, 580, -1,
 584, 580, 582, -1, 582, 580, 574, -1, 574, 580, 571, -1,
 574, 571, 570, -1, 236, 235, 263, -1, 236, 263, 264, -1,
 264, 263, 281, -1, 264, 281, 282, -1, 282, 281, 299, -1,
 282, 299, 300, -1, 300, 299, 325, -1, 300, 325, 326, -1,
 326, 325, 343, -1, 326, 343, 344, -1, 344, 343, 379, -1,
 344, 379, 380, -1, 380, 379, 387, -1, 380, 387, 388, -1,
 388, 387, 393, -1, 388, 393, 394, -1, 394, 393, 399, -1,
 394, 399, 400, -1, 400, 399, 405, -1, 400, 405, 406, -1,
 519, 520, 512, -1, 492, 491, 499, -1, 406, 405, 412, -1,
 412, 405, 411, -1, 412, 411, 440, -1, 440, 411, 439, -1,
 440, 439, 488, -1, 488, 439, 487, -1, 488, 487, 500, -1,
 744, 745, 653, -1, 653, 745, 654, -1, 653, 654, 561, -1,
 561, 654, 562, -1, 561, 562, 511, -1, 487, 492, 500, -1,
 500, 492, 499, -1, 500, 499, 512, -1, 512, 499, 511, -1,
 512, 511, 519, -1, 519, 511, 562, -1, 238, 237, 265, -1,
 238, 265, 266, -1, 266, 265, 283, -1, 266, 283, 284, -1,
 284, 283, 301, -1, 284, 301, 302, -1, 302, 301, 327, -1,
 302, 327, 328, -1, 328, 327, 345, -1, 328, 345, 346, -1,
 346, 345, 381, -1, 346, 381, 382, -1, 382, 381, 389, -1,
 382, 389, 390, -1, 390, 389, 395, -1, 390, 395, 396, -1,
 396, 395, 401, -1, 396, 401, 402, -1, 402, 401, 407, -1,
 402, 407, 408, -1, 61, 60, 52, -1, 61, 52, 53, -1,
 53, 52, 46, -1, 53, 46, 47, -1, 47, 46, 40, -1,
 47, 40, 41, -1, 41, 40, 34, -1, 41, 34, 35, -1,
 35, 34, 29, -1, 35, 29, 30, -1, 30, 29, 23, -1,
 30, 23, 24, -1, 24, 23, 15, -1, 24, 15, 16, -1,
 16, 15, 8, -1, 16, 8, 9, -1, 9, 8, 6, -1,
 9, 6, 7, -1, 7, 6, 4, -1, 7, 4, 5, -1,
 3, 5, 1, -1, 1, 5, 4, -1, 1, 4, 0, -1,
 0, 4, 2, -1, 13, 14, 0, -1, 0, 14, 1, -1,
 548, 552, 111, -1, 552, 556, 111, -1, 111, 556, 560, -1,
 111, 560, 566, -1, 432, 446, 568, -1, 737, 741, 784, -1,
 784, 741, 753, -1, 784, 753, 788, -1, 788, 753, 757, -1,
 788, 757, 796, -1, 796, 757, 769, -1, 796, 769, 800, -1,
 800, 769, 771, -1, 800, 771, 792, -1, 792, 771, 761, -1,
 792, 761, 782, -1, 782, 761, 755, -1, 782, 755, 767, -1,
 767, 755, 749, -1, 767, 749, 747, -1, 747, 749, 733, -1,
 747, 733, 656, -1, 733, 685, 656, -1, 656, 685, 639, -1,
 656, 639, 564, -1, 564, 639, 611, -1, 564, 611, 514, -1,
 514, 611, 568, -1, 514, 568, 502, -1, 502, 568, 446, -1,
 502, 446, 494, -1, 554, 386, 558, -1, 558, 386, 398, -1,
 558, 398, 568, -1, 568, 398, 410, -1, 568, 410, 418, -1,
 268, 286, 550, -1, 446, 458, 466, -1, 286, 312, 550, -1,
 550, 312, 330, -1, 550, 330, 554, -1, 554, 330, 366, -1,
 554, 366, 386, -1, 466, 482, 446, -1, 446, 482, 486, -1,
 446, 486, 494, -1, 418, 422, 568, -1, 568, 422, 428, -1,
 568, 428, 432, -1, 252, 268, 108, -1, 108, 268, 550, -1,
 108, 550, 111, -1, 111, 550, 546, -1, 111, 546, 548, -1,
 140, 143, 108, -1, 108, 143, 145, -1, 108, 145, 148, -1,
 148, 149, 108, -1, 108, 149, 152, -1, 108, 152, 252, -1,
 108, 113, 115, -1, 123, 125, 108, -1, 108, 125, 131, -1,
 108, 131, 132, -1, 132, 134, 108, -1, 108, 134, 139, -1,
 108, 139, 140, -1, 123, 108, 121, -1, 121, 108, 115, -1,
 121, 115, 118, -1, 508, 507, 504, -1, 504, 507, 503, -1,
 504, 503, 496, -1, 496, 503, 495, -1, 496, 495, 476, -1,
 476, 495, 475, -1, 476, 475, 452, -1, 452, 475, 451, -1,
 452, 451, 437, -1, 437, 451, 435, -1, 437, 435, 438, -1,
 510, 509, 506, -1, 506, 509, 505, -1, 506, 505, 498, -1,
 498, 505, 497, -1, 498, 497, 478, -1, 478, 497, 477, -1,
 478, 477, 454, -1, 454, 477, 453, -1, 454, 453, 436, -1,
 467, 468, 447, -1, 447, 468, 448, -1, 447, 448, 435, -1,
 435, 448, 436, -1, 435, 436, 438, -1, 438, 436, 453, -1,
 355, 437, 356, -1, 356, 437, 438, -1, 205, 199, 202, -1,
 202, 199, 191, -1, 202, 191, 185, -1, 476, 452, 336, -1,
 355, 244, 260, -1, 202, 269, 247, -1, 260, 276, 355, -1,
 355, 276, 292, -1, 355, 292, 308, -1, 224, 232, 202, -1,
 202, 232, 244, -1, 247, 213, 202, -1, 202, 213, 207, -1,
 202, 207, 205, -1, 304, 326, 316, -1, 316, 326, 344, -1,
 316, 344, 332, -1, 332, 344, 380, -1, 332, 380, 348, -1,
 348, 380, 388, -1, 348, 388, 358, -1, 355, 339, 244, -1,
 244, 339, 313, -1, 244, 313, 202, -1, 202, 313, 295, -1,
 202, 295, 269, -1, 452, 437, 336, -1, 336, 437, 355, -1,
 336, 355, 320, -1, 320, 355, 308, -1, 352, 504, 336, -1,
 336, 504, 496, -1, 336, 496, 476, -1, 202, 194, 224, -1,
 224, 194, 188, -1, 224, 188, 216, -1, 216, 188, 184, -1,
 216, 184, 220, -1, 520, 530, 538, -1, 184, 190, 220, -1,
 220, 190, 196, -1, 220, 196, 228, -1, 228, 196, 204, -1,
 228, 204, 240, -1, 240, 204, 210, -1, 240, 210, 256, -1,
 256, 210, 236, -1, 256, 236, 272, -1, 272, 236, 264, -1,
 272, 264, 288, -1, 288, 264, 282, -1, 288, 282, 304, -1,
 304, 282, 300, -1, 304, 300, 326, -1, 538, 542, 520, -1,
 520, 542, 534, -1, 520, 534, 526, -1, 388, 394, 358, -1,
 358, 394, 400, -1, 358, 400, 368, -1, 368, 400, 406, -1,
 368, 406, 376, -1, 376, 406, 412, -1, 376, 412, 372, -1,
 372, 412, 440, -1, 372, 440, 362, -1, 362, 440, 488, -1,
 362, 488, 352, -1, 352, 488, 500, -1, 352, 500, 504, -1,
 504, 500, 512, -1, 504, 512, 508, -1, 508, 512, 520, -1,
 508, 520, 518, -1, 518, 520, 526, -1, 417, 418, 409, -1,
 409, 418, 410, -1, 409, 410, 397, -1, 397, 410, 398, -1,
 397, 398, 385, -1, 385, 398, 386, -1, 385, 386, 365, -1,
 365, 386, 366, -1, 365, 366, 329, -1, 329, 366, 330, -1,
 329, 330, 311, -1, 311, 330, 312, -1, 311, 312, 285, -1,
 285, 312, 286, -1, 285, 286, 267, -1, 267, 286, 268, -1,
 267, 268, 254, -1, 254, 268, 252, -1, 254, 252, 251, -1,
 250, 249, 253, -1, 253, 249, 279, -1, 415, 416, 403, -1,
 403, 416, 404, -1, 403, 404, 391, -1, 391, 404, 392, -1,
 391, 392, 383, -1, 383, 392, 384, -1, 383, 384, 341, -1,
 341, 384, 342, -1, 341, 342, 323, -1, 323, 342, 324, -1,
 323, 324, 297, -1, 297, 324, 298, -1, 297, 298, 279, -1,
 279, 298, 280, -1, 279, 280, 253, -1, 95, 92, 94, -1,
 94, 92, 93, -1, 227, 195, 219, -1, 219, 195, 189, -1,
 219, 189, 215, -1, 100, 101, 92, -1, 92, 101, 103, -1,
 92, 103, 105, -1, 105, 106, 92, -1, 92, 106, 116, -1,
 92, 116, 117, -1, 95, 96, 92, -1, 92, 96, 97, -1,
 92, 97, 100, -1, 117, 128, 92, -1, 92, 128, 129, -1,
 92, 129, 201, -1, 367, 399, 357, -1, 357, 399, 393, -1,
 357, 393, 347, -1, 347, 393, 387, -1, 347, 387, 331, -1,
 331, 387, 379, -1, 331, 379, 315, -1, 371, 439, 375, -1,
 375, 439, 411, -1, 375, 411, 367, -1, 367, 411, 405, -1,
 367, 405, 399, -1, 201, 231, 193, -1, 193, 231, 223, -1,
 193, 223, 187, -1, 187, 223, 215, -1, 187, 215, 183, -1,
 183, 215, 189, -1, 129, 135, 201, -1, 201, 135, 250, -1,
 201, 250, 253, -1, 416, 420, 361, -1, 361, 420, 426, -1,
 361, 426, 371, -1, 444, 456, 439, -1, 439, 484, 487, -1,
 487, 484, 492, -1, 275, 259, 201, -1, 201, 259, 243, -1,
 201, 243, 231, -1, 253, 280, 201, -1, 201, 280, 298, -1,
 201, 298, 275, -1, 379, 343, 315, -1, 315, 343, 325, -1,
 315, 325, 303, -1, 303, 325, 299, -1, 303, 299, 287, -1,
 287, 299, 281, -1, 287, 281, 271, -1, 271, 281, 263, -1,
 271, 263, 255, -1, 255, 263, 235, -1, 255, 235, 239, -1,
 239, 235, 209, -1, 239, 209, 227, -1, 227, 209, 203, -1,
 227, 203, 195, -1, 371, 426, 439, -1, 439, 426, 430, -1,
 439, 430, 444, -1, 456, 464, 439, -1, 439, 464, 480, -1,
 439, 480, 484, -1, 416, 361, 404, -1, 404, 361, 351, -1,
 404, 351, 392, -1, 392, 351, 335, -1, 392, 335, 384, -1,
 384, 335, 342, -1, 342, 335, 319, -1, 342, 319, 324, -1,
 324, 319, 307, -1, 324, 307, 298, -1, 298, 307, 291, -1,
 298, 291, 275, -1, 375, 376, 371, -1, 371, 376, 372, -1,
 371, 372, 361, -1, 361, 372, 362, -1, 361, 362, 351, -1,
 351, 362, 352, -1, 351, 352, 335, -1, 335, 352, 336, -1,
 335, 336, 319, -1, 319, 336, 320, -1, 319, 320, 307, -1,
 307, 320, 308, -1, 307, 308, 291, -1, 291, 308, 292, -1,
 291, 292, 275, -1, 275, 292, 276, -1, 275, 276, 259, -1,
 259, 276, 260, -1, 259, 260, 243, -1, 243, 260, 244, -1,
 243, 244, 231, -1, 231, 244, 232, -1, 231, 232, 223, -1,
 223, 232, 224, -1, 223, 224, 215, -1, 215, 224, 216, -1,
 377, 378, 373, -1, 373, 378, 374, -1, 373, 374, 363, -1,
 363, 374, 364, -1, 363, 364, 353, -1, 353, 364, 354, -1,
 353, 354, 337, -1, 337, 354, 338, -1, 337, 338, 321, -1,
 321, 338, 322, -1, 321, 322, 309, -1, 309, 322, 310, -1,
 309, 310, 293, -1, 293, 310, 294, -1, 293, 294, 277, -1,
 277, 294, 278, -1, 277, 278, 261, -1, 261, 278, 262, -1,
 261, 262, 245, -1, 245, 262, 246, -1, 245, 246, 233, -1,
 233, 246, 234, -1, 233, 234, 225, -1, 225, 234, 226, -1,
 225, 226, 217, -1, 217, 226, 218, -1, 423, 433, 649, -1,
 649, 433, 449, -1, 649, 449, 459, -1, 745, 765, 695, -1,
 695, 765, 707, -1, 707, 765, 780, -1, 707, 780, 720, -1,
 720, 780, 790, -1, 720, 790, 728, -1, 695, 678, 745, -1,
 745, 678, 664, -1, 745, 664, 654, -1, 654, 664, 641, -1,
 654, 641, 562, -1, 562, 641, 627, -1, 603, 469, 593, -1,
 593, 469, 473, -1, 603, 616, 469, -1, 469, 616, 649, -1,
 469, 649, 461, -1, 461, 649, 459, -1, 533, 541, 562, -1,
 590, 495, 600, -1, 600, 495, 503, -1, 600, 503, 613, -1,
 613, 503, 507, -1, 613, 507, 627, -1, 627, 507, 517, -1,
 627, 517, 562, -1, 562, 517, 525, -1, 562, 525, 533, -1,
 541, 537, 562, -1, 562, 537, 529, -1, 562, 529, 519, -1,
 473, 471, 593, -1, 593, 471, 467, -1, 593, 467, 580, -1,
 580, 467, 447, -1, 580, 447, 571, -1, 571, 447, 435, -1,
 571, 435, 577, -1, 577, 435, 451, -1, 577, 451, 590, -1,
 590, 451, 475, -1, 590, 475, 495, -1, 616, 630, 649, -1,
 649, 630, 645, -1, 649, 645, 700, -1, 700, 645, 667, -1,
 700, 667, 742, -1, 742, 667, 681, -1, 742, 681, 762, -1,
 762, 681, 698, -1, 762, 698, 776, -1, 776, 698, 710, -1,
 776, 710, 786, -1, 786, 710, 723, -1, 786, 723, 794, -1,
 794, 723, 728, -1, 794, 728, 798, -1, 798, 728, 790, -1,
 434, 424, 650, -1, 462, 460, 650, -1, 650, 460, 450, -1,
 650, 450, 434, -1, 601, 498, 591, -1, 591, 498, 478, -1,
 591, 478, 578, -1, 578, 478, 454, -1, 578, 454, 572, -1,
 572, 454, 436, -1, 572, 436, 581, -1, 650, 646, 631, -1,
 462, 650, 470, -1, 470, 650, 631, -1, 470, 631, 617, -1,
 563, 522, 528, -1, 617, 604, 470, -1, 470, 604, 594, -1,
 470, 594, 474, -1, 724, 795, 729, -1, 729, 795, 799, -1,
 729, 799, 721, -1, 721, 799, 791, -1, 721, 791, 708, -1,
 708, 791, 781, -1, 708, 781, 696, -1, 696, 781, 766, -1,
 696, 766, 679, -1, 679, 766, 746, -1, 646, 650, 668, -1,
 668, 650, 701, -1, 668, 701, 682, -1, 682, 701, 743, -1,
 682, 743, 699, -1, 699, 743, 763, -1, 699, 763, 711, -1,
 711, 763, 777, -1, 711, 777, 724, -1, 724, 777, 787, -1,
 724, 787, 795, -1, 436, 448, 581, -1, 581, 448, 468, -1,
 581, 468, 594, -1, 594, 468, 472, -1, 594, 472, 474, -1,
 528, 536, 563, -1, 563, 536, 544, -1, 563, 544, 540, -1,
 532, 524, 628, -1, 628, 524, 516, -1, 628, 516, 614, -1,
 614, 516, 510, -1, 614, 510, 601, -1, 601, 510, 506, -1,
 601, 506, 498, -1, 540, 532, 563, -1, 563, 532, 628, -1,
 563, 628, 655, -1, 655, 628, 642, -1, 655, 642, 746, -1,
 746, 642, 665, -1, 746, 665, 679, -1, 67, 186, 173, -1,
 67, 173, 57, -1, 154, 156, 66, -1, 69, 67, 60, -1,
 60, 67, 57, -1, 60, 57, 52, -1, 52, 57, 51, -1,
 52, 51, 46, -1, 46, 51, 45, -1, 46, 45, 40, -1,
 40, 45, 38, -1, 40, 38, 34, -1, 34, 38, 29, -1,
 29, 38, 32, -1, 29, 32, 23, -1, 23, 32, 26, -1,
 23, 26, 15, -1, 173, 158, 57, -1, 57, 158, 154, -1,
 57, 154, 65, -1, 65, 154, 66, -1, 2, 4, 21, -1,
 21, 4, 6, -1, 21, 6, 26, -1, 26, 6, 8, -1,
 26, 8, 15, -1, 62, 68, 70, -1, 62, 70, 55, -1,
 28, 24, 22, -1, 22, 24, 16, -1, 22, 16, 12, -1,
 70, 61, 55, -1, 55, 61, 53, -1, 55, 53, 49, -1,
 49, 53, 47, -1, 49, 47, 42, -1, 42, 47, 41, -1,
 42, 41, 36, -1, 36, 41, 35, -1, 36, 35, 28, -1,
 28, 35, 30, -1, 28, 30, 24, -1, 7, 5, 3, -1,
 16, 9, 12, -1, 12, 9, 7, -1, 12, 7, 10, -1,
 10, 7, 3, -1, 70, 68, 73, -1, 73, 68, 72, -1,
 59, 58, 63, -1, 108, 111, 73, -1, 73, 111, 87, -1,
 73, 87, 70, -1, 59, 63, 68, -1, 68, 63, 64, -1,
 68, 64, 72, -1, 68, 62, 59, -1, 11, 14, 19, -1,
 11, 19, 10, -1, 10, 19, 12, -1, 12, 19, 20, -1,
 12, 20, 22, -1, 20, 25, 22, -1, 22, 25, 27, -1,
 22, 27, 28, -1, 27, 31, 28, -1, 28, 31, 33, -1,
 28, 33, 36, -1, 33, 37, 36, -1, 36, 37, 39, -1,
 36, 39, 42, -1, 39, 43, 42, -1, 42, 43, 44, -1,
 42, 44, 49, -1, 58, 59, 56, -1, 56, 59, 62, -1,
 56, 62, 54, -1, 54, 62, 55, -1, 54, 55, 50, -1,
 50, 55, 49, -1, 50, 49, 48, -1, 48, 49, 44, -1,
 10, 3, 11, -1, 11, 3, 1, -1, 11, 1, 14, -1,
 98, 251, 152, -1, 152, 251, 252, -1, 150, 249, 135, -1,
 135, 249, 250, -1, 130, 137, 105, -1, 105, 137, 138, -1,
 105, 138, 106, -1, 106, 138, 141, -1, 106, 141, 116, -1,
 116, 141, 142, -1, 116, 142, 117, -1, 117, 142, 146, -1,
 117, 146, 128, -1, 128, 146, 147, -1, 128, 147, 129, -1,
 129, 147, 150, -1, 129, 150, 135, -1, 105, 103, 130, -1,
 130, 103, 101, -1, 130, 101, 124, -1, 124, 101, 122, -1,
 122, 101, 100, -1, 122, 100, 120, -1, 94, 93, 109, -1,
 100, 97, 120, -1, 120, 97, 96, -1, 120, 96, 119, -1,
 119, 96, 95, -1, 119, 95, 114, -1, 114, 95, 94, -1,
 114, 94, 112, -1, 112, 94, 109, -1, 108, 73, 113, -1,
 113, 73, 74, -1, 113, 74, 115, -1, 74, 75, 115, -1,
 115, 75, 76, -1, 115, 76, 118, -1, 118, 76, 77, -1,
 118, 77, 121, -1, 121, 77, 78, -1, 121, 78, 123, -1,
 123, 78, 79, -1, 123, 79, 125, -1, 125, 79, 80, -1,
 125, 80, 131, -1, 131, 80, 81, -1, 131, 81, 132, -1,
 132, 81, 82, -1, 132, 82, 134, -1, 134, 82, 83, -1,
 134, 83, 139, -1, 139, 83, 84, -1, 139, 84, 140, -1,
 140, 84, 86, -1, 140, 86, 143, -1, 143, 86, 88, -1,
 143, 88, 145, -1, 145, 88, 90, -1, 145, 90, 148, -1,
 148, 90, 149, -1, 149, 90, 98, -1, 149, 98, 152, -1,
 416, 415, 419, -1, 416, 419, 420, -1, 420, 419, 425, -1,
 420, 425, 426, -1, 426, 425, 429, -1, 426, 429, 430, -1,
 430, 429, 443, -1, 430, 443, 444, -1, 444, 443, 455, -1,
 444, 455, 456, -1, 456, 455, 463, -1, 456, 463, 464, -1,
 464, 463, 479, -1, 464, 479, 480, -1, 480, 479, 483, -1,
 480, 483, 484, -1, 484, 483, 491, -1, 484, 491, 492, -1,
 493, 494, 486, -1, 493, 486, 485, -1, 485, 486, 482, -1,
 485, 482, 481, -1, 481, 482, 466, -1, 481, 466, 465, -1,
 465, 466, 458, -1, 465, 458, 457, -1, 457, 458, 446, -1,
 457, 446, 445, -1, 445, 446, 432, -1, 445, 432, 431, -1,
 431, 432, 428, -1, 431, 428, 427, -1, 427, 428, 422, -1,
 427, 422, 421, -1, 421, 422, 418, -1, 421, 418, 417, -1,
 186, 67, 185, -1, 185, 67, 92, -1, 185, 92, 202, -1,
 202, 92, 201, -1, 202, 201, 193, -1, 202, 193, 194, -1,
 194, 193, 187, -1, 194, 187, 188, -1, 188, 187, 183, -1,
 188, 183, 184, -1, 13, 0, 17, -1, 17, 0, 2, -1,
 17, 2, 18, -1, 18, 2, 21, -1, 625, 648, 652, -1,
 652, 648, 657, -1, 652, 657, 658, -1, 658, 657, 671, -1,
 671, 657, 686, -1, 671, 686, 674, -1, 686, 693, 674, -1,
 674, 693, 735, -1, 674, 735, 712, -1, 625, 624, 648, -1,
 648, 624, 609, -1, 648, 609, 586, -1, 735, 738, 712, -1,
 712, 738, 751, -1, 712, 751, 713, -1, 751, 758, 713, -1,
 713, 758, 773, -1, 713, 773, 736, -1, 736, 773, 774, -1,
 736, 774, 783, -1, 110, 102, 565, -1, 565, 102, 648, -1,
 565, 648, 569, -1, 569, 648, 586, -1, 587, 588, 651, -1,
 651, 588, 620, -1, 651, 620, 623, -1, 87, 111, 651, -1,
 651, 111, 566, -1, 651, 566, 587, -1, 623, 636, 651, -1,
 651, 636, 637, -1, 651, 637, 683, -1, 683, 637, 669, -1,
 683, 669, 692, -1, 692, 669, 670, -1, 692, 670, 734, -1,
 670, 687, 734, -1, 734, 687, 714, -1, 734, 714, 739, -1,
 739, 714, 731, -1, 739, 731, 750, -1, 750, 731, 759, -1,
 784, 778, 737, -1, 737, 778, 775, -1, 737, 775, 731, -1,
 731, 775, 772, -1, 731, 772, 759, -1, 126, 107, 170, -1,
 181, 169, 180, -1, 180, 169, 168, -1, 180, 168, 179, -1,
 153, 151, 176, -1, 176, 151, 175, -1, 153, 176, 168, -1,
 168, 176, 178, -1, 168, 178, 179, -1, 136, 171, 172, -1,
 175, 151, 172, -1, 172, 151, 144, -1, 172, 144, 136, -1,
 170, 107, 167, -1, 171, 136, 170, -1, 170, 136, 133, -1,
 170, 133, 126, -1, 165, 91, 163, -1, 163, 91, 162, -1,
 167, 107, 166, -1, 166, 107, 104, -1, 166, 104, 165, -1,
 165, 104, 99, -1, 165, 99, 91, -1, 85, 160, 161, -1,
 162, 91, 161, -1, 161, 91, 89, -1, 161, 89, 85, -1,
 66, 156, 157, -1, 160, 85, 157, -1, 157, 85, 71, -1,
 157, 71, 66, -1, 509, 510, 516, -1, 509, 516, 515, -1,
 515, 516, 524, -1, 515, 524, 523, -1, 523, 524, 532, -1,
 523, 532, 531, -1, 531, 532, 540, -1, 531, 540, 539, -1,
 539, 540, 544, -1, 539, 544, 543, -1, 520, 519, 529, -1,
 520, 529, 530, -1, 530, 529, 537, -1, 530, 537, 538, -1,
 538, 537, 541, -1, 538, 541, 542, -1, 542, 541, 533, -1,
 542, 533, 534, -1, 534, 533, 525, -1, 534, 525, 526, -1,
 526, 525, 517, -1, 526, 517, 518, -1, 518, 517, 507, -1,
 518, 507, 508, -1, 423, 424, 434, -1, 423, 434, 433, -1,
 433, 434, 450, -1, 433, 450, 449, -1, 449, 450, 460, -1,
 449, 460, 459, -1, 459, 460, 462, -1, 459, 462, 461, -1,
 461, 462, 470, -1, 461, 470, 469, -1, 469, 470, 474, -1,
 469, 474, 473, -1, 661, 659, 671, -1, 671, 659, 658, -1,
 658, 659, 644, -1, 658, 644, 652, -1, 652, 644, 625, -1,
 625, 644, 634, -1, 625, 634, 624, -1, 768, 770, 727, -1,
 727, 725, 768, -1, 768, 725, 717, -1, 768, 717, 756, -1,
 717, 715, 756, -1, 756, 715, 704, -1, 756, 704, 752, -1,
 671, 674, 661, -1, 661, 674, 712, -1, 661, 712, 672, -1,
 672, 712, 713, -1, 672, 713, 675, -1, 675, 713, 736, -1,
 675, 736, 688, -1, 688, 736, 740, -1, 688, 740, 690, -1,
 690, 740, 752, -1, 690, 752, 702, -1, 702, 752, 704, -1,
 624, 634, 609, -1, 609, 634, 632, -1, 609, 632, 586, -1,
 586, 632, 621, -1, 586, 621, 569, -1, 569, 621, 618, -1,
 569, 618, 565, -1, 565, 618, 607, -1, 565, 607, 559, -1,
 559, 607, 605, -1, 559, 605, 555, -1, 605, 597, 555, -1,
 555, 597, 595, -1, 555, 595, 551, -1, 570, 545, 574, -1,
 574, 545, 547, -1, 574, 547, 582, -1, 582, 547, 551, -1,
 582, 551, 584, -1, 584, 551, 595, -1, 633, 635, 623, -1,
 623, 635, 636, -1, 636, 635, 647, -1, 636, 647, 637, -1,
 637, 647, 669, -1, 669, 647, 660, -1, 669, 660, 670, -1,
 548, 546, 573, -1, 573, 575, 548, -1, 548, 575, 583, -1,
 548, 583, 552, -1, 583, 585, 552, -1, 552, 585, 596, -1,
 552, 596, 556, -1, 623, 620, 633, -1, 633, 620, 588, -1,
 633, 588, 622, -1, 622, 588, 587, -1, 622, 587, 619, -1,
 619, 587, 566, -1, 619, 566, 608, -1, 608, 566, 560, -1,
 608, 560, 606, -1, 606, 560, 556, -1, 606, 556, 598, -1,
 598, 556, 596, -1, 670, 660, 687, -1, 687, 660, 662, -1,
 687, 662, 714, -1, 714, 662, 673, -1, 714, 673, 731, -1,
 731, 673, 676, -1, 731, 676, 737, -1, 737, 676, 689, -1,
 737, 689, 741, -1, 741, 689, 691, -1, 741, 691, 753, -1,
 691, 703, 753, -1, 753, 703, 705, -1, 753, 705, 757, -1,
 730, 771, 726, -1, 726, 771, 769, -1, 726, 769, 718, -1,
 718, 769, 757, -1, 718, 757, 716, -1, 716, 757, 705, -1
]
normalIndex [
 393, 393, 384, -1, 384, 393, 384, -1, 384, 384, 370, -1,
 370, 384, 370, -1, 370, 370, 355, -1, 355, 370, 355, -1,
 355, 355, 333, -1, 333, 355, 333, -1, 333, 333, 278, -1,
 278, 333, 278, -1, 278, 278, 222, -1, 222, 278, 222, -1,
 222, 222, 169, -1, 169, 222, 169, -1, 169, 169, 121, -1,
 121, 169, 121, -1, 121, 121, 89, -1, 89, 121, 89, -1,
 89, 89, 72, -1, 72, 89, 72, -1, 72, 72, 60, -1,
 60, 72, 60, -1, 60, 60, 51, -1, 51, 60, 51, -1,
 50, 50, 59, -1, 59, 50, 59, -1, 59, 59, 71, -1,
 71, 59, 71, -1, 71, 71, 88, -1, 88, 71, 88, -1,
 88, 88, 120, -1, 120, 88, 120, -1, 120, 120, 168, -1,
 168, 120, 168, -1, 168, 168, 221, -1, 221, 168, 221, -1,
 221, 221, 277, -1, 277, 221, 277, -1, 277, 277, 332, -1,
 332, 277, 332, -1, 332, 332, 354, -1, 354, 332, 354, -1,
 354, 354, 369, -1, 369, 354, 369, -1, 369, 369, 383, -1,
 383, 369, 383, -1, 383, 383, 392, -1, 392, 383, 392, -1,
 477, 477, 458, -1, 477, 458, 458, -1, 458, 458, 428, -1,
 458, 428, 428, -1, 477, 477, 449, -1, 477, 449, 449, -1,
 449, 449, 420, -1, 449, 420, 420, -1, 420, 420, 397, -1,
 420, 397, 397, -1, 0, 0, 3, -1, 0, 3, 3, -1,
 3, 3, 15, -1, 3, 15, 15, -1, 15, 15, 21, -1,
 15, 21, 21, -1, 477, 477, 451, -1, 451, 477, 451, -1,
 451, 451, 423, -1, 423, 451, 423, -1, 423, 423, 401, -1,
 401, 423, 401, -1, 401, 401, 361, -1, 361, 401, 361, -1,
 361, 361, 335, -1, 335, 361, 335, -1, 335, 335, 256, -1,
 256, 335, 256, -1, 256, 256, 192, -1, 192, 256, 192, -1,
 192, 192, 119, -1, 119, 192, 119, -1, 119, 119, 80, -1,
 80, 119, 80, -1, 80, 80, 43, -1, 43, 80, 43, -1,
 43, 43, 20, -1, 20, 43, 20, -1, 20, 20, 6, -1,
 6, 20, 6, -1, 6, 6, 0, -1, 0, 6, 0, -1,
 477, 477, 451, -1, 451, 477, 451, -1, 451, 451, 423, -1,
 423, 451, 423, -1, 423, 423, 401, -1, 401, 423, 401, -1,
 401, 401, 361, -1, 361, 401, 361, -1, 361, 361, 335, -1,
 335, 361, 335, -1, 335, 335, 256, -1, 256, 335, 256, -1,
 256, 256, 192, -1, 192, 256, 192, -1, 192, 192, 119, -1,
 119, 192, 119, -1, 119, 119, 80, -1, 80, 119, 80, -1,
 80, 80, 43, -1, 43, 80, 43, -1, 43, 43, 20, -1,
 20, 43, 20, -1, 20, 20, 6, -1, 6, 20, 6, -1,
 6, 6, 0, -1, 0, 6, 0, -1, 477, 477, 447, -1,
 447, 477, 447, -1, 447, 447, 417, -1, 417, 447, 417, -1,
 417, 417, 394, -1, 394, 417, 394, -1, 394, 394, 356, -1,
 356, 394, 356, -1, 356, 356, 308, -1, 308, 356, 308, -1,
 308, 308, 223, -1, 223, 308, 223, -1, 223, 223, 157, -1,
 157, 223, 157, -1, 157, 157, 90, -1, 90, 157, 90, -1,
 90, 90, 52, -1, 52, 90, 52, -1, 52, 52, 29, -1,
 29, 52, 29, -1, 29, 29, 8, -1, 8, 29, 8, -1,
 8, 8, 0, -1, 0, 8, 0, -1, 477, 477, 447, -1,
 447, 477, 447, -1, 447, 447, 417, -1, 417, 447, 417, -1,
 417, 417, 394, -1, 394, 417, 394, -1, 394, 394, 356, -1,
 356, 394, 356, -1, 356, 356, 308, -1, 308, 356, 308, -1,
 308, 308, 223, -1, 223, 308, 223, -1, 223, 223, 157, -1,
 157, 223, 157, -1, 157, 157, 90, -1, 90, 157, 90, -1,
 90, 90, 52, -1, 52, 90, 52, -1, 52, 52, 29, -1,
 29, 52, 29, -1, 29, 29, 8, -1, 8, 29, 8, -1,
 8, 8, 0, -1, 0, 8, 0, -1, 282, 283, 286, -1,
 282, 286, 294, -1, 294, 286, 311, -1, 294, 311, 313, -1,
 313, 311, 312, -1, 313, 312, 314, -1, 314, 312, 318, -1,
 314, 318, 318, -1, 283, 282, 260, -1, 260, 282, 253, -1,
 260, 253, 254, -1, 254, 253, 239, -1, 239, 253, 233, -1,
 239, 233, 234, -1, 234, 233, 226, -1, 226, 233, 207, -1,
 226, 207, 208, -1, 195, 194, 207, -1, 207, 194, 203, -1,
 207, 203, 208, -1, 154, 164, 166, -1, 166, 164, 165, -1,
 166, 165, 195, -1, 195, 165, 186, -1, 195, 186, 194, -1,
 153, 155, 154, -1, 154, 155, 161, -1, 154, 161, 164, -1,
 153, 151, 155, -1, 155, 151, 147, -1, 155, 147, 145, -1,
 145, 144, 155, -1, 155, 144, 143, -1, 155, 143, 141, -1,
 138, 150, 155, -1, 141, 140, 155, -1, 155, 140, 137, -1,
 155, 137, 138, -1, 138, 137, 133, -1, 133, 131, 138, -1,
 138, 131, 128, -1, 138, 128, 122, -1, 116, 112, 109, -1,
 109, 112, 111, -1, 109, 111, 109, -1, 85, 85, 100, -1,
 100, 85, 100, -1, 100, 100, 108, -1, 108, 100, 108, -1,
 108, 108, 109, -1, 109, 108, 138, -1, 109, 138, 116, -1,
 116, 138, 122, -1, 107, 107, 101, -1, 101, 107, 101, -1,
 101, 101, 85, -1, 85, 101, 85, -1, 4, 4, 4, -1,
 4, 4, 4, -1, 4, 4, 4, -1, 4, 4, 4, -1,
 4, 4, 4, -1, 470, 473, 475, -1, 426, 426, 424, -1,
 430, 430, 433, -1, 430, 433, 437, -1, 463, 465, 475, -1,
 475, 465, 466, -1, 466, 470, 475, -1, 475, 470, 475, -1,
 475, 475, 467, -1, 467, 475, 467, -1, 467, 467, 441, -1,
 441, 467, 441, -1, 441, 441, 424, -1, 440, 444, 460, -1,
 433, 434, 437, -1, 437, 434, 436, -1, 437, 436, 460, -1,
 460, 436, 439, -1, 460, 439, 440, -1, 444, 448, 460, -1,
 460, 448, 452, -1, 460, 452, 456, -1, 456, 457, 460, -1,
 460, 457, 461, -1, 460, 461, 475, -1, 475, 461, 462, -1,
 475, 462, 463, -1, 126, 126, 146, -1, 146, 126, 146, -1,
 146, 146, 180, -1, 180, 146, 180, -1, 180, 180, 227, -1,
 227, 180, 227, -1, 227, 227, 267, -1, 267, 227, 267, -1,
 267, 267, 320, -1, 320, 267, 320, -1, 320, 320, 344, -1,
 344, 320, 344, -1, 344, 344, 366, -1, 366, 344, 366, -1,
 366, 366, 395, -1, 395, 366, 395, -1, 395, 395, 407, -1,
 407, 395, 407, -1, 407, 407, 424, -1, 424, 407, 424, -1,
 424, 424, 426, -1, 426, 424, 441, -1, 219, 219, 219, -1,
 219, 219, 219, -1, 219, 219, 219, -1, 219, 219, 219, -1,
 219, 219, 219, -1, 219, 219, 219, -1, 219, 219, 219, -1,
 219, 219, 219, -1, 219, 219, 219, -1, 219, 219, 219, -1,
 219, 219, 219, -1, 219, 219, 219, -1, 219, 219, 219, -1,
 219, 219, 219, -1, 219, 219, 219, -1, 219, 219, 219, -1,
 219, 219, 219, -1, 219, 219, 219, -1, 219, 219, 219, -1,
 219, 219, 219, -1, 219, 219, 219, -1, 219, 219, 219, -1,
 219, 219, 219, -1, 219, 219, 219, -1, 219, 219, 219, -1,
 219, 219, 219, -1, 219, 219, 219, -1, 219, 219, 219, -1,
 219, 219, 219, -1, 219, 219, 219, -1, 219, 219, 219, -1,
 219, 219, 219, -1, 219, 219, 219, -1, 219, 219, 219, -1,
 219, 219, 219, -1, 219, 219, 219, -1, 219, 219, 219, -1,
 219, 219, 219, -1, 219, 219, 219, -1, 219, 219, 219, -1,
 219, 219, 219, -1, 219, 219, 219, -1, 219, 219, 219, -1,
 219, 219, 219, -1, 219, 219, 219, -1, 219, 219, 219, -1,
 219, 219, 219, -1, 219, 219, 219, -1, 219, 219, 219, -1,
 219, 219, 219, -1, 219, 219, 219, -1, 219, 219, 219, -1,
 219, 219, 219, -1, 219, 219, 219, -1, 219, 219, 219, -1,
 219, 219, 219, -1, 219, 219, 219, -1, 219, 219, 219, -1,
 219, 219, 219, -1, 219, 219, 219, -1, 219, 219, 219, -1,
 219, 219, 219, -1, 219, 219, 219, -1, 219, 219, 219, -1,
 219, 219, 219, -1, 219, 219, 219, -1, 219, 219, 219, -1,
 220, 220, 220, -1, 220, 220, 220, -1, 220, 220, 220, -1,
 220, 220, 220, -1, 220, 220, 220, -1, 220, 220, 220, -1,
 220, 220, 220, -1, 220, 220, 220, -1, 220, 220, 220, -1,
 220, 220, 220, -1, 220, 220, 220, -1, 220, 220, 220, -1,
 220, 220, 220, -1, 220, 220, 220, -1, 220, 220, 220, -1,
 220, 220, 220, -1, 220, 220, 220, -1, 220, 220, 220, -1,
 220, 220, 220, -1, 220, 220, 220, -1, 220, 220, 220, -1,
 220, 220, 220, -1, 220, 220, 220, -1, 220, 220, 220, -1,
 220, 220, 220, -1, 220, 220, 220, -1, 220, 220, 220, -1,
 220, 220, 220, -1, 220, 220, 220, -1, 220, 220, 220, -1,
 220, 220, 220, -1, 220, 220, 220, -1, 220, 220, 220, -1,
 220, 220, 220, -1, 220, 220, 220, -1, 220, 220, 220, -1,
 220, 220, 220, -1, 220, 220, 220, -1, 220, 220, 220, -1,
 220, 220, 220, -1, 220, 220, 220, -1, 220, 220, 220, -1,
 220, 220, 220, -1, 220, 220, 220, -1, 220, 220, 220, -1,
 220, 220, 220, -1, 220, 220, 220, -1, 220, 220, 220, -1,
 220, 220, 220, -1, 220, 220, 220, -1, 220, 220, 220, -1,
 220, 220, 220, -1, 220, 220, 220, -1, 220, 220, 220, -1,
 220, 220, 220, -1, 220, 220, 220, -1, 220, 220, 220, -1,
 220, 220, 220, -1, 220, 220, 220, -1, 220, 220, 220, -1,
 220, 220, 220, -1, 220, 220, 220, -1, 220, 220, 220, -1,
 220, 220, 220, -1, 220, 220, 220, -1, 220, 220, 220, -1,
 220, 220, 220, -1, 220, 220, 220, -1, 220, 220, 220, -1,
 220, 220, 220, -1, 220, 220, 220, -1, 220, 220, 220, -1,
 220, 220, 220, -1, 220, 220, 220, -1, 220, 220, 220, -1,
 220, 220, 220, -1, 220, 220, 220, -1, 220, 220, 220, -1,
 220, 220, 220, -1, 220, 220, 220, -1, 223, 223, 223, -1,
 223, 223, 223, -1, 223, 223, 223, -1, 223, 223, 223, -1,
 223, 223, 223, -1, 223, 223, 223, -1, 223, 223, 223, -1,
 223, 223, 223, -1, 223, 223, 223, -1, 223, 223, 223, -1,
 399, 404, 404, -1, 464, 464, 443, -1, 443, 464, 443, -1,
 443, 443, 429, -1, 429, 443, 429, -1, 429, 429, 419, -1,
 419, 429, 419, -1, 419, 419, 418, -1, 418, 419, 404, -1,
 418, 404, 418, -1, 418, 404, 404, -1, 399, 397, 397, -1,
 348, 348, 362, -1, 362, 348, 362, -1, 362, 362, 376, -1,
 376, 362, 376, -1, 376, 376, 397, -1, 397, 376, 399, -1,
 397, 399, 399, -1, 399, 399, 404, -1, 409, 412, 431, -1,
 405, 406, 431, -1, 431, 406, 409, -1, 372, 342, 343, -1,
 343, 357, 372, -1, 372, 357, 374, -1, 372, 374, 405, -1,
 405, 374, 385, -1, 405, 385, 406, -1, 298, 223, 223, -1,
 223, 274, 298, -1, 298, 274, 297, -1, 298, 297, 342, -1,
 342, 297, 329, -1, 342, 329, 343, -1, 409, 431, 431, -1,
 431, 431, 468, -1, 431, 468, 468, -1, 468, 468, 469, -1,
 468, 469, 469, -1, 469, 469, 435, -1, 469, 435, 435, -1,
 435, 435, 410, -1, 435, 410, 410, -1, 410, 410, 380, -1,
 410, 380, 380, -1, 380, 380, 348, -1, 380, 348, 348, -1,
 219, 219, 219, -1, 219, 219, 219, -1, 219, 219, 219, -1,
 219, 219, 219, -1, 219, 219, 219, -1, 219, 219, 219, -1,
 219, 219, 219, -1, 219, 219, 219, -1, 219, 219, 219, -1,
 219, 219, 219, -1, 219, 219, 219, -1, 219, 219, 219, -1,
 219, 219, 219, -1, 219, 219, 219, -1, 219, 219, 219, -1,
 219, 219, 219, -1, 219, 219, 219, -1, 219, 219, 219, -1,
 219, 219, 219, -1, 219, 219, 219, -1, 219, 219, 219, -1,
 219, 219, 219, -1, 219, 219, 219, -1, 219, 219, 219, -1,
 219, 219, 219, -1, 219, 219, 219, -1, 219, 219, 219, -1,
 219, 219, 219, -1, 219, 219, 219, -1, 219, 219, 219, -1,
 219, 219, 219, -1, 219, 219, 219, -1, 219, 219, 219, -1,
 219, 219, 219, -1, 219, 219, 219, -1, 219, 219, 219, -1,
 219, 219, 219, -1, 219, 219, 219, -1, 219, 219, 219, -1,
 219, 219, 219, -1, 219, 219, 219, -1, 219, 219, 219, -1,
 219, 219, 219, -1, 219, 219, 219, -1, 219, 219, 219, -1,
 219, 219, 219, -1, 219, 219, 219, -1, 219, 219, 219, -1,
 219, 219, 219, -1, 219, 219, 219, -1, 219, 219, 219, -1,
 219, 219, 219, -1, 219, 219, 219, -1, 219, 219, 219, -1,
 219, 219, 219, -1, 219, 219, 219, -1, 219, 219, 219, -1,
 219, 219, 219, -1, 219, 219, 219, -1, 219, 219, 219, -1,
 219, 219, 219, -1, 219, 219, 219, -1, 219, 219, 219, -1,
 219, 219, 219, -1, 219, 219, 219, -1, 219, 219, 219, -1,
 219, 219, 219, -1, 219, 219, 219, -1, 219, 219, 219, -1,
 219, 219, 219, -1, 219, 219, 219, -1, 219, 219, 219, -1,
 219, 219, 219, -1, 219, 219, 219, -1, 219, 219, 219, -1,
 0, 0, 1, -1, 0, 1, 7, -1, 1, 9, 7, -1,
 7, 9, 16, -1, 7, 16, 28, -1, 16, 30, 28, -1,
 28, 30, 34, -1, 28, 34, 49, -1, 34, 53, 49, -1,
 49, 53, 63, -1, 49, 63, 87, -1, 63, 93, 87, -1,
 87, 93, 99, -1, 87, 99, 156, -1, 99, 158, 156, -1,
 156, 158, 160, -1, 156, 160, 216, -1, 160, 216, 216, -1,
 216, 216, 302, -1, 216, 302, 307, -1, 302, 306, 307, -1,
 307, 306, 345, -1, 307, 345, 353, -1, 345, 350, 353, -1,
 353, 350, 379, -1, 353, 379, 391, -1, 379, 390, 391, -1,
 391, 390, 411, -1, 391, 411, 416, -1, 411, 415, 416, -1,
 416, 415, 438, -1, 416, 438, 446, -1, 477, 477, 471, -1,
 471, 477, 446, -1, 471, 446, 445, -1, 445, 446, 438, -1,
 298, 296, 284, -1, 298, 284, 223, -1, 223, 284, 230, -1,
 223, 230, 223, -1, 296, 298, 337, -1, 337, 298, 342, -1,
 337, 342, 341, -1, 341, 342, 358, -1, 358, 342, 372, -1,
 358, 372, 373, -1, 373, 372, 389, -1, 389, 372, 405, -1,
 389, 405, 408, -1, 408, 405, 412, -1, 412, 405, 431, -1,
 412, 431, 431, -1, 431, 431, 468, -1, 431, 468, 468, -1,
 468, 468, 469, -1, 468, 469, 469, -1, 469, 469, 435, -1,
 469, 435, 435, -1, 435, 435, 410, -1, 435, 410, 410, -1,
 410, 410, 380, -1, 410, 380, 380, -1, 380, 380, 348, -1,
 380, 348, 348, -1, 0, 0, 1, -1, 1, 0, 7, -1,
 1, 7, 9, -1, 9, 7, 16, -1, 16, 7, 28, -1,
 16, 28, 30, -1, 30, 28, 34, -1, 34, 28, 49, -1,
 34, 49, 53, -1, 53, 49, 63, -1, 63, 49, 87, -1,
 63, 87, 93, -1, 93, 87, 99, -1, 99, 87, 156, -1,
 99, 156, 158, -1, 158, 156, 160, -1, 160, 156, 216, -1,
 160, 216, 216, -1, 216, 216, 302, -1, 302, 216, 307, -1,
 302, 307, 306, -1, 306, 307, 345, -1, 345, 307, 353, -1,
 345, 353, 350, -1, 350, 353, 379, -1, 379, 353, 391, -1,
 379, 391, 390, -1, 390, 391, 411, -1, 411, 391, 416, -1,
 411, 416, 415, -1, 415, 416, 438, -1, 438, 416, 446, -1,
 438, 446, 445, -1, 445, 446, 471, -1, 471, 446, 477, -1,
 471, 477, 477, -1, 85, 85, 139, -1, 85, 139, 139, -1,
 139, 139, 185, -1, 139, 185, 185, -1, 185, 185, 237, -1,
 185, 237, 237, -1, 237, 237, 303, -1, 237, 303, 303, -1,
 303, 303, 338, -1, 303, 338, 338, -1, 338, 338, 365, -1,
 338, 365, 365, -1, 365, 365, 396, -1, 365, 396, 396, -1,
 396, 396, 413, -1, 396, 413, 413, -1, 413, 413, 432, -1,
 413, 432, 432, -1, 432, 432, 464, -1, 432, 464, 464, -1,
 397, 397, 399, -1, 418, 418, 404, -1, 464, 464, 443, -1,
 443, 464, 443, -1, 443, 443, 429, -1, 429, 443, 429, -1,
 429, 429, 419, -1, 419, 429, 419, -1, 419, 419, 404, -1,
 348, 348, 362, -1, 362, 348, 362, -1, 362, 362, 376, -1,
 376, 362, 376, -1, 376, 376, 399, -1, 419, 418, 404, -1,
 404, 418, 404, -1, 404, 404, 399, -1, 399, 404, 399, -1,
 399, 399, 397, -1, 397, 399, 376, -1, 85, 85, 139, -1,
 85, 139, 139, -1, 139, 139, 185, -1, 139, 185, 185, -1,
 185, 185, 237, -1, 185, 237, 237, -1, 237, 237, 303, -1,
 237, 303, 303, -1, 303, 303, 338, -1, 303, 338, 338, -1,
 338, 338, 365, -1, 338, 365, 365, -1, 365, 365, 396, -1,
 365, 396, 396, -1, 396, 396, 413, -1, 396, 413, 413, -1,
 413, 413, 432, -1, 413, 432, 432, -1, 432, 432, 464, -1,
 432, 464, 464, -1, 223, 223, 199, -1, 223, 199, 199, -1,
 199, 199, 173, -1, 199, 173, 173, -1, 173, 173, 159, -1,
 173, 159, 159, -1, 159, 159, 129, -1, 159, 129, 129, -1,
 129, 129, 105, -1, 129, 105, 105, -1, 105, 105, 94, -1,
 105, 94, 94, -1, 94, 94, 78, -1, 94, 78, 78, -1,
 78, 78, 68, -1, 78, 68, 68, -1, 68, 68, 54, -1,
 68, 54, 54, -1, 54, 54, 41, -1, 54, 41, 41, -1,
 0, 0, 0, -1, 0, 0, 0, -1, 0, 0, 0, -1,
 0, 0, 0, -1, 216, 216, 216, -1, 216, 216, 216, -1,
 220, 220, 220, -1, 220, 220, 220, -1, 220, 220, 220, -1,
 220, 220, 220, -1, 220, 220, 220, -1, 220, 220, 220, -1,
 220, 220, 220, -1, 220, 220, 220, -1, 220, 220, 220, -1,
 220, 220, 220, -1, 220, 220, 220, -1, 220, 220, 220, -1,
 220, 220, 220, -1, 220, 220, 220, -1, 220, 220, 220, -1,
 220, 220, 220, -1, 220, 220, 220, -1, 220, 220, 220, -1,
 220, 220, 220, -1, 220, 220, 220, -1, 220, 220, 220, -1,
 220, 220, 220, -1, 220, 220, 220, -1, 220, 220, 220, -1,
 220, 220, 220, -1, 220, 220, 220, -1, 220, 220, 220, -1,
 220, 220, 220, -1, 220, 220, 220, -1, 220, 220, 220, -1,
 220, 220, 220, -1, 220, 220, 220, -1, 220, 220, 220, -1,
 220, 220, 220, -1, 220, 220, 220, -1, 220, 220, 220, -1,
 220, 220, 220, -1, 220, 220, 220, -1, 220, 220, 220, -1,
 220, 220, 220, -1, 220, 220, 220, -1, 220, 220, 220, -1,
 220, 220, 220, -1, 220, 220, 220, -1, 220, 220, 220, -1,
 220, 220, 220, -1, 220, 220, 220, -1, 220, 220, 220, -1,
 220, 220, 220, -1, 220, 220, 220, -1, 220, 220, 220, -1,
 220, 220, 220, -1, 220, 220, 220, -1, 220, 220, 220, -1,
 220, 220, 220, -1, 220, 220, 220, -1, 220, 220, 220, -1,
 220, 220, 220, -1, 220, 220, 220, -1, 220, 220, 220, -1,
 220, 220, 220, -1, 220, 220, 220, -1, 220, 220, 220, -1,
 220, 220, 220, -1, 220, 220, 220, -1, 220, 220, 220, -1,
 220, 220, 220, -1, 220, 220, 220, -1, 220, 220, 220, -1,
 220, 220, 220, -1, 349, 349, 371, -1, 371, 349, 371, -1,
 371, 371, 402, -1, 402, 371, 402, -1, 402, 402, 425, -1,
 425, 402, 425, -1, 425, 425, 454, -1, 454, 425, 454, -1,
 454, 454, 472, -1, 472, 454, 476, -1, 472, 476, 472, -1,
 349, 349, 371, -1, 371, 349, 371, -1, 371, 371, 402, -1,
 402, 371, 402, -1, 402, 402, 425, -1, 425, 402, 425, -1,
 425, 425, 454, -1, 454, 425, 454, -1, 454, 454, 476, -1,
 428, 428, 459, -1, 459, 428, 459, -1, 459, 459, 476, -1,
 476, 459, 476, -1, 476, 476, 472, -1, 472, 476, 454, -1,
 391, 391, 391, -1, 391, 391, 391, -1, 220, 220, 220, -1,
 220, 220, 220, -1, 220, 220, 220, -1, 220, 220, 220, -1,
 220, 220, 220, -1, 220, 220, 220, -1, 220, 220, 220, -1,
 220, 220, 220, -1, 220, 220, 220, -1, 220, 220, 220, -1,
 220, 220, 220, -1, 220, 220, 220, -1, 220, 220, 220, -1,
 220, 220, 220, -1, 220, 220, 220, -1, 220, 220, 220, -1,
 220, 220, 220, -1, 220, 220, 220, -1, 220, 220, 220, -1,
 220, 220, 220, -1, 220, 220, 220, -1, 220, 220, 220, -1,
 220, 220, 220, -1, 220, 220, 220, -1, 220, 220, 220, -1,
 220, 220, 220, -1, 220, 220, 220, -1, 220, 220, 220, -1,
 220, 220, 220, -1, 220, 220, 220, -1, 220, 220, 220, -1,
 220, 220, 220, -1, 220, 220, 220, -1, 220, 220, 220, -1,
 220, 220, 220, -1, 220, 220, 220, -1, 220, 220, 220, -1,
 220, 220, 220, -1, 220, 220, 220, -1, 220, 220, 220, -1,
 220, 220, 220, -1, 220, 220, 220, -1, 220, 220, 220, -1,
 220, 220, 220, -1, 220, 220, 220, -1, 220, 220, 220, -1,
 220, 220, 220, -1, 220, 220, 220, -1, 220, 220, 220, -1,
 220, 220, 220, -1, 220, 220, 220, -1, 220, 220, 220, -1,
 220, 220, 220, -1, 220, 220, 220, -1, 220, 220, 220, -1,
 220, 220, 220, -1, 220, 220, 220, -1, 220, 220, 220, -1,
 220, 220, 220, -1, 220, 220, 220, -1, 220, 220, 220, -1,
 220, 220, 220, -1, 220, 220, 220, -1, 220, 220, 220, -1,
 220, 220, 220, -1, 220, 220, 220, -1, 220, 220, 220, -1,
 220, 220, 220, -1, 220, 220, 220, -1, 220, 220, 220, -1,
 220, 220, 220, -1, 220, 220, 220, -1, 220, 220, 220, -1,
 220, 220, 220, -1, 220, 220, 220, -1, 26, 26, 35, -1,
 35, 26, 35, -1, 35, 35, 57, -1, 57, 35, 57, -1,
 57, 57, 77, -1, 77, 57, 77, -1, 77, 77, 104, -1,
 104, 77, 104, -1, 104, 104, 152, -1, 152, 104, 152, -1,
 152, 152, 197, -1, 197, 152, 197, -1, 197, 197, 240, -1,
 240, 197, 240, -1, 240, 240, 299, -1, 299, 240, 299, -1,
 299, 299, 319, -1, 319, 299, 327, -1, 319, 327, 327, -1,
 327, 327, 319, -1, 319, 327, 268, -1, 26, 26, 38, -1,
 38, 26, 38, -1, 38, 38, 67, -1, 67, 38, 67, -1,
 67, 67, 84, -1, 84, 67, 84, -1, 84, 84, 127, -1,
 127, 84, 127, -1, 127, 127, 172, -1, 172, 127, 172, -1,
 172, 172, 210, -1, 210, 172, 210, -1, 210, 210, 268, -1,
 268, 210, 268, -1, 268, 268, 319, -1, 219, 219, 219, -1,
 219, 219, 219, -1, 219, 219, 219, -1, 219, 219, 219, -1,
 219, 219, 219, -1, 219, 219, 219, -1, 219, 219, 219, -1,
 219, 219, 219, -1, 219, 219, 219, -1, 219, 219, 219, -1,
 219, 219, 219, -1, 219, 219, 219, -1, 219, 219, 219, -1,
 219, 219, 219, -1, 219, 219, 219, -1, 219, 219, 219, -1,
 219, 219, 219, -1, 219, 219, 219, -1, 219, 219, 219, -1,
 219, 219, 219, -1, 219, 219, 219, -1, 219, 219, 219, -1,
 219, 219, 219, -1, 219, 219, 219, -1, 219, 219, 219, -1,
 219, 219, 219, -1, 219, 219, 219, -1, 219, 219, 219, -1,
 219, 219, 219, -1, 219, 219, 219, -1, 219, 219, 219, -1,
 219, 219, 219, -1, 219, 219, 219, -1, 219, 219, 219, -1,
 219, 219, 219, -1, 219, 219, 219, -1, 219, 219, 219, -1,
 219, 219, 219, -1, 219, 219, 219, -1, 219, 219, 219, -1,
 219, 219, 219, -1, 219, 219, 219, -1, 219, 219, 219, -1,
 219, 219, 219, -1, 219, 219, 219, -1, 219, 219, 219, -1,
 219, 219, 219, -1, 219, 219, 219, -1, 219, 219, 219, -1,
 219, 219, 219, -1, 219, 219, 219, -1, 219, 219, 219, -1,
 219, 219, 219, -1, 219, 219, 219, -1, 219, 219, 219, -1,
 219, 219, 219, -1, 219, 219, 219, -1, 219, 219, 219, -1,
 219, 219, 219, -1, 219, 219, 219, -1, 219, 219, 219, -1,
 219, 219, 219, -1, 219, 219, 219, -1, 219, 219, 219, -1,
 219, 219, 219, -1, 219, 219, 219, -1, 219, 219, 219, -1,
 219, 219, 219, -1, 219, 219, 219, -1, 219, 219, 219, -1,
 219, 219, 219, -1, 219, 219, 219, -1, 219, 219, 219, -1,
 219, 219, 219, -1, 219, 219, 219, -1, 219, 219, 219, -1,
 219, 219, 219, -1, 219, 219, 219, -1, 219, 219, 219, -1,
 219, 219, 219, -1, 219, 219, 219, -1, 219, 219, 219, -1,
 219, 219, 219, -1, 0, 0, 5, -1, 5, 0, 5, -1,
 5, 5, 19, -1, 19, 5, 19, -1, 19, 19, 42, -1,
 42, 19, 42, -1, 42, 42, 79, -1, 79, 42, 79, -1,
 79, 79, 118, -1, 118, 79, 118, -1, 118, 118, 191, -1,
 191, 118, 191, -1, 191, 191, 255, -1, 255, 191, 255, -1,
 255, 255, 334, -1, 334, 255, 334, -1, 334, 334, 360, -1,
 360, 334, 360, -1, 360, 360, 400, -1, 400, 360, 400, -1,
 400, 400, 422, -1, 422, 400, 422, -1, 422, 422, 450, -1,
 450, 422, 450, -1, 450, 450, 477, -1, 477, 450, 477, -1,
 0, 0, 5, -1, 5, 0, 5, -1, 5, 5, 19, -1,
 19, 5, 19, -1, 19, 19, 42, -1, 42, 19, 42, -1,
 42, 42, 79, -1, 79, 42, 79, -1, 79, 79, 118, -1,
 118, 79, 118, -1, 118, 118, 191, -1, 191, 118, 191, -1,
 191, 191, 255, -1, 255, 191, 255, -1, 255, 255, 334, -1,
 334, 255, 334, -1, 334, 334, 360, -1, 360, 334, 360, -1,
 360, 360, 400, -1, 400, 360, 400, -1, 400, 400, 422, -1,
 422, 400, 422, -1, 422, 422, 450, -1, 450, 422, 450, -1,
 450, 450, 477, -1, 477, 450, 477, -1, 220, 220, 220, -1,
 220, 220, 220, -1, 220, 220, 220, -1, 220, 220, 220, -1,
 220, 220, 220, -1, 220, 220, 220, -1, 220, 220, 220, -1,
 220, 220, 220, -1, 220, 220, 220, -1, 220, 220, 220, -1,
 220, 220, 220, -1, 220, 220, 220, -1, 220, 220, 220, -1,
 220, 220, 220, -1, 220, 220, 220, -1, 220, 220, 220, -1,
 220, 220, 220, -1, 220, 220, 220, -1, 220, 220, 220, -1,
 220, 220, 220, -1, 220, 220, 220, -1, 220, 220, 220, -1,
 220, 220, 220, -1, 220, 220, 220, -1, 220, 220, 220, -1,
 220, 220, 220, -1, 220, 220, 220, -1, 220, 220, 220, -1,
 220, 220, 220, -1, 220, 220, 220, -1, 220, 220, 220, -1,
 220, 220, 220, -1, 220, 220, 220, -1, 220, 220, 220, -1,
 220, 220, 220, -1, 220, 220, 220, -1, 220, 220, 220, -1,
 220, 220, 220, -1, 220, 220, 220, -1, 220, 220, 220, -1,
 220, 220, 220, -1, 220, 220, 220, -1, 220, 220, 220, -1,
 220, 220, 220, -1, 220, 220, 220, -1, 220, 220, 220, -1,
 220, 220, 220, -1, 220, 220, 220, -1, 220, 220, 220, -1,
 220, 220, 220, -1, 220, 220, 220, -1, 220, 220, 220, -1,
 220, 220, 220, -1, 220, 220, 220, -1, 220, 220, 220, -1,
 220, 220, 220, -1, 220, 220, 220, -1, 220, 220, 220, -1,
 220, 220, 220, -1, 220, 220, 220, -1, 220, 220, 220, -1,
 219, 219, 219, -1, 219, 219, 219, -1, 219, 219, 219, -1,
 219, 219, 219, -1, 219, 219, 219, -1, 219, 219, 219, -1,
 219, 219, 219, -1, 219, 219, 219, -1, 219, 219, 219, -1,
 219, 219, 219, -1, 219, 219, 219, -1, 219, 219, 219, -1,
 219, 219, 219, -1, 219, 219, 219, -1, 219, 219, 219, -1,
 219, 219, 219, -1, 219, 219, 219, -1, 219, 219, 219, -1,
 219, 219, 219, -1, 219, 219, 219, -1, 219, 219, 219, -1,
 219, 219, 219, -1, 219, 219, 219, -1, 219, 219, 219, -1,
 219, 219, 219, -1, 219, 219, 219, -1, 219, 219, 219, -1,
 219, 219, 219, -1, 219, 219, 219, -1, 219, 219, 219, -1,
 219, 219, 219, -1, 219, 219, 219, -1, 219, 219, 219, -1,
 219, 219, 219, -1, 219, 219, 219, -1, 219, 219, 219, -1,
 219, 219, 219, -1, 219, 219, 219, -1, 219, 219, 219, -1,
 219, 219, 219, -1, 219, 219, 219, -1, 219, 219, 219, -1,
 219, 219, 219, -1, 219, 219, 219, -1, 219, 219, 219, -1,
 219, 219, 219, -1, 219, 219, 219, -1, 219, 219, 219, -1,
 219, 219, 219, -1, 219, 219, 219, -1, 219, 219, 219, -1,
 219, 219, 219, -1, 219, 219, 219, -1, 219, 219, 219, -1,
 219, 219, 219, -1, 219, 219, 219, -1, 219, 219, 219, -1,
 219, 219, 219, -1, 219, 219, 219, -1, 219, 219, 219, -1,
 219, 219, 219, -1, 219, 219, 219, -1, 219, 219, 219, -1,
 219, 219, 219, -1, 219, 219, 219, -1, 219, 219, 219, -1,
 219, 219, 219, -1, 219, 219, 219, -1, 219, 219, 219, -1,
 219, 219, 219, -1, 219, 219, 219, -1, 219, 219, 219, -1,
 219, 219, 219, -1, 219, 219, 219, -1, 219, 219, 219, -1,
 219, 219, 219, -1, 219, 219, 219, -1, 219, 219, 219, -1,
 219, 219, 219, -1, 219, 219, 219, -1, 219, 219, 219, -1,
 219, 219, 219, -1, 219, 219, 219, -1, 219, 219, 219, -1,
 219, 219, 219, -1, 219, 219, 219, -1, 219, 219, 219, -1,
 219, 219, 219, -1, 220, 220, 220, -1, 220, 220, 220, -1,
 220, 220, 220, -1, 220, 220, 220, -1, 220, 220, 220, -1,
 220, 220, 220, -1, 220, 220, 220, -1, 220, 220, 220, -1,
 220, 220, 220, -1, 220, 220, 220, -1, 220, 220, 220, -1,
 220, 220, 220, -1, 220, 220, 220, -1, 220, 220, 220, -1,
 220, 220, 220, -1, 220, 220, 220, -1, 220, 220, 220, -1,
 220, 220, 220, -1, 220, 220, 220, -1, 220, 220, 220, -1,
 220, 220, 220, -1, 17, 17, 17, -1, 17, 17, 17, -1,
 17, 17, 17, -1, 17, 17, 17, -1, 17, 17, 17, -1,
 17, 17, 17, -1, 17, 17, 17, -1, 17, 17, 17, -1,
 17, 17, 17, -1, 178, 183, 182, -1, 288, 292, 281, -1,
 288, 281, 285, -1, 285, 281, 280, -1, 280, 281, 280, -1,
 280, 280, 262, -1, 280, 262, 262, -1, 262, 262, 261, -1,
 262, 261, 246, -1, 261, 246, 246, -1, 246, 246, 245, -1,
 246, 245, 235, -1, 245, 235, 235, -1, 235, 235, 231, -1,
 235, 231, 225, -1, 231, 225, 225, -1, 225, 225, 209, -1,
 225, 209, 205, -1, 184, 182, 189, -1, 189, 182, 183, -1,
 189, 183, 198, -1, 198, 183, 198, -1, 198, 198, 202, -1,
 202, 198, 205, -1, 202, 205, 205, -1, 205, 205, 209, -1,
 218, 218, 218, -1, 218, 218, 218, -1, 218, 218, 218, -1,
 322, 322, 322, -1, 322, 322, 322, -1, 322, 322, 322, -1,
 322, 322, 322, -1, 81, 110, 117, -1, 117, 110, 115, -1,
 117, 115, 125, -1, 125, 115, 179, -1, 125, 179, 188, -1,
 188, 179, 187, -1, 188, 187, 190, -1, 190, 187, 244, -1,
 190, 244, 248, -1, 248, 244, 247, -1, 248, 247, 251, -1,
 251, 247, 322, -1, 251, 322, 322, -1, 117, 81, 81, -1,
 81, 81, 47, -1, 81, 47, 46, -1, 46, 47, 44, -1,
 44, 47, 45, -1, 44, 45, 24, -1, 12, 4, 4, -1,
 45, 27, 24, -1, 24, 27, 25, -1, 24, 25, 22, -1,
 22, 25, 14, -1, 22, 14, 11, -1, 11, 14, 12, -1,
 11, 12, 10, -1, 10, 12, 4, -1, 17, 17, 31, -1,
 31, 17, 23, -1, 31, 23, 33, -1, 23, 32, 33, -1,
 33, 32, 36, -1, 33, 36, 37, -1, 37, 36, 40, -1,
 37, 40, 39, -1, 39, 40, 58, -1, 39, 58, 66, -1,
 66, 58, 70, -1, 66, 70, 69, -1, 69, 70, 83, -1,
 69, 83, 86, -1, 86, 83, 95, -1, 86, 95, 96, -1,
 96, 95, 114, -1, 96, 114, 106, -1, 106, 114, 148, -1,
 106, 148, 149, -1, 149, 148, 181, -1, 149, 181, 163, -1,
 163, 181, 200, -1, 163, 200, 201, -1, 201, 200, 243, -1,
 201, 243, 229, -1, 229, 243, 257, -1, 229, 257, 259, -1,
 259, 257, 293, -1, 293, 257, 322, -1, 293, 322, 322, -1,
 26, 26, 48, -1, 26, 48, 48, -1, 48, 48, 82, -1,
 48, 82, 82, -1, 82, 82, 130, -1, 82, 130, 130, -1,
 130, 130, 193, -1, 130, 193, 193, -1, 193, 193, 258, -1,
 193, 258, 258, -1, 258, 258, 328, -1, 258, 328, 328, -1,
 328, 328, 359, -1, 328, 359, 359, -1, 359, 359, 398, -1,
 359, 398, 398, -1, 398, 398, 418, -1, 398, 418, 418, -1,
 418, 418, 398, -1, 418, 398, 398, -1, 398, 398, 359, -1,
 398, 359, 359, -1, 359, 359, 328, -1, 359, 328, 328, -1,
 328, 328, 258, -1, 328, 258, 258, -1, 258, 258, 193, -1,
 258, 193, 193, -1, 193, 193, 130, -1, 193, 130, 130, -1,
 130, 130, 82, -1, 130, 82, 82, -1, 82, 82, 48, -1,
 82, 48, 48, -1, 48, 48, 26, -1, 48, 26, 26, -1,
 216, 216, 216, -1, 216, 216, 216, -1, 216, 216, 216, -1,
 216, 216, 216, -1, 18, 18, 13, -1, 18, 13, 13, -1,
 13, 13, 2, -1, 13, 2, 2, -1, 2, 2, 0, -1,
 2, 0, 0, -1, 217, 217, 217, -1, 217, 217, 217, -1,
 217, 217, 217, -1, 217, 217, 217, -1, 221, 221, 221, -1,
 221, 221, 221, -1, 221, 221, 221, -1, 221, 221, 221, -1,
 221, 221, 221, -1, 221, 221, 221, -1, 221, 221, 221, -1,
 221, 221, 221, -1, 221, 221, 221, -1, 221, 221, 221, -1,
 221, 221, 221, -1, 221, 221, 221, -1, 221, 221, 221, -1,
 221, 221, 221, -1, 221, 221, 221, -1, 221, 221, 221, -1,
 221, 221, 221, -1, 221, 221, 221, -1, 221, 221, 221, -1,
 221, 221, 221, -1, 221, 221, 221, -1, 221, 221, 221, -1,
 221, 221, 221, -1, 221, 221, 221, -1, 222, 222, 222, -1,
 222, 222, 222, -1, 222, 222, 222, -1, 222, 222, 222, -1,
 222, 222, 222, -1, 222, 222, 222, -1, 222, 222, 222, -1,
 222, 222, 222, -1, 222, 222, 222, -1, 222, 222, 222, -1,
 222, 222, 222, -1, 222, 222, 222, -1, 222, 222, 222, -1,
 222, 222, 222, -1, 222, 222, 222, -1, 222, 222, 222, -1,
 222, 222, 222, -1, 222, 222, 222, -1, 222, 222, 222, -1,
 222, 222, 222, -1, 222, 222, 222, -1, 222, 222, 222, -1,
 222, 222, 222, -1, 222, 222, 222, -1, 269, 287, 266, -1,
 204, 211, 213, -1, 213, 211, 212, -1, 213, 212, 214, -1,
 236, 242, 238, -1, 238, 242, 241, -1, 236, 238, 212, -1,
 212, 238, 228, -1, 212, 228, 214, -1, 263, 264, 252, -1,
 241, 242, 252, -1, 252, 242, 250, -1, 252, 250, 263, -1,
 266, 287, 289, -1, 264, 263, 266, -1, 266, 263, 265, -1,
 266, 265, 269, -1, 304, 310, 305, -1, 305, 310, 309, -1,
 289, 287, 291, -1, 291, 287, 290, -1, 291, 290, 304, -1,
 304, 290, 301, -1, 304, 301, 310, -1, 317, 317, 316, -1,
 309, 310, 316, -1, 316, 310, 315, -1, 316, 315, 317, -1,
 300, 300, 300, -1, 300, 300, 300, -1, 300, 300, 300, -1,
 300, 300, 300, -1, 349, 349, 375, -1, 349, 375, 375, -1,
 375, 375, 403, -1, 375, 403, 403, -1, 403, 403, 427, -1,
 403, 427, 427, -1, 427, 427, 455, -1, 427, 455, 455, -1,
 455, 455, 477, -1, 455, 477, 477, -1, 397, 397, 421, -1,
 397, 421, 421, -1, 421, 421, 453, -1, 421, 453, 453, -1,
 453, 453, 474, -1, 453, 474, 474, -1, 474, 474, 442, -1,
 474, 442, 442, -1, 442, 442, 414, -1, 442, 414, 414, -1,
 414, 414, 386, -1, 414, 386, 386, -1, 386, 386, 349, -1,
 386, 349, 349, -1, 223, 223, 308, -1, 223, 308, 308, -1,
 308, 308, 356, -1, 308, 356, 356, -1, 356, 356, 394, -1,
 356, 394, 394, -1, 394, 394, 417, -1, 394, 417, 417, -1,
 417, 417, 447, -1, 417, 447, 447, -1, 447, 447, 477, -1,
 447, 477, 477, -1, 170, 176, 175, -1, 175, 176, 206, -1,
 206, 176, 217, -1, 206, 217, 215, -1, 215, 217, 249, -1,
 249, 217, 270, -1, 249, 270, 273, -1, 55, 50, 50, -1,
 50, 55, 55, -1, 55, 55, 61, -1, 55, 61, 64, -1,
 61, 64, 64, -1, 64, 64, 73, -1, 64, 73, 75, -1,
 175, 167, 170, -1, 170, 167, 142, -1, 170, 142, 135, -1,
 135, 142, 134, -1, 135, 134, 123, -1, 123, 134, 102, -1,
 123, 102, 97, -1, 97, 102, 97, -1, 97, 97, 91, -1,
 91, 97, 75, -1, 91, 75, 75, -1, 75, 75, 73, -1,
 273, 270, 295, -1, 295, 270, 275, -1, 295, 275, 326, -1,
 326, 275, 323, -1, 326, 323, 336, -1, 336, 323, 330, -1,
 336, 330, 339, -1, 339, 330, 346, -1, 339, 346, 346, -1,
 346, 346, 351, -1, 346, 351, 363, -1, 351, 363, 363, -1,
 363, 363, 367, -1, 363, 367, 377, -1, 392, 392, 387, -1,
 387, 392, 387, -1, 387, 387, 381, -1, 381, 387, 377, -1,
 381, 377, 377, -1, 377, 377, 367, -1, 276, 271, 272, -1,
 272, 271, 232, -1, 232, 271, 218, -1, 232, 218, 224, -1,
 224, 218, 196, -1, 196, 218, 177, -1, 196, 177, 174, -1,
 388, 393, 393, -1, 393, 388, 388, -1, 388, 388, 382, -1,
 388, 382, 378, -1, 382, 378, 378, -1, 378, 378, 368, -1,
 378, 368, 364, -1, 272, 279, 276, -1, 276, 279, 321, -1,
 276, 321, 324, -1, 324, 321, 325, -1, 324, 325, 331, -1,
 331, 325, 340, -1, 331, 340, 347, -1, 347, 340, 347, -1,
 347, 347, 352, -1, 352, 347, 364, -1, 352, 364, 364, -1,
 364, 364, 368, -1, 174, 177, 162, -1, 162, 177, 171, -1,
 162, 171, 132, -1, 132, 171, 136, -1, 132, 136, 113, -1,
 113, 136, 124, -1, 113, 124, 103, -1, 103, 124, 98, -1,
 103, 98, 98, -1, 98, 98, 92, -1, 98, 92, 76, -1,
 92, 76, 76, -1, 76, 76, 74, -1, 76, 74, 65, -1,
 51, 51, 56, -1, 56, 51, 56, -1, 56, 56, 62, -1,
 62, 56, 65, -1, 62, 65, 65, -1, 65, 65, 74, -1
]
colorPerVertex FALSE
normalPerVertex TRUE
}
}
]
}
