#VRML V2.0 utf8
Transform {
children [
Shape {
appearance Appearance {
material Material {
ambientIntensity 1.000000
diffuseColor 1.000000 1.000000 1.000000
emissiveColor 0.210000 0.210000 0.210000
specularColor 0.880000 0.880000 0.880000
shininess 0.210000
transparency 0.000000
}
}
geometry IndexedFaceSet {
color Color {
color [
 1.000000 1.000000 1.000000
]
}
coord Coordinate {
point [
 -0.003634 0.000000 -0.000343, -0.003634 0.000000 0.000343, -0.003634 0.003800 -0.000343, -0.003634 0.003800 0.000343, -0.003506 0.000000 -0.001016,
 -0.003506 0.000000 0.001016, -0.003506 0.003800 -0.001016, -0.003506 0.003800 0.001016, -0.003254 0.000000 -0.001654, -0.003254 0.000000 0.001654,
 -0.003254 0.003800 -0.001654, -0.003254 0.003800 0.001654, -0.002887 0.000000 -0.002233, -0.002887 0.000000 0.002233, -0.002887 0.003800 -0.002233,
 -0.002887 0.003800 0.002233, -0.002418 0.000000 -0.002734, -0.002418 0.000000 0.002734, -0.002418 0.003800 -0.002734, -0.002418 0.003800 0.002734,
 -0.001864 0.000000 -0.003138, -0.001864 0.000000 0.003138, -0.001864 0.003800 -0.003138, -0.001864 0.003800 0.003138, -0.001650 0.000000 0.000000,
 -0.001650 0.003800 0.000000, -0.001594 0.000000 -0.000427, -0.001594 0.000000 0.000427, -0.001594 0.003800 -0.000427, -0.001594 0.003800 0.000427,
 -0.001429 0.000000 -0.000825, -0.001429 0.000000 0.000825, -0.001429 0.003800 -0.000825, -0.001429 0.003800 0.000825, -0.001244 0.000000 -0.003431,
 -0.001244 0.000000 0.003431, -0.001244 0.003800 -0.003431, -0.001244 0.003800 0.003431, -0.001167 0.000000 -0.001167, -0.001167 0.000000 0.001167,
 -0.001167 0.003800 -0.001167, -0.001167 0.003800 0.001167, -0.000825 0.000000 -0.001429, -0.000825 0.000000 0.001429, -0.000825 0.003800 -0.001429,
 -0.000825 0.003800 0.001429, -0.000581 0.000000 -0.003604, -0.000581 0.000000 0.003604, -0.000581 0.003800 -0.003604, -0.000581 0.003800 0.003604,
 -0.000427 0.000000 -0.001594, -0.000427 0.000000 0.001594, -0.000427 0.003800 -0.001594, -0.000427 0.003800 0.001594, -0.000000 0.000000 -0.001650,
 0.000000 0.000000 0.001650, -0.000000 0.003800 -0.001650, 0.000000 0.003800 0.001650, 0.000427 0.000000 -0.001594, 0.000427 0.000000 0.001594,
 0.000427 0.003800 -0.001594, 0.000427 0.003800 0.001594, 0.000825 0.000000 -0.001429, 0.000825 0.000000 0.001429, 0.000825 0.003800 -0.001429,
 0.000825 0.003800 0.001429, 0.001167 0.000000 -0.001167, 0.001167 0.000000 0.001167, 0.001167 0.003800 -0.001167, 0.001167 0.003800 0.001167,
 0.001429 0.000000 -0.000825, 0.001429 0.000000 0.000825, 0.001429 0.003800 -0.000825, 0.001429 0.003800 0.000825, 0.001594 0.000000 -0.000427,
 0.001594 0.000000 0.000427, 0.001594 0.003800 -0.000427, 0.001594 0.003800 0.000427, 0.001650 0.000000 -0.000000, 0.001650 0.003800 -0.000000,
 0.017850 0.000000 0.000000, 0.017850 0.003800 0.000000, 0.017913 0.000000 -0.000721, 0.017913 0.000000 0.000721, 0.017913 0.003800 -0.000721,
 0.017913 0.003800 0.000721, 0.018100 0.000000 -0.001419, 0.018100 0.000000 0.001419, 0.018100 0.003800 -0.001419, 0.018100 0.003800 0.001419,
 0.018406 0.000000 -0.002075, 0.018406 0.000000 0.002075, 0.018406 0.003800 -0.002075, 0.018406 0.003800 0.002075, 0.018821 0.000000 -0.002668,
 0.018821 0.000000 0.002668, 0.018821 0.003800 -0.002668, 0.018821 0.003800 0.002668, 0.019332 0.000000 -0.003179, 0.019332 0.000000 0.003179,
 0.019332 0.003800 -0.003179, 0.019332 0.003800 0.003179, 0.019925 0.000000 -0.003594, 0.019925 0.000000 0.003594, 0.019925 0.003800 -0.003594,
 0.019925 0.003800 0.003594, 0.020581 0.000000 -0.003900, 0.020581 0.000000 0.003900, 0.020581 0.003800 -0.003900, 0.020581 0.003800 0.003900,
 0.020862 0.000000 -0.007059, 0.020862 0.000000 0.007059, 0.020862 0.003800 -0.007059, 0.020862 0.003800 0.007059, 0.021279 0.000000 -0.004087,
 0.021279 0.000000 0.004087, 0.021279 0.003800 -0.004087, 0.021279 0.003800 0.004087, 0.021429 0.000000 -0.007127, 0.021429 0.000000 0.007127,
 0.021429 0.003800 -0.007127, 0.021429 0.003800 0.007127, 0.022000 0.000000 -0.007150, 0.022000 0.000000 -0.004150, 0.022000 0.000000 0.004150,
 0.022000 0.000000 0.007150, 0.022000 0.003800 -0.007150, 0.022000 0.003800 -0.004150, 0.022000 0.003800 0.004150, 0.022000 0.003800 0.007150,
 0.022721 0.000000 -0.004087, 0.022721 0.000000 0.004087, 0.022721 0.003800 -0.004087, 0.022721 0.003800 0.004087, 0.022974 0.000000 -0.007083,
 0.022974 0.000000 0.007083, 0.022974 0.003800 -0.007083, 0.022974 0.003800 0.007083, 0.023419 0.000000 -0.003900, 0.023419 0.000000 0.003900,
 0.023419 0.003800 -0.003900, 0.023419 0.003800 0.003900, 0.023929 0.000000 -0.006885, 0.023929 0.000000 0.006885, 0.023929 0.003800 -0.006885,
 0.023929 0.003800 0.006885, 0.024075 0.000000 -0.003594, 0.024075 0.000000 0.003594, 0.024075 0.003800 -0.003594, 0.024075 0.003800 0.003594,
 0.024668 0.000000 -0.003179, 0.024668 0.000000 0.003179, 0.024668 0.003800 -0.003179, 0.024668 0.003800 0.003179, 0.024849 0.000000 -0.006558,
 0.024849 0.000000 0.006558, 0.024849 0.003800 -0.006558, 0.024849 0.003800 0.006558, 0.025179 0.000000 -0.002668, 0.025179 0.000000 0.002668,
 0.025179 0.003800 -0.002668, 0.025179 0.003800 0.002668, 0.025594 0.000000 -0.002075, 0.025594 0.000000 0.002075, 0.025594 0.003800 -0.002075,
 0.025594 0.003800 0.002075, 0.025715 0.000000 -0.006109, 0.025715 0.000000 0.006109, 0.025715 0.003800 -0.006109, 0.025715 0.003800 0.006109,
 0.025900 0.000000 -0.001419, 0.025900 0.000000 0.001419, 0.025900 0.003800 -0.001419, 0.025900 0.003800 0.001419, 0.026087 0.000000 -0.000721,
 0.026087 0.000000 0.000721, 0.026087 0.003800 -0.000721, 0.026087 0.003800 0.000721, 0.026150 0.000000 -0.000000, 0.026150 0.003800 -0.000000,
 0.026512 0.000000 -0.005546, 0.026512 0.000000 0.005546, 0.026512 0.003800 -0.005546, 0.026512 0.003800 0.005546, 0.027225 0.000000 -0.004880,
 0.027225 0.000000 0.004880, 0.027225 0.003800 -0.004880, 0.027225 0.003800 0.004880, 0.027841 0.000000 -0.004123, 0.027841 0.000000 0.004123,
 0.027841 0.003800 -0.004123, 0.027841 0.003800 0.004123, 0.028348 0.000000 -0.003289, 0.028348 0.000000 0.003289, 0.028348 0.003800 -0.003289,
 0.028348 0.003800 0.003289, 0.028737 0.000000 -0.002394, 0.028737 0.000000 0.002394, 0.028737 0.003800 -0.002394, 0.028737 0.003800 0.002394,
 0.029000 0.000000 -0.001455, 0.029000 0.000000 0.001455, 0.029000 0.003800 -0.001455, 0.029000 0.003800 0.001455, 0.029133 0.000000 -0.000488,
 0.029133 0.000000 0.000488, 0.029133 0.003800 -0.000488, 0.029133 0.003800 0.000488
]
}
normal Normal {
vector [
 -1.000000 0.000000 0.000000, -0.995579 0.000000 -0.093930, -0.995579 0.000000 0.093930, -0.984808 0.000000 -0.173648, -0.984808 0.000000 0.173648,
 -0.965926 0.000000 -0.258819, -0.965926 0.000000 0.258819, -0.960444 0.000000 -0.278474, -0.960444 0.000000 0.278474, -0.939693 0.000000 -0.342020,
 -0.939693 0.000000 0.342020, -0.891413 0.000000 -0.453191, -0.891413 0.000000 0.453191, -0.866025 0.000000 -0.500000, -0.866025 0.000000 0.500000,
 -0.790924 0.000000 -0.611915, -0.790924 0.000000 0.611915, -0.766044 0.000000 -0.642788, -0.766044 0.000000 0.642788, -0.707107 0.000000 -0.707107,
 -0.707107 0.000000 0.707107, -0.662522 0.000000 -0.749043, -0.662522 0.000000 0.749043, -0.642788 0.000000 -0.766044, -0.642788 0.000000 0.766044,
 -0.510738 0.000000 -0.859736, -0.510738 0.000000 0.859736, -0.500000 0.000000 -0.866025, -0.500000 0.000000 0.866025, -0.342020 0.000000 -0.939693,
 -0.342020 0.000000 0.939693, -0.340931 0.000000 -0.940088, -0.340931 0.000000 0.940088, -0.258819 0.000000 -0.965926, -0.258819 0.000000 0.965926,
 -0.173648 0.000000 -0.984808, -0.173648 0.000000 0.984808, -0.159091 0.000000 -0.987264, -0.159091 0.000000 0.987264, -0.079800 0.000000 -0.996811,
 -0.079800 0.000000 0.996811, 0.000000 -1.000000 0.000000, -0.000000 0.000000 -1.000000, 0.000000 0.000000 1.000000, 0.000000 1.000000 0.000000,
 0.136167 0.000000 -0.990686, 0.136167 0.000000 0.990686, 0.173648 0.000000 -0.984808, 0.173648 0.000000 0.984808, 0.258819 0.000000 -0.965926,
 0.258819 0.000000 0.965926, 0.269797 0.000000 -0.962917, 0.269797 0.000000 0.962917, 0.342020 0.000000 -0.939693, 0.342020 0.000000 0.939693,
 0.398401 0.000000 -0.917211, 0.398401 0.000000 0.917211, 0.500000 0.000000 -0.866025, 0.500000 0.000000 0.866025, 0.519584 0.000000 -0.854419,
 0.519584 0.000000 0.854419, 0.631088 0.000000 -0.775711, 0.631088 0.000000 0.775711, 0.642788 0.000000 -0.766044, 0.642788 0.000000 0.766044,
 0.707107 0.000000 -0.707107, 0.707107 0.000000 0.707107, 0.730836 0.000000 -0.682553, 0.730836 0.000000 0.682553, 0.766044 0.000000 -0.642788,
 0.766044 0.000000 0.642788, 0.816970 0.000000 -0.576680, 0.816970 0.000000 0.576680, 0.866025 0.000000 -0.500000, 0.866025 0.000000 0.500000,
 0.887885 0.000000 -0.460065, 0.887885 0.000000 0.460065, 0.939693 0.000000 -0.342020, 0.939693 0.000000 0.342020, 0.942261 0.000000 -0.334880,
 0.942261 0.000000 0.334880, 0.965926 0.000000 -0.258819, 0.965926 0.000000 0.258819, 0.979084 0.000000 -0.203456, 0.979084 0.000000 0.203456,
 0.984808 0.000000 -0.173648, 0.984808 0.000000 0.173648, 0.997669 0.000000 -0.068242, 0.997669 0.000000 0.068242, 1.000000 0.000000 -0.000000
]
}
coordIndex [
 128, 124, 117, -1, 117, 124, 115, -1, 117, 115, 109, -1,
 109, 115, 107, -1, 109, 107, 105, -1, 105, 107, 103, -1,
 105, 103, 101, -1, 101, 103, 99, -1, 101, 99, 97, -1,
 97, 99, 95, -1, 97, 95, 93, -1, 93, 95, 91, -1,
 93, 91, 89, -1, 89, 91, 87, -1, 89, 87, 85, -1,
 85, 87, 83, -1, 85, 83, 81, -1, 81, 83, 80, -1,
 81, 80, 84, -1, 84, 80, 82, -1, 84, 82, 88, -1,
 88, 82, 86, -1, 88, 86, 92, -1, 92, 86, 90, -1,
 92, 90, 96, -1, 96, 90, 94, -1, 96, 94, 100, -1,
 100, 94, 98, -1, 100, 98, 104, -1, 104, 98, 102, -1,
 104, 102, 108, -1, 108, 102, 106, -1, 108, 106, 116, -1,
 116, 106, 114, -1, 116, 114, 127, -1, 127, 114, 123, -1,
 57, 55, 53, -1, 53, 55, 51, -1, 53, 51, 45, -1,
 45, 51, 43, -1, 45, 43, 41, -1, 41, 43, 39, -1,
 41, 39, 33, -1, 33, 39, 31, -1, 33, 31, 29, -1,
 29, 31, 27, -1, 29, 27, 25, -1, 25, 27, 24, -1,
 25, 24, 28, -1, 28, 24, 26, -1, 28, 26, 32, -1,
 32, 26, 30, -1, 32, 30, 40, -1, 40, 30, 38, -1,
 40, 38, 44, -1, 44, 38, 42, -1, 44, 42, 52, -1,
 52, 42, 50, -1, 52, 50, 56, -1, 56, 50, 54, -1,
 129, 125, 135, -1, 129, 135, 137, -1, 137, 135, 143, -1,
 137, 143, 145, -1, 145, 143, 155, -1, 145, 155, 157, -1,
 157, 155, 167, -1, 157, 167, 169, -1, 169, 167, 181, -1,
 169, 181, 183, -1, 183, 181, 185, -1, 183, 185, 187, -1,
 187, 185, 189, -1, 187, 189, 191, -1, 191, 189, 193, -1,
 191, 193, 195, -1, 195, 193, 197, -1, 195, 197, 199, -1,
 199, 197, 201, -1, 199, 201, 203, -1, 203, 201, 205, -1,
 203, 205, 207, -1, 207, 205, 204, -1, 207, 204, 206, -1,
 206, 204, 200, -1, 206, 200, 202, -1, 202, 200, 196, -1,
 202, 196, 198, -1, 198, 196, 192, -1, 198, 192, 194, -1,
 194, 192, 188, -1, 194, 188, 190, -1, 190, 188, 184, -1,
 190, 184, 186, -1, 186, 184, 180, -1, 186, 180, 182, -1,
 182, 180, 166, -1, 182, 166, 168, -1, 168, 166, 154, -1,
 168, 154, 156, -1, 156, 154, 142, -1, 156, 142, 144, -1,
 144, 142, 134, -1, 144, 134, 136, -1, 136, 134, 122, -1,
 136, 122, 126, -1, 126, 122, 118, -1, 126, 118, 120, -1,
 120, 118, 110, -1, 120, 110, 112, -1, 48, 36, 52, -1,
 113, 69, 65, -1, 52, 36, 44, -1, 44, 36, 22, -1,
 44, 22, 40, -1, 113, 65, 49, -1, 117, 113, 121, -1,
 33, 15, 41, -1, 41, 15, 19, -1, 41, 19, 45, -1,
 45, 19, 23, -1, 45, 23, 53, -1, 53, 23, 37, -1,
 53, 37, 57, -1, 57, 37, 49, -1, 57, 49, 61, -1,
 61, 49, 65, -1, 25, 3, 29, -1, 29, 3, 7, -1,
 29, 7, 33, -1, 33, 7, 11, -1, 33, 11, 15, -1,
 22, 18, 40, -1, 40, 18, 14, -1, 40, 14, 32, -1,
 32, 14, 10, -1, 32, 10, 28, -1, 28, 10, 6, -1,
 28, 6, 25, -1, 25, 6, 2, -1, 25, 2, 3, -1,
 52, 56, 48, -1, 48, 56, 60, -1, 48, 60, 112, -1,
 112, 60, 64, -1, 112, 64, 68, -1, 117, 121, 128, -1,
 128, 121, 129, -1, 128, 129, 133, -1, 126, 120, 76, -1,
 76, 120, 112, -1, 76, 112, 72, -1, 72, 112, 68, -1,
 156, 144, 76, -1, 76, 144, 136, -1, 76, 136, 126, -1,
 69, 113, 73, -1, 73, 113, 117, -1, 73, 117, 77, -1,
 77, 117, 109, -1, 77, 109, 105, -1, 88, 92, 76, -1,
 76, 92, 96, -1, 76, 96, 100, -1, 129, 137, 133, -1,
 133, 137, 145, -1, 133, 145, 141, -1, 141, 145, 157, -1,
 141, 157, 149, -1, 149, 157, 169, -1, 149, 169, 153, -1,
 153, 169, 183, -1, 153, 183, 161, -1, 105, 101, 77, -1,
 77, 101, 97, -1, 77, 97, 93, -1, 93, 89, 77, -1,
 77, 89, 85, -1, 77, 85, 79, -1, 79, 85, 81, -1,
 79, 81, 76, -1, 76, 81, 84, -1, 76, 84, 88, -1,
 183, 187, 161, -1, 161, 187, 191, -1, 161, 191, 165, -1,
 165, 191, 195, -1, 165, 195, 173, -1, 173, 195, 199, -1,
 173, 199, 177, -1, 100, 104, 76, -1, 76, 104, 108, -1,
 76, 108, 156, -1, 156, 108, 116, -1, 156, 116, 127, -1,
 199, 203, 177, -1, 177, 203, 207, -1, 177, 207, 179, -1,
 179, 207, 206, -1, 179, 206, 176, -1, 176, 206, 202, -1,
 176, 202, 172, -1, 172, 202, 198, -1, 172, 198, 164, -1,
 127, 132, 156, -1, 156, 132, 140, -1, 156, 140, 168, -1,
 168, 140, 148, -1, 168, 148, 182, -1, 182, 148, 152, -1,
 182, 152, 186, -1, 186, 152, 160, -1, 186, 160, 190, -1,
 190, 160, 164, -1, 190, 164, 194, -1, 194, 164, 198, -1,
 110, 66, 62, -1, 125, 119, 75, -1, 75, 119, 111, -1,
 75, 111, 71, -1, 71, 111, 67, -1, 110, 62, 46, -1,
 27, 1, 24, -1, 24, 1, 0, -1, 24, 0, 26, -1,
 26, 0, 4, -1, 26, 4, 30, -1, 47, 35, 51, -1,
 118, 122, 74, -1, 4, 8, 30, -1, 30, 8, 12, -1,
 30, 12, 38, -1, 38, 12, 16, -1, 38, 16, 42, -1,
 42, 16, 20, -1, 42, 20, 50, -1, 50, 20, 34, -1,
 50, 34, 54, -1, 54, 34, 46, -1, 54, 46, 58, -1,
 58, 46, 62, -1, 155, 143, 75, -1, 75, 143, 135, -1,
 75, 135, 125, -1, 130, 123, 122, -1, 122, 123, 114, -1,
 39, 13, 31, -1, 31, 13, 9, -1, 31, 9, 27, -1,
 27, 9, 5, -1, 27, 5, 1, -1, 51, 35, 43, -1,
 43, 35, 21, -1, 43, 21, 39, -1, 39, 21, 17, -1,
 39, 17, 13, -1, 94, 90, 74, -1, 118, 74, 110, -1,
 110, 74, 70, -1, 110, 70, 66, -1, 51, 55, 47, -1,
 47, 55, 59, -1, 47, 59, 111, -1, 111, 59, 63, -1,
 111, 63, 67, -1, 90, 86, 74, -1, 74, 86, 82, -1,
 74, 82, 78, -1, 78, 82, 80, -1, 78, 80, 75, -1,
 75, 80, 83, -1, 75, 83, 87, -1, 87, 91, 75, -1,
 75, 91, 95, -1, 75, 95, 99, -1, 178, 205, 175, -1,
 175, 205, 201, -1, 175, 201, 171, -1, 171, 201, 197, -1,
 171, 197, 163, -1, 114, 106, 122, -1, 122, 106, 102, -1,
 122, 102, 74, -1, 74, 102, 98, -1, 74, 98, 94, -1,
 99, 103, 75, -1, 75, 103, 107, -1, 75, 107, 155, -1,
 155, 107, 115, -1, 155, 115, 124, -1, 197, 193, 163, -1,
 163, 193, 189, -1, 163, 189, 159, -1, 159, 189, 185, -1,
 159, 185, 151, -1, 151, 185, 181, -1, 151, 181, 147, -1,
 147, 181, 167, -1, 147, 167, 139, -1, 139, 167, 155, -1,
 139, 155, 131, -1, 131, 155, 124, -1, 158, 188, 162, -1,
 162, 188, 192, -1, 162, 192, 170, -1, 170, 192, 196, -1,
 170, 196, 174, -1, 174, 196, 200, -1, 174, 200, 178, -1,
 178, 200, 204, -1, 178, 204, 205, -1, 122, 134, 130, -1,
 130, 134, 142, -1, 130, 142, 138, -1, 138, 142, 154, -1,
 138, 154, 146, -1, 146, 154, 166, -1, 146, 166, 150, -1,
 150, 166, 180, -1, 150, 180, 158, -1, 158, 180, 184, -1,
 158, 184, 188, -1, 48, 46, 34, -1, 48, 34, 36, -1,
 36, 34, 20, -1, 36, 20, 22, -1, 22, 20, 16, -1,
 22, 16, 18, -1, 18, 16, 12, -1, 18, 12, 14, -1,
 14, 12, 8, -1, 14, 8, 10, -1, 10, 8, 4, -1,
 10, 4, 6, -1, 6, 4, 0, -1, 6, 0, 2, -1,
 2, 0, 1, -1, 2, 1, 3, -1, 3, 1, 5, -1,
 3, 5, 7, -1, 7, 5, 9, -1, 7, 9, 11, -1,
 11, 9, 13, -1, 11, 13, 15, -1, 15, 13, 17, -1,
 15, 17, 19, -1, 19, 17, 21, -1, 19, 21, 23, -1,
 23, 21, 35, -1, 23, 35, 37, -1, 37, 35, 47, -1,
 37, 47, 49, -1, 113, 49, 111, -1, 111, 49, 47, -1,
 113, 111, 119, -1, 113, 119, 121, -1, 121, 119, 125, -1,
 121, 125, 129, -1, 48, 112, 46, -1, 46, 112, 110, -1,
 56, 54, 60, -1, 60, 54, 58, -1, 60, 58, 64, -1,
 64, 58, 62, -1, 64, 62, 68, -1, 68, 62, 66, -1,
 68, 66, 72, -1, 72, 66, 70, -1, 72, 70, 76, -1,
 76, 70, 74, -1, 76, 74, 79, -1, 79, 74, 78, -1,
 79, 78, 77, -1, 77, 78, 75, -1, 77, 75, 73, -1,
 73, 75, 71, -1, 73, 71, 69, -1, 69, 71, 67, -1,
 69, 67, 65, -1, 65, 67, 63, -1, 65, 63, 61, -1,
 61, 63, 59, -1, 61, 59, 57, -1, 57, 59, 55, -1,
 127, 123, 132, -1, 132, 123, 130, -1, 132, 130, 140, -1,
 140, 130, 138, -1, 140, 138, 148, -1, 148, 138, 146, -1,
 148, 146, 152, -1, 152, 146, 150, -1, 152, 150, 160, -1,
 160, 150, 158, -1, 160, 158, 164, -1, 164, 158, 162, -1,
 164, 162, 172, -1, 172, 162, 170, -1, 172, 170, 176, -1,
 176, 170, 174, -1, 176, 174, 179, -1, 179, 174, 178, -1,
 179, 178, 177, -1, 177, 178, 175, -1, 177, 175, 173, -1,
 173, 175, 171, -1, 173, 171, 165, -1, 165, 171, 163, -1,
 165, 163, 161, -1, 161, 163, 159, -1, 161, 159, 153, -1,
 153, 159, 151, -1, 153, 151, 149, -1, 149, 151, 147, -1,
 149, 147, 141, -1, 141, 147, 139, -1, 141, 139, 133, -1,
 133, 139, 131, -1, 133, 131, 128, -1, 128, 131, 124, -1
]
normalIndex [
 42, 42, 47, -1, 47, 42, 47, -1, 47, 47, 53, -1,
 53, 47, 53, -1, 53, 53, 57, -1, 57, 53, 57, -1,
 57, 57, 63, -1, 63, 57, 63, -1, 63, 63, 69, -1,
 69, 63, 69, -1, 69, 69, 73, -1, 73, 69, 73, -1,
 73, 73, 77, -1, 77, 73, 77, -1, 77, 77, 85, -1,
 85, 77, 85, -1, 85, 85, 89, -1, 89, 85, 89, -1,
 89, 89, 86, -1, 86, 89, 86, -1, 86, 86, 78, -1,
 78, 86, 78, -1, 78, 78, 74, -1, 74, 78, 74, -1,
 74, 74, 70, -1, 70, 74, 70, -1, 70, 70, 64, -1,
 64, 70, 64, -1, 64, 64, 58, -1, 58, 64, 58, -1,
 58, 58, 54, -1, 54, 58, 54, -1, 54, 54, 48, -1,
 48, 54, 48, -1, 48, 48, 43, -1, 43, 48, 43, -1,
 42, 42, 49, -1, 49, 42, 49, -1, 49, 49, 57, -1,
 57, 49, 57, -1, 57, 57, 65, -1, 65, 57, 65, -1,
 65, 65, 73, -1, 73, 65, 73, -1, 73, 73, 81, -1,
 81, 73, 81, -1, 81, 81, 89, -1, 89, 81, 89, -1,
 89, 89, 82, -1, 82, 89, 82, -1, 82, 82, 74, -1,
 74, 82, 74, -1, 74, 74, 66, -1, 66, 74, 66, -1,
 66, 66, 58, -1, 58, 66, 58, -1, 58, 58, 50, -1,
 50, 58, 50, -1, 50, 50, 43, -1, 43, 50, 43, -1,
 43, 43, 46, -1, 43, 46, 46, -1, 46, 46, 52, -1,
 46, 52, 52, -1, 52, 52, 56, -1, 52, 56, 56, -1,
 56, 56, 60, -1, 56, 60, 60, -1, 60, 60, 62, -1,
 60, 62, 62, -1, 62, 62, 68, -1, 62, 68, 68, -1,
 68, 68, 72, -1, 68, 72, 72, -1, 72, 72, 76, -1,
 72, 76, 76, -1, 76, 76, 80, -1, 76, 80, 80, -1,
 80, 80, 84, -1, 80, 84, 84, -1, 84, 84, 88, -1,
 84, 88, 88, -1, 88, 88, 87, -1, 88, 87, 87, -1,
 87, 87, 83, -1, 87, 83, 83, -1, 83, 83, 79, -1,
 83, 79, 79, -1, 79, 79, 75, -1, 79, 75, 75, -1,
 75, 75, 71, -1, 75, 71, 71, -1, 71, 71, 67, -1,
 71, 67, 67, -1, 67, 67, 61, -1, 67, 61, 61, -1,
 61, 61, 59, -1, 61, 59, 59, -1, 59, 59, 55, -1,
 59, 55, 55, -1, 55, 55, 51, -1, 55, 51, 51, -1,
 51, 51, 45, -1, 51, 45, 45, -1, 45, 45, 42, -1,
 45, 42, 42, -1, 42, 42, 39, -1, 42, 39, 39, -1,
 39, 39, 37, -1, 39, 37, 37, -1, 44, 44, 44, -1,
 44, 44, 44, -1, 44, 44, 44, -1, 44, 44, 44, -1,
 44, 44, 44, -1, 44, 44, 44, -1, 44, 44, 44, -1,
 44, 44, 44, -1, 44, 44, 44, -1, 44, 44, 44, -1,
 44, 44, 44, -1, 44, 44, 44, -1, 44, 44, 44, -1,
 44, 44, 44, -1, 44, 44, 44, -1, 44, 44, 44, -1,
 44, 44, 44, -1, 44, 44, 44, -1, 44, 44, 44, -1,
 44, 44, 44, -1, 44, 44, 44, -1, 44, 44, 44, -1,
 44, 44, 44, -1, 44, 44, 44, -1, 44, 44, 44, -1,
 44, 44, 44, -1, 44, 44, 44, -1, 44, 44, 44, -1,
 44, 44, 44, -1, 44, 44, 44, -1, 44, 44, 44, -1,
 44, 44, 44, -1, 44, 44, 44, -1, 44, 44, 44, -1,
 44, 44, 44, -1, 44, 44, 44, -1, 44, 44, 44, -1,
 44, 44, 44, -1, 44, 44, 44, -1, 44, 44, 44, -1,
 44, 44, 44, -1, 44, 44, 44, -1, 44, 44, 44, -1,
 44, 44, 44, -1, 44, 44, 44, -1, 44, 44, 44, -1,
 44, 44, 44, -1, 44, 44, 44, -1, 44, 44, 44, -1,
 44, 44, 44, -1, 44, 44, 44, -1, 44, 44, 44, -1,
 44, 44, 44, -1, 44, 44, 44, -1, 44, 44, 44, -1,
 44, 44, 44, -1, 44, 44, 44, -1, 44, 44, 44, -1,
 44, 44, 44, -1, 44, 44, 44, -1, 44, 44, 44, -1,
 44, 44, 44, -1, 44, 44, 44, -1, 44, 44, 44, -1,
 44, 44, 44, -1, 44, 44, 44, -1, 44, 44, 44, -1,
 44, 44, 44, -1, 44, 44, 44, -1, 44, 44, 44, -1,
 44, 44, 44, -1, 44, 44, 44, -1, 44, 44, 44, -1,
 44, 44, 44, -1, 44, 44, 44, -1, 44, 44, 44, -1,
 44, 44, 44, -1, 44, 44, 44, -1, 44, 44, 44, -1,
 44, 44, 44, -1, 44, 44, 44, -1, 44, 44, 44, -1,
 44, 44, 44, -1, 44, 44, 44, -1, 44, 44, 44, -1,
 44, 44, 44, -1, 44, 44, 44, -1, 44, 44, 44, -1,
 44, 44, 44, -1, 44, 44, 44, -1, 44, 44, 44, -1,
 44, 44, 44, -1, 44, 44, 44, -1, 44, 44, 44, -1,
 44, 44, 44, -1, 44, 44, 44, -1, 44, 44, 44, -1,
 44, 44, 44, -1, 44, 44, 44, -1, 44, 44, 44, -1,
 44, 44, 44, -1, 44, 44, 44, -1, 44, 44, 44, -1,
 44, 44, 44, -1, 44, 44, 44, -1, 44, 44, 44, -1,
 41, 41, 41, -1, 41, 41, 41, -1, 41, 41, 41, -1,
 41, 41, 41, -1, 41, 41, 41, -1, 41, 41, 41, -1,
 41, 41, 41, -1, 41, 41, 41, -1, 41, 41, 41, -1,
 41, 41, 41, -1, 41, 41, 41, -1, 41, 41, 41, -1,
 41, 41, 41, -1, 41, 41, 41, -1, 41, 41, 41, -1,
 41, 41, 41, -1, 41, 41, 41, -1, 41, 41, 41, -1,
 41, 41, 41, -1, 41, 41, 41, -1, 41, 41, 41, -1,
 41, 41, 41, -1, 41, 41, 41, -1, 41, 41, 41, -1,
 41, 41, 41, -1, 41, 41, 41, -1, 41, 41, 41, -1,
 41, 41, 41, -1, 41, 41, 41, -1, 41, 41, 41, -1,
 41, 41, 41, -1, 41, 41, 41, -1, 41, 41, 41, -1,
 41, 41, 41, -1, 41, 41, 41, -1, 41, 41, 41, -1,
 41, 41, 41, -1, 41, 41, 41, -1, 41, 41, 41, -1,
 41, 41, 41, -1, 41, 41, 41, -1, 41, 41, 41, -1,
 41, 41, 41, -1, 41, 41, 41, -1, 41, 41, 41, -1,
 41, 41, 41, -1, 41, 41, 41, -1, 41, 41, 41, -1,
 41, 41, 41, -1, 41, 41, 41, -1, 41, 41, 41, -1,
 41, 41, 41, -1, 41, 41, 41, -1, 41, 41, 41, -1,
 41, 41, 41, -1, 41, 41, 41, -1, 41, 41, 41, -1,
 41, 41, 41, -1, 41, 41, 41, -1, 41, 41, 41, -1,
 41, 41, 41, -1, 41, 41, 41, -1, 41, 41, 41, -1,
 41, 41, 41, -1, 41, 41, 41, -1, 41, 41, 41, -1,
 41, 41, 41, -1, 41, 41, 41, -1, 41, 41, 41, -1,
 41, 41, 41, -1, 41, 41, 41, -1, 41, 41, 41, -1,
 41, 41, 41, -1, 41, 41, 41, -1, 41, 41, 41, -1,
 41, 41, 41, -1, 41, 41, 41, -1, 41, 41, 41, -1,
 41, 41, 41, -1, 41, 41, 41, -1, 41, 41, 41, -1,
 41, 41, 41, -1, 41, 41, 41, -1, 41, 41, 41, -1,
 41, 41, 41, -1, 41, 41, 41, -1, 41, 41, 41, -1,
 41, 41, 41, -1, 41, 41, 41, -1, 41, 41, 41, -1,
 41, 41, 41, -1, 41, 41, 41, -1, 41, 41, 41, -1,
 41, 41, 41, -1, 41, 41, 41, -1, 41, 41, 41, -1,
 41, 41, 41, -1, 41, 41, 41, -1, 41, 41, 41, -1,
 41, 41, 41, -1, 41, 41, 41, -1, 41, 41, 41, -1,
 41, 41, 41, -1, 41, 41, 41, -1, 41, 41, 41, -1,
 41, 41, 41, -1, 37, 37, 31, -1, 37, 31, 31, -1,
 31, 31, 25, -1, 31, 25, 25, -1, 25, 25, 21, -1,
 25, 21, 21, -1, 21, 21, 15, -1, 21, 15, 15, -1,
 15, 15, 11, -1, 15, 11, 11, -1, 11, 11, 7, -1,
 11, 7, 7, -1, 7, 7, 1, -1, 7, 1, 1, -1,
 1, 1, 2, -1, 1, 2, 2, -1, 2, 2, 8, -1,
 2, 8, 8, -1, 8, 8, 12, -1, 8, 12, 12, -1,
 12, 12, 16, -1, 12, 16, 16, -1, 16, 16, 22, -1,
 16, 22, 22, -1, 22, 22, 26, -1, 22, 26, 26, -1,
 26, 26, 32, -1, 26, 32, 32, -1, 32, 32, 38, -1,
 32, 38, 38, -1, 38, 38, 38, -1, 38, 38, 38, -1,
 38, 38, 40, -1, 38, 40, 40, -1, 40, 40, 43, -1,
 40, 43, 43, -1, 37, 37, 37, -1, 37, 37, 37, -1,
 43, 43, 34, -1, 34, 43, 34, -1, 34, 34, 28, -1,
 28, 34, 28, -1, 28, 28, 20, -1, 20, 28, 20, -1,
 20, 20, 14, -1, 14, 20, 14, -1, 14, 14, 6, -1,
 6, 14, 6, -1, 6, 6, 0, -1, 0, 6, 0, -1,
 0, 0, 5, -1, 5, 0, 5, -1, 5, 5, 13, -1,
 13, 5, 13, -1, 13, 13, 19, -1, 19, 13, 19, -1,
 19, 19, 27, -1, 27, 19, 27, -1, 27, 27, 33, -1,
 33, 27, 33, -1, 33, 33, 42, -1, 42, 33, 42, -1,
 43, 43, 36, -1, 36, 43, 36, -1, 36, 36, 30, -1,
 30, 36, 30, -1, 30, 30, 28, -1, 28, 30, 28, -1,
 28, 28, 24, -1, 24, 28, 24, -1, 24, 24, 18, -1,
 18, 24, 18, -1, 18, 18, 14, -1, 14, 18, 14, -1,
 14, 14, 10, -1, 10, 14, 10, -1, 10, 10, 4, -1,
 4, 10, 4, -1, 4, 4, 0, -1, 0, 4, 0, -1,
 0, 0, 3, -1, 3, 0, 3, -1, 3, 3, 9, -1,
 9, 3, 9, -1, 9, 9, 13, -1, 13, 9, 13, -1,
 13, 13, 17, -1, 17, 13, 17, -1, 17, 17, 23, -1,
 23, 17, 23, -1, 23, 23, 27, -1, 27, 23, 27, -1,
 27, 27, 29, -1, 29, 27, 29, -1, 29, 29, 35, -1,
 35, 29, 35, -1, 35, 35, 42, -1, 42, 35, 42, -1
]
colorPerVertex FALSE
normalPerVertex TRUE
}
}
]
}
