#VRML V2.0 utf8
Transform {
children [
Shape {
appearance Appearance {
material Material {
ambientIntensity 1.000000
diffuseColor 1.000000 1.000000 1.000000
emissiveColor 0.210000 0.210000 0.210000
specularColor 0.880000 0.880000 0.880000
shininess 0.210000
transparency 0.000000
}
}
geometry IndexedFaceSet {
color Color {
color [
 1.000000 1.000000 1.000000
]
}
coord Coordinate {
point [
 -0.025000 0.000000 0.001500, -0.025000 0.000000 0.030500, -0.025000 0.001500 0.001500, -0.025000 0.001500 0.005400, -0.025000 0.001500 0.010000,
 -0.025000 0.001500 0.022000, -0.025000 0.001500 0.023850, -0.025000 0.001500 0.029350, -0.025000 0.001500 0.030500, -0.025000 0.004500 0.010000,
 -0.025000 0.004500 0.010500, -0.025000 0.004500 0.021500, -0.025000 0.004500 0.022000, -0.025000 0.006500 0.010500, -0.025000 0.006500 0.021500,
 -0.024950 0.001500 0.001120, -0.024950 0.001500 0.005400, -0.024950 0.001500 0.010000, -0.024950 0.001500 0.022000, -0.024950 0.001500 0.023850,
 -0.024950 0.001500 0.029350, -0.024950 0.001500 0.030880, -0.024949 0.000000 0.001112, -0.024949 0.000000 0.030888, -0.024949 0.001500 0.001112,
 -0.024949 0.001500 0.030888, -0.024923 0.001500 0.001050, -0.024900 0.001500 0.002950, -0.024900 0.001500 0.029050, -0.024900 0.004000 0.002950,
 -0.024900 0.004000 0.029050, -0.024861 0.001500 0.029350, -0.024803 0.001500 0.002212, -0.024803 0.001500 0.003688, -0.024803 0.001500 0.028312,
 -0.024803 0.001500 0.029788, -0.024803 0.004000 0.002212, -0.024803 0.004000 0.003688, -0.024803 0.004000 0.028312, -0.024803 0.004000 0.029788,
 -0.024799 0.000000 0.000750, -0.024799 0.000000 0.031250, -0.024799 0.001500 0.000750, -0.024799 0.001500 0.031250, -0.024561 0.000000 0.000439,
 -0.024561 0.000000 0.031561, -0.024561 0.001500 0.000439, -0.024561 0.001500 0.031561, -0.024518 0.001500 0.001525, -0.024518 0.001500 0.004375,
 -0.024518 0.001500 0.027625, -0.024518 0.001500 0.030475, -0.024518 0.004000 0.001525, -0.024518 0.004000 0.004375, -0.024518 0.004000 0.027625,
 -0.024518 0.004000 0.030475, -0.024500 0.004500 0.010000, -0.024500 0.004500 0.010500, -0.024500 0.004500 0.021500, -0.024500 0.004500 0.022000,
 -0.024500 0.006500 0.010000, -0.024500 0.006500 0.010500, -0.024500 0.006500 0.021500, -0.024500 0.006500 0.022000, -0.024250 0.000000 0.000201,
 -0.024250 0.000000 0.031799, -0.024250 0.001500 0.000201, -0.024250 0.001500 0.031799, -0.024154 0.001500 0.001050, -0.024065 0.001500 0.000935,
 -0.024065 0.001500 0.004965, -0.024065 0.001500 0.027035, -0.024065 0.001500 0.031065, -0.024065 0.004000 0.000935, -0.024065 0.004000 0.004965,
 -0.024065 0.004000 0.027035, -0.024065 0.004000 0.031065, -0.023888 0.000000 0.000051, -0.023888 0.000000 0.031949, -0.023888 0.001500 0.000051,
 -0.023888 0.001500 0.031949, -0.023880 0.001500 0.031950, -0.023500 0.000000 0.000000, -0.023500 0.000000 0.032000, -0.023500 0.001500 0.000000,
 -0.023500 0.001500 0.032000, -0.023499 0.001500 0.005400, -0.023475 0.001500 0.000482, -0.023475 0.001500 0.005418, -0.023475 0.001500 0.026582,
 -0.023475 0.001500 0.031518, -0.023475 0.004000 0.000482, -0.023475 0.004000 0.005418, -0.023475 0.004000 0.026582, -0.023475 0.004000 0.031518,
 -0.023200 0.004500 0.011700, -0.023200 0.004500 0.012700, -0.023200 0.004500 0.019300, -0.023200 0.004500 0.020300, -0.023200 0.006500 0.011700,
 -0.023200 0.006500 0.012700, -0.023200 0.006500 0.019300, -0.023200 0.006500 0.020300, -0.022788 0.001500 0.000197, -0.022788 0.001500 0.005703,
 -0.022788 0.001500 0.026297, -0.022788 0.001500 0.031803, -0.022788 0.004000 0.000197, -0.022788 0.004000 0.005703, -0.022788 0.004000 0.026297,
 -0.022788 0.004000 0.031803, -0.022050 0.001500 0.000100, -0.022050 0.001500 0.005800, -0.022050 0.001500 0.026200, -0.022050 0.001500 0.031900,
 -0.022050 0.004000 0.000100, -0.022050 0.004000 0.002950, -0.022050 0.004000 0.005800, -0.022050 0.004000 0.026200, -0.022050 0.004000 0.029050,
 -0.022050 0.004000 0.031900, -0.021312 0.001500 0.000197, -0.021312 0.001500 0.005703, -0.021312 0.001500 0.026297, -0.021312 0.001500 0.031803,
 -0.021312 0.004000 0.000197, -0.021312 0.004000 0.005703, -0.021312 0.004000 0.026297, -0.021312 0.004000 0.031803, -0.020625 0.001500 0.000482,
 -0.020625 0.001500 0.005418, -0.020625 0.001500 0.026582, -0.020625 0.001500 0.031518, -0.020625 0.004000 0.000482, -0.020625 0.004000 0.005418,
 -0.020625 0.004000 0.026582, -0.020625 0.004000 0.031518, -0.020601 0.001500 0.005400, -0.020035 0.001500 0.000935, -0.020035 0.001500 0.004965,
 -0.020035 0.001500 0.027035, -0.020035 0.001500 0.031065, -0.020035 0.004000 0.000935, -0.020035 0.004000 0.004965, -0.020035 0.004000 0.027035,
 -0.020035 0.004000 0.031065, -0.019946 0.001500 0.001050, -0.019582 0.001500 0.001525, -0.019582 0.001500 0.004375, -0.019582 0.001500 0.027625,
 -0.019582 0.001500 0.030475, -0.019582 0.004000 0.001525, -0.019582 0.004000 0.004375, -0.019582 0.004000 0.027625, -0.019582 0.004000 0.030475,
 -0.019297 0.001500 0.002212, -0.019297 0.001500 0.003688, -0.019297 0.001500 0.028312, -0.019297 0.001500 0.029788, -0.019297 0.004000 0.002212,
 -0.019297 0.004000 0.003688, -0.019297 0.004000 0.028312, -0.019297 0.004000 0.029788, -0.019239 0.001500 0.029350, -0.019200 0.001500 0.002950,
 -0.019200 0.001500 0.029050, -0.019200 0.004000 0.002950, -0.019200 0.004000 0.029050, -0.018000 0.001500 0.010000, -0.018000 0.001500 0.022000,
 -0.018000 0.004500 0.011700, -0.018000 0.004500 0.012700, -0.018000 0.004500 0.019300, -0.018000 0.004500 0.020300, -0.018000 0.006500 0.010000,
 -0.018000 0.006500 0.011700, -0.018000 0.006500 0.012700, -0.018000 0.006500 0.019300, -0.018000 0.006500 0.020300, -0.018000 0.006500 0.022000,
 -0.016900 0.001500 0.000000, -0.016900 0.001500 0.001050, -0.016900 0.001500 0.005400, -0.016900 0.001500 0.023850, -0.016900 0.001500 0.029350,
 -0.016900 0.001500 0.031950, -0.016900 0.001500 0.032000, -0.014600 0.000000 0.003500, -0.014600 0.000000 0.028500, -0.014600 0.001500 0.003500,
 -0.014600 0.001500 0.028500, -0.014549 0.000000 0.003112, -0.014549 0.000000 0.003888, -0.014549 0.000000 0.028112, -0.014549 0.000000 0.028888,
 -0.014549 0.001500 0.003112, -0.014549 0.001500 0.003888, -0.014549 0.001500 0.028112, -0.014549 0.001500 0.028888, -0.014399 0.000000 0.002750,
 -0.014399 0.000000 0.004250, -0.014399 0.000000 0.027750, -0.014399 0.000000 0.029250, -0.014399 0.001500 0.002750, -0.014399 0.001500 0.004250,
 -0.014399 0.001500 0.027750, -0.014399 0.001500 0.029250, -0.014322 0.001500 0.029350, -0.014161 0.000000 0.002439, -0.014161 0.000000 0.004561,
 -0.014161 0.000000 0.027439, -0.014161 0.000000 0.029561, -0.014161 0.001500 0.002439, -0.014161 0.001500 0.004561, -0.014161 0.001500 0.027439,
 -0.014161 0.001500 0.029561, -0.013850 0.000000 0.002201, -0.013850 0.000000 0.004799, -0.013850 0.000000 0.027201, -0.013850 0.000000 0.029799,
 -0.013850 0.001500 0.002201, -0.013850 0.001500 0.004799, -0.013850 0.001500 0.027201, -0.013850 0.001500 0.029799, -0.013488 0.000000 0.002051,
 -0.013488 0.000000 0.004949, -0.013488 0.000000 0.027051, -0.013488 0.000000 0.029949, -0.013488 0.001500 0.002051, -0.013488 0.001500 0.004949,
 -0.013488 0.001500 0.027051, -0.013488 0.001500 0.029949, -0.013100 0.000000 0.002000, -0.013100 0.000000 0.005000, -0.013100 0.000000 0.027000,
 -0.013100 0.000000 0.030000, -0.013100 0.001500 0.002000, -0.013100 0.001500 0.005000, -0.013100 0.001500 0.027000, -0.013100 0.001500 0.030000,
 -0.012712 0.000000 0.002051, -0.012712 0.000000 0.004949, -0.012712 0.000000 0.027051, -0.012712 0.000000 0.029949, -0.012712 0.001500 0.002051,
 -0.012712 0.001500 0.004949, -0.012712 0.001500 0.027051, -0.012712 0.001500 0.029949, -0.012350 0.000000 0.002201, -0.012350 0.000000 0.004799,
 -0.012350 0.000000 0.027201, -0.012350 0.000000 0.029799, -0.012350 0.001500 0.002201, -0.012350 0.001500 0.004799, -0.012350 0.001500 0.027201,
 -0.012350 0.001500 0.029799, -0.012039 0.000000 0.002439, -0.012039 0.000000 0.004561, -0.012039 0.000000 0.027439, -0.012039 0.000000 0.029561,
 -0.012039 0.001500 0.002439, -0.012039 0.001500 0.004561, -0.012039 0.001500 0.027439, -0.012039 0.001500 0.029561, -0.011878 0.001500 0.029350,
 -0.011801 0.000000 0.002750, -0.011801 0.000000 0.004250, -0.011801 0.000000 0.027750, -0.011801 0.000000 0.029250, -0.011801 0.001500 0.002750,
 -0.011801 0.001500 0.004250, -0.011801 0.001500 0.027750, -0.011801 0.001500 0.029250, -0.011651 0.000000 0.003112, -0.011651 0.000000 0.003888,
 -0.011651 0.000000 0.028112, -0.011651 0.000000 0.028888, -0.011651 0.001500 0.003112, -0.011651 0.001500 0.003888, -0.011651 0.001500 0.028112,
 -0.011651 0.001500 0.028888, -0.011600 0.000000 0.003500, -0.011600 0.000000 0.028500, -0.011600 0.001500 0.003500, -0.011600 0.001500 0.028500,
 -0.010100 0.001500 0.000000, -0.010100 0.001500 0.001050, -0.010100 0.001500 0.005400, -0.010100 0.001500 0.023850, -0.010100 0.001500 0.029350,
 -0.010100 0.001500 0.031950, -0.010100 0.001500 0.032000, -0.009600 0.001500 0.000000, -0.009600 0.001500 0.001050, -0.009600 0.001500 0.005400,
 -0.009600 0.001500 0.020000, -0.009600 0.005000 0.000000, -0.009600 0.005000 0.020000, -0.008600 0.001500 0.024700, -0.008600 0.001500 0.028700,
 -0.008600 0.003000 0.024700, -0.008600 0.003000 0.028700, -0.007600 0.003000 0.027700, -0.007600 0.003000 0.028700, -0.007600 0.005000 0.027700,
 -0.007600 0.005000 0.028700, -0.006100 0.003000 0.027700, -0.006100 0.003000 0.028700, -0.006100 0.005000 0.027700, -0.006100 0.005000 0.028700,
 -0.001600 0.001500 0.024700, -0.001600 0.001500 0.028700, -0.001600 0.003000 0.024700, -0.001600 0.003000 0.028700, 0.001140 0.001500 0.020000,
 0.001140 0.001500 0.023850, 0.001140 0.001500 0.029350, 0.001140 0.001500 0.031950, 0.001140 0.001500 0.032000, 0.003881 0.001500 0.024700,
 0.003881 0.001500 0.028700, 0.003881 0.003000 0.024700, 0.003881 0.003000 0.028700, 0.008381 0.003000 0.027700, 0.008381 0.003000 0.028700,
 0.008381 0.005000 0.027700, 0.008381 0.005000 0.028700, 0.009881 0.003000 0.027700, 0.009881 0.003000 0.028700, 0.009881 0.005000 0.027700,
 0.009881 0.005000 0.028700, 0.010881 0.001500 0.024700, 0.010881 0.001500 0.028700, 0.010881 0.003000 0.024700, 0.010881 0.003000 0.028700,
 0.011640 0.001500 0.020000, 0.011640 0.001500 0.023850, 0.011640 0.001500 0.029350, 0.011640 0.001500 0.031950, 0.011640 0.001500 0.032000,
 0.012400 0.001500 0.025200, 0.012400 0.001500 0.028500, 0.012400 0.005000 0.025200, 0.012400 0.005000 0.028500, 0.014050 0.001500 0.023000,
 0.014050 0.001500 0.023850, 0.014050 0.001500 0.025200, 0.014050 0.005000 0.023000, 0.014050 0.005000 0.025200, 0.015400 0.001500 0.000000,
 0.015400 0.001500 0.001050, 0.015400 0.001500 0.005400, 0.015400 0.001500 0.020000, 0.015400 0.005000 0.000000, 0.015400 0.005000 0.020000,
 0.016200 0.001500 0.000000, 0.016200 0.001500 0.001050, 0.016200 0.001500 0.005400, 0.016200 0.001500 0.023000, 0.016200 0.001500 0.028500,
 0.016200 0.001500 0.029350, 0.016200 0.001500 0.031950, 0.016200 0.001500 0.032000, 0.018350 0.001500 0.023000, 0.018350 0.001500 0.023850,
 0.018350 0.001500 0.025200, 0.018350 0.005000 0.023000, 0.018350 0.005000 0.025200, 0.019000 0.001500 0.012000, 0.019000 0.001500 0.020000,
 0.019000 0.004500 0.013069, 0.019000 0.004500 0.014069, 0.019000 0.004500 0.017931, 0.019000 0.004500 0.018931, 0.019000 0.006500 0.012000,
 0.019000 0.006500 0.013069, 0.019000 0.006500 0.014069, 0.019000 0.006500 0.017931, 0.019000 0.006500 0.018931, 0.019000 0.006500 0.020000,
 0.020000 0.000000 0.003500, 0.020000 0.000000 0.028500, 0.020000 0.001500 0.003500, 0.020000 0.001500 0.025200, 0.020000 0.001500 0.028500,
 0.020000 0.005000 0.025200, 0.020000 0.005000 0.028500, 0.020051 0.000000 0.003112, 0.020051 0.000000 0.003888, 0.020051 0.000000 0.028112,
 0.020051 0.000000 0.028888, 0.020051 0.001500 0.003112, 0.020051 0.001500 0.003888, 0.020051 0.001500 0.028112, 0.020051 0.001500 0.028888,
 0.020201 0.000000 0.002750, 0.020201 0.000000 0.004250, 0.020201 0.000000 0.027750, 0.020201 0.000000 0.029250, 0.020201 0.001500 0.002750,
 0.020201 0.001500 0.004250, 0.020201 0.001500 0.027750, 0.020201 0.001500 0.029250, 0.020278 0.001500 0.029350, 0.020439 0.000000 0.002439,
 0.020439 0.000000 0.004561, 0.020439 0.000000 0.027439, 0.020439 0.000000 0.029561, 0.020439 0.001500 0.002439, 0.020439 0.001500 0.004561,
 0.020439 0.001500 0.027439, 0.020439 0.001500 0.029561, 0.020750 0.000000 0.002201, 0.020750 0.000000 0.004799, 0.020750 0.000000 0.027201,
 0.020750 0.000000 0.029799, 0.020750 0.001500 0.002201, 0.020750 0.001500 0.004799, 0.020750 0.001500 0.027201, 0.020750 0.001500 0.029799,
 0.021112 0.000000 0.002051, 0.021112 0.000000 0.004949, 0.021112 0.000000 0.027051, 0.021112 0.000000 0.029949, 0.021112 0.001500 0.002051,
 0.021112 0.001500 0.004949, 0.021112 0.001500 0.027051, 0.021112 0.001500 0.029949, 0.021500 0.000000 0.002000, 0.021500 0.000000 0.005000,
 0.021500 0.000000 0.027000, 0.021500 0.000000 0.030000, 0.021500 0.001500 0.002000, 0.021500 0.001500 0.005000, 0.021500 0.001500 0.027000,
 0.021500 0.001500 0.030000, 0.021888 0.000000 0.002051, 0.021888 0.000000 0.004949, 0.021888 0.000000 0.027051, 0.021888 0.000000 0.029949,
 0.021888 0.001500 0.002051, 0.021888 0.001500 0.004949, 0.021888 0.001500 0.027051, 0.021888 0.001500 0.029949, 0.022250 0.000000 0.002201,
 0.022250 0.000000 0.004799, 0.022250 0.000000 0.027201, 0.022250 0.000000 0.029799, 0.022250 0.001500 0.002201, 0.022250 0.001500 0.004799,
 0.022250 0.001500 0.027201, 0.022250 0.001500 0.029799, 0.022561 0.000000 0.002439, 0.022561 0.000000 0.004561, 0.022561 0.000000 0.027439,
 0.022561 0.000000 0.029561, 0.022561 0.001500 0.002439, 0.022561 0.001500 0.004561, 0.022561 0.001500 0.027439, 0.022561 0.001500 0.029561,
 0.022722 0.001500 0.029350, 0.022799 0.000000 0.002750, 0.022799 0.000000 0.004250, 0.022799 0.000000 0.027750, 0.022799 0.000000 0.029250,
 0.022799 0.001500 0.002750, 0.022799 0.001500 0.004250, 0.022799 0.001500 0.027750, 0.022799 0.001500 0.029250, 0.022949 0.000000 0.003112,
 0.022949 0.000000 0.003888, 0.022949 0.000000 0.028112, 0.022949 0.000000 0.028888, 0.022949 0.001500 0.003112, 0.022949 0.001500 0.003888,
 0.022949 0.001500 0.028112, 0.022949 0.001500 0.028888, 0.023000 0.000000 0.003500, 0.023000 0.000000 0.028500, 0.023000 0.001500 0.003500,
 0.023000 0.001500 0.028500, 0.023000 0.004500 0.013069, 0.023000 0.004500 0.014069, 0.023000 0.004500 0.017931, 0.023000 0.004500 0.018931,
 0.023000 0.006500 0.013069, 0.023000 0.006500 0.014069, 0.023000 0.006500 0.017931, 0.023000 0.006500 0.018931, 0.023500 0.000000 0.000000,
 0.023500 0.000000 0.032000, 0.023500 0.001500 0.000000, 0.023500 0.001500 0.032000, 0.023880 0.001500 0.031950, 0.023888 0.000000 0.000051,
 0.023888 0.000000 0.031949, 0.023888 0.001500 0.000051, 0.023888 0.001500 0.031949, 0.024250 0.000000 0.000201, 0.024250 0.000000 0.031799,
 0.024250 0.001500 0.000201, 0.024250 0.001500 0.031799, 0.024500 0.004500 0.012000, 0.024500 0.004500 0.012500, 0.024500 0.004500 0.019500,
 0.024500 0.004500 0.020000, 0.024500 0.006500 0.012000, 0.024500 0.006500 0.012500, 0.024500 0.006500 0.019500, 0.024500 0.006500 0.020000,
 0.024561 0.000000 0.000439, 0.024561 0.000000 0.031561, 0.024561 0.001500 0.000439, 0.024561 0.001500 0.031561, 0.024799 0.000000 0.000750,
 0.024799 0.000000 0.031250, 0.024799 0.001500 0.000750, 0.024799 0.001500 0.031250, 0.024923 0.001500 0.001050, 0.024949 0.000000 0.001112,
 0.024949 0.000000 0.030888, 0.024949 0.001500 0.001112, 0.024949 0.001500 0.030888, 0.025000 0.000000 0.001500, 0.025000 0.000000 0.030500,
 0.025000 0.001500 0.001500, 0.025000 0.001500 0.005400, 0.025000 0.001500 0.012000, 0.025000 0.001500 0.020000, 0.025000 0.001500 0.023850,
 0.025000 0.001500 0.029350, 0.025000 0.001500 0.030500, 0.025000 0.004500 0.012000, 0.025000 0.004500 0.012500, 0.025000 0.004500 0.019500,
 0.025000 0.004500 0.020000, 0.025000 0.006500 0.012500, 0.025000 0.006500 0.019500
]
}
normal Normal {
vector [
 -1.000000 0.000000 0.000000, -0.994351 0.000000 0.106139, -0.967368 0.000000 -0.253376, -0.967368 0.000000 0.253376, -0.965926 0.000000 -0.258819,
 -0.965926 0.000000 0.258819, -0.953479 0.000000 -0.301458, -0.866025 0.000000 -0.500000, -0.866025 0.000000 0.500000, -0.820999 0.000000 -0.570929,
 -0.742122 0.000000 -0.670265, -0.707107 0.000000 -0.707107, -0.707107 0.000000 0.707107, -0.508978 0.000000 0.860779, -0.500000 0.000000 -0.866025,
 -0.500000 0.000000 0.866025, -0.258819 0.000000 -0.965926, -0.258819 0.000000 0.965926, -0.253376 0.000000 0.967368, 0.000000 -1.000000 0.000000,
 0.000000 0.000000 -1.000000, 0.000000 0.000000 1.000000, 0.000000 1.000000 0.000000, 0.253376 0.000000 0.967368, 0.258819 0.000000 -0.965926,
 0.258819 0.000000 0.965926, 0.500000 0.000000 -0.866025, 0.500000 0.000000 0.866025, 0.508978 0.000000 0.860779, 0.707107 0.000000 -0.707107,
 0.707107 0.000000 0.707107, 0.742122 0.000000 -0.670265, 0.820999 0.000000 -0.570929, 0.866025 0.000000 -0.500000, 0.866025 0.000000 0.500000,
 0.953479 0.000000 -0.301458, 0.965926 0.000000 -0.258819, 0.965926 0.000000 0.258819, 0.994351 0.000000 0.106139, 1.000000 0.000000 0.000000
]
}
coordIndex [
 8, 21, 20, -1, 492, 493, 361, -1, 491, 355, 356, -1,
 411, 403, 360, -1, 383, 384, 393, -1, 480, 476, 530, -1,
 393, 401, 383, -1, 383, 401, 410, -1, 383, 410, 418, -1,
 418, 426, 383, -1, 383, 426, 434, -1, 383, 434, 529, -1,
 529, 434, 442, -1, 529, 442, 450, -1, 450, 458, 529, -1,
 529, 458, 467, -1, 529, 467, 530, -1, 530, 467, 475, -1,
 530, 475, 480, -1, 365, 383, 364, -1, 364, 383, 529, -1,
 364, 529, 363, -1, 363, 529, 528, -1, 363, 528, 358, -1,
 358, 528, 369, -1, 527, 526, 368, -1, 368, 526, 357, -1,
 368, 357, 369, -1, 369, 357, 358, -1, 358, 357, 352, -1,
 358, 352, 344, -1, 344, 352, 335, -1, 344, 335, 345, -1,
 346, 345, 340, -1, 340, 345, 336, -1, 340, 336, 341, -1,
 341, 336, 337, -1, 384, 359, 394, -1, 394, 359, 360, -1,
 394, 360, 402, -1, 402, 360, 403, -1, 451, 443, 493, -1,
 493, 443, 435, -1, 493, 435, 361, -1, 361, 435, 427, -1,
 361, 427, 419, -1, 501, 513, 459, -1, 459, 513, 517, -1,
 451, 493, 459, -1, 459, 493, 497, -1, 459, 497, 501, -1,
 476, 468, 530, -1, 530, 468, 460, -1, 530, 460, 531, -1,
 531, 460, 459, -1, 531, 459, 522, -1, 522, 459, 517, -1,
 214, 222, 183, -1, 207, 206, 184, -1, 184, 206, 198, -1,
 198, 190, 184, -1, 184, 190, 197, -1, 184, 197, 183, -1,
 183, 197, 205, -1, 183, 205, 214, -1, 230, 238, 288, -1,
 288, 238, 246, -1, 288, 246, 254, -1, 254, 262, 288, -1,
 288, 262, 271, -1, 288, 271, 289, -1, 289, 271, 279, -1,
 289, 279, 284, -1, 284, 280, 289, -1, 289, 280, 272, -1,
 289, 272, 264, -1, 290, 263, 255, -1, 207, 184, 215, -1,
 215, 184, 185, -1, 215, 185, 223, -1, 255, 247, 290, -1,
 290, 247, 239, -1, 290, 239, 185, -1, 185, 239, 231, -1,
 185, 231, 223, -1, 129, 138, 180, -1, 42, 68, 69, -1,
 84, 79, 87, -1, 87, 79, 66, -1, 87, 66, 69, -1,
 69, 66, 46, -1, 69, 46, 42, -1, 87, 103, 84, -1,
 84, 103, 111, -1, 84, 111, 180, -1, 180, 111, 121, -1,
 180, 121, 129, -1, 49, 16, 70, -1, 70, 16, 86, -1,
 49, 33, 16, -1, 16, 33, 27, -1, 16, 27, 15, -1,
 27, 32, 15, -1, 15, 32, 48, -1, 15, 48, 24, -1,
 24, 48, 68, -1, 24, 68, 26, -1, 26, 68, 42, -1,
 18, 19, 169, -1, 169, 19, 183, -1, 169, 183, 168, -1,
 168, 183, 182, -1, 86, 16, 88, -1, 88, 16, 17, -1,
 88, 17, 104, -1, 168, 122, 17, -1, 17, 122, 112, -1,
 17, 112, 104, -1, 181, 146, 147, -1, 148, 139, 182, -1,
 182, 139, 137, -1, 182, 137, 168, -1, 168, 137, 130, -1,
 168, 130, 122, -1, 147, 155, 181, -1, 181, 155, 164, -1,
 181, 164, 182, -1, 182, 164, 156, -1, 182, 156, 148, -1,
 34, 19, 28, -1, 28, 19, 20, -1, 28, 20, 31, -1,
 34, 50, 19, -1, 19, 50, 71, -1, 19, 71, 89, -1,
 131, 140, 183, -1, 183, 140, 149, -1, 183, 149, 184, -1,
 184, 149, 157, -1, 184, 157, 165, -1, 89, 105, 19, -1,
 19, 105, 113, -1, 19, 113, 183, -1, 183, 113, 123, -1,
 183, 123, 131, -1, 43, 47, 72, -1, 31, 20, 35, -1,
 35, 20, 21, -1, 35, 21, 51, -1, 165, 163, 184, -1,
 184, 163, 158, -1, 184, 158, 185, -1, 185, 158, 150, -1,
 185, 150, 141, -1, 141, 132, 185, -1, 185, 132, 124, -1,
 185, 124, 114, -1, 47, 67, 72, -1, 72, 67, 80, -1,
 72, 80, 90, -1, 90, 80, 81, -1, 90, 81, 106, -1,
 51, 21, 72, -1, 72, 21, 25, -1, 72, 25, 43, -1,
 4, 17, 3, -1, 3, 17, 16, -1, 3, 16, 2, -1,
 2, 16, 15, -1, 293, 292, 285, -1, 294, 287, 295, -1,
 295, 287, 288, -1, 345, 335, 336, -1, 336, 335, 314, -1,
 336, 314, 315, -1, 355, 349, 356, -1, 356, 349, 350, -1,
 356, 350, 357, -1, 357, 350, 351, -1, 357, 351, 352, -1,
 500, 496, 491, -1, 500, 491, 512, -1, 425, 357, 433, -1,
 433, 357, 526, -1, 433, 526, 441, -1, 441, 526, 449, -1,
 432, 440, 518, -1, 425, 417, 357, -1, 357, 417, 409, -1,
 357, 409, 400, -1, 474, 466, 526, -1, 526, 466, 457, -1,
 526, 457, 449, -1, 400, 392, 357, -1, 357, 392, 382, -1,
 357, 382, 356, -1, 356, 382, 391, -1, 356, 391, 399, -1,
 399, 408, 356, -1, 356, 408, 416, -1, 356, 416, 424, -1,
 424, 432, 356, -1, 356, 432, 518, -1, 356, 518, 491, -1,
 491, 518, 516, -1, 491, 516, 512, -1, 440, 448, 518, -1,
 518, 448, 456, -1, 518, 456, 521, -1, 521, 456, 465, -1,
 521, 465, 525, -1, 525, 465, 473, -1, 525, 473, 526, -1,
 526, 473, 479, -1, 526, 479, 474, -1, 85, 185, 81, -1,
 81, 185, 114, -1, 81, 114, 106, -1, 18, 5, 19, -1,
 19, 5, 6, -1, 19, 6, 20, -1, 20, 6, 7, -1,
 20, 7, 8, -1, 293, 285, 286, -1, 286, 285, 180, -1,
 286, 180, 181, -1, 181, 180, 138, -1, 181, 138, 146, -1,
 237, 229, 182, -1, 277, 287, 286, -1, 286, 287, 294, -1,
 286, 294, 293, -1, 229, 221, 182, -1, 182, 221, 213, -1,
 182, 213, 204, -1, 220, 181, 212, -1, 212, 181, 203, -1,
 277, 283, 287, -1, 287, 283, 278, -1, 287, 278, 270, -1,
 204, 196, 182, -1, 182, 196, 189, -1, 182, 189, 181, -1,
 181, 189, 195, -1, 181, 195, 203, -1, 270, 261, 287, -1,
 287, 261, 253, -1, 287, 253, 245, -1, 252, 260, 286, -1,
 286, 260, 269, -1, 286, 269, 277, -1, 220, 228, 181, -1,
 181, 228, 236, -1, 181, 236, 286, -1, 286, 236, 244, -1,
 286, 244, 252, -1, 222, 230, 183, -1, 183, 230, 288, -1,
 183, 288, 182, -1, 182, 288, 287, -1, 182, 287, 237, -1,
 237, 287, 245, -1, 288, 298, 310, -1, 298, 288, 299, -1,
 299, 288, 289, -1, 299, 289, 311, -1, 311, 289, 316, -1,
 311, 316, 310, -1, 310, 316, 315, -1, 310, 315, 288, -1,
 288, 315, 314, -1, 288, 314, 295, -1, 338, 316, 317, -1,
 317, 316, 289, -1, 317, 289, 290, -1, 290, 289, 264, -1,
 290, 264, 263, -1, 337, 332, 320, -1, 362, 338, 339, -1,
 339, 338, 317, -1, 339, 317, 318, -1, 318, 317, 290, -1,
 318, 290, 291, -1, 291, 290, 185, -1, 291, 185, 186, -1,
 186, 185, 85, -1, 419, 411, 361, -1, 361, 411, 360, -1,
 361, 360, 337, -1, 337, 360, 359, -1, 337, 359, 341, -1,
 332, 337, 331, -1, 331, 337, 336, -1, 331, 336, 319, -1,
 319, 336, 315, -1, 319, 315, 320, -1, 320, 315, 316, -1,
 320, 316, 337, -1, 337, 316, 338, -1, 337, 338, 361, -1,
 361, 338, 362, -1, 361, 362, 492, -1, 328, 334, 327, -1,
 327, 334, 333, -1, 327, 333, 323, -1, 323, 333, 321, -1,
 323, 321, 324, -1, 324, 321, 322, -1, 82, 84, 180, -1,
 180, 285, 82, -1, 82, 285, 292, -1, 82, 292, 489, -1,
 296, 353, 292, -1, 292, 353, 349, -1, 292, 349, 489, -1,
 489, 349, 355, -1, 489, 355, 491, -1, 14, 13, 11, -1,
 11, 13, 10, -1, 9, 4, 10, -1, 10, 4, 5, -1,
 10, 5, 11, -1, 11, 5, 12, -1, 8, 7, 1, -1,
 1, 7, 6, -1, 6, 5, 1, -1, 1, 5, 4, -1,
 1, 4, 0, -1, 0, 4, 3, -1, 0, 3, 2, -1,
 186, 85, 83, -1, 490, 492, 362, -1, 362, 339, 490, -1,
 490, 339, 318, -1, 490, 318, 83, -1, 83, 318, 291, -1,
 83, 291, 186, -1, 530, 531, 524, -1, 535, 528, 534, -1,
 534, 528, 533, -1, 534, 533, 537, -1, 537, 533, 536, -1,
 525, 526, 523, -1, 523, 526, 527, -1, 523, 527, 524, -1,
 532, 533, 527, -1, 527, 533, 528, -1, 527, 528, 524, -1,
 524, 528, 529, -1, 524, 529, 530, -1, 211, 219, 83, -1,
 412, 82, 420, -1, 420, 82, 489, -1, 420, 489, 428, -1,
 446, 438, 523, -1, 412, 404, 82, -1, 82, 404, 395, -1,
 82, 395, 387, -1, 251, 259, 490, -1, 446, 523, 454, -1,
 498, 510, 452, -1, 422, 380, 430, -1, 430, 380, 388, -1,
 387, 232, 82, -1, 82, 232, 224, -1, 82, 224, 216, -1,
 23, 1, 188, -1, 259, 268, 490, -1, 490, 268, 276, -1,
 490, 276, 282, -1, 281, 273, 414, -1, 422, 414, 380, -1,
 380, 414, 248, -1, 380, 248, 387, -1, 387, 248, 240, -1,
 387, 240, 232, -1, 234, 226, 225, -1, 225, 226, 218, -1,
 225, 218, 217, -1, 218, 210, 0, -1, 0, 210, 201, -1,
 0, 201, 1, -1, 1, 201, 193, -1, 1, 193, 188, -1,
 524, 282, 275, -1, 397, 389, 257, -1, 250, 381, 390, -1,
 390, 398, 250, -1, 250, 398, 407, -1, 250, 407, 415, -1,
 498, 452, 494, -1, 494, 452, 444, -1, 494, 444, 489, -1,
 489, 444, 436, -1, 489, 436, 428, -1, 219, 227, 83, -1,
 83, 227, 235, -1, 83, 235, 490, -1, 490, 235, 243, -1,
 490, 243, 251, -1, 273, 265, 414, -1, 414, 265, 256, -1,
 414, 256, 248, -1, 381, 250, 389, -1, 389, 250, 242, -1,
 389, 242, 234, -1, 388, 396, 430, -1, 430, 396, 405, -1,
 430, 405, 413, -1, 477, 469, 523, -1, 523, 469, 461, -1,
 523, 461, 519, -1, 519, 461, 452, -1, 519, 452, 514, -1,
 514, 452, 510, -1, 187, 192, 0, -1, 0, 192, 200, -1,
 0, 200, 218, -1, 218, 200, 209, -1, 218, 209, 217, -1,
 78, 194, 83, -1, 83, 194, 202, -1, 83, 202, 211, -1,
 78, 65, 194, -1, 194, 65, 45, -1, 194, 45, 188, -1,
 188, 45, 41, -1, 188, 41, 23, -1, 282, 524, 490, -1,
 490, 524, 520, -1, 490, 520, 515, -1, 275, 267, 524, -1,
 524, 267, 258, -1, 524, 258, 250, -1, 415, 423, 250, -1,
 250, 423, 431, -1, 250, 431, 524, -1, 524, 431, 439, -1,
 524, 439, 447, -1, 447, 455, 524, -1, 524, 455, 464, -1,
 524, 464, 472, -1, 413, 421, 430, -1, 430, 421, 429, -1,
 430, 429, 438, -1, 438, 429, 437, -1, 438, 437, 445, -1,
 445, 453, 438, -1, 438, 453, 462, -1, 438, 462, 523, -1,
 523, 462, 470, -1, 523, 470, 477, -1, 216, 208, 82, -1,
 82, 208, 199, -1, 82, 199, 77, -1, 77, 199, 191, -1,
 77, 191, 64, -1, 0, 22, 187, -1, 187, 22, 40, -1,
 187, 40, 191, -1, 191, 40, 44, -1, 191, 44, 64, -1,
 511, 499, 515, -1, 515, 499, 495, -1, 515, 495, 490, -1,
 472, 478, 524, -1, 524, 478, 471, -1, 524, 471, 523, -1,
 523, 471, 463, -1, 523, 463, 454, -1, 225, 233, 234, -1,
 234, 233, 241, -1, 234, 241, 389, -1, 389, 241, 249, -1,
 389, 249, 257, -1, 397, 257, 406, -1, 406, 257, 266, -1,
 406, 266, 414, -1, 414, 266, 274, -1, 414, 274, 281, -1,
 523, 519, 525, -1, 525, 519, 521, -1, 521, 519, 518, -1,
 518, 519, 514, -1, 518, 514, 516, -1, 516, 514, 510, -1,
 516, 510, 512, -1, 512, 510, 498, -1, 512, 498, 500, -1,
 500, 498, 494, -1, 500, 494, 496, -1, 496, 494, 489, -1,
 496, 489, 491, -1, 492, 490, 493, -1, 493, 490, 495, -1,
 493, 495, 497, -1, 497, 495, 499, -1, 497, 499, 501, -1,
 501, 499, 511, -1, 501, 511, 513, -1, 513, 511, 515, -1,
 513, 515, 517, -1, 517, 515, 520, -1, 517, 520, 522, -1,
 522, 520, 524, -1, 522, 524, 531, -1, 8, 1, 21, -1,
 21, 1, 23, -1, 21, 23, 25, -1, 25, 23, 41, -1,
 25, 41, 43, -1, 43, 41, 45, -1, 43, 45, 47, -1,
 47, 45, 65, -1, 47, 65, 67, -1, 67, 65, 78, -1,
 67, 78, 80, -1, 80, 78, 81, -1, 81, 78, 83, -1,
 81, 83, 85, -1, 84, 82, 77, -1, 84, 77, 79, -1,
 79, 77, 64, -1, 79, 64, 66, -1, 66, 64, 44, -1,
 66, 44, 46, -1, 46, 44, 40, -1, 46, 40, 42, -1,
 42, 40, 26, -1, 26, 40, 22, -1, 26, 22, 24, -1,
 24, 22, 15, -1, 15, 22, 0, -1, 15, 0, 2, -1,
 52, 32, 36, -1, 36, 32, 27, -1, 36, 27, 29, -1,
 29, 27, 33, -1, 29, 33, 37, -1, 37, 33, 49, -1,
 37, 49, 53, -1, 53, 49, 70, -1, 53, 70, 74, -1,
 74, 70, 86, -1, 74, 86, 92, -1, 86, 88, 92, -1,
 92, 88, 104, -1, 92, 104, 108, -1, 108, 104, 112, -1,
 108, 112, 117, -1, 117, 112, 122, -1, 117, 122, 126, -1,
 126, 122, 130, -1, 126, 130, 134, -1, 134, 130, 137, -1,
 134, 137, 143, -1, 137, 139, 143, -1, 143, 139, 148, -1,
 143, 148, 152, -1, 152, 148, 156, -1, 152, 156, 160, -1,
 160, 156, 164, -1, 160, 164, 166, -1, 166, 164, 155, -1,
 166, 155, 159, -1, 159, 155, 147, -1, 159, 147, 151, -1,
 151, 147, 146, -1, 151, 146, 142, -1, 146, 138, 142, -1,
 142, 138, 129, -1, 142, 129, 133, -1, 133, 129, 121, -1,
 133, 121, 125, -1, 125, 121, 111, -1, 125, 111, 115, -1,
 115, 111, 103, -1, 115, 103, 107, -1, 107, 103, 87, -1,
 107, 87, 91, -1, 91, 87, 69, -1, 91, 69, 73, -1,
 73, 69, 68, -1, 73, 68, 52, -1, 52, 68, 48, -1,
 52, 48, 32, -1, 92, 108, 116, -1, 116, 108, 117, -1,
 116, 117, 126, -1, 37, 53, 116, -1, 116, 53, 74, -1,
 116, 74, 92, -1, 52, 36, 116, -1, 116, 36, 29, -1,
 116, 29, 37, -1, 107, 91, 116, -1, 116, 91, 73, -1,
 116, 73, 52, -1, 133, 125, 116, -1, 116, 125, 115, -1,
 116, 115, 107, -1, 159, 151, 116, -1, 116, 151, 142, -1,
 116, 142, 133, -1, 152, 160, 116, -1, 116, 160, 166, -1,
 116, 166, 159, -1, 126, 134, 116, -1, 116, 134, 143, -1,
 116, 143, 152, -1, 39, 51, 55, -1, 55, 51, 72, -1,
 55, 72, 76, -1, 76, 72, 90, -1, 76, 90, 94, -1,
 94, 90, 106, -1, 94, 106, 110, -1, 110, 106, 114, -1,
 110, 114, 120, -1, 120, 114, 124, -1, 120, 124, 128, -1,
 128, 124, 132, -1, 128, 132, 136, -1, 136, 132, 141, -1,
 136, 141, 145, -1, 145, 141, 150, -1, 145, 150, 154, -1,
 154, 150, 158, -1, 154, 158, 162, -1, 162, 158, 163, -1,
 162, 163, 167, -1, 163, 165, 167, -1, 167, 165, 157, -1,
 167, 157, 161, -1, 161, 157, 149, -1, 161, 149, 153, -1,
 153, 149, 140, -1, 153, 140, 144, -1, 144, 140, 131, -1,
 144, 131, 135, -1, 135, 131, 123, -1, 135, 123, 127, -1,
 127, 123, 113, -1, 127, 113, 118, -1, 118, 113, 105, -1,
 118, 105, 109, -1, 109, 105, 89, -1, 109, 89, 93, -1,
 93, 89, 71, -1, 93, 71, 75, -1, 75, 71, 50, -1,
 75, 50, 54, -1, 54, 50, 34, -1, 54, 34, 38, -1,
 38, 34, 28, -1, 38, 28, 30, -1, 30, 28, 31, -1,
 30, 31, 39, -1, 39, 31, 35, -1, 39, 35, 51, -1,
 135, 127, 119, -1, 119, 127, 118, -1, 119, 118, 109, -1,
 161, 153, 119, -1, 119, 153, 144, -1, 119, 144, 135, -1,
 154, 162, 119, -1, 119, 162, 167, -1, 119, 167, 161, -1,
 128, 136, 119, -1, 119, 136, 145, -1, 119, 145, 154, -1,
 94, 110, 119, -1, 119, 110, 120, -1, 119, 120, 128, -1,
 39, 55, 119, -1, 119, 55, 76, -1, 119, 76, 94, -1,
 54, 38, 119, -1, 119, 38, 30, -1, 119, 30, 39, -1,
 109, 93, 119, -1, 119, 93, 75, -1, 119, 75, 54, -1,
 295, 297, 294, -1, 294, 297, 296, -1, 294, 296, 293, -1,
 293, 296, 292, -1, 297, 295, 314, -1, 297, 314, 354, -1,
 354, 314, 335, -1, 354, 335, 352, -1, 353, 354, 352, -1,
 352, 351, 353, -1, 353, 351, 350, -1, 353, 350, 349, -1,
 354, 353, 297, -1, 297, 353, 296, -1, 372, 368, 373, -1,
 373, 368, 369, -1, 373, 369, 378, -1, 378, 369, 379, -1,
 375, 374, 370, -1, 370, 374, 368, -1, 370, 368, 371, -1,
 371, 368, 372, -1, 371, 372, 376, -1, 376, 372, 377, -1,
 509, 379, 505, -1, 505, 379, 369, -1, 505, 369, 535, -1,
 535, 369, 528, -1, 532, 527, 502, -1, 502, 527, 368, -1,
 502, 368, 506, -1, 506, 368, 374, -1, 486, 376, 377, -1,
 487, 536, 507, -1, 374, 375, 506, -1, 506, 375, 485, -1,
 506, 485, 507, -1, 507, 485, 486, -1, 507, 486, 487, -1,
 487, 486, 377, -1, 537, 536, 508, -1, 508, 536, 487, -1,
 508, 487, 509, -1, 509, 487, 488, -1, 509, 488, 379, -1,
 379, 488, 378, -1, 179, 63, 169, -1, 169, 63, 59, -1,
 169, 59, 18, -1, 18, 59, 12, -1, 18, 12, 5, -1,
 178, 179, 173, -1, 173, 179, 169, -1, 173, 169, 172, -1,
 174, 175, 168, -1, 168, 175, 170, -1, 168, 170, 171, -1,
 176, 177, 171, -1, 171, 177, 172, -1, 171, 172, 168, -1,
 168, 172, 169, -1, 60, 174, 56, -1, 56, 174, 168, -1,
 56, 168, 9, -1, 9, 168, 17, -1, 9, 17, 4, -1,
 179, 178, 102, -1, 177, 176, 101, -1, 101, 176, 100, -1,
 179, 102, 63, -1, 174, 60, 61, -1, 175, 174, 99, -1,
 99, 174, 61, -1, 99, 61, 100, -1, 100, 61, 13, -1,
 100, 13, 101, -1, 101, 13, 14, -1, 101, 14, 102, -1,
 102, 14, 62, -1, 102, 62, 63, -1, 233, 237, 241, -1,
 241, 237, 245, -1, 241, 245, 249, -1, 249, 245, 253, -1,
 249, 253, 257, -1, 257, 253, 261, -1, 257, 261, 266, -1,
 266, 261, 270, -1, 266, 270, 274, -1, 274, 270, 278, -1,
 274, 278, 281, -1, 281, 278, 283, -1, 281, 283, 273, -1,
 273, 283, 277, -1, 273, 277, 265, -1, 265, 277, 269, -1,
 265, 269, 256, -1, 256, 269, 260, -1, 256, 260, 248, -1,
 248, 260, 252, -1, 248, 252, 240, -1, 240, 252, 244, -1,
 240, 244, 232, -1, 232, 244, 236, -1, 232, 236, 224, -1,
 224, 236, 228, -1, 224, 228, 216, -1, 216, 228, 220, -1,
 216, 220, 208, -1, 208, 220, 212, -1, 208, 212, 199, -1,
 199, 212, 203, -1, 199, 203, 191, -1, 191, 203, 195, -1,
 191, 195, 187, -1, 187, 195, 189, -1, 187, 189, 192, -1,
 192, 189, 196, -1, 192, 196, 200, -1, 200, 196, 204, -1,
 200, 204, 209, -1, 209, 204, 213, -1, 209, 213, 217, -1,
 217, 213, 221, -1, 217, 221, 225, -1, 225, 221, 229, -1,
 225, 229, 233, -1, 233, 229, 237, -1, 429, 433, 437, -1,
 437, 433, 441, -1, 437, 441, 445, -1, 445, 441, 449, -1,
 445, 449, 453, -1, 453, 449, 457, -1, 453, 457, 462, -1,
 462, 457, 466, -1, 462, 466, 470, -1, 470, 466, 474, -1,
 470, 474, 477, -1, 477, 474, 479, -1, 477, 479, 469, -1,
 469, 479, 473, -1, 469, 473, 461, -1, 461, 473, 465, -1,
 461, 465, 452, -1, 452, 465, 456, -1, 452, 456, 444, -1,
 444, 456, 448, -1, 444, 448, 436, -1, 436, 448, 440, -1,
 436, 440, 428, -1, 428, 440, 432, -1, 428, 432, 420, -1,
 420, 432, 424, -1, 420, 424, 412, -1, 412, 424, 416, -1,
 412, 416, 404, -1, 404, 416, 408, -1, 404, 408, 395, -1,
 395, 408, 399, -1, 395, 399, 387, -1, 387, 399, 391, -1,
 387, 391, 380, -1, 380, 391, 382, -1, 380, 382, 388, -1,
 388, 382, 392, -1, 388, 392, 396, -1, 396, 392, 400, -1,
 396, 400, 405, -1, 405, 400, 409, -1, 405, 409, 413, -1,
 413, 409, 417, -1, 413, 417, 421, -1, 421, 417, 425, -1,
 421, 425, 429, -1, 429, 425, 433, -1, 455, 460, 464, -1,
 464, 460, 468, -1, 464, 468, 472, -1, 472, 468, 476, -1,
 472, 476, 478, -1, 478, 476, 480, -1, 478, 480, 471, -1,
 471, 480, 475, -1, 471, 475, 463, -1, 463, 475, 467, -1,
 463, 467, 454, -1, 454, 467, 458, -1, 454, 458, 446, -1,
 446, 458, 450, -1, 446, 450, 438, -1, 438, 450, 442, -1,
 438, 442, 430, -1, 430, 442, 434, -1, 430, 434, 422, -1,
 422, 434, 426, -1, 422, 426, 414, -1, 414, 426, 418, -1,
 414, 418, 406, -1, 406, 418, 410, -1, 406, 410, 397, -1,
 397, 410, 401, -1, 397, 401, 389, -1, 389, 401, 393, -1,
 389, 393, 381, -1, 381, 393, 384, -1, 381, 384, 390, -1,
 390, 384, 394, -1, 390, 394, 398, -1, 394, 402, 398, -1,
 398, 402, 403, -1, 398, 403, 407, -1, 407, 403, 411, -1,
 407, 411, 415, -1, 415, 411, 419, -1, 415, 419, 423, -1,
 423, 419, 427, -1, 423, 427, 431, -1, 431, 427, 435, -1,
 431, 435, 439, -1, 439, 435, 443, -1, 439, 443, 447, -1,
 447, 443, 451, -1, 447, 451, 455, -1, 455, 451, 459, -1,
 455, 459, 460, -1, 259, 264, 268, -1, 268, 264, 272, -1,
 268, 272, 276, -1, 276, 272, 280, -1, 276, 280, 282, -1,
 282, 280, 284, -1, 282, 284, 275, -1, 275, 284, 279, -1,
 275, 279, 267, -1, 267, 279, 271, -1, 267, 271, 258, -1,
 258, 271, 262, -1, 258, 262, 250, -1, 250, 262, 254, -1,
 250, 254, 242, -1, 242, 254, 246, -1, 242, 246, 234, -1,
 234, 246, 238, -1, 234, 238, 226, -1, 226, 238, 230, -1,
 226, 230, 218, -1, 218, 230, 222, -1, 218, 222, 210, -1,
 210, 222, 214, -1, 210, 214, 201, -1, 201, 214, 205, -1,
 201, 205, 193, -1, 193, 205, 197, -1, 193, 197, 188, -1,
 188, 197, 190, -1, 188, 190, 194, -1, 194, 190, 198, -1,
 194, 198, 202, -1, 198, 206, 202, -1, 202, 206, 207, -1,
 202, 207, 211, -1, 211, 207, 215, -1, 211, 215, 219, -1,
 219, 215, 223, -1, 219, 223, 227, -1, 227, 223, 231, -1,
 227, 231, 235, -1, 235, 231, 239, -1, 235, 239, 243, -1,
 243, 239, 247, -1, 243, 247, 251, -1, 251, 247, 255, -1,
 251, 255, 259, -1, 259, 255, 263, -1, 259, 263, 264, -1,
 301, 300, 299, -1, 299, 300, 298, -1, 311, 313, 299, -1,
 299, 313, 307, -1, 301, 299, 303, -1, 303, 299, 307, -1,
 303, 307, 305, -1, 305, 307, 309, -1, 312, 313, 310, -1,
 310, 313, 311, -1, 300, 312, 298, -1, 298, 312, 310, -1,
 307, 313, 306, -1, 306, 313, 312, -1, 306, 312, 302, -1,
 302, 312, 300, -1, 302, 300, 303, -1, 303, 300, 301, -1,
 322, 321, 320, -1, 320, 321, 319, -1, 320, 332, 328, -1,
 328, 332, 334, -1, 322, 320, 324, -1, 324, 320, 328, -1,
 324, 328, 326, -1, 326, 328, 330, -1, 333, 334, 331, -1,
 331, 334, 332, -1, 321, 333, 319, -1, 319, 333, 331, -1,
 308, 309, 306, -1, 306, 309, 307, -1, 304, 308, 302, -1,
 302, 308, 306, -1, 305, 304, 303, -1, 303, 304, 302, -1,
 304, 305, 308, -1, 308, 305, 309, -1, 326, 325, 324, -1,
 324, 325, 323, -1, 329, 330, 327, -1, 327, 330, 328, -1,
 325, 329, 323, -1, 323, 329, 327, -1, 330, 329, 326, -1,
 326, 329, 325, -1, 171, 96, 176, -1, 176, 96, 100, -1,
 96, 95, 100, -1, 100, 95, 99, -1, 95, 170, 99, -1,
 99, 170, 175, -1, 170, 95, 171, -1, 171, 95, 96, -1,
 11, 58, 14, -1, 14, 58, 62, -1, 58, 59, 62, -1,
 62, 59, 63, -1, 59, 58, 12, -1, 12, 58, 11, -1,
 98, 97, 102, -1, 102, 97, 101, -1, 97, 172, 101, -1,
 101, 172, 177, -1, 173, 98, 178, -1, 178, 98, 102, -1,
 173, 172, 98, -1, 98, 172, 97, -1, 56, 57, 60, -1,
 60, 57, 61, -1, 57, 10, 61, -1, 61, 10, 13, -1,
 10, 57, 9, -1, 9, 57, 56, -1, 370, 481, 375, -1,
 375, 481, 485, -1, 481, 482, 485, -1, 485, 482, 486, -1,
 482, 371, 486, -1, 486, 371, 376, -1, 371, 482, 370, -1,
 370, 482, 481, -1, 504, 534, 508, -1, 508, 534, 537, -1,
 505, 504, 509, -1, 509, 504, 508, -1, 505, 535, 504, -1,
 504, 535, 534, -1, 372, 483, 377, -1, 377, 483, 487, -1,
 483, 484, 487, -1, 487, 484, 488, -1, 484, 373, 488, -1,
 488, 373, 378, -1, 484, 483, 373, -1, 373, 483, 372, -1,
 533, 503, 536, -1, 536, 503, 507, -1, 503, 502, 507, -1,
 507, 502, 506, -1, 502, 503, 532, -1, 532, 503, 533, -1,
 385, 386, 383, -1, 383, 386, 384, -1, 367, 385, 365, -1,
 365, 385, 383, -1, 363, 366, 364, -1, 364, 366, 367, -1,
 364, 367, 365, -1, 366, 363, 347, -1, 347, 363, 358, -1,
 347, 358, 344, -1, 346, 348, 345, -1, 345, 348, 347, -1,
 345, 347, 344, -1, 342, 348, 340, -1, 340, 348, 346, -1,
 343, 342, 341, -1, 341, 342, 340, -1, 384, 386, 359, -1,
 359, 386, 343, -1, 359, 343, 341, -1, 386, 385, 343, -1,
 343, 385, 367, -1, 342, 343, 348, -1, 348, 343, 367, -1,
 348, 367, 347, -1, 347, 367, 366, -1
]
normalIndex [
 22, 22, 22, -1, 22, 22, 22, -1, 22, 22, 22, -1,
 22, 22, 22, -1, 22, 22, 22, -1, 22, 22, 22, -1,
 22, 22, 22, -1, 22, 22, 22, -1, 22, 22, 22, -1,
 22, 22, 22, -1, 22, 22, 22, -1, 22, 22, 22, -1,
 22, 22, 22, -1, 22, 22, 22, -1, 22, 22, 22, -1,
 22, 22, 22, -1, 22, 22, 22, -1, 22, 22, 22, -1,
 22, 22, 22, -1, 22, 22, 22, -1, 22, 22, 22, -1,
 22, 22, 22, -1, 22, 22, 22, -1, 22, 22, 22, -1,
 22, 22, 22, -1, 22, 22, 22, -1, 22, 22, 22, -1,
 22, 22, 22, -1, 22, 22, 22, -1, 22, 22, 22, -1,
 22, 22, 22, -1, 22, 22, 22, -1, 22, 22, 22, -1,
 22, 22, 22, -1, 22, 22, 22, -1, 22, 22, 22, -1,
 22, 22, 22, -1, 22, 22, 22, -1, 22, 22, 22, -1,
 22, 22, 22, -1, 22, 22, 22, -1, 22, 22, 22, -1,
 22, 22, 22, -1, 22, 22, 22, -1, 22, 22, 22, -1,
 22, 22, 22, -1, 22, 22, 22, -1, 22, 22, 22, -1,
 22, 22, 22, -1, 22, 22, 22, -1, 22, 22, 22, -1,
 22, 22, 22, -1, 22, 22, 22, -1, 22, 22, 22, -1,
 22, 22, 22, -1, 22, 22, 22, -1, 22, 22, 22, -1,
 22, 22, 22, -1, 22, 22, 22, -1, 22, 22, 22, -1,
 22, 22, 22, -1, 22, 22, 22, -1, 22, 22, 22, -1,
 22, 22, 22, -1, 22, 22, 22, -1, 22, 22, 22, -1,
 22, 22, 22, -1, 22, 22, 22, -1, 22, 22, 22, -1,
 22, 22, 22, -1, 22, 22, 22, -1, 22, 22, 22, -1,
 22, 22, 22, -1, 22, 22, 22, -1, 22, 22, 22, -1,
 22, 22, 22, -1, 22, 22, 22, -1, 22, 22, 22, -1,
 22, 22, 22, -1, 22, 22, 22, -1, 22, 22, 22, -1,
 22, 22, 22, -1, 22, 22, 22, -1, 22, 22, 22, -1,
 22, 22, 22, -1, 22, 22, 22, -1, 22, 22, 22, -1,
 22, 22, 22, -1, 22, 22, 22, -1, 22, 22, 22, -1,
 22, 22, 22, -1, 22, 22, 22, -1, 22, 22, 22, -1,
 22, 22, 22, -1, 22, 22, 22, -1, 22, 22, 22, -1,
 22, 22, 22, -1, 22, 22, 22, -1, 22, 22, 22, -1,
 22, 22, 22, -1, 22, 22, 22, -1, 22, 22, 22, -1,
 22, 22, 22, -1, 22, 22, 22, -1, 22, 22, 22, -1,
 22, 22, 22, -1, 22, 22, 22, -1, 22, 22, 22, -1,
 22, 22, 22, -1, 22, 22, 22, -1, 22, 22, 22, -1,
 22, 22, 22, -1, 22, 22, 22, -1, 22, 22, 22, -1,
 22, 22, 22, -1, 22, 22, 22, -1, 22, 22, 22, -1,
 22, 22, 22, -1, 22, 22, 22, -1, 22, 22, 22, -1,
 22, 22, 22, -1, 22, 22, 22, -1, 22, 22, 22, -1,
 22, 22, 22, -1, 22, 22, 22, -1, 22, 22, 22, -1,
 22, 22, 22, -1, 22, 22, 22, -1, 22, 22, 22, -1,
 22, 22, 22, -1, 22, 22, 22, -1, 22, 22, 22, -1,
 22, 22, 22, -1, 22, 22, 22, -1, 22, 22, 22, -1,
 22, 22, 22, -1, 22, 22, 22, -1, 22, 22, 22, -1,
 22, 22, 22, -1, 22, 22, 22, -1, 22, 22, 22, -1,
 22, 22, 22, -1, 22, 22, 22, -1, 22, 22, 22, -1,
 22, 22, 22, -1, 22, 22, 22, -1, 22, 22, 22, -1,
 22, 22, 22, -1, 22, 22, 22, -1, 22, 22, 22, -1,
 22, 22, 22, -1, 22, 22, 22, -1, 22, 22, 22, -1,
 22, 22, 22, -1, 22, 22, 22, -1, 22, 22, 22, -1,
 22, 22, 22, -1, 22, 22, 22, -1, 22, 22, 22, -1,
 22, 22, 22, -1, 22, 22, 22, -1, 22, 22, 22, -1,
 22, 22, 22, -1, 22, 22, 22, -1, 22, 22, 22, -1,
 22, 22, 22, -1, 22, 22, 22, -1, 22, 22, 22, -1,
 22, 22, 22, -1, 22, 22, 22, -1, 22, 22, 22, -1,
 22, 22, 22, -1, 22, 22, 22, -1, 22, 22, 22, -1,
 22, 22, 22, -1, 22, 22, 22, -1, 22, 22, 22, -1,
 22, 22, 22, -1, 22, 22, 22, -1, 22, 22, 22, -1,
 22, 22, 22, -1, 22, 22, 22, -1, 22, 22, 22, -1,
 22, 22, 22, -1, 22, 22, 22, -1, 22, 22, 22, -1,
 22, 22, 22, -1, 22, 22, 22, -1, 22, 22, 22, -1,
 22, 22, 22, -1, 22, 22, 22, -1, 22, 22, 22, -1,
 22, 22, 22, -1, 22, 22, 22, -1, 22, 22, 22, -1,
 22, 22, 22, -1, 22, 22, 22, -1, 22, 22, 22, -1,
 22, 22, 22, -1, 22, 22, 22, -1, 22, 22, 22, -1,
 22, 22, 22, -1, 22, 22, 22, -1, 22, 22, 22, -1,
 22, 22, 22, -1, 22, 22, 22, -1, 22, 22, 22, -1,
 22, 22, 22, -1, 22, 22, 22, -1, 22, 22, 22, -1,
 22, 22, 22, -1, 22, 22, 22, -1, 22, 22, 22, -1,
 22, 22, 22, -1, 22, 22, 22, -1, 22, 22, 22, -1,
 22, 22, 22, -1, 22, 22, 22, -1, 22, 22, 22, -1,
 22, 22, 22, -1, 22, 22, 22, -1, 22, 22, 22, -1,
 22, 22, 22, -1, 22, 22, 22, -1, 22, 22, 22, -1,
 22, 22, 22, -1, 22, 22, 22, -1, 22, 22, 22, -1,
 22, 22, 22, -1, 22, 22, 22, -1, 22, 22, 22, -1,
 22, 22, 22, -1, 22, 22, 22, -1, 22, 22, 22, -1,
 22, 22, 22, -1, 22, 22, 22, -1, 22, 22, 22, -1,
 22, 22, 22, -1, 22, 22, 22, -1, 22, 22, 22, -1,
 22, 22, 22, -1, 22, 22, 22, -1, 22, 22, 22, -1,
 22, 22, 22, -1, 22, 22, 22, -1, 22, 22, 22, -1,
 22, 22, 22, -1, 22, 22, 22, -1, 22, 22, 22, -1,
 22, 22, 22, -1, 22, 22, 22, -1, 22, 22, 22, -1,
 22, 22, 22, -1, 22, 22, 22, -1, 22, 22, 22, -1,
 22, 22, 22, -1, 22, 22, 22, -1, 22, 22, 22, -1,
 22, 22, 22, -1, 22, 22, 22, -1, 22, 22, 22, -1,
 22, 22, 22, -1, 22, 22, 22, -1, 22, 22, 22, -1,
 22, 22, 22, -1, 22, 22, 22, -1, 22, 22, 22, -1,
 22, 22, 22, -1, 22, 22, 22, -1, 22, 22, 22, -1,
 22, 22, 22, -1, 22, 22, 22, -1, 22, 22, 22, -1,
 22, 22, 22, -1, 22, 22, 22, -1, 22, 22, 22, -1,
 22, 22, 22, -1, 22, 22, 22, -1, 22, 22, 22, -1,
 22, 22, 22, -1, 22, 22, 22, -1, 22, 22, 22, -1,
 22, 22, 22, -1, 22, 22, 22, -1, 22, 22, 22, -1,
 22, 22, 22, -1, 22, 22, 22, -1, 22, 22, 22, -1,
 22, 22, 22, -1, 22, 22, 22, -1, 22, 22, 22, -1,
 22, 22, 22, -1, 22, 22, 22, -1, 22, 22, 22, -1,
 22, 22, 22, -1, 22, 22, 22, -1, 22, 22, 22, -1,
 22, 22, 22, -1, 22, 22, 22, -1, 22, 22, 22, -1,
 22, 22, 22, -1, 22, 22, 22, -1, 22, 22, 22, -1,
 22, 22, 22, -1, 22, 22, 22, -1, 22, 22, 22, -1,
 22, 22, 22, -1, 22, 22, 22, -1, 20, 20, 20, -1,
 20, 20, 20, -1, 20, 20, 20, -1, 20, 20, 20, -1,
 20, 20, 20, -1, 20, 20, 20, -1, 20, 20, 20, -1,
 20, 20, 20, -1, 20, 20, 20, -1, 0, 0, 0, -1,
 0, 0, 0, -1, 0, 0, 0, -1, 0, 0, 0, -1,
 0, 0, 0, -1, 0, 0, 0, -1, 0, 0, 0, -1,
 0, 0, 0, -1, 0, 0, 0, -1, 0, 0, 0, -1,
 0, 0, 0, -1, 0, 0, 0, -1, 0, 0, 0, -1,
 21, 21, 21, -1, 21, 21, 21, -1, 21, 21, 21, -1,
 21, 21, 21, -1, 21, 21, 21, -1, 21, 21, 21, -1,
 21, 21, 21, -1, 39, 39, 39, -1, 39, 39, 39, -1,
 39, 39, 39, -1, 39, 39, 39, -1, 39, 39, 39, -1,
 39, 39, 39, -1, 39, 39, 39, -1, 39, 39, 39, -1,
 39, 39, 39, -1, 39, 39, 39, -1, 39, 39, 39, -1,
 39, 39, 39, -1, 39, 39, 39, -1, 19, 19, 19, -1,
 19, 19, 19, -1, 19, 19, 19, -1, 19, 19, 19, -1,
 19, 19, 19, -1, 19, 19, 19, -1, 19, 19, 19, -1,
 19, 19, 19, -1, 19, 19, 19, -1, 19, 19, 19, -1,
 19, 19, 19, -1, 19, 19, 19, -1, 19, 19, 19, -1,
 19, 19, 19, -1, 19, 19, 19, -1, 19, 19, 19, -1,
 19, 19, 19, -1, 19, 19, 19, -1, 19, 19, 19, -1,
 19, 19, 19, -1, 19, 19, 19, -1, 19, 19, 19, -1,
 19, 19, 19, -1, 19, 19, 19, -1, 19, 19, 19, -1,
 19, 19, 19, -1, 19, 19, 19, -1, 19, 19, 19, -1,
 19, 19, 19, -1, 19, 19, 19, -1, 19, 19, 19, -1,
 19, 19, 19, -1, 19, 19, 19, -1, 19, 19, 19, -1,
 19, 19, 19, -1, 19, 19, 19, -1, 19, 19, 19, -1,
 19, 19, 19, -1, 19, 19, 19, -1, 19, 19, 19, -1,
 19, 19, 19, -1, 19, 19, 19, -1, 19, 19, 19, -1,
 19, 19, 19, -1, 19, 19, 19, -1, 19, 19, 19, -1,
 19, 19, 19, -1, 19, 19, 19, -1, 19, 19, 19, -1,
 19, 19, 19, -1, 19, 19, 19, -1, 19, 19, 19, -1,
 19, 19, 19, -1, 19, 19, 19, -1, 19, 19, 19, -1,
 19, 19, 19, -1, 19, 19, 19, -1, 19, 19, 19, -1,
 19, 19, 19, -1, 19, 19, 19, -1, 19, 19, 19, -1,
 19, 19, 19, -1, 19, 19, 19, -1, 19, 19, 19, -1,
 19, 19, 19, -1, 19, 19, 19, -1, 19, 19, 19, -1,
 19, 19, 19, -1, 19, 19, 19, -1, 19, 19, 19, -1,
 19, 19, 19, -1, 19, 19, 19, -1, 19, 19, 19, -1,
 19, 19, 19, -1, 19, 19, 19, -1, 19, 19, 19, -1,
 19, 19, 19, -1, 19, 19, 19, -1, 19, 19, 19, -1,
 19, 19, 19, -1, 19, 19, 19, -1, 19, 19, 19, -1,
 19, 19, 19, -1, 19, 19, 19, -1, 19, 19, 19, -1,
 19, 19, 19, -1, 19, 19, 19, -1, 19, 19, 19, -1,
 19, 19, 19, -1, 19, 19, 19, -1, 19, 19, 19, -1,
 19, 19, 19, -1, 19, 19, 19, -1, 19, 19, 19, -1,
 19, 19, 19, -1, 19, 19, 19, -1, 19, 19, 19, -1,
 19, 19, 19, -1, 19, 19, 19, -1, 19, 19, 19, -1,
 19, 19, 19, -1, 19, 19, 19, -1, 19, 19, 19, -1,
 19, 19, 19, -1, 19, 19, 19, -1, 19, 19, 19, -1,
 19, 19, 19, -1, 19, 19, 19, -1, 19, 19, 19, -1,
 19, 19, 19, -1, 19, 19, 19, -1, 19, 19, 19, -1,
 19, 19, 19, -1, 19, 19, 19, -1, 19, 19, 19, -1,
 19, 19, 19, -1, 19, 19, 19, -1, 19, 19, 19, -1,
 19, 19, 19, -1, 19, 19, 19, -1, 19, 19, 19, -1,
 19, 19, 19, -1, 19, 19, 19, -1, 19, 19, 19, -1,
 19, 19, 19, -1, 19, 19, 19, -1, 19, 19, 19, -1,
 19, 19, 19, -1, 19, 19, 19, -1, 19, 19, 19, -1,
 39, 36, 39, -1, 39, 36, 36, -1, 36, 36, 35, -1,
 35, 36, 33, -1, 35, 33, 33, -1, 33, 33, 29, -1,
 33, 29, 29, -1, 29, 29, 26, -1, 29, 26, 26, -1,
 26, 26, 24, -1, 26, 24, 24, -1, 24, 24, 20, -1,
 24, 20, 20, -1, 21, 21, 23, -1, 23, 21, 25, -1,
 23, 25, 25, -1, 25, 25, 27, -1, 25, 27, 27, -1,
 27, 27, 30, -1, 27, 30, 30, -1, 30, 30, 34, -1,
 30, 34, 34, -1, 34, 34, 37, -1, 34, 37, 37, -1,
 37, 37, 39, -1, 37, 39, 39, -1, 0, 0, 3, -1,
 3, 0, 5, -1, 3, 5, 5, -1, 5, 5, 8, -1,
 5, 8, 8, -1, 8, 8, 12, -1, 8, 12, 12, -1,
 12, 12, 15, -1, 12, 15, 15, -1, 15, 15, 17, -1,
 15, 17, 17, -1, 17, 17, 18, -1, 18, 17, 21, -1,
 18, 21, 21, -1, 20, 20, 16, -1, 20, 16, 16, -1,
 16, 16, 14, -1, 16, 14, 14, -1, 14, 14, 11, -1,
 14, 11, 11, -1, 11, 11, 7, -1, 11, 7, 7, -1,
 7, 7, 6, -1, 6, 7, 4, -1, 6, 4, 4, -1,
 4, 4, 2, -1, 2, 4, 0, -1, 2, 0, 0, -1,
 7, 4, 4, -1, 4, 4, 0, -1, 4, 0, 0, -1,
 0, 0, 5, -1, 0, 5, 5, -1, 5, 5, 8, -1,
 5, 8, 8, -1, 8, 8, 12, -1, 8, 12, 12, -1,
 12, 12, 13, -1, 12, 13, 15, -1, 13, 15, 15, -1,
 15, 15, 17, -1, 15, 17, 17, -1, 17, 17, 21, -1,
 17, 21, 21, -1, 21, 21, 25, -1, 21, 25, 25, -1,
 25, 25, 27, -1, 25, 27, 27, -1, 27, 27, 28, -1,
 27, 28, 30, -1, 28, 30, 30, -1, 30, 30, 34, -1,
 30, 34, 34, -1, 34, 34, 37, -1, 34, 37, 37, -1,
 37, 37, 39, -1, 37, 39, 39, -1, 39, 39, 36, -1,
 39, 36, 36, -1, 36, 36, 33, -1, 36, 33, 33, -1,
 33, 33, 31, -1, 33, 31, 29, -1, 31, 29, 29, -1,
 29, 29, 26, -1, 29, 26, 26, -1, 26, 26, 24, -1,
 26, 24, 24, -1, 24, 24, 20, -1, 24, 20, 20, -1,
 20, 20, 16, -1, 20, 16, 16, -1, 16, 16, 14, -1,
 16, 14, 14, -1, 14, 14, 11, -1, 14, 11, 11, -1,
 11, 11, 10, -1, 11, 10, 7, -1, 7, 10, 7, -1,
 7, 7, 4, -1, 22, 22, 22, -1, 22, 22, 22, -1,
 22, 22, 22, -1, 22, 22, 22, -1, 22, 22, 22, -1,
 22, 22, 22, -1, 22, 22, 22, -1, 22, 22, 22, -1,
 22, 22, 22, -1, 22, 22, 22, -1, 22, 22, 22, -1,
 22, 22, 22, -1, 22, 22, 22, -1, 22, 22, 22, -1,
 22, 22, 22, -1, 22, 22, 22, -1, 22, 22, 22, -1,
 22, 22, 22, -1, 22, 22, 22, -1, 22, 22, 22, -1,
 22, 22, 22, -1, 22, 22, 22, -1, 22, 22, 22, -1,
 22, 22, 22, -1, 5, 8, 8, -1, 8, 8, 12, -1,
 8, 12, 12, -1, 12, 12, 15, -1, 12, 15, 15, -1,
 15, 15, 17, -1, 15, 17, 17, -1, 17, 17, 21, -1,
 17, 21, 21, -1, 21, 21, 25, -1, 21, 25, 25, -1,
 25, 25, 27, -1, 25, 27, 27, -1, 27, 27, 30, -1,
 27, 30, 30, -1, 30, 30, 34, -1, 30, 34, 34, -1,
 34, 34, 37, -1, 34, 37, 37, -1, 37, 37, 38, -1,
 37, 38, 39, -1, 38, 39, 39, -1, 39, 39, 36, -1,
 39, 36, 36, -1, 36, 36, 33, -1, 36, 33, 33, -1,
 33, 33, 29, -1, 33, 29, 29, -1, 29, 29, 26, -1,
 29, 26, 26, -1, 26, 26, 24, -1, 26, 24, 24, -1,
 24, 24, 20, -1, 24, 20, 20, -1, 20, 20, 16, -1,
 20, 16, 16, -1, 16, 16, 14, -1, 16, 14, 14, -1,
 14, 14, 11, -1, 14, 11, 11, -1, 11, 11, 7, -1,
 11, 7, 7, -1, 7, 7, 4, -1, 7, 4, 4, -1,
 4, 4, 0, -1, 4, 0, 0, -1, 0, 0, 1, -1,
 0, 1, 5, -1, 5, 1, 5, -1, 5, 5, 8, -1,
 22, 22, 22, -1, 22, 22, 22, -1, 22, 22, 22, -1,
 22, 22, 22, -1, 22, 22, 22, -1, 22, 22, 22, -1,
 22, 22, 22, -1, 22, 22, 22, -1, 22, 22, 22, -1,
 22, 22, 22, -1, 22, 22, 22, -1, 22, 22, 22, -1,
 22, 22, 22, -1, 22, 22, 22, -1, 22, 22, 22, -1,
 22, 22, 22, -1, 22, 22, 22, -1, 22, 22, 22, -1,
 22, 22, 22, -1, 22, 22, 22, -1, 22, 22, 22, -1,
 22, 22, 22, -1, 22, 22, 22, -1, 22, 22, 22, -1,
 0, 0, 0, -1, 0, 0, 0, -1, 0, 0, 0, -1,
 0, 0, 0, -1, 21, 21, 21, -1, 21, 21, 21, -1,
 21, 21, 21, -1, 21, 21, 21, -1, 39, 39, 39, -1,
 39, 39, 39, -1, 39, 39, 39, -1, 39, 39, 39, -1,
 22, 22, 22, -1, 22, 22, 22, -1, 0, 0, 0, -1,
 0, 0, 0, -1, 0, 0, 0, -1, 0, 0, 0, -1,
 0, 0, 0, -1, 0, 0, 0, -1, 0, 0, 0, -1,
 0, 0, 0, -1, 0, 0, 0, -1, 0, 0, 0, -1,
 21, 21, 21, -1, 21, 21, 21, -1, 21, 21, 21, -1,
 21, 21, 21, -1, 20, 20, 20, -1, 20, 20, 20, -1,
 20, 20, 20, -1, 20, 20, 20, -1, 22, 22, 22, -1,
 22, 22, 22, -1, 22, 22, 22, -1, 22, 22, 22, -1,
 22, 22, 22, -1, 22, 22, 22, -1, 22, 22, 22, -1,
 22, 22, 22, -1, 22, 22, 22, -1, 22, 22, 22, -1,
 22, 22, 22, -1, 22, 22, 22, -1, 22, 22, 22, -1,
 22, 22, 22, -1, 21, 21, 21, -1, 21, 21, 21, -1,
 21, 21, 21, -1, 21, 21, 21, -1, 21, 21, 21, -1,
 39, 39, 39, -1, 39, 39, 39, -1, 39, 39, 39, -1,
 39, 39, 39, -1, 39, 39, 39, -1, 39, 39, 39, -1,
 39, 39, 39, -1, 39, 39, 39, -1, 39, 39, 39, -1,
 39, 39, 39, -1, 20, 20, 20, -1, 20, 20, 20, -1,
 20, 20, 20, -1, 20, 20, 20, -1, 20, 20, 20, -1,
 22, 22, 22, -1, 22, 22, 22, -1, 22, 22, 22, -1,
 22, 22, 22, -1, 22, 22, 22, -1, 22, 22, 22, -1,
 22, 22, 22, -1, 22, 22, 22, -1, 22, 22, 22, -1,
 22, 22, 22, -1, 22, 22, 22, -1, 22, 22, 22, -1,
 22, 22, 22, -1, 22, 22, 22, -1, 20, 20, 16, -1,
 16, 20, 16, -1, 16, 16, 14, -1, 14, 16, 14, -1,
 14, 14, 11, -1, 11, 14, 11, -1, 11, 11, 7, -1,
 7, 11, 7, -1, 7, 7, 4, -1, 4, 7, 4, -1,
 4, 4, 0, -1, 0, 4, 0, -1, 0, 0, 5, -1,
 5, 0, 5, -1, 5, 5, 8, -1, 8, 5, 8, -1,
 8, 8, 12, -1, 12, 8, 12, -1, 12, 12, 15, -1,
 15, 12, 15, -1, 15, 15, 17, -1, 17, 15, 17, -1,
 17, 17, 21, -1, 21, 17, 21, -1, 21, 21, 25, -1,
 25, 21, 25, -1, 25, 25, 27, -1, 27, 25, 27, -1,
 27, 27, 30, -1, 30, 27, 30, -1, 30, 30, 34, -1,
 34, 30, 34, -1, 34, 34, 37, -1, 37, 34, 37, -1,
 37, 37, 39, -1, 39, 37, 39, -1, 39, 39, 36, -1,
 36, 39, 36, -1, 36, 36, 33, -1, 33, 36, 33, -1,
 33, 33, 29, -1, 29, 33, 29, -1, 29, 29, 26, -1,
 26, 29, 26, -1, 26, 26, 24, -1, 24, 26, 24, -1,
 24, 24, 20, -1, 20, 24, 20, -1, 20, 20, 16, -1,
 16, 20, 16, -1, 16, 16, 14, -1, 14, 16, 14, -1,
 14, 14, 11, -1, 11, 14, 11, -1, 11, 11, 7, -1,
 7, 11, 7, -1, 7, 7, 4, -1, 4, 7, 4, -1,
 4, 4, 0, -1, 0, 4, 0, -1, 0, 0, 5, -1,
 5, 0, 5, -1, 5, 5, 8, -1, 8, 5, 8, -1,
 8, 8, 12, -1, 12, 8, 12, -1, 12, 12, 15, -1,
 15, 12, 15, -1, 15, 15, 17, -1, 17, 15, 17, -1,
 17, 17, 21, -1, 21, 17, 21, -1, 21, 21, 25, -1,
 25, 21, 25, -1, 25, 25, 27, -1, 27, 25, 27, -1,
 27, 27, 30, -1, 30, 27, 30, -1, 30, 30, 34, -1,
 34, 30, 34, -1, 34, 34, 37, -1, 37, 34, 37, -1,
 37, 37, 39, -1, 39, 37, 39, -1, 39, 39, 36, -1,
 36, 39, 36, -1, 36, 36, 33, -1, 33, 36, 33, -1,
 33, 33, 29, -1, 29, 33, 29, -1, 29, 29, 26, -1,
 26, 29, 26, -1, 26, 26, 24, -1, 24, 26, 24, -1,
 24, 24, 20, -1, 20, 24, 20, -1, 11, 9, 7, -1,
 7, 9, 7, -1, 7, 7, 4, -1, 4, 7, 4, -1,
 4, 4, 0, -1, 0, 4, 0, -1, 0, 0, 5, -1,
 5, 0, 5, -1, 5, 5, 8, -1, 8, 5, 8, -1,
 8, 8, 12, -1, 12, 8, 12, -1, 12, 12, 15, -1,
 15, 12, 15, -1, 15, 15, 17, -1, 17, 15, 17, -1,
 17, 17, 21, -1, 21, 17, 21, -1, 21, 21, 25, -1,
 25, 21, 25, -1, 25, 25, 27, -1, 27, 25, 27, -1,
 27, 27, 30, -1, 30, 27, 30, -1, 30, 30, 34, -1,
 34, 30, 34, -1, 34, 34, 37, -1, 37, 34, 37, -1,
 37, 37, 39, -1, 39, 37, 39, -1, 39, 39, 36, -1,
 36, 39, 36, -1, 36, 36, 33, -1, 36, 33, 33, -1,
 33, 33, 32, -1, 33, 32, 29, -1, 29, 32, 29, -1,
 29, 29, 26, -1, 26, 29, 26, -1, 26, 26, 24, -1,
 24, 26, 24, -1, 24, 24, 20, -1, 20, 24, 20, -1,
 20, 20, 16, -1, 16, 20, 16, -1, 16, 16, 14, -1,
 14, 16, 14, -1, 14, 14, 11, -1, 11, 14, 11, -1,
 11, 11, 9, -1, 11, 9, 7, -1, 7, 9, 7, -1,
 7, 7, 4, -1, 4, 7, 4, -1, 4, 4, 0, -1,
 0, 4, 0, -1, 0, 0, 5, -1, 5, 0, 5, -1,
 5, 5, 8, -1, 8, 5, 8, -1, 8, 8, 12, -1,
 12, 8, 12, -1, 12, 12, 15, -1, 15, 12, 15, -1,
 15, 15, 17, -1, 17, 15, 17, -1, 17, 17, 21, -1,
 21, 17, 21, -1, 21, 21, 25, -1, 25, 21, 25, -1,
 25, 25, 27, -1, 27, 25, 27, -1, 27, 27, 30, -1,
 30, 27, 30, -1, 30, 30, 34, -1, 34, 30, 34, -1,
 34, 34, 37, -1, 37, 34, 37, -1, 37, 37, 39, -1,
 39, 37, 39, -1, 39, 39, 36, -1, 36, 39, 36, -1,
 36, 36, 33, -1, 36, 33, 33, -1, 33, 33, 32, -1,
 33, 32, 29, -1, 29, 32, 29, -1, 29, 29, 26, -1,
 26, 29, 26, -1, 26, 26, 24, -1, 24, 26, 24, -1,
 24, 24, 20, -1, 20, 24, 20, -1, 20, 20, 16, -1,
 16, 20, 16, -1, 16, 16, 14, -1, 14, 16, 14, -1,
 14, 14, 11, -1, 11, 14, 11, -1, 11, 11, 9, -1,
 0, 0, 0, -1, 0, 0, 0, -1, 21, 21, 21, -1,
 21, 21, 21, -1, 21, 21, 21, -1, 21, 21, 21, -1,
 21, 21, 21, -1, 21, 21, 21, -1, 39, 39, 39, -1,
 39, 39, 39, -1, 20, 20, 20, -1, 20, 20, 20, -1,
 22, 22, 22, -1, 22, 22, 22, -1, 22, 22, 22, -1,
 22, 22, 22, -1, 22, 22, 22, -1, 22, 22, 22, -1,
 0, 0, 0, -1, 0, 0, 0, -1, 21, 21, 21, -1,
 21, 21, 21, -1, 21, 21, 21, -1, 21, 21, 21, -1,
 21, 21, 21, -1, 21, 21, 21, -1, 39, 39, 39, -1,
 39, 39, 39, -1, 20, 20, 20, -1, 20, 20, 20, -1,
 39, 39, 39, -1, 39, 39, 39, -1, 20, 20, 20, -1,
 20, 20, 20, -1, 0, 0, 0, -1, 0, 0, 0, -1,
 22, 22, 22, -1, 22, 22, 22, -1, 0, 0, 0, -1,
 0, 0, 0, -1, 39, 39, 39, -1, 39, 39, 39, -1,
 20, 20, 20, -1, 20, 20, 20, -1, 22, 22, 22, -1,
 22, 22, 22, -1, 20, 20, 20, -1, 20, 20, 20, -1,
 39, 39, 39, -1, 39, 39, 39, -1, 21, 21, 21, -1,
 21, 21, 21, -1, 22, 22, 22, -1, 22, 22, 22, -1,
 21, 21, 21, -1, 21, 21, 21, -1, 0, 0, 0, -1,
 0, 0, 0, -1, 22, 22, 22, -1, 22, 22, 22, -1,
 39, 39, 39, -1, 39, 39, 39, -1, 21, 21, 21, -1,
 21, 21, 21, -1, 20, 20, 20, -1, 20, 20, 20, -1,
 22, 22, 22, -1, 22, 22, 22, -1, 0, 0, 0, -1,
 0, 0, 0, -1, 20, 20, 20, -1, 20, 20, 20, -1,
 22, 22, 22, -1, 22, 22, 22, -1, 21, 21, 21, -1,
 21, 21, 21, -1, 0, 0, 0, -1, 0, 0, 0, -1,
 20, 20, 20, -1, 20, 20, 20, -1, 22, 22, 22, -1,
 22, 22, 22, -1, 21, 21, 21, -1, 21, 21, 21, -1,
 39, 39, 39, -1, 39, 39, 39, -1, 22, 22, 22, -1,
 22, 22, 22, -1, 21, 21, 21, -1, 21, 21, 21, -1,
 0, 0, 0, -1, 0, 0, 0, -1, 20, 20, 20, -1,
 20, 20, 20, -1, 22, 22, 22, -1, 22, 22, 22, -1,
 20, 20, 20, -1, 20, 20, 20, -1, 39, 39, 39, -1,
 39, 39, 39, -1, 22, 22, 22, -1, 22, 22, 22, -1,
 39, 39, 39, -1, 39, 39, 39, -1, 20, 20, 20, -1,
 20, 20, 20, -1, 39, 39, 39, -1, 39, 39, 39, -1,
 39, 39, 39, -1, 20, 20, 20, -1, 20, 20, 20, -1,
 20, 20, 20, -1, 0, 0, 0, -1, 0, 0, 0, -1,
 0, 0, 0, -1, 20, 20, 20, -1, 20, 20, 20, -1,
 0, 0, 0, -1, 0, 0, 0, -1, 21, 21, 21, -1,
 21, 21, 21, -1, 21, 21, 21, -1, 22, 22, 22, -1,
 22, 22, 22, -1, 22, 22, 22, -1, 22, 22, 22, -1,
 22, 22, 22, -1, 22, 22, 22, -1
]
colorPerVertex FALSE
normalPerVertex TRUE
}
}
]
}
