#VRML V2.0 utf8
Transform {
children [
Shape {
appearance Appearance {
material Material {
ambientIntensity 1.000000
diffuseColor 1.000000 1.000000 1.000000
emissiveColor 0.210000 0.210000 0.210000
specularColor 0.880000 0.880000 0.880000
shininess 0.210000
transparency 0.000000
}
}
geometry IndexedFaceSet {
color Color {
color [
 1.000000 1.000000 1.000000
]
}
coord Coordinate {
point [
 -0.029956 0.016800 -0.001624, -0.029956 0.016800 0.001624, -0.029956 0.029800 -0.001624, -0.029956 0.029800 0.001624, -0.029605 0.016800 -0.004853,
 -0.029605 0.016800 0.004853, -0.029605 0.029800 -0.004853, -0.029605 0.029800 0.004853, -0.028906 0.016800 -0.008026, -0.028906 0.016800 0.008026,
 -0.028906 0.029800 -0.008026, -0.028906 0.029800 0.008026, -0.027869 0.016800 -0.011104, -0.027869 0.016800 0.011104, -0.027869 0.029800 -0.011104,
 -0.027869 0.029800 0.011104, -0.026750 0.000000 -0.004750, -0.026750 0.000000 0.004750, -0.026750 0.003000 -0.007750, -0.026750 0.003000 0.007750,
 -0.026750 0.016800 -0.007750, -0.026750 0.016800 0.007750, -0.026505 0.016800 -0.014052, -0.026505 0.016800 0.014052, -0.026505 0.029800 -0.014052,
 -0.026505 0.029800 0.014052, -0.024831 0.016800 -0.016836, -0.024831 0.016800 0.016836, -0.024831 0.029800 -0.016836, -0.024831 0.029800 0.016836,
 -0.024000 0.016800 -0.016600, -0.024000 0.016800 -0.007750, -0.024000 0.016800 0.007750, -0.024000 0.016800 0.016600, -0.024000 0.019800 -0.016600,
 -0.024000 0.019800 -0.007750, -0.024000 0.019800 0.007750, -0.024000 0.019800 0.016600, -0.022865 0.016800 -0.019422, -0.022865 0.016800 0.019422,
 -0.022865 0.029800 -0.019422, -0.022865 0.029800 0.019422, -0.022150 0.006000 -0.007750, -0.022150 0.006000 0.007750, -0.022150 0.012000 -0.007750,
 -0.022150 0.012000 0.007750, -0.021150 0.006000 -0.006750, -0.021150 0.006000 0.006750, -0.021150 0.012000 -0.006750, -0.021150 0.012000 0.006750,
 -0.020720 0.043800 -0.001123, -0.020720 0.043800 0.001123, -0.020631 0.016800 -0.021780, -0.020631 0.016800 0.021780, -0.020631 0.029800 -0.021780,
 -0.020631 0.029800 0.021780, -0.020477 0.043800 -0.003357, -0.020477 0.043800 0.003357, -0.019994 0.043800 -0.005551, -0.019994 0.043800 0.005551,
 -0.019276 0.043800 -0.007680, -0.019276 0.043800 0.007680, -0.018750 0.006000 -0.006750, -0.018750 0.006000 0.006750, -0.018750 0.012000 -0.006750,
 -0.018750 0.012000 0.006750, -0.018333 0.043800 -0.009719, -0.018333 0.043800 0.009719, -0.018155 0.016800 -0.023883, -0.018155 0.016800 0.023883,
 -0.018155 0.029800 -0.023883, -0.018155 0.029800 0.023883, -0.018000 0.000000 -0.000000, -0.018000 0.020800 -0.000000, -0.017817 0.000000 -0.002562,
 -0.017817 0.000000 0.002562, -0.017817 0.020800 -0.002562, -0.017817 0.020800 0.002562, -0.017750 0.006000 -0.007750, -0.017750 0.006000 0.007750,
 -0.017750 0.012000 -0.007750, -0.017750 0.012000 0.007750, -0.017362 0.000000 -0.004750, -0.017362 0.000000 0.004750, -0.017271 0.020800 -0.005071,
 -0.017271 0.020800 0.005071, -0.017260 0.000318 -0.005068, -0.017260 0.000318 0.005068, -0.017175 0.043800 -0.011645, -0.017175 0.043800 0.011645,
 -0.016871 0.001525 -0.006275, -0.016871 0.001525 0.006275, -0.016373 0.020800 -0.007477, -0.016373 0.020800 0.007477, -0.016363 0.002723 -0.007473,
 -0.016363 0.002723 0.007473, -0.016246 0.003000 -0.007750, -0.016246 0.003000 0.007750, -0.016246 0.019800 -0.007750, -0.016246 0.019800 0.007750,
 -0.015815 0.043800 -0.013433, -0.015815 0.043800 0.013433, -0.015467 0.016800 -0.025706, -0.015467 0.016800 0.025706, -0.015467 0.029800 -0.025706,
 -0.015467 0.029800 0.025706, -0.015143 0.019800 -0.009732, -0.015143 0.019800 0.009732, -0.015143 0.020800 -0.009732, -0.015143 0.020800 0.009732,
 -0.014750 0.043800 0.000000, -0.014750 0.046800 0.000000, -0.014568 0.043800 -0.002307, -0.014568 0.043800 0.002307, -0.014568 0.046800 -0.002307,
 -0.014568 0.046800 0.002307, -0.014270 0.043800 -0.015064, -0.014270 0.043800 0.015064, -0.014028 0.043800 -0.004558, -0.014028 0.043800 0.004558,
 -0.014028 0.046800 -0.004558, -0.014028 0.046800 0.004558, -0.013603 0.019800 -0.011787, -0.013603 0.019800 0.011787, -0.013603 0.020800 -0.011787,
 -0.013603 0.020800 0.011787, -0.013142 0.043800 -0.006696, -0.013142 0.043800 0.006696, -0.013142 0.046800 -0.006696, -0.013142 0.046800 0.006696,
 -0.012597 0.016800 -0.027227, -0.012597 0.016800 0.027227, -0.012597 0.029800 -0.027227, -0.012597 0.029800 0.027227, -0.012557 0.043800 -0.016519,
 -0.012557 0.043800 0.016519, -0.011933 0.043800 -0.008670, -0.011933 0.043800 0.008670, -0.011933 0.046800 -0.008670, -0.011933 0.046800 0.008670,
 -0.011787 0.019800 -0.013603, -0.011787 0.019800 0.013603, -0.011787 0.020800 -0.013603, -0.011787 0.020800 0.013603, -0.010698 0.043800 -0.017780,
 -0.010698 0.043800 0.017780, -0.010430 0.043800 -0.010430, -0.010430 0.043800 0.010430, -0.010430 0.046800 -0.010430, -0.010430 0.046800 0.010430,
 -0.009732 0.019800 -0.015143, -0.009732 0.019800 0.015143, -0.009732 0.020800 -0.015143, -0.009732 0.020800 0.015143, -0.009579 0.016800 -0.028430,
 -0.009579 0.016800 0.028430, -0.009579 0.029800 -0.028430, -0.009579 0.029800 0.028430, -0.008713 0.043800 -0.018832, -0.008713 0.043800 0.018832,
 -0.008670 0.043800 -0.011933, -0.008670 0.043800 0.011933, -0.008670 0.046800 -0.011933, -0.008670 0.046800 0.011933, -0.007477 0.019800 -0.016373,
 -0.007477 0.019800 0.016373, -0.007477 0.020800 -0.016373, -0.007477 0.020800 0.016373, -0.006960 0.016800 -0.016600, -0.006960 0.016800 0.016600,
 -0.006960 0.019800 -0.016600, -0.006960 0.019800 0.016600, -0.006750 0.020800 -0.000000, -0.006750 0.046800 -0.000000, -0.006696 0.043800 -0.013142,
 -0.006696 0.043800 0.013142, -0.006696 0.046800 -0.013142, -0.006696 0.046800 0.013142, -0.006626 0.043800 -0.019664, -0.006626 0.043800 0.019664,
 -0.006581 0.020800 -0.001502, -0.006581 0.020800 0.001502, -0.006581 0.046800 -0.001502, -0.006581 0.046800 0.001502, -0.006449 0.016800 -0.029299,
 -0.006449 0.016800 0.029299, -0.006449 0.029800 -0.029299, -0.006449 0.029800 0.029299, -0.006082 0.020800 -0.002929, -0.006082 0.020800 0.002929,
 -0.006082 0.046800 -0.002929, -0.006082 0.046800 0.002929, -0.005277 0.020800 -0.004209, -0.005277 0.020800 0.004209, -0.005277 0.046800 -0.004209,
 -0.005277 0.046800 0.004209, -0.005071 0.016800 -0.017271, -0.005071 0.016800 0.017271, -0.005071 0.020800 -0.017271, -0.005071 0.020800 0.017271,
 -0.004558 0.043800 -0.014028, -0.004558 0.043800 0.014028, -0.004558 0.046800 -0.014028, -0.004558 0.046800 0.014028, -0.004461 0.043800 -0.020265,
 -0.004461 0.043800 0.020265, -0.004209 0.020800 -0.005277, -0.004209 0.020800 0.005277, -0.004209 0.046800 -0.005277, -0.004209 0.046800 0.005277,
 -0.003244 0.016800 -0.029824, -0.003244 0.016800 0.029824, -0.003244 0.029800 -0.029824, -0.003244 0.029800 0.029824, -0.002929 0.020800 -0.006082,
 -0.002929 0.020800 0.006082, -0.002929 0.046800 -0.006082, -0.002929 0.046800 0.006082, -0.002562 0.016800 -0.017817, -0.002562 0.016800 0.017817,
 -0.002562 0.020800 -0.017817, -0.002562 0.020800 0.017817, -0.002307 0.043800 -0.014568, -0.002307 0.043800 0.014568, -0.002307 0.046800 -0.014568,
 -0.002307 0.046800 0.014568, -0.002243 0.043800 -0.020628, -0.002243 0.043800 0.020628, -0.001502 0.020800 -0.006581, -0.001502 0.020800 0.006581,
 -0.001502 0.046800 -0.006581, -0.001502 0.046800 0.006581, 0.000000 0.016800 -0.030000, 0.000000 0.016800 -0.018000, -0.000000 0.016800 0.018000,
 0.000000 0.016800 0.030000, 0.000000 0.020800 -0.018000, 0.000000 0.020800 -0.006750, -0.000000 0.020800 0.006750, -0.000000 0.020800 0.018000,
 0.000000 0.029800 -0.030000, -0.000000 0.029800 0.030000, 0.000000 0.043800 -0.020750, 0.000000 0.043800 -0.014750, 0.000000 0.043800 0.014750,
 -0.000000 0.043800 0.020750, 0.000000 0.046800 -0.014750, 0.000000 0.046800 -0.006750, -0.000000 0.046800 0.006750, 0.000000 0.046800 0.014750,
 0.001502 0.020800 -0.006581, 0.001502 0.020800 0.006581, 0.001502 0.046800 -0.006581, 0.001502 0.046800 0.006581, 0.002243 0.043800 -0.020628,
 0.002243 0.043800 0.020628, 0.002307 0.043800 -0.014568, 0.002307 0.043800 0.014568, 0.002307 0.046800 -0.014568, 0.002307 0.046800 0.014568,
 0.002562 0.016800 -0.017817, 0.002562 0.016800 0.017817, 0.002562 0.020800 -0.017817, 0.002562 0.020800 0.017817, 0.002929 0.020800 -0.006082,
 0.002929 0.020800 0.006082, 0.002929 0.046800 -0.006082, 0.002929 0.046800 0.006082, 0.003244 0.016800 -0.029824, 0.003244 0.016800 0.029824,
 0.003244 0.029800 -0.029824, 0.003244 0.029800 0.029824, 0.004209 0.020800 -0.005277, 0.004209 0.020800 0.005277, 0.004209 0.046800 -0.005277,
 0.004209 0.046800 0.005277, 0.004461 0.043800 -0.020265, 0.004461 0.043800 0.020265, 0.004558 0.043800 -0.014028, 0.004558 0.043800 0.014028,
 0.004558 0.046800 -0.014028, 0.004558 0.046800 0.014028, 0.005071 0.016800 -0.017271, 0.005071 0.016800 0.017271, 0.005071 0.020800 -0.017271,
 0.005071 0.020800 0.017271, 0.005277 0.020800 -0.004209, 0.005277 0.020800 0.004209, 0.005277 0.046800 -0.004209, 0.005277 0.046800 0.004209,
 0.006082 0.020800 -0.002929, 0.006082 0.020800 0.002929, 0.006082 0.046800 -0.002929, 0.006082 0.046800 0.002929, 0.006449 0.016800 -0.029299,
 0.006449 0.016800 0.029299, 0.006449 0.029800 -0.029299, 0.006449 0.029800 0.029299, 0.006581 0.020800 -0.001502, 0.006581 0.020800 0.001502,
 0.006581 0.046800 -0.001502, 0.006581 0.046800 0.001502, 0.006626 0.043800 -0.019664, 0.006626 0.043800 0.019664, 0.006696 0.043800 -0.013142,
 0.006696 0.043800 0.013142, 0.006696 0.046800 -0.013142, 0.006696 0.046800 0.013142, 0.006750 0.020800 0.000000, 0.006750 0.046800 0.000000,
 0.006960 0.016800 -0.016600, 0.006960 0.016800 0.016600, 0.006960 0.019800 -0.016600, 0.006960 0.019800 0.016600, 0.007477 0.019800 -0.016373,
 0.007477 0.019800 0.016373, 0.007477 0.020800 -0.016373, 0.007477 0.020800 0.016373, 0.008670 0.043800 -0.011933, 0.008670 0.043800 0.011933,
 0.008670 0.046800 -0.011933, 0.008670 0.046800 0.011933, 0.008713 0.043800 -0.018832, 0.008713 0.043800 0.018832, 0.009579 0.016800 -0.028430,
 0.009579 0.016800 0.028430, 0.009579 0.029800 -0.028430, 0.009579 0.029800 0.028430, 0.009732 0.019800 -0.015143, 0.009732 0.019800 0.015143,
 0.009732 0.020800 -0.015143, 0.009732 0.020800 0.015143, 0.010430 0.043800 -0.010430, 0.010430 0.043800 0.010430, 0.010430 0.046800 -0.010430,
 0.010430 0.046800 0.010430, 0.010698 0.043800 -0.017780, 0.010698 0.043800 0.017780, 0.011787 0.019800 -0.013603, 0.011787 0.019800 0.013603,
 0.011787 0.020800 -0.013603, 0.011787 0.020800 0.013603, 0.011933 0.043800 -0.008670, 0.011933 0.043800 0.008670, 0.011933 0.046800 -0.008670,
 0.011933 0.046800 0.008670, 0.012557 0.043800 -0.016519, 0.012557 0.043800 0.016519, 0.012597 0.016800 -0.027227, 0.012597 0.016800 0.027227,
 0.012597 0.029800 -0.027227, 0.012597 0.029800 0.027227, 0.013142 0.043800 -0.006696, 0.013142 0.043800 0.006696, 0.013142 0.046800 -0.006696,
 0.013142 0.046800 0.006696, 0.013603 0.019800 -0.011787, 0.013603 0.019800 0.011787, 0.013603 0.020800 -0.011787, 0.013603 0.020800 0.011787,
 0.014028 0.043800 -0.004558, 0.014028 0.043800 0.004558, 0.014028 0.046800 -0.004558, 0.014028 0.046800 0.004558, 0.014270 0.043800 -0.015064,
 0.014270 0.043800 0.015064, 0.014568 0.043800 -0.002307, 0.014568 0.043800 0.002307, 0.014568 0.046800 -0.002307, 0.014568 0.046800 0.002307,
 0.014750 0.043800 -0.000000, 0.014750 0.046800 -0.000000, 0.015143 0.019800 -0.009732, 0.015143 0.019800 0.009732, 0.015143 0.020800 -0.009732,
 0.015143 0.020800 0.009732, 0.015467 0.016800 -0.025706, 0.015467 0.016800 0.025706, 0.015467 0.029800 -0.025706, 0.015467 0.029800 0.025706,
 0.015815 0.043800 -0.013433, 0.015815 0.043800 0.013433, 0.016246 0.003000 -0.007750, 0.016246 0.003000 0.007750, 0.016246 0.019800 -0.007750,
 0.016246 0.019800 0.007750, 0.016363 0.002723 -0.007473, 0.016363 0.002723 0.007473, 0.016373 0.020800 -0.007477, 0.016373 0.020800 0.007477,
 0.016871 0.001525 -0.006275, 0.016871 0.001525 0.006275, 0.017175 0.043800 -0.011645, 0.017175 0.043800 0.011645, 0.017260 0.000318 -0.005068,
 0.017260 0.000318 0.005068, 0.017271 0.020800 -0.005071, 0.017271 0.020800 0.005071, 0.017362 0.000000 -0.004750, 0.017362 0.000000 0.004750,
 0.017750 0.006000 -0.007750, 0.017750 0.006000 0.007750, 0.017750 0.012000 -0.007750, 0.017750 0.012000 0.007750, 0.017817 0.000000 -0.002562,
 0.017817 0.000000 0.002562, 0.017817 0.020800 -0.002562, 0.017817 0.020800 0.002562, 0.018000 0.000000 -0.000000, 0.018000 0.020800 -0.000000,
 0.018155 0.016800 -0.023883, 0.018155 0.016800 0.023883, 0.018155 0.029800 -0.023883, 0.018155 0.029800 0.023883, 0.018333 0.043800 -0.009719,
 0.018333 0.043800 0.009719, 0.018750 0.006000 -0.006750, 0.018750 0.006000 0.006750, 0.018750 0.012000 -0.006750, 0.018750 0.012000 0.006750,
 0.019276 0.043800 -0.007680, 0.019276 0.043800 0.007680, 0.019994 0.043800 -0.005551, 0.019994 0.043800 0.005551, 0.020477 0.043800 -0.003357,
 0.020477 0.043800 0.003357, 0.020631 0.016800 -0.021780, 0.020631 0.016800 0.021780, 0.020631 0.029800 -0.021780, 0.020631 0.029800 0.021780,
 0.020720 0.043800 -0.001123, 0.020720 0.043800 0.001123, 0.021150 0.006000 -0.006750, 0.021150 0.006000 0.006750, 0.021150 0.012000 -0.006750,
 0.021150 0.012000 0.006750, 0.022150 0.006000 -0.007750, 0.022150 0.006000 0.007750, 0.022150 0.012000 -0.007750, 0.022150 0.012000 0.007750,
 0.022865 0.016800 -0.019422, 0.022865 0.016800 0.019422, 0.022865 0.029800 -0.019422, 0.022865 0.029800 0.019422, 0.024000 0.016800 -0.016600,
 0.024000 0.016800 -0.007750, 0.024000 0.016800 0.007750, 0.024000 0.016800 0.016600, 0.024000 0.019800 -0.016600, 0.024000 0.019800 -0.007750,
 0.024000 0.019800 0.007750, 0.024000 0.019800 0.016600, 0.024831 0.016800 -0.016836, 0.024831 0.016800 0.016836, 0.024831 0.029800 -0.016836,
 0.024831 0.029800 0.016836, 0.026505 0.016800 -0.014052, 0.026505 0.016800 0.014052, 0.026505 0.029800 -0.014052, 0.026505 0.029800 0.014052,
 0.026750 0.000000 -0.004750, 0.026750 0.000000 0.004750, 0.026750 0.003000 -0.007750, 0.026750 0.003000 0.007750, 0.026750 0.016800 -0.007750,
 0.026750 0.016800 0.007750, 0.027869 0.016800 -0.011104, 0.027869 0.016800 0.011104, 0.027869 0.029800 -0.011104, 0.027869 0.029800 0.011104,
 0.028906 0.016800 -0.008026, 0.028906 0.016800 0.008026, 0.028906 0.029800 -0.008026, 0.028906 0.029800 0.008026, 0.029605 0.016800 -0.004853,
 0.029605 0.016800 0.004853, 0.029605 0.029800 -0.004853, 0.029605 0.029800 0.004853, 0.029956 0.016800 -0.001624, 0.029956 0.016800 0.001624,
 0.029956 0.029800 -0.001624, 0.029956 0.029800 0.001624
]
}
normal Normal {
vector [
 -1.000000 0.000000 0.000000, -0.998533 0.000000 -0.054139, -0.998533 0.000000 0.054139, -0.989821 0.000000 -0.142315, -0.989821 0.000000 0.142315,
 -0.987688 0.000000 -0.156434, -0.987688 0.000000 0.156434, -0.986827 0.000000 -0.161782, -0.986827 0.000000 0.161782, -0.974928 0.000000 -0.222521,
 -0.974928 0.000000 0.222521, -0.964553 0.000000 -0.263889, -0.964553 0.000000 0.263889, -0.963550 0.000000 -0.267528, -0.963550 0.000000 0.267528,
 -0.959497 0.000000 -0.281719, -0.959497 0.000000 0.281719, -0.959493 0.000000 -0.281733, -0.959493 0.000000 0.281733, -0.951057 0.000000 -0.309017,
 -0.951057 0.000000 0.309017, -0.937271 0.000000 -0.348603, -0.937271 0.000000 0.348603, -0.928977 0.000000 -0.370138, -0.928977 0.000000 0.370138,
 -0.909632 0.000000 -0.415415, -0.909632 0.000000 0.415415, -0.909626 0.000000 -0.415428, -0.909626 0.000000 0.415428, -0.902564 0.000000 -0.430556,
 -0.902564 0.000000 0.430556, -0.900969 0.000000 -0.433884, -0.900969 0.000000 0.433884, -0.891007 0.000000 -0.453990, -0.891007 0.000000 0.453990,
 -0.883512 0.000000 -0.468408, -0.883512 0.000000 0.468408, -0.841254 0.000000 -0.540641, -0.841254 0.000000 0.540641, -0.833112 0.551257 -0.045170,
 -0.833112 0.551257 0.045170, -0.827689 0.000000 -0.561187, -0.827689 0.000000 0.561187, -0.823344 0.551257 -0.134980, -0.823344 0.551257 0.134980,
 -0.809017 0.000000 -0.587785, -0.809017 0.000000 0.587785, -0.803924 0.551257 -0.223208, -0.803924 0.551257 0.223208, -0.781832 0.000000 -0.623490,
 -0.781832 0.000000 0.623490, -0.775078 0.551257 -0.308819, -0.775078 0.551257 0.308819, -0.762162 0.000000 -0.647386, -0.762162 0.000000 0.647386,
 -0.755750 0.000000 -0.654861, -0.755750 0.000000 0.654861, -0.737145 0.551257 -0.390810, -0.737145 0.551257 0.390810, -0.707107 0.000000 -0.707107,
 -0.707107 0.000000 0.707107, -0.690570 0.551257 -0.468218, -0.690570 0.551257 0.468218, -0.687699 0.000000 -0.725995, -0.687699 0.000000 0.725995,
 -0.654861 0.000000 -0.755750, -0.654861 0.000000 0.755750, -0.635899 0.551257 -0.540137, -0.635899 0.551257 0.540137, -0.623490 0.000000 -0.781832,
 -0.623490 0.000000 0.781832, -0.605174 0.000000 -0.796093, -0.605174 0.000000 0.796093, -0.587785 0.000000 -0.809017, -0.587785 0.000000 0.809017,
 -0.573772 0.551257 -0.605724, -0.573772 0.551257 0.605724, -0.540641 0.000000 -0.841254, -0.540641 0.000000 0.841254, -0.515554 0.000000 -0.856857,
 -0.515554 0.000000 0.856857, -0.504918 0.551257 -0.664209, -0.504918 0.551257 0.664209, -0.453990 0.000000 -0.891007, -0.453990 0.000000 0.891007,
 -0.433884 0.000000 -0.900969, -0.433884 0.000000 0.900969, -0.430145 0.551257 -0.714906, -0.430145 0.551257 0.714906, -0.419889 0.000000 -0.907575,
 -0.419889 0.000000 0.907575, -0.415415 0.000000 -0.909632, -0.415415 0.000000 0.909632, -0.386660 0.000000 -0.922222, -0.386660 0.000000 0.922222,
 -0.350328 0.551257 -0.757222, -0.350328 0.551257 0.757222, -0.319302 0.000000 -0.947653, -0.319302 0.000000 0.947653, -0.309017 0.000000 -0.951057,
 -0.309017 0.000000 0.951057, -0.281733 0.000000 -0.959493, -0.281733 0.000000 0.959493, -0.266405 0.551257 -0.790661, -0.266405 0.551257 0.790661,
 -0.222521 0.000000 -0.974928, -0.222521 0.000000 0.974928, -0.214970 0.000000 -0.976621, -0.214970 0.000000 0.976621, -0.179357 0.551257 -0.814829,
 -0.179357 0.551257 0.814829, -0.156434 0.000000 -0.987688, -0.156434 0.000000 0.987688, -0.142315 0.000000 -0.989821, -0.142315 0.000000 0.989821,
 -0.108119 0.000000 -0.994138, -0.108119 0.000000 0.994138, -0.090208 0.551257 -0.829444, -0.090208 0.551257 0.829444, 0.000000 -1.000000 0.000000,
 0.000000 -0.707107 -0.707107, 0.000000 -0.707107 0.707107, 0.000000 0.000000 -1.000000, 0.000000 0.000000 1.000000, 0.000000 0.551257 -0.834335,
 -0.000000 0.551257 0.834335, 0.000000 1.000000 0.000000, 0.090208 0.551257 -0.829444, 0.090208 0.551257 0.829444, 0.108119 0.000000 -0.994138,
 0.108119 0.000000 0.994138, 0.142315 0.000000 -0.989821, 0.142315 0.000000 0.989821, 0.156434 0.000000 -0.987688, 0.156434 0.000000 0.987688,
 0.179357 0.551257 -0.814829, 0.179357 0.551257 0.814829, 0.214970 0.000000 -0.976621, 0.214970 0.000000 0.976621, 0.222521 0.000000 -0.974928,
 0.222521 0.000000 0.974928, 0.266405 0.551257 -0.790661, 0.266405 0.551257 0.790661, 0.281733 0.000000 -0.959493, 0.281733 0.000000 0.959493,
 0.309017 0.000000 -0.951057, 0.309017 0.000000 0.951057, 0.319302 0.000000 -0.947653, 0.319302 0.000000 0.947653, 0.350328 0.551257 -0.757222,
 0.350328 0.551257 0.757222, 0.386660 0.000000 -0.922222, 0.386660 0.000000 0.922222, 0.415415 0.000000 -0.909632, 0.415415 0.000000 0.909632,
 0.419889 0.000000 -0.907575, 0.419889 0.000000 0.907575, 0.430145 0.551257 -0.714906, 0.430145 0.551257 0.714906, 0.433884 0.000000 -0.900969,
 0.433884 0.000000 0.900969, 0.453990 0.000000 -0.891007, 0.453990 0.000000 0.891007, 0.504918 0.551257 -0.664209, 0.504918 0.551257 0.664209,
 0.515554 0.000000 -0.856857, 0.515554 0.000000 0.856857, 0.540641 0.000000 -0.841254, 0.540641 0.000000 0.841254, 0.573772 0.551257 -0.605724,
 0.573772 0.551257 0.605724, 0.587785 0.000000 -0.809017, 0.587785 0.000000 0.809017, 0.605174 0.000000 -0.796093, 0.605174 0.000000 0.796093,
 0.623490 0.000000 -0.781832, 0.623490 0.000000 0.781832, 0.635899 0.551257 -0.540137, 0.635899 0.551257 0.540137, 0.654861 0.000000 -0.755750,
 0.654861 0.000000 0.755750, 0.687699 0.000000 -0.725995, 0.687699 0.000000 0.725995, 0.690570 0.551257 -0.468218, 0.690570 0.551257 0.468218,
 0.707107 0.000000 -0.707107, 0.707107 0.000000 0.707107, 0.737145 0.551257 -0.390810, 0.737145 0.551257 0.390810, 0.755750 0.000000 -0.654861,
 0.755750 0.000000 0.654861, 0.762162 0.000000 -0.647386, 0.762162 0.000000 0.647386, 0.775078 0.551257 -0.308819, 0.775078 0.551257 0.308819,
 0.781832 0.000000 -0.623490, 0.781832 0.000000 0.623490, 0.803924 0.551257 -0.223208, 0.803924 0.551257 0.223208, 0.809017 0.000000 -0.587785,
 0.809017 0.000000 0.587785, 0.823344 0.551257 -0.134980, 0.823344 0.551257 0.134980, 0.827689 0.000000 -0.561187, 0.827689 0.000000 0.561187,
 0.833112 0.551257 -0.045170, 0.833112 0.551257 0.045170, 0.841254 0.000000 -0.540641, 0.841254 0.000000 0.540641, 0.883512 0.000000 -0.468408,
 0.883512 0.000000 0.468408, 0.891007 0.000000 -0.453990, 0.891007 0.000000 0.453990, 0.900969 0.000000 -0.433884, 0.900969 0.000000 0.433884,
 0.902564 0.000000 -0.430556, 0.902564 0.000000 0.430556, 0.909626 0.000000 -0.415428, 0.909626 0.000000 0.415428, 0.909632 0.000000 -0.415415,
 0.909632 0.000000 0.415415, 0.928977 0.000000 -0.370138, 0.928977 0.000000 0.370138, 0.937271 0.000000 -0.348603, 0.937271 0.000000 0.348603,
 0.951057 0.000000 -0.309017, 0.951057 0.000000 0.309017, 0.959493 0.000000 -0.281733, 0.959493 0.000000 0.281733, 0.959497 0.000000 -0.281719,
 0.959497 0.000000 0.281719, 0.963550 0.000000 -0.267528, 0.963550 0.000000 0.267528, 0.964553 0.000000 -0.263889, 0.964553 0.000000 0.263889,
 0.974928 0.000000 -0.222521, 0.974928 0.000000 0.222521, 0.986827 0.000000 -0.161782, 0.986827 0.000000 0.161782, 0.987688 0.000000 -0.156434,
 0.987688 0.000000 0.156434, 0.989821 0.000000 -0.142315, 0.989821 0.000000 0.142315, 0.998533 0.000000 -0.054139, 0.998533 0.000000 0.054139,
 1.000000 0.000000 -0.000000
]
}
coordIndex [
 249, 244, 257, -1, 249, 257, 259, -1, 259, 257, 279, -1,
 259, 279, 281, -1, 281, 279, 305, -1, 281, 305, 307, -1,
 307, 305, 319, -1, 307, 319, 321, -1, 321, 319, 333, -1,
 321, 333, 335, -1, 335, 333, 343, -1, 335, 343, 345, -1,
 345, 343, 353, -1, 345, 353, 355, -1, 355, 353, 361, -1,
 355, 361, 363, -1, 363, 361, 367, -1, 363, 367, 369, -1,
 369, 367, 370, -1, 369, 370, 371, -1, 371, 370, 366, -1,
 371, 366, 368, -1, 368, 366, 360, -1, 368, 360, 362, -1,
 362, 360, 352, -1, 362, 352, 354, -1, 354, 352, 342, -1,
 354, 342, 344, -1, 344, 342, 332, -1, 344, 332, 334, -1,
 334, 332, 318, -1, 334, 318, 320, -1, 320, 318, 304, -1,
 320, 304, 306, -1, 306, 304, 278, -1, 306, 278, 280, -1,
 280, 278, 256, -1, 280, 256, 258, -1, 258, 256, 243, -1,
 258, 243, 246, -1, 245, 241, 271, -1, 245, 271, 255, -1,
 255, 271, 297, -1, 255, 297, 277, -1, 277, 297, 327, -1,
 277, 327, 303, -1, 303, 327, 351, -1, 303, 351, 323, -1,
 323, 351, 379, -1, 323, 379, 337, -1, 337, 379, 413, -1,
 337, 413, 347, -1, 347, 413, 429, -1, 347, 429, 365, -1,
 365, 429, 443, -1, 365, 443, 381, -1, 381, 443, 455, -1,
 381, 455, 393, -1, 393, 455, 459, -1, 393, 459, 415, -1,
 415, 459, 469, -1, 415, 469, 421, -1, 421, 469, 473, -1,
 421, 473, 423, -1, 423, 473, 477, -1, 423, 477, 425, -1,
 425, 477, 481, -1, 425, 481, 431, -1, 431, 481, 480, -1,
 431, 480, 430, -1, 430, 480, 476, -1, 430, 476, 424, -1,
 424, 476, 472, -1, 424, 472, 422, -1, 422, 472, 468, -1,
 422, 468, 420, -1, 420, 468, 458, -1, 420, 458, 414, -1,
 414, 458, 454, -1, 414, 454, 392, -1, 392, 454, 442, -1,
 392, 442, 380, -1, 380, 442, 428, -1, 380, 428, 364, -1,
 364, 428, 412, -1, 364, 412, 346, -1, 346, 412, 378, -1,
 346, 378, 336, -1, 336, 378, 350, -1, 336, 350, 322, -1,
 322, 350, 326, -1, 322, 326, 302, -1, 302, 326, 296, -1,
 302, 296, 276, -1, 276, 296, 270, -1, 276, 270, 254, -1,
 254, 270, 240, -1, 254, 240, 242, -1, 237, 247, 228, -1,
 228, 247, 230, -1, 228, 230, 214, -1, 214, 230, 216, -1,
 214, 216, 206, -1, 206, 216, 208, -1, 206, 208, 192, -1,
 192, 208, 194, -1, 192, 194, 188, -1, 188, 194, 190, -1,
 188, 190, 180, -1, 180, 190, 182, -1, 180, 182, 172, -1,
 172, 182, 173, -1, 172, 173, 181, -1, 181, 173, 183, -1,
 181, 183, 189, -1, 189, 183, 191, -1, 189, 191, 193, -1,
 193, 191, 195, -1, 193, 195, 207, -1, 207, 195, 209, -1,
 207, 209, 215, -1, 215, 209, 217, -1, 215, 217, 229, -1,
 229, 217, 231, -1, 229, 231, 238, -1, 238, 231, 248, -1,
 170, 168, 196, -1, 92, 98, 108, -1, 108, 98, 106, -1,
 108, 106, 124, -1, 124, 106, 122, -1, 124, 122, 142, -1,
 142, 122, 140, -1, 142, 140, 152, -1, 152, 140, 150, -1,
 152, 150, 166, -1, 166, 150, 164, -1, 166, 164, 198, -1,
 96, 98, 94, -1, 94, 98, 92, -1, 94, 92, 90, -1,
 90, 92, 84, -1, 76, 82, 84, -1, 84, 82, 86, -1,
 84, 86, 90, -1, 77, 85, 87, -1, 93, 95, 85, -1,
 85, 95, 91, -1, 85, 91, 87, -1, 97, 95, 99, -1,
 99, 95, 93, -1, 99, 93, 107, -1, 107, 93, 109, -1,
 107, 109, 123, -1, 123, 109, 125, -1, 123, 125, 141, -1,
 141, 125, 143, -1, 141, 143, 151, -1, 151, 143, 153, -1,
 151, 153, 165, -1, 165, 153, 167, -1, 165, 167, 171, -1,
 171, 167, 199, -1, 171, 199, 169, -1, 239, 234, 221, -1,
 221, 234, 219, -1, 221, 219, 199, -1, 199, 219, 197, -1,
 199, 197, 169, -1, 233, 236, 218, -1, 218, 236, 220, -1,
 218, 220, 196, -1, 196, 220, 198, -1, 196, 198, 170, -1,
 170, 198, 164, -1, 87, 83, 77, -1, 77, 83, 75, -1,
 77, 75, 73, -1, 73, 75, 72, -1, 73, 72, 76, -1,
 76, 72, 74, -1, 76, 74, 82, -1, 241, 235, 269, -1,
 241, 269, 271, -1, 271, 269, 295, -1, 271, 295, 297, -1,
 297, 295, 325, -1, 297, 325, 327, -1, 327, 325, 349, -1,
 327, 349, 351, -1, 351, 349, 377, -1, 351, 377, 379, -1,
 379, 377, 411, -1, 379, 411, 413, -1, 413, 411, 427, -1,
 413, 427, 429, -1, 429, 427, 441, -1, 429, 441, 443, -1,
 443, 441, 453, -1, 443, 453, 455, -1, 455, 453, 457, -1,
 455, 457, 459, -1, 459, 457, 467, -1, 459, 467, 469, -1,
 469, 467, 471, -1, 469, 471, 473, -1, 473, 471, 475, -1,
 473, 475, 477, -1, 477, 475, 479, -1, 477, 479, 481, -1,
 481, 479, 478, -1, 481, 478, 480, -1, 480, 478, 474, -1,
 480, 474, 476, -1, 476, 474, 470, -1, 476, 470, 472, -1,
 472, 470, 466, -1, 472, 466, 468, -1, 468, 466, 456, -1,
 468, 456, 458, -1, 458, 456, 452, -1, 458, 452, 454, -1,
 454, 452, 440, -1, 454, 440, 442, -1, 442, 440, 426, -1,
 442, 426, 428, -1, 428, 426, 410, -1, 428, 410, 412, -1,
 412, 410, 376, -1, 412, 376, 378, -1, 378, 376, 348, -1,
 378, 348, 350, -1, 350, 348, 324, -1, 350, 324, 326, -1,
 326, 324, 294, -1, 326, 294, 296, -1, 296, 294, 268, -1,
 296, 268, 270, -1, 270, 268, 232, -1, 270, 232, 240, -1,
 240, 232, 210, -1, 240, 210, 212, -1, 212, 210, 184, -1,
 212, 184, 186, -1, 186, 184, 154, -1, 186, 154, 156, -1,
 156, 154, 130, -1, 156, 130, 132, -1, 132, 130, 102, -1,
 132, 102, 104, -1, 104, 102, 68, -1, 104, 68, 70, -1,
 70, 68, 52, -1, 70, 52, 54, -1, 54, 52, 38, -1,
 54, 38, 40, -1, 40, 38, 26, -1, 40, 26, 28, -1,
 28, 26, 22, -1, 28, 22, 24, -1, 24, 22, 12, -1,
 24, 12, 14, -1, 14, 12, 8, -1, 14, 8, 10, -1,
 10, 8, 4, -1, 10, 4, 6, -1, 6, 4, 0, -1,
 6, 0, 2, -1, 2, 0, 1, -1, 2, 1, 3, -1,
 3, 1, 5, -1, 3, 5, 7, -1, 7, 5, 9, -1,
 7, 9, 11, -1, 11, 9, 13, -1, 11, 13, 15, -1,
 15, 13, 23, -1, 15, 23, 25, -1, 25, 23, 27, -1,
 25, 27, 29, -1, 29, 27, 39, -1, 29, 39, 41, -1,
 41, 39, 53, -1, 41, 53, 55, -1, 55, 53, 69, -1,
 55, 69, 71, -1, 71, 69, 103, -1, 71, 103, 105, -1,
 105, 103, 131, -1, 105, 131, 133, -1, 133, 131, 155, -1,
 133, 155, 157, -1, 157, 155, 185, -1, 157, 185, 187, -1,
 187, 185, 211, -1, 187, 211, 213, -1, 213, 211, 235, -1,
 213, 235, 241, -1, 234, 239, 261, -1, 261, 239, 263, -1,
 261, 263, 283, -1, 283, 263, 285, -1, 311, 283, 313, -1,
 313, 283, 285, -1, 313, 285, 315, -1, 315, 285, 317, -1,
 315, 317, 329, -1, 329, 317, 331, -1, 329, 331, 339, -1,
 339, 331, 341, -1, 339, 341, 357, -1, 357, 341, 359, -1,
 357, 359, 373, -1, 373, 359, 375, -1, 373, 375, 385, -1,
 385, 375, 389, -1, 383, 385, 387, -1, 387, 385, 389, -1,
 387, 389, 391, -1, 391, 389, 397, -1, 407, 399, 397, -1,
 397, 399, 395, -1, 397, 395, 391, -1, 406, 396, 394, -1,
 388, 386, 396, -1, 396, 386, 390, -1, 396, 390, 394, -1,
 382, 386, 384, -1, 384, 386, 388, -1, 384, 388, 372, -1,
 372, 388, 374, -1, 372, 374, 356, -1, 356, 374, 358, -1,
 356, 358, 338, -1, 338, 358, 340, -1, 338, 340, 328, -1,
 328, 340, 330, -1, 328, 330, 314, -1, 314, 330, 316, -1,
 314, 316, 312, -1, 312, 316, 284, -1, 312, 284, 310, -1,
 236, 233, 262, -1, 262, 233, 260, -1, 262, 260, 284, -1,
 284, 260, 282, -1, 284, 282, 310, -1, 394, 398, 406, -1,
 406, 398, 404, -1, 406, 404, 409, -1, 409, 404, 408, -1,
 409, 408, 407, -1, 407, 408, 405, -1, 407, 405, 399, -1,
 4, 8, 20, -1, 20, 8, 12, -1, 20, 12, 31, -1,
 31, 12, 22, -1, 31, 22, 30, -1, 196, 184, 218, -1,
 218, 184, 210, -1, 218, 210, 233, -1, 233, 210, 232, -1,
 233, 232, 260, -1, 68, 102, 168, -1, 168, 102, 130, -1,
 168, 130, 196, -1, 196, 130, 154, -1, 196, 154, 184, -1,
 9, 5, 21, -1, 21, 5, 1, -1, 21, 1, 20, -1,
 20, 1, 0, -1, 20, 0, 4, -1, 475, 471, 465, -1,
 465, 471, 467, -1, 465, 467, 446, -1, 446, 467, 457, -1,
 446, 457, 447, -1, 22, 26, 30, -1, 30, 26, 38, -1,
 30, 38, 168, -1, 168, 38, 52, -1, 168, 52, 68, -1,
 185, 197, 219, -1, 283, 295, 261, -1, 261, 295, 269, -1,
 261, 269, 234, -1, 234, 269, 235, -1, 234, 235, 219, -1,
 219, 235, 211, -1, 219, 211, 185, -1, 69, 53, 169, -1,
 169, 53, 39, -1, 169, 39, 33, -1, 33, 39, 27, -1,
 33, 27, 32, -1, 32, 27, 23, -1, 32, 23, 21, -1,
 21, 23, 13, -1, 21, 13, 9, -1, 457, 453, 447, -1,
 447, 453, 441, -1, 447, 441, 311, -1, 311, 441, 427, -1,
 311, 427, 411, -1, 470, 474, 464, -1, 464, 474, 478, -1,
 464, 478, 465, -1, 465, 478, 479, -1, 465, 479, 475, -1,
 232, 268, 260, -1, 260, 268, 294, -1, 260, 294, 282, -1,
 185, 155, 197, -1, 197, 155, 131, -1, 197, 131, 169, -1,
 169, 131, 103, -1, 169, 103, 69, -1, 411, 377, 311, -1,
 311, 377, 349, -1, 311, 349, 283, -1, 283, 349, 325, -1,
 283, 325, 295, -1, 294, 324, 282, -1, 282, 324, 348, -1,
 282, 348, 310, -1, 310, 348, 376, -1, 310, 376, 410, -1,
 410, 426, 310, -1, 310, 426, 440, -1, 310, 440, 444, -1,
 444, 440, 452, -1, 444, 452, 445, -1, 445, 452, 456, -1,
 445, 456, 464, -1, 464, 456, 466, -1, 464, 466, 470, -1,
 81, 32, 45, -1, 45, 32, 43, -1, 32, 21, 43, -1,
 43, 21, 19, -1, 43, 19, 79, -1, 79, 19, 97, -1,
 79, 97, 81, -1, 81, 97, 99, -1, 81, 99, 32, -1,
 32, 99, 36, -1, 96, 18, 42, -1, 42, 18, 44, -1,
 44, 18, 20, -1, 44, 20, 80, -1, 80, 20, 31, -1,
 80, 31, 35, -1, 42, 78, 96, -1, 96, 78, 80, -1,
 96, 80, 98, -1, 98, 80, 35, -1, 402, 445, 438, -1,
 438, 445, 436, -1, 445, 464, 436, -1, 436, 464, 462, -1,
 436, 462, 400, -1, 400, 462, 382, -1, 400, 382, 402, -1,
 402, 382, 384, -1, 402, 384, 445, -1, 445, 384, 449, -1,
 398, 460, 404, -1, 404, 460, 408, -1, 408, 460, 405, -1,
 405, 460, 461, -1, 405, 461, 399, -1, 460, 462, 461, -1,
 461, 462, 464, -1, 461, 464, 463, -1, 463, 464, 465, -1,
 19, 21, 17, -1, 17, 21, 20, -1, 17, 20, 16, -1,
 16, 20, 18, -1, 403, 446, 450, -1, 446, 403, 465, -1,
 465, 403, 439, -1, 465, 439, 463, -1, 463, 439, 437, -1,
 463, 437, 383, -1, 437, 401, 383, -1, 383, 401, 403, -1,
 383, 403, 385, -1, 385, 403, 450, -1, 82, 74, 16, -1,
 16, 74, 72, -1, 16, 72, 17, -1, 17, 72, 75, -1,
 17, 75, 83, -1, 313, 315, 451, -1, 451, 315, 329, -1,
 451, 329, 339, -1, 385, 450, 373, -1, 373, 450, 451, -1,
 373, 451, 357, -1, 357, 451, 339, -1, 447, 311, 451, -1,
 451, 311, 313, -1, 451, 450, 447, -1, 447, 450, 446, -1,
 37, 171, 33, -1, 33, 171, 169, -1, 37, 36, 99, -1,
 99, 107, 37, -1, 37, 107, 123, -1, 37, 123, 141, -1,
 141, 151, 37, -1, 37, 151, 165, -1, 37, 165, 171, -1,
 36, 37, 32, -1, 32, 37, 33, -1, 463, 383, 387, -1,
 399, 461, 395, -1, 395, 461, 463, -1, 395, 463, 391, -1,
 391, 463, 387, -1, 386, 382, 462, -1, 460, 398, 394, -1,
 460, 394, 462, -1, 462, 394, 390, -1, 462, 390, 386, -1,
 95, 97, 19, -1, 17, 83, 87, -1, 17, 87, 19, -1,
 19, 87, 91, -1, 19, 91, 95, -1, 18, 96, 94, -1,
 82, 16, 86, -1, 86, 16, 18, -1, 86, 18, 90, -1,
 90, 18, 94, -1, 435, 434, 433, -1, 433, 434, 432, -1,
 439, 403, 419, -1, 402, 438, 418, -1, 418, 438, 434, -1,
 418, 434, 419, -1, 419, 434, 435, -1, 419, 435, 439, -1,
 417, 416, 419, -1, 419, 416, 418, -1, 401, 437, 433, -1,
 436, 400, 432, -1, 432, 400, 416, -1, 432, 416, 433, -1,
 433, 416, 417, -1, 433, 417, 401, -1, 47, 46, 49, -1,
 49, 46, 48, -1, 43, 79, 63, -1, 78, 42, 62, -1,
 62, 42, 46, -1, 62, 46, 63, -1, 63, 46, 47, -1,
 63, 47, 43, -1, 65, 64, 63, -1, 63, 64, 62, -1,
 81, 45, 49, -1, 44, 80, 48, -1, 48, 80, 64, -1,
 48, 64, 49, -1, 49, 64, 65, -1, 49, 65, 81, -1,
 188, 108, 192, -1, 192, 108, 124, -1, 192, 124, 206, -1,
 264, 330, 272, -1, 272, 330, 340, -1, 272, 340, 286, -1,
 237, 262, 250, -1, 250, 262, 284, -1, 250, 284, 264, -1,
 264, 284, 316, -1, 264, 316, 330, -1, 228, 220, 237, -1,
 237, 220, 236, -1, 237, 236, 262, -1, 124, 142, 206, -1,
 206, 142, 152, -1, 206, 152, 214, -1, 214, 152, 166, -1,
 214, 166, 228, -1, 228, 166, 198, -1, 228, 198, 220, -1,
 172, 76, 180, -1, 180, 76, 84, -1, 180, 84, 188, -1,
 188, 84, 92, -1, 188, 92, 108, -1, 181, 77, 172, -1,
 172, 77, 73, -1, 172, 73, 76, -1, 193, 109, 189, -1,
 189, 109, 93, -1, 189, 93, 181, -1, 181, 93, 85, -1,
 181, 85, 77, -1, 215, 153, 207, -1, 207, 153, 143, -1,
 207, 143, 193, -1, 193, 143, 125, -1, 193, 125, 109, -1,
 238, 221, 229, -1, 229, 221, 199, -1, 229, 199, 215, -1,
 215, 199, 167, -1, 215, 167, 153, -1, 273, 331, 265, -1,
 265, 331, 317, -1, 265, 317, 251, -1, 291, 375, 287, -1,
 287, 375, 359, -1, 287, 359, 273, -1, 273, 359, 341, -1,
 273, 341, 331, -1, 317, 285, 251, -1, 251, 285, 263, -1,
 251, 263, 238, -1, 238, 263, 239, -1, 238, 239, 221, -1,
 308, 407, 299, -1, 299, 407, 397, -1, 299, 397, 291, -1,
 291, 397, 389, -1, 291, 389, 375, -1, 298, 406, 308, -1,
 308, 406, 409, -1, 308, 409, 407, -1, 340, 358, 286, -1,
 286, 358, 374, -1, 286, 374, 290, -1, 290, 374, 388, -1,
 290, 388, 298, -1, 298, 388, 396, -1, 298, 396, 406, -1,
 238, 248, 251, -1, 251, 248, 253, -1, 251, 253, 265, -1,
 265, 253, 267, -1, 265, 267, 273, -1, 273, 267, 275, -1,
 273, 275, 287, -1, 287, 275, 289, -1, 287, 289, 291, -1,
 291, 289, 293, -1, 291, 293, 299, -1, 299, 293, 301, -1,
 299, 301, 308, -1, 308, 301, 309, -1, 308, 309, 298, -1,
 298, 309, 300, -1, 298, 300, 290, -1, 290, 300, 292, -1,
 290, 292, 286, -1, 286, 292, 288, -1, 286, 288, 272, -1,
 272, 288, 274, -1, 272, 274, 264, -1, 264, 274, 266, -1,
 264, 266, 250, -1, 250, 266, 252, -1, 250, 252, 237, -1,
 237, 252, 247, -1, 43, 47, 45, -1, 45, 47, 49, -1,
 81, 65, 79, -1, 79, 65, 63, -1, 419, 403, 417, -1,
 417, 403, 401, -1, 433, 437, 435, -1, 435, 437, 439, -1,
 46, 42, 48, -1, 48, 42, 44, -1, 64, 80, 62, -1,
 62, 80, 78, -1, 402, 418, 400, -1, 400, 418, 416, -1,
 436, 432, 438, -1, 438, 432, 434, -1, 444, 448, 310, -1,
 310, 448, 312, -1, 449, 448, 445, -1, 445, 448, 444, -1,
 356, 338, 448, -1, 338, 328, 448, -1, 448, 328, 314, -1,
 448, 314, 312, -1, 449, 384, 448, -1, 448, 384, 372, -1,
 448, 372, 356, -1, 170, 164, 34, -1, 34, 164, 150, -1,
 34, 150, 140, -1, 98, 35, 106, -1, 106, 35, 34, -1,
 106, 34, 122, -1, 122, 34, 140, -1, 34, 30, 170, -1,
 170, 30, 168, -1, 34, 35, 30, -1, 30, 35, 31, -1,
 242, 240, 212, -1, 242, 212, 226, -1, 226, 212, 186, -1,
 226, 186, 204, -1, 204, 186, 156, -1, 204, 156, 178, -1,
 178, 156, 132, -1, 178, 132, 158, -1, 158, 132, 104, -1,
 158, 104, 144, -1, 144, 104, 70, -1, 144, 70, 134, -1,
 134, 70, 54, -1, 134, 54, 116, -1, 116, 54, 40, -1,
 116, 40, 100, -1, 100, 40, 28, -1, 100, 28, 88, -1,
 88, 28, 24, -1, 88, 24, 66, -1, 66, 24, 14, -1,
 66, 14, 60, -1, 60, 14, 10, -1, 60, 10, 58, -1,
 58, 10, 6, -1, 58, 6, 56, -1, 56, 6, 2, -1,
 56, 2, 50, -1, 50, 2, 3, -1, 50, 3, 51, -1,
 51, 3, 7, -1, 51, 7, 57, -1, 57, 7, 11, -1,
 57, 11, 59, -1, 59, 11, 15, -1, 59, 15, 61, -1,
 61, 15, 25, -1, 61, 25, 67, -1, 67, 25, 29, -1,
 67, 29, 89, -1, 89, 29, 41, -1, 89, 41, 101, -1,
 101, 41, 55, -1, 101, 55, 117, -1, 117, 55, 71, -1,
 117, 71, 135, -1, 135, 71, 105, -1, 135, 105, 145, -1,
 145, 105, 133, -1, 145, 133, 159, -1, 159, 133, 157, -1,
 159, 157, 179, -1, 179, 157, 187, -1, 179, 187, 205, -1,
 205, 187, 213, -1, 205, 213, 227, -1, 227, 213, 241, -1,
 227, 241, 245, -1, 305, 337, 319, -1, 319, 337, 347, -1,
 319, 347, 333, -1, 257, 277, 279, -1, 279, 277, 303, -1,
 279, 303, 305, -1, 305, 303, 323, -1, 305, 323, 337, -1,
 126, 60, 118, -1, 118, 60, 58, -1, 118, 58, 112, -1,
 112, 58, 56, -1, 112, 56, 110, -1, 318, 336, 304, -1,
 304, 336, 322, -1, 304, 322, 278, -1, 347, 365, 333, -1,
 333, 365, 381, -1, 333, 381, 343, -1, 343, 381, 393, -1,
 343, 393, 353, -1, 146, 100, 136, -1, 136, 100, 88, -1,
 136, 88, 126, -1, 126, 88, 66, -1, 126, 66, 60, -1,
 201, 205, 223, -1, 223, 205, 227, -1, 223, 227, 244, -1,
 244, 227, 245, -1, 244, 245, 257, -1, 257, 245, 255, -1,
 257, 255, 277, -1, 137, 101, 147, -1, 147, 101, 117, -1,
 147, 117, 161, -1, 174, 144, 160, -1, 160, 144, 134, -1,
 160, 134, 146, -1, 146, 134, 116, -1, 146, 116, 100, -1,
 222, 204, 200, -1, 200, 204, 178, -1, 200, 178, 174, -1,
 174, 178, 158, -1, 174, 158, 144, -1, 322, 302, 278, -1,
 278, 302, 276, -1, 278, 276, 256, -1, 256, 276, 254, -1,
 256, 254, 243, -1, 243, 254, 242, -1, 243, 242, 222, -1,
 222, 242, 226, -1, 222, 226, 204, -1, 342, 380, 332, -1,
 332, 380, 364, -1, 332, 364, 318, -1, 318, 364, 346, -1,
 318, 346, 336, -1, 360, 420, 352, -1, 352, 420, 414, -1,
 352, 414, 342, -1, 342, 414, 392, -1, 342, 392, 380, -1,
 367, 431, 370, -1, 370, 431, 430, -1, 370, 430, 366, -1,
 366, 430, 424, -1, 366, 424, 360, -1, 360, 424, 422, -1,
 360, 422, 420, -1, 393, 415, 353, -1, 353, 415, 421, -1,
 353, 421, 361, -1, 361, 421, 423, -1, 361, 423, 367, -1,
 367, 423, 425, -1, 367, 425, 431, -1, 117, 135, 161, -1,
 161, 135, 145, -1, 161, 145, 175, -1, 175, 145, 159, -1,
 175, 159, 201, -1, 201, 159, 179, -1, 201, 179, 205, -1,
 119, 61, 127, -1, 127, 61, 67, -1, 127, 67, 137, -1,
 137, 67, 89, -1, 137, 89, 101, -1, 56, 50, 110, -1,
 110, 50, 51, -1, 110, 51, 113, -1, 113, 51, 57, -1,
 113, 57, 119, -1, 119, 57, 59, -1, 119, 59, 61, -1,
 246, 243, 222, -1, 246, 222, 224, -1, 224, 222, 200, -1,
 224, 200, 202, -1, 202, 200, 174, -1, 202, 174, 176, -1,
 176, 174, 160, -1, 176, 160, 162, -1, 162, 160, 146, -1,
 162, 146, 148, -1, 148, 146, 136, -1, 148, 136, 138, -1,
 138, 136, 126, -1, 138, 126, 128, -1, 128, 126, 118, -1,
 128, 118, 120, -1, 120, 118, 112, -1, 120, 112, 114, -1,
 114, 112, 110, -1, 114, 110, 111, -1, 111, 110, 113, -1,
 111, 113, 115, -1, 115, 113, 119, -1, 115, 119, 121, -1,
 121, 119, 127, -1, 121, 127, 129, -1, 129, 127, 137, -1,
 129, 137, 139, -1, 139, 137, 147, -1, 139, 147, 149, -1,
 149, 147, 161, -1, 149, 161, 163, -1, 163, 161, 175, -1,
 163, 175, 177, -1, 177, 175, 201, -1, 177, 201, 203, -1,
 203, 201, 223, -1, 203, 223, 225, -1, 225, 223, 244, -1,
 225, 244, 249, -1, 217, 203, 231, -1, 231, 203, 225, -1,
 231, 225, 248, -1, 248, 225, 249, -1, 248, 249, 253, -1,
 208, 148, 194, -1, 194, 148, 138, -1, 194, 138, 190, -1,
 293, 363, 301, -1, 301, 363, 369, -1, 301, 369, 309, -1,
 309, 369, 371, -1, 309, 371, 300, -1, 249, 259, 253, -1,
 253, 259, 281, -1, 253, 281, 267, -1, 267, 281, 307, -1,
 267, 307, 275, -1, 183, 121, 191, -1, 191, 121, 129, -1,
 191, 129, 195, -1, 138, 128, 190, -1, 190, 128, 120, -1,
 190, 120, 182, -1, 182, 120, 114, -1, 182, 114, 173, -1,
 173, 114, 111, -1, 173, 111, 183, -1, 183, 111, 115, -1,
 183, 115, 121, -1, 266, 280, 252, -1, 252, 280, 258, -1,
 252, 258, 247, -1, 247, 258, 246, -1, 247, 246, 230, -1,
 288, 334, 274, -1, 274, 334, 320, -1, 274, 320, 266, -1,
 266, 320, 306, -1, 266, 306, 280, -1, 307, 321, 275, -1,
 275, 321, 335, -1, 275, 335, 289, -1, 289, 335, 345, -1,
 289, 345, 293, -1, 293, 345, 355, -1, 293, 355, 363, -1,
 129, 139, 195, -1, 195, 139, 149, -1, 195, 149, 209, -1,
 209, 149, 163, -1, 209, 163, 217, -1, 217, 163, 177, -1,
 217, 177, 203, -1, 246, 224, 230, -1, 230, 224, 202, -1,
 230, 202, 216, -1, 216, 202, 176, -1, 216, 176, 208, -1,
 208, 176, 162, -1, 208, 162, 148, -1, 371, 368, 300, -1,
 300, 368, 362, -1, 300, 362, 292, -1, 292, 362, 354, -1,
 292, 354, 288, -1, 288, 354, 344, -1, 288, 344, 334, -1
]
normalIndex [
 123, 123, 134, -1, 123, 134, 134, -1, 134, 134, 146, -1,
 134, 146, 146, -1, 146, 146, 162, -1, 146, 162, 162, -1,
 162, 162, 172, -1, 162, 172, 172, -1, 172, 172, 186, -1,
 172, 186, 186, -1, 186, 186, 200, -1, 186, 200, 200, -1,
 200, 200, 212, -1, 200, 212, 212, -1, 212, 212, 226, -1,
 212, 226, 226, -1, 226, 226, 240, -1, 226, 240, 240, -1,
 240, 240, 245, -1, 240, 245, 245, -1, 245, 245, 239, -1,
 245, 239, 239, -1, 239, 239, 225, -1, 239, 225, 225, -1,
 225, 225, 211, -1, 225, 211, 211, -1, 211, 211, 199, -1,
 211, 199, 199, -1, 199, 199, 185, -1, 199, 185, 185, -1,
 185, 185, 171, -1, 185, 171, 171, -1, 171, 171, 161, -1,
 171, 161, 161, -1, 161, 161, 145, -1, 161, 145, 145, -1,
 145, 145, 133, -1, 145, 133, 133, -1, 133, 133, 122, -1,
 133, 122, 122, -1, 125, 125, 128, -1, 125, 128, 128, -1,
 128, 128, 136, -1, 128, 136, 136, -1, 136, 136, 142, -1,
 136, 142, 142, -1, 142, 142, 150, -1, 142, 150, 150, -1,
 150, 150, 158, -1, 150, 158, 158, -1, 158, 158, 164, -1,
 158, 164, 164, -1, 164, 164, 170, -1, 164, 170, 170, -1,
 170, 170, 178, -1, 170, 178, 178, -1, 178, 178, 184, -1,
 178, 184, 184, -1, 184, 184, 188, -1, 184, 188, 188, -1,
 188, 188, 194, -1, 188, 194, 194, -1, 194, 194, 198, -1,
 194, 198, 198, -1, 198, 198, 202, -1, 198, 202, 202, -1,
 202, 202, 206, -1, 202, 206, 206, -1, 206, 206, 205, -1,
 206, 205, 205, -1, 205, 205, 201, -1, 205, 201, 201, -1,
 201, 201, 197, -1, 201, 197, 197, -1, 197, 197, 193, -1,
 197, 193, 193, -1, 193, 193, 187, -1, 193, 187, 187, -1,
 187, 187, 183, -1, 187, 183, 183, -1, 183, 183, 177, -1,
 183, 177, 177, -1, 177, 177, 169, -1, 177, 169, 169, -1,
 169, 169, 163, -1, 169, 163, 163, -1, 163, 163, 157, -1,
 163, 157, 157, -1, 157, 157, 149, -1, 157, 149, 149, -1,
 149, 149, 141, -1, 149, 141, 141, -1, 141, 141, 135, -1,
 141, 135, 135, -1, 135, 135, 127, -1, 135, 127, 127, -1,
 127, 127, 124, -1, 127, 124, 124, -1, 123, 123, 140, -1,
 140, 123, 140, -1, 140, 140, 160, -1, 160, 140, 160, -1,
 160, 160, 176, -1, 176, 160, 176, -1, 176, 176, 196, -1,
 196, 176, 196, -1, 196, 196, 214, -1, 214, 196, 214, -1,
 214, 214, 236, -1, 236, 214, 236, -1, 236, 236, 245, -1,
 245, 236, 245, -1, 245, 245, 235, -1, 235, 245, 235, -1,
 235, 235, 213, -1, 213, 235, 213, -1, 213, 213, 195, -1,
 195, 213, 195, -1, 195, 195, 175, -1, 175, 195, 175, -1,
 175, 175, 159, -1, 159, 175, 159, -1, 159, 159, 139, -1,
 139, 159, 139, -1, 139, 139, 122, -1, 122, 139, 122, -1,
 152, 152, 144, -1, 220, 216, 208, -1, 208, 216, 208, -1,
 208, 208, 190, -1, 190, 208, 190, -1, 190, 190, 180, -1,
 180, 190, 180, -1, 180, 180, 168, -1, 168, 180, 168, -1,
 168, 168, 154, -1, 154, 168, 154, -1, 154, 154, 144, -1,
 216, 216, 218, -1, 218, 216, 220, -1, 218, 220, 224, -1,
 224, 220, 228, -1, 242, 234, 228, -1, 228, 234, 230, -1,
 228, 230, 224, -1, 241, 227, 229, -1, 219, 217, 227, -1,
 227, 217, 223, -1, 227, 223, 229, -1, 215, 217, 215, -1,
 215, 217, 219, -1, 215, 219, 207, -1, 207, 219, 207, -1,
 207, 207, 189, -1, 189, 207, 189, -1, 189, 189, 179, -1,
 179, 189, 179, -1, 179, 179, 167, -1, 167, 179, 167, -1,
 167, 167, 153, -1, 153, 167, 153, -1, 153, 153, 151, -1,
 151, 153, 143, -1, 151, 143, 151, -1, 122, 122, 131, -1,
 131, 122, 131, -1, 131, 131, 143, -1, 143, 131, 143, -1,
 143, 143, 151, -1, 123, 123, 132, -1, 132, 123, 132, -1,
 132, 132, 144, -1, 144, 132, 144, -1, 144, 144, 152, -1,
 152, 144, 154, -1, 229, 233, 241, -1, 241, 233, 241, -1,
 241, 241, 245, -1, 245, 241, 245, -1, 245, 245, 242, -1,
 242, 245, 242, -1, 242, 242, 234, -1, 123, 123, 130, -1,
 123, 130, 130, -1, 130, 130, 138, -1, 130, 138, 138, -1,
 138, 138, 148, -1, 138, 148, 148, -1, 148, 148, 156, -1,
 148, 156, 156, -1, 156, 156, 166, -1, 156, 166, 166, -1,
 166, 166, 174, -1, 166, 174, 174, -1, 174, 174, 182, -1,
 174, 182, 182, -1, 182, 182, 192, -1, 182, 192, 192, -1,
 192, 192, 204, -1, 192, 204, 204, -1, 204, 204, 210, -1,
 204, 210, 210, -1, 210, 210, 222, -1, 210, 222, 222, -1,
 222, 222, 232, -1, 222, 232, 232, -1, 232, 232, 238, -1,
 232, 238, 238, -1, 238, 238, 244, -1, 238, 244, 244, -1,
 244, 244, 243, -1, 244, 243, 243, -1, 243, 243, 237, -1,
 243, 237, 237, -1, 237, 237, 231, -1, 237, 231, 231, -1,
 231, 231, 221, -1, 231, 221, 221, -1, 221, 221, 209, -1,
 221, 209, 209, -1, 209, 209, 203, -1, 209, 203, 203, -1,
 203, 203, 191, -1, 203, 191, 191, -1, 191, 191, 181, -1,
 191, 181, 181, -1, 181, 181, 173, -1, 181, 173, 173, -1,
 173, 173, 165, -1, 173, 165, 165, -1, 165, 165, 155, -1,
 165, 155, 155, -1, 155, 155, 147, -1, 155, 147, 147, -1,
 147, 147, 137, -1, 147, 137, 137, -1, 137, 137, 129, -1,
 137, 129, 129, -1, 129, 129, 122, -1, 129, 122, 122, -1,
 122, 122, 115, -1, 122, 115, 115, -1, 115, 115, 107, -1,
 115, 107, 107, -1, 107, 107, 97, -1, 107, 97, 97, -1,
 97, 97, 89, -1, 97, 89, 89, -1, 89, 89, 79, -1,
 89, 79, 79, -1, 79, 79, 71, -1, 79, 71, 71, -1,
 71, 71, 63, -1, 71, 63, 63, -1, 63, 63, 53, -1,
 63, 53, 53, -1, 53, 53, 41, -1, 53, 41, 41, -1,
 41, 41, 35, -1, 41, 35, 35, -1, 35, 35, 23, -1,
 35, 23, 23, -1, 23, 23, 13, -1, 23, 13, 13, -1,
 13, 13, 7, -1, 13, 7, 7, -1, 7, 7, 1, -1,
 7, 1, 1, -1, 1, 1, 2, -1, 1, 2, 2, -1,
 2, 2, 8, -1, 2, 8, 8, -1, 8, 8, 14, -1,
 8, 14, 14, -1, 14, 14, 24, -1, 14, 24, 24, -1,
 24, 24, 36, -1, 24, 36, 36, -1, 36, 36, 42, -1,
 36, 42, 42, -1, 42, 42, 54, -1, 42, 54, 54, -1,
 54, 54, 64, -1, 54, 64, 64, -1, 64, 64, 72, -1,
 64, 72, 72, -1, 72, 72, 80, -1, 72, 80, 80, -1,
 80, 80, 90, -1, 80, 90, 90, -1, 90, 90, 98, -1,
 90, 98, 98, -1, 98, 98, 108, -1, 98, 108, 108, -1,
 108, 108, 116, -1, 108, 116, 116, -1, 116, 116, 123, -1,
 116, 123, 123, -1, 122, 122, 113, -1, 113, 122, 113, -1,
 113, 113, 101, -1, 101, 113, 101, -1, 93, 101, 93, -1,
 93, 101, 101, -1, 93, 101, 91, -1, 91, 101, 91, -1,
 91, 91, 77, -1, 77, 91, 77, -1, 77, 77, 65, -1,
 65, 77, 65, -1, 65, 65, 55, -1, 55, 65, 55, -1,
 55, 55, 37, -1, 37, 55, 37, -1, 37, 37, 29, -1,
 29, 37, 25, -1, 29, 29, 27, -1, 27, 29, 25, -1,
 27, 25, 21, -1, 21, 25, 17, -1, 3, 11, 17, -1,
 17, 11, 15, -1, 17, 15, 21, -1, 4, 18, 16, -1,
 26, 28, 18, -1, 18, 28, 22, -1, 18, 22, 16, -1,
 30, 28, 30, -1, 30, 28, 26, -1, 30, 26, 38, -1,
 38, 26, 38, -1, 38, 38, 56, -1, 56, 38, 56, -1,
 56, 56, 66, -1, 66, 56, 66, -1, 66, 66, 78, -1,
 78, 66, 78, -1, 78, 78, 92, -1, 92, 78, 92, -1,
 92, 92, 94, -1, 94, 92, 102, -1, 94, 102, 94, -1,
 123, 123, 114, -1, 114, 123, 114, -1, 114, 114, 102, -1,
 102, 114, 102, -1, 102, 102, 94, -1, 16, 12, 4, -1,
 4, 12, 4, -1, 4, 4, 0, -1, 0, 4, 0, -1,
 0, 0, 3, -1, 3, 0, 3, -1, 3, 3, 11, -1,
 119, 119, 119, -1, 119, 119, 119, -1, 119, 119, 119, -1,
 119, 119, 119, -1, 119, 119, 119, -1, 119, 119, 119, -1,
 119, 119, 119, -1, 119, 119, 119, -1, 119, 119, 119, -1,
 119, 119, 119, -1, 119, 119, 119, -1, 119, 119, 119, -1,
 119, 119, 119, -1, 119, 119, 119, -1, 119, 119, 119, -1,
 119, 119, 119, -1, 119, 119, 119, -1, 119, 119, 119, -1,
 119, 119, 119, -1, 119, 119, 119, -1, 119, 119, 119, -1,
 119, 119, 119, -1, 119, 119, 119, -1, 119, 119, 119, -1,
 119, 119, 119, -1, 119, 119, 119, -1, 119, 119, 119, -1,
 119, 119, 119, -1, 119, 119, 119, -1, 119, 119, 119, -1,
 119, 119, 119, -1, 119, 119, 119, -1, 119, 119, 119, -1,
 119, 119, 119, -1, 119, 119, 119, -1, 119, 119, 119, -1,
 119, 119, 119, -1, 119, 119, 119, -1, 119, 119, 119, -1,
 119, 119, 119, -1, 119, 119, 119, -1, 119, 119, 119, -1,
 119, 119, 119, -1, 119, 119, 119, -1, 119, 119, 119, -1,
 119, 119, 119, -1, 119, 119, 119, -1, 119, 119, 119, -1,
 119, 119, 119, -1, 119, 119, 119, -1, 119, 119, 119, -1,
 119, 119, 119, -1, 119, 119, 119, -1, 119, 119, 119, -1,
 119, 119, 119, -1, 119, 119, 119, -1, 119, 119, 119, -1,
 119, 119, 119, -1, 119, 119, 119, -1, 119, 119, 119, -1,
 119, 119, 119, -1, 119, 119, 119, -1, 119, 119, 119, -1,
 119, 119, 119, -1, 119, 119, 119, -1, 119, 119, 119, -1,
 119, 119, 119, -1, 119, 119, 119, -1, 119, 119, 119, -1,
 119, 119, 119, -1, 119, 119, 119, -1, 119, 119, 119, -1,
 119, 119, 119, -1, 119, 119, 119, -1, 119, 119, 119, -1,
 119, 119, 119, -1, 119, 119, 119, -1, 119, 119, 119, -1,
 119, 119, 119, -1, 119, 119, 119, -1, 119, 119, 119, -1,
 119, 119, 119, -1, 119, 119, 119, -1, 119, 119, 119, -1,
 123, 123, 123, -1, 123, 123, 123, -1, 123, 123, 123, -1,
 123, 123, 123, -1, 123, 123, 123, -1, 123, 123, 123, -1,
 123, 123, 123, -1, 123, 123, 123, -1, 123, 123, 123, -1,
 123, 123, 123, -1, 122, 122, 122, -1, 122, 122, 122, -1,
 122, 122, 122, -1, 122, 122, 122, -1, 122, 122, 122, -1,
 122, 122, 122, -1, 122, 122, 122, -1, 122, 122, 122, -1,
 122, 122, 122, -1, 122, 122, 122, -1, 122, 122, 122, -1,
 122, 122, 122, -1, 122, 122, 122, -1, 122, 122, 122, -1,
 122, 122, 122, -1, 122, 122, 122, -1, 122, 122, 122, -1,
 122, 122, 122, -1, 122, 122, 122, -1, 122, 122, 122, -1,
 119, 119, 119, -1, 119, 119, 119, -1, 119, 119, 119, -1,
 119, 119, 119, -1, 119, 119, 119, -1, 245, 245, 245, -1,
 245, 245, 245, -1, 245, 245, 245, -1, 245, 245, 245, -1,
 0, 0, 0, -1, 0, 0, 0, -1, 0, 0, 0, -1,
 0, 0, 0, -1, 123, 123, 123, -1, 123, 123, 123, -1,
 123, 123, 123, -1, 123, 123, 123, -1, 123, 123, 123, -1,
 123, 123, 123, -1, 123, 123, 123, -1, 123, 123, 123, -1,
 123, 123, 123, -1, 123, 123, 123, -1, 119, 119, 119, -1,
 119, 119, 119, -1, 119, 119, 119, -1, 119, 119, 119, -1,
 119, 119, 119, -1, 119, 119, 119, -1, 119, 119, 119, -1,
 119, 119, 119, -1, 119, 119, 119, -1, 119, 119, 119, -1,
 119, 119, 119, -1, 119, 119, 119, -1, 122, 122, 122, -1,
 122, 122, 122, -1, 0, 0, 0, -1, 0, 0, 0, -1,
 122, 122, 122, -1, 122, 122, 122, -1, 119, 119, 119, -1,
 119, 119, 119, -1, 119, 119, 119, -1, 119, 119, 119, -1,
 119, 119, 119, -1, 119, 119, 119, -1, 119, 119, 119, -1,
 245, 245, 245, -1, 245, 245, 245, -1, 121, 121, 121, -1,
 121, 121, 121, -1, 121, 121, 121, -1, 121, 121, 121, -1,
 121, 121, 121, -1, 120, 120, 120, -1, 120, 120, 120, -1,
 120, 120, 120, -1, 120, 120, 120, -1, 120, 120, 120, -1,
 121, 121, 121, -1, 121, 121, 121, -1, 121, 121, 121, -1,
 121, 121, 121, -1, 121, 121, 121, -1, 120, 120, 120, -1,
 120, 120, 120, -1, 120, 120, 120, -1, 120, 120, 120, -1,
 120, 120, 120, -1, 0, 0, 0, -1, 0, 0, 0, -1,
 119, 119, 119, -1, 119, 119, 119, -1, 119, 119, 119, -1,
 119, 119, 119, -1, 119, 119, 119, -1, 119, 119, 119, -1,
 245, 245, 245, -1, 245, 245, 245, -1, 126, 126, 126, -1,
 126, 126, 126, -1, 126, 126, 126, -1, 126, 126, 126, -1,
 126, 126, 126, -1, 126, 126, 126, -1, 245, 245, 245, -1,
 245, 245, 245, -1, 126, 126, 126, -1, 126, 126, 126, -1,
 126, 126, 126, -1, 126, 126, 126, -1, 126, 126, 126, -1,
 126, 126, 126, -1, 0, 0, 0, -1, 0, 0, 0, -1,
 119, 119, 119, -1, 119, 119, 119, -1, 119, 119, 119, -1,
 119, 119, 119, -1, 119, 119, 119, -1, 119, 119, 119, -1,
 119, 119, 119, -1, 119, 119, 119, -1, 119, 119, 119, -1,
 119, 119, 119, -1, 119, 119, 119, -1, 119, 119, 119, -1,
 119, 119, 119, -1, 119, 119, 119, -1, 119, 119, 119, -1,
 119, 119, 119, -1, 119, 119, 119, -1, 119, 119, 119, -1,
 119, 119, 119, -1, 119, 119, 119, -1, 119, 119, 119, -1,
 119, 119, 119, -1, 119, 119, 119, -1, 119, 119, 119, -1,
 119, 119, 119, -1, 119, 119, 119, -1, 119, 119, 119, -1,
 119, 119, 119, -1, 119, 119, 119, -1, 119, 119, 119, -1,
 119, 119, 119, -1, 119, 119, 119, -1, 119, 119, 119, -1,
 119, 119, 119, -1, 119, 119, 119, -1, 119, 119, 119, -1,
 119, 119, 119, -1, 119, 119, 119, -1, 119, 119, 119, -1,
 119, 119, 119, -1, 119, 119, 119, -1, 119, 119, 119, -1,
 119, 119, 119, -1, 119, 119, 119, -1, 119, 119, 119, -1,
 119, 119, 119, -1, 119, 119, 119, -1, 119, 119, 119, -1,
 119, 119, 119, -1, 119, 119, 119, -1, 119, 119, 119, -1,
 119, 119, 119, -1, 119, 119, 119, -1, 119, 119, 119, -1,
 119, 119, 119, -1, 119, 119, 119, -1, 119, 119, 119, -1,
 119, 119, 119, -1, 119, 119, 119, -1, 119, 119, 119, -1,
 119, 119, 119, -1, 119, 119, 119, -1, 119, 119, 119, -1,
 119, 119, 119, -1, 119, 119, 119, -1, 119, 119, 119, -1,
 119, 119, 119, -1, 119, 119, 119, -1, 119, 119, 119, -1,
 119, 119, 119, -1, 119, 119, 119, -1, 119, 119, 119, -1,
 119, 119, 119, -1, 119, 119, 119, -1, 119, 119, 119, -1,
 119, 119, 119, -1, 119, 119, 119, -1, 119, 119, 119, -1,
 122, 122, 105, -1, 105, 122, 105, -1, 105, 105, 85, -1,
 85, 105, 85, -1, 85, 85, 69, -1, 69, 85, 69, -1,
 69, 69, 49, -1, 49, 69, 49, -1, 49, 49, 31, -1,
 31, 49, 31, -1, 31, 31, 9, -1, 9, 31, 9, -1,
 9, 9, 0, -1, 0, 9, 0, -1, 0, 0, 10, -1,
 10, 0, 10, -1, 10, 10, 32, -1, 32, 10, 32, -1,
 32, 32, 50, -1, 50, 32, 50, -1, 50, 50, 70, -1,
 70, 50, 70, -1, 70, 70, 86, -1, 86, 70, 86, -1,
 86, 86, 106, -1, 106, 86, 106, -1, 106, 106, 123, -1,
 123, 106, 123, -1, 186, 186, 186, -1, 186, 186, 186, -1,
 60, 60, 60, -1, 60, 60, 60, -1, 186, 186, 186, -1,
 186, 186, 186, -1, 60, 60, 60, -1, 60, 60, 60, -1,
 185, 185, 185, -1, 185, 185, 185, -1, 59, 59, 59, -1,
 59, 59, 59, -1, 185, 185, 185, -1, 185, 185, 185, -1,
 59, 59, 59, -1, 59, 59, 59, -1, 123, 123, 123, -1,
 123, 123, 123, -1, 0, 0, 0, -1, 0, 0, 0, -1,
 119, 119, 119, -1, 119, 119, 119, -1, 119, 119, 119, -1,
 119, 119, 119, -1, 119, 119, 119, -1, 119, 119, 119, -1,
 119, 119, 119, -1, 119, 119, 119, -1, 119, 119, 119, -1,
 119, 119, 119, -1, 119, 119, 119, -1, 119, 119, 119, -1,
 119, 119, 119, -1, 119, 119, 119, -1, 123, 123, 123, -1,
 123, 123, 123, -1, 245, 245, 245, -1, 245, 245, 245, -1,
 124, 124, 117, -1, 124, 117, 117, -1, 117, 117, 109, -1,
 117, 109, 109, -1, 109, 109, 103, -1, 109, 103, 103, -1,
 103, 103, 95, -1, 103, 95, 95, -1, 95, 95, 87, -1,
 95, 87, 87, -1, 87, 87, 81, -1, 87, 81, 81, -1,
 81, 81, 75, -1, 81, 75, 75, -1, 75, 75, 67, -1,
 75, 67, 67, -1, 67, 67, 61, -1, 67, 61, 61, -1,
 61, 61, 57, -1, 61, 57, 57, -1, 57, 57, 51, -1,
 57, 51, 51, -1, 51, 51, 47, -1, 51, 47, 47, -1,
 47, 47, 43, -1, 47, 43, 43, -1, 43, 43, 39, -1,
 43, 39, 39, -1, 39, 39, 40, -1, 39, 40, 40, -1,
 40, 40, 44, -1, 40, 44, 44, -1, 44, 44, 48, -1,
 44, 48, 48, -1, 48, 48, 52, -1, 48, 52, 52, -1,
 52, 52, 58, -1, 52, 58, 58, -1, 58, 58, 62, -1,
 58, 62, 62, -1, 62, 62, 68, -1, 62, 68, 68, -1,
 68, 68, 76, -1, 68, 76, 76, -1, 76, 76, 82, -1,
 76, 82, 82, -1, 82, 82, 88, -1, 82, 88, 88, -1,
 88, 88, 96, -1, 88, 96, 96, -1, 96, 96, 104, -1,
 96, 104, 104, -1, 104, 104, 110, -1, 104, 110, 110, -1,
 110, 110, 118, -1, 110, 118, 118, -1, 118, 118, 125, -1,
 118, 125, 125, -1, 126, 126, 126, -1, 126, 126, 126, -1,
 126, 126, 126, -1, 126, 126, 126, -1, 126, 126, 126, -1,
 126, 126, 126, -1, 126, 126, 126, -1, 126, 126, 126, -1,
 126, 126, 126, -1, 126, 126, 126, -1, 126, 126, 126, -1,
 126, 126, 126, -1, 126, 126, 126, -1, 126, 126, 126, -1,
 126, 126, 126, -1, 126, 126, 126, -1, 126, 126, 126, -1,
 126, 126, 126, -1, 126, 126, 126, -1, 126, 126, 126, -1,
 126, 126, 126, -1, 126, 126, 126, -1, 126, 126, 126, -1,
 126, 126, 126, -1, 126, 126, 126, -1, 126, 126, 126, -1,
 126, 126, 126, -1, 126, 126, 126, -1, 126, 126, 126, -1,
 126, 126, 126, -1, 126, 126, 126, -1, 126, 126, 126, -1,
 126, 126, 126, -1, 126, 126, 126, -1, 126, 126, 126, -1,
 126, 126, 126, -1, 126, 126, 126, -1, 126, 126, 126, -1,
 126, 126, 126, -1, 126, 126, 126, -1, 126, 126, 126, -1,
 126, 126, 126, -1, 126, 126, 126, -1, 126, 126, 126, -1,
 126, 126, 126, -1, 126, 126, 126, -1, 126, 126, 126, -1,
 126, 126, 126, -1, 126, 126, 126, -1, 126, 126, 126, -1,
 126, 126, 126, -1, 126, 126, 126, -1, 126, 126, 126, -1,
 126, 126, 126, -1, 126, 126, 126, -1, 126, 126, 126, -1,
 126, 126, 126, -1, 126, 126, 126, -1, 126, 126, 126, -1,
 126, 126, 126, -1, 126, 126, 126, -1, 126, 126, 126, -1,
 126, 126, 126, -1, 126, 126, 126, -1, 126, 126, 126, -1,
 126, 126, 126, -1, 126, 126, 126, -1, 126, 126, 126, -1,
 126, 126, 126, -1, 126, 126, 126, -1, 126, 126, 126, -1,
 126, 126, 126, -1, 126, 126, 126, -1, 126, 126, 126, -1,
 126, 126, 126, -1, 126, 126, 126, -1, 126, 126, 126, -1,
 126, 126, 126, -1, 126, 126, 126, -1, 126, 126, 126, -1,
 126, 126, 126, -1, 126, 126, 126, -1, 126, 126, 126, -1,
 126, 126, 126, -1, 126, 126, 126, -1, 126, 126, 126, -1,
 126, 126, 126, -1, 126, 126, 126, -1, 126, 126, 126, -1,
 126, 126, 126, -1, 126, 126, 126, -1, 126, 126, 126, -1,
 126, 126, 126, -1, 126, 126, 126, -1, 126, 126, 126, -1,
 126, 126, 126, -1, 126, 126, 126, -1, 126, 126, 126, -1,
 122, 122, 111, -1, 122, 111, 111, -1, 111, 111, 99, -1,
 111, 99, 99, -1, 99, 99, 83, -1, 99, 83, 83, -1,
 83, 83, 73, -1, 83, 73, 73, -1, 73, 73, 59, -1,
 73, 59, 59, -1, 59, 59, 45, -1, 59, 45, 45, -1,
 45, 45, 33, -1, 45, 33, 33, -1, 33, 33, 19, -1,
 33, 19, 19, -1, 19, 19, 5, -1, 19, 5, 5, -1,
 5, 5, 0, -1, 5, 0, 0, -1, 0, 0, 6, -1,
 0, 6, 6, -1, 6, 6, 20, -1, 6, 20, 20, -1,
 20, 20, 34, -1, 20, 34, 34, -1, 34, 34, 46, -1,
 34, 46, 46, -1, 46, 46, 60, -1, 46, 60, 60, -1,
 60, 60, 74, -1, 60, 74, 74, -1, 74, 74, 84, -1,
 74, 84, 84, -1, 84, 84, 100, -1, 84, 100, 100, -1,
 100, 100, 112, -1, 100, 112, 112, -1, 112, 112, 123, -1,
 112, 123, 123, -1, 126, 126, 126, -1, 126, 126, 126, -1,
 126, 126, 126, -1, 126, 126, 126, -1, 126, 126, 126, -1,
 126, 126, 126, -1, 126, 126, 126, -1, 126, 126, 126, -1,
 126, 126, 126, -1, 126, 126, 126, -1, 126, 126, 126, -1,
 126, 126, 126, -1, 126, 126, 126, -1, 126, 126, 126, -1,
 126, 126, 126, -1, 126, 126, 126, -1, 126, 126, 126, -1,
 126, 126, 126, -1, 126, 126, 126, -1, 126, 126, 126, -1,
 126, 126, 126, -1, 126, 126, 126, -1, 126, 126, 126, -1,
 126, 126, 126, -1, 126, 126, 126, -1, 126, 126, 126, -1,
 126, 126, 126, -1, 126, 126, 126, -1, 126, 126, 126, -1,
 126, 126, 126, -1, 126, 126, 126, -1, 126, 126, 126, -1,
 126, 126, 126, -1, 126, 126, 126, -1, 126, 126, 126, -1,
 126, 126, 126, -1, 126, 126, 126, -1, 126, 126, 126, -1,
 126, 126, 126, -1, 126, 126, 126, -1, 126, 126, 126, -1,
 126, 126, 126, -1, 126, 126, 126, -1, 126, 126, 126, -1,
 126, 126, 126, -1, 126, 126, 126, -1, 126, 126, 126, -1,
 126, 126, 126, -1, 126, 126, 126, -1, 126, 126, 126, -1,
 126, 126, 126, -1, 126, 126, 126, -1, 126, 126, 126, -1,
 126, 126, 126, -1, 126, 126, 126, -1, 126, 126, 126, -1,
 126, 126, 126, -1, 126, 126, 126, -1, 126, 126, 126, -1,
 126, 126, 126, -1, 126, 126, 126, -1, 126, 126, 126, -1,
 126, 126, 126, -1, 126, 126, 126, -1, 126, 126, 126, -1,
 126, 126, 126, -1, 126, 126, 126, -1, 126, 126, 126, -1
]
colorPerVertex FALSE
normalPerVertex TRUE
}
}
]
}
