#VRML V2.0 utf8
Transform {
children [
Shape {
appearance Appearance {
material Material {
ambientIntensity 1.000000
diffuseColor 1.000000 1.000000 1.000000
emissiveColor 0.210000 0.210000 0.210000
specularColor 0.880000 0.880000 0.880000
shininess 0.210000
transparency 0.000000
}
}
geometry IndexedFaceSet {
color Color {
color [
 1.000000 1.000000 1.000000
]
}
coord Coordinate {
point [
 -0.003634 0.000000 -0.000343, -0.003634 0.000000 0.000343, -0.003634 0.003800 -0.000343, -0.003634 0.003800 0.000343, -0.003506 0.000000 -0.001016,
 -0.003506 0.000000 0.001016, -0.003506 0.003800 -0.001016, -0.003506 0.003800 0.001016, -0.003254 0.000000 -0.001654, -0.003254 0.000000 0.001654,
 -0.003254 0.003800 -0.001654, -0.003254 0.003800 0.001654, -0.003133 0.003800 -0.000329, -0.003133 0.003800 0.000329, -0.002996 0.003800 -0.000973,
 -0.002996 0.003800 0.000973, -0.002887 0.000000 -0.002233, -0.002887 0.000000 0.002233, -0.002887 0.003800 -0.002233, -0.002887 0.003800 0.002233,
 -0.002728 0.003800 -0.001575, -0.002728 0.003800 0.001575, -0.002418 0.000000 -0.002734, -0.002418 0.000000 0.002734, -0.002418 0.003800 -0.002734,
 -0.002418 0.003800 0.002734, -0.002341 0.003800 -0.002108, -0.002341 0.003800 0.002108, -0.001864 0.000000 -0.003138, -0.001864 0.000000 0.003138,
 -0.001864 0.003800 -0.003138, -0.001864 0.003800 0.003138, -0.001852 0.003800 -0.002548, -0.001852 0.003800 0.002548, -0.001650 0.000000 0.000000,
 -0.001641 0.002300 -0.000172, -0.001641 0.002300 0.000000, -0.001641 0.002300 0.000172, -0.001594 0.000000 -0.000427, -0.001594 0.000000 0.000427,
 -0.001587 0.002300 -0.000426, -0.001587 0.002300 0.000426, -0.001569 0.002300 -0.000510, -0.001569 0.002300 0.000510, -0.001429 0.000000 -0.000825,
 -0.001429 0.000000 0.000825, -0.001429 0.002300 -0.000825, -0.001429 0.002300 0.000825, -0.001281 0.003800 -0.002878, -0.001281 0.003800 0.002878,
 -0.001244 0.000000 -0.003431, -0.001244 0.000000 0.003431, -0.001244 0.003800 -0.003431, -0.001244 0.003800 0.003431, -0.001226 0.002300 -0.001104,
 -0.001226 0.002300 0.001104, -0.001167 0.000000 -0.001167, -0.001167 0.000000 0.001167, -0.001162 0.002300 -0.001162, -0.001162 0.002300 0.001162,
 -0.000970 0.002300 -0.001335, -0.000970 0.002300 0.001335, -0.000825 0.000000 -0.001429, -0.000825 0.000000 0.001429, -0.000820 0.002300 -0.001421,
 -0.000820 0.002300 0.001421, -0.000671 0.002300 -0.001507, -0.000671 0.002300 0.001507, -0.000655 0.003800 -0.003081, -0.000655 0.003800 0.003081,
 -0.000581 0.000000 -0.003604, -0.000581 0.000000 0.003604, -0.000581 0.003800 -0.003604, -0.000581 0.003800 0.003604, -0.000427 0.000000 -0.001594,
 -0.000427 0.000000 0.001594, -0.000425 0.002300 -0.001587, -0.000425 0.002300 0.001587, -0.000343 0.002300 -0.001614, -0.000343 0.002300 0.001614,
 -0.000000 0.000000 -0.001650, 0.000000 0.000000 0.001650, 0.000000 0.002300 -0.001650, -0.000000 0.002300 0.001650, 0.000000 0.003800 -0.003150,
 -0.000000 0.003800 0.003150, 0.000343 0.002300 -0.001614, 0.000343 0.002300 0.001614, 0.000425 0.002300 -0.001587, 0.000425 0.002300 0.001587,
 0.000427 0.000000 -0.001594, 0.000427 0.000000 0.001594, 0.000655 0.003800 -0.003081, 0.000655 0.003800 0.003081, 0.000671 0.002300 -0.001507,
 0.000671 0.002300 0.001507, 0.000820 0.002300 -0.001421, 0.000820 0.002300 0.001421, 0.000825 0.000000 -0.001429, 0.000825 0.000000 0.001429,
 0.000970 0.002300 -0.001335, 0.000970 0.002300 0.001335, 0.001162 0.002300 -0.001162, 0.001162 0.002300 0.001162, 0.001167 0.000000 -0.001167,
 0.001167 0.000000 0.001167, 0.001226 0.002300 -0.001104, 0.001226 0.002300 0.001104, 0.001281 0.003800 -0.002878, 0.001281 0.003800 0.002878,
 0.001429 0.000000 -0.000825, 0.001429 0.000000 0.000825, 0.001429 0.002300 -0.000825, 0.001429 0.002300 0.000825, 0.001569 0.002300 -0.000510,
 0.001569 0.002300 0.000510, 0.001587 0.002300 -0.000426, 0.001587 0.002300 0.000426, 0.001594 0.000000 -0.000427, 0.001594 0.000000 0.000427,
 0.001641 0.002300 -0.000172, 0.001641 0.002300 -0.000000, 0.001641 0.002300 0.000172, 0.001650 0.000000 -0.000000, 0.001852 0.003800 -0.002548,
 0.001852 0.003800 0.002548, 0.002341 0.003800 -0.002108, 0.002341 0.003800 0.002108, 0.002728 0.003800 -0.001575, 0.002728 0.003800 0.001575,
 0.002996 0.003800 -0.000973, 0.002996 0.003800 0.000973, 0.003133 0.003800 -0.000329, 0.003133 0.003800 0.000329, 0.014867 0.003800 -0.000488,
 0.014867 0.003800 0.000488, 0.014867 0.005300 -0.000488, 0.014867 0.005300 0.000488, 0.015000 0.003800 -0.001455, 0.015000 0.003800 0.001455,
 0.015000 0.005300 -0.001455, 0.015000 0.005300 0.001455, 0.015263 0.003800 -0.002394, 0.015263 0.003800 0.002394, 0.015263 0.005300 -0.002394,
 0.015263 0.005300 0.002394, 0.015652 0.003800 -0.003289, 0.015652 0.003800 0.003289, 0.015652 0.005300 -0.003289, 0.015652 0.005300 0.003289,
 0.016159 0.003800 -0.004123, 0.016159 0.003800 0.004123, 0.016159 0.005300 -0.004123, 0.016159 0.005300 0.004123, 0.016775 0.003800 -0.004880,
 0.016775 0.003800 0.004880, 0.016775 0.005300 -0.004880, 0.016775 0.005300 0.004880, 0.017488 0.003800 -0.005546, 0.017488 0.003800 0.005546,
 0.017488 0.005300 -0.005546, 0.017488 0.005300 0.005546, 0.017850 0.000000 0.000000, 0.017850 0.003800 0.000000, 0.017913 0.000000 -0.000721,
 0.017913 0.000000 0.000721, 0.017913 0.003800 -0.000721, 0.017913 0.003800 0.000721, 0.018100 0.000000 -0.001419, 0.018100 0.000000 0.001419,
 0.018100 0.003800 -0.001419, 0.018100 0.003800 0.001419, 0.018285 0.003800 -0.006109, 0.018285 0.003800 0.006109, 0.018285 0.005300 -0.006109,
 0.018285 0.005300 0.006109, 0.018406 0.000000 -0.002075, 0.018406 0.000000 0.002075, 0.018406 0.003800 -0.002075, 0.018406 0.003800 0.002075,
 0.018821 0.000000 -0.002668, 0.018821 0.000000 0.002668, 0.018821 0.003800 -0.002668, 0.018821 0.003800 0.002668, 0.018867 0.005300 -0.000329,
 0.018867 0.005300 0.000329, 0.019004 0.005300 -0.000973, 0.019004 0.005300 0.000973, 0.019151 0.003800 -0.006558, 0.019151 0.003800 0.006558,
 0.019151 0.005300 -0.006558, 0.019151 0.005300 0.006558, 0.019272 0.005300 -0.001575, 0.019272 0.005300 0.001575, 0.019332 0.000000 -0.003179,
 0.019332 0.000000 0.003179, 0.019332 0.003800 -0.003179, 0.019332 0.003800 0.003179, 0.019659 0.005300 -0.002108, 0.019659 0.005300 0.002108,
 0.019925 0.000000 -0.003594, 0.019925 0.000000 0.003594, 0.019925 0.003800 -0.003594, 0.019925 0.003800 0.003594, 0.020071 0.003800 -0.006885,
 0.020071 0.003800 0.006885, 0.020071 0.005300 -0.006885, 0.020071 0.005300 0.006885, 0.020148 0.005300 -0.002548, 0.020148 0.005300 0.002548,
 0.020359 0.003800 -0.000172, 0.020359 0.003800 0.000172, 0.020431 0.003800 -0.000510, 0.020431 0.003800 0.000510, 0.020571 0.003800 -0.000825,
 0.020571 0.003800 0.000825, 0.020581 0.000000 -0.003900, 0.020581 0.000000 0.003900, 0.020581 0.003800 -0.003900, 0.020581 0.003800 0.003900,
 0.020719 0.005300 -0.002878, 0.020719 0.005300 0.002878, 0.020774 0.003800 -0.001104, 0.020774 0.003800 0.001104, 0.020862 0.000000 -0.007059,
 0.020862 0.000000 0.007059, 0.020862 0.003800 -0.007059, 0.020862 0.003800 0.007059, 0.021026 0.000000 -0.007083, 0.021026 0.000000 0.007083,
 0.021026 0.005300 -0.007083, 0.021026 0.005300 0.007083, 0.021030 0.003800 -0.001335, 0.021030 0.003800 0.001335, 0.021279 0.000000 -0.004087,
 0.021279 0.000000 0.004087, 0.021279 0.003800 -0.004087, 0.021279 0.003800 0.004087, 0.021329 0.003800 -0.001507, 0.021329 0.003800 0.001507,
 0.021345 0.005300 -0.003081, 0.021345 0.005300 0.003081, 0.021657 0.003800 -0.001614, 0.021657 0.003800 0.001614, 0.022000 0.000000 -0.007150,
 0.022000 0.000000 -0.004150, 0.022000 0.000000 0.004150, 0.022000 0.000000 0.007150, 0.022000 0.003800 -0.004150, 0.022000 0.003800 -0.001650,
 0.022000 0.003800 0.001650, 0.022000 0.003800 0.004150, 0.022000 0.005300 -0.007150, 0.022000 0.005300 -0.003150, 0.022000 0.005300 0.003150,
 0.022000 0.005300 0.007150, 0.022343 0.003800 -0.001614, 0.022343 0.003800 0.001614, 0.022655 0.005300 -0.003081, 0.022655 0.005300 0.003081,
 0.022671 0.003800 -0.001507, 0.022671 0.003800 0.001507, 0.022721 0.000000 -0.004087, 0.022721 0.000000 0.004087, 0.022721 0.003800 -0.004087,
 0.022721 0.003800 0.004087, 0.022970 0.003800 -0.001335, 0.022970 0.003800 0.001335, 0.022974 0.000000 -0.007083, 0.022974 0.000000 0.007083,
 0.022974 0.005300 -0.007083, 0.022974 0.005300 0.007083, 0.023226 0.003800 -0.001104, 0.023226 0.003800 0.001104, 0.023281 0.005300 -0.002878,
 0.023281 0.005300 0.002878, 0.023419 0.000000 -0.003900, 0.023419 0.000000 0.003900, 0.023419 0.003800 -0.003900, 0.023419 0.003800 0.003900,
 0.023429 0.003800 -0.000825, 0.023429 0.003800 0.000825, 0.023569 0.003800 -0.000510, 0.023569 0.003800 0.000510, 0.023641 0.003800 -0.000172,
 0.023641 0.003800 0.000172, 0.023852 0.005300 -0.002548, 0.023852 0.005300 0.002548, 0.023929 0.000000 -0.006885, 0.023929 0.000000 0.006885,
 0.023929 0.005300 -0.006885, 0.023929 0.005300 0.006885, 0.024075 0.000000 -0.003594, 0.024075 0.000000 0.003594, 0.024075 0.003800 -0.003594,
 0.024075 0.003800 0.003594, 0.024341 0.005300 -0.002108, 0.024341 0.005300 0.002108, 0.024668 0.000000 -0.003179, 0.024668 0.000000 0.003179,
 0.024668 0.003800 -0.003179, 0.024668 0.003800 0.003179, 0.024728 0.005300 -0.001575, 0.024728 0.005300 0.001575, 0.024849 0.000000 -0.006558,
 0.024849 0.000000 0.006558, 0.024849 0.005300 -0.006558, 0.024849 0.005300 0.006558, 0.024996 0.005300 -0.000973, 0.024996 0.005300 0.000973,
 0.025133 0.005300 -0.000329, 0.025133 0.005300 0.000329, 0.025179 0.000000 -0.002668, 0.025179 0.000000 0.002668, 0.025179 0.003800 -0.002668,
 0.025179 0.003800 0.002668, 0.025594 0.000000 -0.002075, 0.025594 0.000000 0.002075, 0.025594 0.003800 -0.002075, 0.025594 0.003800 0.002075,
 0.025715 0.000000 -0.006109, 0.025715 0.000000 0.006109, 0.025715 0.005300 -0.006109, 0.025715 0.005300 0.006109, 0.025900 0.000000 -0.001419,
 0.025900 0.000000 0.001419, 0.025900 0.003800 -0.001419, 0.025900 0.003800 0.001419, 0.026087 0.000000 -0.000721, 0.026087 0.000000 0.000721,
 0.026087 0.003800 -0.000721, 0.026087 0.003800 0.000721, 0.026150 0.000000 -0.000000, 0.026150 0.003800 -0.000000, 0.026512 0.000000 -0.005546,
 0.026512 0.000000 0.005546, 0.026512 0.005300 -0.005546, 0.026512 0.005300 0.005546, 0.027225 0.000000 -0.004880, 0.027225 0.000000 0.004880,
 0.027225 0.005300 -0.004880, 0.027225 0.005300 0.004880, 0.027841 0.000000 -0.004123, 0.027841 0.000000 0.004123, 0.027841 0.005300 -0.004123,
 0.027841 0.005300 0.004123, 0.028348 0.000000 -0.003289, 0.028348 0.000000 0.003289, 0.028348 0.005300 -0.003289, 0.028348 0.005300 0.003289,
 0.028737 0.000000 -0.002394, 0.028737 0.000000 0.002394, 0.028737 0.005300 -0.002394, 0.028737 0.005300 0.002394, 0.029000 0.000000 -0.001455,
 0.029000 0.000000 0.001455, 0.029000 0.005300 -0.001455, 0.029000 0.005300 0.001455, 0.029133 0.000000 -0.000488, 0.029133 0.000000 0.000488,
 0.029133 0.005300 -0.000488, 0.029133 0.005300 0.000488
]
}
normal Normal {
vector [
 -1.000000 0.000000 0.000000, -0.997669 0.000000 -0.068242, -0.997669 0.000000 0.068242, -0.995579 0.000000 -0.093930, -0.995579 0.000000 0.093930,
 -0.994522 0.000000 -0.104528, -0.994522 0.000000 0.104528, -0.984808 0.000000 -0.173648, -0.984808 0.000000 0.173648, -0.979084 0.000000 -0.203456,
 -0.979084 0.000000 0.203456, -0.965926 0.000000 -0.258819, -0.965926 0.000000 0.258819, -0.965870 0.000000 -0.259028, -0.965870 0.000000 0.259028,
 -0.960444 0.000000 -0.278474, -0.960444 0.000000 0.278474, -0.951057 0.000000 -0.309017, -0.951057 0.000000 0.309017, -0.942261 0.000000 -0.334880,
 -0.942261 0.000000 0.334880, -0.939693 0.000000 -0.342020, -0.939693 0.000000 0.342020, -0.891413 0.000000 -0.453191, -0.891413 0.000000 0.453191,
 -0.887885 0.000000 -0.460065, -0.887885 0.000000 0.460065, -0.866025 0.000000 -0.500000, -0.866025 0.000000 0.500000, -0.816970 0.000000 -0.576680,
 -0.816970 0.000000 0.576680, -0.790924 0.000000 -0.611915, -0.790924 0.000000 0.611915, -0.766044 0.000000 -0.642788, -0.766044 0.000000 0.642788,
 -0.743145 0.000000 -0.669131, -0.743145 0.000000 0.669131, -0.730836 0.000000 -0.682553, -0.730836 0.000000 0.682553, -0.707259 0.000000 -0.706954,
 -0.707259 0.000000 0.706954, -0.707107 0.000000 -0.707107, -0.707107 0.000000 0.707107, -0.707107 0.707107 0.000000, -0.703233 0.707107 -0.073913,
 -0.703233 0.707107 0.073913, -0.682973 0.707107 -0.183160, -0.682973 0.707107 0.183160, -0.672499 0.707107 -0.218508, -0.672499 0.707107 0.218508,
 -0.662522 0.000000 -0.749043, -0.662522 0.000000 0.749043, -0.642788 0.000000 -0.766044, -0.642788 0.000000 0.766044, -0.631088 0.000000 -0.775711,
 -0.631088 0.000000 0.775711, -0.612372 0.707107 -0.353553, -0.612372 0.707107 0.353553, -0.587785 0.000000 -0.809017, -0.587785 0.000000 0.809017,
 -0.525483 0.707107 -0.473147, -0.525483 0.707107 0.473147, -0.519584 0.000000 -0.854419, -0.519584 0.000000 0.854419, -0.510738 0.000000 -0.859736,
 -0.510738 0.000000 0.859736, -0.500108 0.707107 -0.499892, -0.500108 0.707107 0.499892, -0.500000 0.000000 -0.866025, -0.500000 0.000000 0.866025,
 -0.415627 0.707107 -0.572061, -0.415627 0.707107 0.572061, -0.406737 0.000000 -0.913545, -0.406737 0.000000 0.913545, -0.398401 0.000000 -0.917211,
 -0.398401 0.000000 0.917211, -0.353553 0.707107 -0.612372, -0.353553 0.707107 0.612372, -0.342020 0.000000 -0.939693, -0.342020 0.000000 0.939693,
 -0.340931 0.000000 -0.940088, -0.340931 0.000000 0.940088, -0.287606 0.707107 -0.645974, -0.287606 0.707107 0.645974, -0.269797 0.000000 -0.962917,
 -0.269797 0.000000 0.962917, -0.258819 0.000000 -0.965926, -0.258819 0.000000 0.965926, -0.258611 0.000000 -0.965982, -0.258611 0.000000 0.965982,
 -0.207912 0.000000 -0.978148, -0.207912 0.000000 0.978148, -0.182865 0.707107 -0.683052, -0.182865 0.707107 0.683052, -0.173648 0.000000 -0.984808,
 -0.173648 0.000000 0.984808, -0.159091 0.000000 -0.987264, -0.159091 0.000000 0.987264, -0.147016 0.707107 -0.691655, -0.147016 0.707107 0.691655,
 -0.136167 0.000000 -0.990686, -0.136167 0.000000 0.990686, 0.000000 -1.000000 0.000000, -0.000000 0.000000 -1.000000, 0.000000 0.000000 1.000000,
 0.000000 0.707107 -0.707107, -0.000000 0.707107 0.707107, 0.000000 1.000000 0.000000, 0.136167 0.000000 -0.990686, 0.136167 0.000000 0.990686,
 0.147016 0.707107 -0.691655, 0.147016 0.707107 0.691655, 0.173648 0.000000 -0.984808, 0.173648 0.000000 0.984808, 0.182865 0.707107 -0.683052,
 0.182865 0.707107 0.683052, 0.207912 0.000000 -0.978148, 0.207912 0.000000 0.978148, 0.258611 0.000000 -0.965982, 0.258611 0.000000 0.965982,
 0.258819 0.000000 -0.965926, 0.258819 0.000000 0.965926, 0.269797 0.000000 -0.962917, 0.269797 0.000000 0.962917, 0.287606 0.707107 -0.645974,
 0.287606 0.707107 0.645974, 0.342020 0.000000 -0.939693, 0.342020 0.000000 0.939693, 0.353553 0.707107 -0.612372, 0.353553 0.707107 0.612372,
 0.398401 0.000000 -0.917211, 0.398401 0.000000 0.917211, 0.406737 0.000000 -0.913545, 0.406737 0.000000 0.913545, 0.415627 0.707107 -0.572061,
 0.415627 0.707107 0.572061, 0.500000 0.000000 -0.866025, 0.500000 0.000000 0.866025, 0.500108 0.707107 -0.499892, 0.500108 0.707107 0.499892,
 0.519584 0.000000 -0.854419, 0.519584 0.000000 0.854419, 0.525483 0.707107 -0.473147, 0.525483 0.707107 0.473147, 0.587785 0.000000 -0.809017,
 0.587785 0.000000 0.809017, 0.612372 0.707107 -0.353553, 0.612372 0.707107 0.353553, 0.631088 0.000000 -0.775711, 0.631088 0.000000 0.775711,
 0.642788 0.000000 -0.766044, 0.642788 0.000000 0.766044, 0.672499 0.707107 -0.218508, 0.672499 0.707107 0.218508, 0.682973 0.707107 -0.183160,
 0.682973 0.707107 0.183160, 0.703233 0.707107 -0.073913, 0.703233 0.707107 0.073913, 0.707107 0.000000 -0.707107, 0.707107 0.000000 0.707107,
 0.707107 0.707107 0.000000, 0.707259 0.000000 -0.706954, 0.707259 0.000000 0.706954, 0.730836 0.000000 -0.682553, 0.730836 0.000000 0.682553,
 0.743145 0.000000 -0.669131, 0.743145 0.000000 0.669131, 0.766044 0.000000 -0.642788, 0.766044 0.000000 0.642788, 0.816970 0.000000 -0.576680,
 0.816970 0.000000 0.576680, 0.866025 0.000000 -0.500000, 0.866025 0.000000 0.500000, 0.887885 0.000000 -0.460065, 0.887885 0.000000 0.460065,
 0.939693 0.000000 -0.342020, 0.939693 0.000000 0.342020, 0.942261 0.000000 -0.334880, 0.942261 0.000000 0.334880, 0.951057 0.000000 -0.309017,
 0.951057 0.000000 0.309017, 0.965870 0.000000 -0.259028, 0.965870 0.000000 0.259028, 0.965926 0.000000 -0.258819, 0.965926 0.000000 0.258819,
 0.979084 0.000000 -0.203456, 0.979084 0.000000 0.203456, 0.984808 0.000000 -0.173648, 0.984808 0.000000 0.173648, 0.994522 0.000000 -0.104528,
 0.994522 0.000000 0.104528, 0.997669 0.000000 -0.068242, 0.997669 0.000000 0.068242, 1.000000 0.000000 -0.000000
]
}
coordIndex [
 249, 253, 242, -1, 242, 253, 240, -1, 242, 240, 238, -1,
 238, 240, 220, -1, 238, 220, 232, -1, 232, 220, 208, -1,
 232, 208, 222, -1, 222, 208, 198, -1, 222, 198, 214, -1,
 214, 198, 192, -1, 214, 192, 212, -1, 212, 192, 186, -1,
 212, 186, 210, -1, 210, 186, 184, -1, 210, 184, 211, -1,
 211, 184, 185, -1, 211, 185, 213, -1, 213, 185, 187, -1,
 213, 187, 215, -1, 215, 187, 193, -1, 215, 193, 223, -1,
 223, 193, 199, -1, 223, 199, 233, -1, 233, 199, 209, -1,
 233, 209, 239, -1, 239, 209, 221, -1, 239, 221, 243, -1,
 243, 221, 241, -1, 243, 241, 250, -1, 250, 241, 254, -1,
 69, 85, 83, -1, 83, 79, 69, -1, 69, 79, 77, -1,
 69, 77, 49, -1, 77, 67, 49, -1, 49, 67, 65, -1,
 49, 65, 33, -1, 65, 61, 33, -1, 33, 61, 59, -1,
 33, 59, 27, -1, 27, 59, 55, -1, 27, 55, 21, -1,
 21, 55, 47, -1, 21, 47, 15, -1, 47, 43, 15, -1,
 15, 43, 41, -1, 15, 41, 13, -1, 41, 37, 13, -1,
 13, 37, 36, -1, 13, 36, 12, -1, 36, 35, 12, -1,
 12, 35, 40, -1, 12, 40, 14, -1, 14, 40, 42, -1,
 14, 42, 20, -1, 20, 42, 46, -1, 20, 46, 26, -1,
 46, 54, 26, -1, 26, 54, 58, -1, 26, 58, 32, -1,
 58, 60, 32, -1, 32, 60, 64, -1, 32, 64, 48, -1,
 82, 84, 78, -1, 78, 84, 68, -1, 78, 68, 76, -1,
 76, 68, 48, -1, 76, 48, 66, -1, 66, 48, 64, -1,
 251, 246, 237, -1, 237, 246, 235, -1, 237, 235, 219, -1,
 219, 235, 217, -1, 219, 217, 203, -1, 203, 217, 201, -1,
 203, 201, 197, -1, 197, 201, 195, -1, 197, 195, 183, -1,
 183, 195, 181, -1, 183, 181, 179, -1, 179, 181, 177, -1,
 179, 177, 171, -1, 171, 177, 169, -1, 171, 169, 167, -1,
 167, 169, 165, -1, 167, 165, 163, -1, 163, 165, 162, -1,
 163, 162, 166, -1, 166, 162, 164, -1, 166, 164, 170, -1,
 170, 164, 168, -1, 170, 168, 178, -1, 178, 168, 176, -1,
 178, 176, 182, -1, 182, 176, 180, -1, 182, 180, 196, -1,
 196, 180, 194, -1, 196, 194, 202, -1, 202, 194, 200, -1,
 202, 200, 218, -1, 218, 200, 216, -1, 218, 216, 236, -1,
 236, 216, 234, -1, 236, 234, 248, -1, 248, 234, 245, -1,
 83, 81, 79, -1, 79, 81, 75, -1, 79, 75, 77, -1,
 77, 75, 67, -1, 67, 75, 63, -1, 67, 63, 65, -1,
 65, 63, 61, -1, 61, 63, 57, -1, 61, 57, 59, -1,
 59, 57, 55, -1, 55, 57, 45, -1, 55, 45, 47, -1,
 47, 45, 43, -1, 43, 45, 39, -1, 43, 39, 41, -1,
 41, 39, 37, -1, 37, 39, 34, -1, 37, 34, 36, -1,
 36, 34, 35, -1, 35, 34, 38, -1, 35, 38, 40, -1,
 40, 38, 42, -1, 42, 38, 44, -1, 42, 44, 46, -1,
 46, 44, 54, -1, 54, 44, 56, -1, 54, 56, 58, -1,
 58, 56, 60, -1, 60, 56, 62, -1, 60, 62, 64, -1,
 64, 62, 66, -1, 66, 62, 74, -1, 66, 74, 76, -1,
 76, 74, 78, -1, 78, 74, 80, -1, 78, 80, 82, -1,
 255, 247, 269, -1, 255, 269, 271, -1, 271, 269, 289, -1,
 271, 289, 291, -1, 291, 289, 305, -1, 291, 305, 307, -1,
 307, 305, 321, -1, 307, 321, 323, -1, 323, 321, 335, -1,
 323, 335, 337, -1, 337, 335, 339, -1, 337, 339, 341, -1,
 341, 339, 343, -1, 341, 343, 345, -1, 345, 343, 347, -1,
 345, 347, 349, -1, 349, 347, 351, -1, 349, 351, 353, -1,
 353, 351, 355, -1, 353, 355, 357, -1, 357, 355, 359, -1,
 357, 359, 361, -1, 361, 359, 358, -1, 361, 358, 360, -1,
 360, 358, 354, -1, 360, 354, 356, -1, 356, 354, 350, -1,
 356, 350, 352, -1, 352, 350, 346, -1, 352, 346, 348, -1,
 348, 346, 342, -1, 348, 342, 344, -1, 344, 342, 338, -1,
 344, 338, 340, -1, 340, 338, 334, -1, 340, 334, 336, -1,
 336, 334, 320, -1, 336, 320, 322, -1, 322, 320, 304, -1,
 322, 304, 306, -1, 306, 304, 288, -1, 306, 288, 290, -1,
 290, 288, 268, -1, 290, 268, 270, -1, 270, 268, 244, -1,
 270, 244, 252, -1, 33, 31, 49, -1, 49, 31, 53, -1,
 49, 53, 69, -1, 69, 53, 73, -1, 69, 73, 85, -1,
 146, 150, 130, -1, 85, 73, 93, -1, 93, 73, 227, -1,
 93, 227, 109, -1, 109, 227, 205, -1, 109, 205, 125, -1,
 189, 129, 205, -1, 205, 129, 127, -1, 205, 127, 125, -1,
 132, 133, 135, -1, 189, 173, 129, -1, 129, 173, 159, -1,
 129, 159, 131, -1, 131, 159, 155, -1, 131, 155, 151, -1,
 135, 134, 132, -1, 132, 134, 138, -1, 132, 138, 130, -1,
 130, 138, 142, -1, 130, 142, 146, -1, 68, 72, 48, -1,
 48, 72, 52, -1, 48, 52, 32, -1, 188, 204, 128, -1,
 128, 204, 126, -1, 151, 147, 131, -1, 131, 147, 143, -1,
 131, 143, 133, -1, 133, 143, 139, -1, 133, 139, 135, -1,
 52, 30, 32, -1, 32, 30, 24, -1, 32, 24, 26, -1,
 26, 24, 18, -1, 26, 18, 20, -1, 20, 18, 10, -1,
 20, 10, 14, -1, 14, 10, 6, -1, 14, 6, 12, -1,
 12, 6, 2, -1, 12, 2, 13, -1, 13, 2, 3, -1,
 13, 3, 15, -1, 15, 3, 7, -1, 15, 7, 21, -1,
 21, 7, 11, -1, 21, 11, 27, -1, 27, 11, 19, -1,
 27, 19, 33, -1, 33, 19, 25, -1, 33, 25, 31, -1,
 68, 84, 72, -1, 72, 84, 92, -1, 72, 92, 226, -1,
 226, 92, 108, -1, 226, 108, 204, -1, 204, 108, 124, -1,
 204, 124, 126, -1, 150, 154, 130, -1, 130, 154, 158, -1,
 130, 158, 128, -1, 128, 158, 172, -1, 128, 172, 188, -1,
 225, 105, 111, -1, 224, 104, 98, -1, 224, 98, 70, -1,
 39, 1, 34, -1, 34, 1, 0, -1, 34, 0, 38, -1,
 38, 0, 4, -1, 38, 4, 44, -1, 71, 51, 75, -1,
 289, 269, 305, -1, 305, 269, 247, -1, 111, 119, 225, -1,
 225, 119, 305, -1, 225, 305, 229, -1, 229, 305, 247, -1,
 228, 244, 118, -1, 4, 8, 44, -1, 44, 8, 16, -1,
 44, 16, 56, -1, 56, 16, 22, -1, 56, 22, 62, -1,
 62, 22, 28, -1, 62, 28, 74, -1, 74, 28, 50, -1,
 74, 50, 80, -1, 80, 50, 70, -1, 80, 70, 90, -1,
 90, 70, 98, -1, 262, 245, 244, -1, 244, 245, 234, -1,
 57, 17, 45, -1, 45, 17, 9, -1, 45, 9, 39, -1,
 39, 9, 5, -1, 39, 5, 1, -1, 75, 51, 63, -1,
 63, 51, 29, -1, 63, 29, 57, -1, 57, 29, 23, -1,
 57, 23, 17, -1, 180, 176, 118, -1, 228, 118, 224, -1,
 224, 118, 110, -1, 224, 110, 104, -1, 75, 81, 71, -1,
 71, 81, 91, -1, 71, 91, 225, -1, 225, 91, 99, -1,
 225, 99, 105, -1, 176, 168, 118, -1, 118, 168, 164, -1,
 118, 164, 123, -1, 123, 164, 162, -1, 123, 162, 119, -1,
 119, 162, 165, -1, 119, 165, 169, -1, 169, 177, 119, -1,
 119, 177, 181, -1, 119, 181, 195, -1, 332, 359, 329, -1,
 329, 359, 355, -1, 329, 355, 325, -1, 325, 355, 351, -1,
 325, 351, 317, -1, 234, 216, 244, -1, 244, 216, 200, -1,
 244, 200, 118, -1, 118, 200, 194, -1, 118, 194, 180, -1,
 195, 201, 119, -1, 119, 201, 217, -1, 119, 217, 305, -1,
 305, 217, 235, -1, 305, 235, 246, -1, 351, 347, 317, -1,
 317, 347, 343, -1, 317, 343, 313, -1, 313, 343, 339, -1,
 313, 339, 299, -1, 299, 339, 335, -1, 299, 335, 293, -1,
 293, 335, 321, -1, 293, 321, 277, -1, 277, 321, 305, -1,
 277, 305, 263, -1, 263, 305, 246, -1, 312, 342, 316, -1,
 316, 342, 346, -1, 316, 346, 324, -1, 324, 346, 350, -1,
 324, 350, 328, -1, 328, 350, 354, -1, 328, 354, 332, -1,
 332, 354, 358, -1, 332, 358, 359, -1, 244, 268, 262, -1,
 262, 268, 288, -1, 262, 288, 276, -1, 276, 288, 304, -1,
 276, 304, 292, -1, 292, 304, 320, -1, 292, 320, 298, -1,
 298, 320, 334, -1, 298, 334, 312, -1, 312, 334, 338, -1,
 312, 338, 342, -1, 72, 70, 50, -1, 72, 50, 52, -1,
 52, 50, 28, -1, 52, 28, 30, -1, 30, 28, 22, -1,
 30, 22, 24, -1, 24, 22, 16, -1, 24, 16, 18, -1,
 18, 16, 8, -1, 18, 8, 10, -1, 10, 8, 4, -1,
 10, 4, 6, -1, 6, 4, 0, -1, 6, 0, 2, -1,
 2, 0, 1, -1, 2, 1, 3, -1, 3, 1, 5, -1,
 3, 5, 7, -1, 7, 5, 9, -1, 7, 9, 11, -1,
 11, 9, 17, -1, 11, 17, 19, -1, 19, 17, 23, -1,
 19, 23, 25, -1, 25, 23, 29, -1, 25, 29, 31, -1,
 31, 29, 51, -1, 31, 51, 53, -1, 53, 51, 71, -1,
 53, 71, 73, -1, 227, 73, 225, -1, 225, 73, 71, -1,
 227, 225, 229, -1, 205, 227, 231, -1, 231, 207, 205, -1,
 205, 207, 191, -1, 205, 191, 189, -1, 189, 191, 175, -1,
 189, 175, 173, -1, 173, 175, 161, -1, 173, 161, 159, -1,
 159, 161, 157, -1, 159, 157, 155, -1, 155, 157, 153, -1,
 155, 153, 151, -1, 151, 153, 149, -1, 151, 149, 147, -1,
 147, 149, 145, -1, 147, 145, 143, -1, 143, 145, 141, -1,
 143, 141, 139, -1, 139, 141, 137, -1, 139, 137, 135, -1,
 135, 137, 136, -1, 135, 136, 134, -1, 134, 136, 140, -1,
 134, 140, 138, -1, 138, 140, 144, -1, 138, 144, 142, -1,
 142, 144, 148, -1, 142, 148, 146, -1, 146, 148, 152, -1,
 146, 152, 150, -1, 150, 152, 156, -1, 150, 156, 154, -1,
 154, 156, 160, -1, 154, 160, 158, -1, 158, 160, 174, -1,
 158, 174, 172, -1, 172, 174, 190, -1, 172, 190, 188, -1,
 188, 190, 206, -1, 188, 206, 204, -1, 228, 224, 226, -1,
 204, 206, 226, -1, 226, 206, 230, -1, 226, 230, 228, -1,
 228, 230, 252, -1, 228, 252, 244, -1, 227, 229, 231, -1,
 231, 229, 247, -1, 231, 247, 255, -1, 72, 226, 70, -1,
 70, 226, 224, -1, 82, 80, 86, -1, 86, 80, 90, -1,
 86, 90, 88, -1, 88, 90, 94, -1, 94, 90, 98, -1,
 94, 98, 96, -1, 96, 98, 100, -1, 100, 98, 104, -1,
 100, 104, 102, -1, 102, 104, 106, -1, 106, 104, 110, -1,
 106, 110, 112, -1, 112, 110, 114, -1, 114, 110, 118, -1,
 114, 118, 116, -1, 116, 118, 120, -1, 120, 118, 123, -1,
 120, 123, 121, -1, 121, 123, 122, -1, 122, 123, 119, -1,
 122, 119, 117, -1, 117, 119, 115, -1, 115, 119, 111, -1,
 115, 111, 113, -1, 113, 111, 107, -1, 107, 111, 105, -1,
 107, 105, 103, -1, 103, 105, 101, -1, 101, 105, 99, -1,
 101, 99, 97, -1, 97, 99, 95, -1, 95, 99, 91, -1,
 95, 91, 89, -1, 89, 91, 87, -1, 87, 91, 81, -1,
 87, 81, 83, -1, 248, 245, 264, -1, 264, 245, 262, -1,
 264, 262, 278, -1, 278, 262, 276, -1, 278, 276, 294, -1,
 294, 276, 292, -1, 294, 292, 300, -1, 300, 292, 298, -1,
 300, 298, 314, -1, 314, 298, 312, -1, 314, 312, 318, -1,
 318, 312, 316, -1, 318, 316, 326, -1, 326, 316, 324, -1,
 326, 324, 330, -1, 330, 324, 328, -1, 330, 328, 333, -1,
 333, 328, 332, -1, 333, 332, 331, -1, 331, 332, 329, -1,
 331, 329, 327, -1, 327, 329, 325, -1, 327, 325, 319, -1,
 319, 325, 317, -1, 319, 317, 315, -1, 315, 317, 313, -1,
 315, 313, 301, -1, 301, 313, 299, -1, 301, 299, 295, -1,
 295, 299, 293, -1, 295, 293, 279, -1, 279, 293, 277, -1,
 279, 277, 265, -1, 265, 277, 263, -1, 265, 263, 251, -1,
 251, 263, 246, -1, 92, 84, 82, -1, 82, 86, 92, -1,
 92, 86, 88, -1, 92, 88, 108, -1, 88, 94, 108, -1,
 108, 94, 96, -1, 108, 96, 124, -1, 96, 100, 124, -1,
 124, 100, 102, -1, 124, 102, 126, -1, 126, 102, 106, -1,
 126, 106, 128, -1, 128, 106, 112, -1, 128, 112, 130, -1,
 112, 114, 130, -1, 130, 114, 116, -1, 130, 116, 132, -1,
 116, 120, 132, -1, 132, 120, 121, -1, 132, 121, 133, -1,
 121, 122, 133, -1, 133, 122, 117, -1, 133, 117, 131, -1,
 131, 117, 115, -1, 131, 115, 129, -1, 129, 115, 113, -1,
 129, 113, 127, -1, 113, 107, 127, -1, 127, 107, 103, -1,
 127, 103, 125, -1, 103, 101, 125, -1, 125, 101, 97, -1,
 125, 97, 109, -1, 83, 85, 87, -1, 87, 85, 93, -1,
 87, 93, 89, -1, 89, 93, 109, -1, 89, 109, 95, -1,
 95, 109, 97, -1, 275, 323, 287, -1, 287, 323, 337, -1,
 287, 337, 297, -1, 254, 271, 259, -1, 259, 271, 291, -1,
 259, 291, 275, -1, 275, 291, 307, -1, 275, 307, 323, -1,
 241, 231, 254, -1, 254, 231, 255, -1, 254, 255, 271, -1,
 193, 153, 199, -1, 199, 153, 157, -1, 199, 157, 209, -1,
 302, 344, 296, -1, 296, 344, 340, -1, 296, 340, 286, -1,
 309, 357, 311, -1, 311, 357, 361, -1, 311, 361, 310, -1,
 185, 141, 187, -1, 187, 141, 145, -1, 187, 145, 193, -1,
 193, 145, 149, -1, 193, 149, 153, -1, 186, 140, 184, -1,
 184, 140, 136, -1, 184, 136, 185, -1, 185, 136, 137, -1,
 185, 137, 141, -1, 198, 152, 192, -1, 192, 152, 148, -1,
 192, 148, 186, -1, 186, 148, 144, -1, 186, 144, 140, -1,
 361, 360, 310, -1, 310, 360, 356, -1, 310, 356, 308, -1,
 308, 356, 352, -1, 308, 352, 302, -1, 302, 352, 348, -1,
 302, 348, 344, -1, 337, 341, 297, -1, 297, 341, 345, -1,
 297, 345, 303, -1, 303, 345, 349, -1, 303, 349, 309, -1,
 309, 349, 353, -1, 309, 353, 357, -1, 157, 161, 209, -1,
 209, 161, 175, -1, 209, 175, 221, -1, 221, 175, 191, -1,
 221, 191, 241, -1, 241, 191, 207, -1, 241, 207, 231, -1,
 220, 174, 208, -1, 208, 174, 160, -1, 208, 160, 198, -1,
 198, 160, 156, -1, 198, 156, 152, -1, 340, 336, 286, -1,
 286, 336, 322, -1, 286, 322, 274, -1, 274, 322, 306, -1,
 274, 306, 258, -1, 253, 230, 240, -1, 240, 230, 206, -1,
 240, 206, 220, -1, 220, 206, 190, -1, 220, 190, 174, -1,
 306, 290, 258, -1, 258, 290, 270, -1, 258, 270, 253, -1,
 253, 270, 252, -1, 253, 252, 230, -1, 284, 333, 285, -1,
 285, 333, 331, -1, 285, 331, 283, -1, 283, 331, 327, -1,
 283, 327, 281, -1, 281, 327, 319, -1, 281, 319, 273, -1,
 273, 319, 315, -1, 273, 315, 267, -1, 211, 163, 210, -1,
 210, 163, 166, -1, 210, 166, 212, -1, 212, 166, 170, -1,
 212, 170, 214, -1, 214, 170, 178, -1, 214, 178, 222, -1,
 222, 178, 182, -1, 222, 182, 232, -1, 182, 196, 232, -1,
 232, 196, 202, -1, 232, 202, 238, -1, 238, 202, 218, -1,
 238, 218, 242, -1, 242, 218, 236, -1, 242, 236, 249, -1,
 249, 236, 248, -1, 249, 248, 256, -1, 256, 248, 264, -1,
 256, 264, 260, -1, 264, 278, 260, -1, 260, 278, 294, -1,
 260, 294, 266, -1, 266, 294, 300, -1, 266, 300, 272, -1,
 272, 300, 314, -1, 272, 314, 280, -1, 280, 314, 318, -1,
 280, 318, 282, -1, 282, 318, 326, -1, 282, 326, 284, -1,
 284, 326, 330, -1, 284, 330, 333, -1, 239, 203, 233, -1,
 233, 203, 197, -1, 233, 197, 223, -1, 223, 197, 183, -1,
 223, 183, 215, -1, 215, 183, 179, -1, 215, 179, 213, -1,
 213, 179, 171, -1, 213, 171, 211, -1, 211, 171, 167, -1,
 211, 167, 163, -1, 315, 301, 267, -1, 267, 301, 295, -1,
 267, 295, 261, -1, 261, 295, 279, -1, 261, 279, 257, -1,
 257, 279, 265, -1, 257, 265, 250, -1, 250, 265, 251, -1,
 250, 251, 243, -1, 243, 251, 237, -1, 243, 237, 239, -1,
 239, 237, 219, -1, 239, 219, 203, -1, 250, 254, 257, -1,
 257, 254, 259, -1, 257, 259, 261, -1, 261, 259, 275, -1,
 261, 275, 267, -1, 267, 275, 287, -1, 267, 287, 273, -1,
 273, 287, 297, -1, 273, 297, 281, -1, 281, 297, 303, -1,
 281, 303, 283, -1, 283, 303, 309, -1, 283, 309, 285, -1,
 285, 309, 311, -1, 285, 311, 284, -1, 284, 311, 310, -1,
 284, 310, 282, -1, 282, 310, 308, -1, 282, 308, 280, -1,
 280, 308, 302, -1, 280, 302, 272, -1, 272, 302, 296, -1,
 272, 296, 266, -1, 266, 296, 286, -1, 266, 286, 260, -1,
 260, 286, 274, -1, 260, 274, 256, -1, 256, 274, 258, -1,
 256, 258, 249, -1, 249, 258, 253, -1
]
normalIndex [
 106, 106, 111, -1, 111, 106, 111, -1, 111, 111, 125, -1,
 125, 111, 125, -1, 125, 125, 135, -1, 135, 125, 135, -1,
 135, 135, 143, -1, 143, 135, 143, -1, 143, 143, 147, -1,
 147, 143, 147, -1, 147, 147, 153, -1, 153, 147, 153, -1,
 153, 153, 157, -1, 157, 153, 157, -1, 157, 157, 156, -1,
 156, 157, 156, -1, 156, 156, 152, -1, 152, 156, 152, -1,
 152, 152, 146, -1, 146, 152, 146, -1, 146, 146, 142, -1,
 142, 146, 142, -1, 142, 142, 134, -1, 134, 142, 134, -1,
 134, 134, 124, -1, 124, 134, 124, -1, 124, 124, 110, -1,
 110, 124, 110, -1, 110, 110, 105, -1, 105, 110, 105, -1,
 110, 105, 105, -1, 105, 110, 110, -1, 110, 110, 114, -1,
 110, 114, 124, -1, 114, 124, 124, -1, 124, 124, 128, -1,
 124, 128, 134, -1, 128, 134, 134, -1, 134, 134, 138, -1,
 134, 138, 142, -1, 142, 138, 142, -1, 142, 142, 146, -1,
 146, 142, 146, -1, 146, 146, 152, -1, 146, 152, 152, -1,
 152, 152, 154, -1, 152, 154, 156, -1, 154, 156, 156, -1,
 156, 156, 160, -1, 156, 160, 157, -1, 160, 157, 157, -1,
 157, 157, 155, -1, 157, 155, 153, -1, 153, 155, 153, -1,
 153, 153, 147, -1, 147, 153, 147, -1, 147, 147, 143, -1,
 147, 143, 143, -1, 143, 143, 139, -1, 143, 139, 135, -1,
 139, 135, 135, -1, 135, 135, 129, -1, 135, 129, 125, -1,
 106, 106, 111, -1, 111, 106, 111, -1, 111, 111, 115, -1,
 115, 111, 125, -1, 115, 125, 125, -1, 125, 125, 129, -1,
 103, 103, 112, -1, 112, 103, 112, -1, 112, 112, 126, -1,
 126, 112, 126, -1, 126, 126, 136, -1, 136, 126, 136, -1,
 136, 136, 150, -1, 150, 136, 150, -1, 150, 150, 167, -1,
 167, 150, 167, -1, 167, 167, 171, -1, 171, 167, 171, -1,
 171, 171, 175, -1, 175, 171, 175, -1, 175, 175, 187, -1,
 187, 175, 187, -1, 187, 187, 193, -1, 193, 187, 193, -1,
 193, 193, 188, -1, 188, 193, 188, -1, 188, 188, 176, -1,
 176, 188, 176, -1, 176, 176, 172, -1, 172, 176, 172, -1,
 172, 172, 168, -1, 168, 172, 168, -1, 168, 168, 151, -1,
 151, 168, 151, -1, 151, 151, 137, -1, 137, 151, 137, -1,
 137, 137, 127, -1, 127, 137, 127, -1, 127, 127, 113, -1,
 113, 127, 113, -1, 113, 113, 104, -1, 104, 113, 104, -1,
 103, 103, 116, -1, 116, 103, 120, -1, 116, 120, 118, -1,
 118, 120, 132, -1, 132, 120, 136, -1, 132, 136, 136, -1,
 136, 136, 144, -1, 144, 136, 158, -1, 144, 158, 161, -1,
 161, 158, 165, -1, 165, 158, 171, -1, 165, 171, 171, -1,
 171, 171, 179, -1, 179, 171, 183, -1, 179, 183, 181, -1,
 181, 183, 189, -1, 189, 183, 193, -1, 189, 193, 193, -1,
 193, 193, 190, -1, 190, 193, 184, -1, 190, 184, 182, -1,
 182, 184, 180, -1, 180, 184, 172, -1, 180, 172, 172, -1,
 172, 172, 166, -1, 166, 172, 159, -1, 166, 159, 162, -1,
 162, 159, 145, -1, 145, 159, 137, -1, 145, 137, 137, -1,
 137, 137, 133, -1, 133, 137, 121, -1, 133, 121, 119, -1,
 119, 121, 117, -1, 117, 121, 104, -1, 117, 104, 104, -1,
 104, 104, 109, -1, 104, 109, 109, -1, 109, 109, 123, -1,
 109, 123, 123, -1, 123, 123, 131, -1, 123, 131, 131, -1,
 131, 131, 141, -1, 131, 141, 141, -1, 141, 141, 149, -1,
 141, 149, 149, -1, 149, 149, 164, -1, 149, 164, 164, -1,
 164, 164, 170, -1, 164, 170, 170, -1, 170, 170, 174, -1,
 170, 174, 174, -1, 174, 174, 178, -1, 174, 178, 178, -1,
 178, 178, 186, -1, 178, 186, 186, -1, 186, 186, 192, -1,
 186, 192, 192, -1, 192, 192, 191, -1, 192, 191, 191, -1,
 191, 191, 185, -1, 191, 185, 185, -1, 185, 185, 177, -1,
 185, 177, 177, -1, 177, 177, 173, -1, 177, 173, 173, -1,
 173, 173, 169, -1, 173, 169, 169, -1, 169, 169, 163, -1,
 169, 163, 163, -1, 163, 163, 148, -1, 163, 148, 148, -1,
 148, 148, 140, -1, 148, 140, 140, -1, 140, 140, 130, -1,
 140, 130, 130, -1, 130, 130, 122, -1, 130, 122, 122, -1,
 122, 122, 108, -1, 122, 108, 108, -1, 108, 108, 103, -1,
 108, 103, 103, -1, 107, 107, 107, -1, 107, 107, 107, -1,
 107, 107, 107, -1, 107, 107, 107, -1, 107, 107, 107, -1,
 107, 107, 107, -1, 107, 107, 107, -1, 107, 107, 107, -1,
 107, 107, 107, -1, 107, 107, 107, -1, 107, 107, 107, -1,
 107, 107, 107, -1, 107, 107, 107, -1, 107, 107, 107, -1,
 107, 107, 107, -1, 107, 107, 107, -1, 107, 107, 107, -1,
 107, 107, 107, -1, 107, 107, 107, -1, 107, 107, 107, -1,
 107, 107, 107, -1, 107, 107, 107, -1, 107, 107, 107, -1,
 107, 107, 107, -1, 107, 107, 107, -1, 107, 107, 107, -1,
 107, 107, 107, -1, 107, 107, 107, -1, 107, 107, 107, -1,
 107, 107, 107, -1, 107, 107, 107, -1, 107, 107, 107, -1,
 107, 107, 107, -1, 107, 107, 107, -1, 107, 107, 107, -1,
 107, 107, 107, -1, 107, 107, 107, -1, 107, 107, 107, -1,
 107, 107, 107, -1, 107, 107, 107, -1, 107, 107, 107, -1,
 107, 107, 107, -1, 107, 107, 107, -1, 107, 107, 107, -1,
 107, 107, 107, -1, 107, 107, 107, -1, 107, 107, 107, -1,
 107, 107, 107, -1, 107, 107, 107, -1, 107, 107, 107, -1,
 107, 107, 107, -1, 107, 107, 107, -1, 107, 107, 107, -1,
 107, 107, 107, -1, 107, 107, 107, -1, 107, 107, 107, -1,
 107, 107, 107, -1, 107, 107, 107, -1, 107, 107, 107, -1,
 107, 107, 107, -1, 107, 107, 107, -1, 107, 107, 107, -1,
 107, 107, 107, -1, 107, 107, 107, -1, 107, 107, 107, -1,
 107, 107, 107, -1, 107, 107, 107, -1, 107, 107, 107, -1,
 102, 102, 102, -1, 102, 102, 102, -1, 102, 102, 102, -1,
 102, 102, 102, -1, 102, 102, 102, -1, 102, 102, 102, -1,
 102, 102, 102, -1, 102, 102, 102, -1, 102, 102, 102, -1,
 102, 102, 102, -1, 102, 102, 102, -1, 102, 102, 102, -1,
 102, 102, 102, -1, 102, 102, 102, -1, 102, 102, 102, -1,
 102, 102, 102, -1, 102, 102, 102, -1, 102, 102, 102, -1,
 102, 102, 102, -1, 102, 102, 102, -1, 102, 102, 102, -1,
 102, 102, 102, -1, 102, 102, 102, -1, 102, 102, 102, -1,
 102, 102, 102, -1, 102, 102, 102, -1, 102, 102, 102, -1,
 102, 102, 102, -1, 102, 102, 102, -1, 102, 102, 102, -1,
 102, 102, 102, -1, 102, 102, 102, -1, 102, 102, 102, -1,
 102, 102, 102, -1, 102, 102, 102, -1, 102, 102, 102, -1,
 102, 102, 102, -1, 102, 102, 102, -1, 102, 102, 102, -1,
 102, 102, 102, -1, 102, 102, 102, -1, 102, 102, 102, -1,
 102, 102, 102, -1, 102, 102, 102, -1, 102, 102, 102, -1,
 102, 102, 102, -1, 102, 102, 102, -1, 102, 102, 102, -1,
 102, 102, 102, -1, 102, 102, 102, -1, 102, 102, 102, -1,
 102, 102, 102, -1, 102, 102, 102, -1, 102, 102, 102, -1,
 102, 102, 102, -1, 102, 102, 102, -1, 102, 102, 102, -1,
 102, 102, 102, -1, 102, 102, 102, -1, 102, 102, 102, -1,
 102, 102, 102, -1, 102, 102, 102, -1, 102, 102, 102, -1,
 102, 102, 102, -1, 102, 102, 102, -1, 102, 102, 102, -1,
 102, 102, 102, -1, 102, 102, 102, -1, 102, 102, 102, -1,
 102, 102, 102, -1, 102, 102, 102, -1, 102, 102, 102, -1,
 102, 102, 102, -1, 102, 102, 102, -1, 102, 102, 102, -1,
 102, 102, 102, -1, 102, 102, 102, -1, 102, 102, 102, -1,
 102, 102, 102, -1, 102, 102, 102, -1, 102, 102, 102, -1,
 102, 102, 102, -1, 102, 102, 102, -1, 102, 102, 102, -1,
 102, 102, 102, -1, 102, 102, 102, -1, 102, 102, 102, -1,
 102, 102, 102, -1, 102, 102, 102, -1, 102, 102, 102, -1,
 102, 102, 102, -1, 102, 102, 102, -1, 102, 102, 102, -1,
 102, 102, 102, -1, 102, 102, 102, -1, 102, 102, 102, -1,
 102, 102, 102, -1, 102, 102, 102, -1, 102, 102, 102, -1,
 102, 102, 102, -1, 102, 102, 102, -1, 102, 102, 102, -1,
 102, 102, 102, -1, 102, 102, 102, -1, 102, 102, 102, -1,
 102, 102, 102, -1, 96, 96, 80, -1, 96, 80, 80, -1,
 80, 80, 64, -1, 80, 64, 64, -1, 64, 64, 50, -1,
 64, 50, 50, -1, 50, 50, 31, -1, 50, 31, 31, -1,
 31, 31, 23, -1, 31, 23, 23, -1, 23, 23, 15, -1,
 23, 15, 15, -1, 15, 15, 3, -1, 15, 3, 3, -1,
 3, 3, 4, -1, 3, 4, 4, -1, 4, 4, 16, -1,
 4, 16, 16, -1, 16, 16, 24, -1, 16, 24, 24, -1,
 24, 24, 32, -1, 24, 32, 32, -1, 32, 32, 51, -1,
 32, 51, 51, -1, 51, 51, 65, -1, 51, 65, 65, -1,
 65, 65, 81, -1, 65, 81, 81, -1, 81, 81, 97, -1,
 81, 97, 97, -1, 97, 97, 97, -1, 97, 97, 97, -1,
 97, 97, 101, -1, 85, 97, 101, -1, 101, 85, 85, -1,
 85, 85, 75, -1, 85, 75, 75, -1, 75, 75, 63, -1,
 75, 63, 63, -1, 63, 63, 55, -1, 63, 55, 55, -1,
 55, 55, 38, -1, 55, 38, 38, -1, 38, 38, 30, -1,
 38, 30, 30, -1, 30, 30, 26, -1, 30, 26, 26, -1,
 26, 26, 20, -1, 26, 20, 20, -1, 20, 20, 10, -1,
 20, 10, 10, -1, 10, 10, 2, -1, 10, 2, 2, -1,
 2, 2, 1, -1, 2, 1, 1, -1, 1, 1, 9, -1,
 1, 9, 9, -1, 9, 9, 19, -1, 9, 19, 19, -1,
 19, 19, 25, -1, 19, 25, 25, -1, 25, 25, 29, -1,
 25, 29, 29, -1, 29, 29, 37, -1, 29, 37, 37, -1,
 37, 37, 54, -1, 37, 54, 54, -1, 54, 54, 62, -1,
 54, 62, 62, -1, 62, 62, 74, -1, 62, 74, 74, -1,
 74, 74, 84, -1, 74, 84, 84, -1, 100, 96, 96, -1,
 84, 84, 96, -1, 96, 84, 100, -1, 96, 100, 100, -1,
 100, 100, 103, -1, 100, 103, 103, -1, 97, 101, 101, -1,
 101, 101, 104, -1, 101, 104, 104, -1, 96, 96, 96, -1,
 96, 96, 96, -1, 104, 104, 91, -1, 91, 104, 87, -1,
 91, 87, 89, -1, 89, 87, 73, -1, 73, 87, 69, -1,
 73, 69, 69, -1, 69, 69, 59, -1, 59, 69, 42, -1,
 59, 42, 40, -1, 40, 42, 36, -1, 36, 42, 28, -1,
 36, 28, 28, -1, 28, 28, 18, -1, 18, 28, 12, -1,
 18, 12, 14, -1, 14, 12, 6, -1, 6, 12, 0, -1,
 6, 0, 0, -1, 0, 0, 5, -1, 5, 0, 11, -1,
 5, 11, 13, -1, 13, 11, 17, -1, 17, 11, 27, -1,
 17, 27, 27, -1, 27, 27, 35, -1, 35, 27, 41, -1,
 35, 41, 39, -1, 39, 41, 58, -1, 58, 41, 68, -1,
 58, 68, 68, -1, 68, 68, 72, -1, 72, 68, 86, -1,
 72, 86, 88, -1, 88, 86, 90, -1, 90, 86, 103, -1,
 90, 103, 103, -1, 104, 104, 95, -1, 95, 104, 95, -1,
 95, 95, 79, -1, 79, 95, 79, -1, 79, 79, 69, -1,
 69, 79, 69, -1, 69, 69, 53, -1, 53, 69, 53, -1,
 53, 53, 34, -1, 34, 53, 34, -1, 34, 34, 28, -1,
 28, 34, 28, -1, 28, 28, 22, -1, 22, 28, 22, -1,
 22, 22, 8, -1, 8, 22, 8, -1, 8, 8, 0, -1,
 0, 8, 0, -1, 0, 0, 7, -1, 7, 0, 7, -1,
 7, 7, 21, -1, 21, 7, 21, -1, 21, 21, 27, -1,
 27, 21, 27, -1, 27, 27, 33, -1, 33, 27, 33, -1,
 33, 33, 52, -1, 52, 33, 52, -1, 52, 52, 68, -1,
 68, 52, 68, -1, 68, 68, 78, -1, 78, 68, 78, -1,
 78, 78, 94, -1, 94, 78, 94, -1, 94, 94, 103, -1,
 103, 94, 103, -1, 99, 106, 106, -1, 106, 99, 99, -1,
 99, 99, 93, -1, 99, 93, 83, -1, 93, 83, 83, -1,
 83, 83, 77, -1, 83, 77, 71, -1, 77, 71, 71, -1,
 71, 71, 67, -1, 71, 67, 61, -1, 61, 67, 61, -1,
 61, 61, 57, -1, 57, 61, 57, -1, 57, 57, 49, -1,
 57, 49, 49, -1, 49, 49, 47, -1, 49, 47, 45, -1,
 47, 45, 45, -1, 45, 45, 43, -1, 45, 43, 44, -1,
 43, 44, 44, -1, 44, 44, 46, -1, 44, 46, 48, -1,
 48, 46, 48, -1, 48, 48, 56, -1, 56, 48, 56, -1,
 56, 56, 60, -1, 56, 60, 60, -1, 60, 60, 66, -1,
 60, 66, 70, -1, 66, 70, 70, -1, 70, 70, 76, -1,
 70, 76, 82, -1, 105, 105, 98, -1, 98, 105, 98, -1,
 98, 98, 92, -1, 92, 98, 82, -1, 92, 82, 82, -1,
 82, 82, 76, -1, 107, 107, 107, -1, 107, 107, 107, -1,
 107, 107, 107, -1, 107, 107, 107, -1, 107, 107, 107, -1,
 107, 107, 107, -1, 107, 107, 107, -1, 107, 107, 107, -1,
 107, 107, 107, -1, 107, 107, 107, -1, 107, 107, 107, -1,
 107, 107, 107, -1, 107, 107, 107, -1, 107, 107, 107, -1,
 107, 107, 107, -1, 107, 107, 107, -1, 107, 107, 107, -1,
 107, 107, 107, -1, 107, 107, 107, -1, 107, 107, 107, -1,
 107, 107, 107, -1, 107, 107, 107, -1, 107, 107, 107, -1,
 107, 107, 107, -1, 107, 107, 107, -1, 107, 107, 107, -1,
 107, 107, 107, -1, 107, 107, 107, -1, 107, 107, 107, -1,
 107, 107, 107, -1, 107, 107, 107, -1, 107, 107, 107, -1,
 107, 107, 107, -1, 107, 107, 107, -1, 107, 107, 107, -1,
 107, 107, 107, -1, 107, 107, 107, -1, 107, 107, 107, -1,
 107, 107, 107, -1, 107, 107, 107, -1, 107, 107, 107, -1,
 107, 107, 107, -1, 107, 107, 107, -1, 107, 107, 107, -1,
 107, 107, 107, -1, 107, 107, 107, -1, 107, 107, 107, -1,
 107, 107, 107, -1, 107, 107, 107, -1, 107, 107, 107, -1,
 107, 107, 107, -1, 107, 107, 107, -1, 107, 107, 107, -1,
 107, 107, 107, -1, 107, 107, 107, -1, 107, 107, 107, -1,
 107, 107, 107, -1, 107, 107, 107, -1, 107, 107, 107, -1,
 107, 107, 107, -1, 107, 107, 107, -1, 107, 107, 107, -1,
 107, 107, 107, -1, 107, 107, 107, -1, 107, 107, 107, -1,
 107, 107, 107, -1, 107, 107, 107, -1, 107, 107, 107, -1,
 107, 107, 107, -1, 107, 107, 107, -1, 107, 107, 107, -1,
 107, 107, 107, -1, 107, 107, 107, -1, 107, 107, 107, -1,
 107, 107, 107, -1, 107, 107, 107, -1, 102, 102, 102, -1,
 102, 102, 102, -1, 102, 102, 102, -1, 102, 102, 102, -1,
 102, 102, 102, -1, 102, 102, 102, -1, 102, 102, 102, -1,
 102, 102, 102, -1, 102, 102, 102, -1, 102, 102, 102, -1,
 102, 102, 102, -1, 102, 102, 102, -1, 102, 102, 102, -1,
 102, 102, 102, -1, 102, 102, 102, -1, 102, 102, 102, -1,
 102, 102, 102, -1, 102, 102, 102, -1, 102, 102, 102, -1,
 102, 102, 102, -1, 102, 102, 102, -1, 102, 102, 102, -1,
 102, 102, 102, -1, 102, 102, 102, -1, 102, 102, 102, -1,
 102, 102, 102, -1, 102, 102, 102, -1, 102, 102, 102, -1,
 102, 102, 102, -1, 102, 102, 102, -1, 102, 102, 102, -1,
 102, 102, 102, -1, 102, 102, 102, -1, 102, 102, 102, -1,
 102, 102, 102, -1, 102, 102, 102, -1, 102, 102, 102, -1,
 102, 102, 102, -1, 102, 102, 102, -1, 102, 102, 102, -1,
 102, 102, 102, -1, 102, 102, 102, -1, 102, 102, 102, -1,
 102, 102, 102, -1, 102, 102, 102, -1, 102, 102, 102, -1,
 102, 102, 102, -1, 102, 102, 102, -1, 102, 102, 102, -1,
 102, 102, 102, -1, 102, 102, 102, -1, 102, 102, 102, -1,
 102, 102, 102, -1, 102, 102, 102, -1, 102, 102, 102, -1,
 102, 102, 102, -1, 102, 102, 102, -1, 102, 102, 102, -1,
 102, 102, 102, -1, 102, 102, 102, -1, 102, 102, 102, -1,
 102, 102, 102, -1, 102, 102, 102, -1, 102, 102, 102, -1,
 102, 102, 102, -1, 102, 102, 102, -1, 105, 105, 98, -1,
 98, 105, 98, -1, 98, 98, 82, -1, 82, 98, 82, -1,
 82, 82, 70, -1, 70, 82, 70, -1, 70, 70, 60, -1,
 60, 70, 60, -1, 60, 60, 56, -1, 56, 60, 56, -1,
 56, 56, 48, -1, 48, 56, 48, -1, 48, 48, 44, -1,
 44, 48, 44, -1, 44, 44, 45, -1, 45, 44, 45, -1,
 45, 45, 49, -1, 49, 45, 49, -1, 49, 49, 57, -1,
 57, 49, 57, -1, 57, 57, 61, -1, 61, 57, 61, -1,
 61, 61, 71, -1, 71, 61, 71, -1, 71, 71, 83, -1,
 83, 71, 83, -1, 83, 83, 99, -1, 99, 83, 99, -1,
 99, 99, 106, -1, 106, 99, 106, -1
]
colorPerVertex FALSE
normalPerVertex TRUE
}
}
]
}
