#VRML V2.0 utf8
Transform {
children [
Shape {
appearance Appearance {
material Material {
ambientIntensity 1.000000
diffuseColor 1.000000 1.000000 1.000000
emissiveColor 0.210000 0.210000 0.210000
specularColor 0.880000 0.880000 0.880000
shininess 0.210000
transparency 0.000000
}
}
geometry IndexedFaceSet {
color Color {
color [
 1.000000 1.000000 1.000000
]
}
coord Coordinate {
point [
 -0.009400 -0.005300 -0.003700, -0.009400 -0.005300 0.003700, -0.009400 -0.001500 -0.003700, -0.009400 -0.001500 0.003700, -0.008700 -0.027000 -0.006500,
 -0.008700 -0.027000 0.006500, -0.008700 -0.007100 -0.006500, -0.008700 -0.007100 0.006500, -0.008700 -0.001500 -0.006500, -0.008700 -0.001500 -0.003700,
 -0.008700 -0.001500 0.003700, -0.008700 -0.001500 0.006500, -0.008700 -0.000300 -0.006500, -0.008700 -0.000300 0.006500, -0.008690 -0.000222 -0.006500,
 -0.008690 -0.000222 0.006500, -0.008660 -0.000150 -0.006500, -0.008660 -0.000150 0.006500, -0.008612 -0.000088 -0.006500, -0.008612 -0.000088 0.006500,
 -0.008550 -0.000040 -0.006500, -0.008550 -0.000040 0.006500, -0.008478 -0.000010 -0.006500, -0.008478 -0.000010 0.006500, -0.008400 0.000000 -0.006500,
 -0.008400 0.000000 0.006500, -0.007700 -0.024600 -0.006500, -0.007700 -0.024600 0.006500, -0.007700 -0.009600 -0.006500, -0.007700 -0.009600 0.006500,
 -0.005980 -0.024600 -0.000495, -0.005980 -0.024600 0.000495, -0.005980 -0.009600 -0.000495, -0.005980 -0.009600 0.000495, -0.005816 -0.024600 -0.001473,
 -0.005816 -0.024600 0.001473, -0.005816 -0.009600 -0.001473, -0.005816 -0.009600 0.001473, -0.005495 -0.024600 -0.002410, -0.005495 -0.024600 0.002410,
 -0.005495 -0.009600 -0.002410, -0.005495 -0.009600 0.002410, -0.005023 -0.024600 -0.003282, -0.005023 -0.024600 0.003282, -0.005023 -0.009600 -0.003282,
 -0.005023 -0.009600 0.003282, -0.004700 -0.005300 -0.003700, -0.004700 -0.005300 0.003700, -0.004700 -0.001500 -0.003700, -0.004700 -0.001500 0.003700,
 -0.004414 -0.024600 -0.004064, -0.004414 -0.024600 0.004064, -0.004414 -0.009600 -0.004064, -0.004414 -0.009600 0.004064, -0.003685 -0.024600 -0.004735,
 -0.003685 -0.024600 0.004735, -0.003685 -0.009600 -0.004735, -0.003685 -0.009600 0.004735, -0.002856 -0.024600 -0.005277, -0.002856 -0.024600 0.005277,
 -0.002856 -0.009600 -0.005277, -0.002856 -0.009600 0.005277, -0.002400 -0.007100 -0.000000, -0.002400 -0.001500 0.000000, -0.002400 0.000000 -0.000650,
 -0.002400 0.000000 0.000650, -0.002400 0.003400 -0.000650, -0.002400 0.003400 0.000650, -0.002318 -0.007100 -0.000621, -0.002318 -0.007100 0.000621,
 -0.002318 -0.001500 -0.000621, -0.002318 -0.001500 0.000621, -0.002078 -0.007100 -0.001200, -0.002078 -0.007100 0.001200, -0.002078 -0.001500 -0.001200,
 -0.002078 -0.001500 0.001200, -0.001948 -0.024600 -0.005675, -0.001948 -0.024600 0.005675, -0.001948 -0.009600 -0.005675, -0.001948 -0.009600 0.005675,
 -0.001697 -0.007100 -0.001697, -0.001697 -0.007100 0.001697, -0.001697 -0.001500 -0.001697, -0.001697 -0.001500 0.001697, -0.001200 -0.007100 -0.002078,
 -0.001200 -0.007100 0.002078, -0.001200 -0.001500 -0.002078, -0.001200 -0.001500 0.002078, -0.000988 -0.024600 -0.005918, -0.000988 -0.024600 0.005918,
 -0.000988 -0.009600 -0.005918, -0.000988 -0.009600 0.005918, -0.000621 -0.007100 -0.002318, -0.000621 -0.007100 0.002318, -0.000621 -0.001500 -0.002318,
 -0.000621 -0.001500 0.002318, 0.000000 -0.024600 -0.006000, -0.000000 -0.024600 0.006000, 0.000000 -0.009600 -0.006000, 0.000000 -0.009600 0.006000,
 -0.000000 -0.007100 -0.002400, -0.000000 -0.007100 0.002400, -0.000000 -0.001500 -0.002400, -0.000000 -0.001500 0.002400, 0.000621 -0.007100 -0.002318,
 0.000621 -0.007100 0.002318, 0.000621 -0.001500 -0.002318, 0.000621 -0.001500 0.002318, 0.000988 -0.024600 -0.005918, 0.000988 -0.024600 0.005918,
 0.000988 -0.009600 -0.005918, 0.000988 -0.009600 0.005918, 0.001200 -0.007100 -0.002078, 0.001200 -0.007100 0.002078, 0.001200 -0.001500 -0.002078,
 0.001200 -0.001500 0.002078, 0.001697 -0.007100 -0.001697, 0.001697 -0.007100 0.001697, 0.001697 -0.001500 -0.001697, 0.001697 -0.001500 0.001697,
 0.001948 -0.024600 -0.005675, 0.001948 -0.024600 0.005675, 0.001948 -0.009600 -0.005675, 0.001948 -0.009600 0.005675, 0.002078 -0.007100 -0.001200,
 0.002078 -0.007100 0.001200, 0.002078 -0.001500 -0.001200, 0.002078 -0.001500 0.001200, 0.002318 -0.007100 -0.000621, 0.002318 -0.007100 0.000621,
 0.002318 -0.001500 -0.000621, 0.002318 -0.001500 0.000621, 0.002400 -0.007100 0.000000, 0.002400 -0.001500 0.000000, 0.002400 0.000000 -0.000650,
 0.002400 0.000000 0.000650, 0.002400 0.005800 -0.000650, 0.002400 0.005800 0.000650, 0.002856 -0.024600 -0.005277, 0.002856 -0.024600 0.005277,
 0.002856 -0.009600 -0.005277, 0.002856 -0.009600 0.005277, 0.003685 -0.024600 -0.004735, 0.003685 -0.024600 0.004735, 0.003685 -0.009600 -0.004735,
 0.003685 -0.009600 0.004735, 0.004414 -0.024600 -0.004064, 0.004414 -0.024600 0.004064, 0.004414 -0.009600 -0.004064, 0.004414 -0.009600 0.004064,
 0.005023 -0.024600 -0.003282, 0.005023 -0.024600 0.003282, 0.005023 -0.009600 -0.003282, 0.005023 -0.009600 0.003282, 0.005495 -0.024600 -0.002410,
 0.005495 -0.024600 0.002410, 0.005495 -0.009600 -0.002410, 0.005495 -0.009600 0.002410, 0.005816 -0.024600 -0.001473, 0.005816 -0.024600 0.001473,
 0.005816 -0.009600 -0.001473, 0.005816 -0.009600 0.001473, 0.005980 -0.024600 -0.000495, 0.005980 -0.024600 0.000495, 0.005980 -0.009600 -0.000495,
 0.005980 -0.009600 0.000495, 0.006000 -0.024600 0.000000, 0.006700 -0.024600 -0.006500, 0.006700 -0.024600 0.006500, 0.006700 -0.009600 -0.006500,
 0.006700 -0.009600 0.006500, 0.007900 -0.027000 -0.011600, 0.007900 -0.027000 -0.006500, 0.007900 -0.026990 -0.011678, 0.007900 -0.026960 -0.011750,
 0.007900 -0.026912 -0.011812, 0.007900 -0.026850 -0.011860, 0.007900 -0.026778 -0.011890, 0.007900 -0.026700 -0.011900, 0.007900 -0.025650 -0.009200,
 0.007900 -0.025609 -0.009511, 0.007900 -0.025609 -0.008889, 0.007900 -0.025489 -0.009800, 0.007900 -0.025489 -0.008600, 0.007900 -0.025299 -0.010049,
 0.007900 -0.025299 -0.008351, 0.007900 -0.025050 -0.010239, 0.007900 -0.025050 -0.008161, 0.007900 -0.024761 -0.010359, 0.007900 -0.024761 -0.008041,
 0.007900 -0.024450 -0.010400, 0.007900 -0.024450 -0.008000, 0.007900 -0.024139 -0.010359, 0.007900 -0.024139 -0.008041, 0.007900 -0.023850 -0.010239,
 0.007900 -0.023850 -0.008161, 0.007900 -0.023601 -0.010049, 0.007900 -0.023601 -0.008351, 0.007900 -0.023411 -0.009800, 0.007900 -0.023411 -0.008600,
 0.007900 -0.023291 -0.009511, 0.007900 -0.023291 -0.008889, 0.007900 -0.023250 -0.009200, 0.007900 -0.022200 -0.011900, 0.007900 -0.022122 -0.011890,
 0.007900 -0.022050 -0.011860, 0.007900 -0.021988 -0.011812, 0.007900 -0.021940 -0.011750, 0.007900 -0.021910 -0.011678, 0.007900 -0.021900 -0.011600,
 0.007900 -0.021900 -0.006500, 0.007900 -0.007100 -0.006500, 0.007900 -0.007100 0.006500, 0.007900 -0.005000 -0.011200, 0.007900 -0.005000 -0.006500,
 0.007900 -0.005000 0.006500, 0.007900 -0.005000 0.011200, 0.007900 -0.004990 -0.011278, 0.007900 -0.004990 0.011278, 0.007900 -0.004960 -0.011350,
 0.007900 -0.004960 0.011350, 0.007900 -0.004912 -0.011412, 0.007900 -0.004912 0.011412, 0.007900 -0.004850 -0.011460, 0.007900 -0.004850 0.011460,
 0.007900 -0.004778 -0.011490, 0.007900 -0.004778 0.011490, 0.007900 -0.004700 -0.011500, 0.007900 -0.004700 0.011500, 0.007900 -0.003700 -0.009000,
 0.007900 -0.003700 0.009000, 0.007900 -0.003659 -0.009311, 0.007900 -0.003659 -0.008689, 0.007900 -0.003659 0.008689, 0.007900 -0.003659 0.009311,
 0.007900 -0.003539 -0.009600, 0.007900 -0.003539 -0.008400, 0.007900 -0.003539 0.008400, 0.007900 -0.003539 0.009600, 0.007900 -0.003349 -0.009849,
 0.007900 -0.003349 -0.008151, 0.007900 -0.003349 0.008151, 0.007900 -0.003349 0.009849, 0.007900 -0.003100 -0.010039, 0.007900 -0.003100 -0.007961,
 0.007900 -0.003100 0.007961, 0.007900 -0.003100 0.010039, 0.007900 -0.002811 -0.010159, 0.007900 -0.002811 -0.007841, 0.007900 -0.002811 0.007841,
 0.007900 -0.002811 0.010159, 0.007900 -0.002500 -0.010200, 0.007900 -0.002500 -0.007800, 0.007900 -0.002500 0.007800, 0.007900 -0.002500 0.010200,
 0.007900 -0.002189 -0.010159, 0.007900 -0.002189 -0.007841, 0.007900 -0.002189 0.007841, 0.007900 -0.002189 0.010159, 0.007900 -0.001900 -0.010039,
 0.007900 -0.001900 -0.007961, 0.007900 -0.001900 0.007961, 0.007900 -0.001900 0.010039, 0.007900 -0.001651 -0.009849, 0.007900 -0.001651 -0.008151,
 0.007900 -0.001651 0.008151, 0.007900 -0.001651 0.009849, 0.007900 -0.001500 -0.006500, 0.007900 -0.001500 0.006500, 0.007900 -0.001461 -0.009600,
 0.007900 -0.001461 -0.008400, 0.007900 -0.001461 0.008400, 0.007900 -0.001461 0.009600, 0.007900 -0.001341 -0.009311, 0.007900 -0.001341 -0.008689,
 0.007900 -0.001341 0.008689, 0.007900 -0.001341 0.009311, 0.007900 -0.001300 -0.009000, 0.007900 -0.001300 0.009000, 0.007900 -0.000300 -0.011500,
 0.007900 -0.000300 0.011500, 0.007900 -0.000222 -0.011490, 0.007900 -0.000222 0.011490, 0.007900 -0.000150 -0.011460, 0.007900 -0.000150 0.011460,
 0.007900 -0.000088 -0.011412, 0.007900 -0.000088 0.011412, 0.007900 -0.000040 -0.011350, 0.007900 -0.000040 0.011350, 0.007900 -0.000010 -0.011278,
 0.007900 -0.000010 0.011278, 0.007900 -0.000000 -0.011200, 0.007900 -0.000000 -0.006500, 0.007900 0.000000 0.006500, 0.007900 -0.000000 0.011200,
 0.008700 -0.027000 -0.011600, 0.008700 -0.027000 -0.006800, 0.008700 -0.027000 0.006500, 0.008700 -0.026990 -0.011678, 0.008700 -0.026960 -0.011750,
 0.008700 -0.026912 -0.011812, 0.008700 -0.026850 -0.011860, 0.008700 -0.026778 -0.011890, 0.008700 -0.026700 -0.011900, 0.008700 -0.026100 -0.004050,
 0.008700 -0.026040 -0.004503, 0.008700 -0.026040 -0.003597, 0.008700 -0.025866 -0.004925, 0.008700 -0.025866 -0.003175, 0.008700 -0.025650 -0.009200,
 0.008700 -0.025609 -0.009511, 0.008700 -0.025609 -0.008889, 0.008700 -0.025587 -0.005287, 0.008700 -0.025587 -0.002813, 0.008700 -0.025489 -0.009800,
 0.008700 -0.025489 -0.008600, 0.008700 -0.025299 -0.010049, 0.008700 -0.025299 -0.008351, 0.008700 -0.025225 -0.005566, 0.008700 -0.025225 -0.002534,
 0.008700 -0.025050 -0.010239, 0.008700 -0.025050 -0.008161, 0.008700 -0.024803 -0.005740, 0.008700 -0.024803 -0.002360, 0.008700 -0.024761 -0.010359,
 0.008700 -0.024761 -0.008041, 0.008700 -0.024450 -0.010400, 0.008700 -0.024450 -0.008000, 0.008700 -0.024350 -0.005800, 0.008700 -0.024350 -0.002300,
 0.008700 -0.024139 -0.010359, 0.008700 -0.024139 -0.008041, 0.008700 -0.023897 -0.005740, 0.008700 -0.023897 -0.002360, 0.008700 -0.023850 -0.010239,
 0.008700 -0.023850 -0.008161, 0.008700 -0.023601 -0.010049, 0.008700 -0.023601 -0.008351, 0.008700 -0.023475 -0.005566, 0.008700 -0.023475 -0.002534,
 0.008700 -0.023411 -0.009800, 0.008700 -0.023411 -0.008600, 0.008700 -0.023291 -0.009511, 0.008700 -0.023291 -0.008889, 0.008700 -0.023250 -0.009200,
 0.008700 -0.023113 -0.005287, 0.008700 -0.023113 -0.002813, 0.008700 -0.022834 -0.004925, 0.008700 -0.022834 -0.003175, 0.008700 -0.022660 -0.004503,
 0.008700 -0.022660 -0.003597, 0.008700 -0.022600 -0.004050, 0.008700 -0.022200 -0.011900, 0.008700 -0.022122 -0.011890, 0.008700 -0.022050 -0.011860,
 0.008700 -0.021988 -0.011812, 0.008700 -0.021940 -0.011750, 0.008700 -0.021910 -0.011678, 0.008700 -0.021900 -0.011600, 0.008700 -0.021900 -0.006800,
 0.008700 -0.021900 -0.006500, 0.008700 -0.018350 -0.006500, 0.008700 -0.018350 0.006500, 0.008700 -0.014100 0.003750, 0.008700 -0.014040 0.003297,
 0.008700 -0.014040 0.004203, 0.008700 -0.013866 0.002875, 0.008700 -0.013866 0.004625, 0.008700 -0.013587 0.002513, 0.008700 -0.013587 0.004987,
 0.008700 -0.013225 0.002234, 0.008700 -0.013225 0.005266, 0.008700 -0.012803 0.002060, 0.008700 -0.012803 0.005440, 0.008700 -0.012350 0.002000,
 0.008700 -0.012350 0.005500, 0.008700 -0.011897 0.002060, 0.008700 -0.011897 0.005440, 0.008700 -0.011475 0.002234, 0.008700 -0.011475 0.005266,
 0.008700 -0.011113 0.002513, 0.008700 -0.011113 0.004987, 0.008700 -0.010834 0.002875, 0.008700 -0.010834 0.004625, 0.008700 -0.010660 0.003297,
 0.008700 -0.010660 0.004203, 0.008700 -0.010600 0.003750, 0.008700 -0.005000 -0.011200, 0.008700 -0.005000 -0.006800, 0.008700 -0.005000 -0.006500,
 0.008700 -0.005000 0.006500, 0.008700 -0.005000 0.011200, 0.008700 -0.004990 -0.011278, 0.008700 -0.004990 0.011278, 0.008700 -0.004960 -0.011350,
 0.008700 -0.004960 0.011350, 0.008700 -0.004912 -0.011412, 0.008700 -0.004912 0.011412, 0.008700 -0.004850 -0.011460, 0.008700 -0.004850 0.011460,
 0.008700 -0.004778 -0.011490, 0.008700 -0.004778 0.011490, 0.008700 -0.004700 -0.011500, 0.008700 -0.004700 0.011500, 0.008700 -0.003700 -0.009000,
 0.008700 -0.003700 0.009000, 0.008700 -0.003659 -0.009311, 0.008700 -0.003659 -0.008689, 0.008700 -0.003659 0.008689, 0.008700 -0.003659 0.009311,
 0.008700 -0.003539 -0.009600, 0.008700 -0.003539 -0.008400, 0.008700 -0.003539 0.008400, 0.008700 -0.003539 0.009600, 0.008700 -0.003349 -0.009849,
 0.008700 -0.003349 -0.008151, 0.008700 -0.003349 0.008151, 0.008700 -0.003349 0.009849, 0.008700 -0.003100 -0.010039, 0.008700 -0.003100 -0.007961,
 0.008700 -0.003100 0.007961, 0.008700 -0.003100 0.010039, 0.008700 -0.002811 -0.010159, 0.008700 -0.002811 -0.007841, 0.008700 -0.002811 0.007841,
 0.008700 -0.002811 0.010159, 0.008700 -0.002500 -0.010200, 0.008700 -0.002500 -0.007800, 0.008700 -0.002500 0.007800, 0.008700 -0.002500 0.010200,
 0.008700 -0.002189 -0.010159, 0.008700 -0.002189 -0.007841, 0.008700 -0.002189 0.007841, 0.008700 -0.002189 0.010159, 0.008700 -0.001900 -0.010039,
 0.008700 -0.001900 -0.007961, 0.008700 -0.001900 0.007961, 0.008700 -0.001900 0.010039, 0.008700 -0.001651 -0.009849, 0.008700 -0.001651 -0.008151,
 0.008700 -0.001651 0.008151, 0.008700 -0.001651 0.009849, 0.008700 -0.001461 -0.009600, 0.008700 -0.001461 -0.008400, 0.008700 -0.001461 0.008400,
 0.008700 -0.001461 0.009600, 0.008700 -0.001341 -0.009311, 0.008700 -0.001341 -0.008689, 0.008700 -0.001341 0.008689, 0.008700 -0.001341 0.009311,
 0.008700 -0.001300 -0.009000, 0.008700 -0.001300 0.009000, 0.008700 -0.000300 -0.011500, 0.008700 -0.000300 0.011500, 0.008700 -0.000222 -0.011490,
 0.008700 -0.000222 0.011490, 0.008700 -0.000150 -0.011460, 0.008700 -0.000150 0.011460, 0.008700 -0.000088 -0.011412, 0.008700 -0.000088 0.011412,
 0.008700 -0.000040 -0.011350, 0.008700 -0.000040 0.011350, 0.008700 -0.000010 -0.011278, 0.008700 -0.000010 0.011278, 0.008700 0.000000 -0.011200,
 0.008700 0.000000 -0.006800, 0.008700 0.000000 0.011200, 0.009700 -0.026100 -0.004050, 0.009700 -0.026040 -0.004503, 0.009700 -0.026040 -0.003597,
 0.009700 -0.025866 -0.004925, 0.009700 -0.025866 -0.003175, 0.009700 -0.025587 -0.005287, 0.009700 -0.025587 -0.002813, 0.009700 -0.025225 -0.005566,
 0.009700 -0.025225 -0.002534, 0.009700 -0.024803 -0.005740, 0.009700 -0.024803 -0.002360, 0.009700 -0.024350 -0.005800, 0.009700 -0.024350 -0.004050,
 0.009700 -0.024350 -0.002300, 0.009700 -0.023897 -0.005740, 0.009700 -0.023897 -0.002360, 0.009700 -0.023475 -0.005566, 0.009700 -0.023475 -0.002534,
 0.009700 -0.023113 -0.005287, 0.009700 -0.023113 -0.002813, 0.009700 -0.022834 -0.004925, 0.009700 -0.022834 -0.003175, 0.009700 -0.022660 -0.004503,
 0.009700 -0.022660 -0.003597, 0.009700 -0.022600 -0.004050, 0.009700 -0.014100 0.003750, 0.009700 -0.014040 0.003297, 0.009700 -0.014040 0.004203,
 0.009700 -0.013866 0.002875, 0.009700 -0.013866 0.004625, 0.009700 -0.013587 0.002513, 0.009700 -0.013587 0.004987, 0.009700 -0.013225 0.002234,
 0.009700 -0.013225 0.005266, 0.009700 -0.012803 0.002060, 0.009700 -0.012803 0.005440, 0.009700 -0.012350 0.002000, 0.009700 -0.012350 0.003750,
 0.009700 -0.012350 0.005500, 0.009700 -0.011897 0.002060, 0.009700 -0.011897 0.005440, 0.009700 -0.011475 0.002234, 0.009700 -0.011475 0.005266,
 0.009700 -0.011113 0.002513, 0.009700 -0.011113 0.004987, 0.009700 -0.010834 0.002875, 0.009700 -0.010834 0.004625, 0.009700 -0.010660 0.003297,
 0.009700 -0.010660 0.004203, 0.009700 -0.010600 0.003750
]
}
normal Normal {
vector [
 -1.000000 0.000000 0.000000, -0.996584 0.000000 -0.082579, -0.996584 0.000000 0.082579, -0.969400 0.000000 -0.245485, -0.969400 0.000000 0.245485,
 -0.965926 0.000000 -0.258819, -0.965926 0.000000 0.258819, -0.965926 0.258819 0.000000, -0.915773 0.000000 -0.401695, -0.915773 0.000000 0.401695,
 -0.866025 0.000000 -0.500000, -0.866025 0.000000 0.500000, -0.866025 0.500000 0.000000, -0.837166 0.000000 -0.546948, -0.837166 0.000000 0.546948,
 -0.735724 0.000000 -0.677282, -0.735724 0.000000 0.677282, -0.707107 0.000000 -0.707107, -0.707107 0.000000 0.707107, -0.707107 0.707107 0.000000,
 -0.614213 0.000000 -0.789141, -0.614213 0.000000 0.789141, -0.500000 0.000000 -0.866025, -0.500000 0.000000 0.866025, -0.500000 0.866025 0.000000,
 -0.475947 0.000000 -0.879474, -0.475947 0.000000 0.879474, -0.447214 0.894427 0.000000, -0.324699 0.000000 -0.945817, -0.324699 0.000000 0.945817,
 -0.258819 0.000000 -0.965926, -0.258819 0.000000 0.965926, -0.258819 0.965926 0.000000, -0.164595 0.000000 -0.986361, -0.164595 0.000000 0.986361,
 -0.000000 -1.000000 0.000000, 0.000000 -0.965926 -0.258819, 0.000000 -0.965926 0.258819, 0.000000 -0.866025 -0.500000, 0.000000 -0.866025 0.500000,
 0.000000 -0.707107 -0.707107, 0.000000 -0.707107 0.707107, 0.000000 -0.500000 -0.866025, 0.000000 -0.500000 0.866025, 0.000000 -0.258819 -0.965926,
 0.000000 -0.258819 0.965926, 0.000000 0.000000 -1.000000, 0.000000 0.000000 1.000000, 0.000000 0.258819 -0.965926, 0.000000 0.258819 0.965926,
 0.000000 0.500000 -0.866025, 0.000000 0.500000 0.866025, 0.000000 0.707107 -0.707107, 0.000000 0.707107 0.707107, 0.000000 0.866025 -0.500000,
 0.000000 0.866025 0.500000, 0.000000 0.965926 -0.258819, 0.000000 0.965926 0.258819, 0.000000 1.000000 0.000000, 0.164595 0.000000 -0.986361,
 0.164595 0.000000 0.986361, 0.258819 0.000000 -0.965926, 0.258819 0.000000 0.965926, 0.324699 0.000000 -0.945817, 0.324699 0.000000 0.945817,
 0.475947 0.000000 -0.879474, 0.475947 0.000000 0.879474, 0.500000 0.000000 -0.866025, 0.500000 0.000000 0.866025, 0.614213 0.000000 -0.789141,
 0.614213 0.000000 0.789141, 0.707107 0.000000 -0.707107, 0.707107 0.000000 0.707107, 0.735724 0.000000 -0.677282, 0.735724 0.000000 0.677282,
 0.837166 0.000000 -0.546948, 0.837166 0.000000 0.546948, 0.866025 0.000000 -0.500000, 0.866025 0.000000 0.500000, 0.915773 0.000000 -0.401695,
 0.915773 0.000000 0.401695, 0.965926 0.000000 -0.258819, 0.965926 0.000000 0.258819, 0.969400 0.000000 -0.245485, 0.969400 0.000000 0.245485,
 0.996584 0.000000 -0.082579, 0.996584 0.000000 0.082579, 1.000000 0.000000 0.000000
]
}
coordIndex [
 268, 11, 49, -1, 49, 11, 10, -1, 9, 8, 48, -1,
 48, 8, 267, -1, 83, 87, 49, -1, 49, 87, 95, -1,
 49, 95, 268, -1, 268, 95, 103, -1, 268, 103, 107, -1,
 130, 267, 133, -1, 133, 267, 268, -1, 133, 268, 131, -1,
 131, 268, 127, -1, 130, 126, 267, -1, 267, 126, 118, -1,
 267, 118, 114, -1, 86, 82, 48, -1, 48, 82, 74, -1,
 48, 74, 49, -1, 49, 74, 70, -1, 49, 70, 63, -1,
 63, 71, 49, -1, 49, 71, 75, -1, 49, 75, 83, -1,
 107, 115, 268, -1, 268, 115, 119, -1, 268, 119, 127, -1,
 114, 106, 267, -1, 267, 106, 102, -1, 267, 102, 48, -1,
 48, 102, 94, -1, 48, 94, 86, -1, 361, 360, 210, -1,
 211, 169, 6, -1, 6, 169, 28, -1, 6, 28, 4, -1,
 4, 28, 26, -1, 4, 26, 172, -1, 172, 26, 167, -1,
 172, 167, 210, -1, 210, 167, 169, -1, 210, 169, 361, -1,
 361, 169, 211, -1, 361, 211, 389, -1, 389, 211, 214, -1,
 8, 12, 267, -1, 267, 12, 24, -1, 267, 24, 292, -1,
 18, 12, 16, -1, 16, 12, 14, -1, 18, 20, 12, -1,
 12, 20, 22, -1, 12, 22, 24, -1, 362, 390, 212, -1,
 212, 390, 215, -1, 5, 297, 168, -1, 168, 297, 362, -1,
 168, 362, 170, -1, 170, 362, 212, -1, 170, 212, 29, -1,
 29, 212, 7, -1, 29, 7, 27, -1, 27, 7, 5, -1,
 27, 5, 168, -1, 11, 268, 13, -1, 13, 268, 293, -1,
 293, 25, 13, -1, 13, 25, 23, -1, 13, 23, 21, -1,
 21, 19, 13, -1, 13, 19, 17, -1, 13, 17, 15, -1,
 12, 8, 9, -1, 12, 9, 13, -1, 13, 9, 10, -1,
 13, 10, 11, -1, 134, 64, 136, -1, 136, 64, 66, -1,
 64, 65, 66, -1, 66, 65, 67, -1, 65, 135, 67, -1,
 67, 135, 137, -1, 136, 137, 134, -1, 134, 137, 135, -1,
 67, 137, 66, -1, 66, 137, 136, -1, 293, 294, 466, -1,
 464, 291, 465, -1, 465, 291, 292, -1, 292, 134, 135, -1,
 134, 292, 64, -1, 64, 292, 24, -1, 64, 24, 65, -1,
 65, 24, 25, -1, 65, 25, 135, -1, 135, 25, 293, -1,
 135, 293, 292, -1, 292, 293, 466, -1, 292, 466, 465, -1,
 6, 4, 7, -1, 7, 4, 5, -1, 394, 396, 414, -1,
 415, 419, 388, -1, 456, 458, 438, -1, 415, 388, 411, -1,
 465, 435, 439, -1, 434, 430, 452, -1, 452, 430, 426, -1,
 452, 426, 402, -1, 426, 422, 402, -1, 402, 422, 418, -1,
 402, 418, 400, -1, 400, 418, 414, -1, 400, 414, 398, -1,
 398, 414, 396, -1, 410, 406, 387, -1, 387, 406, 404, -1,
 387, 404, 388, -1, 388, 404, 407, -1, 388, 407, 411, -1,
 419, 423, 388, -1, 388, 423, 427, -1, 388, 427, 465, -1,
 465, 427, 431, -1, 465, 431, 435, -1, 410, 387, 414, -1,
 414, 387, 392, -1, 414, 392, 394, -1, 450, 464, 447, -1,
 447, 464, 465, -1, 447, 465, 443, -1, 443, 465, 439, -1,
 434, 452, 438, -1, 438, 452, 454, -1, 438, 454, 456, -1,
 450, 446, 464, -1, 464, 446, 442, -1, 464, 442, 462, -1,
 462, 442, 438, -1, 462, 438, 460, -1, 460, 438, 458, -1,
 428, 424, 390, -1, 390, 424, 420, -1, 390, 420, 416, -1,
 366, 364, 361, -1, 386, 384, 390, -1, 399, 397, 417, -1,
 461, 459, 441, -1, 405, 391, 408, -1, 408, 391, 390, -1,
 408, 390, 412, -1, 412, 390, 416, -1, 466, 445, 449, -1,
 449, 451, 466, -1, 466, 451, 448, -1, 466, 448, 465, -1,
 465, 448, 444, -1, 465, 444, 440, -1, 363, 365, 362, -1,
 429, 453, 425, -1, 425, 453, 403, -1, 425, 403, 421, -1,
 429, 433, 453, -1, 453, 433, 437, -1, 453, 437, 455, -1,
 455, 437, 441, -1, 455, 441, 457, -1, 457, 441, 459, -1,
 445, 466, 441, -1, 441, 466, 463, -1, 441, 463, 461, -1,
 390, 389, 428, -1, 428, 389, 388, -1, 428, 388, 432, -1,
 432, 388, 465, -1, 432, 465, 436, -1, 436, 465, 440, -1,
 372, 370, 361, -1, 361, 370, 368, -1, 361, 368, 366, -1,
 390, 384, 389, -1, 389, 384, 382, -1, 389, 382, 380, -1,
 380, 378, 389, -1, 389, 378, 376, -1, 389, 376, 361, -1,
 361, 376, 374, -1, 361, 374, 372, -1, 421, 403, 417, -1,
 417, 403, 401, -1, 417, 401, 399, -1, 363, 362, 364, -1,
 365, 367, 362, -1, 362, 367, 369, -1, 362, 369, 371, -1,
 379, 381, 390, -1, 405, 409, 391, -1, 391, 409, 413, -1,
 391, 413, 393, -1, 393, 413, 417, -1, 393, 417, 395, -1,
 395, 417, 397, -1, 371, 373, 362, -1, 362, 373, 375, -1,
 362, 375, 390, -1, 390, 375, 377, -1, 390, 377, 379, -1,
 381, 383, 390, -1, 390, 383, 385, -1, 390, 385, 386, -1,
 312, 307, 296, -1, 312, 296, 318, -1, 319, 297, 313, -1,
 313, 297, 308, -1, 349, 347, 360, -1, 360, 347, 345, -1,
 360, 345, 359, -1, 359, 345, 338, -1, 338, 332, 359, -1,
 359, 332, 328, -1, 359, 328, 296, -1, 296, 328, 322, -1,
 296, 322, 318, -1, 307, 305, 296, -1, 296, 305, 304, -1,
 296, 304, 297, -1, 297, 304, 306, -1, 297, 306, 308, -1,
 339, 346, 362, -1, 362, 346, 348, -1, 362, 348, 350, -1,
 364, 362, 361, -1, 361, 362, 350, -1, 361, 350, 360, -1,
 360, 350, 351, -1, 360, 351, 349, -1, 319, 323, 297, -1,
 297, 323, 329, -1, 297, 329, 362, -1, 362, 329, 333, -1,
 362, 333, 339, -1, 326, 303, 330, -1, 330, 303, 352, -1,
 330, 352, 334, -1, 326, 324, 303, -1, 303, 324, 320, -1,
 303, 320, 302, -1, 302, 320, 316, -1, 302, 316, 301, -1,
 301, 316, 300, -1, 354, 355, 336, -1, 295, 298, 316, -1,
 316, 298, 299, -1, 316, 299, 300, -1, 316, 314, 295, -1,
 295, 314, 310, -1, 295, 310, 296, -1, 296, 310, 309, -1,
 296, 309, 311, -1, 311, 315, 296, -1, 296, 315, 317, -1,
 296, 317, 321, -1, 359, 335, 337, -1, 334, 352, 336, -1,
 336, 352, 353, -1, 336, 353, 354, -1, 321, 325, 296, -1,
 296, 325, 327, -1, 296, 327, 359, -1, 359, 327, 331, -1,
 359, 331, 335, -1, 344, 358, 343, -1, 343, 358, 359, -1,
 343, 359, 341, -1, 341, 359, 337, -1, 344, 342, 358, -1,
 358, 342, 340, -1, 358, 340, 357, -1, 357, 340, 336, -1,
 357, 336, 356, -1, 356, 336, 355, -1, 5, 4, 297, -1,
 297, 4, 172, -1, 297, 172, 296, -1, 296, 172, 171, -1,
 296, 171, 295, -1, 7, 212, 101, -1, 6, 84, 92, -1,
 116, 211, 112, -1, 112, 211, 104, -1, 129, 125, 212, -1,
 212, 125, 117, -1, 101, 93, 7, -1, 7, 93, 85, -1,
 7, 85, 81, -1, 6, 92, 211, -1, 211, 92, 100, -1,
 211, 100, 104, -1, 117, 113, 212, -1, 212, 113, 105, -1,
 212, 105, 101, -1, 68, 72, 6, -1, 6, 72, 80, -1,
 6, 80, 84, -1, 116, 124, 211, -1, 211, 124, 128, -1,
 211, 128, 212, -1, 212, 128, 132, -1, 212, 132, 129, -1,
 81, 73, 7, -1, 7, 73, 69, -1, 7, 69, 6, -1,
 6, 69, 62, -1, 6, 62, 68, -1, 214, 211, 212, -1,
 284, 286, 266, -1, 244, 240, 212, -1, 212, 240, 236, -1,
 277, 274, 267, -1, 267, 274, 270, -1, 287, 285, 263, -1,
 253, 293, 249, -1, 249, 293, 268, -1, 230, 233, 264, -1,
 264, 233, 237, -1, 264, 237, 241, -1, 236, 232, 212, -1,
 212, 232, 229, -1, 212, 229, 214, -1, 214, 229, 213, -1,
 260, 256, 215, -1, 215, 256, 252, -1, 215, 252, 212, -1,
 212, 252, 248, -1, 212, 248, 244, -1, 253, 257, 293, -1,
 293, 257, 261, -1, 293, 261, 265, -1, 220, 222, 242, -1,
 270, 264, 267, -1, 267, 264, 241, -1, 267, 241, 268, -1,
 268, 241, 245, -1, 268, 245, 249, -1, 229, 231, 213, -1,
 213, 231, 235, -1, 213, 235, 217, -1, 217, 235, 239, -1,
 223, 221, 239, -1, 239, 221, 219, -1, 239, 219, 217, -1,
 251, 279, 247, -1, 247, 279, 227, -1, 247, 227, 243, -1,
 267, 292, 277, -1, 277, 292, 291, -1, 277, 291, 273, -1,
 273, 291, 269, -1, 262, 258, 280, -1, 280, 258, 254, -1,
 280, 254, 228, -1, 254, 250, 228, -1, 228, 250, 246, -1,
 228, 246, 226, -1, 226, 246, 242, -1, 226, 242, 224, -1,
 224, 242, 222, -1, 238, 234, 216, -1, 216, 234, 230, -1,
 216, 230, 215, -1, 215, 230, 264, -1, 215, 264, 260, -1,
 251, 255, 279, -1, 279, 255, 259, -1, 279, 259, 281, -1,
 281, 259, 263, -1, 281, 263, 283, -1, 283, 263, 285, -1,
 269, 291, 263, -1, 263, 291, 289, -1, 263, 289, 287, -1,
 265, 271, 293, -1, 293, 271, 275, -1, 293, 275, 294, -1,
 294, 275, 278, -1, 238, 216, 242, -1, 242, 216, 218, -1,
 242, 218, 220, -1, 243, 227, 239, -1, 239, 227, 225, -1,
 239, 225, 223, -1, 262, 280, 266, -1, 266, 280, 282, -1,
 266, 282, 284, -1, 278, 276, 294, -1, 294, 276, 272, -1,
 294, 272, 290, -1, 290, 272, 266, -1, 290, 266, 288, -1,
 288, 266, 286, -1, 103, 105, 107, -1, 107, 105, 113, -1,
 107, 113, 115, -1, 115, 113, 117, -1, 115, 117, 119, -1,
 119, 117, 125, -1, 119, 125, 127, -1, 127, 125, 129, -1,
 127, 129, 131, -1, 131, 129, 132, -1, 131, 132, 133, -1,
 133, 132, 128, -1, 133, 128, 130, -1, 130, 128, 124, -1,
 130, 124, 126, -1, 126, 124, 116, -1, 126, 116, 118, -1,
 118, 116, 112, -1, 118, 112, 114, -1, 114, 112, 104, -1,
 114, 104, 106, -1, 106, 104, 100, -1, 106, 100, 102, -1,
 102, 100, 92, -1, 102, 92, 94, -1, 94, 92, 84, -1,
 94, 84, 86, -1, 86, 84, 80, -1, 86, 80, 82, -1,
 82, 80, 72, -1, 82, 72, 74, -1, 74, 72, 68, -1,
 74, 68, 70, -1, 70, 68, 62, -1, 70, 62, 63, -1,
 63, 62, 69, -1, 63, 69, 71, -1, 71, 69, 73, -1,
 71, 73, 75, -1, 75, 73, 81, -1, 75, 81, 83, -1,
 83, 81, 85, -1, 83, 85, 87, -1, 87, 85, 93, -1,
 87, 93, 95, -1, 95, 93, 101, -1, 95, 101, 103, -1,
 103, 101, 105, -1, 216, 215, 391, -1, 391, 215, 390, -1,
 280, 228, 453, -1, 453, 228, 403, -1, 253, 428, 257, -1,
 257, 428, 432, -1, 257, 432, 261, -1, 261, 432, 436, -1,
 261, 436, 265, -1, 265, 436, 440, -1, 265, 440, 271, -1,
 271, 440, 444, -1, 271, 444, 275, -1, 275, 444, 448, -1,
 275, 448, 278, -1, 278, 448, 451, -1, 278, 451, 276, -1,
 276, 451, 449, -1, 276, 449, 272, -1, 272, 449, 445, -1,
 272, 445, 266, -1, 266, 445, 441, -1, 266, 441, 262, -1,
 262, 441, 437, -1, 262, 437, 258, -1, 258, 437, 433, -1,
 258, 433, 254, -1, 254, 433, 429, -1, 254, 429, 250, -1,
 250, 429, 425, -1, 250, 425, 246, -1, 246, 425, 421, -1,
 246, 421, 242, -1, 242, 421, 417, -1, 242, 417, 238, -1,
 238, 417, 413, -1, 238, 413, 234, -1, 234, 413, 409, -1,
 234, 409, 230, -1, 230, 409, 405, -1, 230, 405, 233, -1,
 233, 405, 408, -1, 233, 408, 237, -1, 237, 408, 412, -1,
 237, 412, 241, -1, 241, 412, 416, -1, 241, 416, 245, -1,
 245, 416, 420, -1, 245, 420, 249, -1, 249, 420, 424, -1,
 249, 424, 253, -1, 253, 424, 428, -1, 227, 279, 402, -1,
 402, 279, 452, -1, 389, 214, 388, -1, 388, 214, 213, -1,
 388, 213, 387, -1, 251, 426, 255, -1, 255, 426, 430, -1,
 255, 430, 259, -1, 259, 430, 434, -1, 259, 434, 263, -1,
 263, 434, 438, -1, 263, 438, 269, -1, 269, 438, 442, -1,
 269, 442, 273, -1, 273, 442, 446, -1, 273, 446, 277, -1,
 277, 446, 450, -1, 277, 450, 274, -1, 274, 450, 447, -1,
 274, 447, 270, -1, 270, 447, 443, -1, 270, 443, 264, -1,
 264, 443, 439, -1, 264, 439, 260, -1, 260, 439, 435, -1,
 260, 435, 256, -1, 256, 435, 431, -1, 256, 431, 252, -1,
 252, 431, 427, -1, 252, 427, 248, -1, 248, 427, 423, -1,
 248, 423, 244, -1, 244, 423, 419, -1, 244, 419, 240, -1,
 240, 419, 415, -1, 240, 415, 236, -1, 236, 415, 411, -1,
 236, 411, 232, -1, 232, 411, 407, -1, 232, 407, 229, -1,
 229, 407, 404, -1, 229, 404, 231, -1, 231, 404, 406, -1,
 231, 406, 235, -1, 235, 406, 410, -1, 235, 410, 239, -1,
 239, 410, 414, -1, 239, 414, 243, -1, 243, 414, 418, -1,
 243, 418, 247, -1, 247, 418, 422, -1, 247, 422, 251, -1,
 251, 422, 426, -1, 358, 209, 359, -1, 359, 209, 210, -1,
 359, 210, 360, -1, 352, 303, 203, -1, 203, 303, 178, -1,
 187, 185, 172, -1, 199, 197, 210, -1, 210, 197, 195, -1,
 196, 198, 209, -1, 198, 200, 209, -1, 209, 200, 202, -1,
 209, 202, 210, -1, 210, 202, 201, -1, 210, 201, 199, -1,
 195, 193, 210, -1, 210, 193, 191, -1, 210, 191, 172, -1,
 172, 191, 189, -1, 172, 189, 187, -1, 176, 175, 184, -1,
 186, 188, 178, -1, 178, 188, 190, -1, 178, 190, 203, -1,
 209, 208, 196, -1, 196, 208, 207, -1, 196, 207, 206, -1,
 179, 171, 181, -1, 181, 171, 172, -1, 181, 172, 183, -1,
 183, 172, 185, -1, 179, 180, 171, -1, 171, 180, 182, -1,
 171, 182, 173, -1, 173, 182, 184, -1, 173, 184, 174, -1,
 174, 184, 175, -1, 186, 178, 184, -1, 184, 178, 177, -1,
 184, 177, 176, -1, 190, 192, 203, -1, 203, 192, 194, -1,
 203, 194, 204, -1, 204, 194, 196, -1, 204, 196, 205, -1,
 205, 196, 206, -1, 190, 326, 192, -1, 192, 326, 330, -1,
 192, 330, 194, -1, 194, 330, 334, -1, 194, 334, 196, -1,
 196, 334, 336, -1, 196, 336, 198, -1, 198, 336, 340, -1,
 198, 340, 200, -1, 200, 340, 342, -1, 200, 342, 202, -1,
 202, 342, 344, -1, 202, 344, 201, -1, 201, 344, 343, -1,
 201, 343, 199, -1, 199, 343, 341, -1, 199, 341, 197, -1,
 197, 341, 337, -1, 197, 337, 195, -1, 195, 337, 335, -1,
 195, 335, 193, -1, 193, 335, 331, -1, 193, 331, 191, -1,
 191, 331, 327, -1, 191, 327, 189, -1, 189, 327, 325, -1,
 189, 325, 187, -1, 187, 325, 321, -1, 187, 321, 185, -1,
 185, 321, 317, -1, 185, 317, 183, -1, 183, 317, 315, -1,
 183, 315, 181, -1, 181, 315, 311, -1, 181, 311, 179, -1,
 179, 311, 309, -1, 179, 309, 180, -1, 180, 309, 310, -1,
 180, 310, 182, -1, 182, 310, 314, -1, 182, 314, 184, -1,
 184, 314, 316, -1, 184, 316, 186, -1, 186, 316, 320, -1,
 186, 320, 188, -1, 188, 320, 324, -1, 188, 324, 190, -1,
 190, 324, 326, -1, 9, 2, 10, -1, 10, 2, 3, -1,
 0, 1, 2, -1, 2, 1, 3, -1, 48, 46, 9, -1,
 9, 46, 0, -1, 9, 0, 2, -1, 47, 46, 49, -1,
 49, 46, 48, -1, 3, 1, 10, -1, 10, 1, 47, -1,
 10, 47, 49, -1, 46, 47, 0, -1, 0, 47, 1, -1,
 375, 507, 377, -1, 377, 507, 509, -1, 377, 509, 379, -1,
 379, 509, 511, -1, 379, 511, 381, -1, 381, 511, 513, -1,
 381, 513, 383, -1, 383, 513, 515, -1, 383, 515, 385, -1,
 385, 515, 516, -1, 385, 516, 386, -1, 386, 516, 514, -1,
 386, 514, 384, -1, 384, 514, 512, -1, 384, 512, 382, -1,
 382, 512, 510, -1, 382, 510, 380, -1, 380, 510, 508, -1,
 380, 508, 378, -1, 378, 508, 506, -1, 378, 506, 376, -1,
 376, 506, 503, -1, 376, 503, 374, -1, 374, 503, 501, -1,
 374, 501, 372, -1, 372, 501, 499, -1, 372, 499, 370, -1,
 370, 499, 497, -1, 370, 497, 368, -1, 368, 497, 495, -1,
 368, 495, 366, -1, 366, 495, 493, -1, 366, 493, 364, -1,
 364, 493, 492, -1, 364, 492, 363, -1, 363, 492, 494, -1,
 363, 494, 365, -1, 365, 494, 496, -1, 365, 496, 367, -1,
 367, 496, 498, -1, 367, 498, 369, -1, 369, 498, 500, -1,
 369, 500, 371, -1, 371, 500, 502, -1, 371, 502, 373, -1,
 373, 502, 505, -1, 373, 505, 375, -1, 375, 505, 507, -1,
 499, 501, 504, -1, 504, 501, 503, -1, 504, 503, 506, -1,
 493, 495, 504, -1, 504, 495, 497, -1, 504, 497, 499, -1,
 496, 494, 504, -1, 504, 494, 492, -1, 504, 492, 493, -1,
 502, 500, 504, -1, 504, 500, 498, -1, 504, 498, 496, -1,
 509, 507, 504, -1, 504, 507, 505, -1, 504, 505, 502, -1,
 515, 513, 504, -1, 504, 513, 511, -1, 504, 511, 509, -1,
 512, 514, 504, -1, 504, 514, 516, -1, 504, 516, 515, -1,
 506, 508, 504, -1, 504, 508, 510, -1, 504, 510, 512, -1,
 329, 482, 333, -1, 333, 482, 484, -1, 333, 484, 339, -1,
 339, 484, 486, -1, 339, 486, 346, -1, 346, 486, 488, -1,
 346, 488, 348, -1, 348, 488, 490, -1, 348, 490, 350, -1,
 350, 490, 491, -1, 350, 491, 351, -1, 351, 491, 489, -1,
 351, 489, 349, -1, 349, 489, 487, -1, 349, 487, 347, -1,
 347, 487, 485, -1, 347, 485, 345, -1, 345, 485, 483, -1,
 345, 483, 338, -1, 338, 483, 481, -1, 338, 481, 332, -1,
 332, 481, 478, -1, 332, 478, 328, -1, 328, 478, 476, -1,
 328, 476, 322, -1, 322, 476, 474, -1, 322, 474, 318, -1,
 318, 474, 472, -1, 318, 472, 312, -1, 312, 472, 470, -1,
 312, 470, 307, -1, 307, 470, 468, -1, 307, 468, 305, -1,
 305, 468, 467, -1, 305, 467, 304, -1, 304, 467, 469, -1,
 304, 469, 306, -1, 306, 469, 471, -1, 306, 471, 308, -1,
 308, 471, 473, -1, 308, 473, 313, -1, 313, 473, 475, -1,
 313, 475, 319, -1, 319, 475, 477, -1, 319, 477, 323, -1,
 323, 477, 480, -1, 323, 480, 329, -1, 329, 480, 482, -1,
 474, 476, 479, -1, 479, 476, 478, -1, 479, 478, 481, -1,
 468, 470, 479, -1, 479, 470, 472, -1, 479, 472, 474, -1,
 471, 469, 479, -1, 479, 469, 467, -1, 479, 467, 468, -1,
 477, 475, 479, -1, 479, 475, 473, -1, 479, 473, 471, -1,
 484, 482, 479, -1, 479, 482, 480, -1, 479, 480, 477, -1,
 490, 488, 479, -1, 479, 488, 486, -1, 479, 486, 484, -1,
 487, 489, 479, -1, 479, 489, 491, -1, 479, 491, 490, -1,
 481, 483, 479, -1, 479, 483, 485, -1, 479, 485, 487, -1,
 280, 453, 455, -1, 280, 455, 282, -1, 282, 455, 457, -1,
 282, 457, 284, -1, 284, 457, 459, -1, 284, 459, 286, -1,
 286, 459, 461, -1, 286, 461, 288, -1, 288, 461, 463, -1,
 288, 463, 290, -1, 290, 463, 466, -1, 290, 466, 294, -1,
 216, 391, 393, -1, 216, 393, 218, -1, 218, 393, 395, -1,
 218, 395, 220, -1, 220, 395, 397, -1, 220, 397, 222, -1,
 222, 397, 399, -1, 222, 399, 224, -1, 224, 399, 401, -1,
 224, 401, 226, -1, 226, 401, 403, -1, 226, 403, 228, -1,
 387, 213, 217, -1, 387, 217, 392, -1, 392, 217, 219, -1,
 392, 219, 394, -1, 394, 219, 221, -1, 394, 221, 396, -1,
 396, 221, 223, -1, 396, 223, 398, -1, 398, 223, 225, -1,
 398, 225, 400, -1, 400, 225, 227, -1, 400, 227, 402, -1,
 209, 358, 357, -1, 209, 357, 208, -1, 208, 357, 356, -1,
 208, 356, 207, -1, 207, 356, 355, -1, 207, 355, 206, -1,
 206, 355, 354, -1, 206, 354, 205, -1, 205, 354, 353, -1,
 205, 353, 204, -1, 204, 353, 352, -1, 204, 352, 203, -1,
 178, 303, 302, -1, 178, 302, 177, -1, 177, 302, 301, -1,
 177, 301, 176, -1, 176, 301, 300, -1, 176, 300, 175, -1,
 175, 300, 299, -1, 175, 299, 174, -1, 174, 299, 298, -1,
 174, 298, 173, -1, 173, 298, 295, -1, 173, 295, 171, -1,
 452, 279, 281, -1, 452, 281, 454, -1, 454, 281, 283, -1,
 454, 283, 456, -1, 456, 283, 285, -1, 456, 285, 458, -1,
 458, 285, 287, -1, 458, 287, 460, -1, 460, 287, 289, -1,
 460, 289, 462, -1, 462, 289, 291, -1, 462, 291, 464, -1,
 12, 13, 15, -1, 12, 15, 14, -1, 14, 15, 17, -1,
 14, 17, 16, -1, 16, 17, 19, -1, 16, 19, 18, -1,
 18, 19, 21, -1, 18, 21, 20, -1, 20, 21, 23, -1,
 20, 23, 22, -1, 22, 23, 25, -1, 22, 25, 24, -1,
 56, 28, 60, -1, 60, 28, 78, -1, 53, 57, 29, -1,
 29, 57, 61, -1, 29, 61, 79, -1, 79, 91, 29, -1,
 29, 91, 99, -1, 29, 99, 170, -1, 170, 99, 111, -1,
 122, 110, 169, -1, 169, 110, 98, -1, 169, 98, 28, -1,
 28, 98, 90, -1, 28, 90, 78, -1, 56, 52, 28, -1,
 28, 52, 44, -1, 28, 44, 40, -1, 111, 123, 170, -1,
 170, 123, 141, -1, 170, 141, 145, -1, 148, 144, 169, -1,
 169, 144, 140, -1, 169, 140, 122, -1, 37, 41, 29, -1,
 29, 41, 45, -1, 29, 45, 53, -1, 40, 36, 28, -1,
 28, 36, 32, -1, 28, 32, 29, -1, 29, 32, 33, -1,
 29, 33, 37, -1, 145, 149, 170, -1, 170, 149, 153, -1,
 170, 153, 157, -1, 157, 161, 170, -1, 170, 161, 165, -1,
 170, 165, 169, -1, 169, 165, 164, -1, 169, 164, 160, -1,
 160, 156, 169, -1, 169, 156, 152, -1, 169, 152, 148, -1,
 170, 169, 168, -1, 168, 169, 167, -1, 58, 76, 26, -1,
 51, 43, 27, -1, 27, 43, 39, -1, 159, 155, 168, -1,
 27, 89, 77, -1, 34, 38, 26, -1, 26, 38, 42, -1,
 76, 88, 26, -1, 26, 88, 96, -1, 26, 96, 167, -1,
 167, 96, 108, -1, 167, 108, 120, -1, 89, 27, 97, -1,
 97, 27, 168, -1, 97, 168, 109, -1, 77, 59, 27, -1,
 27, 59, 55, -1, 27, 55, 51, -1, 39, 35, 27, -1,
 27, 35, 31, -1, 27, 31, 26, -1, 26, 31, 30, -1,
 26, 30, 34, -1, 42, 50, 26, -1, 26, 50, 54, -1,
 26, 54, 58, -1, 120, 138, 167, -1, 167, 138, 142, -1,
 167, 142, 146, -1, 146, 150, 167, -1, 167, 150, 154, -1,
 167, 154, 158, -1, 155, 151, 168, -1, 168, 151, 147, -1,
 168, 147, 143, -1, 143, 139, 168, -1, 168, 139, 121, -1,
 168, 121, 109, -1, 158, 162, 167, -1, 167, 162, 166, -1,
 167, 166, 168, -1, 168, 166, 163, -1, 168, 163, 159, -1,
 27, 26, 29, -1, 29, 26, 28, -1, 166, 162, 164, -1,
 164, 162, 158, -1, 164, 158, 160, -1, 160, 158, 154, -1,
 160, 154, 156, -1, 156, 154, 150, -1, 156, 150, 152, -1,
 152, 150, 146, -1, 152, 146, 148, -1, 148, 146, 142, -1,
 148, 142, 144, -1, 144, 142, 138, -1, 144, 138, 140, -1,
 140, 138, 120, -1, 140, 120, 122, -1, 122, 120, 108, -1,
 122, 108, 110, -1, 110, 108, 96, -1, 110, 96, 98, -1,
 98, 96, 88, -1, 98, 88, 90, -1, 90, 88, 76, -1,
 90, 76, 78, -1, 78, 76, 58, -1, 78, 58, 60, -1,
 60, 58, 54, -1, 60, 54, 56, -1, 56, 54, 50, -1,
 56, 50, 52, -1, 52, 50, 42, -1, 52, 42, 44, -1,
 44, 42, 38, -1, 44, 38, 40, -1, 40, 38, 34, -1,
 40, 34, 36, -1, 36, 34, 30, -1, 36, 30, 32, -1,
 32, 30, 31, -1, 32, 31, 33, -1, 33, 31, 35, -1,
 33, 35, 37, -1, 37, 35, 39, -1, 37, 39, 41, -1,
 41, 39, 43, -1, 41, 43, 45, -1, 45, 43, 51, -1,
 45, 51, 53, -1, 53, 51, 55, -1, 53, 55, 57, -1,
 57, 55, 59, -1, 57, 59, 61, -1, 61, 59, 77, -1,
 61, 77, 79, -1, 79, 77, 89, -1, 79, 89, 91, -1,
 91, 89, 97, -1, 91, 97, 99, -1, 99, 97, 109, -1,
 99, 109, 111, -1, 111, 109, 121, -1, 111, 121, 123, -1,
 123, 121, 139, -1, 123, 139, 141, -1, 141, 139, 143, -1,
 141, 143, 145, -1, 145, 143, 147, -1, 145, 147, 149, -1,
 149, 147, 151, -1, 149, 151, 153, -1, 153, 151, 155, -1,
 153, 155, 157, -1, 157, 155, 159, -1, 157, 159, 161, -1,
 161, 159, 163, -1, 161, 163, 165, -1, 165, 163, 166, -1,
 165, 166, 164, -1
]
normalIndex [
 35, 35, 35, -1, 35, 35, 35, -1, 35, 35, 35, -1,
 35, 35, 35, -1, 35, 35, 35, -1, 35, 35, 35, -1,
 35, 35, 35, -1, 35, 35, 35, -1, 35, 35, 35, -1,
 35, 35, 35, -1, 35, 35, 35, -1, 35, 35, 35, -1,
 35, 35, 35, -1, 35, 35, 35, -1, 35, 35, 35, -1,
 35, 35, 35, -1, 35, 35, 35, -1, 35, 35, 35, -1,
 35, 35, 35, -1, 35, 35, 35, -1, 35, 35, 35, -1,
 35, 35, 35, -1, 35, 35, 35, -1, 35, 35, 35, -1,
 35, 35, 35, -1, 35, 35, 35, -1, 35, 35, 35, -1,
 35, 35, 35, -1, 35, 35, 35, -1, 35, 35, 35, -1,
 35, 35, 35, -1, 35, 35, 35, -1, 46, 46, 46, -1,
 46, 46, 46, -1, 46, 46, 46, -1, 46, 46, 46, -1,
 46, 46, 46, -1, 46, 46, 46, -1, 46, 46, 46, -1,
 46, 46, 46, -1, 46, 46, 46, -1, 46, 46, 46, -1,
 46, 46, 46, -1, 46, 46, 46, -1, 46, 46, 46, -1,
 46, 46, 46, -1, 46, 46, 46, -1, 46, 46, 46, -1,
 46, 46, 46, -1, 46, 46, 46, -1, 46, 46, 46, -1,
 46, 46, 46, -1, 46, 46, 46, -1, 47, 47, 47, -1,
 47, 47, 47, -1, 47, 47, 47, -1, 47, 47, 47, -1,
 47, 47, 47, -1, 47, 47, 47, -1, 47, 47, 47, -1,
 47, 47, 47, -1, 47, 47, 47, -1, 47, 47, 47, -1,
 47, 47, 47, -1, 47, 47, 47, -1, 47, 47, 47, -1,
 47, 47, 47, -1, 47, 47, 47, -1, 47, 47, 47, -1,
 47, 47, 47, -1, 47, 47, 47, -1, 47, 47, 47, -1,
 0, 0, 0, -1, 0, 0, 0, -1, 0, 0, 0, -1,
 0, 0, 0, -1, 46, 46, 46, -1, 46, 46, 46, -1,
 0, 0, 0, -1, 0, 0, 0, -1, 47, 47, 47, -1,
 47, 47, 47, -1, 87, 87, 87, -1, 87, 87, 87, -1,
 27, 27, 27, -1, 27, 27, 27, -1, 58, 58, 58, -1,
 58, 58, 58, -1, 58, 58, 58, -1, 58, 58, 58, -1,
 58, 58, 58, -1, 58, 58, 58, -1, 58, 58, 58, -1,
 58, 58, 58, -1, 58, 58, 58, -1, 58, 58, 58, -1,
 58, 58, 58, -1, 58, 58, 58, -1, 58, 58, 58, -1,
 0, 0, 0, -1, 0, 0, 0, -1, 87, 87, 87, -1,
 87, 87, 87, -1, 87, 87, 87, -1, 87, 87, 87, -1,
 87, 87, 87, -1, 87, 87, 87, -1, 87, 87, 87, -1,
 87, 87, 87, -1, 87, 87, 87, -1, 87, 87, 87, -1,
 87, 87, 87, -1, 87, 87, 87, -1, 87, 87, 87, -1,
 87, 87, 87, -1, 87, 87, 87, -1, 87, 87, 87, -1,
 87, 87, 87, -1, 87, 87, 87, -1, 87, 87, 87, -1,
 87, 87, 87, -1, 87, 87, 87, -1, 87, 87, 87, -1,
 87, 87, 87, -1, 87, 87, 87, -1, 87, 87, 87, -1,
 87, 87, 87, -1, 87, 87, 87, -1, 87, 87, 87, -1,
 87, 87, 87, -1, 87, 87, 87, -1, 87, 87, 87, -1,
 87, 87, 87, -1, 87, 87, 87, -1, 87, 87, 87, -1,
 87, 87, 87, -1, 87, 87, 87, -1, 87, 87, 87, -1,
 87, 87, 87, -1, 87, 87, 87, -1, 87, 87, 87, -1,
 87, 87, 87, -1, 87, 87, 87, -1, 87, 87, 87, -1,
 87, 87, 87, -1, 87, 87, 87, -1, 87, 87, 87, -1,
 87, 87, 87, -1, 87, 87, 87, -1, 87, 87, 87, -1,
 87, 87, 87, -1, 87, 87, 87, -1, 87, 87, 87, -1,
 87, 87, 87, -1, 87, 87, 87, -1, 87, 87, 87, -1,
 87, 87, 87, -1, 87, 87, 87, -1, 87, 87, 87, -1,
 87, 87, 87, -1, 87, 87, 87, -1, 87, 87, 87, -1,
 87, 87, 87, -1, 87, 87, 87, -1, 87, 87, 87, -1,
 87, 87, 87, -1, 87, 87, 87, -1, 87, 87, 87, -1,
 87, 87, 87, -1, 87, 87, 87, -1, 87, 87, 87, -1,
 87, 87, 87, -1, 87, 87, 87, -1, 87, 87, 87, -1,
 87, 87, 87, -1, 87, 87, 87, -1, 87, 87, 87, -1,
 87, 87, 87, -1, 87, 87, 87, -1, 87, 87, 87, -1,
 87, 87, 87, -1, 87, 87, 87, -1, 87, 87, 87, -1,
 87, 87, 87, -1, 87, 87, 87, -1, 87, 87, 87, -1,
 87, 87, 87, -1, 87, 87, 87, -1, 87, 87, 87, -1,
 87, 87, 87, -1, 87, 87, 87, -1, 87, 87, 87, -1,
 87, 87, 87, -1, 87, 87, 87, -1, 87, 87, 87, -1,
 87, 87, 87, -1, 87, 87, 87, -1, 87, 87, 87, -1,
 87, 87, 87, -1, 87, 87, 87, -1, 87, 87, 87, -1,
 87, 87, 87, -1, 87, 87, 87, -1, 87, 87, 87, -1,
 87, 87, 87, -1, 87, 87, 87, -1, 87, 87, 87, -1,
 87, 87, 87, -1, 87, 87, 87, -1, 87, 87, 87, -1,
 87, 87, 87, -1, 87, 87, 87, -1, 87, 87, 87, -1,
 87, 87, 87, -1, 87, 87, 87, -1, 87, 87, 87, -1,
 87, 87, 87, -1, 87, 87, 87, -1, 87, 87, 87, -1,
 87, 87, 87, -1, 87, 87, 87, -1, 87, 87, 87, -1,
 87, 87, 87, -1, 87, 87, 87, -1, 87, 87, 87, -1,
 87, 87, 87, -1, 87, 87, 87, -1, 87, 87, 87, -1,
 87, 87, 87, -1, 87, 87, 87, -1, 87, 87, 87, -1,
 87, 87, 87, -1, 87, 87, 87, -1, 87, 87, 87, -1,
 87, 87, 87, -1, 87, 87, 87, -1, 87, 87, 87, -1,
 87, 87, 87, -1, 87, 87, 87, -1, 87, 87, 87, -1,
 87, 87, 87, -1, 87, 87, 87, -1, 87, 87, 87, -1,
 87, 87, 87, -1, 87, 87, 87, -1, 87, 87, 87, -1,
 87, 87, 87, -1, 87, 87, 87, -1, 87, 87, 87, -1,
 87, 87, 87, -1, 87, 87, 87, -1, 87, 87, 87, -1,
 87, 87, 87, -1, 87, 87, 87, -1, 87, 87, 87, -1,
 87, 87, 87, -1, 87, 87, 87, -1, 87, 87, 87, -1,
 87, 87, 87, -1, 87, 87, 87, -1, 87, 87, 87, -1,
 87, 87, 87, -1, 87, 87, 87, -1, 87, 87, 87, -1,
 87, 87, 87, -1, 87, 87, 87, -1, 87, 87, 87, -1,
 87, 87, 87, -1, 87, 87, 87, -1, 87, 87, 87, -1,
 87, 87, 87, -1, 87, 87, 87, -1, 87, 87, 87, -1,
 87, 87, 87, -1, 87, 87, 87, -1, 87, 87, 87, -1,
 87, 87, 87, -1, 87, 87, 87, -1, 87, 87, 87, -1,
 87, 87, 87, -1, 87, 87, 87, -1, 35, 35, 35, -1,
 35, 35, 35, -1, 35, 35, 35, -1, 35, 35, 35, -1,
 35, 35, 35, -1, 58, 58, 58, -1, 58, 58, 58, -1,
 58, 58, 58, -1, 58, 58, 58, -1, 58, 58, 58, -1,
 58, 58, 58, -1, 58, 58, 58, -1, 58, 58, 58, -1,
 58, 58, 58, -1, 58, 58, 58, -1, 58, 58, 58, -1,
 58, 58, 58, -1, 58, 58, 58, -1, 58, 58, 58, -1,
 58, 58, 58, -1, 58, 58, 58, -1, 58, 58, 58, -1,
 58, 58, 58, -1, 58, 58, 58, -1, 58, 58, 58, -1,
 58, 58, 58, -1, 58, 58, 58, -1, 58, 58, 58, -1,
 58, 58, 58, -1, 58, 58, 58, -1, 58, 58, 58, -1,
 58, 58, 58, -1, 58, 58, 58, -1, 0, 0, 0, -1,
 0, 0, 0, -1, 0, 0, 0, -1, 0, 0, 0, -1,
 0, 0, 0, -1, 0, 0, 0, -1, 0, 0, 0, -1,
 0, 0, 0, -1, 0, 0, 0, -1, 0, 0, 0, -1,
 0, 0, 0, -1, 0, 0, 0, -1, 0, 0, 0, -1,
 0, 0, 0, -1, 0, 0, 0, -1, 0, 0, 0, -1,
 0, 0, 0, -1, 0, 0, 0, -1, 0, 0, 0, -1,
 0, 0, 0, -1, 0, 0, 0, -1, 0, 0, 0, -1,
 0, 0, 0, -1, 0, 0, 0, -1, 0, 0, 0, -1,
 0, 0, 0, -1, 0, 0, 0, -1, 0, 0, 0, -1,
 0, 0, 0, -1, 0, 0, 0, -1, 0, 0, 0, -1,
 0, 0, 0, -1, 0, 0, 0, -1, 0, 0, 0, -1,
 0, 0, 0, -1, 0, 0, 0, -1, 0, 0, 0, -1,
 0, 0, 0, -1, 0, 0, 0, -1, 0, 0, 0, -1,
 0, 0, 0, -1, 0, 0, 0, -1, 0, 0, 0, -1,
 0, 0, 0, -1, 0, 0, 0, -1, 0, 0, 0, -1,
 0, 0, 0, -1, 0, 0, 0, -1, 0, 0, 0, -1,
 0, 0, 0, -1, 0, 0, 0, -1, 0, 0, 0, -1,
 0, 0, 0, -1, 0, 0, 0, -1, 0, 0, 0, -1,
 0, 0, 0, -1, 0, 0, 0, -1, 0, 0, 0, -1,
 0, 0, 0, -1, 0, 0, 0, -1, 0, 0, 0, -1,
 0, 0, 0, -1, 0, 0, 0, -1, 0, 0, 0, -1,
 0, 0, 0, -1, 0, 0, 0, -1, 0, 0, 0, -1,
 0, 0, 0, -1, 0, 0, 0, -1, 0, 0, 0, -1,
 0, 0, 0, -1, 0, 0, 0, -1, 0, 0, 0, -1,
 0, 0, 0, -1, 0, 0, 0, -1, 0, 0, 0, -1,
 0, 0, 0, -1, 0, 0, 0, -1, 0, 0, 0, -1,
 0, 0, 0, -1, 0, 0, 0, -1, 0, 0, 0, -1,
 0, 0, 0, -1, 0, 0, 0, -1, 0, 0, 0, -1,
 0, 0, 0, -1, 47, 62, 62, -1, 62, 62, 68, -1,
 62, 68, 68, -1, 68, 68, 72, -1, 68, 72, 72, -1,
 72, 72, 78, -1, 72, 78, 78, -1, 78, 78, 82, -1,
 78, 82, 82, -1, 82, 82, 87, -1, 82, 87, 87, -1,
 87, 87, 81, -1, 87, 81, 81, -1, 81, 81, 77, -1,
 81, 77, 77, -1, 77, 77, 71, -1, 77, 71, 71, -1,
 71, 71, 67, -1, 71, 67, 67, -1, 67, 67, 61, -1,
 67, 61, 61, -1, 61, 61, 46, -1, 61, 46, 46, -1,
 46, 46, 30, -1, 46, 30, 30, -1, 30, 30, 22, -1,
 30, 22, 22, -1, 22, 22, 17, -1, 22, 17, 17, -1,
 17, 17, 10, -1, 17, 10, 10, -1, 10, 10, 5, -1,
 10, 5, 5, -1, 5, 5, 0, -1, 5, 0, 0, -1,
 0, 0, 6, -1, 0, 6, 6, -1, 6, 6, 11, -1,
 6, 11, 11, -1, 11, 11, 18, -1, 11, 18, 18, -1,
 18, 18, 23, -1, 18, 23, 23, -1, 23, 23, 31, -1,
 23, 31, 31, -1, 31, 31, 47, -1, 31, 47, 47, -1,
 47, 47, 62, -1, 35, 35, 35, -1, 35, 35, 35, -1,
 47, 47, 47, -1, 47, 47, 47, -1, 47, 47, 45, -1,
 45, 47, 45, -1, 45, 45, 43, -1, 43, 45, 43, -1,
 43, 43, 41, -1, 41, 43, 41, -1, 41, 41, 39, -1,
 39, 41, 39, -1, 39, 39, 37, -1, 37, 39, 37, -1,
 37, 37, 35, -1, 35, 37, 35, -1, 35, 35, 36, -1,
 36, 35, 36, -1, 36, 36, 38, -1, 38, 36, 38, -1,
 38, 38, 40, -1, 40, 38, 40, -1, 40, 40, 42, -1,
 42, 40, 42, -1, 42, 42, 44, -1, 44, 42, 44, -1,
 44, 44, 46, -1, 46, 44, 46, -1, 46, 46, 48, -1,
 48, 46, 48, -1, 48, 48, 50, -1, 50, 48, 50, -1,
 50, 50, 52, -1, 52, 50, 52, -1, 52, 52, 54, -1,
 54, 52, 54, -1, 54, 54, 56, -1, 56, 54, 56, -1,
 56, 56, 58, -1, 58, 56, 58, -1, 58, 58, 57, -1,
 57, 58, 57, -1, 57, 57, 55, -1, 55, 57, 55, -1,
 55, 55, 53, -1, 53, 55, 53, -1, 53, 53, 51, -1,
 51, 53, 51, -1, 51, 51, 49, -1, 49, 51, 49, -1,
 49, 49, 47, -1, 47, 49, 47, -1, 46, 46, 46, -1,
 46, 46, 46, -1, 35, 35, 35, -1, 35, 35, 35, -1,
 35, 35, 35, -1, 47, 47, 45, -1, 45, 47, 45, -1,
 45, 45, 43, -1, 43, 45, 43, -1, 43, 43, 41, -1,
 41, 43, 41, -1, 41, 41, 39, -1, 39, 41, 39, -1,
 39, 39, 37, -1, 37, 39, 37, -1, 37, 37, 35, -1,
 35, 37, 35, -1, 35, 35, 36, -1, 36, 35, 36, -1,
 36, 36, 38, -1, 38, 36, 38, -1, 38, 38, 40, -1,
 40, 38, 40, -1, 40, 40, 42, -1, 42, 40, 42, -1,
 42, 42, 44, -1, 44, 42, 44, -1, 44, 44, 46, -1,
 46, 44, 46, -1, 46, 46, 48, -1, 48, 46, 48, -1,
 48, 48, 50, -1, 50, 48, 50, -1, 50, 50, 52, -1,
 52, 50, 52, -1, 52, 52, 54, -1, 54, 52, 54, -1,
 54, 54, 56, -1, 56, 54, 56, -1, 56, 56, 58, -1,
 58, 56, 58, -1, 58, 58, 57, -1, 57, 58, 57, -1,
 57, 57, 55, -1, 55, 57, 55, -1, 55, 55, 53, -1,
 53, 55, 53, -1, 53, 53, 51, -1, 51, 53, 51, -1,
 51, 51, 49, -1, 49, 51, 49, -1, 49, 49, 47, -1,
 47, 49, 47, -1, 58, 58, 58, -1, 58, 58, 58, -1,
 58, 58, 58, -1, 46, 46, 46, -1, 46, 46, 46, -1,
 0, 0, 0, -1, 0, 0, 0, -1, 0, 0, 0, -1,
 0, 0, 0, -1, 0, 0, 0, -1, 0, 0, 0, -1,
 0, 0, 0, -1, 0, 0, 0, -1, 0, 0, 0, -1,
 0, 0, 0, -1, 0, 0, 0, -1, 0, 0, 0, -1,
 0, 0, 0, -1, 0, 0, 0, -1, 0, 0, 0, -1,
 0, 0, 0, -1, 0, 0, 0, -1, 0, 0, 0, -1,
 0, 0, 0, -1, 0, 0, 0, -1, 0, 0, 0, -1,
 0, 0, 0, -1, 0, 0, 0, -1, 0, 0, 0, -1,
 0, 0, 0, -1, 0, 0, 0, -1, 0, 0, 0, -1,
 0, 0, 0, -1, 0, 0, 0, -1, 0, 0, 0, -1,
 0, 0, 0, -1, 0, 0, 0, -1, 0, 0, 0, -1,
 0, 0, 0, -1, 0, 0, 0, -1, 0, 0, 0, -1,
 0, 0, 0, -1, 0, 0, 0, -1, 0, 0, 0, -1,
 0, 0, 0, -1, 47, 47, 45, -1, 45, 47, 45, -1,
 45, 45, 43, -1, 43, 45, 43, -1, 43, 43, 41, -1,
 41, 43, 41, -1, 41, 41, 39, -1, 39, 41, 39, -1,
 39, 39, 37, -1, 37, 39, 37, -1, 37, 37, 35, -1,
 35, 37, 35, -1, 35, 35, 36, -1, 36, 35, 36, -1,
 36, 36, 38, -1, 38, 36, 38, -1, 38, 38, 40, -1,
 40, 38, 40, -1, 40, 40, 42, -1, 42, 40, 42, -1,
 42, 42, 44, -1, 44, 42, 44, -1, 44, 44, 46, -1,
 46, 44, 46, -1, 46, 46, 48, -1, 48, 46, 48, -1,
 48, 48, 50, -1, 50, 48, 50, -1, 50, 50, 52, -1,
 52, 50, 52, -1, 52, 52, 54, -1, 54, 52, 54, -1,
 54, 54, 56, -1, 56, 54, 56, -1, 56, 56, 58, -1,
 58, 56, 58, -1, 58, 58, 57, -1, 57, 58, 57, -1,
 57, 57, 55, -1, 55, 57, 55, -1, 55, 55, 53, -1,
 53, 55, 53, -1, 53, 53, 51, -1, 51, 53, 51, -1,
 51, 51, 49, -1, 49, 51, 49, -1, 49, 49, 47, -1,
 47, 49, 47, -1, 58, 58, 58, -1, 58, 58, 58, -1,
 0, 0, 0, -1, 0, 0, 0, -1, 46, 46, 46, -1,
 46, 46, 46, -1, 46, 46, 46, -1, 87, 87, 87, -1,
 87, 87, 87, -1, 47, 47, 47, -1, 47, 47, 47, -1,
 47, 47, 47, -1, 35, 35, 35, -1, 35, 35, 35, -1,
 47, 49, 49, -1, 49, 49, 51, -1, 49, 51, 51, -1,
 51, 51, 53, -1, 51, 53, 53, -1, 53, 53, 55, -1,
 53, 55, 55, -1, 55, 55, 57, -1, 55, 57, 57, -1,
 57, 57, 58, -1, 57, 58, 58, -1, 58, 58, 56, -1,
 58, 56, 56, -1, 56, 56, 54, -1, 56, 54, 54, -1,
 54, 54, 52, -1, 54, 52, 52, -1, 52, 52, 50, -1,
 52, 50, 50, -1, 50, 50, 48, -1, 50, 48, 48, -1,
 48, 48, 46, -1, 48, 46, 46, -1, 46, 46, 44, -1,
 46, 44, 44, -1, 44, 44, 42, -1, 44, 42, 42, -1,
 42, 42, 40, -1, 42, 40, 40, -1, 40, 40, 38, -1,
 40, 38, 38, -1, 38, 38, 36, -1, 38, 36, 36, -1,
 36, 36, 35, -1, 36, 35, 35, -1, 35, 35, 37, -1,
 35, 37, 37, -1, 37, 37, 39, -1, 37, 39, 39, -1,
 39, 39, 41, -1, 39, 41, 41, -1, 41, 41, 43, -1,
 41, 43, 43, -1, 43, 43, 45, -1, 43, 45, 45, -1,
 45, 45, 47, -1, 45, 47, 47, -1, 47, 47, 49, -1,
 87, 87, 87, -1, 87, 87, 87, -1, 87, 87, 87, -1,
 87, 87, 87, -1, 87, 87, 87, -1, 87, 87, 87, -1,
 87, 87, 87, -1, 87, 87, 87, -1, 87, 87, 87, -1,
 87, 87, 87, -1, 87, 87, 87, -1, 87, 87, 87, -1,
 87, 87, 87, -1, 87, 87, 87, -1, 87, 87, 87, -1,
 87, 87, 87, -1, 87, 87, 87, -1, 87, 87, 87, -1,
 87, 87, 87, -1, 87, 87, 87, -1, 87, 87, 87, -1,
 87, 87, 87, -1, 87, 87, 87, -1, 87, 87, 87, -1,
 47, 49, 49, -1, 49, 49, 51, -1, 49, 51, 51, -1,
 51, 51, 53, -1, 51, 53, 53, -1, 53, 53, 55, -1,
 53, 55, 55, -1, 55, 55, 57, -1, 55, 57, 57, -1,
 57, 57, 58, -1, 57, 58, 58, -1, 58, 58, 56, -1,
 58, 56, 56, -1, 56, 56, 54, -1, 56, 54, 54, -1,
 54, 54, 52, -1, 54, 52, 52, -1, 52, 52, 50, -1,
 52, 50, 50, -1, 50, 50, 48, -1, 50, 48, 48, -1,
 48, 48, 46, -1, 48, 46, 46, -1, 46, 46, 44, -1,
 46, 44, 44, -1, 44, 44, 42, -1, 44, 42, 42, -1,
 42, 42, 40, -1, 42, 40, 40, -1, 40, 40, 38, -1,
 40, 38, 38, -1, 38, 38, 36, -1, 38, 36, 36, -1,
 36, 36, 35, -1, 36, 35, 35, -1, 35, 35, 37, -1,
 35, 37, 37, -1, 37, 37, 39, -1, 37, 39, 39, -1,
 39, 39, 41, -1, 39, 41, 41, -1, 41, 41, 43, -1,
 41, 43, 43, -1, 43, 43, 45, -1, 43, 45, 45, -1,
 45, 45, 47, -1, 45, 47, 47, -1, 47, 47, 49, -1,
 87, 87, 87, -1, 87, 87, 87, -1, 87, 87, 87, -1,
 87, 87, 87, -1, 87, 87, 87, -1, 87, 87, 87, -1,
 87, 87, 87, -1, 87, 87, 87, -1, 87, 87, 87, -1,
 87, 87, 87, -1, 87, 87, 87, -1, 87, 87, 87, -1,
 87, 87, 87, -1, 87, 87, 87, -1, 87, 87, 87, -1,
 87, 87, 87, -1, 87, 87, 87, -1, 87, 87, 87, -1,
 87, 87, 87, -1, 87, 87, 87, -1, 87, 87, 87, -1,
 87, 87, 87, -1, 87, 87, 87, -1, 87, 87, 87, -1,
 47, 47, 49, -1, 47, 49, 49, -1, 49, 49, 51, -1,
 49, 51, 51, -1, 51, 51, 53, -1, 51, 53, 53, -1,
 53, 53, 55, -1, 53, 55, 55, -1, 55, 55, 57, -1,
 55, 57, 57, -1, 57, 57, 58, -1, 57, 58, 58, -1,
 35, 35, 37, -1, 35, 37, 37, -1, 37, 37, 39, -1,
 37, 39, 39, -1, 39, 39, 41, -1, 39, 41, 41, -1,
 41, 41, 43, -1, 41, 43, 43, -1, 43, 43, 45, -1,
 43, 45, 45, -1, 45, 45, 47, -1, 45, 47, 47, -1,
 35, 35, 36, -1, 35, 36, 36, -1, 36, 36, 38, -1,
 36, 38, 38, -1, 38, 38, 40, -1, 38, 40, 40, -1,
 40, 40, 42, -1, 40, 42, 42, -1, 42, 42, 44, -1,
 42, 44, 44, -1, 44, 44, 46, -1, 44, 46, 46, -1,
 58, 58, 56, -1, 58, 56, 56, -1, 56, 56, 54, -1,
 56, 54, 54, -1, 54, 54, 52, -1, 54, 52, 52, -1,
 52, 52, 50, -1, 52, 50, 50, -1, 50, 50, 48, -1,
 50, 48, 48, -1, 48, 48, 46, -1, 48, 46, 46, -1,
 46, 46, 44, -1, 46, 44, 44, -1, 44, 44, 42, -1,
 44, 42, 42, -1, 42, 42, 40, -1, 42, 40, 40, -1,
 40, 40, 38, -1, 40, 38, 38, -1, 38, 38, 36, -1,
 38, 36, 36, -1, 36, 36, 35, -1, 36, 35, 35, -1,
 46, 46, 48, -1, 46, 48, 48, -1, 48, 48, 50, -1,
 48, 50, 50, -1, 50, 50, 52, -1, 50, 52, 52, -1,
 52, 52, 54, -1, 52, 54, 54, -1, 54, 54, 56, -1,
 54, 56, 56, -1, 56, 56, 58, -1, 56, 58, 58, -1,
 0, 0, 7, -1, 0, 7, 7, -1, 7, 7, 12, -1,
 7, 12, 12, -1, 12, 12, 19, -1, 12, 19, 19, -1,
 19, 19, 24, -1, 19, 24, 24, -1, 24, 24, 32, -1,
 24, 32, 32, -1, 32, 32, 58, -1, 32, 58, 58, -1,
 35, 35, 35, -1, 35, 35, 35, -1, 35, 35, 35, -1,
 35, 35, 35, -1, 35, 35, 35, -1, 35, 35, 35, -1,
 35, 35, 35, -1, 35, 35, 35, -1, 35, 35, 35, -1,
 35, 35, 35, -1, 35, 35, 35, -1, 35, 35, 35, -1,
 35, 35, 35, -1, 35, 35, 35, -1, 35, 35, 35, -1,
 35, 35, 35, -1, 35, 35, 35, -1, 35, 35, 35, -1,
 35, 35, 35, -1, 35, 35, 35, -1, 35, 35, 35, -1,
 35, 35, 35, -1, 35, 35, 35, -1, 35, 35, 35, -1,
 35, 35, 35, -1, 35, 35, 35, -1, 35, 35, 35, -1,
 35, 35, 35, -1, 35, 35, 35, -1, 35, 35, 35, -1,
 35, 35, 35, -1, 35, 35, 35, -1, 35, 35, 35, -1,
 35, 35, 35, -1, 35, 35, 35, -1, 35, 35, 35, -1,
 35, 35, 35, -1, 35, 35, 35, -1, 35, 35, 35, -1,
 35, 35, 35, -1, 35, 35, 35, -1, 35, 35, 35, -1,
 0, 0, 0, -1, 0, 0, 0, -1, 58, 58, 58, -1,
 58, 58, 58, -1, 58, 58, 58, -1, 58, 58, 58, -1,
 58, 58, 58, -1, 58, 58, 58, -1, 58, 58, 58, -1,
 58, 58, 58, -1, 58, 58, 58, -1, 58, 58, 58, -1,
 58, 58, 58, -1, 58, 58, 58, -1, 58, 58, 58, -1,
 58, 58, 58, -1, 58, 58, 58, -1, 58, 58, 58, -1,
 58, 58, 58, -1, 58, 58, 58, -1, 58, 58, 58, -1,
 58, 58, 58, -1, 58, 58, 58, -1, 58, 58, 58, -1,
 58, 58, 58, -1, 58, 58, 58, -1, 58, 58, 58, -1,
 58, 58, 58, -1, 58, 58, 58, -1, 58, 58, 58, -1,
 58, 58, 58, -1, 58, 58, 58, -1, 58, 58, 58, -1,
 58, 58, 58, -1, 58, 58, 58, -1, 58, 58, 58, -1,
 58, 58, 58, -1, 58, 58, 58, -1, 58, 58, 58, -1,
 58, 58, 58, -1, 58, 58, 58, -1, 58, 58, 58, -1,
 58, 58, 58, -1, 58, 58, 58, -1, 58, 58, 58, -1,
 87, 87, 87, -1, 87, 87, 87, -1, 87, 85, 85, -1,
 85, 85, 83, -1, 85, 83, 83, -1, 83, 83, 79, -1,
 83, 79, 79, -1, 79, 79, 75, -1, 79, 75, 75, -1,
 75, 75, 73, -1, 75, 73, 73, -1, 73, 73, 69, -1,
 73, 69, 69, -1, 69, 69, 65, -1, 69, 65, 65, -1,
 65, 65, 63, -1, 65, 63, 63, -1, 63, 63, 59, -1,
 63, 59, 59, -1, 59, 59, 46, -1, 59, 46, 46, -1,
 46, 46, 33, -1, 46, 33, 33, -1, 33, 33, 28, -1,
 33, 28, 28, -1, 28, 28, 25, -1, 28, 25, 25, -1,
 25, 25, 20, -1, 25, 20, 20, -1, 20, 20, 15, -1,
 20, 15, 15, -1, 15, 15, 13, -1, 15, 13, 13, -1,
 13, 13, 8, -1, 13, 8, 8, -1, 8, 8, 3, -1,
 8, 3, 3, -1, 3, 3, 1, -1, 3, 1, 1, -1,
 1, 1, 2, -1, 1, 2, 2, -1, 2, 2, 4, -1,
 2, 4, 4, -1, 4, 4, 9, -1, 4, 9, 9, -1,
 9, 9, 14, -1, 9, 14, 14, -1, 14, 14, 16, -1,
 14, 16, 16, -1, 16, 16, 21, -1, 16, 21, 21, -1,
 21, 21, 26, -1, 21, 26, 26, -1, 26, 26, 29, -1,
 26, 29, 29, -1, 29, 29, 34, -1, 29, 34, 34, -1,
 34, 34, 47, -1, 34, 47, 47, -1, 47, 47, 60, -1,
 47, 60, 60, -1, 60, 60, 64, -1, 60, 64, 64, -1,
 64, 64, 66, -1, 64, 66, 66, -1, 66, 66, 70, -1,
 66, 70, 70, -1, 70, 70, 74, -1, 70, 74, 74, -1,
 74, 74, 76, -1, 74, 76, 76, -1, 76, 76, 80, -1,
 76, 80, 80, -1, 80, 80, 84, -1, 80, 84, 84, -1,
 84, 84, 86, -1, 84, 86, 86, -1, 86, 86, 87, -1,
 86, 87, 85, -1
]
colorPerVertex FALSE
normalPerVertex TRUE
}
}
]
}
