#VRML V2.0 utf8
Transform {
children [
Shape {
appearance Appearance {
material Material {
ambientIntensity 1.000000
diffuseColor 1.000000 1.000000 1.000000
emissiveColor 0.210000 0.210000 0.210000
specularColor 0.880000 0.880000 0.880000
shininess 0.210000
transparency 0.000000
}
}
geometry IndexedFaceSet {
color Color {
color [
 1.000000 1.000000 1.000000
]
}
coord Coordinate {
point [
 -0.055000 0.000000 -0.014000, -0.055000 0.000000 0.014000, -0.055000 0.006052 -0.014000, -0.055000 0.006052 0.014000, -0.053000 0.000000 -0.016000,
 -0.053000 0.000000 0.016000, -0.053000 0.005006 -0.016000, -0.053000 0.005006 0.016000, -0.052750 -0.000000 -0.016000, -0.052750 0.000000 0.016000,
 -0.052000 0.000937 -0.016000, -0.052000 0.000937 0.016000, -0.051250 -0.000000 -0.016000, -0.051250 -0.000000 0.016000, -0.050500 -0.000000 -0.016000,
 -0.050500 0.000000 0.016000, -0.049750 0.000937 -0.016000, -0.049750 0.000937 0.016000, -0.049000 -0.000000 -0.016000, -0.049000 -0.000000 0.016000,
 -0.048250 -0.000000 -0.016000, -0.048250 0.000000 0.016000, -0.047500 0.000937 -0.016000, -0.047500 0.000937 0.016000, -0.046750 -0.000000 -0.016000,
 -0.046750 -0.000000 0.016000, -0.046000 -0.000000 -0.016000, -0.046000 0.000000 0.016000, -0.045250 0.000937 -0.016000, -0.045250 0.000937 0.016000,
 -0.044500 -0.000000 -0.016000, -0.044500 -0.000000 0.016000, -0.043750 -0.000000 -0.016000, -0.043750 0.000000 0.016000, -0.043000 0.000937 -0.016000,
 -0.043000 0.000937 0.016000, -0.042250 -0.000000 -0.016000, -0.042250 -0.000000 0.016000, -0.040000 0.000000 -0.016000, -0.040000 0.000000 0.016000,
 -0.038509 0.002185 -0.016000, -0.038509 0.002185 0.016000, -0.036703 0.004119 -0.016000, -0.036703 0.004119 0.016000, -0.034625 0.005757 -0.016000,
 -0.034625 0.005757 0.016000, -0.032322 0.007061 -0.016000, -0.032322 0.007061 0.016000, -0.032037 0.022000 -0.014000, -0.032037 0.022000 0.014000,
 -0.031411 0.020000 -0.016000, -0.031411 0.020000 0.016000, -0.029849 0.008000 -0.016000, -0.029849 0.008000 0.016000, -0.027262 0.008554 -0.016000,
 -0.027262 0.008554 0.016000, -0.024620 0.008708 -0.016000, -0.024620 0.008708 0.016000, -0.021986 0.008461 -0.016000, -0.021986 0.008461 0.016000,
 -0.019420 0.007817 -0.016000, -0.019420 0.007817 0.016000, -0.016981 0.006791 -0.016000, -0.016981 0.006791 0.016000, -0.014726 0.005407 -0.016000,
 -0.014726 0.005407 0.016000, -0.012707 0.003697 -0.016000, -0.012707 0.003697 0.016000, -0.012127 0.003096 -0.016000, -0.012127 0.003096 -0.011750,
 -0.012127 0.003096 0.011750, -0.012127 0.003096 0.016000, -0.011928 0.002930 -0.016000, -0.011928 0.002930 -0.011750, -0.011928 0.002930 0.011750,
 -0.011928 0.002930 0.016000, -0.011709 0.002626 -0.007500, -0.011709 0.002626 0.007500, -0.011694 0.002820 -0.016000, -0.011694 0.002820 -0.011750,
 -0.011694 0.002820 0.011750, -0.011694 0.002820 0.016000, -0.011439 0.002775 -0.016000, -0.011439 0.002775 -0.011750, -0.011439 0.002775 0.011750,
 -0.011439 0.002775 0.016000, -0.011181 0.002796 -0.016000, -0.011181 0.002796 -0.011750, -0.011181 0.002796 0.011750, -0.011181 0.002796 0.016000,
 -0.011005 0.004785 -0.007500, -0.011005 0.004785 0.007500, -0.010971 0.001700 -0.011750, -0.010971 0.001700 -0.007500, -0.010971 0.001700 0.007500,
 -0.010971 0.001700 0.011750, -0.010937 0.002883 -0.016000, -0.010937 0.002883 -0.011750, -0.010937 0.002883 0.011750, -0.010937 0.002883 0.016000,
 -0.010723 0.003029 -0.016000, -0.010723 0.003029 -0.011750, -0.010723 0.003029 0.011750, -0.010723 0.003029 0.016000, -0.010555 0.003226 -0.016000,
 -0.010555 0.003226 -0.011750, -0.010555 0.003226 0.011750, -0.010555 0.003226 0.016000, -0.010442 0.003459 -0.016000, -0.010442 0.003459 -0.011750,
 -0.010442 0.003459 0.011750, -0.010442 0.003459 0.016000, -0.009906 0.006772 -0.007500, -0.009906 0.006772 0.007500, -0.009591 0.005387 -0.016000,
 -0.009591 0.005387 -0.011750, -0.009591 0.005387 0.011750, -0.009591 0.005387 0.016000, -0.009557 -0.000536 -0.011750, -0.009557 -0.000536 -0.007500,
 -0.009557 -0.000536 0.007500, -0.009557 -0.000536 0.011750, -0.008499 -0.002961 -0.011750, -0.008499 -0.002961 -0.007500, -0.008499 -0.002961 0.007500,
 -0.008499 -0.002961 0.011750, -0.008453 0.008517 -0.007500, -0.008453 0.008517 0.007500, -0.008388 0.007116 -0.016000, -0.008388 0.007116 -0.011750,
 -0.008388 0.007116 0.011750, -0.008388 0.007116 0.016000, -0.007646 -0.004747 -0.011750, -0.007646 -0.004747 -0.007500, -0.007646 -0.004747 0.007500,
 -0.007646 -0.004747 0.011750, -0.006877 0.008585 -0.016000, -0.006877 0.008585 -0.011750, -0.006877 0.008585 0.011750, -0.006877 0.008585 0.016000,
 -0.006697 0.009957 -0.007500, -0.006697 0.009957 0.007500, -0.006424 -0.006303 -0.011750, -0.006424 -0.006303 -0.007500, -0.006424 -0.006303 0.007500,
 -0.006424 -0.006303 0.011750, -0.005200 0.000000 -0.011750, -0.005200 0.000000 -0.007500, -0.005200 0.000000 0.007500, -0.005200 0.000000 0.011750,
 -0.005114 0.009739 -0.016000, -0.005114 0.009739 -0.011750, -0.005114 0.009739 0.011750, -0.005114 0.009739 0.016000, -0.005023 -0.001346 -0.011750,
 -0.005023 -0.001346 -0.007500, -0.005023 -0.001346 0.007500, -0.005023 -0.001346 0.011750, -0.005023 0.001346 -0.011750, -0.005023 0.001346 -0.007500,
 -0.005023 0.001346 0.007500, -0.005023 0.001346 0.011750, -0.004892 -0.007555 -0.011750, -0.004892 -0.007555 -0.007500, -0.004892 -0.007555 0.007500,
 -0.004892 -0.007555 0.011750, -0.004701 0.011041 -0.007500, -0.004701 0.011041 0.007500, -0.004503 -0.002600 -0.011750, -0.004503 -0.002600 -0.007500,
 -0.004503 -0.002600 0.007500, -0.004503 -0.002600 0.011750, -0.004503 0.002600 -0.011750, -0.004503 0.002600 -0.007500, -0.004503 0.002600 0.007500,
 -0.004503 0.002600 0.011750, -0.003677 -0.003677 -0.011750, -0.003677 -0.003677 -0.007500, -0.003677 -0.003677 0.007500, -0.003677 -0.003677 0.011750,
 -0.003677 0.003677 -0.011750, -0.003677 0.003677 -0.007500, -0.003677 0.003677 0.007500, -0.003677 0.003677 0.011750, -0.003163 0.010535 -0.016000,
 -0.003163 0.010535 -0.011750, -0.003163 0.010535 0.011750, -0.003163 0.010535 0.016000, -0.003122 -0.008441 -0.011750, -0.003122 -0.008441 -0.007500,
 -0.003122 -0.008441 0.007500, -0.003122 -0.008441 0.011750, -0.002600 -0.004503 -0.011750, -0.002600 -0.004503 -0.007500, -0.002600 -0.004503 0.007500,
 -0.002600 -0.004503 0.011750, -0.002600 0.004503 -0.011750, -0.002600 0.004503 -0.007500, -0.002600 0.004503 0.007500, -0.002600 0.004503 0.011750,
 -0.002537 0.011729 -0.007500, -0.002537 0.011729 0.007500, -0.001346 -0.005023 -0.011750, -0.001346 -0.005023 -0.007500, -0.001346 -0.005023 0.007500,
 -0.001346 -0.005023 0.011750, -0.001346 0.005023 -0.011750, -0.001346 0.005023 -0.007500, -0.001346 0.005023 0.007500, -0.001346 0.005023 0.011750,
 -0.001202 -0.008919 -0.011750, -0.001202 -0.008919 -0.007500, -0.001202 -0.008919 0.007500, -0.001202 -0.008919 0.011750, -0.001097 0.010945 -0.016000,
 -0.001097 0.010945 -0.011750, -0.001097 0.010945 0.011750, -0.001097 0.010945 0.016000, -0.000281 0.011997 -0.007500, -0.000281 0.011997 0.007500,
 -0.000000 -0.005200 -0.011750, -0.000000 -0.005200 -0.007500, -0.000000 -0.005200 0.007500, -0.000000 -0.005200 0.011750, 0.000000 0.005200 -0.011750,
 0.000000 0.005200 -0.007500, 0.000000 0.005200 0.007500, 0.000000 0.005200 0.011750, 0.000776 -0.008967 -0.011750, 0.000776 -0.008967 -0.007500,
 0.000776 -0.008967 0.007500, 0.000776 -0.008967 0.011750, 0.001010 0.010953 -0.016000, 0.001010 0.010953 -0.011750, 0.001010 0.010953 0.011750,
 0.001010 0.010953 0.016000, 0.001346 -0.005023 -0.011750, 0.001346 -0.005023 -0.007500, 0.001346 -0.005023 0.007500, 0.001346 -0.005023 0.011750,
 0.001346 0.005023 -0.011750, 0.001346 0.005023 -0.007500, 0.001346 0.005023 0.007500, 0.001346 0.005023 0.011750, 0.001984 0.011835 -0.007500,
 0.001984 0.011835 0.007500, 0.002600 -0.004503 -0.011750, 0.002600 -0.004503 -0.007500, 0.002600 -0.004503 0.007500, 0.002600 -0.004503 0.011750,
 0.002600 0.004503 -0.011750, 0.002600 0.004503 -0.007500, 0.002600 0.004503 0.007500, 0.002600 0.004503 0.011750, 0.002716 -0.008580 -0.011750,
 0.002716 -0.008580 -0.007500, 0.002716 -0.008580 0.007500, 0.002716 -0.008580 0.011750, 0.003080 0.010560 -0.016000, 0.003080 0.010560 -0.011750,
 0.003080 0.010560 0.011750, 0.003080 0.010560 0.016000, 0.003677 -0.003677 -0.011750, 0.003677 -0.003677 -0.007500, 0.003677 -0.003677 0.007500,
 0.003677 -0.003677 0.011750, 0.003677 0.003677 -0.011750, 0.003677 0.003677 -0.007500, 0.003677 0.003677 0.007500, 0.003677 0.003677 0.011750,
 0.004178 0.011249 -0.007500, 0.004178 0.011249 0.007500, 0.004503 -0.002600 -0.011750, 0.004503 -0.002600 -0.007500, 0.004503 -0.002600 0.007500,
 0.004503 -0.002600 0.011750, 0.004503 0.002600 -0.011750, 0.004503 0.002600 -0.007500, 0.004503 0.002600 0.007500, 0.004503 0.002600 0.011750,
 0.004526 -0.007779 -0.011750, 0.004526 -0.007779 -0.007500, 0.004526 -0.007779 0.007500, 0.004526 -0.007779 0.011750, 0.005023 -0.001346 -0.011750,
 0.005023 -0.001346 -0.007500, 0.005023 -0.001346 0.007500, 0.005023 -0.001346 0.011750, 0.005023 0.001346 -0.011750, 0.005023 0.001346 -0.007500,
 0.005023 0.001346 0.007500, 0.005023 0.001346 0.011750, 0.005037 0.009779 -0.016000, 0.005037 0.009779 -0.011750, 0.005037 0.009779 0.011750,
 0.005037 0.009779 0.016000, 0.005200 0.000000 -0.011750, 0.005200 0.000000 -0.007500, 0.005200 0.000000 0.007500, 0.005200 0.000000 0.011750,
 0.006116 -0.006602 -0.011750, 0.006116 -0.006602 -0.007500, 0.006116 -0.006602 0.007500, 0.006116 -0.006602 0.011750, 0.006809 0.008639 -0.016000,
 0.006809 0.008639 -0.011750, 0.006809 0.008639 0.011750, 0.006809 0.008639 0.016000, 0.007411 -0.005106 -0.011750, 0.007411 -0.005106 -0.007500,
 0.007411 -0.005106 0.007500, 0.007411 -0.005106 0.011750, 0.008332 0.007182 -0.016000, 0.008332 0.007182 -0.011750, 0.008332 0.007182 0.011750,
 0.008332 0.007182 0.016000, 0.008348 -0.003363 -0.011750, 0.008348 -0.003363 -0.007500, 0.008348 -0.003363 0.007500, 0.008348 -0.003363 0.011750,
 0.008881 -0.001458 -0.011750, 0.008881 -0.001458 -0.007500, 0.008881 -0.001458 0.007500, 0.008881 -0.001458 0.011750, 0.009508 0.001250 -0.011750,
 0.009508 0.001250 -0.007500, 0.009508 0.001250 0.007500, 0.009508 0.001250 0.011750, 0.009548 0.005462 -0.016000, 0.009548 0.005462 -0.011750,
 0.009548 0.005462 0.011750, 0.009548 0.005462 0.016000, 0.009688 0.005273 -0.016000, 0.009688 0.005273 -0.011750, 0.009688 0.005273 0.011750,
 0.009688 0.005273 0.016000, 0.009867 0.005123 -0.016000, 0.009867 0.005123 -0.011750, 0.009867 0.005123 0.011750, 0.009867 0.005123 0.016000,
 0.010077 0.005018 -0.016000, 0.010077 0.005018 -0.011750, 0.010077 0.005018 0.011750, 0.010077 0.005018 0.016000, 0.010189 0.017260 -0.007500,
 0.010189 0.017260 0.007500, 0.010202 0.017071 -0.012000, 0.010202 0.017071 -0.007500, 0.010202 0.017071 0.007500, 0.010202 0.017071 0.012000,
 0.010263 0.018804 -0.012000, 0.010263 0.018804 0.012000, 0.010305 0.004965 -0.016000, 0.010305 0.004965 -0.011750, 0.010305 0.004965 0.011750,
 0.010305 0.004965 0.016000, 0.010479 0.003853 -0.011750, 0.010479 0.003853 -0.007500, 0.010479 0.003853 0.007500, 0.010479 0.003853 0.011750,
 0.010540 0.004966 -0.016000, 0.010540 0.004966 -0.011750, 0.010540 0.004966 0.011750, 0.010540 0.004966 0.016000, 0.010541 0.015371 -0.012000,
 0.010541 0.015371 -0.007500, 0.010541 0.015371 0.007500, 0.010541 0.015371 0.012000, 0.010720 0.020477 -0.012000, 0.010720 0.020477 0.012000,
 0.010768 0.005022 -0.016000, 0.010768 0.005022 -0.011750, 0.010768 0.005022 0.011750, 0.010768 0.005022 0.016000, 0.010976 0.005130 -0.016000,
 0.010976 0.005130 -0.011750, 0.010976 0.005130 0.011750, 0.010976 0.005130 0.016000, 0.011154 0.005283 -0.016000, 0.011154 0.005283 -0.011750,
 0.011154 0.005283 0.011750, 0.011154 0.005283 0.016000, 0.011262 0.013793 -0.012000, 0.011262 0.013793 -0.007500, 0.011262 0.013793 0.007500,
 0.011262 0.013793 0.012000, 0.011291 0.005473 -0.016000, 0.011291 0.005473 -0.011750, 0.011291 0.005473 0.011750, 0.011291 0.005473 0.016000,
 0.011548 0.022000 -0.012000, 0.011548 0.022000 0.012000, 0.011779 0.006309 -0.016000, 0.011779 0.006309 -0.007500, 0.011779 0.006309 0.007500,
 0.011779 0.006309 0.016000, 0.012325 0.012424 -0.012000, 0.012325 0.012424 -0.007500, 0.012325 0.012424 0.007500, 0.012325 0.012424 0.012000,
 0.013386 0.008576 -0.016000, 0.013386 0.008576 -0.007500, 0.013386 0.008576 0.007500, 0.013386 0.008576 0.016000, 0.013675 0.011335 -0.012000,
 0.013675 0.011335 -0.007500, 0.013675 0.011335 0.007500, 0.013675 0.011335 0.012000, 0.014728 0.017678 -0.016000, 0.014728 0.017678 0.016000,
 0.014740 0.017942 -0.016000, 0.014740 0.017942 0.016000, 0.014828 0.016914 -0.016000, 0.014828 0.016914 0.016000, 0.014893 0.018652 -0.016000,
 0.014893 0.018652 0.016000, 0.015123 0.016203 -0.016000, 0.015123 0.016203 0.016000, 0.015216 0.019303 -0.016000, 0.015216 0.019303 0.016000,
 0.015239 0.010585 -0.012000, 0.015239 0.010585 -0.007500, 0.015239 0.010585 0.007500, 0.015239 0.010585 0.012000, 0.015272 0.010617 -0.016000,
 0.015272 0.010617 -0.012000, 0.015272 0.010617 0.012000, 0.015272 0.010617 0.016000, 0.015592 0.015592 -0.016000, 0.015592 0.015592 0.016000,
 0.015687 0.019855 -0.016000, 0.015687 0.019855 0.016000, 0.015859 0.020000 -0.016000, 0.015859 0.020000 0.016000, 0.016203 0.015123 -0.016000,
 0.016203 0.015123 0.016000, 0.016228 0.017678 -0.014500, 0.016228 0.017678 -0.012000, 0.016228 0.017678 0.012000, 0.016228 0.017678 0.014500,
 0.016234 0.017808 -0.014500, 0.016234 0.017808 0.014500, 0.016277 0.017302 -0.014500, 0.016277 0.017302 -0.012000, 0.016277 0.017302 0.012000,
 0.016277 0.017302 0.014500, 0.016277 0.018053 -0.012000, 0.016277 0.018053 0.012000, 0.016286 0.018051 -0.014500, 0.016286 0.018051 0.014500,
 0.016309 0.018157 -0.014500, 0.016309 0.018157 0.014500, 0.016349 0.020140 0.015860, 0.016349 0.020141 -0.015859, 0.016422 0.016953 -0.014500,
 0.016422 0.016953 -0.012000, 0.016422 0.016953 0.012000, 0.016422 0.016953 0.014500, 0.016422 0.018403 -0.012000, 0.016422 0.018403 0.012000,
 0.016429 0.018399 -0.014500, 0.016429 0.018399 0.014500, 0.016458 0.020173 -0.015827, 0.016468 0.018476 -0.014500, 0.016468 0.018476 0.014500,
 0.016494 0.020181 0.015819, 0.016652 0.016652 -0.014500, 0.016652 0.016652 -0.012000, 0.016652 0.016652 0.012000, 0.016652 0.016652 0.014500,
 0.016652 0.018703 -0.012000, 0.016652 0.018703 0.012000, 0.016657 0.018699 -0.014500, 0.016657 0.018699 0.014500, 0.016699 0.018748 -0.014500,
 0.016699 0.018748 0.014500, 0.016914 0.014828 -0.016000, 0.016914 0.014828 0.016000, 0.016953 0.016422 -0.014500, 0.016953 0.016422 -0.012000,
 0.016953 0.016422 0.012000, 0.016953 0.016422 0.014500, 0.016953 0.018933 -0.012000, 0.016953 0.018933 0.012000, 0.016955 0.018930 -0.014500,
 0.016955 0.018930 0.014500, 0.016991 0.018955 -0.014500, 0.016991 0.018955 0.014500, 0.017024 0.020271 -0.015729, 0.017024 0.020268 0.015732,
 0.017068 0.020279 -0.015721, 0.017126 0.020285 0.015715, 0.017302 0.016277 -0.014500, 0.017302 0.016277 -0.012000, 0.017302 0.016277 0.012000,
 0.017302 0.016277 0.014500, 0.017302 0.019078 -0.012000, 0.017302 0.019078 0.012000, 0.017303 0.019076 -0.014500, 0.017303 0.019076 0.014500,
 0.017323 0.019084 -0.014500, 0.017323 0.019084 0.014500, 0.017406 0.012397 -0.016000, 0.017406 0.012397 -0.012000, 0.017406 0.012397 0.012000,
 0.017406 0.012397 0.016000, 0.017678 0.014728 -0.016000, 0.017678 0.014728 0.016000, 0.017678 0.016228 -0.014500, 0.017678 0.016228 -0.012000,
 0.017678 0.016228 0.012000, 0.017678 0.016228 0.014500, 0.017678 0.019128 -0.014500, 0.017678 0.019128 -0.012000, 0.017678 0.019128 0.012000,
 0.017678 0.019128 0.014500, 0.017678 0.020314 -0.015686, 0.017678 0.020314 0.015686, 0.017678 0.022000 -0.014000, 0.017678 0.022000 -0.012000,
 0.017678 0.022000 0.012000, 0.017678 0.022000 0.014000, 0.017947 0.021992 -0.014008, 0.018032 0.019084 -0.014500, 0.018032 0.019084 0.014500,
 0.018052 0.019076 -0.014500, 0.018052 0.019076 0.014500, 0.018053 0.016277 -0.014500, 0.018053 0.016277 -0.012000, 0.018053 0.016277 0.012000,
 0.018053 0.016277 0.014500, 0.018053 0.019078 -0.012000, 0.018053 0.019078 0.012000, 0.018229 0.020285 -0.015715, 0.018287 0.020279 0.015721,
 0.018331 0.020268 -0.015732, 0.018331 0.020271 0.015729, 0.018365 0.018955 -0.014500, 0.018365 0.018955 0.014500, 0.018400 0.018930 -0.014500,
 0.018400 0.018930 0.014500, 0.018403 0.016422 -0.014500, 0.018403 0.016422 -0.012000, 0.018403 0.016422 0.012000, 0.018403 0.016422 0.014500,
 0.018403 0.018933 -0.012000, 0.018403 0.018933 0.012000, 0.018437 0.021933 0.014067, 0.018441 0.014828 -0.016000, 0.018441 0.014828 0.016000,
 0.018656 0.018748 -0.014500, 0.018656 0.018748 0.014500, 0.018680 0.021882 -0.014118, 0.018698 0.018699 -0.014500, 0.018698 0.018699 0.014500,
 0.018701 0.021860 0.014140, 0.018703 0.016652 -0.014500, 0.018703 0.016652 -0.012000, 0.018703 0.016652 0.012000, 0.018703 0.016652 0.014500,
 0.018703 0.018703 -0.012000, 0.018703 0.018703 0.012000, 0.018705 0.021874 -0.014126, 0.018705 0.021876 -0.012000, 0.018705 0.021876 0.012000,
 0.018861 0.020181 -0.015819, 0.018888 0.018476 -0.014500, 0.018888 0.018476 0.014500, 0.018897 0.020173 0.015827, 0.018926 0.018399 -0.014500,
 0.018926 0.018399 0.014500, 0.018933 0.016953 -0.014500, 0.018933 0.016953 -0.012000, 0.018933 0.016953 0.012000, 0.018933 0.016953 0.014500,
 0.018933 0.018403 -0.012000, 0.018933 0.018403 0.012000, 0.019006 0.020141 0.015859, 0.019006 0.020140 -0.015860, 0.019046 0.018157 -0.014500,
 0.019046 0.018157 0.014500, 0.019069 0.018051 -0.014500, 0.019069 0.018051 0.014500, 0.019078 0.017302 -0.014500, 0.019078 0.017302 -0.012000,
 0.019078 0.017302 0.012000, 0.019078 0.017302 0.014500, 0.019078 0.018053 -0.012000, 0.019078 0.018053 0.012000, 0.019122 0.017808 -0.014500,
 0.019122 0.017808 0.014500, 0.019128 0.017678 -0.014500, 0.019128 0.017678 -0.012000, 0.019128 0.017678 0.012000, 0.019128 0.017678 0.014500,
 0.019153 0.015123 -0.016000, 0.019153 0.015123 0.016000, 0.019198 0.021724 0.014276, 0.019429 0.021629 -0.014371, 0.019497 0.020000 -0.016000,
 0.019497 0.020000 0.016000, 0.019664 0.021491 0.014509, 0.019668 0.019855 -0.016000, 0.019668 0.019855 0.016000, 0.019671 0.021505 -0.014495,
 0.019674 0.021511 -0.012000, 0.019674 0.021511 0.012000, 0.019752 0.013886 -0.016000, 0.019752 0.013886 -0.012000, 0.019752 0.013886 0.012000,
 0.019752 0.013886 0.016000, 0.019764 0.015592 -0.016000, 0.019764 0.015592 0.016000, 0.019863 0.021407 -0.014593, 0.019991 0.021329 0.014671,
 0.020140 0.019303 -0.016000, 0.020140 0.019303 0.016000, 0.020232 0.016203 -0.016000, 0.020232 0.016203 0.016000, 0.020462 0.018652 -0.016000,
 0.020462 0.018652 0.016000, 0.020517 0.020912 0.015088, 0.020520 0.020916 -0.015084, 0.020527 0.016914 -0.016000, 0.020527 0.016914 0.016000,
 0.020529 0.020926 -0.012000, 0.020529 0.020926 0.012000, 0.020594 0.014488 -0.016000, 0.020594 0.014488 -0.012000, 0.020594 0.014488 0.012000,
 0.020594 0.014488 0.016000, 0.020616 0.017942 -0.016000, 0.020616 0.017942 0.016000, 0.020628 0.017678 -0.016000, 0.020628 0.017678 0.016000,
 0.020636 0.020829 -0.015171, 0.020699 0.020769 0.015231, 0.021204 0.020143 -0.015857, 0.021206 0.020145 0.015855, 0.021219 0.020155 -0.012000,
 0.021219 0.020155 0.012000, 0.021269 0.015273 -0.016000, 0.021269 0.015273 -0.012000, 0.021269 0.015273 0.012000, 0.021269 0.015273 0.016000,
 0.021323 0.020000 -0.016000, 0.021323 0.020000 0.016000, 0.021707 0.019242 -0.016000, 0.021707 0.019242 -0.012000, 0.021707 0.019242 0.012000,
 0.021707 0.019242 0.016000, 0.021738 0.016196 -0.016000, 0.021738 0.016196 -0.012000, 0.021738 0.016196 0.012000, 0.021738 0.016196 0.016000,
 0.021963 0.018239 -0.016000, 0.021963 0.018239 -0.012000, 0.021963 0.018239 0.012000, 0.021963 0.018239 0.016000, 0.021974 0.017204 -0.016000,
 0.021974 0.017204 -0.012000, 0.021974 0.017204 0.012000, 0.021974 0.017204 0.016000
]
}
normal Normal {
vector [
 -1.000000 0.000000 0.000000, -0.995974 -0.089639 0.000000, -0.965926 -0.258819 0.000000, -0.965926 0.258819 0.000000, -0.965844 -0.259123 0.000000,
 -0.944318 -0.329033 0.000000, -0.943883 -0.330279 0.000000, -0.883498 -0.468434 0.000000, -0.868018 -0.496533 0.000000, -0.866025 -0.500000 0.000000,
 -0.866025 0.500000 0.000000, -0.865847 -0.500309 0.000000, -0.849594 -0.527438 0.000000, -0.834573 -0.550897 0.000000, -0.802242 -0.596999 0.000000,
 -0.780625 -0.625000 0.000000, -0.759777 -0.650183 0.000000, -0.757421 -0.652926 0.000000, -0.735763 -0.677239 0.000000, -0.728506 -0.685040 0.000000,
 -0.713802 -0.700348 0.000000, -0.707107 -0.707107 0.000000, -0.707107 0.000000 -0.707107, -0.707107 0.000000 0.707107, -0.707107 0.707107 0.000000,
 -0.706855 -0.707359 0.000000, -0.704260 -0.063385 -0.707107, -0.704260 -0.063385 0.707107, -0.702428 -0.711755 0.000000, -0.683013 0.183013 -0.707107,
 -0.683013 0.183013 0.707107, -0.682955 -0.183227 -0.707107, -0.682955 -0.183227 0.707107, -0.674671 -0.738119 0.000000, -0.667426 -0.233543 -0.707107,
 -0.667426 -0.233543 0.707107, -0.619034 -0.785364 0.000000, -0.612372 0.353553 -0.707107, -0.612372 0.353553 0.707107, -0.612246 -0.353772 -0.707107,
 -0.612246 -0.353772 0.707107, -0.590132 -0.389543 -0.707107, -0.590132 -0.389543 0.707107, -0.586365 -0.810047 0.000000, -0.570435 0.821343 0.000000,
 -0.548926 -0.835871 0.000000, -0.543507 -0.839405 0.000000, -0.537171 -0.843473 0.000000, -0.500000 -0.866025 0.000000, -0.500000 0.500000 -0.707107,
 -0.500000 0.500000 0.707107, -0.500000 0.866025 0.000000, -0.499822 -0.500178 -0.707107, -0.499822 -0.500178 0.707107, -0.499737 -0.866177 0.000000,
 -0.477064 -0.521929 -0.707107, -0.477064 -0.521929 0.707107, -0.473869 -0.880596 0.000000, -0.457935 -0.888986 0.000000, -0.456739 -0.889601 0.000000,
 -0.436044 -0.556656 -0.707107, -0.436044 -0.556656 0.707107, -0.403358 0.580777 -0.707107, -0.403358 0.580777 0.707107, -0.353553 0.612372 -0.707107,
 -0.353553 0.612372 0.707107, -0.353368 -0.612480 -0.707107, -0.353368 -0.612480 0.707107, -0.348174 -0.937430 0.000000, -0.346940 -0.937887 0.000000,
 -0.339157 -0.940730 0.000000, -0.335802 -0.622284 -0.707107, -0.335615 -0.622385 0.707107, -0.335076 -0.622675 -0.707107, -0.335076 -0.622675 0.707107,
 -0.316548 -0.948577 0.000000, -0.310483 -0.635295 0.707107, -0.302550 -0.953133 0.000000, -0.302175 -0.639289 -0.707107, -0.280033 -0.959990 0.000000,
 -0.258819 -0.965926 0.000000, -0.258819 0.965926 0.000000, -0.258638 -0.965974 0.000000, -0.244340 -0.969690 0.000000, -0.183013 0.683013 -0.707107,
 -0.183013 0.683013 0.707107, -0.182885 -0.683047 -0.707107, -0.182885 -0.683047 0.707107, -0.173007 -0.685616 -0.707107, -0.172870 -0.685650 0.707107,
 -0.172775 -0.685674 -0.707107, -0.172775 -0.685674 0.707107, -0.169034 -0.985610 0.000000, -0.165323 -0.986239 0.000000, -0.161342 -0.688454 0.707107,
 -0.146340 -0.691798 -0.707107, -0.133604 -0.991035 0.000000, -0.110734 -0.993850 0.000000, -0.091857 -0.995772 0.000000, -0.047636 -0.998865 0.000000,
 -0.017611 -0.999845 0.000000, -0.000000 -1.000000 0.000000, 0.000000 -0.707107 -0.707107, 0.000000 -0.707107 0.707107, 0.000000 0.000000 -1.000000,
 0.000000 0.000000 1.000000, -0.000000 0.707107 -0.707107, 0.000000 0.707107 0.707107, 0.000000 1.000000 0.000000, 0.023449 -0.999725 0.000000,
 0.062295 0.998058 0.000000, 0.086191 -0.996279 0.000000, 0.099690 -0.995019 0.000000, 0.123779 -0.992310 0.000000, 0.134220 -0.990951 0.000000,
 0.146340 -0.691798 0.707107, 0.161342 -0.688454 -0.707107, 0.172775 -0.685674 -0.707107, 0.172775 -0.685674 0.707107, 0.172870 -0.685650 -0.707107,
 0.173007 -0.685616 0.707107, 0.175791 0.984428 0.000000, 0.182885 -0.683047 -0.707107, 0.182885 -0.683047 0.707107, 0.183013 0.683013 -0.707107,
 0.183013 0.683013 0.707107, 0.210472 -0.977600 0.000000, 0.211382 -0.977404 0.000000, 0.231940 0.972730 0.000000, 0.237686 0.971342 0.000000,
 0.237744 0.971328 0.000000, 0.237787 0.971317 0.000000, 0.244340 -0.969690 0.000000, 0.258638 -0.965974 0.000000, 0.258819 -0.965926 0.000000,
 0.258819 0.965926 0.000000, 0.282947 -0.959136 0.000000, 0.287579 -0.957757 0.000000, 0.301819 -0.953365 0.000000, 0.302175 -0.639289 0.707107,
 0.310483 -0.635295 -0.707107, 0.325217 0.945639 0.000000, 0.335076 -0.622675 -0.707107, 0.335076 -0.622675 0.707107, 0.335615 -0.622385 -0.707107,
 0.335802 -0.622284 0.707107, 0.351484 -0.936194 0.000000, 0.351757 0.936091 0.000000, 0.353368 -0.612480 -0.707107, 0.353368 -0.612480 0.707107,
 0.353553 0.612372 -0.707107, 0.353553 0.612372 0.707107, 0.391744 -0.920074 0.000000, 0.405139 0.914255 0.000000, 0.425128 -0.905133 0.000000,
 0.436044 -0.556656 -0.707107, 0.436044 -0.556656 0.707107, 0.454464 -0.890765 0.000000, 0.461933 0.886915 0.000000, 0.461942 0.886910 0.000000,
 0.462011 0.886874 0.000000, 0.464916 -0.885355 0.000000, 0.473869 -0.880596 0.000000, 0.477064 -0.521929 -0.707107, 0.477064 -0.521929 0.707107,
 0.479985 -0.877276 0.000000, 0.499737 -0.866177 0.000000, 0.499822 -0.500178 -0.707107, 0.499822 -0.500178 0.707107, 0.500000 -0.866025 0.000000,
 0.500000 0.500000 -0.707107, 0.500000 0.500000 0.707107, 0.500000 0.866025 0.000000, 0.502859 -0.864369 0.000000, 0.505554 0.862795 0.000000,
 0.533693 0.845678 0.000000, 0.535197 0.844727 0.000000, 0.557475 -0.830194 0.000000, 0.558074 -0.829791 0.000000, 0.559858 -0.828588 0.000000,
 0.589369 -0.807864 0.000000, 0.590132 -0.389543 -0.707107, 0.590132 -0.389543 0.707107, 0.612246 -0.353772 -0.707107, 0.612246 -0.353772 0.707107,
 0.612372 0.353553 -0.707107, 0.612372 0.353553 0.707107, 0.625196 -0.780468 0.000000, 0.659580 0.751634 0.000000, 0.659726 0.751507 0.000000,
 0.659751 0.751484 0.000000, 0.667426 -0.233543 -0.707107, 0.667426 -0.233543 0.707107, 0.667974 -0.744184 0.000000, 0.674671 -0.738119 0.000000,
 0.674823 -0.737980 0.000000, 0.676927 -0.736050 0.000000, 0.679591 -0.733591 0.000000, 0.682955 -0.183227 -0.707107, 0.682955 -0.183227 0.707107,
 0.683013 0.183013 -0.707107, 0.683013 0.183013 0.707107, 0.684352 0.729152 0.000000, 0.688861 -0.724893 0.000000, 0.690417 -0.723412 0.000000,
 0.698898 0.715221 0.000000, 0.704260 -0.063385 -0.707107, 0.704260 -0.063385 0.707107, 0.704416 -0.709787 0.000000, 0.706855 -0.707359 0.000000,
 0.707107 -0.707107 0.000000, 0.707107 0.000000 -0.707107, 0.707107 0.000000 0.707107, 0.707107 0.707107 0.000000, 0.713641 0.700512 0.000000,
 0.737441 -0.675412 0.000000, 0.762536 -0.646946 0.000000, 0.776792 -0.629757 0.000000, 0.780625 -0.625000 0.000000, 0.780720 -0.624881 0.000000,
 0.817231 -0.576311 0.000000, 0.819391 0.573236 0.000000, 0.819536 0.573028 0.000000, 0.819574 0.572973 0.000000, 0.823474 -0.567353 0.000000,
 0.825528 -0.564361 0.000000, 0.830949 -0.556348 0.000000, 0.834573 -0.550897 0.000000, 0.836681 -0.547690 0.000000, 0.843400 0.537287 0.000000,
 0.851687 -0.524052 0.000000, 0.855441 0.517900 0.000000, 0.865847 -0.500309 0.000000, 0.866025 -0.500000 0.000000, 0.866025 0.500000 0.000000,
 0.866454 -0.499256 0.000000, 0.871899 -0.489686 0.000000, 0.874465 -0.485088 0.000000, 0.912287 -0.409551 0.000000, 0.917072 -0.398721 0.000000,
 0.927553 -0.373692 0.000000, 0.927739 -0.373229 0.000000, 0.932196 0.361953 0.000000, 0.939408 -0.342802 0.000000, 0.943883 -0.330279 0.000000,
 0.949271 -0.314460 0.000000, 0.951514 0.307604 0.000000, 0.957577 -0.288177 0.000000, 0.965844 -0.259123 0.000000, 0.965926 -0.258819 0.000000,
 0.965926 0.258819 0.000000, 0.975770 -0.218800 0.000000, 0.986796 -0.161967 0.000000, 0.988656 -0.150196 0.000000, 0.991526 0.129907 0.000000,
 0.993977 -0.109591 0.000000, 0.995974 -0.089639 0.000000, 0.996725 0.080865 0.000000, 0.998451 0.055642 0.000000, 1.000000 -0.000000 0.000000
]
}
coordIndex [
 591, 633, 583, -1, 583, 633, 623, -1, 583, 623, 571, -1,
 571, 623, 617, -1, 571, 617, 556, -1, 556, 617, 611, -1,
 556, 611, 541, -1, 541, 611, 595, -1, 541, 595, 527, -1,
 527, 595, 548, -1, 527, 548, 508, -1, 508, 548, 506, -1,
 508, 506, 492, -1, 492, 506, 476, -1, 492, 476, 478, -1,
 478, 476, 434, -1, 478, 434, 466, -1, 466, 434, 428, -1,
 466, 428, 454, -1, 454, 428, 416, -1, 454, 416, 442, -1,
 442, 416, 412, -1, 442, 412, 436, -1, 436, 412, 408, -1,
 439, 409, 445, -1, 445, 409, 413, -1, 445, 413, 457, -1,
 457, 413, 417, -1, 457, 417, 469, -1, 469, 417, 429, -1,
 469, 429, 481, -1, 481, 429, 435, -1, 481, 435, 495, -1,
 495, 435, 477, -1, 495, 477, 511, -1, 511, 477, 507, -1,
 511, 507, 530, -1, 530, 507, 549, -1, 530, 549, 544, -1,
 544, 549, 596, -1, 544, 596, 559, -1, 559, 596, 612, -1,
 559, 612, 574, -1, 574, 612, 618, -1, 574, 618, 586, -1,
 586, 618, 624, -1, 586, 624, 594, -1, 594, 624, 634, -1,
 148, 149, 156, -1, 156, 149, 157, -1, 156, 157, 170, -1,
 170, 157, 171, -1, 170, 171, 178, -1, 178, 171, 179, -1,
 178, 179, 194, -1, 194, 179, 195, -1, 194, 195, 204, -1,
 204, 195, 205, -1, 204, 205, 222, -1, 222, 205, 223, -1,
 222, 223, 238, -1, 238, 223, 239, -1, 238, 239, 248, -1,
 248, 239, 249, -1, 248, 249, 264, -1, 264, 249, 265, -1,
 264, 265, 274, -1, 274, 265, 275, -1, 274, 275, 286, -1,
 286, 275, 287, -1, 286, 287, 298, -1, 298, 287, 299, -1,
 146, 147, 154, -1, 154, 147, 155, -1, 154, 155, 168, -1,
 168, 155, 169, -1, 168, 169, 176, -1, 176, 169, 177, -1,
 176, 177, 192, -1, 192, 177, 193, -1, 192, 193, 202, -1,
 202, 193, 203, -1, 202, 203, 220, -1, 220, 203, 221, -1,
 220, 221, 236, -1, 236, 221, 237, -1, 236, 237, 246, -1,
 246, 237, 247, -1, 246, 247, 262, -1, 262, 247, 263, -1,
 262, 263, 272, -1, 272, 263, 273, -1, 272, 273, 284, -1,
 284, 273, 285, -1, 284, 285, 296, -1, 296, 285, 297, -1,
 436, 437, 442, -1, 442, 437, 443, -1, 442, 443, 454, -1,
 454, 443, 455, -1, 454, 455, 466, -1, 466, 455, 467, -1,
 466, 467, 478, -1, 478, 467, 479, -1, 478, 479, 492, -1,
 492, 479, 493, -1, 492, 493, 508, -1, 508, 493, 509, -1,
 508, 509, 527, -1, 527, 509, 528, -1, 527, 528, 541, -1,
 541, 528, 542, -1, 541, 542, 556, -1, 556, 542, 557, -1,
 556, 557, 571, -1, 571, 557, 572, -1, 571, 572, 583, -1,
 583, 572, 584, -1, 583, 584, 591, -1, 591, 584, 592, -1,
 438, 439, 444, -1, 444, 439, 445, -1, 444, 445, 456, -1,
 456, 445, 457, -1, 456, 457, 468, -1, 468, 457, 469, -1,
 468, 469, 480, -1, 480, 469, 481, -1, 480, 481, 494, -1,
 494, 481, 495, -1, 494, 495, 510, -1, 510, 495, 511, -1,
 510, 511, 529, -1, 529, 511, 530, -1, 529, 530, 543, -1,
 543, 530, 544, -1, 543, 544, 558, -1, 558, 544, 559, -1,
 558, 559, 573, -1, 573, 559, 574, -1, 573, 574, 585, -1,
 585, 574, 586, -1, 585, 586, 593, -1, 593, 586, 594, -1,
 521, 520, 391, -1, 519, 518, 390, -1, 390, 518, 48, -1,
 390, 48, 391, -1, 391, 48, 49, -1, 391, 49, 521, -1,
 323, 322, 327, -1, 327, 322, 326, -1, 327, 326, 359, -1,
 359, 326, 358, -1, 359, 358, 388, -1, 388, 358, 394, -1,
 609, 610, 504, -1, 504, 610, 505, -1, 504, 505, 426, -1,
 426, 505, 427, -1, 426, 427, 423, -1, 423, 427, 403, -1,
 423, 403, 422, -1, 389, 388, 395, -1, 395, 388, 394, -1,
 395, 394, 403, -1, 403, 394, 402, -1, 403, 402, 422, -1,
 640, 638, 649, -1, 649, 638, 646, -1, 626, 606, 601, -1,
 601, 614, 626, -1, 626, 614, 621, -1, 626, 621, 640, -1,
 640, 621, 636, -1, 640, 636, 638, -1, 564, 520, 521, -1,
 521, 547, 564, -1, 564, 547, 555, -1, 564, 555, 606, -1,
 606, 555, 597, -1, 606, 597, 601, -1, 646, 650, 649, -1,
 649, 650, 658, -1, 649, 658, 657, -1, 657, 658, 662, -1,
 657, 662, 661, -1, 661, 662, 654, -1, 661, 654, 653, -1,
 653, 654, 644, -1, 653, 644, 643, -1, 643, 644, 630, -1,
 643, 630, 629, -1, 629, 630, 610, -1, 629, 610, 609, -1,
 278, 268, 271, -1, 406, 422, 402, -1, 271, 345, 348, -1,
 348, 366, 271, -1, 271, 366, 384, -1, 271, 384, 398, -1,
 402, 394, 406, -1, 406, 394, 358, -1, 406, 358, 398, -1,
 398, 358, 326, -1, 398, 326, 271, -1, 271, 326, 322, -1,
 271, 322, 318, -1, 94, 160, 120, -1, 120, 160, 148, -1,
 120, 148, 124, -1, 124, 148, 156, -1, 124, 156, 134, -1,
 134, 156, 170, -1, 134, 170, 144, -1, 144, 170, 178, -1,
 144, 178, 164, -1, 164, 178, 194, -1, 164, 194, 190, -1,
 190, 194, 204, -1, 190, 204, 212, -1, 212, 204, 222, -1,
 212, 222, 230, -1, 278, 271, 290, -1, 290, 271, 318, -1,
 290, 318, 298, -1, 268, 252, 271, -1, 271, 252, 242, -1,
 271, 242, 245, -1, 245, 242, 226, -1, 94, 77, 160, -1,
 160, 77, 91, -1, 160, 91, 174, -1, 174, 91, 113, -1,
 174, 113, 182, -1, 182, 113, 127, -1, 182, 127, 198, -1,
 230, 222, 256, -1, 256, 222, 238, -1, 256, 238, 282, -1,
 282, 238, 248, -1, 282, 248, 302, -1, 302, 248, 264, -1,
 302, 264, 310, -1, 310, 264, 274, -1, 310, 274, 318, -1,
 318, 274, 286, -1, 318, 286, 298, -1, 127, 141, 198, -1,
 198, 141, 167, -1, 198, 167, 208, -1, 208, 167, 201, -1,
 208, 201, 226, -1, 226, 201, 219, -1, 226, 219, 245, -1,
 593, 594, 590, -1, 593, 590, 588, -1, 590, 582, 588, -1,
 588, 582, 580, -1, 588, 580, 576, -1, 580, 570, 576, -1,
 576, 570, 567, -1, 576, 567, 561, -1, 567, 554, 561, -1,
 561, 554, 551, -1, 561, 551, 546, -1, 551, 540, 546, -1,
 546, 540, 538, -1, 546, 538, 532, -1, 538, 526, 532, -1,
 532, 526, 524, -1, 532, 524, 514, -1, 524, 515, 514, -1,
 514, 515, 501, -1, 514, 501, 497, -1, 501, 499, 497, -1,
 497, 499, 487, -1, 497, 487, 483, -1, 487, 485, 483, -1,
 483, 485, 475, -1, 483, 475, 471, -1, 475, 473, 471, -1,
 471, 473, 464, -1, 471, 464, 459, -1, 464, 461, 459, -1,
 459, 461, 451, -1, 459, 451, 447, -1, 439, 438, 441, -1,
 441, 438, 447, -1, 441, 447, 449, -1, 449, 447, 451, -1,
 563, 562, 552, -1, 563, 552, 519, -1, 519, 552, 522, -1,
 519, 522, 518, -1, 562, 563, 598, -1, 598, 563, 605, -1,
 598, 605, 604, -1, 604, 605, 613, -1, 613, 605, 625, -1,
 613, 625, 622, -1, 622, 625, 635, -1, 635, 625, 639, -1,
 635, 639, 637, -1, 637, 639, 645, -1, 645, 639, 648, -1,
 645, 648, 647, -1, 647, 648, 656, -1, 647, 656, 655, -1,
 655, 656, 660, -1, 655, 660, 659, -1, 659, 660, 652, -1,
 659, 652, 651, -1, 651, 652, 642, -1, 651, 642, 641, -1,
 641, 642, 628, -1, 641, 628, 627, -1, 627, 628, 608, -1,
 627, 608, 607, -1, 591, 592, 589, -1, 589, 592, 587, -1,
 589, 587, 581, -1, 581, 587, 579, -1, 579, 587, 575, -1,
 579, 575, 569, -1, 569, 575, 566, -1, 566, 575, 560, -1,
 566, 560, 553, -1, 553, 560, 550, -1, 550, 560, 545, -1,
 550, 545, 539, -1, 539, 545, 537, -1, 537, 545, 531, -1,
 537, 531, 525, -1, 525, 531, 523, -1, 523, 531, 513, -1,
 523, 513, 512, -1, 512, 513, 500, -1, 500, 513, 496, -1,
 500, 496, 498, -1, 498, 496, 486, -1, 486, 496, 482, -1,
 486, 482, 484, -1, 484, 482, 474, -1, 474, 482, 470, -1,
 474, 470, 472, -1, 472, 470, 463, -1, 463, 470, 458, -1,
 463, 458, 460, -1, 460, 458, 450, -1, 450, 458, 446, -1,
 450, 446, 448, -1, 448, 446, 440, -1, 440, 446, 437, -1,
 440, 437, 436, -1, 36, 38, 37, -1, 37, 38, 39, -1,
 33, 31, 32, -1, 32, 31, 30, -1, 27, 25, 26, -1,
 26, 25, 24, -1, 21, 19, 20, -1, 20, 19, 18, -1,
 15, 13, 14, -1, 14, 13, 12, -1, 70, 71, 67, -1,
 66, 68, 69, -1, 124, 125, 120, -1, 120, 125, 121, -1,
 120, 121, 94, -1, 94, 121, 95, -1, 94, 95, 77, -1,
 77, 95, 70, -1, 76, 69, 93, -1, 93, 69, 92, -1,
 93, 92, 119, -1, 119, 92, 118, -1, 119, 118, 123, -1,
 123, 118, 122, -1, 39, 38, 41, -1, 41, 38, 40, -1,
 41, 40, 43, -1, 43, 40, 42, -1, 43, 42, 45, -1,
 45, 42, 44, -1, 45, 44, 47, -1, 47, 44, 46, -1,
 47, 46, 53, -1, 53, 46, 52, -1, 53, 52, 55, -1,
 55, 52, 54, -1, 55, 54, 57, -1, 57, 54, 56, -1,
 57, 56, 59, -1, 59, 56, 58, -1, 59, 58, 61, -1,
 61, 58, 60, -1, 61, 60, 63, -1, 63, 60, 62, -1,
 63, 62, 65, -1, 65, 62, 64, -1, 65, 64, 67, -1,
 67, 64, 66, -1, 67, 66, 70, -1, 70, 66, 69, -1,
 70, 69, 77, -1, 77, 69, 76, -1, 123, 122, 132, -1,
 123, 132, 133, -1, 133, 132, 142, -1, 133, 142, 143, -1,
 143, 142, 162, -1, 143, 162, 163, -1, 163, 162, 188, -1,
 163, 188, 189, -1, 189, 188, 210, -1, 189, 210, 211, -1,
 211, 210, 228, -1, 211, 228, 229, -1, 229, 228, 254, -1,
 229, 254, 255, -1, 255, 254, 280, -1, 255, 280, 281, -1,
 281, 280, 300, -1, 281, 300, 301, -1, 301, 300, 308, -1,
 301, 308, 309, -1, 309, 308, 316, -1, 309, 316, 317, -1,
 317, 316, 320, -1, 317, 320, 321, -1, 420, 421, 401, -1,
 387, 386, 392, -1, 321, 320, 325, -1, 325, 320, 324, -1,
 325, 324, 357, -1, 357, 324, 356, -1, 357, 356, 393, -1,
 607, 608, 502, -1, 502, 608, 503, -1, 502, 503, 424, -1,
 424, 503, 425, -1, 424, 425, 400, -1, 356, 387, 393, -1,
 393, 387, 392, -1, 393, 392, 401, -1, 401, 392, 400, -1,
 401, 400, 420, -1, 420, 400, 425, -1, 125, 124, 134, -1,
 125, 134, 135, -1, 135, 134, 144, -1, 135, 144, 145, -1,
 145, 144, 164, -1, 145, 164, 165, -1, 165, 164, 190, -1,
 165, 190, 191, -1, 191, 190, 212, -1, 191, 212, 213, -1,
 213, 212, 230, -1, 213, 230, 231, -1, 231, 230, 256, -1,
 231, 256, 257, -1, 257, 256, 282, -1, 257, 282, 283, -1,
 283, 282, 302, -1, 283, 302, 303, -1, 303, 302, 310, -1,
 303, 310, 311, -1, 311, 310, 318, -1, 311, 318, 319, -1,
 319, 318, 322, -1, 319, 322, 323, -1, 8, 9, 5, -1,
 1, 0, 5, -1, 5, 0, 4, -1, 5, 4, 8, -1,
 2, 3, 48, -1, 48, 3, 49, -1, 0, 1, 2, -1,
 2, 1, 3, -1, 11, 13, 15, -1, 31, 33, 29, -1,
 29, 33, 35, -1, 411, 415, 51, -1, 5, 9, 7, -1,
 7, 9, 11, -1, 7, 11, 17, -1, 17, 11, 15, -1,
 25, 27, 23, -1, 23, 27, 29, -1, 23, 29, 51, -1,
 51, 29, 35, -1, 600, 603, 646, -1, 646, 603, 616, -1,
 646, 616, 650, -1, 650, 616, 620, -1, 650, 620, 658, -1,
 658, 620, 632, -1, 658, 632, 662, -1, 662, 632, 634, -1,
 662, 634, 654, -1, 654, 634, 624, -1, 654, 624, 644, -1,
 644, 624, 618, -1, 644, 618, 630, -1, 630, 618, 612, -1,
 630, 612, 610, -1, 610, 612, 596, -1, 610, 596, 505, -1,
 217, 235, 413, -1, 413, 235, 261, -1, 413, 261, 417, -1,
 415, 419, 51, -1, 51, 419, 431, -1, 51, 431, 433, -1,
 19, 21, 17, -1, 17, 21, 23, -1, 17, 23, 7, -1,
 7, 23, 51, -1, 596, 549, 505, -1, 505, 549, 507, -1,
 505, 507, 427, -1, 427, 507, 477, -1, 427, 477, 403, -1,
 139, 153, 61, -1, 61, 153, 187, -1, 37, 39, 35, -1,
 35, 39, 41, -1, 35, 41, 51, -1, 51, 41, 43, -1,
 51, 43, 45, -1, 477, 435, 403, -1, 403, 435, 355, -1,
 403, 355, 395, -1, 335, 339, 435, -1, 435, 339, 343, -1,
 435, 343, 355, -1, 63, 117, 61, -1, 61, 117, 131, -1,
 61, 131, 139, -1, 45, 47, 51, -1, 51, 47, 53, -1,
 51, 53, 55, -1, 55, 57, 51, -1, 51, 57, 59, -1,
 51, 59, 61, -1, 261, 295, 417, -1, 417, 295, 307, -1,
 417, 307, 429, -1, 429, 307, 315, -1, 429, 315, 435, -1,
 435, 315, 331, -1, 435, 331, 335, -1, 411, 51, 409, -1,
 409, 51, 61, -1, 409, 61, 413, -1, 413, 61, 187, -1,
 413, 187, 217, -1, 373, 377, 363, -1, 363, 377, 381, -1,
 363, 381, 355, -1, 355, 381, 389, -1, 355, 389, 395, -1,
 63, 65, 117, -1, 117, 65, 67, -1, 117, 67, 111, -1,
 111, 67, 71, -1, 111, 71, 75, -1, 75, 81, 111, -1,
 111, 81, 85, -1, 111, 85, 89, -1, 89, 99, 111, -1,
 111, 99, 103, -1, 111, 103, 107, -1, 10, 8, 4, -1,
 602, 599, 645, -1, 28, 26, 24, -1, 32, 30, 34, -1,
 34, 30, 28, -1, 6, 50, 22, -1, 232, 214, 412, -1,
 336, 332, 434, -1, 434, 332, 328, -1, 434, 328, 428, -1,
 428, 328, 312, -1, 428, 312, 416, -1, 400, 434, 424, -1,
 424, 434, 476, -1, 424, 476, 502, -1, 476, 506, 502, -1,
 502, 506, 548, -1, 502, 548, 607, -1, 607, 548, 595, -1,
 607, 595, 627, -1, 627, 595, 611, -1, 627, 611, 641, -1,
 641, 611, 617, -1, 641, 617, 651, -1, 651, 617, 623, -1,
 651, 623, 659, -1, 659, 623, 633, -1, 659, 633, 655, -1,
 655, 633, 631, -1, 655, 631, 647, -1, 647, 631, 619, -1,
 647, 619, 645, -1, 645, 619, 615, -1, 645, 615, 602, -1,
 20, 18, 22, -1, 22, 18, 16, -1, 22, 16, 6, -1,
 14, 12, 16, -1, 16, 12, 10, -1, 16, 10, 6, -1,
 6, 10, 4, -1, 432, 430, 50, -1, 50, 430, 418, -1,
 50, 418, 414, -1, 312, 304, 416, -1, 416, 304, 292, -1,
 416, 292, 412, -1, 412, 292, 258, -1, 412, 258, 232, -1,
 400, 392, 352, -1, 352, 392, 386, -1, 352, 386, 360, -1,
 38, 36, 40, -1, 40, 36, 34, -1, 400, 352, 434, -1,
 434, 352, 340, -1, 434, 340, 336, -1, 184, 150, 60, -1,
 60, 150, 136, -1, 60, 58, 50, -1, 58, 56, 50, -1,
 50, 56, 54, -1, 50, 54, 52, -1, 24, 22, 28, -1,
 28, 22, 50, -1, 28, 50, 34, -1, 34, 50, 42, -1,
 34, 42, 40, -1, 378, 374, 386, -1, 386, 374, 370, -1,
 386, 370, 360, -1, 214, 184, 412, -1, 412, 184, 60, -1,
 412, 60, 408, -1, 408, 60, 50, -1, 408, 50, 410, -1,
 410, 50, 414, -1, 52, 46, 50, -1, 50, 46, 44, -1,
 50, 44, 42, -1, 136, 128, 60, -1, 60, 128, 114, -1,
 60, 114, 62, -1, 62, 114, 64, -1, 64, 114, 66, -1,
 66, 114, 108, -1, 66, 108, 68, -1, 68, 108, 72, -1,
 72, 108, 104, -1, 72, 104, 100, -1, 100, 96, 86, -1,
 86, 82, 100, -1, 100, 82, 78, -1, 100, 78, 72, -1,
 270, 271, 244, -1, 244, 271, 245, -1, 244, 245, 218, -1,
 218, 245, 219, -1, 218, 219, 200, -1, 200, 219, 201, -1,
 200, 201, 166, -1, 166, 201, 167, -1, 166, 167, 140, -1,
 140, 167, 141, -1, 140, 141, 126, -1, 126, 141, 127, -1,
 126, 127, 112, -1, 112, 127, 113, -1, 112, 113, 90, -1,
 90, 113, 91, -1, 90, 91, 76, -1, 76, 91, 77, -1,
 421, 420, 405, -1, 405, 420, 404, -1, 405, 404, 397, -1,
 397, 404, 396, -1, 397, 396, 383, -1, 383, 396, 382, -1,
 383, 382, 365, -1, 365, 382, 364, -1, 365, 364, 347, -1,
 347, 364, 346, -1, 347, 346, 344, -1, 344, 346, 350, -1,
 344, 350, 345, -1, 423, 422, 407, -1, 407, 422, 406, -1,
 407, 406, 399, -1, 399, 406, 398, -1, 399, 398, 385, -1,
 385, 398, 384, -1, 385, 384, 367, -1, 367, 384, 366, -1,
 367, 366, 349, -1, 349, 366, 348, -1, 349, 348, 351, -1,
 390, 391, 368, -1, 368, 391, 369, -1, 368, 369, 350, -1,
 350, 369, 351, -1, 350, 351, 345, -1, 345, 351, 348, -1,
 197, 207, 270, -1, 251, 383, 365, -1, 421, 405, 401, -1,
 401, 405, 393, -1, 383, 251, 397, -1, 397, 251, 267, -1,
 397, 267, 277, -1, 159, 173, 90, -1, 207, 225, 270, -1,
 270, 225, 241, -1, 270, 241, 344, -1, 344, 241, 251, -1,
 344, 251, 347, -1, 347, 251, 365, -1, 405, 397, 393, -1,
 393, 397, 277, -1, 393, 277, 357, -1, 357, 277, 289, -1,
 357, 289, 325, -1, 325, 289, 297, -1, 325, 297, 321, -1,
 321, 297, 285, -1, 321, 285, 317, -1, 317, 285, 273, -1,
 203, 211, 221, -1, 221, 211, 229, -1, 221, 229, 237, -1,
 237, 229, 255, -1, 237, 255, 247, -1, 247, 255, 281, -1,
 247, 281, 263, -1, 263, 281, 301, -1, 263, 301, 273, -1,
 273, 301, 309, -1, 273, 309, 317, -1, 90, 76, 159, -1,
 159, 76, 93, -1, 159, 93, 147, -1, 147, 93, 119, -1,
 147, 119, 155, -1, 155, 119, 123, -1, 155, 123, 169, -1,
 169, 123, 133, -1, 169, 133, 177, -1, 177, 133, 143, -1,
 177, 143, 193, -1, 193, 143, 163, -1, 193, 163, 203, -1,
 203, 163, 189, -1, 203, 189, 211, -1, 218, 200, 181, -1,
 181, 200, 166, -1, 197, 270, 181, -1, 181, 270, 244, -1,
 181, 244, 218, -1, 166, 140, 181, -1, 181, 140, 126, -1,
 181, 126, 173, -1, 173, 126, 112, -1, 173, 112, 90, -1,
 270, 344, 271, -1, 271, 344, 345, -1, 205, 213, 223, -1,
 223, 213, 231, -1, 223, 231, 239, -1, 239, 231, 257, -1,
 239, 257, 249, -1, 249, 257, 283, -1, 249, 283, 265, -1,
 265, 283, 303, -1, 265, 303, 275, -1, 88, 84, 95, -1,
 84, 80, 95, -1, 95, 80, 74, -1, 95, 74, 70, -1,
 98, 161, 102, -1, 102, 161, 106, -1, 98, 88, 161, -1,
 161, 88, 95, -1, 161, 95, 149, -1, 149, 95, 121, -1,
 149, 121, 157, -1, 157, 121, 125, -1, 157, 125, 171, -1,
 171, 125, 135, -1, 171, 135, 179, -1, 179, 135, 145, -1,
 179, 145, 195, -1, 195, 145, 165, -1, 195, 165, 205, -1,
 205, 165, 191, -1, 205, 191, 213, -1, 199, 138, 183, -1,
 183, 138, 130, -1, 183, 130, 175, -1, 175, 130, 116, -1,
 175, 116, 161, -1, 161, 116, 110, -1, 161, 110, 106, -1,
 227, 216, 209, -1, 209, 216, 186, -1, 209, 186, 199, -1,
 199, 186, 152, -1, 199, 152, 138, -1, 269, 306, 253, -1,
 253, 306, 294, -1, 253, 294, 243, -1, 243, 294, 260, -1,
 243, 260, 227, -1, 227, 260, 234, -1, 227, 234, 216, -1,
 359, 388, 380, -1, 354, 342, 291, -1, 342, 338, 291, -1,
 291, 338, 334, -1, 291, 334, 279, -1, 279, 334, 330, -1,
 279, 330, 269, -1, 269, 330, 314, -1, 269, 314, 306, -1,
 380, 376, 359, -1, 359, 376, 372, -1, 359, 372, 362, -1,
 362, 354, 359, -1, 359, 354, 291, -1, 359, 291, 327, -1,
 327, 291, 299, -1, 327, 299, 323, -1, 323, 299, 287, -1,
 323, 287, 319, -1, 319, 287, 275, -1, 319, 275, 311, -1,
 311, 275, 303, -1, 330, 331, 314, -1, 314, 331, 315, -1,
 314, 315, 306, -1, 306, 315, 307, -1, 306, 307, 294, -1,
 294, 307, 295, -1, 294, 295, 260, -1, 260, 295, 261, -1,
 260, 261, 234, -1, 234, 261, 235, -1, 234, 235, 216, -1,
 216, 235, 217, -1, 216, 217, 186, -1, 186, 217, 187, -1,
 186, 187, 152, -1, 152, 187, 153, -1, 152, 153, 138, -1,
 138, 153, 139, -1, 138, 139, 130, -1, 130, 139, 131, -1,
 130, 131, 116, -1, 116, 131, 117, -1, 116, 117, 110, -1,
 110, 117, 111, -1, 379, 387, 356, -1, 288, 356, 296, -1,
 296, 356, 324, -1, 296, 324, 284, -1, 250, 305, 266, -1,
 266, 305, 313, -1, 266, 313, 276, -1, 276, 313, 329, -1,
 276, 329, 288, -1, 288, 329, 333, -1, 206, 215, 224, -1,
 224, 215, 233, -1, 224, 233, 240, -1, 240, 233, 259, -1,
 240, 259, 250, -1, 250, 259, 293, -1, 250, 293, 305, -1,
 69, 73, 92, -1, 92, 73, 79, -1, 92, 79, 83, -1,
 324, 320, 284, -1, 284, 320, 316, -1, 284, 316, 272, -1,
 272, 316, 308, -1, 272, 308, 262, -1, 262, 308, 300, -1,
 262, 300, 246, -1, 246, 300, 280, -1, 246, 280, 236, -1,
 236, 280, 254, -1, 236, 254, 220, -1, 361, 371, 356, -1,
 356, 371, 375, -1, 356, 375, 379, -1, 180, 137, 196, -1,
 196, 137, 151, -1, 196, 151, 206, -1, 206, 151, 185, -1,
 206, 185, 215, -1, 254, 228, 220, -1, 220, 228, 210, -1,
 220, 210, 202, -1, 202, 210, 188, -1, 202, 188, 192, -1,
 192, 188, 162, -1, 192, 162, 176, -1, 176, 162, 142, -1,
 176, 142, 168, -1, 168, 142, 132, -1, 168, 132, 154, -1,
 154, 132, 122, -1, 154, 122, 146, -1, 146, 122, 118, -1,
 146, 118, 158, -1, 158, 118, 92, -1, 333, 337, 288, -1,
 288, 337, 341, -1, 288, 341, 356, -1, 356, 341, 353, -1,
 356, 353, 361, -1, 83, 87, 92, -1, 92, 87, 97, -1,
 92, 97, 158, -1, 158, 97, 101, -1, 101, 105, 158, -1,
 158, 105, 109, -1, 158, 109, 172, -1, 172, 109, 115, -1,
 172, 115, 180, -1, 180, 115, 129, -1, 180, 129, 137, -1,
 109, 108, 115, -1, 115, 108, 114, -1, 115, 114, 129, -1,
 129, 114, 128, -1, 129, 128, 137, -1, 137, 128, 136, -1,
 137, 136, 151, -1, 151, 136, 150, -1, 151, 150, 185, -1,
 185, 150, 184, -1, 185, 184, 215, -1, 215, 184, 214, -1,
 215, 214, 233, -1, 233, 214, 232, -1, 233, 232, 259, -1,
 259, 232, 258, -1, 259, 258, 293, -1, 293, 258, 292, -1,
 293, 292, 305, -1, 305, 292, 304, -1, 305, 304, 313, -1,
 313, 304, 312, -1, 313, 312, 329, -1, 329, 312, 328, -1,
 296, 297, 288, -1, 288, 297, 289, -1, 288, 289, 276, -1,
 276, 289, 277, -1, 276, 277, 266, -1, 266, 277, 267, -1,
 266, 267, 250, -1, 250, 267, 251, -1, 250, 251, 240, -1,
 240, 251, 241, -1, 240, 241, 224, -1, 224, 241, 225, -1,
 224, 225, 206, -1, 206, 225, 207, -1, 206, 207, 196, -1,
 196, 207, 197, -1, 196, 197, 180, -1, 180, 197, 181, -1,
 180, 181, 172, -1, 172, 181, 173, -1, 172, 173, 158, -1,
 158, 173, 159, -1, 158, 159, 146, -1, 146, 159, 147, -1,
 298, 299, 290, -1, 290, 299, 291, -1, 290, 291, 278, -1,
 278, 291, 279, -1, 278, 279, 268, -1, 268, 279, 269, -1,
 268, 269, 252, -1, 252, 269, 253, -1, 252, 253, 242, -1,
 242, 253, 243, -1, 242, 243, 226, -1, 226, 243, 227, -1,
 226, 227, 208, -1, 208, 227, 209, -1, 208, 209, 198, -1,
 198, 209, 199, -1, 198, 199, 182, -1, 182, 199, 183, -1,
 182, 183, 174, -1, 174, 183, 175, -1, 174, 175, 160, -1,
 160, 175, 161, -1, 160, 161, 148, -1, 148, 161, 149, -1,
 110, 111, 107, -1, 110, 107, 106, -1, 106, 107, 103, -1,
 106, 103, 102, -1, 102, 103, 99, -1, 102, 99, 98, -1,
 98, 99, 89, -1, 98, 89, 88, -1, 88, 89, 85, -1,
 88, 85, 84, -1, 84, 85, 81, -1, 84, 81, 80, -1,
 80, 81, 75, -1, 80, 75, 74, -1, 74, 75, 71, -1,
 74, 71, 70, -1, 69, 68, 72, -1, 69, 72, 73, -1,
 73, 72, 78, -1, 73, 78, 79, -1, 79, 78, 82, -1,
 79, 82, 83, -1, 83, 82, 86, -1, 83, 86, 87, -1,
 87, 86, 96, -1, 87, 96, 97, -1, 97, 96, 100, -1,
 97, 100, 101, -1, 101, 100, 104, -1, 101, 104, 105, -1,
 105, 104, 108, -1, 105, 108, 109, -1, 386, 387, 379, -1,
 386, 379, 378, -1, 378, 379, 375, -1, 378, 375, 374, -1,
 374, 375, 371, -1, 374, 371, 370, -1, 370, 371, 361, -1,
 370, 361, 360, -1, 360, 361, 353, -1, 360, 353, 352, -1,
 352, 353, 341, -1, 352, 341, 340, -1, 340, 341, 337, -1,
 340, 337, 336, -1, 336, 337, 333, -1, 336, 333, 332, -1,
 332, 333, 329, -1, 332, 329, 328, -1, 331, 330, 334, -1,
 331, 334, 335, -1, 335, 334, 338, -1, 335, 338, 339, -1,
 339, 338, 342, -1, 339, 342, 343, -1, 343, 342, 354, -1,
 343, 354, 355, -1, 355, 354, 362, -1, 355, 362, 363, -1,
 363, 362, 372, -1, 363, 372, 373, -1, 373, 372, 376, -1,
 373, 376, 377, -1, 377, 376, 380, -1, 377, 380, 381, -1,
 381, 380, 388, -1, 381, 388, 389, -1, 462, 518, 488, -1,
 488, 518, 490, -1, 490, 518, 516, -1, 516, 518, 522, -1,
 516, 522, 533, -1, 50, 48, 432, -1, 432, 48, 518, -1,
 432, 518, 453, -1, 453, 518, 462, -1, 522, 552, 533, -1,
 533, 552, 562, -1, 533, 562, 535, -1, 535, 562, 598, -1,
 535, 598, 565, -1, 598, 604, 565, -1, 565, 604, 613, -1,
 565, 613, 578, -1, 613, 622, 578, -1, 578, 622, 635, -1,
 578, 635, 599, -1, 599, 635, 637, -1, 599, 637, 645, -1,
 6, 2, 50, -1, 50, 2, 48, -1, 4, 0, 6, -1,
 6, 0, 2, -1, 452, 465, 521, -1, 521, 517, 547, -1,
 547, 517, 534, -1, 547, 534, 555, -1, 555, 534, 536, -1,
 555, 536, 597, -1, 597, 536, 568, -1, 597, 568, 601, -1,
 465, 489, 521, -1, 521, 489, 491, -1, 521, 491, 517, -1,
 646, 638, 600, -1, 600, 638, 636, -1, 600, 636, 577, -1,
 577, 636, 621, -1, 577, 621, 568, -1, 568, 621, 614, -1,
 568, 614, 601, -1, 49, 51, 521, -1, 521, 51, 433, -1,
 521, 433, 452, -1, 3, 7, 49, -1, 49, 7, 51, -1,
 1, 5, 3, -1, 3, 5, 7, -1, 10, 12, 11, -1,
 11, 12, 13, -1, 8, 10, 9, -1, 9, 10, 11, -1,
 16, 18, 17, -1, 17, 18, 19, -1, 14, 16, 15, -1,
 15, 16, 17, -1, 22, 24, 23, -1, 23, 24, 25, -1,
 20, 22, 21, -1, 21, 22, 23, -1, 28, 30, 29, -1,
 29, 30, 31, -1, 26, 28, 27, -1, 27, 28, 29, -1,
 34, 36, 35, -1, 35, 36, 37, -1, 32, 34, 33, -1,
 33, 34, 35, -1, 608, 628, 557, -1, 557, 628, 572, -1,
 572, 628, 642, -1, 572, 642, 584, -1, 584, 642, 652, -1,
 584, 652, 592, -1, 557, 542, 608, -1, 608, 542, 528, -1,
 608, 528, 503, -1, 503, 528, 509, -1, 503, 509, 425, -1,
 425, 509, 493, -1, 425, 493, 479, -1, 420, 425, 404, -1,
 404, 425, 479, -1, 404, 479, 396, -1, 396, 479, 467, -1,
 396, 467, 382, -1, 382, 467, 455, -1, 382, 455, 364, -1,
 364, 455, 443, -1, 364, 443, 346, -1, 346, 443, 437, -1,
 346, 437, 350, -1, 350, 437, 446, -1, 350, 446, 368, -1,
 368, 446, 458, -1, 368, 458, 390, -1, 458, 470, 390, -1,
 390, 470, 482, -1, 390, 482, 519, -1, 482, 496, 519, -1,
 519, 496, 513, -1, 519, 513, 563, -1, 563, 513, 531, -1,
 563, 531, 605, -1, 605, 531, 545, -1, 605, 545, 625, -1,
 625, 545, 560, -1, 625, 560, 639, -1, 639, 560, 575, -1,
 639, 575, 648, -1, 648, 575, 587, -1, 648, 587, 656, -1,
 656, 587, 592, -1, 656, 592, 660, -1, 660, 592, 652, -1,
 609, 504, 510, -1, 483, 391, 497, -1, 497, 391, 520, -1,
 497, 520, 514, -1, 426, 423, 407, -1, 510, 504, 494, -1,
 494, 504, 426, -1, 494, 426, 480, -1, 480, 426, 407, -1,
 480, 407, 468, -1, 468, 407, 399, -1, 468, 399, 456, -1,
 456, 399, 385, -1, 456, 385, 444, -1, 444, 385, 367, -1,
 444, 367, 438, -1, 438, 367, 349, -1, 438, 349, 447, -1,
 483, 471, 391, -1, 391, 471, 459, -1, 391, 459, 369, -1,
 369, 459, 447, -1, 369, 447, 351, -1, 351, 447, 349, -1,
 588, 657, 593, -1, 593, 657, 661, -1, 593, 661, 585, -1,
 585, 661, 653, -1, 585, 653, 573, -1, 573, 653, 643, -1,
 573, 643, 558, -1, 558, 643, 629, -1, 558, 629, 543, -1,
 543, 629, 609, -1, 543, 609, 529, -1, 529, 609, 510, -1,
 514, 520, 532, -1, 532, 520, 564, -1, 532, 564, 546, -1,
 546, 564, 606, -1, 546, 606, 561, -1, 561, 606, 626, -1,
 561, 626, 576, -1, 576, 626, 640, -1, 576, 640, 588, -1,
 588, 640, 649, -1, 588, 649, 657, -1, 411, 409, 439, -1,
 439, 441, 411, -1, 411, 441, 449, -1, 411, 449, 415, -1,
 449, 451, 415, -1, 415, 451, 461, -1, 415, 461, 419, -1,
 461, 464, 419, -1, 419, 464, 473, -1, 419, 473, 431, -1,
 431, 473, 475, -1, 431, 475, 433, -1, 433, 475, 485, -1,
 433, 485, 452, -1, 452, 485, 487, -1, 452, 487, 465, -1,
 465, 487, 499, -1, 465, 499, 489, -1, 489, 499, 501, -1,
 489, 501, 491, -1, 491, 501, 515, -1, 491, 515, 517, -1,
 517, 515, 534, -1, 534, 515, 524, -1, 534, 524, 536, -1,
 536, 524, 526, -1, 536, 526, 568, -1, 568, 526, 538, -1,
 568, 538, 577, -1, 577, 538, 540, -1, 577, 540, 600, -1,
 600, 540, 551, -1, 600, 551, 603, -1, 603, 551, 554, -1,
 603, 554, 616, -1, 554, 567, 616, -1, 616, 567, 570, -1,
 616, 570, 620, -1, 594, 634, 590, -1, 590, 634, 632, -1,
 590, 632, 582, -1, 582, 632, 620, -1, 582, 620, 580, -1,
 580, 620, 570, -1, 631, 633, 591, -1, 591, 589, 631, -1,
 631, 589, 581, -1, 631, 581, 619, -1, 581, 579, 619, -1,
 619, 579, 569, -1, 619, 569, 615, -1, 569, 566, 615, -1,
 615, 566, 553, -1, 615, 553, 602, -1, 602, 553, 550, -1,
 602, 550, 599, -1, 599, 550, 539, -1, 599, 539, 578, -1,
 578, 539, 537, -1, 578, 537, 565, -1, 565, 537, 525, -1,
 565, 525, 535, -1, 535, 525, 523, -1, 535, 523, 533, -1,
 533, 523, 512, -1, 533, 512, 516, -1, 516, 512, 490, -1,
 490, 512, 500, -1, 490, 500, 488, -1, 488, 500, 498, -1,
 488, 498, 462, -1, 462, 498, 486, -1, 462, 486, 453, -1,
 453, 486, 484, -1, 453, 484, 432, -1, 432, 484, 474, -1,
 432, 474, 430, -1, 430, 474, 472, -1, 430, 472, 418, -1,
 472, 463, 418, -1, 418, 463, 460, -1, 418, 460, 414, -1,
 436, 408, 440, -1, 440, 408, 410, -1, 440, 410, 448, -1,
 448, 410, 414, -1, 448, 414, 450, -1, 450, 414, 460, -1
]
normalIndex [
 22, 22, 29, -1, 29, 22, 29, -1, 29, 29, 37, -1,
 37, 29, 37, -1, 37, 37, 49, -1, 49, 37, 49, -1,
 49, 49, 64, -1, 64, 49, 64, -1, 64, 64, 84, -1,
 84, 64, 84, -1, 84, 84, 106, -1, 106, 84, 106, -1,
 106, 106, 124, -1, 124, 106, 124, -1, 124, 124, 150, -1,
 150, 124, 150, -1, 150, 150, 170, -1, 170, 150, 170, -1,
 170, 170, 185, -1, 185, 170, 185, -1, 185, 185, 200, -1,
 200, 185, 200, -1, 200, 200, 211, -1, 211, 200, 211, -1,
 212, 212, 201, -1, 201, 212, 201, -1, 201, 201, 186, -1,
 186, 201, 186, -1, 186, 186, 171, -1, 171, 186, 171, -1,
 171, 171, 151, -1, 151, 171, 151, -1, 151, 151, 125, -1,
 125, 151, 125, -1, 125, 125, 107, -1, 107, 125, 107, -1,
 107, 107, 85, -1, 85, 107, 85, -1, 85, 85, 65, -1,
 65, 85, 65, -1, 65, 65, 50, -1, 50, 65, 50, -1,
 50, 50, 38, -1, 38, 50, 38, -1, 38, 38, 30, -1,
 30, 38, 30, -1, 30, 30, 23, -1, 23, 30, 23, -1,
 259, 259, 250, -1, 250, 259, 250, -1, 250, 250, 234, -1,
 234, 250, 234, -1, 234, 234, 213, -1, 213, 234, 213, -1,
 213, 213, 172, -1, 172, 213, 172, -1, 172, 172, 135, -1,
 135, 172, 135, -1, 135, 135, 108, -1, 108, 135, 108, -1,
 108, 108, 81, -1, 81, 108, 81, -1, 81, 81, 51, -1,
 51, 81, 51, -1, 51, 51, 24, -1, 24, 51, 24, -1,
 24, 24, 10, -1, 10, 24, 10, -1, 10, 10, 3, -1,
 3, 10, 3, -1, 3, 3, 0, -1, 0, 3, 0, -1,
 259, 259, 250, -1, 250, 259, 250, -1, 250, 250, 234, -1,
 234, 250, 234, -1, 234, 234, 213, -1, 213, 234, 213, -1,
 213, 213, 172, -1, 172, 213, 172, -1, 172, 172, 135, -1,
 135, 172, 135, -1, 135, 135, 108, -1, 108, 135, 108, -1,
 108, 108, 81, -1, 81, 108, 81, -1, 81, 81, 51, -1,
 51, 81, 51, -1, 51, 51, 24, -1, 24, 51, 24, -1,
 24, 24, 10, -1, 10, 24, 10, -1, 10, 10, 3, -1,
 3, 10, 3, -1, 3, 3, 0, -1, 0, 3, 0, -1,
 259, 259, 250, -1, 250, 259, 250, -1, 250, 250, 234, -1,
 234, 250, 234, -1, 234, 234, 213, -1, 213, 234, 213, -1,
 213, 213, 172, -1, 172, 213, 172, -1, 172, 172, 135, -1,
 135, 172, 135, -1, 135, 135, 108, -1, 108, 135, 108, -1,
 108, 108, 81, -1, 81, 108, 81, -1, 81, 81, 51, -1,
 51, 81, 51, -1, 51, 51, 24, -1, 24, 51, 24, -1,
 24, 24, 10, -1, 10, 24, 10, -1, 10, 10, 3, -1,
 3, 10, 3, -1, 3, 3, 0, -1, 0, 3, 0, -1,
 259, 259, 250, -1, 250, 259, 250, -1, 250, 250, 234, -1,
 234, 250, 234, -1, 234, 234, 213, -1, 213, 234, 213, -1,
 213, 213, 172, -1, 172, 213, 172, -1, 172, 172, 135, -1,
 135, 172, 135, -1, 135, 135, 108, -1, 108, 135, 108, -1,
 108, 108, 81, -1, 81, 108, 81, -1, 81, 81, 51, -1,
 51, 81, 51, -1, 51, 51, 24, -1, 24, 51, 24, -1,
 24, 24, 10, -1, 10, 24, 10, -1, 10, 10, 3, -1,
 3, 10, 3, -1, 3, 3, 0, -1, 0, 3, 0, -1,
 108, 108, 108, -1, 108, 108, 108, -1, 108, 108, 108, -1,
 108, 108, 108, -1, 108, 108, 108, -1, 108, 108, 108, -1,
 252, 252, 247, -1, 247, 252, 247, -1, 247, 247, 238, -1,
 238, 247, 238, -1, 238, 238, 237, -1, 237, 238, 230, -1,
 165, 165, 180, -1, 180, 165, 180, -1, 180, 180, 203, -1,
 203, 180, 203, -1, 203, 203, 204, -1, 204, 203, 217, -1,
 204, 217, 204, -1, 237, 237, 230, -1, 230, 237, 230, -1,
 230, 230, 217, -1, 217, 230, 217, -1, 217, 217, 204, -1,
 221, 222, 242, -1, 242, 222, 229, -1, 188, 158, 160, -1,
 160, 176, 188, -1, 188, 176, 189, -1, 188, 189, 221, -1,
 221, 189, 205, -1, 221, 205, 222, -1, 131, 108, 108, -1,
 108, 121, 131, -1, 131, 121, 129, -1, 131, 129, 158, -1,
 158, 129, 147, -1, 158, 147, 160, -1, 229, 242, 242, -1,
 242, 242, 254, -1, 242, 254, 254, -1, 254, 254, 255, -1,
 254, 255, 255, -1, 255, 255, 243, -1, 255, 243, 243, -1,
 243, 243, 226, -1, 243, 226, 226, -1, 226, 226, 195, -1,
 226, 195, 195, -1, 195, 195, 165, -1, 195, 165, 165, -1,
 104, 104, 104, -1, 104, 104, 104, -1, 104, 104, 104, -1,
 104, 104, 104, -1, 104, 104, 104, -1, 104, 104, 104, -1,
 104, 104, 104, -1, 104, 104, 104, -1, 104, 104, 104, -1,
 104, 104, 104, -1, 104, 104, 104, -1, 104, 104, 104, -1,
 104, 104, 104, -1, 104, 104, 104, -1, 104, 104, 104, -1,
 104, 104, 104, -1, 104, 104, 104, -1, 104, 104, 104, -1,
 104, 104, 104, -1, 104, 104, 104, -1, 104, 104, 104, -1,
 104, 104, 104, -1, 104, 104, 104, -1, 104, 104, 104, -1,
 104, 104, 104, -1, 104, 104, 104, -1, 104, 104, 104, -1,
 104, 104, 104, -1, 104, 104, 104, -1, 104, 104, 104, -1,
 104, 104, 104, -1, 104, 104, 104, -1, 104, 104, 104, -1,
 104, 104, 104, -1, 104, 104, 104, -1, 104, 104, 104, -1,
 104, 104, 104, -1, 104, 104, 104, -1, 104, 104, 104, -1,
 104, 104, 104, -1, 104, 104, 104, -1, 104, 104, 104, -1,
 104, 104, 104, -1, 104, 104, 104, -1, 104, 104, 104, -1,
 104, 104, 104, -1, 104, 104, 104, -1, 104, 104, 104, -1,
 104, 104, 104, -1, 104, 104, 104, -1, 104, 104, 104, -1,
 104, 104, 104, -1, 104, 104, 104, -1, 104, 104, 104, -1,
 104, 104, 104, -1, 104, 104, 104, -1, 104, 104, 104, -1,
 104, 104, 104, -1, 104, 104, 104, -1, 104, 104, 104, -1,
 0, 0, 1, -1, 0, 1, 2, -1, 1, 4, 2, -1,
 2, 4, 6, -1, 2, 6, 9, -1, 6, 11, 9, -1,
 9, 11, 13, -1, 9, 13, 21, -1, 13, 25, 21, -1,
 21, 25, 33, -1, 21, 33, 48, -1, 33, 54, 48, -1,
 48, 54, 57, -1, 48, 57, 80, -1, 57, 82, 80, -1,
 80, 82, 83, -1, 80, 83, 101, -1, 83, 101, 101, -1,
 101, 101, 132, -1, 101, 132, 134, -1, 132, 133, 134, -1,
 134, 133, 162, -1, 134, 162, 169, -1, 162, 166, 169, -1,
 169, 166, 194, -1, 169, 194, 210, -1, 194, 209, 210, -1,
 210, 209, 227, -1, 210, 227, 233, -1, 227, 232, 233, -1,
 233, 232, 244, -1, 233, 244, 249, -1, 259, 259, 256, -1,
 256, 259, 249, -1, 256, 249, 248, -1, 248, 249, 244, -1,
 131, 130, 128, -1, 131, 128, 108, -1, 108, 128, 110, -1,
 108, 110, 108, -1, 130, 131, 153, -1, 153, 131, 158, -1,
 153, 158, 159, -1, 159, 158, 174, -1, 174, 158, 188, -1,
 174, 188, 190, -1, 190, 188, 202, -1, 202, 188, 221, -1,
 202, 221, 223, -1, 223, 221, 229, -1, 229, 221, 242, -1,
 229, 242, 242, -1, 242, 242, 254, -1, 242, 254, 254, -1,
 254, 254, 255, -1, 254, 255, 255, -1, 255, 255, 243, -1,
 255, 243, 243, -1, 243, 243, 226, -1, 243, 226, 226, -1,
 226, 226, 195, -1, 226, 195, 195, -1, 195, 195, 165, -1,
 195, 165, 165, -1, 0, 0, 1, -1, 1, 0, 2, -1,
 1, 2, 4, -1, 4, 2, 6, -1, 6, 2, 9, -1,
 6, 9, 11, -1, 11, 9, 13, -1, 13, 9, 21, -1,
 13, 21, 25, -1, 25, 21, 33, -1, 33, 21, 48, -1,
 33, 48, 54, -1, 54, 48, 57, -1, 57, 48, 80, -1,
 57, 80, 82, -1, 82, 80, 83, -1, 83, 80, 101, -1,
 83, 101, 101, -1, 101, 101, 132, -1, 132, 101, 134, -1,
 132, 134, 133, -1, 133, 134, 162, -1, 162, 134, 169, -1,
 162, 169, 166, -1, 166, 169, 194, -1, 194, 169, 210, -1,
 194, 210, 209, -1, 209, 210, 227, -1, 227, 210, 233, -1,
 227, 233, 232, -1, 232, 233, 244, -1, 244, 233, 249, -1,
 244, 249, 248, -1, 248, 249, 256, -1, 256, 249, 259, -1,
 256, 259, 259, -1, 101, 101, 101, -1, 101, 101, 101, -1,
 101, 101, 101, -1, 101, 101, 101, -1, 101, 101, 101, -1,
 101, 101, 101, -1, 101, 101, 101, -1, 101, 101, 101, -1,
 101, 101, 101, -1, 101, 101, 101, -1, 18, 18, 28, -1,
 28, 18, 18, -1, 5, 5, 7, -1, 7, 5, 7, -1,
 7, 7, 14, -1, 14, 7, 14, -1, 14, 14, 16, -1,
 16, 14, 18, -1, 16, 18, 14, -1, 14, 18, 14, -1,
 14, 14, 7, -1, 7, 14, 7, -1, 7, 7, 5, -1,
 5, 7, 5, -1, 235, 235, 219, -1, 219, 235, 219, -1,
 219, 219, 196, -1, 196, 219, 196, -1, 196, 196, 177, -1,
 177, 196, 177, -1, 177, 177, 154, -1, 154, 177, 154, -1,
 154, 154, 136, -1, 136, 154, 136, -1, 136, 136, 114, -1,
 114, 136, 114, -1, 114, 114, 100, -1, 100, 114, 100, -1,
 100, 100, 92, -1, 92, 100, 92, -1, 92, 92, 75, -1,
 75, 92, 75, -1, 75, 75, 59, -1, 59, 75, 59, -1,
 59, 59, 43, -1, 43, 59, 43, -1, 43, 43, 28, -1,
 28, 43, 28, -1, 28, 28, 18, -1, 18, 28, 18, -1,
 18, 18, 16, -1, 16, 18, 16, -1, 5, 5, 12, -1,
 5, 12, 12, -1, 12, 12, 20, -1, 12, 20, 20, -1,
 20, 20, 46, -1, 20, 46, 46, -1, 46, 46, 69, -1,
 46, 69, 69, -1, 69, 69, 96, -1, 69, 96, 96, -1,
 96, 96, 111, -1, 96, 111, 111, -1, 111, 111, 138, -1,
 111, 138, 138, -1, 138, 138, 173, -1, 138, 173, 173, -1,
 173, 173, 197, -1, 173, 197, 197, -1, 197, 197, 224, -1,
 197, 224, 224, -1, 224, 224, 240, -1, 224, 240, 240, -1,
 240, 240, 252, -1, 240, 252, 252, -1, 204, 204, 217, -1,
 237, 237, 230, -1, 252, 252, 247, -1, 247, 252, 247, -1,
 247, 247, 238, -1, 238, 247, 238, -1, 238, 238, 230, -1,
 165, 165, 180, -1, 180, 165, 180, -1, 180, 180, 203, -1,
 203, 180, 203, -1, 203, 203, 217, -1, 238, 237, 230, -1,
 230, 237, 230, -1, 230, 230, 217, -1, 217, 230, 217, -1,
 217, 217, 204, -1, 204, 217, 203, -1, 5, 5, 12, -1,
 5, 12, 12, -1, 12, 12, 20, -1, 12, 20, 20, -1,
 20, 20, 46, -1, 20, 46, 46, -1, 46, 46, 69, -1,
 46, 69, 69, -1, 69, 69, 96, -1, 69, 96, 96, -1,
 96, 96, 111, -1, 96, 111, 111, -1, 111, 111, 138, -1,
 111, 138, 138, -1, 138, 138, 173, -1, 138, 173, 173, -1,
 173, 173, 197, -1, 173, 197, 197, -1, 197, 197, 224, -1,
 197, 224, 224, -1, 224, 224, 240, -1, 224, 240, 240, -1,
 240, 240, 252, -1, 240, 252, 252, -1, 101, 101, 101, -1,
 101, 101, 101, -1, 101, 101, 101, -1, 101, 101, 101, -1,
 44, 44, 44, -1, 44, 44, 44, -1, 0, 0, 0, -1,
 0, 0, 0, -1, 105, 105, 105, -1, 105, 105, 105, -1,
 105, 105, 105, -1, 105, 105, 105, -1, 105, 105, 105, -1,
 105, 105, 105, -1, 105, 105, 105, -1, 105, 105, 105, -1,
 105, 105, 105, -1, 105, 105, 105, -1, 105, 105, 105, -1,
 105, 105, 105, -1, 105, 105, 105, -1, 105, 105, 105, -1,
 105, 105, 105, -1, 105, 105, 105, -1, 105, 105, 105, -1,
 105, 105, 105, -1, 105, 105, 105, -1, 105, 105, 105, -1,
 105, 105, 105, -1, 105, 105, 105, -1, 105, 105, 105, -1,
 105, 105, 105, -1, 105, 105, 105, -1, 105, 105, 105, -1,
 105, 105, 105, -1, 105, 105, 105, -1, 105, 105, 105, -1,
 105, 105, 105, -1, 105, 105, 105, -1, 105, 105, 105, -1,
 105, 105, 105, -1, 105, 105, 105, -1, 105, 105, 105, -1,
 105, 105, 105, -1, 105, 105, 105, -1, 105, 105, 105, -1,
 105, 105, 105, -1, 105, 105, 105, -1, 105, 105, 105, -1,
 105, 105, 105, -1, 105, 105, 105, -1, 105, 105, 105, -1,
 105, 105, 105, -1, 105, 105, 105, -1, 105, 105, 105, -1,
 105, 105, 105, -1, 105, 105, 105, -1, 105, 105, 105, -1,
 105, 105, 105, -1, 105, 105, 105, -1, 105, 105, 105, -1,
 105, 105, 105, -1, 105, 105, 105, -1, 105, 105, 105, -1,
 105, 105, 105, -1, 105, 105, 105, -1, 105, 105, 105, -1,
 105, 105, 105, -1, 105, 105, 105, -1, 105, 105, 105, -1,
 105, 105, 105, -1, 105, 105, 105, -1, 105, 105, 105, -1,
 105, 105, 105, -1, 105, 105, 105, -1, 105, 105, 105, -1,
 105, 105, 105, -1, 105, 105, 105, -1, 105, 105, 105, -1,
 105, 105, 105, -1, 105, 105, 105, -1, 105, 105, 105, -1,
 105, 105, 105, -1, 105, 105, 105, -1, 105, 105, 105, -1,
 105, 105, 105, -1, 105, 105, 105, -1, 105, 105, 105, -1,
 105, 105, 105, -1, 105, 105, 105, -1, 105, 105, 105, -1,
 105, 105, 105, -1, 105, 105, 105, -1, 105, 105, 105, -1,
 105, 105, 105, -1, 105, 105, 105, -1, 105, 105, 105, -1,
 105, 105, 105, -1, 105, 105, 105, -1, 105, 105, 105, -1,
 105, 105, 105, -1, 105, 105, 105, -1, 104, 104, 104, -1,
 104, 104, 104, -1, 104, 104, 104, -1, 104, 104, 104, -1,
 104, 104, 104, -1, 104, 104, 104, -1, 104, 104, 104, -1,
 104, 104, 104, -1, 104, 104, 104, -1, 104, 104, 104, -1,
 104, 104, 104, -1, 104, 104, 104, -1, 104, 104, 104, -1,
 104, 104, 104, -1, 104, 104, 104, -1, 104, 104, 104, -1,
 104, 104, 104, -1, 104, 104, 104, -1, 104, 104, 104, -1,
 104, 104, 104, -1, 104, 104, 104, -1, 104, 104, 104, -1,
 104, 104, 104, -1, 104, 104, 104, -1, 104, 104, 104, -1,
 104, 104, 104, -1, 104, 104, 104, -1, 104, 104, 104, -1,
 104, 104, 104, -1, 104, 104, 104, -1, 104, 104, 104, -1,
 104, 104, 104, -1, 104, 104, 104, -1, 104, 104, 104, -1,
 104, 104, 104, -1, 104, 104, 104, -1, 104, 104, 104, -1,
 104, 104, 104, -1, 104, 104, 104, -1, 104, 104, 104, -1,
 104, 104, 104, -1, 104, 104, 104, -1, 104, 104, 104, -1,
 104, 104, 104, -1, 104, 104, 104, -1, 104, 104, 104, -1,
 104, 104, 104, -1, 104, 104, 104, -1, 104, 104, 104, -1,
 104, 104, 104, -1, 104, 104, 104, -1, 104, 104, 104, -1,
 104, 104, 104, -1, 104, 104, 104, -1, 104, 104, 104, -1,
 104, 104, 104, -1, 104, 104, 104, -1, 104, 104, 104, -1,
 104, 104, 104, -1, 104, 104, 104, -1, 104, 104, 104, -1,
 104, 104, 104, -1, 104, 104, 104, -1, 104, 104, 104, -1,
 104, 104, 104, -1, 104, 104, 104, -1, 104, 104, 104, -1,
 104, 104, 104, -1, 104, 104, 104, -1, 104, 104, 104, -1,
 104, 104, 104, -1, 104, 104, 104, -1, 104, 104, 104, -1,
 104, 104, 104, -1, 104, 104, 104, -1, 104, 104, 104, -1,
 104, 104, 104, -1, 104, 104, 104, -1, 104, 104, 104, -1,
 104, 104, 104, -1, 104, 104, 104, -1, 104, 104, 104, -1,
 104, 104, 104, -1, 104, 104, 104, -1, 104, 104, 104, -1,
 104, 104, 104, -1, 104, 104, 104, -1, 104, 104, 104, -1,
 104, 104, 104, -1, 104, 104, 104, -1, 104, 104, 104, -1,
 104, 104, 104, -1, 104, 104, 104, -1, 104, 104, 104, -1,
 68, 68, 93, -1, 93, 68, 93, -1, 93, 93, 109, -1,
 109, 93, 109, -1, 109, 109, 127, -1, 127, 109, 127, -1,
 127, 127, 152, -1, 152, 127, 152, -1, 152, 152, 178, -1,
 178, 152, 178, -1, 178, 178, 208, -1, 208, 178, 208, -1,
 208, 208, 225, -1, 225, 208, 225, -1, 225, 225, 239, -1,
 239, 225, 239, -1, 239, 239, 251, -1, 251, 239, 251, -1,
 141, 141, 175, -1, 175, 141, 175, -1, 175, 175, 214, -1,
 214, 175, 214, -1, 214, 214, 231, -1, 231, 214, 231, -1,
 231, 231, 246, -1, 246, 231, 246, -1, 246, 246, 257, -1,
 257, 246, 257, -1, 257, 257, 258, -1, 258, 257, 253, -1,
 258, 253, 258, -1, 141, 141, 175, -1, 175, 141, 175, -1,
 175, 175, 214, -1, 214, 175, 214, -1, 214, 214, 231, -1,
 231, 214, 231, -1, 231, 231, 246, -1, 246, 231, 246, -1,
 246, 246, 257, -1, 257, 246, 257, -1, 257, 257, 253, -1,
 220, 220, 241, -1, 241, 220, 241, -1, 241, 241, 253, -1,
 253, 241, 253, -1, 253, 253, 258, -1, 258, 253, 257, -1,
 105, 105, 105, -1, 105, 105, 105, -1, 105, 105, 105, -1,
 105, 105, 105, -1, 105, 105, 105, -1, 105, 105, 105, -1,
 105, 105, 105, -1, 105, 105, 105, -1, 105, 105, 105, -1,
 105, 105, 105, -1, 105, 105, 105, -1, 105, 105, 105, -1,
 105, 105, 105, -1, 105, 105, 105, -1, 105, 105, 105, -1,
 105, 105, 105, -1, 105, 105, 105, -1, 105, 105, 105, -1,
 105, 105, 105, -1, 105, 105, 105, -1, 105, 105, 105, -1,
 105, 105, 105, -1, 105, 105, 105, -1, 105, 105, 105, -1,
 105, 105, 105, -1, 105, 105, 105, -1, 105, 105, 105, -1,
 105, 105, 105, -1, 105, 105, 105, -1, 105, 105, 105, -1,
 105, 105, 105, -1, 105, 105, 105, -1, 105, 105, 105, -1,
 105, 105, 105, -1, 105, 105, 105, -1, 105, 105, 105, -1,
 105, 105, 105, -1, 105, 105, 105, -1, 105, 105, 105, -1,
 105, 105, 105, -1, 105, 105, 105, -1, 105, 105, 105, -1,
 105, 105, 105, -1, 105, 105, 105, -1, 105, 105, 105, -1,
 105, 105, 105, -1, 105, 105, 105, -1, 105, 105, 105, -1,
 105, 105, 105, -1, 105, 105, 105, -1, 105, 105, 105, -1,
 105, 105, 105, -1, 105, 105, 105, -1, 105, 105, 105, -1,
 105, 105, 105, -1, 105, 105, 105, -1, 105, 105, 105, -1,
 105, 105, 105, -1, 105, 105, 105, -1, 105, 105, 105, -1,
 210, 210, 210, -1, 210, 210, 210, -1, 105, 105, 105, -1,
 105, 105, 105, -1, 105, 105, 105, -1, 105, 105, 105, -1,
 105, 105, 105, -1, 105, 105, 105, -1, 105, 105, 105, -1,
 105, 105, 105, -1, 105, 105, 105, -1, 105, 105, 105, -1,
 105, 105, 105, -1, 105, 105, 105, -1, 105, 105, 105, -1,
 105, 105, 105, -1, 105, 105, 105, -1, 105, 105, 105, -1,
 105, 105, 105, -1, 105, 105, 105, -1, 105, 105, 105, -1,
 105, 105, 105, -1, 105, 105, 105, -1, 105, 105, 105, -1,
 105, 105, 105, -1, 105, 105, 105, -1, 105, 105, 105, -1,
 105, 105, 105, -1, 105, 105, 105, -1, 105, 105, 105, -1,
 105, 105, 105, -1, 105, 105, 105, -1, 105, 105, 105, -1,
 105, 105, 105, -1, 105, 105, 105, -1, 105, 105, 105, -1,
 105, 105, 105, -1, 105, 105, 105, -1, 105, 105, 105, -1,
 105, 105, 105, -1, 105, 105, 105, -1, 105, 105, 105, -1,
 105, 105, 105, -1, 105, 105, 105, -1, 105, 105, 105, -1,
 105, 105, 105, -1, 105, 105, 105, -1, 105, 105, 105, -1,
 105, 105, 105, -1, 105, 105, 105, -1, 105, 105, 105, -1,
 105, 105, 105, -1, 105, 105, 105, -1, 105, 105, 105, -1,
 105, 105, 105, -1, 105, 105, 105, -1, 105, 105, 105, -1,
 105, 105, 105, -1, 105, 105, 105, -1, 105, 105, 105, -1,
 105, 105, 105, -1, 105, 105, 105, -1, 105, 105, 105, -1,
 105, 105, 105, -1, 105, 105, 105, -1, 105, 105, 105, -1,
 105, 105, 105, -1, 105, 105, 105, -1, 105, 105, 105, -1,
 105, 105, 105, -1, 105, 105, 105, -1, 105, 105, 105, -1,
 105, 105, 105, -1, 8, 8, 17, -1, 17, 8, 17, -1,
 17, 17, 36, -1, 36, 17, 36, -1, 36, 36, 58, -1,
 58, 36, 58, -1, 58, 58, 79, -1, 79, 58, 79, -1,
 79, 79, 98, -1, 98, 79, 98, -1, 98, 98, 112, -1,
 112, 98, 112, -1, 112, 112, 137, -1, 137, 112, 137, -1,
 137, 137, 161, -1, 161, 137, 161, -1, 161, 161, 187, -1,
 187, 161, 187, -1, 187, 187, 216, -1, 216, 187, 216, -1,
 216, 216, 236, -1, 236, 216, 236, -1, 236, 236, 245, -1,
 245, 236, 245, -1, 104, 104, 104, -1, 104, 104, 104, -1,
 104, 104, 104, -1, 104, 104, 104, -1, 104, 104, 104, -1,
 104, 104, 104, -1, 104, 104, 104, -1, 104, 104, 104, -1,
 104, 104, 104, -1, 104, 104, 104, -1, 104, 104, 104, -1,
 104, 104, 104, -1, 104, 104, 104, -1, 104, 104, 104, -1,
 104, 104, 104, -1, 104, 104, 104, -1, 104, 104, 104, -1,
 104, 104, 104, -1, 104, 104, 104, -1, 104, 104, 104, -1,
 104, 104, 104, -1, 104, 104, 104, -1, 104, 104, 104, -1,
 104, 104, 104, -1, 104, 104, 104, -1, 104, 104, 104, -1,
 104, 104, 104, -1, 104, 104, 104, -1, 104, 104, 104, -1,
 104, 104, 104, -1, 104, 104, 104, -1, 104, 104, 104, -1,
 104, 104, 104, -1, 104, 104, 104, -1, 104, 104, 104, -1,
 104, 104, 104, -1, 104, 104, 104, -1, 104, 104, 104, -1,
 104, 104, 104, -1, 104, 104, 104, -1, 104, 104, 104, -1,
 104, 104, 104, -1, 104, 104, 104, -1, 104, 104, 104, -1,
 104, 104, 104, -1, 104, 104, 104, -1, 104, 104, 104, -1,
 104, 104, 104, -1, 104, 104, 104, -1, 104, 104, 104, -1,
 104, 104, 104, -1, 104, 104, 104, -1, 104, 104, 104, -1,
 104, 104, 104, -1, 104, 104, 104, -1, 104, 104, 104, -1,
 104, 104, 104, -1, 104, 104, 104, -1, 104, 104, 104, -1,
 104, 104, 104, -1, 104, 104, 104, -1, 104, 104, 104, -1,
 104, 104, 104, -1, 104, 104, 104, -1, 104, 104, 104, -1,
 104, 104, 104, -1, 104, 104, 104, -1, 104, 104, 104, -1,
 104, 104, 104, -1, 104, 104, 104, -1, 104, 104, 104, -1,
 245, 245, 236, -1, 236, 245, 236, -1, 236, 236, 216, -1,
 216, 236, 216, -1, 216, 216, 187, -1, 187, 216, 187, -1,
 187, 187, 161, -1, 161, 187, 161, -1, 161, 161, 137, -1,
 137, 161, 137, -1, 137, 137, 112, -1, 112, 137, 112, -1,
 112, 112, 98, -1, 98, 112, 98, -1, 98, 98, 79, -1,
 79, 98, 79, -1, 79, 79, 58, -1, 58, 79, 58, -1,
 58, 58, 36, -1, 36, 58, 36, -1, 36, 36, 17, -1,
 17, 36, 17, -1, 17, 17, 8, -1, 8, 17, 8, -1,
 0, 0, 2, -1, 2, 0, 2, -1, 2, 2, 9, -1,
 9, 2, 9, -1, 9, 9, 21, -1, 21, 9, 21, -1,
 21, 21, 48, -1, 48, 21, 48, -1, 48, 48, 80, -1,
 80, 48, 80, -1, 80, 80, 101, -1, 101, 80, 101, -1,
 101, 101, 134, -1, 134, 101, 134, -1, 134, 134, 169, -1,
 169, 134, 169, -1, 169, 169, 210, -1, 210, 169, 210, -1,
 210, 210, 233, -1, 233, 210, 233, -1, 233, 233, 249, -1,
 249, 233, 249, -1, 249, 249, 259, -1, 259, 249, 259, -1,
 0, 0, 2, -1, 2, 0, 2, -1, 2, 2, 9, -1,
 9, 2, 9, -1, 9, 9, 21, -1, 21, 9, 21, -1,
 21, 21, 48, -1, 48, 21, 48, -1, 48, 48, 80, -1,
 80, 48, 80, -1, 80, 80, 101, -1, 101, 80, 101, -1,
 101, 101, 134, -1, 134, 101, 134, -1, 134, 134, 169, -1,
 169, 134, 169, -1, 169, 169, 210, -1, 210, 169, 210, -1,
 210, 210, 233, -1, 233, 210, 233, -1, 233, 233, 249, -1,
 249, 233, 249, -1, 249, 249, 259, -1, 259, 249, 259, -1,
 245, 245, 228, -1, 245, 228, 228, -1, 228, 228, 193, -1,
 228, 193, 193, -1, 193, 193, 157, -1, 193, 157, 157, -1,
 157, 157, 126, -1, 157, 126, 126, -1, 126, 126, 99, -1,
 126, 99, 99, -1, 99, 99, 77, -1, 99, 77, 77, -1,
 77, 77, 47, -1, 77, 47, 47, -1, 47, 47, 18, -1,
 47, 18, 18, -1, 18, 18, 47, -1, 18, 47, 47, -1,
 47, 47, 77, -1, 47, 77, 77, -1, 77, 77, 99, -1,
 77, 99, 99, -1, 99, 99, 126, -1, 99, 126, 126, -1,
 126, 126, 157, -1, 126, 157, 157, -1, 157, 157, 193, -1,
 157, 193, 193, -1, 193, 193, 228, -1, 193, 228, 228, -1,
 228, 228, 245, -1, 228, 245, 245, -1, 237, 237, 215, -1,
 237, 215, 215, -1, 215, 215, 179, -1, 215, 179, 179, -1,
 179, 179, 146, -1, 179, 146, 146, -1, 146, 146, 113, -1,
 146, 113, 113, -1, 113, 113, 97, -1, 113, 97, 97, -1,
 97, 97, 70, -1, 97, 70, 70, -1, 70, 70, 45, -1,
 70, 45, 45, -1, 45, 45, 19, -1, 45, 19, 19, -1,
 19, 19, 8, -1, 19, 8, 8, -1, 8, 8, 19, -1,
 8, 19, 19, -1, 19, 19, 45, -1, 19, 45, 45, -1,
 45, 45, 70, -1, 45, 70, 70, -1, 70, 70, 97, -1,
 70, 97, 97, -1, 97, 97, 113, -1, 97, 113, 113, -1,
 113, 113, 146, -1, 113, 146, 146, -1, 146, 146, 179, -1,
 146, 179, 179, -1, 179, 179, 215, -1, 179, 215, 215, -1,
 215, 215, 237, -1, 215, 237, 237, -1, 106, 106, 106, -1,
 106, 106, 106, -1, 106, 106, 106, -1, 106, 106, 106, -1,
 106, 106, 106, -1, 106, 106, 106, -1, 106, 106, 106, -1,
 106, 106, 106, -1, 106, 106, 106, -1, 106, 106, 106, -1,
 106, 106, 106, -1, 106, 106, 106, -1, 106, 106, 106, -1,
 106, 106, 106, -1, 106, 106, 106, -1, 106, 106, 106, -1,
 106, 106, 106, -1, 106, 106, 106, -1, 106, 106, 106, -1,
 106, 106, 106, -1, 106, 106, 106, -1, 106, 106, 106, -1,
 62, 62, 62, -1, 62, 62, 62, -1, 22, 22, 22, -1,
 22, 22, 22, -1, 107, 107, 107, -1, 107, 107, 107, -1,
 107, 107, 107, -1, 107, 107, 107, -1, 107, 107, 107, -1,
 107, 107, 107, -1, 107, 107, 107, -1, 107, 107, 107, -1,
 107, 107, 107, -1, 107, 107, 107, -1, 107, 107, 107, -1,
 107, 107, 107, -1, 107, 107, 107, -1, 107, 107, 107, -1,
 107, 107, 107, -1, 107, 107, 107, -1, 107, 107, 107, -1,
 107, 107, 107, -1, 107, 107, 107, -1, 107, 107, 107, -1,
 107, 107, 107, -1, 63, 63, 63, -1, 63, 63, 63, -1,
 23, 23, 23, -1, 23, 23, 23, -1, 15, 15, 15, -1,
 15, 15, 15, -1, 218, 218, 218, -1, 218, 218, 218, -1,
 15, 15, 15, -1, 15, 15, 15, -1, 218, 218, 218, -1,
 218, 218, 218, -1, 15, 15, 15, -1, 15, 15, 15, -1,
 218, 218, 218, -1, 218, 218, 218, -1, 15, 15, 15, -1,
 15, 15, 15, -1, 218, 218, 218, -1, 218, 218, 218, -1,
 15, 15, 15, -1, 15, 15, 15, -1, 218, 218, 218, -1,
 218, 218, 218, -1, 105, 105, 105, -1, 105, 105, 105, -1,
 105, 105, 105, -1, 105, 105, 105, -1, 105, 105, 105, -1,
 105, 105, 105, -1, 105, 105, 105, -1, 105, 105, 105, -1,
 105, 105, 105, -1, 105, 105, 105, -1, 105, 105, 105, -1,
 105, 105, 105, -1, 105, 105, 105, -1, 105, 105, 105, -1,
 105, 105, 105, -1, 105, 105, 105, -1, 105, 105, 105, -1,
 105, 105, 105, -1, 105, 105, 105, -1, 105, 105, 105, -1,
 105, 105, 105, -1, 105, 105, 105, -1, 105, 105, 105, -1,
 105, 105, 105, -1, 105, 105, 105, -1, 105, 105, 105, -1,
 105, 105, 105, -1, 105, 105, 105, -1, 105, 105, 105, -1,
 105, 105, 105, -1, 105, 105, 105, -1, 105, 105, 105, -1,
 105, 105, 105, -1, 105, 105, 105, -1, 105, 105, 105, -1,
 105, 105, 105, -1, 105, 105, 105, -1, 105, 105, 105, -1,
 105, 105, 105, -1, 105, 105, 105, -1, 105, 105, 105, -1,
 105, 105, 105, -1, 105, 105, 105, -1, 105, 105, 105, -1,
 105, 105, 105, -1, 105, 105, 105, -1, 105, 105, 105, -1,
 104, 104, 104, -1, 104, 104, 104, -1, 104, 104, 104, -1,
 104, 104, 104, -1, 104, 104, 104, -1, 104, 104, 104, -1,
 104, 104, 104, -1, 104, 104, 104, -1, 104, 104, 104, -1,
 104, 104, 104, -1, 104, 104, 104, -1, 104, 104, 104, -1,
 104, 104, 104, -1, 104, 104, 104, -1, 104, 104, 104, -1,
 104, 104, 104, -1, 104, 104, 104, -1, 104, 104, 104, -1,
 104, 104, 104, -1, 104, 104, 104, -1, 104, 104, 104, -1,
 104, 104, 104, -1, 104, 104, 104, -1, 104, 104, 104, -1,
 104, 104, 104, -1, 104, 104, 104, -1, 104, 104, 104, -1,
 104, 104, 104, -1, 104, 104, 104, -1, 104, 104, 104, -1,
 104, 104, 104, -1, 104, 104, 104, -1, 104, 104, 104, -1,
 104, 104, 104, -1, 104, 104, 104, -1, 104, 104, 104, -1,
 104, 104, 104, -1, 104, 104, 104, -1, 104, 104, 104, -1,
 104, 104, 104, -1, 104, 104, 104, -1, 104, 104, 104, -1,
 104, 104, 104, -1, 104, 104, 104, -1, 104, 104, 104, -1,
 104, 104, 104, -1, 104, 104, 104, -1, 207, 212, 212, -1,
 212, 207, 207, -1, 207, 207, 199, -1, 207, 199, 192, -1,
 199, 192, 192, -1, 192, 192, 184, -1, 192, 184, 182, -1,
 184, 182, 182, -1, 182, 182, 168, -1, 182, 168, 164, -1,
 164, 168, 164, -1, 164, 164, 156, -1, 156, 164, 149, -1,
 156, 149, 145, -1, 145, 149, 143, -1, 145, 143, 139, -1,
 139, 143, 123, -1, 139, 123, 120, -1, 120, 123, 118, -1,
 120, 118, 115, -1, 115, 118, 103, -1, 115, 103, 103, -1,
 103, 103, 94, -1, 94, 103, 91, -1, 94, 91, 89, -1,
 89, 91, 87, -1, 89, 87, 76, -1, 76, 87, 74, -1,
 76, 74, 72, -1, 72, 74, 67, -1, 72, 67, 61, -1,
 61, 67, 56, -1, 61, 56, 56, -1, 56, 56, 53, -1,
 56, 53, 42, -1, 53, 42, 42, -1, 42, 42, 40, -1,
 42, 40, 35, -1, 23, 23, 27, -1, 27, 23, 27, -1,
 27, 27, 32, -1, 32, 27, 35, -1, 32, 35, 35, -1,
 35, 35, 40, -1, 26, 22, 22, -1, 22, 26, 26, -1,
 26, 26, 31, -1, 26, 31, 34, -1, 31, 34, 34, -1,
 34, 34, 39, -1, 34, 39, 41, -1, 39, 41, 41, -1,
 41, 41, 52, -1, 41, 52, 55, -1, 55, 52, 55, -1,
 55, 55, 60, -1, 60, 55, 66, -1, 60, 66, 71, -1,
 71, 66, 73, -1, 71, 73, 78, -1, 78, 73, 86, -1,
 78, 86, 88, -1, 88, 86, 90, -1, 88, 90, 95, -1,
 95, 90, 102, -1, 95, 102, 102, -1, 102, 102, 116, -1,
 116, 102, 117, -1, 116, 117, 119, -1, 119, 117, 122, -1,
 119, 122, 140, -1, 140, 122, 142, -1, 140, 142, 144, -1,
 144, 142, 148, -1, 144, 148, 155, -1, 155, 148, 163, -1,
 155, 163, 163, -1, 163, 163, 167, -1, 163, 167, 181, -1,
 167, 181, 181, -1, 181, 181, 183, -1, 181, 183, 191, -1,
 211, 211, 206, -1, 206, 211, 206, -1, 206, 206, 198, -1,
 198, 206, 191, -1, 198, 191, 191, -1, 191, 191, 183, -1
]
colorPerVertex FALSE
normalPerVertex TRUE
}
}
]
}
